<?xml version="1.0" encoding="utf-8" standalone="no"?>
<!DOCTYPE svg PUBLIC "-//W3C//DTD SVG 1.1//EN"
  "http://www.w3.org/Graphics/SVG/1.1/DTD/svg11.dtd">
<!-- Created with matplotlib (https://matplotlib.org/) -->
<svg height="660.12975pt" version="1.1" viewBox="0 0 592.125 660.12975" width="592.125pt" xmlns="http://www.w3.org/2000/svg" xmlns:xlink="http://www.w3.org/1999/xlink">
 <metadata>
  <rdf:RDF xmlns:cc="http://creativecommons.org/ns#" xmlns:dc="http://purl.org/dc/elements/1.1/" xmlns:rdf="http://www.w3.org/1999/02/22-rdf-syntax-ns#">
   <cc:Work>
    <dc:type rdf:resource="http://purl.org/dc/dcmitype/StillImage"/>
    <dc:date>2021-01-13T11:55:40.989267</dc:date>
    <dc:format>image/svg+xml</dc:format>
    <dc:creator>
     <cc:Agent>
      <dc:title>Matplotlib v3.3.2, https://matplotlib.org/</dc:title>
     </cc:Agent>
    </dc:creator>
   </cc:Work>
  </rdf:RDF>
 </metadata>
 <defs>
  <style type="text/css">*{stroke-linecap:butt;stroke-linejoin:round;}</style>
 </defs>
 <g id="figure_1">
  <g id="patch_1">
   <path d="M 0 660.12975 
L 592.125 660.12975 
L 592.125 0 
L 0 0 
z
" style="fill:none;"/>
  </g>
  <g id="axes_1">
   <g id="patch_2">
    <path d="M 26.925 582.9575 
L 584.925 582.9575 
L 584.925 39.3575 
L 26.925 39.3575 
z
" style="fill:#ffffff;"/>
   </g>
   <g id="patch_3">
    <path clip-path="url(#pecabd8d118)" d="M 94.561364 582.9575 
L 429.361364 582.9575 
L 429.361364 39.3575 
L 94.561364 39.3575 
z
" style="fill:#1f77b4;opacity:0.2;"/>
   </g>
   <g id="matplotlib.axis_1">
    <g id="xtick_1">
     <g id="line2d_1">
      <defs>
       <path d="M 0 0 
L 0 3.5 
" id="mb79e0226d8" style="stroke:#000000;stroke-width:0.8;"/>
      </defs>
      <g>
       <use style="stroke:#000000;stroke-width:0.8;" x="52.288636" xlink:href="#mb79e0226d8" y="582.9575"/>
      </g>
     </g>
     <g id="text_1">
      <!-- 0 -->
      <g transform="translate(49.107386 597.555938)scale(0.1 -0.1)">
       <defs>
        <path d="M 31.78125 66.40625 
Q 24.171875 66.40625 20.328125 58.90625 
Q 16.5 51.421875 16.5 36.375 
Q 16.5 21.390625 20.328125 13.890625 
Q 24.171875 6.390625 31.78125 6.390625 
Q 39.453125 6.390625 43.28125 13.890625 
Q 47.125 21.390625 47.125 36.375 
Q 47.125 51.421875 43.28125 58.90625 
Q 39.453125 66.40625 31.78125 66.40625 
z
M 31.78125 74.21875 
Q 44.046875 74.21875 50.515625 64.515625 
Q 56.984375 54.828125 56.984375 36.375 
Q 56.984375 17.96875 50.515625 8.265625 
Q 44.046875 -1.421875 31.78125 -1.421875 
Q 19.53125 -1.421875 13.0625 8.265625 
Q 6.59375 17.96875 6.59375 36.375 
Q 6.59375 54.828125 13.0625 64.515625 
Q 19.53125 74.21875 31.78125 74.21875 
z
" id="DejaVuSans-48"/>
       </defs>
       <use xlink:href="#DejaVuSans-48"/>
      </g>
     </g>
    </g>
    <g id="xtick_2">
     <g id="line2d_2">
      <g>
       <use style="stroke:#000000;stroke-width:0.8;" x="136.834091" xlink:href="#mb79e0226d8" y="582.9575"/>
      </g>
     </g>
     <g id="text_2">
      <!-- 100 -->
      <g transform="translate(127.290341 597.555938)scale(0.1 -0.1)">
       <defs>
        <path d="M 12.40625 8.296875 
L 28.515625 8.296875 
L 28.515625 63.921875 
L 10.984375 60.40625 
L 10.984375 69.390625 
L 28.421875 72.90625 
L 38.28125 72.90625 
L 38.28125 8.296875 
L 54.390625 8.296875 
L 54.390625 0 
L 12.40625 0 
z
" id="DejaVuSans-49"/>
       </defs>
       <use xlink:href="#DejaVuSans-49"/>
       <use x="63.623047" xlink:href="#DejaVuSans-48"/>
       <use x="127.246094" xlink:href="#DejaVuSans-48"/>
      </g>
     </g>
    </g>
    <g id="xtick_3">
     <g id="line2d_3">
      <g>
       <use style="stroke:#000000;stroke-width:0.8;" x="221.379545" xlink:href="#mb79e0226d8" y="582.9575"/>
      </g>
     </g>
     <g id="text_3">
      <!-- 200 -->
      <g transform="translate(211.835795 597.555938)scale(0.1 -0.1)">
       <defs>
        <path d="M 19.1875 8.296875 
L 53.609375 8.296875 
L 53.609375 0 
L 7.328125 0 
L 7.328125 8.296875 
Q 12.9375 14.109375 22.625 23.890625 
Q 32.328125 33.6875 34.8125 36.53125 
Q 39.546875 41.84375 41.421875 45.53125 
Q 43.3125 49.21875 43.3125 52.78125 
Q 43.3125 58.59375 39.234375 62.25 
Q 35.15625 65.921875 28.609375 65.921875 
Q 23.96875 65.921875 18.8125 64.3125 
Q 13.671875 62.703125 7.8125 59.421875 
L 7.8125 69.390625 
Q 13.765625 71.78125 18.9375 73 
Q 24.125 74.21875 28.421875 74.21875 
Q 39.75 74.21875 46.484375 68.546875 
Q 53.21875 62.890625 53.21875 53.421875 
Q 53.21875 48.921875 51.53125 44.890625 
Q 49.859375 40.875 45.40625 35.40625 
Q 44.1875 33.984375 37.640625 27.21875 
Q 31.109375 20.453125 19.1875 8.296875 
z
" id="DejaVuSans-50"/>
       </defs>
       <use xlink:href="#DejaVuSans-50"/>
       <use x="63.623047" xlink:href="#DejaVuSans-48"/>
       <use x="127.246094" xlink:href="#DejaVuSans-48"/>
      </g>
     </g>
    </g>
    <g id="xtick_4">
     <g id="line2d_4">
      <g>
       <use style="stroke:#000000;stroke-width:0.8;" x="305.925" xlink:href="#mb79e0226d8" y="582.9575"/>
      </g>
     </g>
     <g id="text_4">
      <!-- 300 -->
      <g transform="translate(296.38125 597.555938)scale(0.1 -0.1)">
       <defs>
        <path d="M 40.578125 39.3125 
Q 47.65625 37.796875 51.625 33 
Q 55.609375 28.21875 55.609375 21.1875 
Q 55.609375 10.40625 48.1875 4.484375 
Q 40.765625 -1.421875 27.09375 -1.421875 
Q 22.515625 -1.421875 17.65625 -0.515625 
Q 12.796875 0.390625 7.625 2.203125 
L 7.625 11.71875 
Q 11.71875 9.328125 16.59375 8.109375 
Q 21.484375 6.890625 26.8125 6.890625 
Q 36.078125 6.890625 40.9375 10.546875 
Q 45.796875 14.203125 45.796875 21.1875 
Q 45.796875 27.640625 41.28125 31.265625 
Q 36.765625 34.90625 28.71875 34.90625 
L 20.21875 34.90625 
L 20.21875 43.015625 
L 29.109375 43.015625 
Q 36.375 43.015625 40.234375 45.921875 
Q 44.09375 48.828125 44.09375 54.296875 
Q 44.09375 59.90625 40.109375 62.90625 
Q 36.140625 65.921875 28.71875 65.921875 
Q 24.65625 65.921875 20.015625 65.03125 
Q 15.375 64.15625 9.8125 62.3125 
L 9.8125 71.09375 
Q 15.4375 72.65625 20.34375 73.4375 
Q 25.25 74.21875 29.59375 74.21875 
Q 40.828125 74.21875 47.359375 69.109375 
Q 53.90625 64.015625 53.90625 55.328125 
Q 53.90625 49.265625 50.4375 45.09375 
Q 46.96875 40.921875 40.578125 39.3125 
z
" id="DejaVuSans-51"/>
       </defs>
       <use xlink:href="#DejaVuSans-51"/>
       <use x="63.623047" xlink:href="#DejaVuSans-48"/>
       <use x="127.246094" xlink:href="#DejaVuSans-48"/>
      </g>
     </g>
    </g>
    <g id="xtick_5">
     <g id="line2d_5">
      <g>
       <use style="stroke:#000000;stroke-width:0.8;" x="390.470455" xlink:href="#mb79e0226d8" y="582.9575"/>
      </g>
     </g>
     <g id="text_5">
      <!-- 400 -->
      <g transform="translate(380.926705 597.555938)scale(0.1 -0.1)">
       <defs>
        <path d="M 37.796875 64.3125 
L 12.890625 25.390625 
L 37.796875 25.390625 
z
M 35.203125 72.90625 
L 47.609375 72.90625 
L 47.609375 25.390625 
L 58.015625 25.390625 
L 58.015625 17.1875 
L 47.609375 17.1875 
L 47.609375 0 
L 37.796875 0 
L 37.796875 17.1875 
L 4.890625 17.1875 
L 4.890625 26.703125 
z
" id="DejaVuSans-52"/>
       </defs>
       <use xlink:href="#DejaVuSans-52"/>
       <use x="63.623047" xlink:href="#DejaVuSans-48"/>
       <use x="127.246094" xlink:href="#DejaVuSans-48"/>
      </g>
     </g>
    </g>
    <g id="xtick_6">
     <g id="line2d_6">
      <g>
       <use style="stroke:#000000;stroke-width:0.8;" x="475.015909" xlink:href="#mb79e0226d8" y="582.9575"/>
      </g>
     </g>
     <g id="text_6">
      <!-- 500 -->
      <g transform="translate(465.472159 597.555938)scale(0.1 -0.1)">
       <defs>
        <path d="M 10.796875 72.90625 
L 49.515625 72.90625 
L 49.515625 64.59375 
L 19.828125 64.59375 
L 19.828125 46.734375 
Q 21.96875 47.46875 24.109375 47.828125 
Q 26.265625 48.1875 28.421875 48.1875 
Q 40.625 48.1875 47.75 41.5 
Q 54.890625 34.8125 54.890625 23.390625 
Q 54.890625 11.625 47.5625 5.09375 
Q 40.234375 -1.421875 26.90625 -1.421875 
Q 22.3125 -1.421875 17.546875 -0.640625 
Q 12.796875 0.140625 7.71875 1.703125 
L 7.71875 11.625 
Q 12.109375 9.234375 16.796875 8.0625 
Q 21.484375 6.890625 26.703125 6.890625 
Q 35.15625 6.890625 40.078125 11.328125 
Q 45.015625 15.765625 45.015625 23.390625 
Q 45.015625 31 40.078125 35.4375 
Q 35.15625 39.890625 26.703125 39.890625 
Q 22.75 39.890625 18.8125 39.015625 
Q 14.890625 38.140625 10.796875 36.28125 
z
" id="DejaVuSans-53"/>
       </defs>
       <use xlink:href="#DejaVuSans-53"/>
       <use x="63.623047" xlink:href="#DejaVuSans-48"/>
       <use x="127.246094" xlink:href="#DejaVuSans-48"/>
      </g>
     </g>
    </g>
    <g id="xtick_7">
     <g id="line2d_7">
      <g>
       <use style="stroke:#000000;stroke-width:0.8;" x="559.561364" xlink:href="#mb79e0226d8" y="582.9575"/>
      </g>
     </g>
     <g id="text_7">
      <!-- 600 -->
      <g transform="translate(550.017614 597.555938)scale(0.1 -0.1)">
       <defs>
        <path d="M 33.015625 40.375 
Q 26.375 40.375 22.484375 35.828125 
Q 18.609375 31.296875 18.609375 23.390625 
Q 18.609375 15.53125 22.484375 10.953125 
Q 26.375 6.390625 33.015625 6.390625 
Q 39.65625 6.390625 43.53125 10.953125 
Q 47.40625 15.53125 47.40625 23.390625 
Q 47.40625 31.296875 43.53125 35.828125 
Q 39.65625 40.375 33.015625 40.375 
z
M 52.59375 71.296875 
L 52.59375 62.3125 
Q 48.875 64.0625 45.09375 64.984375 
Q 41.3125 65.921875 37.59375 65.921875 
Q 27.828125 65.921875 22.671875 59.328125 
Q 17.53125 52.734375 16.796875 39.40625 
Q 19.671875 43.65625 24.015625 45.921875 
Q 28.375 48.1875 33.59375 48.1875 
Q 44.578125 48.1875 50.953125 41.515625 
Q 57.328125 34.859375 57.328125 23.390625 
Q 57.328125 12.15625 50.6875 5.359375 
Q 44.046875 -1.421875 33.015625 -1.421875 
Q 20.359375 -1.421875 13.671875 8.265625 
Q 6.984375 17.96875 6.984375 36.375 
Q 6.984375 53.65625 15.1875 63.9375 
Q 23.390625 74.21875 37.203125 74.21875 
Q 40.921875 74.21875 44.703125 73.484375 
Q 48.484375 72.75 52.59375 71.296875 
z
" id="DejaVuSans-54"/>
       </defs>
       <use xlink:href="#DejaVuSans-54"/>
       <use x="63.623047" xlink:href="#DejaVuSans-48"/>
       <use x="127.246094" xlink:href="#DejaVuSans-48"/>
      </g>
     </g>
    </g>
    <g id="text_8">
     <!-- Epochs -->
     <g transform="translate(288.009375 611.234063)scale(0.1 -0.1)">
      <defs>
       <path d="M 9.8125 72.90625 
L 55.90625 72.90625 
L 55.90625 64.59375 
L 19.671875 64.59375 
L 19.671875 43.015625 
L 54.390625 43.015625 
L 54.390625 34.71875 
L 19.671875 34.71875 
L 19.671875 8.296875 
L 56.78125 8.296875 
L 56.78125 0 
L 9.8125 0 
z
" id="DejaVuSans-69"/>
       <path d="M 18.109375 8.203125 
L 18.109375 -20.796875 
L 9.078125 -20.796875 
L 9.078125 54.6875 
L 18.109375 54.6875 
L 18.109375 46.390625 
Q 20.953125 51.265625 25.265625 53.625 
Q 29.59375 56 35.59375 56 
Q 45.5625 56 51.78125 48.09375 
Q 58.015625 40.1875 58.015625 27.296875 
Q 58.015625 14.40625 51.78125 6.484375 
Q 45.5625 -1.421875 35.59375 -1.421875 
Q 29.59375 -1.421875 25.265625 0.953125 
Q 20.953125 3.328125 18.109375 8.203125 
z
M 48.6875 27.296875 
Q 48.6875 37.203125 44.609375 42.84375 
Q 40.53125 48.484375 33.40625 48.484375 
Q 26.265625 48.484375 22.1875 42.84375 
Q 18.109375 37.203125 18.109375 27.296875 
Q 18.109375 17.390625 22.1875 11.75 
Q 26.265625 6.109375 33.40625 6.109375 
Q 40.53125 6.109375 44.609375 11.75 
Q 48.6875 17.390625 48.6875 27.296875 
z
" id="DejaVuSans-112"/>
       <path d="M 30.609375 48.390625 
Q 23.390625 48.390625 19.1875 42.75 
Q 14.984375 37.109375 14.984375 27.296875 
Q 14.984375 17.484375 19.15625 11.84375 
Q 23.34375 6.203125 30.609375 6.203125 
Q 37.796875 6.203125 41.984375 11.859375 
Q 46.1875 17.53125 46.1875 27.296875 
Q 46.1875 37.015625 41.984375 42.703125 
Q 37.796875 48.390625 30.609375 48.390625 
z
M 30.609375 56 
Q 42.328125 56 49.015625 48.375 
Q 55.71875 40.765625 55.71875 27.296875 
Q 55.71875 13.875 49.015625 6.21875 
Q 42.328125 -1.421875 30.609375 -1.421875 
Q 18.84375 -1.421875 12.171875 6.21875 
Q 5.515625 13.875 5.515625 27.296875 
Q 5.515625 40.765625 12.171875 48.375 
Q 18.84375 56 30.609375 56 
z
" id="DejaVuSans-111"/>
       <path d="M 48.78125 52.59375 
L 48.78125 44.1875 
Q 44.96875 46.296875 41.140625 47.34375 
Q 37.3125 48.390625 33.40625 48.390625 
Q 24.65625 48.390625 19.8125 42.84375 
Q 14.984375 37.3125 14.984375 27.296875 
Q 14.984375 17.28125 19.8125 11.734375 
Q 24.65625 6.203125 33.40625 6.203125 
Q 37.3125 6.203125 41.140625 7.25 
Q 44.96875 8.296875 48.78125 10.40625 
L 48.78125 2.09375 
Q 45.015625 0.34375 40.984375 -0.53125 
Q 36.96875 -1.421875 32.421875 -1.421875 
Q 20.0625 -1.421875 12.78125 6.34375 
Q 5.515625 14.109375 5.515625 27.296875 
Q 5.515625 40.671875 12.859375 48.328125 
Q 20.21875 56 33.015625 56 
Q 37.15625 56 41.109375 55.140625 
Q 45.0625 54.296875 48.78125 52.59375 
z
" id="DejaVuSans-99"/>
       <path d="M 54.890625 33.015625 
L 54.890625 0 
L 45.90625 0 
L 45.90625 32.71875 
Q 45.90625 40.484375 42.875 44.328125 
Q 39.84375 48.1875 33.796875 48.1875 
Q 26.515625 48.1875 22.3125 43.546875 
Q 18.109375 38.921875 18.109375 30.90625 
L 18.109375 0 
L 9.078125 0 
L 9.078125 75.984375 
L 18.109375 75.984375 
L 18.109375 46.1875 
Q 21.34375 51.125 25.703125 53.5625 
Q 30.078125 56 35.796875 56 
Q 45.21875 56 50.046875 50.171875 
Q 54.890625 44.34375 54.890625 33.015625 
z
" id="DejaVuSans-104"/>
       <path d="M 44.28125 53.078125 
L 44.28125 44.578125 
Q 40.484375 46.53125 36.375 47.5 
Q 32.28125 48.484375 27.875 48.484375 
Q 21.1875 48.484375 17.84375 46.4375 
Q 14.5 44.390625 14.5 40.28125 
Q 14.5 37.15625 16.890625 35.375 
Q 19.28125 33.59375 26.515625 31.984375 
L 29.59375 31.296875 
Q 39.15625 29.25 43.1875 25.515625 
Q 47.21875 21.78125 47.21875 15.09375 
Q 47.21875 7.46875 41.1875 3.015625 
Q 35.15625 -1.421875 24.609375 -1.421875 
Q 20.21875 -1.421875 15.453125 -0.5625 
Q 10.6875 0.296875 5.421875 2 
L 5.421875 11.28125 
Q 10.40625 8.6875 15.234375 7.390625 
Q 20.0625 6.109375 24.8125 6.109375 
Q 31.15625 6.109375 34.5625 8.28125 
Q 37.984375 10.453125 37.984375 14.40625 
Q 37.984375 18.0625 35.515625 20.015625 
Q 33.0625 21.96875 24.703125 23.78125 
L 21.578125 24.515625 
Q 13.234375 26.265625 9.515625 29.90625 
Q 5.8125 33.546875 5.8125 39.890625 
Q 5.8125 47.609375 11.28125 51.796875 
Q 16.75 56 26.8125 56 
Q 31.78125 56 36.171875 55.265625 
Q 40.578125 54.546875 44.28125 53.078125 
z
" id="DejaVuSans-115"/>
      </defs>
      <use xlink:href="#DejaVuSans-69"/>
      <use x="63.183594" xlink:href="#DejaVuSans-112"/>
      <use x="126.660156" xlink:href="#DejaVuSans-111"/>
      <use x="187.841797" xlink:href="#DejaVuSans-99"/>
      <use x="242.822266" xlink:href="#DejaVuSans-104"/>
      <use x="306.201172" xlink:href="#DejaVuSans-115"/>
     </g>
    </g>
   </g>
   <g id="matplotlib.axis_2">
    <g id="ytick_1">
     <g id="line2d_8">
      <defs>
       <path d="M 0 0 
L -3.5 0 
" id="mfb630dbee6" style="stroke:#000000;stroke-width:0.8;"/>
      </defs>
      <g>
       <use style="stroke:#000000;stroke-width:0.8;" x="26.925" xlink:href="#mfb630dbee6" y="558.248409"/>
      </g>
     </g>
     <g id="text_9">
      <!-- 0 -->
      <g transform="translate(13.5625 562.047628)scale(0.1 -0.1)">
       <use xlink:href="#DejaVuSans-48"/>
      </g>
     </g>
    </g>
    <g id="ytick_2">
     <g id="line2d_9">
      <g>
       <use style="stroke:#000000;stroke-width:0.8;" x="26.925" xlink:href="#mfb630dbee6" y="492.304121"/>
      </g>
     </g>
     <g id="text_10">
      <!-- 5 -->
      <g transform="translate(13.5625 496.103339)scale(0.1 -0.1)">
       <use xlink:href="#DejaVuSans-53"/>
      </g>
     </g>
    </g>
    <g id="ytick_3">
     <g id="line2d_10">
      <g>
       <use style="stroke:#000000;stroke-width:0.8;" x="26.925" xlink:href="#mfb630dbee6" y="426.359832"/>
      </g>
     </g>
     <g id="text_11">
      <!-- 10 -->
      <g transform="translate(7.2 430.159051)scale(0.1 -0.1)">
       <use xlink:href="#DejaVuSans-49"/>
       <use x="63.623047" xlink:href="#DejaVuSans-48"/>
      </g>
     </g>
    </g>
    <g id="ytick_4">
     <g id="line2d_11">
      <g>
       <use style="stroke:#000000;stroke-width:0.8;" x="26.925" xlink:href="#mfb630dbee6" y="360.415544"/>
      </g>
     </g>
     <g id="text_12">
      <!-- 15 -->
      <g transform="translate(7.2 364.214763)scale(0.1 -0.1)">
       <use xlink:href="#DejaVuSans-49"/>
       <use x="63.623047" xlink:href="#DejaVuSans-53"/>
      </g>
     </g>
    </g>
    <g id="ytick_5">
     <g id="line2d_12">
      <g>
       <use style="stroke:#000000;stroke-width:0.8;" x="26.925" xlink:href="#mfb630dbee6" y="294.471256"/>
      </g>
     </g>
     <g id="text_13">
      <!-- 20 -->
      <g transform="translate(7.2 298.270474)scale(0.1 -0.1)">
       <use xlink:href="#DejaVuSans-50"/>
       <use x="63.623047" xlink:href="#DejaVuSans-48"/>
      </g>
     </g>
    </g>
    <g id="ytick_6">
     <g id="line2d_13">
      <g>
       <use style="stroke:#000000;stroke-width:0.8;" x="26.925" xlink:href="#mfb630dbee6" y="228.526967"/>
      </g>
     </g>
     <g id="text_14">
      <!-- 25 -->
      <g transform="translate(7.2 232.326186)scale(0.1 -0.1)">
       <use xlink:href="#DejaVuSans-50"/>
       <use x="63.623047" xlink:href="#DejaVuSans-53"/>
      </g>
     </g>
    </g>
    <g id="ytick_7">
     <g id="line2d_14">
      <g>
       <use style="stroke:#000000;stroke-width:0.8;" x="26.925" xlink:href="#mfb630dbee6" y="162.582679"/>
      </g>
     </g>
     <g id="text_15">
      <!-- 30 -->
      <g transform="translate(7.2 166.381898)scale(0.1 -0.1)">
       <use xlink:href="#DejaVuSans-51"/>
       <use x="63.623047" xlink:href="#DejaVuSans-48"/>
      </g>
     </g>
    </g>
    <g id="ytick_8">
     <g id="line2d_15">
      <g>
       <use style="stroke:#000000;stroke-width:0.8;" x="26.925" xlink:href="#mfb630dbee6" y="96.638391"/>
      </g>
     </g>
     <g id="text_16">
      <!-- 35 -->
      <g transform="translate(7.2 100.437609)scale(0.1 -0.1)">
       <use xlink:href="#DejaVuSans-51"/>
       <use x="63.623047" xlink:href="#DejaVuSans-53"/>
      </g>
     </g>
    </g>
   </g>
   <g id="line2d_16">
    <path clip-path="url(#pecabd8d118)" d="M 52.288636 425.472593 
L 53.134091 427.29182 
L 54.825 432.580384 
L 59.897727 452.45734 
L 62.434091 462.261607 
L 64.125 467.940025 
L 65.815909 472.92175 
L 70.888636 486.92765 
L 72.579545 491.112097 
L 75.115909 496.76182 
L 76.806818 500.209887 
L 78.497727 503.037671 
L 80.188636 505.426433 
L 81.879545 507.543884 
L 83.570455 509.733754 
L 85.261364 511.655898 
L 87.797727 514.222047 
L 89.488636 515.648799 
L 91.179545 516.497947 
L 92.870455 517.148495 
L 95.406818 517.778148 
L 97.943182 518.210672 
L 101.325 518.771951 
L 107.243182 520.539123 
L 111.470455 521.67675 
L 113.161364 522.329618 
L 122.461364 526.368414 
L 132.606818 530.047432 
L 139.370455 532.524978 
L 150.361364 535.995979 
L 158.815909 537.915569 
L 163.888636 538.57516 
L 169.806818 539.150514 
L 185.870455 540.211983 
L 205.315909 541.322792 
L 217.152273 542.248275 
L 234.061364 543.479031 
L 245.052273 544.055393 
L 272.952273 545.458131 
L 303.388636 547.073959 
L 305.079545 547.140083 
L 307.615909 547.23281 
L 310.997727 547.363535 
L 321.143182 547.857487 
L 328.752273 548.207539 
L 346.506818 548.946083 
L 438.661364 552.964576 
L 441.197727 553.024881 
L 442.888636 553.104871 
L 448.806818 553.3743 
L 453.879545 553.600296 
L 457.261364 553.784845 
L 462.334091 554.014951 
L 467.406818 554.281645 
L 474.170455 554.591858 
L 551.106818 557.849547 
L 557.025 558.019951 
L 557.870455 558.157236 
L 558.715909 558.007917 
L 559.561364 558.248409 
L 559.561364 558.248409 
" style="fill:none;stroke:#1f77b4;stroke-linecap:square;stroke-width:1.5;"/>
   </g>
   <g id="line2d_17">
    <path clip-path="url(#pecabd8d118)" d="M 52.288636 312.661075 
L 53.134091 314.377246 
L 53.979545 316.704384 
L 54.825 319.740785 
L 58.206818 334.635993 
L 60.743182 344.569076 
L 61.588636 347.219569 
L 64.125 351.989323 
L 67.506818 360.025643 
L 69.197727 363.1071 
L 71.734091 366.653126 
L 73.425 368.590943 
L 76.806818 373.445953 
L 80.188636 378.436586 
L 81.034091 379.045803 
L 82.725 379.185482 
L 83.570455 379.797509 
L 84.415909 379.75516 
L 85.261364 379.305527 
L 86.106818 378.616654 
L 89.488636 374.866805 
L 91.179545 373.421403 
L 92.025 372.812658 
L 93.715909 371.144125 
L 94.561364 370.645668 
L 95.406818 369.931111 
L 97.943182 368.549567 
L 99.634091 367.693954 
L 100.479545 367.653556 
L 102.170455 366.51414 
L 103.015909 366.623823 
L 103.861364 366.283873 
L 104.706818 365.749615 
L 106.397727 365.718399 
L 108.088636 365.153096 
L 108.934091 365.255813 
L 109.779545 365.125106 
L 110.625 364.846827 
L 112.315909 364.812345 
L 113.161364 364.548881 
L 114.852273 364.466954 
L 115.697727 364.250403 
L 116.543182 364.21539 
L 117.388636 363.984475 
L 118.234091 363.992472 
L 119.079545 363.816895 
L 121.615909 363.575045 
L 122.461364 363.375232 
L 123.306818 363.491033 
L 124.152273 363.093968 
L 124.997727 363.671528 
L 125.843182 363.259458 
L 126.688636 363.482481 
L 127.534091 364.063197 
L 129.225 363.995388 
L 130.070455 364.454328 
L 130.915909 364.581939 
L 131.761364 364.495139 
L 133.452273 364.982867 
L 134.297727 364.911998 
L 136.834091 365.186982 
L 137.679545 365.2327 
L 138.525 365.412563 
L 139.370455 365.340734 
L 141.061364 365.475445 
L 141.906818 365.376419 
L 142.752273 365.459716 
L 147.825 365.297737 
L 149.515909 365.309293 
L 158.815909 365.654127 
L 161.352273 366.034955 
L 163.888636 366.644582 
L 170.652273 369.451322 
L 173.188636 369.733752 
L 181.643182 371.053244 
L 184.179545 371.572826 
L 187.561364 372.420374 
L 190.943182 373.326385 
L 195.170455 373.960347 
L 201.088636 374.860471 
L 205.315909 375.058615 
L 207.006818 374.732952 
L 212.925 373.395049 
L 216.306818 372.776385 
L 218.843182 372.53309 
L 226.452273 372.150167 
L 245.052273 372.492184 
L 278.025 373.376164 
L 293.243182 373.670982 
L 340.588636 374.43068 
L 348.197727 374.500197 
L 354.115909 374.557708 
L 358.343182 374.582492 
L 362.570455 374.609709 
L 365.106818 374.605255 
L 369.334091 374.660175 
L 375.252273 374.680171 
L 379.479545 374.733796 
L 383.706818 374.726536 
L 387.088636 374.742964 
L 393.006818 374.743417 
L 398.925 374.691344 
L 401.461364 374.71384 
L 402.306818 374.638405 
L 403.152273 374.701368 
L 403.997727 374.570609 
L 404.843182 374.724452 
L 406.534091 373.770988 
L 407.379545 373.649283 
L 409.070455 372.754606 
L 409.915909 372.519781 
L 410.761364 372.589745 
L 412.452273 373.24917 
L 413.297727 373.364443 
L 414.143182 373.203233 
L 414.988636 372.468203 
L 416.679545 370.579481 
L 419.215909 367.578961 
L 420.906818 365.828437 
L 422.597727 364.3745 
L 423.443182 363.927825 
L 424.288636 363.614196 
L 425.134091 363.766474 
L 425.979545 364.379562 
L 429.361364 368.217032 
L 430.206818 368.92642 
L 431.052273 369.090507 
L 431.897727 368.998913 
L 432.743182 368.620767 
L 433.588636 368.531754 
L 435.279545 368.753047 
L 437.815909 368.521206 
L 442.043182 368.931036 
L 442.888636 369.131991 
L 448.806818 369.297707 
L 451.343182 369.153712 
L 453.034091 369.002726 
L 470.788636 368.737579 
L 533.352273 366.494946 
L 559.561364 365.731641 
L 559.561364 365.731641 
" style="fill:none;stroke:#ff7f0e;stroke-linecap:square;stroke-width:1.5;"/>
   </g>
   <g id="line2d_18">
    <path clip-path="url(#pecabd8d118)" d="M 52.288636 312.661075 
L 53.134091 314.593452 
L 53.979545 316.220615 
L 54.825 316.130036 
L 55.670455 319.566418 
L 57.361364 330.049289 
L 58.206818 333.767487 
L 59.052273 335.826905 
L 59.897727 337.546718 
L 60.743182 338.435036 
L 61.588636 337.859933 
L 62.434091 336.004815 
L 63.279545 333.775197 
L 64.125 330.51721 
L 65.815909 321.65327 
L 66.661364 317.313753 
L 67.506818 311.503816 
L 68.352273 304.854585 
L 70.043182 288.165146 
L 70.888636 277.178996 
L 72.579545 250.635204 
L 75.115909 208.377629 
L 77.652273 170.203432 
L 79.343182 143.893311 
L 81.034091 127.434185 
L 81.879545 121.401655 
L 84.415909 107.49865 
L 85.261364 105.158622 
L 86.106818 102.324825 
L 86.952273 100.582282 
L 87.797727 100.347691 
L 88.643182 98.974921 
L 89.488636 97.835963 
L 90.334091 97.827566 
L 91.179545 97.144525 
L 92.025 95.927703 
L 92.870455 95.18967 
L 93.715909 94.201616 
L 94.561364 92.887498 
L 95.406818 91.897366 
L 96.252273 91.387377 
L 97.097727 90.459904 
L 97.943182 89.088251 
L 99.634091 86.621481 
L 100.479545 84.541958 
L 101.325 81.988623 
L 102.170455 80.080064 
L 103.015909 79.004087 
L 103.861364 77.264578 
L 104.706818 75.052088 
L 105.552273 73.738747 
L 106.397727 72.993878 
L 108.934091 69.746983 
L 110.625 67.985728 
L 113.161364 66.283219 
L 114.006818 66.319071 
L 114.852273 66.616131 
L 116.543182 66.704841 
L 117.388636 67.06072 
L 118.234091 67.114445 
L 119.925 67.025572 
L 123.306818 65.512482 
L 124.152273 64.907011 
L 127.534091 64.066591 
L 128.379545 64.206236 
L 129.225 64.151873 
L 130.070455 64.276679 
L 131.761364 65.201124 
L 134.297727 67.121547 
L 136.834091 69.331024 
L 138.525 71.106883 
L 140.215909 72.572633 
L 141.906818 74.111995 
L 145.288636 76.627589 
L 147.825 78.42119 
L 150.361364 80.130103 
L 157.125 84.120508 
L 171.497727 90.785095 
L 177.415909 93.794656 
L 183.334091 96.727012 
L 184.179545 97.063607 
L 185.025 97.563943 
L 185.870455 97.845011 
L 186.715909 98.454126 
L 187.561364 98.506708 
L 188.406818 99.364179 
L 189.252273 99.09181 
L 190.097727 100.296999 
L 190.943182 99.675225 
L 191.788636 100.950465 
L 192.634091 100.7441 
L 194.325 101.86992 
L 195.170455 101.538753 
L 196.015909 102.298385 
L 196.861364 102.333667 
L 197.706818 102.174184 
L 198.552273 102.791465 
L 199.397727 102.541224 
L 200.243182 102.690871 
L 201.088636 103.038994 
L 201.934091 102.786772 
L 202.779545 103.230661 
L 203.625 103.415143 
L 204.470455 103.478108 
L 205.315909 104.11439 
L 206.161364 104.209306 
L 207.006818 104.592232 
L 207.852273 105.146248 
L 208.697727 105.285728 
L 209.543182 105.861367 
L 210.388636 106.19004 
L 211.234091 106.368952 
L 212.079545 106.886147 
L 212.925 107.010784 
L 214.615909 107.612226 
L 215.461364 107.649433 
L 216.306818 108.016275 
L 217.997727 108.414053 
L 218.843182 108.83541 
L 219.688636 109.01875 
L 221.379545 109.807657 
L 222.225 110.067521 
L 223.070455 110.56764 
L 224.761364 111.301 
L 225.606818 111.72533 
L 226.452273 111.992266 
L 227.297727 112.456118 
L 228.988636 113.070754 
L 229.834091 113.420422 
L 230.679545 113.647654 
L 231.525 114.042982 
L 233.215909 114.606065 
L 273.797727 129.350401 
L 274.643182 129.916006 
L 275.488636 129.871827 
L 276.334091 130.803828 
L 277.179545 130.269512 
L 278.025 131.823952 
L 278.870455 131.129193 
L 279.715909 132.526906 
L 280.561364 132.706565 
L 281.406818 132.292392 
L 282.252273 133.30894 
L 283.097727 132.919002 
L 283.943182 132.176031 
L 284.788636 132.612763 
L 285.634091 132.001956 
L 286.479545 131.227575 
L 287.325 131.358023 
L 288.170455 130.630622 
L 289.015909 130.129228 
L 289.861364 130.54893 
L 290.706818 130.211939 
L 291.552273 130.332921 
L 292.397727 130.997504 
L 293.243182 130.98932 
L 294.934091 132.186456 
L 295.779545 132.199822 
L 297.470455 133.058496 
L 298.315909 133.000843 
L 300.006818 133.480962 
L 300.852273 133.28153 
L 302.543182 133.587693 
L 303.388636 133.448646 
L 305.925 133.831235 
L 307.615909 134.53604 
L 308.461364 134.707384 
L 310.152273 135.605744 
L 310.997727 135.855704 
L 311.843182 136.276486 
L 315.225 137.189085 
L 316.070455 137.294385 
L 316.915909 137.583558 
L 321.143182 138.317426 
L 324.525 139.159972 
L 326.215909 139.582381 
L 337.206818 142.144273 
L 344.815909 144.39846 
L 366.797727 150.119246 
L 383.706818 154.223703 
L 413.297727 160.43148 
L 414.143182 160.826317 
L 414.988636 160.731526 
L 415.834091 161.349036 
L 416.679545 161.004519 
L 417.525 162.02787 
L 418.370455 161.337166 
L 419.215909 162.82056 
L 420.061364 162.062091 
L 420.906818 163.042323 
L 421.752273 163.055502 
L 422.597727 162.371323 
L 423.443182 162.846909 
L 424.288636 161.943645 
L 425.134091 161.53553 
L 425.979545 161.392893 
L 426.825 160.413858 
L 427.670455 160.656176 
L 428.515909 160.320521 
L 429.361364 160.197212 
L 430.206818 160.691885 
L 431.052273 160.462709 
L 431.897727 160.994992 
L 433.588636 161.321499 
L 434.434091 161.897912 
L 435.279545 161.898103 
L 436.970455 162.42342 
L 437.815909 162.261708 
L 438.661364 162.403129 
L 440.352273 161.986781 
L 441.197727 162.06674 
L 442.043182 161.829248 
L 444.579545 162.095384 
L 445.425 162.462818 
L 446.270455 162.597157 
L 447.961364 163.239693 
L 448.806818 163.326974 
L 449.652273 163.618869 
L 454.725 164.278164 
L 455.570455 164.272317 
L 456.415909 164.421021 
L 457.261364 164.413757 
L 460.643182 165.074132 
L 461.488636 165.171625 
L 463.179545 165.559655 
L 469.097727 166.378321 
L 470.788636 166.576405 
L 473.325 166.960053 
L 475.861364 167.379649 
L 479.243182 167.965961 
L 483.470455 168.576853 
L 490.234091 169.665797 
L 516.443182 173.935787 
L 517.288636 174.211267 
L 518.134091 174.173097 
L 518.979545 174.539159 
L 519.825 174.388633 
L 520.670455 174.936895 
L 521.515909 174.602698 
L 522.361364 175.38087 
L 523.206818 174.863016 
L 524.052273 175.797738 
L 524.897727 175.300469 
L 525.743182 175.797511 
L 526.588636 175.568334 
L 527.434091 175.121676 
L 528.279545 175.272943 
L 529.125 174.447704 
L 529.970455 174.627157 
L 530.815909 174.153217 
L 531.661364 174.029462 
L 532.506818 174.170924 
L 533.352273 173.867042 
L 534.197727 174.41105 
L 535.043182 174.214932 
L 535.888636 174.758516 
L 537.579545 174.991975 
L 538.425 175.345424 
L 539.270455 175.162821 
L 540.115909 175.407855 
L 541.806818 175.148064 
L 542.652273 175.21516 
L 543.497727 174.923855 
L 544.343182 175.07506 
L 545.188636 174.906986 
L 547.725 175.061501 
L 548.570455 175.36804 
L 549.415909 175.341457 
L 550.261364 175.595496 
L 551.952273 175.796923 
L 552.797727 175.991559 
L 553.643182 175.985053 
L 554.488636 176.19608 
L 556.179545 176.223054 
L 557.025 175.98665 
L 557.870455 175.568195 
L 558.715909 176.180507 
L 559.561364 176.444081 
L 559.561364 176.444081 
" style="fill:none;stroke:#2ca02c;stroke-linecap:square;stroke-width:1.5;"/>
   </g>
   <g id="line2d_19">
    <path clip-path="url(#pecabd8d118)" d="M 52.288636 312.661075 
L 53.134091 313.815321 
L 53.979545 317.050079 
L 54.825 318.372235 
L 55.670455 322.361496 
L 56.515909 328.471985 
L 57.361364 333.438424 
L 58.206818 337.488193 
L 59.897727 342.684619 
L 60.743182 344.220683 
L 61.588636 344.719939 
L 62.434091 343.577047 
L 63.279545 342.632592 
L 64.125 341.327365 
L 64.970455 338.539486 
L 65.815909 335.297418 
L 67.506818 325.950348 
L 68.352273 320.828081 
L 69.197727 314.044595 
L 70.043182 304.732856 
L 71.734091 280.652266 
L 75.115909 227.41946 
L 77.652273 198.859672 
L 79.343182 181.978709 
L 81.034091 165.279604 
L 82.725 149.235303 
L 83.570455 143.628824 
L 86.106818 132.208649 
L 86.952273 129.514957 
L 88.643182 125.243395 
L 89.488636 123.436756 
L 90.334091 122.834778 
L 92.025 122.450951 
L 94.561364 128.344109 
L 95.406818 130.586433 
L 97.097727 135.803756 
L 99.634091 142.178755 
L 100.479545 143.674489 
L 102.170455 147.084692 
L 103.015909 148.211337 
L 103.861364 149.097333 
L 105.552273 151.377286 
L 107.243182 153.030356 
L 108.088636 153.902087 
L 108.934091 154.552806 
L 111.470455 157.954197 
L 114.006818 162.474878 
L 115.697727 166.062904 
L 119.925 174.884547 
L 120.770455 176.325741 
L 121.615909 177.998145 
L 123.306818 180.647703 
L 124.152273 181.947849 
L 124.997727 183.03464 
L 125.843182 184.318621 
L 128.379545 187.389896 
L 129.225 188.340202 
L 130.070455 189.471158 
L 130.915909 190.374956 
L 133.452273 193.757309 
L 135.143182 195.960612 
L 140.215909 202.646103 
L 141.061364 203.570291 
L 141.906818 204.664546 
L 142.752273 205.370093 
L 143.597727 206.745711 
L 144.443182 207.008303 
L 145.288636 208.952428 
L 146.134091 209.186972 
L 146.979545 210.806525 
L 147.825 212.146648 
L 148.670455 212.393761 
L 149.515909 213.657811 
L 150.361364 214.698225 
L 151.206818 214.718899 
L 152.052273 215.392184 
L 152.897727 216.249905 
L 153.743182 216.140401 
L 154.588636 216.334456 
L 155.434091 217.093218 
L 157.125 217.046106 
L 157.970455 217.764401 
L 158.815909 217.963701 
L 159.661364 217.993111 
L 160.506818 218.770206 
L 161.352273 219.218951 
L 162.197727 219.432524 
L 163.043182 220.325347 
L 163.888636 220.994026 
L 164.734091 221.367707 
L 165.579545 222.309681 
L 166.425 223.080122 
L 167.270455 223.516706 
L 168.961364 225.213652 
L 169.806818 225.643958 
L 171.497727 227.182896 
L 172.343182 227.560332 
L 174.034091 228.879422 
L 174.879545 229.225618 
L 176.570455 230.423127 
L 177.415909 230.767621 
L 179.106818 231.955477 
L 179.952273 232.333076 
L 181.643182 233.565804 
L 182.488636 234.009011 
L 184.179545 235.283797 
L 185.025 235.772668 
L 185.870455 236.480108 
L 190.097727 239.345039 
L 190.943182 239.98789 
L 192.634091 241.043653 
L 195.170455 242.61239 
L 199.397727 245.041611 
L 213.770455 253.269615 
L 221.379545 257.198736 
L 230.679545 261.677135 
L 231.525 261.972623 
L 232.370455 262.509448 
L 233.215909 262.695474 
L 234.061364 263.405992 
L 234.906818 263.370172 
L 235.752273 264.426566 
L 236.597727 264.08317 
L 237.443182 265.658656 
L 238.288636 265.348553 
L 239.134091 266.61619 
L 239.979545 267.059067 
L 240.825 266.855286 
L 241.670455 267.926243 
L 243.361364 267.511664 
L 244.206818 268.082487 
L 245.052273 267.563768 
L 246.743182 267.811377 
L 247.588636 267.164108 
L 248.434091 267.597819 
L 249.279545 267.63821 
L 250.125 267.325457 
L 250.970455 267.949434 
L 251.815909 267.920148 
L 252.661364 268.27274 
L 253.506818 268.888947 
L 254.352273 268.894555 
L 255.197727 269.646032 
L 256.043182 270.117157 
L 256.888636 270.311065 
L 257.734091 271.053024 
L 258.579545 271.292826 
L 259.425 271.667077 
L 260.270455 272.212377 
L 261.115909 272.252547 
L 262.806818 272.996014 
L 263.652273 273.030895 
L 264.497727 273.457888 
L 266.188636 273.807315 
L 267.034091 274.192671 
L 267.879545 274.269493 
L 268.725 274.70617 
L 270.415909 275.236608 
L 271.261364 275.701142 
L 272.106818 275.912128 
L 273.797727 276.705494 
L 274.643182 276.98084 
L 275.488636 277.435299 
L 276.334091 277.656393 
L 278.025 278.297863 
L 286.479545 280.803211 
L 289.861364 281.920813 
L 292.397727 282.690957 
L 294.934091 283.521578 
L 301.697727 285.446522 
L 304.234091 286.256935 
L 305.079545 286.423701 
L 305.925 286.783092 
L 306.770455 286.922798 
L 307.615909 287.331666 
L 308.461364 287.405648 
L 309.306818 287.901805 
L 310.152273 287.88656 
L 310.997727 288.508866 
L 311.843182 288.365122 
L 312.688636 289.161517 
L 313.534091 288.921875 
L 314.379545 289.81985 
L 315.225 289.617165 
L 316.070455 290.282424 
L 317.761364 290.428449 
L 318.606818 290.815565 
L 319.452273 290.544534 
L 320.297727 291.003451 
L 321.143182 290.737126 
L 321.988636 291.027556 
L 323.679545 291.056721 
L 324.525 291.411879 
L 325.370455 291.269681 
L 326.215909 291.815664 
L 327.061364 291.726639 
L 327.906818 292.265835 
L 328.752273 292.376408 
L 330.443182 293.037411 
L 331.288636 293.140146 
L 332.134091 293.595424 
L 332.979545 293.594273 
L 333.825 294.002147 
L 334.670455 294.025909 
L 335.515909 294.306585 
L 338.897727 294.813989 
L 339.743182 295.160226 
L 340.588636 295.145737 
L 341.434091 295.524912 
L 342.279545 295.552588 
L 343.125 295.922706 
L 343.970455 296.004359 
L 344.815909 296.334047 
L 345.661364 296.466846 
L 347.352273 296.903144 
L 350.734091 297.677532 
L 351.579545 297.781372 
L 352.425 298.037845 
L 353.270455 298.105607 
L 354.115909 298.406337 
L 354.961364 298.443147 
L 355.806818 298.800114 
L 356.652273 298.791138 
L 357.497727 299.222103 
L 358.343182 299.151976 
L 359.188636 299.671152 
L 360.034091 299.52602 
L 360.879545 300.113356 
L 361.725 299.920465 
L 362.570455 300.499339 
L 363.415909 300.340179 
L 364.261364 300.751295 
L 365.106818 300.720008 
L 366.797727 301.009887 
L 367.643182 300.932162 
L 368.488636 301.206596 
L 369.334091 300.979802 
L 370.179545 301.30622 
L 371.025 301.13231 
L 371.870455 301.490201 
L 372.715909 301.426686 
L 373.561364 301.709273 
L 374.406818 301.772289 
L 376.097727 302.142367 
L 376.943182 302.168184 
L 377.788636 302.425172 
L 378.634091 302.400524 
L 379.479545 302.650756 
L 380.325 302.599272 
L 381.170455 302.800921 
L 382.861364 302.936816 
L 386.243182 303.26726 
L 387.088636 303.483825 
L 387.934091 303.51407 
L 388.779545 303.749534 
L 389.625 303.799098 
L 391.315909 304.116631 
L 396.388636 305.021718 
L 398.925 305.403114 
L 401.461364 305.863687 
L 414.143182 307.69212 
L 418.370455 308.23135 
L 424.288636 309.229381 
L 436.970455 311.753611 
L 437.815909 311.772034 
L 438.661364 312.056034 
L 439.506818 311.954046 
L 440.352273 312.359584 
L 441.197727 312.037338 
L 442.043182 312.604548 
L 442.888636 312.040249 
L 443.734091 312.533042 
L 444.579545 312.075314 
L 445.425 311.900846 
L 446.270455 311.899916 
L 447.115909 311.399851 
L 447.961364 311.518094 
L 449.652273 310.87911 
L 450.497727 311.205833 
L 451.343182 310.994943 
L 452.188636 311.081778 
L 453.034091 311.334544 
L 453.879545 311.332082 
L 455.570455 311.786908 
L 456.415909 311.653703 
L 458.106818 312.033521 
L 459.797727 311.798009 
L 460.643182 312.057253 
L 461.488636 312.153442 
L 462.334091 312.065506 
L 464.870455 312.648292 
L 465.715909 312.732104 
L 467.406818 313.266962 
L 468.252273 313.341988 
L 469.097727 313.542879 
L 470.788636 314.118358 
L 471.634091 314.296233 
L 474.170455 315.164572 
L 475.861364 315.640208 
L 477.552273 316.020609 
L 483.470455 317.221013 
L 487.697727 317.874788 
L 494.461364 319.048051 
L 507.143182 320.919067 
L 524.052273 323.573268 
L 559.561364 328.179274 
L 559.561364 328.179274 
" style="fill:none;stroke:#d62728;stroke-linecap:square;stroke-width:1.5;"/>
   </g>
   <g id="line2d_20">
    <path clip-path="url(#pecabd8d118)" d="M 52.288636 312.661075 
L 53.134091 310.391513 
L 53.979545 324.11742 
L 55.670455 317.840126 
L 56.515909 320.936462 
L 58.206818 333.482195 
L 59.052273 336.895318 
L 59.897727 338.177032 
L 60.743182 338.031484 
L 61.588636 338.075175 
L 62.434091 338.805797 
L 63.279545 340.152127 
L 66.661364 350.11824 
L 67.506818 351.707599 
L 70.043182 355.474498 
L 70.888636 357.347861 
L 71.734091 359.673351 
L 72.579545 362.588992 
L 73.425 364.578352 
L 74.270455 365.625218 
L 75.115909 364.942081 
L 75.961364 362.566884 
L 79.343182 349.133885 
L 80.188636 345.82824 
L 81.034091 343.140466 
L 81.879545 339.953388 
L 82.725 336.297365 
L 83.570455 333.552261 
L 84.415909 330.225212 
L 85.261364 326.415076 
L 86.106818 324.027667 
L 86.952273 320.771951 
L 87.797727 318.468263 
L 88.643182 316.88446 
L 89.488636 313.594975 
L 90.334091 311.013093 
L 91.179545 307.276155 
L 92.025 302.918058 
L 92.870455 300.869352 
L 95.406818 288.994166 
L 96.252273 284.294338 
L 97.097727 283.192255 
L 97.943182 279.301927 
L 99.634091 281.783237 
L 100.479545 280.594873 
L 101.325 280.857375 
L 102.170455 282.18325 
L 103.015909 281.237973 
L 103.861364 280.699544 
L 104.706818 282.375422 
L 105.552273 282.111028 
L 106.397727 281.472333 
L 107.243182 283.243217 
L 108.088636 284.014822 
L 108.934091 283.50543 
L 109.779545 284.910477 
L 110.625 286.062227 
L 111.470455 286.435184 
L 112.315909 288.291542 
L 113.161364 289.686324 
L 114.006818 290.529188 
L 114.852273 292.959313 
L 115.697727 294.59437 
L 116.543182 295.676638 
L 117.388636 298.019909 
L 119.079545 300.669692 
L 119.925 302.632392 
L 120.770455 303.5256 
L 121.615909 304.770068 
L 122.461364 306.35071 
L 123.306818 306.861759 
L 124.997727 309.056221 
L 125.843182 309.439947 
L 126.688636 310.633679 
L 128.379545 311.895949 
L 129.225 313.163296 
L 130.070455 313.648162 
L 131.761364 315.756079 
L 132.606818 316.359511 
L 133.452273 317.666834 
L 134.297727 318.149379 
L 135.143182 319.378457 
L 136.834091 321.00755 
L 137.679545 322.054805 
L 138.525 322.590336 
L 139.370455 323.907096 
L 140.215909 323.914147 
L 141.061364 325.300238 
L 141.906818 325.246536 
L 142.752273 326.2266 
L 143.597727 326.312349 
L 144.443182 326.825352 
L 145.288636 327.519613 
L 146.134091 327.573911 
L 146.979545 328.477014 
L 147.825 328.710193 
L 149.515909 330.093143 
L 150.361364 330.551091 
L 151.206818 331.555901 
L 152.052273 331.887785 
L 152.897727 332.858893 
L 153.743182 333.213659 
L 154.588636 334.034403 
L 155.434091 334.45112 
L 157.125 335.518244 
L 157.970455 335.937405 
L 158.815909 336.484847 
L 159.661364 336.701104 
L 160.506818 337.398552 
L 161.352273 337.202075 
L 162.197727 338.232073 
L 163.043182 337.147033 
L 163.888636 338.251853 
L 164.734091 337.185053 
L 165.579545 336.691317 
L 166.425 337.159476 
L 167.270455 336.535193 
L 168.115909 335.676331 
L 169.806818 336.271578 
L 170.652273 335.851176 
L 171.497727 336.325603 
L 172.343182 337.448781 
L 173.188636 337.824247 
L 174.034091 338.486486 
L 174.879545 339.848051 
L 175.725 340.63206 
L 176.570455 341.105017 
L 177.415909 342.107608 
L 178.261364 342.867 
L 179.106818 343.078161 
L 179.952273 343.852091 
L 180.797727 344.32748 
L 181.643182 344.452448 
L 182.488636 345.173364 
L 183.334091 345.269456 
L 185.025 346.029463 
L 185.870455 346.008928 
L 186.715909 346.338526 
L 187.561364 346.454163 
L 188.406818 346.391667 
L 189.252273 346.633639 
L 190.943182 346.629636 
L 191.788636 346.890576 
L 192.634091 346.932873 
L 193.479545 347.097522 
L 194.325 347.437646 
L 195.170455 347.5872 
L 199.397727 348.982465 
L 200.243182 349.120308 
L 201.088636 349.40837 
L 202.779545 349.710722 
L 203.625 349.961898 
L 204.470455 350.034714 
L 205.315909 350.27328 
L 212.079545 351.037304 
L 212.925 351.063467 
L 217.997727 351.831022 
L 226.452273 353.019085 
L 231.525 353.532068 
L 235.752273 354.017554 
L 239.134091 354.366507 
L 248.434091 355.216491 
L 252.661364 355.525361 
L 256.888636 355.878278 
L 257.734091 355.885504 
L 258.579545 356.03217 
L 259.425 356.001383 
L 260.270455 356.169506 
L 261.115909 356.111178 
L 261.961364 356.263001 
L 262.806818 356.199039 
L 263.652273 356.312079 
L 264.497727 356.2858 
L 267.034091 356.482239 
L 269.570455 356.641979 
L 270.415909 356.788632 
L 271.261364 356.763452 
L 272.106818 356.923218 
L 272.952273 356.83618 
L 273.797727 356.983346 
L 274.643182 356.849851 
L 275.488636 356.961661 
L 276.334091 356.855722 
L 279.715909 357.035151 
L 280.561364 357.033878 
L 281.406818 357.202737 
L 282.252273 357.164655 
L 283.097727 357.348178 
L 283.943182 357.287401 
L 284.788636 357.397674 
L 287.325 357.490525 
L 288.170455 357.496041 
L 289.015909 357.650401 
L 289.861364 357.582482 
L 290.706818 357.805771 
L 291.552273 357.568513 
L 292.397727 357.806731 
L 293.243182 357.320454 
L 294.088636 357.558956 
L 294.934091 356.659723 
L 295.779545 357.196613 
L 296.625 354.108086 
L 297.470455 357.739424 
L 299.161364 353.759769 
L 300.852273 357.638938 
L 301.697727 357.841351 
L 303.388636 353.457508 
L 304.234091 352.015439 
L 305.925 351.903985 
L 306.770455 351.000912 
L 308.461364 345.885922 
L 309.306818 344.294952 
L 310.997727 342.868897 
L 312.688636 340.222888 
L 313.534091 339.607975 
L 314.379545 339.792588 
L 315.225 340.162676 
L 316.070455 340.244066 
L 318.606818 339.55339 
L 319.452273 339.593107 
L 321.143182 339.886291 
L 322.834091 339.75104 
L 323.679545 339.714105 
L 324.525 339.921438 
L 325.370455 340.421393 
L 329.597727 343.506132 
L 332.979545 345.898191 
L 334.670455 346.597849 
L 336.361364 347.200253 
L 338.052273 348.069322 
L 339.743182 349.041956 
L 344.815909 351.267678 
L 346.506818 351.807311 
L 350.734091 352.714745 
L 354.115909 353.420105 
L 358.343182 354.171389 
L 366.797727 355.045779 
L 371.025 355.480299 
L 395.543182 357.003277 
L 415.834091 357.747115 
L 456.415909 358.463151 
L 486.852273 358.830956 
L 559.561364 359.366389 
L 559.561364 359.366389 
" style="fill:none;stroke:#9467bd;stroke-linecap:square;stroke-width:1.5;"/>
   </g>
   <g id="line2d_21">
    <path clip-path="url(#pecabd8d118)" d="M 52.288636 312.661075 
L 53.134091 308.192155 
L 53.979545 323.58749 
L 54.825 321.883764 
L 55.670455 316.543649 
L 56.515909 315.764762 
L 57.361364 319.658588 
L 58.206818 325.516756 
L 59.052273 330.182001 
L 59.897727 332.096377 
L 60.743182 331.422503 
L 61.588636 329.920013 
L 62.434091 328.977563 
L 63.279545 330.003173 
L 64.125 332.969786 
L 64.970455 336.690322 
L 65.815909 339.538525 
L 66.661364 341.036436 
L 67.506818 341.322379 
L 69.197727 340.340492 
L 70.043182 340.942309 
L 70.888636 342.524348 
L 71.734091 345.080059 
L 73.425 350.831885 
L 74.270455 353.090456 
L 76.806818 358.711698 
L 78.497727 364.983184 
L 79.343182 368.146293 
L 81.034091 372.79411 
L 81.879545 374.450268 
L 82.725 375.580003 
L 83.570455 377.277002 
L 84.415909 378.096595 
L 85.261364 379.177063 
L 86.106818 379.590844 
L 86.952273 378.087146 
L 88.643182 372.573557 
L 90.334091 365.097566 
L 91.179545 362.720242 
L 92.025 361.221404 
L 92.870455 360.136965 
L 93.715909 359.655996 
L 94.561364 358.941658 
L 95.406818 358.550571 
L 96.252273 357.771959 
L 97.097727 357.157503 
L 97.943182 355.874182 
L 98.788636 355.384712 
L 99.634091 353.823594 
L 100.479545 354.148157 
L 101.325 353.108873 
L 102.170455 353.260394 
L 103.015909 352.61794 
L 103.861364 350.968149 
L 104.706818 349.975489 
L 105.552273 349.695295 
L 106.397727 348.124884 
L 107.243182 347.178764 
L 108.088636 346.827586 
L 108.934091 345.322923 
L 109.779545 345.647385 
L 111.470455 342.803896 
L 112.315909 343.344776 
L 113.161364 341.755447 
L 114.852273 342.44858 
L 115.697727 341.554628 
L 116.543182 342.296981 
L 118.234091 341.970419 
L 119.079545 343.089508 
L 119.925 342.50051 
L 120.770455 343.245597 
L 121.615909 344.349809 
L 122.461364 344.142062 
L 123.306818 345.38591 
L 124.997727 346.213846 
L 125.843182 347.343757 
L 126.688636 347.353036 
L 128.379545 349.137429 
L 129.225 349.237239 
L 130.070455 350.38753 
L 130.915909 350.735299 
L 131.761364 351.256599 
L 132.606818 351.989504 
L 133.452273 352.068919 
L 134.297727 352.90994 
L 135.988636 353.693216 
L 136.834091 354.56939 
L 137.679545 354.74193 
L 138.525 355.546894 
L 140.215909 356.299556 
L 141.061364 357.022719 
L 141.906818 357.094022 
L 142.752273 357.972316 
L 143.597727 357.840883 
L 144.443182 358.637402 
L 145.288636 358.718229 
L 146.979545 359.513778 
L 147.825 359.684626 
L 148.670455 360.347011 
L 149.515909 360.237854 
L 150.361364 360.991325 
L 151.206818 360.893765 
L 152.052273 361.441784 
L 152.897727 361.510717 
L 153.743182 361.785468 
L 154.588636 362.200817 
L 155.434091 362.097187 
L 156.279545 362.687856 
L 157.125 362.492011 
L 157.970455 362.98298 
L 158.815909 362.961969 
L 160.506818 363.528918 
L 161.352273 363.506368 
L 162.197727 363.994965 
L 163.043182 363.85255 
L 163.888636 364.296957 
L 164.734091 364.242409 
L 166.425 364.69224 
L 167.270455 364.772474 
L 168.115909 365.138079 
L 168.961364 365.065534 
L 169.806818 365.50612 
L 170.652273 365.355462 
L 171.497727 365.73142 
L 172.343182 365.672279 
L 174.034091 365.992061 
L 174.879545 365.949491 
L 175.725 366.274588 
L 176.570455 366.118134 
L 177.415909 366.485723 
L 178.261364 366.35627 
L 179.106818 366.594893 
L 180.797727 366.659151 
L 181.643182 366.854016 
L 182.488636 366.728052 
L 183.334091 366.994589 
L 184.179545 366.850383 
L 185.025 367.079252 
L 185.870455 367.024817 
L 187.561364 367.222873 
L 188.406818 367.164945 
L 189.252273 367.364471 
L 190.097727 367.230967 
L 190.943182 367.439241 
L 191.788636 367.342699 
L 192.634091 367.484427 
L 194.325 367.526805 
L 195.170455 367.625024 
L 196.015909 367.569361 
L 196.861364 367.744016 
L 197.706818 367.636598 
L 198.552273 367.830971 
L 199.397727 367.71394 
L 200.243182 367.872069 
L 201.088636 367.785929 
L 202.779545 367.855402 
L 205.315909 367.90128 
L 206.161364 368.086132 
L 207.006818 367.978345 
L 207.852273 368.159827 
L 208.697727 368.010606 
L 209.543182 368.106372 
L 211.234091 368.008578 
L 212.079545 368.089053 
L 212.925 368.006504 
L 213.770455 368.21606 
L 214.615909 368.085027 
L 215.461364 368.291732 
L 216.306818 368.155182 
L 217.997727 368.205825 
L 218.843182 368.08081 
L 219.688636 368.277325 
L 220.534091 368.062303 
L 221.379545 368.336951 
L 222.225 368.11371 
L 223.070455 368.238832 
L 223.915909 368.190404 
L 224.761364 368.003144 
L 225.606818 368.15888 
L 226.452273 367.910294 
L 227.297727 368.068283 
L 228.988636 368.039391 
L 229.834091 368.209368 
L 230.679545 368.114319 
L 232.370455 368.223824 
L 233.215909 368.162905 
L 234.061364 368.325168 
L 234.906818 368.171838 
L 235.752273 368.358593 
L 236.597727 368.180807 
L 238.288636 368.175492 
L 239.134091 368.013972 
L 239.979545 368.103499 
L 240.825 367.915065 
L 241.670455 368.040364 
L 243.361364 367.950718 
L 244.206818 368.048251 
L 245.052273 367.916853 
L 245.897727 368.001 
L 247.588636 367.925311 
L 248.434091 368.014564 
L 249.279545 367.920256 
L 250.125 368.040506 
L 251.815909 367.971919 
L 284.788636 367.188032 
L 285.634091 366.994239 
L 286.479545 367.129699 
L 287.325 366.842327 
L 288.170455 367.094821 
L 289.015909 366.583902 
L 289.861364 367.208768 
L 290.706818 365.292195 
L 291.552273 369.159744 
L 292.397727 363.736415 
L 293.243182 365.227407 
L 294.088636 368.722125 
L 294.934091 369.156646 
L 295.779545 366.533227 
L 298.315909 354.45566 
L 299.161364 352.020903 
L 300.852273 347.937438 
L 301.697727 345.345259 
L 303.388636 338.746464 
L 304.234091 336.490687 
L 305.079545 336.093071 
L 306.770455 337.610526 
L 307.615909 336.698378 
L 308.461364 334.409167 
L 309.306818 334.956331 
L 311.843182 340.448128 
L 312.688636 341.513265 
L 314.379545 342.189094 
L 316.070455 342.360949 
L 316.915909 342.014389 
L 317.761364 340.97525 
L 318.606818 340.178675 
L 320.297727 339.234457 
L 321.143182 338.940016 
L 321.988636 339.202929 
L 322.834091 340.016854 
L 323.679545 340.583918 
L 325.370455 342.084858 
L 326.215909 342.448148 
L 327.906818 342.969638 
L 330.443182 342.989643 
L 331.288636 343.484171 
L 332.134091 344.138857 
L 332.979545 344.605516 
L 336.361364 345.37298 
L 337.206818 345.736542 
L 339.743182 347.30411 
L 341.434091 348.371228 
L 343.970455 349.468548 
L 346.506818 350.358617 
L 351.579545 351.69218 
L 354.961364 352.232426 
L 359.188636 352.670951 
L 362.570455 353.090939 
L 368.488636 353.910934 
L 371.870455 354.218643 
L 384.552273 354.977956 
L 393.006818 355.364987 
L 419.215909 355.95013 
L 448.806818 356.431769 
L 496.997727 357.120162 
L 539.270455 357.362323 
L 559.561364 357.384024 
L 559.561364 357.384024 
" style="fill:none;stroke:#8c564b;stroke-linecap:square;stroke-width:1.5;"/>
   </g>
   <g id="line2d_22">
    <path clip-path="url(#pecabd8d118)" d="M 52.288636 312.661075 
L 53.134091 307.01757 
L 53.979545 322.879243 
L 54.825 321.970376 
L 55.670455 315.995725 
L 56.515909 313.517083 
L 57.361364 315.806708 
L 59.052273 325.745742 
L 59.897727 328.49076 
L 60.743182 328.795624 
L 62.434091 325.835559 
L 63.279545 325.754108 
L 64.125 327.359164 
L 66.661364 335.200163 
L 67.506818 336.130826 
L 68.352273 335.960283 
L 69.197727 335.487884 
L 70.043182 335.483366 
L 70.888636 336.38066 
L 71.734091 338.029353 
L 72.579545 340.156958 
L 73.425 341.9247 
L 74.270455 342.959173 
L 75.115909 343.067431 
L 75.961364 342.980078 
L 76.806818 343.151595 
L 77.652273 344.044169 
L 78.497727 345.654474 
L 80.188636 349.963465 
L 81.879545 353.601276 
L 82.725 355.8764 
L 83.570455 358.562022 
L 86.106818 367.802799 
L 86.952273 369.93346 
L 88.643182 372.893339 
L 89.488636 374.816702 
L 90.334091 377.321959 
L 91.179545 379.428327 
L 92.025 380.37479 
L 92.870455 380.825337 
L 94.561364 380.903241 
L 96.252273 380.632127 
L 97.943182 379.49656 
L 98.788636 377.536578 
L 99.634091 375.968488 
L 101.325 371.770057 
L 102.170455 370.79758 
L 103.015909 369.140411 
L 103.861364 368.550536 
L 104.706818 368.712595 
L 105.552273 368.183377 
L 106.397727 368.618926 
L 107.243182 367.537873 
L 108.088636 367.310954 
L 108.934091 366.691262 
L 109.779545 365.457407 
L 110.625 365.7573 
L 111.470455 365.065538 
L 112.315909 366.955356 
L 113.161364 367.76462 
L 114.006818 367.586547 
L 114.852273 368.992601 
L 115.697727 369.15092 
L 116.543182 368.81293 
L 117.388636 369.715343 
L 119.925 370.78767 
L 120.770455 370.506952 
L 121.615909 370.939451 
L 122.461364 370.94283 
L 123.306818 370.547029 
L 124.152273 371.185055 
L 125.843182 370.529973 
L 126.688636 370.792417 
L 127.534091 370.132421 
L 128.379545 370.609185 
L 129.225 370.349667 
L 130.915909 370.808148 
L 131.761364 370.616522 
L 132.606818 371.540266 
L 133.452273 371.290389 
L 134.297727 372.05526 
L 135.143182 372.294418 
L 135.988636 372.369989 
L 136.834091 373.069033 
L 137.679545 372.751841 
L 138.525 373.495572 
L 139.370455 373.458943 
L 140.215909 373.601004 
L 141.061364 374.112074 
L 141.906818 373.913779 
L 142.752273 374.515218 
L 144.443182 374.839023 
L 145.288636 375.331193 
L 146.134091 375.263177 
L 146.979545 375.752376 
L 148.670455 375.889857 
L 149.515909 376.314828 
L 150.361364 376.182536 
L 151.206818 376.491208 
L 152.052273 376.588357 
L 152.897727 376.525821 
L 153.743182 376.921871 
L 154.588636 376.750176 
L 156.279545 377.089323 
L 157.125 376.956034 
L 157.970455 377.282447 
L 158.815909 377.087226 
L 160.506818 377.282209 
L 161.352273 377.14309 
L 162.197727 377.395442 
L 163.043182 377.155557 
L 163.888636 377.281433 
L 166.425 377.162176 
L 167.270455 376.831688 
L 168.115909 376.964308 
L 168.961364 376.707649 
L 170.652273 376.672393 
L 171.497727 376.375033 
L 172.343182 376.57335 
L 173.188636 376.235852 
L 174.034091 376.315541 
L 174.879545 376.11685 
L 176.570455 375.960009 
L 177.415909 375.729082 
L 178.261364 375.915089 
L 179.106818 375.52483 
L 179.952273 375.68816 
L 180.797727 375.401943 
L 181.643182 375.422426 
L 182.488636 375.195933 
L 184.179545 375.057181 
L 185.025 374.888685 
L 185.870455 375.081682 
L 186.715909 374.721408 
L 187.561364 375.128053 
L 188.406818 374.580867 
L 189.252273 374.907131 
L 190.097727 374.448131 
L 190.943182 374.262809 
L 191.788636 374.351588 
L 192.634091 373.882822 
L 193.479545 374.163638 
L 194.325 373.96033 
L 196.015909 374.236624 
L 196.861364 374.034755 
L 197.706818 374.204269 
L 199.397727 373.975868 
L 200.243182 374.058641 
L 201.088636 373.89006 
L 201.934091 374.059706 
L 202.779545 373.827332 
L 203.625 373.952162 
L 205.315909 373.623524 
L 206.161364 373.623249 
L 207.006818 373.35631 
L 207.852273 373.456182 
L 208.697727 373.257616 
L 209.543182 373.34962 
L 211.234091 373.248764 
L 212.079545 373.296499 
L 212.925 373.127569 
L 213.770455 373.22184 
L 214.615909 373.052532 
L 215.461364 373.130128 
L 216.306818 373.00826 
L 217.997727 372.984765 
L 220.534091 372.757732 
L 221.379545 372.798639 
L 222.225 372.583111 
L 223.070455 372.678082 
L 223.915909 372.454122 
L 224.761364 372.506315 
L 225.606818 372.340583 
L 228.988636 372.148605 
L 229.834091 372.055843 
L 230.679545 372.123189 
L 231.525 371.984397 
L 232.370455 372.081652 
L 233.215909 371.866162 
L 234.061364 371.987126 
L 234.906818 371.716924 
L 235.752273 371.847742 
L 236.597727 371.56721 
L 237.443182 371.728853 
L 238.288636 371.432174 
L 239.134091 371.604269 
L 239.979545 371.33038 
L 240.825 371.426013 
L 241.670455 371.272322 
L 244.206818 371.162612 
L 245.052273 371.307098 
L 245.897727 371.105674 
L 246.743182 371.317479 
L 247.588636 370.989518 
L 248.434091 371.292963 
L 249.279545 370.726287 
L 250.125 371.27877 
L 250.970455 370.251865 
L 251.815909 371.438238 
L 252.661364 369.047497 
L 253.506818 372.033807 
L 254.352273 367.248933 
L 255.197727 368.427582 
L 256.043182 370.928735 
L 256.888636 369.810758 
L 258.579545 362.123519 
L 259.425 360.506852 
L 260.270455 360.165471 
L 261.115909 359.201195 
L 261.961364 356.30717 
L 262.806818 352.63709 
L 263.652273 350.215648 
L 265.343182 349.189099 
L 266.188636 350.223424 
L 267.034091 350.883249 
L 267.879545 351.363691 
L 269.570455 355.009674 
L 270.415909 355.848549 
L 272.106818 356.539242 
L 273.797727 357.549181 
L 274.643182 357.533788 
L 275.488636 357.030731 
L 277.179545 355.327227 
L 278.025 354.725892 
L 278.870455 354.442136 
L 280.561364 354.415393 
L 281.406818 354.587479 
L 282.252273 355.007614 
L 283.943182 356.276432 
L 284.788636 356.672952 
L 285.634091 356.765096 
L 289.015909 355.912757 
L 292.397727 354.714051 
L 293.243182 354.795541 
L 294.934091 355.47305 
L 296.625 356.076236 
L 299.161364 356.843647 
L 300.852273 357.395303 
L 303.388636 357.588731 
L 305.079545 357.708292 
L 307.615909 358.054384 
L 321.143182 358.663921 
L 330.443182 358.542084 
L 335.515909 358.56306 
L 366.797727 359.25619 
L 387.088636 359.409771 
L 415.834091 359.218441 
L 457.261364 358.729315 
L 516.443182 357.766422 
L 553.643182 357.182116 
L 559.561364 357.100563 
L 559.561364 357.100563 
" style="fill:none;stroke:#e377c2;stroke-linecap:square;stroke-width:1.5;"/>
   </g>
   <g id="line2d_23">
    <path clip-path="url(#pecabd8d118)" d="M 52.288636 312.661075 
L 53.134091 306.330539 
L 53.979545 322.265865 
L 54.825 321.824017 
L 55.670455 316.012087 
L 56.515909 312.785679 
L 57.361364 313.971461 
L 59.052273 322.756256 
L 59.897727 325.385118 
L 60.743182 325.784422 
L 61.588636 324.550246 
L 62.434091 323.088996 
L 63.279545 322.559133 
L 64.125 323.544797 
L 64.970455 325.826034 
L 65.815909 328.614404 
L 66.661364 331.01494 
L 67.506818 332.484102 
L 68.352273 332.910436 
L 70.043182 332.46573 
L 70.888636 332.653885 
L 71.734091 333.601247 
L 74.270455 338.311598 
L 75.115909 339.321547 
L 76.806818 340.080735 
L 77.652273 340.49213 
L 79.343182 342.173753 
L 81.879545 345.296996 
L 84.415909 348.586225 
L 86.952273 352.913517 
L 88.643182 357.068731 
L 90.334091 361.875756 
L 92.025 366.357742 
L 93.715909 369.771347 
L 94.561364 371.739772 
L 95.406818 374.271175 
L 96.252273 375.984213 
L 97.097727 376.935725 
L 97.943182 378.218459 
L 98.788636 378.615785 
L 99.634091 378.62971 
L 100.479545 379.733921 
L 101.325 381.377334 
L 102.170455 382.591113 
L 103.015909 384.20072 
L 103.861364 383.957537 
L 104.706818 384.085745 
L 105.552273 383.162829 
L 106.397727 381.606538 
L 107.243182 380.790794 
L 108.934091 377.601414 
L 109.779545 376.276416 
L 110.625 374.034467 
L 111.470455 372.748856 
L 113.161364 371.080129 
L 114.006818 371.4363 
L 114.852273 370.920433 
L 115.697727 370.978728 
L 116.543182 370.892144 
L 117.388636 369.722457 
L 118.234091 371.141404 
L 119.079545 370.858928 
L 120.770455 373.777131 
L 121.615909 373.695035 
L 123.306818 375.516432 
L 124.152273 375.519854 
L 125.843182 376.60866 
L 126.688636 376.6625 
L 127.534091 377.193203 
L 128.379545 377.961254 
L 129.225 378.174192 
L 130.070455 378.638339 
L 130.915909 379.270062 
L 131.761364 379.144736 
L 132.606818 379.154918 
L 133.452273 379.43921 
L 135.143182 379.019121 
L 135.988636 379.34731 
L 136.834091 379.010849 
L 137.679545 378.962164 
L 138.525 379.37862 
L 139.370455 379.134731 
L 140.215909 379.05178 
L 141.061364 379.382608 
L 142.752273 379.096424 
L 143.597727 379.427112 
L 145.288636 379.369305 
L 146.134091 379.61507 
L 146.979545 379.49589 
L 148.670455 379.687455 
L 149.515909 379.441019 
L 150.361364 379.439752 
L 151.206818 379.571431 
L 152.052273 379.303832 
L 153.743182 379.240365 
L 154.588636 378.967518 
L 156.279545 378.942637 
L 157.125 378.718547 
L 157.970455 378.773412 
L 158.815909 378.65228 
L 159.661364 378.369139 
L 160.506818 378.334686 
L 162.197727 377.797756 
L 163.043182 377.777025 
L 163.888636 377.469866 
L 165.579545 377.250234 
L 166.425 376.905712 
L 167.270455 376.829988 
L 168.961364 376.316969 
L 169.806818 376.290968 
L 170.652273 375.946761 
L 171.497727 375.895923 
L 173.188636 375.45195 
L 174.034091 375.467241 
L 174.879545 375.108783 
L 176.570455 374.937683 
L 177.415909 374.654882 
L 178.261364 374.679625 
L 179.106818 374.389227 
L 180.797727 374.242267 
L 181.643182 373.921835 
L 182.488636 373.898733 
L 186.715909 373.178725 
L 187.561364 373.094115 
L 188.406818 372.839518 
L 189.252273 372.879968 
L 190.097727 372.585901 
L 190.943182 372.594889 
L 192.634091 372.348214 
L 193.479545 372.341311 
L 194.325 372.178096 
L 195.170455 372.209987 
L 196.015909 372.000927 
L 196.861364 372.043032 
L 197.706818 371.784487 
L 198.552273 371.865499 
L 199.397727 371.555711 
L 200.243182 371.804573 
L 201.088636 371.272866 
L 201.934091 371.852955 
L 202.779545 370.961356 
L 203.625 371.823294 
L 204.470455 370.924226 
L 205.315909 371.481637 
L 207.006818 370.812993 
L 207.852273 371.475383 
L 208.697727 370.751552 
L 209.543182 371.261578 
L 210.388636 371.384856 
L 211.234091 370.96075 
L 212.079545 371.567762 
L 212.925 371.118053 
L 213.770455 371.121308 
L 214.615909 371.320556 
L 215.461364 370.818809 
L 216.306818 371.204758 
L 217.152273 370.982788 
L 217.997727 370.9039 
L 218.843182 371.206998 
L 219.688636 370.807459 
L 220.534091 371.055372 
L 222.225 370.860662 
L 223.070455 371.167151 
L 223.915909 370.904925 
L 224.761364 371.169783 
L 226.452273 371.071065 
L 227.297727 371.181356 
L 228.143182 370.930116 
L 228.988636 371.139575 
L 229.834091 370.95932 
L 231.525 371.054263 
L 232.370455 370.910727 
L 233.215909 371.058345 
L 234.061364 370.789178 
L 234.906818 371.015232 
L 235.752273 370.700867 
L 236.597727 370.909678 
L 237.443182 370.663155 
L 238.288636 370.729931 
L 239.979545 370.504639 
L 240.825 370.509213 
L 241.670455 370.283463 
L 242.515909 370.435834 
L 243.361364 370.078743 
L 244.206818 370.397123 
L 245.052273 369.907725 
L 245.897727 370.332374 
L 246.743182 369.607089 
L 247.588636 370.343494 
L 248.434091 369.063033 
L 249.279545 370.757302 
L 250.125 367.380651 
L 250.970455 371.904707 
L 251.815909 368.044079 
L 252.661364 367.681963 
L 253.506818 369.543145 
L 254.352273 369.357681 
L 256.043182 361.096311 
L 256.888636 361.636273 
L 257.734091 363.029531 
L 258.579545 363.166339 
L 260.270455 358.983989 
L 261.115909 358.983162 
L 261.961364 360.386563 
L 262.806818 362.056245 
L 263.652273 362.390168 
L 265.343182 361.451234 
L 266.188636 362.862793 
L 267.034091 363.907428 
L 267.879545 364.091592 
L 268.725 363.218654 
L 269.570455 361.68562 
L 270.415909 360.48385 
L 271.261364 359.790484 
L 272.952273 359.361946 
L 273.797727 359.247604 
L 274.643182 359.363072 
L 275.488636 359.836269 
L 278.025 362.05193 
L 282.252273 364.299777 
L 283.097727 364.600664 
L 283.943182 364.716524 
L 294.934091 364.486696 
L 297.470455 364.581206 
L 301.697727 365.025314 
L 305.079545 364.968569 
L 307.615909 364.75054 
L 310.152273 364.544739 
L 316.070455 364.482641 
L 319.452273 364.425658 
L 387.934091 360.692641 
L 435.279545 358.97547 
L 458.106818 358.505524 
L 475.861364 358.076796 
L 506.297727 357.562307 
L 535.888636 357.147542 
L 559.561364 356.793199 
L 559.561364 356.793199 
" style="fill:none;stroke:#7f7f7f;stroke-linecap:square;stroke-width:1.5;"/>
   </g>
   <g id="line2d_24">
    <path clip-path="url(#pecabd8d118)" d="M 52.288636 312.661075 
L 53.134091 305.648878 
L 53.979545 321.164635 
L 54.825 321.186003 
L 55.670455 315.774526 
L 56.515909 312.0846 
L 57.361364 312.442091 
L 58.206818 315.716013 
L 59.052273 319.759131 
L 59.897727 322.333071 
L 60.743182 322.804229 
L 61.588636 321.542893 
L 62.434091 319.794404 
L 63.279545 318.864613 
L 64.125 319.33539 
L 64.970455 321.018486 
L 66.661364 325.226454 
L 67.506818 326.587618 
L 68.352273 327.224448 
L 70.043182 327.350035 
L 70.888636 327.369886 
L 71.734091 327.538691 
L 72.579545 328.195093 
L 74.270455 330.423996 
L 75.961364 332.609354 
L 76.806818 333.422415 
L 77.652273 334.057956 
L 79.343182 334.623345 
L 80.188636 335.145768 
L 81.879545 337.044027 
L 83.570455 339.150883 
L 84.415909 339.769367 
L 85.261364 340.10253 
L 86.106818 340.23527 
L 86.952273 340.63403 
L 87.797727 341.472823 
L 90.334091 344.621015 
L 92.025 345.716302 
L 92.870455 346.720214 
L 93.715909 347.923295 
L 95.406818 350.95806 
L 97.097727 353.745228 
L 100.479545 360.913713 
L 102.170455 363.684695 
L 104.706818 369.019785 
L 105.552273 371.178149 
L 106.397727 372.517389 
L 108.088636 376.027685 
L 108.934091 376.721657 
L 109.779545 378.08587 
L 110.625 379.168257 
L 111.470455 379.619612 
L 112.315909 381.256601 
L 113.161364 381.945916 
L 114.006818 383.197275 
L 115.697727 383.45279 
L 116.543182 383.660862 
L 117.388636 382.982413 
L 118.234091 383.097166 
L 119.079545 381.797522 
L 119.925 381.778152 
L 120.770455 381.00496 
L 121.615909 379.173544 
L 122.461364 377.785419 
L 123.306818 377.139431 
L 124.152273 375.728006 
L 124.997727 374.664769 
L 125.843182 374.668843 
L 126.688636 373.899655 
L 127.534091 372.807325 
L 128.379545 372.924106 
L 129.225 372.665391 
L 130.070455 372.031663 
L 130.915909 372.686056 
L 131.761364 372.441484 
L 132.606818 372.024773 
L 133.452273 372.714716 
L 134.297727 372.773697 
L 135.143182 372.559956 
L 135.988636 373.160187 
L 137.679545 373.358953 
L 138.525 374.181437 
L 139.370455 374.491154 
L 140.215909 374.633449 
L 141.061364 375.375494 
L 141.906818 375.686858 
L 142.752273 375.775078 
L 143.597727 376.154326 
L 145.288636 376.03741 
L 146.134091 376.217595 
L 147.825 376.18695 
L 148.670455 376.409972 
L 150.361364 376.235353 
L 151.206818 376.387793 
L 152.052273 376.297818 
L 152.897727 376.056942 
L 153.743182 376.101429 
L 158.815909 375.450782 
L 159.661364 375.187418 
L 160.506818 374.787199 
L 162.197727 374.338867 
L 163.043182 373.925574 
L 164.734091 373.362519 
L 165.579545 372.912056 
L 167.270455 372.297714 
L 168.115909 371.852797 
L 168.961364 371.639517 
L 170.652273 370.95357 
L 171.497727 370.801116 
L 172.343182 370.413463 
L 174.034091 369.903642 
L 174.879545 369.471265 
L 176.570455 368.862315 
L 179.106818 367.910668 
L 179.952273 367.648743 
L 182.488636 366.555987 
L 187.561364 364.536778 
L 190.097727 363.591408 
L 190.943182 363.38997 
L 191.788636 363.042796 
L 192.634091 362.963087 
L 193.479545 362.413769 
L 194.325 362.734031 
L 195.170455 361.624046 
L 196.015909 362.979642 
L 196.861364 361.098656 
L 197.706818 363.245545 
L 198.552273 361.223495 
L 199.397727 362.010921 
L 200.243182 361.911682 
L 201.088636 360.513048 
L 201.934091 361.205288 
L 202.779545 362.548531 
L 203.625 362.543525 
L 204.470455 362.915344 
L 205.315909 365.016721 
L 206.161364 366.36315 
L 207.006818 365.784351 
L 207.852273 365.699918 
L 208.697727 366.400772 
L 209.543182 366.112216 
L 210.388636 365.027997 
L 211.234091 364.614623 
L 212.079545 364.84101 
L 212.925 364.722766 
L 213.770455 364.282295 
L 214.615909 364.307234 
L 215.461364 364.762354 
L 216.306818 365.008209 
L 217.152273 364.887843 
L 217.997727 365.045765 
L 218.843182 365.623785 
L 219.688636 365.938753 
L 220.534091 365.867012 
L 221.379545 365.9828 
L 222.225 366.309324 
L 223.070455 366.160417 
L 223.915909 365.616867 
L 224.761364 365.340746 
L 225.606818 365.517583 
L 226.452273 365.561313 
L 227.297727 365.290144 
L 228.143182 365.248819 
L 229.834091 365.905201 
L 231.525 365.791759 
L 233.215909 366.122576 
L 234.906818 365.93144 
L 236.597727 366.182211 
L 238.288636 365.825604 
L 239.134091 365.85033 
L 239.979545 365.987412 
L 243.361364 366.088023 
L 244.206818 366.142122 
L 245.897727 365.999697 
L 247.588636 365.972597 
L 249.279545 365.771355 
L 250.970455 365.792131 
L 252.661364 365.65718 
L 254.352273 365.743597 
L 256.043182 365.729738 
L 257.734091 365.846189 
L 259.425 365.812135 
L 261.115909 365.860842 
L 262.806818 365.819432 
L 264.497727 365.857553 
L 266.188636 365.802354 
L 267.879545 365.78558 
L 269.570455 365.702516 
L 271.261364 365.681988 
L 275.488636 365.47162 
L 327.906818 363.729046 
L 351.579545 362.612449 
L 376.097727 361.711126 
L 393.006818 361.20848 
L 409.915909 360.728923 
L 433.588636 360.124067 
L 453.879545 359.624189 
L 483.470455 358.924205 
L 492.770455 358.729875 
L 506.297727 358.477521 
L 518.979545 358.208781 
L 526.588636 358.099823 
L 530.815909 358.009728 
L 546.879545 357.732024 
L 551.106818 357.674669 
L 554.488636 357.617697 
L 557.025 357.583962 
L 559.561364 357.537317 
L 559.561364 357.537317 
" style="fill:none;stroke:#bcbd22;stroke-linecap:square;stroke-width:1.5;"/>
   </g>
   <g id="patch_4">
    <path d="M 26.925 582.9575 
L 26.925 39.3575 
" style="fill:none;stroke:#000000;stroke-linecap:square;stroke-linejoin:miter;stroke-width:0.8;"/>
   </g>
   <g id="patch_5">
    <path d="M 584.925 582.9575 
L 584.925 39.3575 
" style="fill:none;stroke:#000000;stroke-linecap:square;stroke-linejoin:miter;stroke-width:0.8;"/>
   </g>
   <g id="patch_6">
    <path d="M 26.925 582.9575 
L 584.925 582.9575 
" style="fill:none;stroke:#000000;stroke-linecap:square;stroke-linejoin:miter;stroke-width:0.8;"/>
   </g>
   <g id="patch_7">
    <path d="M 26.925 39.3575 
L 584.925 39.3575 
" style="fill:none;stroke:#000000;stroke-linecap:square;stroke-linejoin:miter;stroke-width:0.8;"/>
   </g>
   <g id="text_17">
    <!-- Class separation -->
    <g transform="translate(430.206818 577.5215)scale(0.1 -0.1)">
     <defs>
      <path d="M 64.40625 67.28125 
L 64.40625 56.890625 
Q 59.421875 61.53125 53.78125 63.8125 
Q 48.140625 66.109375 41.796875 66.109375 
Q 29.296875 66.109375 22.65625 58.46875 
Q 16.015625 50.828125 16.015625 36.375 
Q 16.015625 21.96875 22.65625 14.328125 
Q 29.296875 6.6875 41.796875 6.6875 
Q 48.140625 6.6875 53.78125 8.984375 
Q 59.421875 11.28125 64.40625 15.921875 
L 64.40625 5.609375 
Q 59.234375 2.09375 53.4375 0.328125 
Q 47.65625 -1.421875 41.21875 -1.421875 
Q 24.65625 -1.421875 15.125 8.703125 
Q 5.609375 18.84375 5.609375 36.375 
Q 5.609375 53.953125 15.125 64.078125 
Q 24.65625 74.21875 41.21875 74.21875 
Q 47.75 74.21875 53.53125 72.484375 
Q 59.328125 70.75 64.40625 67.28125 
z
" id="DejaVuSans-67"/>
      <path d="M 9.421875 75.984375 
L 18.40625 75.984375 
L 18.40625 0 
L 9.421875 0 
z
" id="DejaVuSans-108"/>
      <path d="M 34.28125 27.484375 
Q 23.390625 27.484375 19.1875 25 
Q 14.984375 22.515625 14.984375 16.5 
Q 14.984375 11.71875 18.140625 8.90625 
Q 21.296875 6.109375 26.703125 6.109375 
Q 34.1875 6.109375 38.703125 11.40625 
Q 43.21875 16.703125 43.21875 25.484375 
L 43.21875 27.484375 
z
M 52.203125 31.203125 
L 52.203125 0 
L 43.21875 0 
L 43.21875 8.296875 
Q 40.140625 3.328125 35.546875 0.953125 
Q 30.953125 -1.421875 24.3125 -1.421875 
Q 15.921875 -1.421875 10.953125 3.296875 
Q 6 8.015625 6 15.921875 
Q 6 25.140625 12.171875 29.828125 
Q 18.359375 34.515625 30.609375 34.515625 
L 43.21875 34.515625 
L 43.21875 35.40625 
Q 43.21875 41.609375 39.140625 45 
Q 35.0625 48.390625 27.6875 48.390625 
Q 23 48.390625 18.546875 47.265625 
Q 14.109375 46.140625 10.015625 43.890625 
L 10.015625 52.203125 
Q 14.9375 54.109375 19.578125 55.046875 
Q 24.21875 56 28.609375 56 
Q 40.484375 56 46.34375 49.84375 
Q 52.203125 43.703125 52.203125 31.203125 
z
" id="DejaVuSans-97"/>
      <path id="DejaVuSans-32"/>
      <path d="M 56.203125 29.59375 
L 56.203125 25.203125 
L 14.890625 25.203125 
Q 15.484375 15.921875 20.484375 11.0625 
Q 25.484375 6.203125 34.421875 6.203125 
Q 39.59375 6.203125 44.453125 7.46875 
Q 49.3125 8.734375 54.109375 11.28125 
L 54.109375 2.78125 
Q 49.265625 0.734375 44.1875 -0.34375 
Q 39.109375 -1.421875 33.890625 -1.421875 
Q 20.796875 -1.421875 13.15625 6.1875 
Q 5.515625 13.8125 5.515625 26.8125 
Q 5.515625 40.234375 12.765625 48.109375 
Q 20.015625 56 32.328125 56 
Q 43.359375 56 49.78125 48.890625 
Q 56.203125 41.796875 56.203125 29.59375 
z
M 47.21875 32.234375 
Q 47.125 39.59375 43.09375 43.984375 
Q 39.0625 48.390625 32.421875 48.390625 
Q 24.90625 48.390625 20.390625 44.140625 
Q 15.875 39.890625 15.1875 32.171875 
z
" id="DejaVuSans-101"/>
      <path d="M 41.109375 46.296875 
Q 39.59375 47.171875 37.8125 47.578125 
Q 36.03125 48 33.890625 48 
Q 26.265625 48 22.1875 43.046875 
Q 18.109375 38.09375 18.109375 28.8125 
L 18.109375 0 
L 9.078125 0 
L 9.078125 54.6875 
L 18.109375 54.6875 
L 18.109375 46.1875 
Q 20.953125 51.171875 25.484375 53.578125 
Q 30.03125 56 36.53125 56 
Q 37.453125 56 38.578125 55.875 
Q 39.703125 55.765625 41.0625 55.515625 
z
" id="DejaVuSans-114"/>
      <path d="M 18.3125 70.21875 
L 18.3125 54.6875 
L 36.8125 54.6875 
L 36.8125 47.703125 
L 18.3125 47.703125 
L 18.3125 18.015625 
Q 18.3125 11.328125 20.140625 9.421875 
Q 21.96875 7.515625 27.59375 7.515625 
L 36.8125 7.515625 
L 36.8125 0 
L 27.59375 0 
Q 17.1875 0 13.234375 3.875 
Q 9.28125 7.765625 9.28125 18.015625 
L 9.28125 47.703125 
L 2.6875 47.703125 
L 2.6875 54.6875 
L 9.28125 54.6875 
L 9.28125 70.21875 
z
" id="DejaVuSans-116"/>
      <path d="M 9.421875 54.6875 
L 18.40625 54.6875 
L 18.40625 0 
L 9.421875 0 
z
M 9.421875 75.984375 
L 18.40625 75.984375 
L 18.40625 64.59375 
L 9.421875 64.59375 
z
" id="DejaVuSans-105"/>
      <path d="M 54.890625 33.015625 
L 54.890625 0 
L 45.90625 0 
L 45.90625 32.71875 
Q 45.90625 40.484375 42.875 44.328125 
Q 39.84375 48.1875 33.796875 48.1875 
Q 26.515625 48.1875 22.3125 43.546875 
Q 18.109375 38.921875 18.109375 30.90625 
L 18.109375 0 
L 9.078125 0 
L 9.078125 54.6875 
L 18.109375 54.6875 
L 18.109375 46.1875 
Q 21.34375 51.125 25.703125 53.5625 
Q 30.078125 56 35.796875 56 
Q 45.21875 56 50.046875 50.171875 
Q 54.890625 44.34375 54.890625 33.015625 
z
" id="DejaVuSans-110"/>
     </defs>
     <use xlink:href="#DejaVuSans-67"/>
     <use x="69.824219" xlink:href="#DejaVuSans-108"/>
     <use x="97.607422" xlink:href="#DejaVuSans-97"/>
     <use x="158.886719" xlink:href="#DejaVuSans-115"/>
     <use x="210.986328" xlink:href="#DejaVuSans-115"/>
     <use x="263.085938" xlink:href="#DejaVuSans-32"/>
     <use x="294.873047" xlink:href="#DejaVuSans-115"/>
     <use x="346.972656" xlink:href="#DejaVuSans-101"/>
     <use x="408.496094" xlink:href="#DejaVuSans-112"/>
     <use x="471.972656" xlink:href="#DejaVuSans-97"/>
     <use x="533.251953" xlink:href="#DejaVuSans-114"/>
     <use x="574.365234" xlink:href="#DejaVuSans-97"/>
     <use x="635.644531" xlink:href="#DejaVuSans-116"/>
     <use x="674.853516" xlink:href="#DejaVuSans-105"/>
     <use x="702.636719" xlink:href="#DejaVuSans-111"/>
     <use x="763.818359" xlink:href="#DejaVuSans-110"/>
    </g>
   </g>
   <g id="text_18">
    <!-- Distance from final baseline solution -->
    <g transform="translate(159.74125 19.3575)scale(0.16 -0.16)">
     <defs>
      <path d="M 19.671875 64.796875 
L 19.671875 8.109375 
L 31.59375 8.109375 
Q 46.6875 8.109375 53.6875 14.9375 
Q 60.6875 21.78125 60.6875 36.53125 
Q 60.6875 51.171875 53.6875 57.984375 
Q 46.6875 64.796875 31.59375 64.796875 
z
M 9.8125 72.90625 
L 30.078125 72.90625 
Q 51.265625 72.90625 61.171875 64.09375 
Q 71.09375 55.28125 71.09375 36.53125 
Q 71.09375 17.671875 61.125 8.828125 
Q 51.171875 0 30.078125 0 
L 9.8125 0 
z
" id="DejaVuSans-68"/>
      <path d="M 37.109375 75.984375 
L 37.109375 68.5 
L 28.515625 68.5 
Q 23.6875 68.5 21.796875 66.546875 
Q 19.921875 64.59375 19.921875 59.515625 
L 19.921875 54.6875 
L 34.71875 54.6875 
L 34.71875 47.703125 
L 19.921875 47.703125 
L 19.921875 0 
L 10.890625 0 
L 10.890625 47.703125 
L 2.296875 47.703125 
L 2.296875 54.6875 
L 10.890625 54.6875 
L 10.890625 58.5 
Q 10.890625 67.625 15.140625 71.796875 
Q 19.390625 75.984375 28.609375 75.984375 
z
" id="DejaVuSans-102"/>
      <path d="M 52 44.1875 
Q 55.375 50.25 60.0625 53.125 
Q 64.75 56 71.09375 56 
Q 79.640625 56 84.28125 50.015625 
Q 88.921875 44.046875 88.921875 33.015625 
L 88.921875 0 
L 79.890625 0 
L 79.890625 32.71875 
Q 79.890625 40.578125 77.09375 44.375 
Q 74.3125 48.1875 68.609375 48.1875 
Q 61.625 48.1875 57.5625 43.546875 
Q 53.515625 38.921875 53.515625 30.90625 
L 53.515625 0 
L 44.484375 0 
L 44.484375 32.71875 
Q 44.484375 40.625 41.703125 44.40625 
Q 38.921875 48.1875 33.109375 48.1875 
Q 26.21875 48.1875 22.15625 43.53125 
Q 18.109375 38.875 18.109375 30.90625 
L 18.109375 0 
L 9.078125 0 
L 9.078125 54.6875 
L 18.109375 54.6875 
L 18.109375 46.1875 
Q 21.1875 51.21875 25.484375 53.609375 
Q 29.78125 56 35.6875 56 
Q 41.65625 56 45.828125 52.96875 
Q 50 49.953125 52 44.1875 
z
" id="DejaVuSans-109"/>
      <path d="M 48.6875 27.296875 
Q 48.6875 37.203125 44.609375 42.84375 
Q 40.53125 48.484375 33.40625 48.484375 
Q 26.265625 48.484375 22.1875 42.84375 
Q 18.109375 37.203125 18.109375 27.296875 
Q 18.109375 17.390625 22.1875 11.75 
Q 26.265625 6.109375 33.40625 6.109375 
Q 40.53125 6.109375 44.609375 11.75 
Q 48.6875 17.390625 48.6875 27.296875 
z
M 18.109375 46.390625 
Q 20.953125 51.265625 25.265625 53.625 
Q 29.59375 56 35.59375 56 
Q 45.5625 56 51.78125 48.09375 
Q 58.015625 40.1875 58.015625 27.296875 
Q 58.015625 14.40625 51.78125 6.484375 
Q 45.5625 -1.421875 35.59375 -1.421875 
Q 29.59375 -1.421875 25.265625 0.953125 
Q 20.953125 3.328125 18.109375 8.203125 
L 18.109375 0 
L 9.078125 0 
L 9.078125 75.984375 
L 18.109375 75.984375 
z
" id="DejaVuSans-98"/>
      <path d="M 8.5 21.578125 
L 8.5 54.6875 
L 17.484375 54.6875 
L 17.484375 21.921875 
Q 17.484375 14.15625 20.5 10.265625 
Q 23.53125 6.390625 29.59375 6.390625 
Q 36.859375 6.390625 41.078125 11.03125 
Q 45.3125 15.671875 45.3125 23.6875 
L 45.3125 54.6875 
L 54.296875 54.6875 
L 54.296875 0 
L 45.3125 0 
L 45.3125 8.40625 
Q 42.046875 3.421875 37.71875 1 
Q 33.40625 -1.421875 27.6875 -1.421875 
Q 18.265625 -1.421875 13.375 4.4375 
Q 8.5 10.296875 8.5 21.578125 
z
M 31.109375 56 
z
" id="DejaVuSans-117"/>
     </defs>
     <use xlink:href="#DejaVuSans-68"/>
     <use x="77.001953" xlink:href="#DejaVuSans-105"/>
     <use x="104.785156" xlink:href="#DejaVuSans-115"/>
     <use x="156.884766" xlink:href="#DejaVuSans-116"/>
     <use x="196.09375" xlink:href="#DejaVuSans-97"/>
     <use x="257.373047" xlink:href="#DejaVuSans-110"/>
     <use x="320.751953" xlink:href="#DejaVuSans-99"/>
     <use x="375.732422" xlink:href="#DejaVuSans-101"/>
     <use x="437.255859" xlink:href="#DejaVuSans-32"/>
     <use x="469.042969" xlink:href="#DejaVuSans-102"/>
     <use x="504.248047" xlink:href="#DejaVuSans-114"/>
     <use x="543.111328" xlink:href="#DejaVuSans-111"/>
     <use x="604.292969" xlink:href="#DejaVuSans-109"/>
     <use x="701.705078" xlink:href="#DejaVuSans-32"/>
     <use x="733.492188" xlink:href="#DejaVuSans-102"/>
     <use x="768.697266" xlink:href="#DejaVuSans-105"/>
     <use x="796.480469" xlink:href="#DejaVuSans-110"/>
     <use x="859.859375" xlink:href="#DejaVuSans-97"/>
     <use x="921.138672" xlink:href="#DejaVuSans-108"/>
     <use x="948.921875" xlink:href="#DejaVuSans-32"/>
     <use x="980.708984" xlink:href="#DejaVuSans-98"/>
     <use x="1044.185547" xlink:href="#DejaVuSans-97"/>
     <use x="1105.464844" xlink:href="#DejaVuSans-115"/>
     <use x="1157.564453" xlink:href="#DejaVuSans-101"/>
     <use x="1219.087891" xlink:href="#DejaVuSans-108"/>
     <use x="1246.871094" xlink:href="#DejaVuSans-105"/>
     <use x="1274.654297" xlink:href="#DejaVuSans-110"/>
     <use x="1338.033203" xlink:href="#DejaVuSans-101"/>
     <use x="1399.556641" xlink:href="#DejaVuSans-32"/>
     <use x="1431.34375" xlink:href="#DejaVuSans-115"/>
     <use x="1483.443359" xlink:href="#DejaVuSans-111"/>
     <use x="1544.625" xlink:href="#DejaVuSans-108"/>
     <use x="1572.408203" xlink:href="#DejaVuSans-117"/>
     <use x="1635.787109" xlink:href="#DejaVuSans-116"/>
     <use x="1674.996094" xlink:href="#DejaVuSans-105"/>
     <use x="1702.779297" xlink:href="#DejaVuSans-111"/>
     <use x="1763.960938" xlink:href="#DejaVuSans-110"/>
    </g>
   </g>
   <g id="legend_1">
    <g id="line2d_25">
     <path d="M 49.917187 628.671938 
L 69.917187 628.671938 
" style="fill:none;stroke:#1f77b4;stroke-linecap:square;stroke-width:1.5;"/>
    </g>
    <g id="line2d_26"/>
    <g id="text_19">
     <!-- Baseline -->
     <g transform="translate(77.917187 632.171938)scale(0.1 -0.1)">
      <defs>
       <path d="M 19.671875 34.8125 
L 19.671875 8.109375 
L 35.5 8.109375 
Q 43.453125 8.109375 47.28125 11.40625 
Q 51.125 14.703125 51.125 21.484375 
Q 51.125 28.328125 47.28125 31.5625 
Q 43.453125 34.8125 35.5 34.8125 
z
M 19.671875 64.796875 
L 19.671875 42.828125 
L 34.28125 42.828125 
Q 41.5 42.828125 45.03125 45.53125 
Q 48.578125 48.25 48.578125 53.8125 
Q 48.578125 59.328125 45.03125 62.0625 
Q 41.5 64.796875 34.28125 64.796875 
z
M 9.8125 72.90625 
L 35.015625 72.90625 
Q 46.296875 72.90625 52.390625 68.21875 
Q 58.5 63.53125 58.5 54.890625 
Q 58.5 48.1875 55.375 44.234375 
Q 52.25 40.28125 46.1875 39.3125 
Q 53.46875 37.75 57.5 32.78125 
Q 61.53125 27.828125 61.53125 20.40625 
Q 61.53125 10.640625 54.890625 5.3125 
Q 48.25 0 35.984375 0 
L 9.8125 0 
z
" id="DejaVuSans-66"/>
      </defs>
      <use xlink:href="#DejaVuSans-66"/>
      <use x="68.603516" xlink:href="#DejaVuSans-97"/>
      <use x="129.882812" xlink:href="#DejaVuSans-115"/>
      <use x="181.982422" xlink:href="#DejaVuSans-101"/>
      <use x="243.505859" xlink:href="#DejaVuSans-108"/>
      <use x="271.289062" xlink:href="#DejaVuSans-105"/>
      <use x="299.072266" xlink:href="#DejaVuSans-110"/>
      <use x="362.451172" xlink:href="#DejaVuSans-101"/>
     </g>
    </g>
    <g id="line2d_27">
     <path d="M 49.917187 643.350063 
L 69.917187 643.350063 
" style="fill:none;stroke:#ff7f0e;stroke-linecap:square;stroke-width:1.5;"/>
    </g>
    <g id="line2d_28"/>
    <g id="text_20">
     <!-- Forced normaliz. -->
     <g transform="translate(77.917187 646.850063)scale(0.1 -0.1)">
      <defs>
       <path d="M 9.8125 72.90625 
L 51.703125 72.90625 
L 51.703125 64.59375 
L 19.671875 64.59375 
L 19.671875 43.109375 
L 48.578125 43.109375 
L 48.578125 34.8125 
L 19.671875 34.8125 
L 19.671875 0 
L 9.8125 0 
z
" id="DejaVuSans-70"/>
       <path d="M 45.40625 46.390625 
L 45.40625 75.984375 
L 54.390625 75.984375 
L 54.390625 0 
L 45.40625 0 
L 45.40625 8.203125 
Q 42.578125 3.328125 38.25 0.953125 
Q 33.9375 -1.421875 27.875 -1.421875 
Q 17.96875 -1.421875 11.734375 6.484375 
Q 5.515625 14.40625 5.515625 27.296875 
Q 5.515625 40.1875 11.734375 48.09375 
Q 17.96875 56 27.875 56 
Q 33.9375 56 38.25 53.625 
Q 42.578125 51.265625 45.40625 46.390625 
z
M 14.796875 27.296875 
Q 14.796875 17.390625 18.875 11.75 
Q 22.953125 6.109375 30.078125 6.109375 
Q 37.203125 6.109375 41.296875 11.75 
Q 45.40625 17.390625 45.40625 27.296875 
Q 45.40625 37.203125 41.296875 42.84375 
Q 37.203125 48.484375 30.078125 48.484375 
Q 22.953125 48.484375 18.875 42.84375 
Q 14.796875 37.203125 14.796875 27.296875 
z
" id="DejaVuSans-100"/>
       <path d="M 5.515625 54.6875 
L 48.1875 54.6875 
L 48.1875 46.484375 
L 14.40625 7.171875 
L 48.1875 7.171875 
L 48.1875 0 
L 4.296875 0 
L 4.296875 8.203125 
L 38.09375 47.515625 
L 5.515625 47.515625 
z
" id="DejaVuSans-122"/>
       <path d="M 10.6875 12.40625 
L 21 12.40625 
L 21 0 
L 10.6875 0 
z
" id="DejaVuSans-46"/>
      </defs>
      <use xlink:href="#DejaVuSans-70"/>
      <use x="53.894531" xlink:href="#DejaVuSans-111"/>
      <use x="115.076172" xlink:href="#DejaVuSans-114"/>
      <use x="153.939453" xlink:href="#DejaVuSans-99"/>
      <use x="208.919922" xlink:href="#DejaVuSans-101"/>
      <use x="270.443359" xlink:href="#DejaVuSans-100"/>
      <use x="333.919922" xlink:href="#DejaVuSans-32"/>
      <use x="365.707031" xlink:href="#DejaVuSans-110"/>
      <use x="429.085938" xlink:href="#DejaVuSans-111"/>
      <use x="490.267578" xlink:href="#DejaVuSans-114"/>
      <use x="529.630859" xlink:href="#DejaVuSans-109"/>
      <use x="627.042969" xlink:href="#DejaVuSans-97"/>
      <use x="688.322266" xlink:href="#DejaVuSans-108"/>
      <use x="716.105469" xlink:href="#DejaVuSans-105"/>
      <use x="743.888672" xlink:href="#DejaVuSans-122"/>
      <use x="796.378906" xlink:href="#DejaVuSans-46"/>
     </g>
    </g>
    <g id="line2d_29">
     <path d="M 180.732813 628.671938 
L 200.732813 628.671938 
" style="fill:none;stroke:#2ca02c;stroke-linecap:square;stroke-width:1.5;"/>
    </g>
    <g id="line2d_30"/>
    <g id="text_21">
     <!-- $\lambda=0.005$ -->
     <g transform="translate(208.732813 632.171938)scale(0.1 -0.1)">
      <defs>
       <path d="M 36.71875 67.4375 
L 48.828125 0 
L 39.3125 0 
L 31.84375 40.4375 
L 5.125 0 
L -4.390625 0 
L 29.734375 52.4375 
L 28.03125 62.109375 
Q 26.953125 68.265625 21.734375 68.265625 
L 17.046875 68.265625 
L 18.5 75.984375 
L 24.21875 75.875 
Q 35.203125 75.734375 36.71875 67.4375 
z
" id="DejaVuSans-Oblique-955"/>
       <path d="M 10.59375 45.40625 
L 73.1875 45.40625 
L 73.1875 37.203125 
L 10.59375 37.203125 
z
M 10.59375 25.484375 
L 73.1875 25.484375 
L 73.1875 17.1875 
L 10.59375 17.1875 
z
" id="DejaVuSans-61"/>
      </defs>
      <use transform="translate(0 0.015625)" xlink:href="#DejaVuSans-Oblique-955"/>
      <use transform="translate(78.662109 0.015625)" xlink:href="#DejaVuSans-61"/>
      <use transform="translate(181.933594 0.015625)" xlink:href="#DejaVuSans-48"/>
      <use transform="translate(245.556641 0.015625)" xlink:href="#DejaVuSans-46"/>
      <use transform="translate(277.34375 0.015625)" xlink:href="#DejaVuSans-48"/>
      <use transform="translate(340.966797 0.015625)" xlink:href="#DejaVuSans-48"/>
      <use transform="translate(404.589844 0.015625)" xlink:href="#DejaVuSans-53"/>
     </g>
    </g>
    <g id="line2d_31">
     <path d="M 180.732813 643.350063 
L 200.732813 643.350063 
" style="fill:none;stroke:#d62728;stroke-linecap:square;stroke-width:1.5;"/>
    </g>
    <g id="line2d_32"/>
    <g id="text_22">
     <!-- $\lambda=0.05$ -->
     <g transform="translate(208.732813 646.850063)scale(0.1 -0.1)">
      <use transform="translate(0 0.015625)" xlink:href="#DejaVuSans-Oblique-955"/>
      <use transform="translate(78.662109 0.015625)" xlink:href="#DejaVuSans-61"/>
      <use transform="translate(181.933594 0.015625)" xlink:href="#DejaVuSans-48"/>
      <use transform="translate(245.556641 0.015625)" xlink:href="#DejaVuSans-46"/>
      <use transform="translate(277.34375 0.015625)" xlink:href="#DejaVuSans-48"/>
      <use transform="translate(340.966797 0.015625)" xlink:href="#DejaVuSans-53"/>
     </g>
    </g>
    <g id="line2d_33">
     <path d="M 275.632812 628.671938 
L 295.632812 628.671938 
" style="fill:none;stroke:#9467bd;stroke-linecap:square;stroke-width:1.5;"/>
    </g>
    <g id="line2d_34"/>
    <g id="text_23">
     <!-- $\lambda=0.5$ -->
     <g transform="translate(303.632812 632.171938)scale(0.1 -0.1)">
      <use transform="translate(0 0.015625)" xlink:href="#DejaVuSans-Oblique-955"/>
      <use transform="translate(78.662109 0.015625)" xlink:href="#DejaVuSans-61"/>
      <use transform="translate(181.933594 0.015625)" xlink:href="#DejaVuSans-48"/>
      <use transform="translate(245.556641 0.015625)" xlink:href="#DejaVuSans-46"/>
      <use transform="translate(277.34375 0.015625)" xlink:href="#DejaVuSans-53"/>
     </g>
    </g>
    <g id="line2d_35">
     <path d="M 275.632812 643.350063 
L 295.632812 643.350063 
" style="fill:none;stroke:#8c564b;stroke-linecap:square;stroke-width:1.5;"/>
    </g>
    <g id="line2d_36"/>
    <g id="text_24">
     <!-- $\lambda=1.5$ -->
     <g transform="translate(303.632812 646.850063)scale(0.1 -0.1)">
      <use transform="translate(0 0.015625)" xlink:href="#DejaVuSans-Oblique-955"/>
      <use transform="translate(78.662109 0.015625)" xlink:href="#DejaVuSans-61"/>
      <use transform="translate(181.933594 0.015625)" xlink:href="#DejaVuSans-49"/>
      <use transform="translate(245.556641 0.015625)" xlink:href="#DejaVuSans-46"/>
      <use transform="translate(277.34375 0.015625)" xlink:href="#DejaVuSans-53"/>
     </g>
    </g>
    <g id="line2d_37">
     <path d="M 357.732813 628.671938 
L 377.732813 628.671938 
" style="fill:none;stroke:#e377c2;stroke-linecap:square;stroke-width:1.5;"/>
    </g>
    <g id="line2d_38"/>
    <g id="text_25">
     <!-- $\lambda=3$ -->
     <g transform="translate(385.732813 632.171938)scale(0.1 -0.1)">
      <use transform="translate(0 0.015625)" xlink:href="#DejaVuSans-Oblique-955"/>
      <use transform="translate(78.662109 0.015625)" xlink:href="#DejaVuSans-61"/>
      <use transform="translate(181.933594 0.015625)" xlink:href="#DejaVuSans-51"/>
     </g>
    </g>
    <g id="line2d_39">
     <path d="M 430.332812 628.671938 
L 450.332812 628.671938 
" style="fill:none;stroke:#7f7f7f;stroke-linecap:square;stroke-width:1.5;"/>
    </g>
    <g id="line2d_40"/>
    <g id="text_26">
     <!-- $\lambda=5$ -->
     <g transform="translate(458.332812 632.171938)scale(0.1 -0.1)">
      <use transform="translate(0 0.015625)" xlink:href="#DejaVuSans-Oblique-955"/>
      <use transform="translate(78.662109 0.015625)" xlink:href="#DejaVuSans-61"/>
      <use transform="translate(181.933594 0.015625)" xlink:href="#DejaVuSans-53"/>
     </g>
    </g>
    <g id="line2d_41">
     <path d="M 502.932813 628.671938 
L 522.932812 628.671938 
" style="fill:none;stroke:#bcbd22;stroke-linecap:square;stroke-width:1.5;"/>
    </g>
    <g id="line2d_42"/>
    <g id="text_27">
     <!-- $\lambda=10$ -->
     <g transform="translate(530.932812 632.171938)scale(0.1 -0.1)">
      <use transform="translate(0 0.015625)" xlink:href="#DejaVuSans-Oblique-955"/>
      <use transform="translate(78.662109 0.015625)" xlink:href="#DejaVuSans-61"/>
      <use transform="translate(181.933594 0.015625)" xlink:href="#DejaVuSans-49"/>
      <use transform="translate(245.556641 0.015625)" xlink:href="#DejaVuSans-48"/>
     </g>
    </g>
   </g>
  </g>
 </g>
 <defs>
  <clipPath id="pecabd8d118">
   <rect height="543.6" width="558" x="26.925" y="39.3575"/>
  </clipPath>
 </defs>
</svg>
