<?xml version="1.0" encoding="utf-8" standalone="no"?>
<!DOCTYPE svg PUBLIC "-//W3C//DTD SVG 1.1//EN"
  "http://www.w3.org/Graphics/SVG/1.1/DTD/svg11.dtd">
<!-- Created with matplotlib (https://matplotlib.org/) -->
<svg height="660.12975pt" version="1.1" viewBox="0 0 592.125 660.12975" width="592.125pt" xmlns="http://www.w3.org/2000/svg" xmlns:xlink="http://www.w3.org/1999/xlink">
 <metadata>
  <rdf:RDF xmlns:cc="http://creativecommons.org/ns#" xmlns:dc="http://purl.org/dc/elements/1.1/" xmlns:rdf="http://www.w3.org/1999/02/22-rdf-syntax-ns#">
   <cc:Work>
    <dc:type rdf:resource="http://purl.org/dc/dcmitype/StillImage"/>
    <dc:date>2021-01-13T11:55:32.364772</dc:date>
    <dc:format>image/svg+xml</dc:format>
    <dc:creator>
     <cc:Agent>
      <dc:title>Matplotlib v3.3.2, https://matplotlib.org/</dc:title>
     </cc:Agent>
    </dc:creator>
   </cc:Work>
  </rdf:RDF>
 </metadata>
 <defs>
  <style type="text/css">*{stroke-linecap:butt;stroke-linejoin:round;}</style>
 </defs>
 <g id="figure_1">
  <g id="patch_1">
   <path d="M 0 660.12975 
L 592.125 660.12975 
L 592.125 0 
L 0 0 
z
" style="fill:none;"/>
  </g>
  <g id="axes_1">
   <g id="patch_2">
    <path d="M 26.925 582.9575 
L 584.925 582.9575 
L 584.925 39.3575 
L 26.925 39.3575 
z
" style="fill:#ffffff;"/>
   </g>
   <g id="patch_3">
    <path clip-path="url(#p3f525d790b)" d="M 94.561364 582.9575 
L 429.361364 582.9575 
L 429.361364 39.3575 
L 94.561364 39.3575 
z
" style="fill:#1f77b4;opacity:0.2;"/>
   </g>
   <g id="matplotlib.axis_1">
    <g id="xtick_1">
     <g id="line2d_1">
      <defs>
       <path d="M 0 0 
L 0 3.5 
" id="ma3e80dce97" style="stroke:#000000;stroke-width:0.8;"/>
      </defs>
      <g>
       <use style="stroke:#000000;stroke-width:0.8;" x="52.288636" xlink:href="#ma3e80dce97" y="582.9575"/>
      </g>
     </g>
     <g id="text_1">
      <!-- 0 -->
      <g transform="translate(49.107386 597.555938)scale(0.1 -0.1)">
       <defs>
        <path d="M 31.78125 66.40625 
Q 24.171875 66.40625 20.328125 58.90625 
Q 16.5 51.421875 16.5 36.375 
Q 16.5 21.390625 20.328125 13.890625 
Q 24.171875 6.390625 31.78125 6.390625 
Q 39.453125 6.390625 43.28125 13.890625 
Q 47.125 21.390625 47.125 36.375 
Q 47.125 51.421875 43.28125 58.90625 
Q 39.453125 66.40625 31.78125 66.40625 
z
M 31.78125 74.21875 
Q 44.046875 74.21875 50.515625 64.515625 
Q 56.984375 54.828125 56.984375 36.375 
Q 56.984375 17.96875 50.515625 8.265625 
Q 44.046875 -1.421875 31.78125 -1.421875 
Q 19.53125 -1.421875 13.0625 8.265625 
Q 6.59375 17.96875 6.59375 36.375 
Q 6.59375 54.828125 13.0625 64.515625 
Q 19.53125 74.21875 31.78125 74.21875 
z
" id="DejaVuSans-48"/>
       </defs>
       <use xlink:href="#DejaVuSans-48"/>
      </g>
     </g>
    </g>
    <g id="xtick_2">
     <g id="line2d_2">
      <g>
       <use style="stroke:#000000;stroke-width:0.8;" x="136.834091" xlink:href="#ma3e80dce97" y="582.9575"/>
      </g>
     </g>
     <g id="text_2">
      <!-- 100 -->
      <g transform="translate(127.290341 597.555938)scale(0.1 -0.1)">
       <defs>
        <path d="M 12.40625 8.296875 
L 28.515625 8.296875 
L 28.515625 63.921875 
L 10.984375 60.40625 
L 10.984375 69.390625 
L 28.421875 72.90625 
L 38.28125 72.90625 
L 38.28125 8.296875 
L 54.390625 8.296875 
L 54.390625 0 
L 12.40625 0 
z
" id="DejaVuSans-49"/>
       </defs>
       <use xlink:href="#DejaVuSans-49"/>
       <use x="63.623047" xlink:href="#DejaVuSans-48"/>
       <use x="127.246094" xlink:href="#DejaVuSans-48"/>
      </g>
     </g>
    </g>
    <g id="xtick_3">
     <g id="line2d_3">
      <g>
       <use style="stroke:#000000;stroke-width:0.8;" x="221.379545" xlink:href="#ma3e80dce97" y="582.9575"/>
      </g>
     </g>
     <g id="text_3">
      <!-- 200 -->
      <g transform="translate(211.835795 597.555938)scale(0.1 -0.1)">
       <defs>
        <path d="M 19.1875 8.296875 
L 53.609375 8.296875 
L 53.609375 0 
L 7.328125 0 
L 7.328125 8.296875 
Q 12.9375 14.109375 22.625 23.890625 
Q 32.328125 33.6875 34.8125 36.53125 
Q 39.546875 41.84375 41.421875 45.53125 
Q 43.3125 49.21875 43.3125 52.78125 
Q 43.3125 58.59375 39.234375 62.25 
Q 35.15625 65.921875 28.609375 65.921875 
Q 23.96875 65.921875 18.8125 64.3125 
Q 13.671875 62.703125 7.8125 59.421875 
L 7.8125 69.390625 
Q 13.765625 71.78125 18.9375 73 
Q 24.125 74.21875 28.421875 74.21875 
Q 39.75 74.21875 46.484375 68.546875 
Q 53.21875 62.890625 53.21875 53.421875 
Q 53.21875 48.921875 51.53125 44.890625 
Q 49.859375 40.875 45.40625 35.40625 
Q 44.1875 33.984375 37.640625 27.21875 
Q 31.109375 20.453125 19.1875 8.296875 
z
" id="DejaVuSans-50"/>
       </defs>
       <use xlink:href="#DejaVuSans-50"/>
       <use x="63.623047" xlink:href="#DejaVuSans-48"/>
       <use x="127.246094" xlink:href="#DejaVuSans-48"/>
      </g>
     </g>
    </g>
    <g id="xtick_4">
     <g id="line2d_4">
      <g>
       <use style="stroke:#000000;stroke-width:0.8;" x="305.925" xlink:href="#ma3e80dce97" y="582.9575"/>
      </g>
     </g>
     <g id="text_4">
      <!-- 300 -->
      <g transform="translate(296.38125 597.555938)scale(0.1 -0.1)">
       <defs>
        <path d="M 40.578125 39.3125 
Q 47.65625 37.796875 51.625 33 
Q 55.609375 28.21875 55.609375 21.1875 
Q 55.609375 10.40625 48.1875 4.484375 
Q 40.765625 -1.421875 27.09375 -1.421875 
Q 22.515625 -1.421875 17.65625 -0.515625 
Q 12.796875 0.390625 7.625 2.203125 
L 7.625 11.71875 
Q 11.71875 9.328125 16.59375 8.109375 
Q 21.484375 6.890625 26.8125 6.890625 
Q 36.078125 6.890625 40.9375 10.546875 
Q 45.796875 14.203125 45.796875 21.1875 
Q 45.796875 27.640625 41.28125 31.265625 
Q 36.765625 34.90625 28.71875 34.90625 
L 20.21875 34.90625 
L 20.21875 43.015625 
L 29.109375 43.015625 
Q 36.375 43.015625 40.234375 45.921875 
Q 44.09375 48.828125 44.09375 54.296875 
Q 44.09375 59.90625 40.109375 62.90625 
Q 36.140625 65.921875 28.71875 65.921875 
Q 24.65625 65.921875 20.015625 65.03125 
Q 15.375 64.15625 9.8125 62.3125 
L 9.8125 71.09375 
Q 15.4375 72.65625 20.34375 73.4375 
Q 25.25 74.21875 29.59375 74.21875 
Q 40.828125 74.21875 47.359375 69.109375 
Q 53.90625 64.015625 53.90625 55.328125 
Q 53.90625 49.265625 50.4375 45.09375 
Q 46.96875 40.921875 40.578125 39.3125 
z
" id="DejaVuSans-51"/>
       </defs>
       <use xlink:href="#DejaVuSans-51"/>
       <use x="63.623047" xlink:href="#DejaVuSans-48"/>
       <use x="127.246094" xlink:href="#DejaVuSans-48"/>
      </g>
     </g>
    </g>
    <g id="xtick_5">
     <g id="line2d_5">
      <g>
       <use style="stroke:#000000;stroke-width:0.8;" x="390.470455" xlink:href="#ma3e80dce97" y="582.9575"/>
      </g>
     </g>
     <g id="text_5">
      <!-- 400 -->
      <g transform="translate(380.926705 597.555938)scale(0.1 -0.1)">
       <defs>
        <path d="M 37.796875 64.3125 
L 12.890625 25.390625 
L 37.796875 25.390625 
z
M 35.203125 72.90625 
L 47.609375 72.90625 
L 47.609375 25.390625 
L 58.015625 25.390625 
L 58.015625 17.1875 
L 47.609375 17.1875 
L 47.609375 0 
L 37.796875 0 
L 37.796875 17.1875 
L 4.890625 17.1875 
L 4.890625 26.703125 
z
" id="DejaVuSans-52"/>
       </defs>
       <use xlink:href="#DejaVuSans-52"/>
       <use x="63.623047" xlink:href="#DejaVuSans-48"/>
       <use x="127.246094" xlink:href="#DejaVuSans-48"/>
      </g>
     </g>
    </g>
    <g id="xtick_6">
     <g id="line2d_6">
      <g>
       <use style="stroke:#000000;stroke-width:0.8;" x="475.015909" xlink:href="#ma3e80dce97" y="582.9575"/>
      </g>
     </g>
     <g id="text_6">
      <!-- 500 -->
      <g transform="translate(465.472159 597.555938)scale(0.1 -0.1)">
       <defs>
        <path d="M 10.796875 72.90625 
L 49.515625 72.90625 
L 49.515625 64.59375 
L 19.828125 64.59375 
L 19.828125 46.734375 
Q 21.96875 47.46875 24.109375 47.828125 
Q 26.265625 48.1875 28.421875 48.1875 
Q 40.625 48.1875 47.75 41.5 
Q 54.890625 34.8125 54.890625 23.390625 
Q 54.890625 11.625 47.5625 5.09375 
Q 40.234375 -1.421875 26.90625 -1.421875 
Q 22.3125 -1.421875 17.546875 -0.640625 
Q 12.796875 0.140625 7.71875 1.703125 
L 7.71875 11.625 
Q 12.109375 9.234375 16.796875 8.0625 
Q 21.484375 6.890625 26.703125 6.890625 
Q 35.15625 6.890625 40.078125 11.328125 
Q 45.015625 15.765625 45.015625 23.390625 
Q 45.015625 31 40.078125 35.4375 
Q 35.15625 39.890625 26.703125 39.890625 
Q 22.75 39.890625 18.8125 39.015625 
Q 14.890625 38.140625 10.796875 36.28125 
z
" id="DejaVuSans-53"/>
       </defs>
       <use xlink:href="#DejaVuSans-53"/>
       <use x="63.623047" xlink:href="#DejaVuSans-48"/>
       <use x="127.246094" xlink:href="#DejaVuSans-48"/>
      </g>
     </g>
    </g>
    <g id="xtick_7">
     <g id="line2d_7">
      <g>
       <use style="stroke:#000000;stroke-width:0.8;" x="559.561364" xlink:href="#ma3e80dce97" y="582.9575"/>
      </g>
     </g>
     <g id="text_7">
      <!-- 600 -->
      <g transform="translate(550.017614 597.555938)scale(0.1 -0.1)">
       <defs>
        <path d="M 33.015625 40.375 
Q 26.375 40.375 22.484375 35.828125 
Q 18.609375 31.296875 18.609375 23.390625 
Q 18.609375 15.53125 22.484375 10.953125 
Q 26.375 6.390625 33.015625 6.390625 
Q 39.65625 6.390625 43.53125 10.953125 
Q 47.40625 15.53125 47.40625 23.390625 
Q 47.40625 31.296875 43.53125 35.828125 
Q 39.65625 40.375 33.015625 40.375 
z
M 52.59375 71.296875 
L 52.59375 62.3125 
Q 48.875 64.0625 45.09375 64.984375 
Q 41.3125 65.921875 37.59375 65.921875 
Q 27.828125 65.921875 22.671875 59.328125 
Q 17.53125 52.734375 16.796875 39.40625 
Q 19.671875 43.65625 24.015625 45.921875 
Q 28.375 48.1875 33.59375 48.1875 
Q 44.578125 48.1875 50.953125 41.515625 
Q 57.328125 34.859375 57.328125 23.390625 
Q 57.328125 12.15625 50.6875 5.359375 
Q 44.046875 -1.421875 33.015625 -1.421875 
Q 20.359375 -1.421875 13.671875 8.265625 
Q 6.984375 17.96875 6.984375 36.375 
Q 6.984375 53.65625 15.1875 63.9375 
Q 23.390625 74.21875 37.203125 74.21875 
Q 40.921875 74.21875 44.703125 73.484375 
Q 48.484375 72.75 52.59375 71.296875 
z
" id="DejaVuSans-54"/>
       </defs>
       <use xlink:href="#DejaVuSans-54"/>
       <use x="63.623047" xlink:href="#DejaVuSans-48"/>
       <use x="127.246094" xlink:href="#DejaVuSans-48"/>
      </g>
     </g>
    </g>
    <g id="text_8">
     <!-- Epochs -->
     <g transform="translate(288.009375 611.234063)scale(0.1 -0.1)">
      <defs>
       <path d="M 9.8125 72.90625 
L 55.90625 72.90625 
L 55.90625 64.59375 
L 19.671875 64.59375 
L 19.671875 43.015625 
L 54.390625 43.015625 
L 54.390625 34.71875 
L 19.671875 34.71875 
L 19.671875 8.296875 
L 56.78125 8.296875 
L 56.78125 0 
L 9.8125 0 
z
" id="DejaVuSans-69"/>
       <path d="M 18.109375 8.203125 
L 18.109375 -20.796875 
L 9.078125 -20.796875 
L 9.078125 54.6875 
L 18.109375 54.6875 
L 18.109375 46.390625 
Q 20.953125 51.265625 25.265625 53.625 
Q 29.59375 56 35.59375 56 
Q 45.5625 56 51.78125 48.09375 
Q 58.015625 40.1875 58.015625 27.296875 
Q 58.015625 14.40625 51.78125 6.484375 
Q 45.5625 -1.421875 35.59375 -1.421875 
Q 29.59375 -1.421875 25.265625 0.953125 
Q 20.953125 3.328125 18.109375 8.203125 
z
M 48.6875 27.296875 
Q 48.6875 37.203125 44.609375 42.84375 
Q 40.53125 48.484375 33.40625 48.484375 
Q 26.265625 48.484375 22.1875 42.84375 
Q 18.109375 37.203125 18.109375 27.296875 
Q 18.109375 17.390625 22.1875 11.75 
Q 26.265625 6.109375 33.40625 6.109375 
Q 40.53125 6.109375 44.609375 11.75 
Q 48.6875 17.390625 48.6875 27.296875 
z
" id="DejaVuSans-112"/>
       <path d="M 30.609375 48.390625 
Q 23.390625 48.390625 19.1875 42.75 
Q 14.984375 37.109375 14.984375 27.296875 
Q 14.984375 17.484375 19.15625 11.84375 
Q 23.34375 6.203125 30.609375 6.203125 
Q 37.796875 6.203125 41.984375 11.859375 
Q 46.1875 17.53125 46.1875 27.296875 
Q 46.1875 37.015625 41.984375 42.703125 
Q 37.796875 48.390625 30.609375 48.390625 
z
M 30.609375 56 
Q 42.328125 56 49.015625 48.375 
Q 55.71875 40.765625 55.71875 27.296875 
Q 55.71875 13.875 49.015625 6.21875 
Q 42.328125 -1.421875 30.609375 -1.421875 
Q 18.84375 -1.421875 12.171875 6.21875 
Q 5.515625 13.875 5.515625 27.296875 
Q 5.515625 40.765625 12.171875 48.375 
Q 18.84375 56 30.609375 56 
z
" id="DejaVuSans-111"/>
       <path d="M 48.78125 52.59375 
L 48.78125 44.1875 
Q 44.96875 46.296875 41.140625 47.34375 
Q 37.3125 48.390625 33.40625 48.390625 
Q 24.65625 48.390625 19.8125 42.84375 
Q 14.984375 37.3125 14.984375 27.296875 
Q 14.984375 17.28125 19.8125 11.734375 
Q 24.65625 6.203125 33.40625 6.203125 
Q 37.3125 6.203125 41.140625 7.25 
Q 44.96875 8.296875 48.78125 10.40625 
L 48.78125 2.09375 
Q 45.015625 0.34375 40.984375 -0.53125 
Q 36.96875 -1.421875 32.421875 -1.421875 
Q 20.0625 -1.421875 12.78125 6.34375 
Q 5.515625 14.109375 5.515625 27.296875 
Q 5.515625 40.671875 12.859375 48.328125 
Q 20.21875 56 33.015625 56 
Q 37.15625 56 41.109375 55.140625 
Q 45.0625 54.296875 48.78125 52.59375 
z
" id="DejaVuSans-99"/>
       <path d="M 54.890625 33.015625 
L 54.890625 0 
L 45.90625 0 
L 45.90625 32.71875 
Q 45.90625 40.484375 42.875 44.328125 
Q 39.84375 48.1875 33.796875 48.1875 
Q 26.515625 48.1875 22.3125 43.546875 
Q 18.109375 38.921875 18.109375 30.90625 
L 18.109375 0 
L 9.078125 0 
L 9.078125 75.984375 
L 18.109375 75.984375 
L 18.109375 46.1875 
Q 21.34375 51.125 25.703125 53.5625 
Q 30.078125 56 35.796875 56 
Q 45.21875 56 50.046875 50.171875 
Q 54.890625 44.34375 54.890625 33.015625 
z
" id="DejaVuSans-104"/>
       <path d="M 44.28125 53.078125 
L 44.28125 44.578125 
Q 40.484375 46.53125 36.375 47.5 
Q 32.28125 48.484375 27.875 48.484375 
Q 21.1875 48.484375 17.84375 46.4375 
Q 14.5 44.390625 14.5 40.28125 
Q 14.5 37.15625 16.890625 35.375 
Q 19.28125 33.59375 26.515625 31.984375 
L 29.59375 31.296875 
Q 39.15625 29.25 43.1875 25.515625 
Q 47.21875 21.78125 47.21875 15.09375 
Q 47.21875 7.46875 41.1875 3.015625 
Q 35.15625 -1.421875 24.609375 -1.421875 
Q 20.21875 -1.421875 15.453125 -0.5625 
Q 10.6875 0.296875 5.421875 2 
L 5.421875 11.28125 
Q 10.40625 8.6875 15.234375 7.390625 
Q 20.0625 6.109375 24.8125 6.109375 
Q 31.15625 6.109375 34.5625 8.28125 
Q 37.984375 10.453125 37.984375 14.40625 
Q 37.984375 18.0625 35.515625 20.015625 
Q 33.0625 21.96875 24.703125 23.78125 
L 21.578125 24.515625 
Q 13.234375 26.265625 9.515625 29.90625 
Q 5.8125 33.546875 5.8125 39.890625 
Q 5.8125 47.609375 11.28125 51.796875 
Q 16.75 56 26.8125 56 
Q 31.78125 56 36.171875 55.265625 
Q 40.578125 54.546875 44.28125 53.078125 
z
" id="DejaVuSans-115"/>
      </defs>
      <use xlink:href="#DejaVuSans-69"/>
      <use x="63.183594" xlink:href="#DejaVuSans-112"/>
      <use x="126.660156" xlink:href="#DejaVuSans-111"/>
      <use x="187.841797" xlink:href="#DejaVuSans-99"/>
      <use x="242.822266" xlink:href="#DejaVuSans-104"/>
      <use x="306.201172" xlink:href="#DejaVuSans-115"/>
     </g>
    </g>
   </g>
   <g id="matplotlib.axis_2">
    <g id="ytick_1">
     <g id="line2d_8">
      <defs>
       <path d="M 0 0 
L -3.5 0 
" id="m79e14d0e68" style="stroke:#000000;stroke-width:0.8;"/>
      </defs>
      <g>
       <use style="stroke:#000000;stroke-width:0.8;" x="26.925" xlink:href="#m79e14d0e68" y="564.354932"/>
      </g>
     </g>
     <g id="text_9">
      <!-- 0 -->
      <g transform="translate(13.5625 568.154151)scale(0.1 -0.1)">
       <use xlink:href="#DejaVuSans-48"/>
      </g>
     </g>
    </g>
    <g id="ytick_2">
     <g id="line2d_9">
      <g>
       <use style="stroke:#000000;stroke-width:0.8;" x="26.925" xlink:href="#m79e14d0e68" y="500.785017"/>
      </g>
     </g>
     <g id="text_10">
      <!-- 10 -->
      <g transform="translate(7.2 504.584236)scale(0.1 -0.1)">
       <use xlink:href="#DejaVuSans-49"/>
       <use x="63.623047" xlink:href="#DejaVuSans-48"/>
      </g>
     </g>
    </g>
    <g id="ytick_3">
     <g id="line2d_10">
      <g>
       <use style="stroke:#000000;stroke-width:0.8;" x="26.925" xlink:href="#m79e14d0e68" y="437.215102"/>
      </g>
     </g>
     <g id="text_11">
      <!-- 20 -->
      <g transform="translate(7.2 441.01432)scale(0.1 -0.1)">
       <use xlink:href="#DejaVuSans-50"/>
       <use x="63.623047" xlink:href="#DejaVuSans-48"/>
      </g>
     </g>
    </g>
    <g id="ytick_4">
     <g id="line2d_11">
      <g>
       <use style="stroke:#000000;stroke-width:0.8;" x="26.925" xlink:href="#m79e14d0e68" y="373.645186"/>
      </g>
     </g>
     <g id="text_12">
      <!-- 30 -->
      <g transform="translate(7.2 377.444405)scale(0.1 -0.1)">
       <use xlink:href="#DejaVuSans-51"/>
       <use x="63.623047" xlink:href="#DejaVuSans-48"/>
      </g>
     </g>
    </g>
    <g id="ytick_5">
     <g id="line2d_12">
      <g>
       <use style="stroke:#000000;stroke-width:0.8;" x="26.925" xlink:href="#m79e14d0e68" y="310.075271"/>
      </g>
     </g>
     <g id="text_13">
      <!-- 40 -->
      <g transform="translate(7.2 313.87449)scale(0.1 -0.1)">
       <use xlink:href="#DejaVuSans-52"/>
       <use x="63.623047" xlink:href="#DejaVuSans-48"/>
      </g>
     </g>
    </g>
    <g id="ytick_6">
     <g id="line2d_13">
      <g>
       <use style="stroke:#000000;stroke-width:0.8;" x="26.925" xlink:href="#m79e14d0e68" y="246.505356"/>
      </g>
     </g>
     <g id="text_14">
      <!-- 50 -->
      <g transform="translate(7.2 250.304575)scale(0.1 -0.1)">
       <use xlink:href="#DejaVuSans-53"/>
       <use x="63.623047" xlink:href="#DejaVuSans-48"/>
      </g>
     </g>
    </g>
    <g id="ytick_7">
     <g id="line2d_14">
      <g>
       <use style="stroke:#000000;stroke-width:0.8;" x="26.925" xlink:href="#m79e14d0e68" y="182.935441"/>
      </g>
     </g>
     <g id="text_15">
      <!-- 60 -->
      <g transform="translate(7.2 186.73466)scale(0.1 -0.1)">
       <use xlink:href="#DejaVuSans-54"/>
       <use x="63.623047" xlink:href="#DejaVuSans-48"/>
      </g>
     </g>
    </g>
    <g id="ytick_8">
     <g id="line2d_15">
      <g>
       <use style="stroke:#000000;stroke-width:0.8;" x="26.925" xlink:href="#m79e14d0e68" y="119.365526"/>
      </g>
     </g>
     <g id="text_16">
      <!-- 70 -->
      <g transform="translate(7.2 123.164744)scale(0.1 -0.1)">
       <defs>
        <path d="M 8.203125 72.90625 
L 55.078125 72.90625 
L 55.078125 68.703125 
L 28.609375 0 
L 18.3125 0 
L 43.21875 64.59375 
L 8.203125 64.59375 
z
" id="DejaVuSans-55"/>
       </defs>
       <use xlink:href="#DejaVuSans-55"/>
       <use x="63.623047" xlink:href="#DejaVuSans-48"/>
      </g>
     </g>
    </g>
    <g id="ytick_9">
     <g id="line2d_16">
      <g>
       <use style="stroke:#000000;stroke-width:0.8;" x="26.925" xlink:href="#m79e14d0e68" y="55.79561"/>
      </g>
     </g>
     <g id="text_17">
      <!-- 80 -->
      <g transform="translate(7.2 59.594829)scale(0.1 -0.1)">
       <defs>
        <path d="M 31.78125 34.625 
Q 24.75 34.625 20.71875 30.859375 
Q 16.703125 27.09375 16.703125 20.515625 
Q 16.703125 13.921875 20.71875 10.15625 
Q 24.75 6.390625 31.78125 6.390625 
Q 38.8125 6.390625 42.859375 10.171875 
Q 46.921875 13.96875 46.921875 20.515625 
Q 46.921875 27.09375 42.890625 30.859375 
Q 38.875 34.625 31.78125 34.625 
z
M 21.921875 38.8125 
Q 15.578125 40.375 12.03125 44.71875 
Q 8.5 49.078125 8.5 55.328125 
Q 8.5 64.0625 14.71875 69.140625 
Q 20.953125 74.21875 31.78125 74.21875 
Q 42.671875 74.21875 48.875 69.140625 
Q 55.078125 64.0625 55.078125 55.328125 
Q 55.078125 49.078125 51.53125 44.71875 
Q 48 40.375 41.703125 38.8125 
Q 48.828125 37.15625 52.796875 32.3125 
Q 56.78125 27.484375 56.78125 20.515625 
Q 56.78125 9.90625 50.3125 4.234375 
Q 43.84375 -1.421875 31.78125 -1.421875 
Q 19.734375 -1.421875 13.25 4.234375 
Q 6.78125 9.90625 6.78125 20.515625 
Q 6.78125 27.484375 10.78125 32.3125 
Q 14.796875 37.15625 21.921875 38.8125 
z
M 18.3125 54.390625 
Q 18.3125 48.734375 21.84375 45.5625 
Q 25.390625 42.390625 31.78125 42.390625 
Q 38.140625 42.390625 41.71875 45.5625 
Q 45.3125 48.734375 45.3125 54.390625 
Q 45.3125 60.0625 41.71875 63.234375 
Q 38.140625 66.40625 31.78125 66.40625 
Q 25.390625 66.40625 21.84375 63.234375 
Q 18.3125 60.0625 18.3125 54.390625 
z
" id="DejaVuSans-56"/>
       </defs>
       <use xlink:href="#DejaVuSans-56"/>
       <use x="63.623047" xlink:href="#DejaVuSans-48"/>
      </g>
     </g>
    </g>
   </g>
   <g id="line2d_17">
    <path clip-path="url(#p3f525d790b)" d="M 52.288636 557.997942 
L 53.134091 558.035031 
L 53.979545 557.931243 
L 55.670455 557.325526 
L 57.361364 556.440242 
L 59.052273 555.206017 
L 60.743182 553.632253 
L 62.434091 551.609759 
L 64.125 548.958283 
L 65.815909 545.486219 
L 67.506818 541.013231 
L 69.197727 535.256065 
L 70.888636 527.957063 
L 72.579545 518.76962 
L 74.270455 507.367033 
L 75.961364 493.427249 
L 77.652273 476.641812 
L 79.343182 457.309366 
L 81.034091 435.427332 
L 82.725 410.629608 
L 85.261364 368.69446 
L 86.952273 336.952212 
L 89.488636 283.216151 
L 92.025 243.717856 
L 94.561364 214.417432 
L 96.252273 200.914041 
L 97.097727 194.628372 
L 97.943182 189.986355 
L 100.479545 179.936618 
L 102.170455 176.327141 
L 103.015909 174.669119 
L 103.861364 174.296668 
L 104.706818 174.399381 
L 105.552273 174.007409 
L 106.397727 173.993504 
L 107.243182 174.716553 
L 108.934091 175.732824 
L 110.625 178.026287 
L 112.315909 179.053304 
L 113.161364 179.691005 
L 114.006818 179.841684 
L 114.852273 179.798191 
L 115.697727 180.04682 
L 116.543182 180.063952 
L 119.079545 178.779689 
L 120.770455 177.235217 
L 121.615909 176.6473 
L 122.461364 175.767395 
L 126.688636 169.786681 
L 127.534091 168.5126 
L 129.225 165.566626 
L 130.070455 164.179135 
L 131.761364 161.046579 
L 133.452273 157.886096 
L 135.143182 154.71479 
L 136.834091 151.355589 
L 141.061364 142.851756 
L 142.752273 139.180099 
L 144.443182 135.310341 
L 153.743182 112.83685 
L 157.125 105.148944 
L 157.970455 104.368717 
L 158.815909 101.922472 
L 159.661364 102.23724 
L 160.506818 100.542813 
L 162.197727 100.782673 
L 163.043182 99.706394 
L 163.888636 100.333675 
L 164.734091 100.197844 
L 165.579545 99.594853 
L 166.425 100.485185 
L 167.270455 100.497574 
L 168.115909 100.169887 
L 168.961364 100.918623 
L 169.806818 100.897605 
L 170.652273 100.730351 
L 171.497727 101.450289 
L 172.343182 101.464311 
L 173.188636 101.340416 
L 174.034091 101.931164 
L 175.725 101.793416 
L 176.570455 102.38034 
L 178.261364 102.26427 
L 179.106818 102.736651 
L 180.797727 102.722554 
L 181.643182 103.192063 
L 183.334091 103.232423 
L 184.179545 103.667991 
L 185.025 103.703234 
L 185.870455 103.867382 
L 186.715909 104.336058 
L 187.561364 104.401348 
L 188.406818 104.63453 
L 189.252273 105.115225 
L 190.097727 105.269404 
L 190.943182 105.616725 
L 191.788636 106.086345 
L 192.634091 106.277135 
L 194.325 107.191149 
L 195.170455 107.442865 
L 196.861364 108.356572 
L 197.706818 108.635303 
L 199.397727 109.542807 
L 200.243182 109.842207 
L 201.088636 110.314485 
L 206.161364 112.219868 
L 207.852273 112.630781 
L 208.697727 112.849077 
L 210.388636 113.134531 
L 212.925 113.455805 
L 217.997727 113.60777 
L 228.988636 112.806497 
L 236.597727 111.942922 
L 242.515909 111.209166 
L 250.125 110.289466 
L 255.197727 109.873015 
L 273.797727 108.788708 
L 286.479545 107.186232 
L 295.779545 105.913244 
L 296.625 105.742613 
L 297.470455 105.703681 
L 298.315909 105.484439 
L 299.161364 105.535727 
L 300.006818 105.198238 
L 300.852273 105.45184 
L 301.697727 104.870202 
L 302.543182 105.552715 
L 303.388636 104.590933 
L 304.234091 106.009511 
L 305.079545 104.933811 
L 305.925 106.600022 
L 306.770455 106.452367 
L 307.615909 106.757784 
L 308.461364 107.745336 
L 309.306818 107.077155 
L 310.152273 108.072495 
L 310.997727 108.123984 
L 311.843182 107.718594 
L 312.688636 108.492355 
L 313.534091 107.890027 
L 314.379545 107.821005 
L 315.225 108.078388 
L 316.070455 107.25156 
L 316.915909 107.358007 
L 317.761364 107.07771 
L 318.606818 106.330098 
L 319.452273 106.469949 
L 321.143182 105.356882 
L 321.988636 105.35997 
L 322.834091 104.6143 
L 324.525 104.274206 
L 325.370455 103.638693 
L 326.215909 103.676369 
L 327.906818 103.006671 
L 328.752273 103.10543 
L 329.597727 102.709678 
L 331.288636 102.678993 
L 332.134091 102.355877 
L 332.979545 102.49213 
L 334.670455 102.224615 
L 335.515909 102.381241 
L 336.361364 102.179589 
L 338.052273 102.227481 
L 338.897727 102.036647 
L 339.743182 102.136969 
L 341.434091 101.916702 
L 342.279545 101.97146 
L 343.125 101.774043 
L 344.815909 101.696184 
L 345.661364 101.515609 
L 346.506818 101.521651 
L 348.197727 101.251814 
L 349.043182 101.195789 
L 349.888636 100.998785 
L 351.579545 100.813062 
L 354.961364 100.336037 
L 364.261364 98.850218 
L 367.643182 98.27451 
L 396.388636 93.51649 
L 404.843182 91.999941 
L 423.443182 88.796541 
L 430.206818 87.428974 
L 431.052273 87.179165 
L 431.897727 87.065845 
L 432.743182 86.768732 
L 433.588636 86.717202 
L 434.434091 86.339257 
L 435.279545 86.398357 
L 436.125 85.880781 
L 436.970455 86.154156 
L 437.815909 85.433582 
L 438.661364 86.05409 
L 439.506818 85.098747 
L 440.352273 86.163572 
L 441.197727 85.18633 
L 442.043182 86.34633 
L 442.888636 85.853868 
L 443.734091 86.283522 
L 444.579545 86.438795 
L 445.425 85.943965 
L 446.270455 86.503296 
L 447.115909 85.776398 
L 447.961364 85.975736 
L 448.806818 85.703444 
L 449.652273 85.093716 
L 450.497727 85.171338 
L 451.343182 84.371439 
L 452.188636 84.20111 
L 453.034091 83.719261 
L 453.879545 83.026733 
L 454.725 82.887667 
L 455.570455 82.078683 
L 456.415909 81.782244 
L 457.261364 81.343599 
L 458.106818 80.699439 
L 458.952273 80.558619 
L 459.797727 79.940778 
L 461.488636 79.408615 
L 462.334091 78.987248 
L 463.179545 78.949846 
L 464.025 78.524836 
L 465.715909 78.295657 
L 466.561364 78.051763 
L 467.406818 78.088429 
L 468.252273 77.825246 
L 469.097727 77.834509 
L 470.788636 77.582799 
L 471.634091 77.609838 
L 472.479545 77.388608 
L 473.325 77.4038 
L 476.706818 76.899711 
L 477.552273 76.866428 
L 479.243182 76.569772 
L 481.779545 76.205759 
L 483.470455 75.900694 
L 538.425 67.002922 
L 553.643182 64.817242 
L 554.488636 64.857148 
L 555.334091 64.568371 
L 556.179545 64.700453 
L 557.025 64.326239 
L 557.870455 64.594728 
L 558.715909 64.066591 
L 559.561364 64.566804 
L 559.561364 64.566804 
" style="fill:none;stroke:#1f77b4;stroke-linecap:square;stroke-width:2;"/>
   </g>
   <g id="line2d_18">
    <path clip-path="url(#p3f525d790b)" d="M 52.288636 557.997941 
L 53.134091 558.248409 
L 54.825 557.891485 
L 58.206818 556.9218 
L 61.588636 555.753403 
L 64.970455 554.356345 
L 68.352273 552.689266 
L 70.888636 551.232465 
L 73.425 549.575239 
L 75.961364 547.696399 
L 78.497727 545.574127 
L 81.034091 543.184549 
L 83.570455 540.502507 
L 86.106818 537.503679 
L 88.643182 534.164774 
L 91.179545 530.462299 
L 93.715909 526.372541 
L 96.252273 521.872362 
L 98.788636 516.940038 
L 101.325 511.557032 
L 103.861364 505.711597 
L 106.397727 499.379351 
L 108.934091 492.520413 
L 111.470455 485.11149 
L 114.006818 477.13237 
L 116.543182 468.569036 
L 119.925 456.242998 
L 123.306818 442.892102 
L 130.070455 414.602211 
L 135.143182 392.173119 
L 141.061364 364.726006 
L 156.279545 293.251904 
L 163.043182 264.864485 
L 167.270455 247.864976 
L 169.806818 238.334498 
L 172.343182 229.913635 
L 174.879545 222.308034 
L 177.415909 215.351392 
L 182.488636 201.594447 
L 186.715909 189.22386 
L 190.097727 179.615007 
L 192.634091 173.091981 
L 196.861364 163.246152 
L 199.397727 157.743193 
L 201.088636 154.490477 
L 202.779545 151.760454 
L 204.470455 149.555306 
L 207.852273 145.755662 
L 211.234091 142.155264 
L 212.925 140.624846 
L 215.461364 138.727264 
L 219.688636 135.910804 
L 221.379545 134.966838 
L 223.915909 133.826124 
L 228.143182 132.179264 
L 229.834091 131.688452 
L 232.370455 131.227415 
L 237.443182 130.645996 
L 239.979545 130.558775 
L 247.588636 130.666719 
L 252.661364 130.796513 
L 266.188636 130.776226 
L 285.634091 130.569571 
L 298.315909 130.76011 
L 306.770455 131.09326 
L 315.225 131.6284 
L 323.679545 132.36913 
L 336.361364 133.507154 
L 348.197727 134.215399 
L 366.797727 134.932234 
L 370.179545 135.096201 
L 375.252273 135.36062 
L 379.479545 135.568985 
L 384.552273 135.844168 
L 394.697727 136.226265 
L 398.079545 136.369628 
L 400.615909 136.359939 
L 404.843182 136.131763 
L 405.688636 137.206855 
L 406.534091 144.055669 
L 407.379545 149.832597 
L 408.225 157.464735 
L 409.070455 163.531336 
L 410.761364 172.314305 
L 411.606818 175.913712 
L 412.452273 178.768942 
L 413.297727 180.844405 
L 414.143182 182.210558 
L 414.988636 182.904812 
L 415.834091 182.926116 
L 416.679545 182.240791 
L 417.525 180.878918 
L 419.215909 177.053919 
L 420.061364 174.9104 
L 420.906818 172.45971 
L 421.752273 169.592209 
L 422.597727 166.208355 
L 423.443182 162.241762 
L 425.134091 152.403007 
L 429.361364 124.933966 
L 430.206818 120.410754 
L 431.052273 116.832155 
L 431.897727 114.109139 
L 432.743182 112.304075 
L 433.588636 111.190504 
L 436.125 109.28597 
L 436.970455 108.247839 
L 437.815909 106.835038 
L 441.197727 99.745834 
L 442.043182 98.425572 
L 442.888636 97.409384 
L 444.579545 96.10122 
L 445.425 95.463122 
L 446.270455 94.683527 
L 447.961364 92.644153 
L 450.497727 88.937989 
L 451.343182 87.939062 
L 452.188636 87.194941 
L 453.034091 86.689506 
L 453.879545 86.366207 
L 458.106818 85.260893 
L 460.643182 84.191099 
L 462.334091 83.722453 
L 466.561364 82.944141 
L 470.788636 81.65156 
L 472.479545 81.525699 
L 477.552273 81.684619 
L 480.088636 81.930798 
L 483.470455 82.385022 
L 488.543182 82.851222 
L 496.997727 84.297957 
L 501.225 84.991945 
L 515.597727 86.827814 
L 524.897727 87.721911 
L 548.570455 89.420532 
L 559.561364 90.25883 
L 559.561364 90.25883 
" style="fill:none;stroke:#ff7f0e;stroke-linecap:square;stroke-width:3;"/>
   </g>
   <g id="line2d_19">
    <path clip-path="url(#p3f525d790b)" d="M 52.288636 557.997941 
L 53.134091 558.248409 
L 54.825 557.891936 
L 59.052273 556.667847 
L 62.434091 555.477741 
L 65.815909 554.068103 
L 69.197727 552.391357 
L 71.734091 550.91783 
L 74.270455 549.227513 
L 76.806818 547.302996 
L 79.343182 545.114967 
L 81.879545 542.654794 
L 85.261364 539.250865 
L 86.952273 537.94386 
L 87.797727 537.50818 
L 88.643182 537.263488 
L 89.488636 537.165615 
L 90.334091 537.231178 
L 92.025 537.659464 
L 97.097727 539.444802 
L 98.788636 539.720995 
L 100.479545 539.756415 
L 102.170455 539.559285 
L 104.706818 538.983601 
L 108.088636 538.139574 
L 110.625 537.786636 
L 113.161364 537.776666 
L 116.543182 538.103072 
L 119.925 538.388536 
L 122.461364 538.398211 
L 125.843182 538.166617 
L 131.761364 537.706207 
L 146.134091 537.058246 
L 152.897727 536.655922 
L 162.197727 536.123828 
L 178.261364 535.148999 
L 190.943182 534.441382 
L 195.170455 534.529879 
L 197.706818 534.343574 
L 204.470455 533.654876 
L 217.152273 533.082111 
L 223.070455 532.699772 
L 231.525 532.202535 
L 244.206818 531.368434 
L 277.179545 529.144915 
L 278.870455 529.42264 
L 280.561364 529.94961 
L 282.252273 530.130727 
L 283.097727 530.122048 
L 285.634091 529.645166 
L 288.170455 528.951858 
L 289.861364 528.624041 
L 291.552273 528.525845 
L 294.088636 528.682607 
L 297.470455 528.90655 
L 300.006818 528.779697 
L 307.615909 527.959382 
L 316.915909 527.593086 
L 322.834091 527.07845 
L 335.515909 526.287453 
L 353.270455 525.0634 
L 387.934091 522.586385 
L 417.525 520.515622 
L 418.370455 520.576438 
L 421.752273 521.342756 
L 423.443182 521.223667 
L 425.134091 520.861763 
L 427.670455 520.16019 
L 429.361364 519.887137 
L 431.052273 519.83346 
L 435.279545 520.159464 
L 436.970455 520.131541 
L 440.352273 519.699286 
L 443.734091 519.297377 
L 446.270455 519.202535 
L 450.497727 519.096724 
L 454.725 518.709576 
L 458.952273 518.360296 
L 468.252273 517.705128 
L 475.861364 517.142603 
L 486.006818 516.361838 
L 513.061364 514.258616 
L 520.670455 513.753061 
L 522.361364 513.77673 
L 524.052273 513.975696 
L 525.743182 514.204316 
L 526.588636 514.190917 
L 528.279545 513.894537 
L 530.815909 513.356834 
L 533.352273 512.981928 
L 535.043182 513.007785 
L 537.579545 513.168472 
L 540.115909 513.080595 
L 547.725 512.300117 
L 552.797727 512.114354 
L 559.561364 511.506443 
L 559.561364 511.506443 
" style="fill:none;stroke:#2ca02c;stroke-linecap:square;stroke-width:2;"/>
   </g>
   <g id="line2d_20">
    <path clip-path="url(#p3f525d790b)" d="M 52.288636 557.997941 
L 53.134091 558.248409 
L 54.825 557.891967 
L 58.206818 556.932473 
L 61.588636 555.788556 
L 64.970455 554.434099 
L 68.352273 552.827088 
L 70.888636 551.418199 
L 73.425 549.801782 
L 75.961364 547.954213 
L 78.497727 545.852577 
L 81.034091 543.465717 
L 84.415909 539.87177 
L 86.952273 537.171048 
L 88.643182 535.631647 
L 90.334091 534.526214 
L 92.025 533.848743 
L 93.715909 533.532814 
L 97.943182 533.094032 
L 99.634091 532.691129 
L 101.325 532.045522 
L 103.015909 531.168362 
L 105.552273 529.519287 
L 111.470455 525.411839 
L 114.006818 524.028707 
L 117.388636 522.55765 
L 121.615909 520.730609 
L 124.997727 518.956528 
L 135.143182 513.31117 
L 145.288636 508.280701 
L 150.361364 507.103961 
L 152.052273 506.458309 
L 154.588636 505.169011 
L 160.506818 501.886068 
L 163.043182 500.810733 
L 166.425 499.703433 
L 171.497727 498.033123 
L 174.879545 496.616647 
L 183.334091 492.913337 
L 195.170455 488.214925 
L 205.315909 483.939772 
L 215.461364 479.702315 
L 234.061364 471.880416 
L 235.752273 471.264448 
L 236.597727 471.033757 
L 238.288636 470.995536 
L 239.134091 471.098054 
L 239.979545 471.075716 
L 241.670455 470.746961 
L 242.515909 470.482318 
L 244.206818 469.648341 
L 246.743182 468.104871 
L 248.434091 467.0827 
L 250.125 466.170498 
L 251.815909 465.521853 
L 254.352273 464.869093 
L 257.734091 464.215071 
L 260.270455 463.491431 
L 262.806818 462.490195 
L 268.725 459.909979 
L 272.106818 458.741027 
L 278.025 456.80666 
L 283.943182 454.498177 
L 289.015909 452.627458 
L 299.161364 448.994719 
L 306.770455 446.229069 
L 311.843182 444.622018 
L 314.379545 444.187538 
L 316.915909 443.79618 
L 318.606818 443.170243 
L 324.525 440.458247 
L 326.215909 439.880266 
L 328.752273 439.345675 
L 331.288636 438.789996 
L 333.825 438.056614 
L 337.206818 436.794744 
L 341.434091 435.206921 
L 345.661364 433.962528 
L 349.888636 432.60196 
L 357.497727 430.014505 
L 360.034091 429.33741 
L 364.261364 428.394888 
L 365.952273 427.80589 
L 371.025 425.68933 
L 375.252273 424.593096 
L 378.634091 423.580011 
L 382.861364 422.0676 
L 387.934091 420.265693 
L 398.925 416.711123 
L 411.606818 412.528563 
L 426.825 407.422101 
L 442.888636 402.617153 
L 444.579545 402.179708 
L 446.270455 401.322124 
L 448.806818 399.77997 
L 450.497727 399.013461 
L 452.188636 398.631337 
L 455.570455 398.126464 
L 457.261364 397.556208 
L 463.179545 395.005648 
L 466.561364 393.689533 
L 469.943182 392.224902 
L 472.479545 391.413318 
L 477.552273 389.851934 
L 481.779545 388.627497 
L 486.852273 387.117199 
L 502.915909 382.218128 
L 512.215909 379.242076 
L 558.715909 365.097221 
L 559.561364 364.852883 
L 559.561364 364.852883 
" style="fill:none;stroke:#d62728;stroke-linecap:square;stroke-width:2;"/>
   </g>
   <g id="line2d_21">
    <path clip-path="url(#p3f525d790b)" d="M 52.288636 557.997941 
L 53.134091 558.248409 
L 54.825 557.890632 
L 58.206818 556.909071 
L 61.588636 555.732136 
L 64.970455 554.343818 
L 68.352273 552.701831 
L 70.888636 551.271537 
L 73.425 549.63669 
L 75.961364 547.769374 
L 78.497727 545.645577 
L 81.034091 543.23725 
L 83.570455 540.512533 
L 86.106818 537.43913 
L 88.643182 533.985853 
L 91.179545 530.120655 
L 93.715909 525.813821 
L 96.252273 521.051045 
L 99.634091 514.092312 
L 103.015909 506.532524 
L 107.243182 496.379458 
L 118.234091 469.449975 
L 124.152273 455.704276 
L 128.379545 446.356919 
L 132.606818 437.606425 
L 136.834091 429.427507 
L 141.906818 420.142438 
L 146.979545 411.263644 
L 150.361364 405.721256 
L 154.588636 399.254463 
L 160.506818 390.535193 
L 166.425 382.044599 
L 170.652273 375.579913 
L 172.343182 373.450373 
L 175.725 369.84171 
L 179.106818 366.025074 
L 182.488636 362.203939 
L 190.943182 353.433192 
L 193.479545 350.94428 
L 196.861364 347.972946 
L 206.161364 340.128472 
L 215.461364 332.793839 
L 223.070455 327.351308 
L 230.679545 322.309444 
L 236.597727 318.671333 
L 242.515909 315.248831 
L 250.125 311.153927 
L 256.888636 307.78294 
L 264.497727 304.260538 
L 268.725 302.440499 
L 281.406818 297.447704 
L 294.934091 292.75982 
L 296.625 292.068324 
L 297.470455 293.443222 
L 298.315909 296.679806 
L 299.161364 299.01279 
L 300.006818 302.135921 
L 300.852273 304.233174 
L 302.543182 306.883791 
L 303.388636 307.192003 
L 304.234091 306.823926 
L 305.079545 306.109903 
L 305.925 304.691704 
L 310.152273 295.686028 
L 310.997727 294.200922 
L 311.843182 293.493273 
L 312.688636 293.286251 
L 313.534091 293.384063 
L 315.225 294.118976 
L 316.915909 295.142463 
L 317.761364 295.386641 
L 318.606818 295.28072 
L 319.452273 294.827816 
L 320.297727 294.072545 
L 322.834091 291.468652 
L 324.525 290.239406 
L 325.370455 289.853484 
L 326.215909 289.630892 
L 327.061364 289.570802 
L 328.752273 289.82591 
L 330.443182 290.052467 
L 331.288636 289.976623 
L 332.134091 289.741439 
L 333.825 288.901898 
L 336.361364 287.456313 
L 338.052273 286.825669 
L 339.743182 286.516538 
L 344.815909 285.997617 
L 346.506818 285.562698 
L 350.734091 284.156064 
L 352.425 283.898261 
L 356.652273 283.52 
L 360.034091 282.818434 
L 364.261364 281.971629 
L 373.561364 280.549133 
L 376.943182 280.023449 
L 382.861364 279.205237 
L 393.852273 277.567421 
L 407.379545 275.639156 
L 421.752273 273.697133 
L 437.815909 271.725402 
L 453.034091 270.040321 
L 469.097727 268.493942 
L 487.697727 266.924885 
L 507.143182 265.511693 
L 530.815909 264.002473 
L 553.643182 262.765125 
L 559.561364 262.484364 
L 559.561364 262.484364 
" style="fill:none;stroke:#9467bd;stroke-linecap:square;stroke-width:2;"/>
   </g>
   <g id="line2d_22">
    <path clip-path="url(#p3f525d790b)" d="M 52.288636 557.997941 
L 53.134091 558.248409 
L 54.825 557.889889 
L 58.206818 556.894341 
L 61.588636 555.682584 
L 64.970455 554.249443 
L 68.352273 552.553389 
L 71.734091 550.547333 
L 74.270455 548.804587 
L 76.806818 546.825171 
L 79.343182 544.575968 
L 81.879545 542.022376 
L 84.415909 539.128942 
L 86.952273 535.858361 
L 89.488636 532.169031 
L 92.025 528.025072 
L 94.561364 523.405167 
L 97.097727 518.300531 
L 99.634091 512.693708 
L 102.170455 506.578854 
L 104.706818 499.908619 
L 107.243182 492.630782 
L 109.779545 484.723648 
L 112.315909 476.20687 
L 115.697727 464.069143 
L 119.925 447.971814 
L 129.225 412.186051 
L 133.452273 396.906468 
L 136.834091 385.461672 
L 140.215909 374.800909 
L 143.597727 364.931809 
L 146.979545 355.833095 
L 150.361364 347.500068 
L 153.743182 339.900025 
L 157.125 332.935069 
L 159.661364 328.161106 
L 162.197727 323.739319 
L 165.579545 318.350311 
L 168.115909 314.667838 
L 171.497727 310.223989 
L 174.879545 306.183693 
L 177.415909 303.450027 
L 180.797727 300.130279 
L 184.179545 297.112809 
L 187.561364 294.418765 
L 190.943182 291.973152 
L 195.170455 289.273736 
L 198.552273 287.361785 
L 203.625 284.811598 
L 207.006818 283.367311 
L 212.925 281.066716 
L 220.534091 278.688368 
L 230.679545 276.176682 
L 234.906818 275.382769 
L 247.588636 273.600917 
L 256.043182 272.814297 
L 270.415909 271.95092 
L 288.170455 271.306206 
L 290.706818 271.179839 
L 291.552273 271.372699 
L 292.397727 275.20782 
L 294.088636 283.775936 
L 296.625 292.90188 
L 297.470455 294.513951 
L 298.315909 295.517013 
L 299.161364 296.019251 
L 300.006818 295.838189 
L 300.852273 294.939761 
L 301.697727 293.603309 
L 302.543182 291.945433 
L 304.234091 287.296079 
L 307.615909 278.253131 
L 308.461364 276.487629 
L 309.306818 275.385422 
L 310.152273 274.982754 
L 310.997727 274.969792 
L 311.843182 275.16184 
L 314.379545 276.166937 
L 315.225 276.144588 
L 316.070455 275.787882 
L 316.915909 275.11851 
L 317.761364 274.142617 
L 321.988636 268.154108 
L 323.679545 266.589453 
L 325.370455 265.505435 
L 329.597727 263.636142 
L 332.134091 261.793469 
L 334.670455 260.026756 
L 336.361364 259.082392 
L 338.897727 257.926935 
L 343.125 256.092309 
L 348.197727 253.657398 
L 350.734091 252.744753 
L 354.961364 251.522928 
L 361.725 249.69924 
L 365.952273 248.911547 
L 375.252273 247.447985 
L 383.706818 246.49001 
L 391.315909 245.829793 
L 403.152273 245.001675 
L 426.825 243.698299 
L 479.243182 241.570541 
L 496.152273 241.262878 
L 521.515909 240.963194 
L 559.561364 240.657061 
L 559.561364 240.657061 
" style="fill:none;stroke:#8c564b;stroke-linecap:square;stroke-width:2;"/>
   </g>
   <g id="line2d_23">
    <path clip-path="url(#p3f525d790b)" d="M 52.288636 557.997941 
L 53.134091 558.248409 
L 54.825 557.890011 
L 58.206818 556.886394 
L 61.588636 555.664364 
L 64.970455 554.216681 
L 68.352273 552.506677 
L 71.734091 550.484591 
L 74.270455 548.727752 
L 76.806818 546.733713 
L 79.343182 544.47031 
L 81.879545 541.902505 
L 84.415909 538.991766 
L 86.952273 535.697389 
L 89.488636 531.974873 
L 92.025 527.774934 
L 94.561364 523.043211 
L 97.097727 517.729316 
L 99.634091 511.813422 
L 102.170455 505.287546 
L 104.706818 498.158936 
L 107.243182 490.410458 
L 109.779545 481.981233 
L 112.315909 472.859514 
L 114.852273 463.057429 
L 118.234091 449.002954 
L 121.615909 434.013751 
L 127.534091 406.481204 
L 132.606818 383.179393 
L 136.834091 364.953264 
L 140.215909 351.400623 
L 142.752273 341.935165 
L 145.288636 333.13429 
L 147.825 325.015589 
L 150.361364 317.597223 
L 152.897727 310.90224 
L 155.434091 304.880948 
L 157.970455 299.465331 
L 160.506818 294.653558 
L 163.043182 290.409578 
L 165.579545 286.65043 
L 168.115909 283.336547 
L 170.652273 280.441112 
L 173.188636 277.907135 
L 175.725 275.673069 
L 178.261364 273.725461 
L 181.643182 271.520792 
L 184.179545 270.064934 
L 186.715909 268.856608 
L 193.479545 266.068546 
L 197.706818 264.804656 
L 200.243182 264.153625 
L 202.779545 263.726485 
L 209.543182 262.874783 
L 216.306818 262.447157 
L 225.606818 262.356444 
L 232.370455 262.406904 
L 250.970455 262.607913 
L 252.661364 262.627975 
L 253.506818 262.789974 
L 254.352273 264.321558 
L 256.043182 270.071928 
L 257.734091 274.563845 
L 258.579545 275.732242 
L 259.425 276.448179 
L 260.270455 276.429551 
L 261.961364 274.73579 
L 262.806818 273.555839 
L 264.497727 270.161328 
L 265.343182 268.244404 
L 266.188636 266.790893 
L 267.034091 265.7096 
L 267.879545 264.970246 
L 269.570455 264.319156 
L 271.261364 263.997748 
L 272.106818 263.632451 
L 272.952273 263.024854 
L 273.797727 262.199099 
L 275.488636 260.039252 
L 278.025 256.582225 
L 278.870455 255.651049 
L 279.715909 254.934216 
L 280.561364 254.463166 
L 281.406818 254.190507 
L 284.788636 253.580206 
L 285.634091 253.229232 
L 287.325 252.10839 
L 291.552273 248.687432 
L 293.243182 247.880117 
L 294.934091 247.417985 
L 297.470455 246.783138 
L 299.161364 246.064044 
L 301.697727 244.798714 
L 303.388636 244.211973 
L 305.079545 243.868694 
L 310.152273 243.098697 
L 314.379545 241.968579 
L 316.915909 241.626957 
L 321.143182 241.201509 
L 325.370455 240.618144 
L 349.888636 238.835572 
L 366.797727 238.084078 
L 387.088636 237.551323 
L 412.452273 237.257331 
L 540.115909 235.669499 
L 559.561364 235.276086 
L 559.561364 235.276086 
" style="fill:none;stroke:#e377c2;stroke-linecap:square;stroke-width:2;"/>
   </g>
   <g id="line2d_24">
    <path clip-path="url(#p3f525d790b)" d="M 52.288636 557.997941 
L 53.134091 558.248409 
L 54.825 557.891433 
L 58.206818 556.888946 
L 61.588636 555.664904 
L 64.970455 554.215533 
L 68.352273 552.505149 
L 71.734091 550.487067 
L 74.270455 548.734571 
L 76.806818 546.747703 
L 79.343182 544.493144 
L 81.879545 541.933992 
L 84.415909 539.031576 
L 86.952273 535.743501 
L 89.488636 532.025696 
L 92.025 527.830278 
L 94.561364 523.10314 
L 97.097727 517.784938 
L 99.634091 511.80893 
L 102.170455 505.111412 
L 104.706818 497.667171 
L 107.243182 489.457718 
L 109.779545 480.492757 
L 112.315909 470.756075 
L 114.852273 460.205632 
L 117.388636 448.827429 
L 120.770455 432.709782 
L 124.997727 411.409244 
L 134.297727 363.997463 
L 137.679545 347.959532 
L 141.061364 333.09671 
L 143.597727 322.881359 
L 146.134091 313.595808 
L 148.670455 305.22426 
L 151.206818 297.728682 
L 153.743182 291.084436 
L 156.279545 285.266679 
L 158.815909 280.203649 
L 161.352273 275.824935 
L 163.888636 272.089187 
L 166.425 268.900775 
L 168.115909 267.050023 
L 170.652273 264.676547 
L 173.188636 262.717121 
L 175.725 261.099627 
L 178.261364 259.782894 
L 180.797727 258.723746 
L 183.334091 257.877634 
L 186.715909 257.043439 
L 190.097727 256.432343 
L 194.325 255.909509 
L 199.397727 255.540988 
L 207.006818 255.037236 
L 210.388636 254.712647 
L 215.461364 254.401338 
L 226.452273 254.275362 
L 235.752273 254.457937 
L 250.125 254.738802 
L 250.970455 255.235774 
L 252.661364 258.327834 
L 253.506818 259.506683 
L 254.352273 259.90454 
L 255.197727 260.69435 
L 256.043182 260.551123 
L 256.888636 260.525777 
L 257.734091 259.815462 
L 258.579545 258.675149 
L 259.425 257.830047 
L 261.961364 253.9336 
L 262.806818 252.419317 
L 268.725 244.05599 
L 270.415909 242.573847 
L 273.797727 239.973487 
L 275.488636 238.380563 
L 280.561364 232.939737 
L 282.252273 231.187927 
L 283.943182 229.771559 
L 285.634091 228.781395 
L 289.015909 227.274697 
L 293.243182 225.535651 
L 300.852273 222.744126 
L 303.388636 222.403113 
L 308.461364 221.910584 
L 318.606818 221.479305 
L 350.734091 222.427196 
L 365.952273 222.906418 
L 380.325 223.205345 
L 393.852273 223.181424 
L 440.352273 222.598147 
L 458.106818 222.010265 
L 520.670455 219.33474 
L 544.343182 218.022174 
L 559.561364 217.178181 
L 559.561364 217.178181 
" style="fill:none;stroke:#7f7f7f;stroke-linecap:square;stroke-width:2;"/>
   </g>
   <g id="line2d_25">
    <path clip-path="url(#p3f525d790b)" d="M 52.288636 557.997941 
L 53.134091 558.248409 
L 55.670455 557.67127 
L 59.052273 556.61494 
L 62.434091 555.344424 
L 65.815909 553.843379 
L 69.197727 552.071277 
L 72.579545 549.985114 
L 75.115909 548.17605 
L 77.652273 546.130781 
L 80.188636 543.815039 
L 82.725 541.190488 
L 85.261364 538.221514 
L 87.797727 534.859468 
L 90.334091 531.05292 
L 92.870455 526.747553 
L 95.406818 521.888172 
L 97.943182 516.423341 
L 100.479545 510.289411 
L 103.015909 503.409238 
L 105.552273 495.691988 
L 108.088636 487.056061 
L 110.625 477.43596 
L 113.161364 466.809059 
L 115.697727 455.207986 
L 119.079545 438.346838 
L 122.461364 420.325796 
L 125.843182 401.035105 
L 130.070455 375.5098 
L 136.834091 334.846097 
L 140.215909 315.99289 
L 142.752273 303.262952 
L 145.288636 292.007417 
L 146.979545 285.331195 
L 148.670455 279.278996 
L 150.361364 273.811923 
L 152.052273 268.887285 
L 153.743182 264.514109 
L 155.434091 260.68047 
L 157.125 257.341204 
L 158.815909 254.431093 
L 160.506818 251.876639 
L 162.197727 249.652004 
L 163.888636 247.74764 
L 165.579545 246.131279 
L 167.270455 244.745062 
L 169.806818 243.037245 
L 172.343182 241.685901 
L 174.879545 240.614705 
L 177.415909 239.803307 
L 179.952273 239.223268 
L 183.334091 238.709785 
L 187.561364 238.370804 
L 192.634091 238.20627 
L 196.861364 238.267629 
L 197.706818 238.324564 
L 198.552273 238.524824 
L 199.397727 238.604252 
L 200.243182 238.389624 
L 201.088636 238.039 
L 201.934091 237.497575 
L 204.470455 235.35251 
L 206.161364 234.24108 
L 207.852273 233.546843 
L 208.697727 233.345938 
L 210.388636 233.277186 
L 213.770455 233.287764 
L 214.615909 233.106613 
L 219.688636 231.349916 
L 223.070455 231.25051 
L 225.606818 231.139508 
L 230.679545 230.790616 
L 233.215909 230.812954 
L 237.443182 231.210245 
L 244.206818 231.569309 
L 249.279545 232.033347 
L 254.352273 232.233553 
L 259.425 232.279733 
L 263.652273 232.291866 
L 271.261364 232.604267 
L 292.397727 233.741903 
L 313.534091 234.661198 
L 327.061364 235.009741 
L 339.743182 235.10175 
L 356.652273 234.984453 
L 367.643182 234.717667 
L 383.706818 234.049174 
L 409.915909 232.721728 
L 431.052273 231.375531 
L 456.415909 229.482173 
L 496.152273 226.187058 
L 547.725 221.509349 
L 559.561364 220.376225 
L 559.561364 220.376225 
" style="fill:none;stroke:#bcbd22;stroke-linecap:square;stroke-width:2;"/>
   </g>
   <g id="patch_4">
    <path d="M 26.925 582.9575 
L 26.925 39.3575 
" style="fill:none;stroke:#000000;stroke-linecap:square;stroke-linejoin:miter;stroke-width:0.8;"/>
   </g>
   <g id="patch_5">
    <path d="M 584.925 582.9575 
L 584.925 39.3575 
" style="fill:none;stroke:#000000;stroke-linecap:square;stroke-linejoin:miter;stroke-width:0.8;"/>
   </g>
   <g id="patch_6">
    <path d="M 26.925 582.9575 
L 584.925 582.9575 
" style="fill:none;stroke:#000000;stroke-linecap:square;stroke-linejoin:miter;stroke-width:0.8;"/>
   </g>
   <g id="patch_7">
    <path d="M 26.925 39.3575 
L 584.925 39.3575 
" style="fill:none;stroke:#000000;stroke-linecap:square;stroke-linejoin:miter;stroke-width:0.8;"/>
   </g>
   <g id="text_18">
    <!-- Class separation -->
    <g transform="translate(430.206818 93.7175)scale(0.1 -0.1)">
     <defs>
      <path d="M 64.40625 67.28125 
L 64.40625 56.890625 
Q 59.421875 61.53125 53.78125 63.8125 
Q 48.140625 66.109375 41.796875 66.109375 
Q 29.296875 66.109375 22.65625 58.46875 
Q 16.015625 50.828125 16.015625 36.375 
Q 16.015625 21.96875 22.65625 14.328125 
Q 29.296875 6.6875 41.796875 6.6875 
Q 48.140625 6.6875 53.78125 8.984375 
Q 59.421875 11.28125 64.40625 15.921875 
L 64.40625 5.609375 
Q 59.234375 2.09375 53.4375 0.328125 
Q 47.65625 -1.421875 41.21875 -1.421875 
Q 24.65625 -1.421875 15.125 8.703125 
Q 5.609375 18.84375 5.609375 36.375 
Q 5.609375 53.953125 15.125 64.078125 
Q 24.65625 74.21875 41.21875 74.21875 
Q 47.75 74.21875 53.53125 72.484375 
Q 59.328125 70.75 64.40625 67.28125 
z
" id="DejaVuSans-67"/>
      <path d="M 9.421875 75.984375 
L 18.40625 75.984375 
L 18.40625 0 
L 9.421875 0 
z
" id="DejaVuSans-108"/>
      <path d="M 34.28125 27.484375 
Q 23.390625 27.484375 19.1875 25 
Q 14.984375 22.515625 14.984375 16.5 
Q 14.984375 11.71875 18.140625 8.90625 
Q 21.296875 6.109375 26.703125 6.109375 
Q 34.1875 6.109375 38.703125 11.40625 
Q 43.21875 16.703125 43.21875 25.484375 
L 43.21875 27.484375 
z
M 52.203125 31.203125 
L 52.203125 0 
L 43.21875 0 
L 43.21875 8.296875 
Q 40.140625 3.328125 35.546875 0.953125 
Q 30.953125 -1.421875 24.3125 -1.421875 
Q 15.921875 -1.421875 10.953125 3.296875 
Q 6 8.015625 6 15.921875 
Q 6 25.140625 12.171875 29.828125 
Q 18.359375 34.515625 30.609375 34.515625 
L 43.21875 34.515625 
L 43.21875 35.40625 
Q 43.21875 41.609375 39.140625 45 
Q 35.0625 48.390625 27.6875 48.390625 
Q 23 48.390625 18.546875 47.265625 
Q 14.109375 46.140625 10.015625 43.890625 
L 10.015625 52.203125 
Q 14.9375 54.109375 19.578125 55.046875 
Q 24.21875 56 28.609375 56 
Q 40.484375 56 46.34375 49.84375 
Q 52.203125 43.703125 52.203125 31.203125 
z
" id="DejaVuSans-97"/>
      <path id="DejaVuSans-32"/>
      <path d="M 56.203125 29.59375 
L 56.203125 25.203125 
L 14.890625 25.203125 
Q 15.484375 15.921875 20.484375 11.0625 
Q 25.484375 6.203125 34.421875 6.203125 
Q 39.59375 6.203125 44.453125 7.46875 
Q 49.3125 8.734375 54.109375 11.28125 
L 54.109375 2.78125 
Q 49.265625 0.734375 44.1875 -0.34375 
Q 39.109375 -1.421875 33.890625 -1.421875 
Q 20.796875 -1.421875 13.15625 6.1875 
Q 5.515625 13.8125 5.515625 26.8125 
Q 5.515625 40.234375 12.765625 48.109375 
Q 20.015625 56 32.328125 56 
Q 43.359375 56 49.78125 48.890625 
Q 56.203125 41.796875 56.203125 29.59375 
z
M 47.21875 32.234375 
Q 47.125 39.59375 43.09375 43.984375 
Q 39.0625 48.390625 32.421875 48.390625 
Q 24.90625 48.390625 20.390625 44.140625 
Q 15.875 39.890625 15.1875 32.171875 
z
" id="DejaVuSans-101"/>
      <path d="M 41.109375 46.296875 
Q 39.59375 47.171875 37.8125 47.578125 
Q 36.03125 48 33.890625 48 
Q 26.265625 48 22.1875 43.046875 
Q 18.109375 38.09375 18.109375 28.8125 
L 18.109375 0 
L 9.078125 0 
L 9.078125 54.6875 
L 18.109375 54.6875 
L 18.109375 46.1875 
Q 20.953125 51.171875 25.484375 53.578125 
Q 30.03125 56 36.53125 56 
Q 37.453125 56 38.578125 55.875 
Q 39.703125 55.765625 41.0625 55.515625 
z
" id="DejaVuSans-114"/>
      <path d="M 18.3125 70.21875 
L 18.3125 54.6875 
L 36.8125 54.6875 
L 36.8125 47.703125 
L 18.3125 47.703125 
L 18.3125 18.015625 
Q 18.3125 11.328125 20.140625 9.421875 
Q 21.96875 7.515625 27.59375 7.515625 
L 36.8125 7.515625 
L 36.8125 0 
L 27.59375 0 
Q 17.1875 0 13.234375 3.875 
Q 9.28125 7.765625 9.28125 18.015625 
L 9.28125 47.703125 
L 2.6875 47.703125 
L 2.6875 54.6875 
L 9.28125 54.6875 
L 9.28125 70.21875 
z
" id="DejaVuSans-116"/>
      <path d="M 9.421875 54.6875 
L 18.40625 54.6875 
L 18.40625 0 
L 9.421875 0 
z
M 9.421875 75.984375 
L 18.40625 75.984375 
L 18.40625 64.59375 
L 9.421875 64.59375 
z
" id="DejaVuSans-105"/>
      <path d="M 54.890625 33.015625 
L 54.890625 0 
L 45.90625 0 
L 45.90625 32.71875 
Q 45.90625 40.484375 42.875 44.328125 
Q 39.84375 48.1875 33.796875 48.1875 
Q 26.515625 48.1875 22.3125 43.546875 
Q 18.109375 38.921875 18.109375 30.90625 
L 18.109375 0 
L 9.078125 0 
L 9.078125 54.6875 
L 18.109375 54.6875 
L 18.109375 46.1875 
Q 21.34375 51.125 25.703125 53.5625 
Q 30.078125 56 35.796875 56 
Q 45.21875 56 50.046875 50.171875 
Q 54.890625 44.34375 54.890625 33.015625 
z
" id="DejaVuSans-110"/>
     </defs>
     <use xlink:href="#DejaVuSans-67"/>
     <use x="69.824219" xlink:href="#DejaVuSans-108"/>
     <use x="97.607422" xlink:href="#DejaVuSans-97"/>
     <use x="158.886719" xlink:href="#DejaVuSans-115"/>
     <use x="210.986328" xlink:href="#DejaVuSans-115"/>
     <use x="263.085938" xlink:href="#DejaVuSans-32"/>
     <use x="294.873047" xlink:href="#DejaVuSans-115"/>
     <use x="346.972656" xlink:href="#DejaVuSans-101"/>
     <use x="408.496094" xlink:href="#DejaVuSans-112"/>
     <use x="471.972656" xlink:href="#DejaVuSans-97"/>
     <use x="533.251953" xlink:href="#DejaVuSans-114"/>
     <use x="574.365234" xlink:href="#DejaVuSans-97"/>
     <use x="635.644531" xlink:href="#DejaVuSans-116"/>
     <use x="674.853516" xlink:href="#DejaVuSans-105"/>
     <use x="702.636719" xlink:href="#DejaVuSans-111"/>
     <use x="763.818359" xlink:href="#DejaVuSans-110"/>
    </g>
   </g>
   <g id="text_19">
    <!-- Scalar magnitude -->
    <g transform="translate(235.315 19.3575)scale(0.16 -0.16)">
     <defs>
      <path d="M 53.515625 70.515625 
L 53.515625 60.890625 
Q 47.90625 63.578125 42.921875 64.890625 
Q 37.9375 66.21875 33.296875 66.21875 
Q 25.25 66.21875 20.875 63.09375 
Q 16.5 59.96875 16.5 54.203125 
Q 16.5 49.359375 19.40625 46.890625 
Q 22.3125 44.4375 30.421875 42.921875 
L 36.375 41.703125 
Q 47.40625 39.59375 52.65625 34.296875 
Q 57.90625 29 57.90625 20.125 
Q 57.90625 9.515625 50.796875 4.046875 
Q 43.703125 -1.421875 29.984375 -1.421875 
Q 24.8125 -1.421875 18.96875 -0.25 
Q 13.140625 0.921875 6.890625 3.21875 
L 6.890625 13.375 
Q 12.890625 10.015625 18.65625 8.296875 
Q 24.421875 6.59375 29.984375 6.59375 
Q 38.421875 6.59375 43.015625 9.90625 
Q 47.609375 13.234375 47.609375 19.390625 
Q 47.609375 24.75 44.3125 27.78125 
Q 41.015625 30.8125 33.5 32.328125 
L 27.484375 33.5 
Q 16.453125 35.6875 11.515625 40.375 
Q 6.59375 45.0625 6.59375 53.421875 
Q 6.59375 63.09375 13.40625 68.65625 
Q 20.21875 74.21875 32.171875 74.21875 
Q 37.3125 74.21875 42.625 73.28125 
Q 47.953125 72.359375 53.515625 70.515625 
z
" id="DejaVuSans-83"/>
      <path d="M 52 44.1875 
Q 55.375 50.25 60.0625 53.125 
Q 64.75 56 71.09375 56 
Q 79.640625 56 84.28125 50.015625 
Q 88.921875 44.046875 88.921875 33.015625 
L 88.921875 0 
L 79.890625 0 
L 79.890625 32.71875 
Q 79.890625 40.578125 77.09375 44.375 
Q 74.3125 48.1875 68.609375 48.1875 
Q 61.625 48.1875 57.5625 43.546875 
Q 53.515625 38.921875 53.515625 30.90625 
L 53.515625 0 
L 44.484375 0 
L 44.484375 32.71875 
Q 44.484375 40.625 41.703125 44.40625 
Q 38.921875 48.1875 33.109375 48.1875 
Q 26.21875 48.1875 22.15625 43.53125 
Q 18.109375 38.875 18.109375 30.90625 
L 18.109375 0 
L 9.078125 0 
L 9.078125 54.6875 
L 18.109375 54.6875 
L 18.109375 46.1875 
Q 21.1875 51.21875 25.484375 53.609375 
Q 29.78125 56 35.6875 56 
Q 41.65625 56 45.828125 52.96875 
Q 50 49.953125 52 44.1875 
z
" id="DejaVuSans-109"/>
      <path d="M 45.40625 27.984375 
Q 45.40625 37.75 41.375 43.109375 
Q 37.359375 48.484375 30.078125 48.484375 
Q 22.859375 48.484375 18.828125 43.109375 
Q 14.796875 37.75 14.796875 27.984375 
Q 14.796875 18.265625 18.828125 12.890625 
Q 22.859375 7.515625 30.078125 7.515625 
Q 37.359375 7.515625 41.375 12.890625 
Q 45.40625 18.265625 45.40625 27.984375 
z
M 54.390625 6.78125 
Q 54.390625 -7.171875 48.1875 -13.984375 
Q 42 -20.796875 29.203125 -20.796875 
Q 24.46875 -20.796875 20.265625 -20.09375 
Q 16.0625 -19.390625 12.109375 -17.921875 
L 12.109375 -9.1875 
Q 16.0625 -11.328125 19.921875 -12.34375 
Q 23.78125 -13.375 27.78125 -13.375 
Q 36.625 -13.375 41.015625 -8.765625 
Q 45.40625 -4.15625 45.40625 5.171875 
L 45.40625 9.625 
Q 42.625 4.78125 38.28125 2.390625 
Q 33.9375 0 27.875 0 
Q 17.828125 0 11.671875 7.65625 
Q 5.515625 15.328125 5.515625 27.984375 
Q 5.515625 40.671875 11.671875 48.328125 
Q 17.828125 56 27.875 56 
Q 33.9375 56 38.28125 53.609375 
Q 42.625 51.21875 45.40625 46.390625 
L 45.40625 54.6875 
L 54.390625 54.6875 
z
" id="DejaVuSans-103"/>
      <path d="M 8.5 21.578125 
L 8.5 54.6875 
L 17.484375 54.6875 
L 17.484375 21.921875 
Q 17.484375 14.15625 20.5 10.265625 
Q 23.53125 6.390625 29.59375 6.390625 
Q 36.859375 6.390625 41.078125 11.03125 
Q 45.3125 15.671875 45.3125 23.6875 
L 45.3125 54.6875 
L 54.296875 54.6875 
L 54.296875 0 
L 45.3125 0 
L 45.3125 8.40625 
Q 42.046875 3.421875 37.71875 1 
Q 33.40625 -1.421875 27.6875 -1.421875 
Q 18.265625 -1.421875 13.375 4.4375 
Q 8.5 10.296875 8.5 21.578125 
z
M 31.109375 56 
z
" id="DejaVuSans-117"/>
      <path d="M 45.40625 46.390625 
L 45.40625 75.984375 
L 54.390625 75.984375 
L 54.390625 0 
L 45.40625 0 
L 45.40625 8.203125 
Q 42.578125 3.328125 38.25 0.953125 
Q 33.9375 -1.421875 27.875 -1.421875 
Q 17.96875 -1.421875 11.734375 6.484375 
Q 5.515625 14.40625 5.515625 27.296875 
Q 5.515625 40.1875 11.734375 48.09375 
Q 17.96875 56 27.875 56 
Q 33.9375 56 38.25 53.625 
Q 42.578125 51.265625 45.40625 46.390625 
z
M 14.796875 27.296875 
Q 14.796875 17.390625 18.875 11.75 
Q 22.953125 6.109375 30.078125 6.109375 
Q 37.203125 6.109375 41.296875 11.75 
Q 45.40625 17.390625 45.40625 27.296875 
Q 45.40625 37.203125 41.296875 42.84375 
Q 37.203125 48.484375 30.078125 48.484375 
Q 22.953125 48.484375 18.875 42.84375 
Q 14.796875 37.203125 14.796875 27.296875 
z
" id="DejaVuSans-100"/>
     </defs>
     <use xlink:href="#DejaVuSans-83"/>
     <use x="63.476562" xlink:href="#DejaVuSans-99"/>
     <use x="118.457031" xlink:href="#DejaVuSans-97"/>
     <use x="179.736328" xlink:href="#DejaVuSans-108"/>
     <use x="207.519531" xlink:href="#DejaVuSans-97"/>
     <use x="268.798828" xlink:href="#DejaVuSans-114"/>
     <use x="309.912109" xlink:href="#DejaVuSans-32"/>
     <use x="341.699219" xlink:href="#DejaVuSans-109"/>
     <use x="439.111328" xlink:href="#DejaVuSans-97"/>
     <use x="500.390625" xlink:href="#DejaVuSans-103"/>
     <use x="563.867188" xlink:href="#DejaVuSans-110"/>
     <use x="627.246094" xlink:href="#DejaVuSans-105"/>
     <use x="655.029297" xlink:href="#DejaVuSans-116"/>
     <use x="694.238281" xlink:href="#DejaVuSans-117"/>
     <use x="757.617188" xlink:href="#DejaVuSans-100"/>
     <use x="821.09375" xlink:href="#DejaVuSans-101"/>
    </g>
   </g>
   <g id="legend_1">
    <g id="line2d_26">
     <path d="M 49.917187 628.671938 
L 69.917187 628.671938 
" style="fill:none;stroke:#1f77b4;stroke-linecap:square;stroke-width:2;"/>
    </g>
    <g id="line2d_27"/>
    <g id="text_20">
     <!-- Baseline -->
     <g transform="translate(77.917187 632.171938)scale(0.1 -0.1)">
      <defs>
       <path d="M 19.671875 34.8125 
L 19.671875 8.109375 
L 35.5 8.109375 
Q 43.453125 8.109375 47.28125 11.40625 
Q 51.125 14.703125 51.125 21.484375 
Q 51.125 28.328125 47.28125 31.5625 
Q 43.453125 34.8125 35.5 34.8125 
z
M 19.671875 64.796875 
L 19.671875 42.828125 
L 34.28125 42.828125 
Q 41.5 42.828125 45.03125 45.53125 
Q 48.578125 48.25 48.578125 53.8125 
Q 48.578125 59.328125 45.03125 62.0625 
Q 41.5 64.796875 34.28125 64.796875 
z
M 9.8125 72.90625 
L 35.015625 72.90625 
Q 46.296875 72.90625 52.390625 68.21875 
Q 58.5 63.53125 58.5 54.890625 
Q 58.5 48.1875 55.375 44.234375 
Q 52.25 40.28125 46.1875 39.3125 
Q 53.46875 37.75 57.5 32.78125 
Q 61.53125 27.828125 61.53125 20.40625 
Q 61.53125 10.640625 54.890625 5.3125 
Q 48.25 0 35.984375 0 
L 9.8125 0 
z
" id="DejaVuSans-66"/>
      </defs>
      <use xlink:href="#DejaVuSans-66"/>
      <use x="68.603516" xlink:href="#DejaVuSans-97"/>
      <use x="129.882812" xlink:href="#DejaVuSans-115"/>
      <use x="181.982422" xlink:href="#DejaVuSans-101"/>
      <use x="243.505859" xlink:href="#DejaVuSans-108"/>
      <use x="271.289062" xlink:href="#DejaVuSans-105"/>
      <use x="299.072266" xlink:href="#DejaVuSans-110"/>
      <use x="362.451172" xlink:href="#DejaVuSans-101"/>
     </g>
    </g>
    <g id="line2d_28">
     <path d="M 49.917187 643.350063 
L 69.917187 643.350063 
" style="fill:none;stroke:#ff7f0e;stroke-linecap:square;stroke-width:3;"/>
    </g>
    <g id="line2d_29"/>
    <g id="text_21">
     <!-- Forced normaliz. -->
     <g transform="translate(77.917187 646.850063)scale(0.1 -0.1)">
      <defs>
       <path d="M 9.8125 72.90625 
L 51.703125 72.90625 
L 51.703125 64.59375 
L 19.671875 64.59375 
L 19.671875 43.109375 
L 48.578125 43.109375 
L 48.578125 34.8125 
L 19.671875 34.8125 
L 19.671875 0 
L 9.8125 0 
z
" id="DejaVuSans-70"/>
       <path d="M 5.515625 54.6875 
L 48.1875 54.6875 
L 48.1875 46.484375 
L 14.40625 7.171875 
L 48.1875 7.171875 
L 48.1875 0 
L 4.296875 0 
L 4.296875 8.203125 
L 38.09375 47.515625 
L 5.515625 47.515625 
z
" id="DejaVuSans-122"/>
       <path d="M 10.6875 12.40625 
L 21 12.40625 
L 21 0 
L 10.6875 0 
z
" id="DejaVuSans-46"/>
      </defs>
      <use xlink:href="#DejaVuSans-70"/>
      <use x="53.894531" xlink:href="#DejaVuSans-111"/>
      <use x="115.076172" xlink:href="#DejaVuSans-114"/>
      <use x="153.939453" xlink:href="#DejaVuSans-99"/>
      <use x="208.919922" xlink:href="#DejaVuSans-101"/>
      <use x="270.443359" xlink:href="#DejaVuSans-100"/>
      <use x="333.919922" xlink:href="#DejaVuSans-32"/>
      <use x="365.707031" xlink:href="#DejaVuSans-110"/>
      <use x="429.085938" xlink:href="#DejaVuSans-111"/>
      <use x="490.267578" xlink:href="#DejaVuSans-114"/>
      <use x="529.630859" xlink:href="#DejaVuSans-109"/>
      <use x="627.042969" xlink:href="#DejaVuSans-97"/>
      <use x="688.322266" xlink:href="#DejaVuSans-108"/>
      <use x="716.105469" xlink:href="#DejaVuSans-105"/>
      <use x="743.888672" xlink:href="#DejaVuSans-122"/>
      <use x="796.378906" xlink:href="#DejaVuSans-46"/>
     </g>
    </g>
    <g id="line2d_30">
     <path d="M 180.732813 628.671938 
L 200.732813 628.671938 
" style="fill:none;stroke:#2ca02c;stroke-linecap:square;stroke-width:2;"/>
    </g>
    <g id="line2d_31"/>
    <g id="text_22">
     <!-- $\lambda=0.005$ -->
     <g transform="translate(208.732813 632.171938)scale(0.1 -0.1)">
      <defs>
       <path d="M 36.71875 67.4375 
L 48.828125 0 
L 39.3125 0 
L 31.84375 40.4375 
L 5.125 0 
L -4.390625 0 
L 29.734375 52.4375 
L 28.03125 62.109375 
Q 26.953125 68.265625 21.734375 68.265625 
L 17.046875 68.265625 
L 18.5 75.984375 
L 24.21875 75.875 
Q 35.203125 75.734375 36.71875 67.4375 
z
" id="DejaVuSans-Oblique-955"/>
       <path d="M 10.59375 45.40625 
L 73.1875 45.40625 
L 73.1875 37.203125 
L 10.59375 37.203125 
z
M 10.59375 25.484375 
L 73.1875 25.484375 
L 73.1875 17.1875 
L 10.59375 17.1875 
z
" id="DejaVuSans-61"/>
      </defs>
      <use transform="translate(0 0.015625)" xlink:href="#DejaVuSans-Oblique-955"/>
      <use transform="translate(78.662109 0.015625)" xlink:href="#DejaVuSans-61"/>
      <use transform="translate(181.933594 0.015625)" xlink:href="#DejaVuSans-48"/>
      <use transform="translate(245.556641 0.015625)" xlink:href="#DejaVuSans-46"/>
      <use transform="translate(277.34375 0.015625)" xlink:href="#DejaVuSans-48"/>
      <use transform="translate(340.966797 0.015625)" xlink:href="#DejaVuSans-48"/>
      <use transform="translate(404.589844 0.015625)" xlink:href="#DejaVuSans-53"/>
     </g>
    </g>
    <g id="line2d_32">
     <path d="M 180.732813 643.350063 
L 200.732813 643.350063 
" style="fill:none;stroke:#d62728;stroke-linecap:square;stroke-width:2;"/>
    </g>
    <g id="line2d_33"/>
    <g id="text_23">
     <!-- $\lambda=0.05$ -->
     <g transform="translate(208.732813 646.850063)scale(0.1 -0.1)">
      <use transform="translate(0 0.015625)" xlink:href="#DejaVuSans-Oblique-955"/>
      <use transform="translate(78.662109 0.015625)" xlink:href="#DejaVuSans-61"/>
      <use transform="translate(181.933594 0.015625)" xlink:href="#DejaVuSans-48"/>
      <use transform="translate(245.556641 0.015625)" xlink:href="#DejaVuSans-46"/>
      <use transform="translate(277.34375 0.015625)" xlink:href="#DejaVuSans-48"/>
      <use transform="translate(340.966797 0.015625)" xlink:href="#DejaVuSans-53"/>
     </g>
    </g>
    <g id="line2d_34">
     <path d="M 275.632812 628.671938 
L 295.632812 628.671938 
" style="fill:none;stroke:#9467bd;stroke-linecap:square;stroke-width:2;"/>
    </g>
    <g id="line2d_35"/>
    <g id="text_24">
     <!-- $\lambda=0.5$ -->
     <g transform="translate(303.632812 632.171938)scale(0.1 -0.1)">
      <use transform="translate(0 0.015625)" xlink:href="#DejaVuSans-Oblique-955"/>
      <use transform="translate(78.662109 0.015625)" xlink:href="#DejaVuSans-61"/>
      <use transform="translate(181.933594 0.015625)" xlink:href="#DejaVuSans-48"/>
      <use transform="translate(245.556641 0.015625)" xlink:href="#DejaVuSans-46"/>
      <use transform="translate(277.34375 0.015625)" xlink:href="#DejaVuSans-53"/>
     </g>
    </g>
    <g id="line2d_36">
     <path d="M 275.632812 643.350063 
L 295.632812 643.350063 
" style="fill:none;stroke:#8c564b;stroke-linecap:square;stroke-width:2;"/>
    </g>
    <g id="line2d_37"/>
    <g id="text_25">
     <!-- $\lambda=1.5$ -->
     <g transform="translate(303.632812 646.850063)scale(0.1 -0.1)">
      <use transform="translate(0 0.015625)" xlink:href="#DejaVuSans-Oblique-955"/>
      <use transform="translate(78.662109 0.015625)" xlink:href="#DejaVuSans-61"/>
      <use transform="translate(181.933594 0.015625)" xlink:href="#DejaVuSans-49"/>
      <use transform="translate(245.556641 0.015625)" xlink:href="#DejaVuSans-46"/>
      <use transform="translate(277.34375 0.015625)" xlink:href="#DejaVuSans-53"/>
     </g>
    </g>
    <g id="line2d_38">
     <path d="M 357.732813 628.671938 
L 377.732813 628.671938 
" style="fill:none;stroke:#e377c2;stroke-linecap:square;stroke-width:2;"/>
    </g>
    <g id="line2d_39"/>
    <g id="text_26">
     <!-- $\lambda=3$ -->
     <g transform="translate(385.732813 632.171938)scale(0.1 -0.1)">
      <use transform="translate(0 0.015625)" xlink:href="#DejaVuSans-Oblique-955"/>
      <use transform="translate(78.662109 0.015625)" xlink:href="#DejaVuSans-61"/>
      <use transform="translate(181.933594 0.015625)" xlink:href="#DejaVuSans-51"/>
     </g>
    </g>
    <g id="line2d_40">
     <path d="M 430.332812 628.671938 
L 450.332812 628.671938 
" style="fill:none;stroke:#7f7f7f;stroke-linecap:square;stroke-width:2;"/>
    </g>
    <g id="line2d_41"/>
    <g id="text_27">
     <!-- $\lambda=5$ -->
     <g transform="translate(458.332812 632.171938)scale(0.1 -0.1)">
      <use transform="translate(0 0.015625)" xlink:href="#DejaVuSans-Oblique-955"/>
      <use transform="translate(78.662109 0.015625)" xlink:href="#DejaVuSans-61"/>
      <use transform="translate(181.933594 0.015625)" xlink:href="#DejaVuSans-53"/>
     </g>
    </g>
    <g id="line2d_42">
     <path d="M 502.932813 628.671938 
L 522.932812 628.671938 
" style="fill:none;stroke:#bcbd22;stroke-linecap:square;stroke-width:2;"/>
    </g>
    <g id="line2d_43"/>
    <g id="text_28">
     <!-- $\lambda=10$ -->
     <g transform="translate(530.932812 632.171938)scale(0.1 -0.1)">
      <use transform="translate(0 0.015625)" xlink:href="#DejaVuSans-Oblique-955"/>
      <use transform="translate(78.662109 0.015625)" xlink:href="#DejaVuSans-61"/>
      <use transform="translate(181.933594 0.015625)" xlink:href="#DejaVuSans-49"/>
      <use transform="translate(245.556641 0.015625)" xlink:href="#DejaVuSans-48"/>
     </g>
    </g>
   </g>
  </g>
 </g>
 <defs>
  <clipPath id="p3f525d790b">
   <rect height="543.6" width="558" x="26.925" y="39.3575"/>
  </clipPath>
 </defs>
</svg>
