<?xml version="1.0" encoding="utf-8" standalone="no"?>
<!DOCTYPE svg PUBLIC "-//W3C//DTD SVG 1.1//EN"
  "http://www.w3.org/Graphics/SVG/1.1/DTD/svg11.dtd">
<!-- Created with matplotlib (https://matplotlib.org/) -->
<svg height="660.12975pt" version="1.1" viewBox="0 0 592.125 660.12975" width="592.125pt" xmlns="http://www.w3.org/2000/svg" xmlns:xlink="http://www.w3.org/1999/xlink">
 <metadata>
  <rdf:RDF xmlns:cc="http://creativecommons.org/ns#" xmlns:dc="http://purl.org/dc/elements/1.1/" xmlns:rdf="http://www.w3.org/1999/02/22-rdf-syntax-ns#">
   <cc:Work>
    <dc:type rdf:resource="http://purl.org/dc/dcmitype/StillImage"/>
    <dc:date>2021-01-13T11:48:50.358021</dc:date>
    <dc:format>image/svg+xml</dc:format>
    <dc:creator>
     <cc:Agent>
      <dc:title>Matplotlib v3.3.2, https://matplotlib.org/</dc:title>
     </cc:Agent>
    </dc:creator>
   </cc:Work>
  </rdf:RDF>
 </metadata>
 <defs>
  <style type="text/css">*{stroke-linecap:butt;stroke-linejoin:round;}</style>
 </defs>
 <g id="figure_1">
  <g id="patch_1">
   <path d="M 0 660.12975 
L 592.125 660.12975 
L 592.125 0 
L 0 0 
z
" style="fill:none;"/>
  </g>
  <g id="axes_1">
   <g id="patch_2">
    <path d="M 26.925 582.9575 
L 584.925 582.9575 
L 584.925 39.3575 
L 26.925 39.3575 
z
" style="fill:#ffffff;"/>
   </g>
   <g id="patch_3">
    <path clip-path="url(#pd93ee21784)" d="M 78.497727 582.9575 
L 130.070455 582.9575 
L 130.070455 39.3575 
L 78.497727 39.3575 
z
" style="fill:#1f77b4;opacity:0.2;"/>
   </g>
   <g id="matplotlib.axis_1">
    <g id="xtick_1">
     <g id="line2d_1">
      <defs>
       <path d="M 0 0 
L 0 3.5 
" id="m84e3ac4cb9" style="stroke:#000000;stroke-width:0.8;"/>
      </defs>
      <g>
       <use style="stroke:#000000;stroke-width:0.8;" x="52.288636" xlink:href="#m84e3ac4cb9" y="582.9575"/>
      </g>
     </g>
     <g id="text_1">
      <!-- 0 -->
      <g transform="translate(49.107386 597.555938)scale(0.1 -0.1)">
       <defs>
        <path d="M 31.78125 66.40625 
Q 24.171875 66.40625 20.328125 58.90625 
Q 16.5 51.421875 16.5 36.375 
Q 16.5 21.390625 20.328125 13.890625 
Q 24.171875 6.390625 31.78125 6.390625 
Q 39.453125 6.390625 43.28125 13.890625 
Q 47.125 21.390625 47.125 36.375 
Q 47.125 51.421875 43.28125 58.90625 
Q 39.453125 66.40625 31.78125 66.40625 
z
M 31.78125 74.21875 
Q 44.046875 74.21875 50.515625 64.515625 
Q 56.984375 54.828125 56.984375 36.375 
Q 56.984375 17.96875 50.515625 8.265625 
Q 44.046875 -1.421875 31.78125 -1.421875 
Q 19.53125 -1.421875 13.0625 8.265625 
Q 6.59375 17.96875 6.59375 36.375 
Q 6.59375 54.828125 13.0625 64.515625 
Q 19.53125 74.21875 31.78125 74.21875 
z
" id="DejaVuSans-48"/>
       </defs>
       <use xlink:href="#DejaVuSans-48"/>
      </g>
     </g>
    </g>
    <g id="xtick_2">
     <g id="line2d_2">
      <g>
       <use style="stroke:#000000;stroke-width:0.8;" x="136.834091" xlink:href="#m84e3ac4cb9" y="582.9575"/>
      </g>
     </g>
     <g id="text_2">
      <!-- 100 -->
      <g transform="translate(127.290341 597.555938)scale(0.1 -0.1)">
       <defs>
        <path d="M 12.40625 8.296875 
L 28.515625 8.296875 
L 28.515625 63.921875 
L 10.984375 60.40625 
L 10.984375 69.390625 
L 28.421875 72.90625 
L 38.28125 72.90625 
L 38.28125 8.296875 
L 54.390625 8.296875 
L 54.390625 0 
L 12.40625 0 
z
" id="DejaVuSans-49"/>
       </defs>
       <use xlink:href="#DejaVuSans-49"/>
       <use x="63.623047" xlink:href="#DejaVuSans-48"/>
       <use x="127.246094" xlink:href="#DejaVuSans-48"/>
      </g>
     </g>
    </g>
    <g id="xtick_3">
     <g id="line2d_3">
      <g>
       <use style="stroke:#000000;stroke-width:0.8;" x="221.379545" xlink:href="#m84e3ac4cb9" y="582.9575"/>
      </g>
     </g>
     <g id="text_3">
      <!-- 200 -->
      <g transform="translate(211.835795 597.555938)scale(0.1 -0.1)">
       <defs>
        <path d="M 19.1875 8.296875 
L 53.609375 8.296875 
L 53.609375 0 
L 7.328125 0 
L 7.328125 8.296875 
Q 12.9375 14.109375 22.625 23.890625 
Q 32.328125 33.6875 34.8125 36.53125 
Q 39.546875 41.84375 41.421875 45.53125 
Q 43.3125 49.21875 43.3125 52.78125 
Q 43.3125 58.59375 39.234375 62.25 
Q 35.15625 65.921875 28.609375 65.921875 
Q 23.96875 65.921875 18.8125 64.3125 
Q 13.671875 62.703125 7.8125 59.421875 
L 7.8125 69.390625 
Q 13.765625 71.78125 18.9375 73 
Q 24.125 74.21875 28.421875 74.21875 
Q 39.75 74.21875 46.484375 68.546875 
Q 53.21875 62.890625 53.21875 53.421875 
Q 53.21875 48.921875 51.53125 44.890625 
Q 49.859375 40.875 45.40625 35.40625 
Q 44.1875 33.984375 37.640625 27.21875 
Q 31.109375 20.453125 19.1875 8.296875 
z
" id="DejaVuSans-50"/>
       </defs>
       <use xlink:href="#DejaVuSans-50"/>
       <use x="63.623047" xlink:href="#DejaVuSans-48"/>
       <use x="127.246094" xlink:href="#DejaVuSans-48"/>
      </g>
     </g>
    </g>
    <g id="xtick_4">
     <g id="line2d_4">
      <g>
       <use style="stroke:#000000;stroke-width:0.8;" x="305.925" xlink:href="#m84e3ac4cb9" y="582.9575"/>
      </g>
     </g>
     <g id="text_4">
      <!-- 300 -->
      <g transform="translate(296.38125 597.555938)scale(0.1 -0.1)">
       <defs>
        <path d="M 40.578125 39.3125 
Q 47.65625 37.796875 51.625 33 
Q 55.609375 28.21875 55.609375 21.1875 
Q 55.609375 10.40625 48.1875 4.484375 
Q 40.765625 -1.421875 27.09375 -1.421875 
Q 22.515625 -1.421875 17.65625 -0.515625 
Q 12.796875 0.390625 7.625 2.203125 
L 7.625 11.71875 
Q 11.71875 9.328125 16.59375 8.109375 
Q 21.484375 6.890625 26.8125 6.890625 
Q 36.078125 6.890625 40.9375 10.546875 
Q 45.796875 14.203125 45.796875 21.1875 
Q 45.796875 27.640625 41.28125 31.265625 
Q 36.765625 34.90625 28.71875 34.90625 
L 20.21875 34.90625 
L 20.21875 43.015625 
L 29.109375 43.015625 
Q 36.375 43.015625 40.234375 45.921875 
Q 44.09375 48.828125 44.09375 54.296875 
Q 44.09375 59.90625 40.109375 62.90625 
Q 36.140625 65.921875 28.71875 65.921875 
Q 24.65625 65.921875 20.015625 65.03125 
Q 15.375 64.15625 9.8125 62.3125 
L 9.8125 71.09375 
Q 15.4375 72.65625 20.34375 73.4375 
Q 25.25 74.21875 29.59375 74.21875 
Q 40.828125 74.21875 47.359375 69.109375 
Q 53.90625 64.015625 53.90625 55.328125 
Q 53.90625 49.265625 50.4375 45.09375 
Q 46.96875 40.921875 40.578125 39.3125 
z
" id="DejaVuSans-51"/>
       </defs>
       <use xlink:href="#DejaVuSans-51"/>
       <use x="63.623047" xlink:href="#DejaVuSans-48"/>
       <use x="127.246094" xlink:href="#DejaVuSans-48"/>
      </g>
     </g>
    </g>
    <g id="xtick_5">
     <g id="line2d_5">
      <g>
       <use style="stroke:#000000;stroke-width:0.8;" x="390.470455" xlink:href="#m84e3ac4cb9" y="582.9575"/>
      </g>
     </g>
     <g id="text_5">
      <!-- 400 -->
      <g transform="translate(380.926705 597.555938)scale(0.1 -0.1)">
       <defs>
        <path d="M 37.796875 64.3125 
L 12.890625 25.390625 
L 37.796875 25.390625 
z
M 35.203125 72.90625 
L 47.609375 72.90625 
L 47.609375 25.390625 
L 58.015625 25.390625 
L 58.015625 17.1875 
L 47.609375 17.1875 
L 47.609375 0 
L 37.796875 0 
L 37.796875 17.1875 
L 4.890625 17.1875 
L 4.890625 26.703125 
z
" id="DejaVuSans-52"/>
       </defs>
       <use xlink:href="#DejaVuSans-52"/>
       <use x="63.623047" xlink:href="#DejaVuSans-48"/>
       <use x="127.246094" xlink:href="#DejaVuSans-48"/>
      </g>
     </g>
    </g>
    <g id="xtick_6">
     <g id="line2d_6">
      <g>
       <use style="stroke:#000000;stroke-width:0.8;" x="475.015909" xlink:href="#m84e3ac4cb9" y="582.9575"/>
      </g>
     </g>
     <g id="text_6">
      <!-- 500 -->
      <g transform="translate(465.472159 597.555938)scale(0.1 -0.1)">
       <defs>
        <path d="M 10.796875 72.90625 
L 49.515625 72.90625 
L 49.515625 64.59375 
L 19.828125 64.59375 
L 19.828125 46.734375 
Q 21.96875 47.46875 24.109375 47.828125 
Q 26.265625 48.1875 28.421875 48.1875 
Q 40.625 48.1875 47.75 41.5 
Q 54.890625 34.8125 54.890625 23.390625 
Q 54.890625 11.625 47.5625 5.09375 
Q 40.234375 -1.421875 26.90625 -1.421875 
Q 22.3125 -1.421875 17.546875 -0.640625 
Q 12.796875 0.140625 7.71875 1.703125 
L 7.71875 11.625 
Q 12.109375 9.234375 16.796875 8.0625 
Q 21.484375 6.890625 26.703125 6.890625 
Q 35.15625 6.890625 40.078125 11.328125 
Q 45.015625 15.765625 45.015625 23.390625 
Q 45.015625 31 40.078125 35.4375 
Q 35.15625 39.890625 26.703125 39.890625 
Q 22.75 39.890625 18.8125 39.015625 
Q 14.890625 38.140625 10.796875 36.28125 
z
" id="DejaVuSans-53"/>
       </defs>
       <use xlink:href="#DejaVuSans-53"/>
       <use x="63.623047" xlink:href="#DejaVuSans-48"/>
       <use x="127.246094" xlink:href="#DejaVuSans-48"/>
      </g>
     </g>
    </g>
    <g id="xtick_7">
     <g id="line2d_7">
      <g>
       <use style="stroke:#000000;stroke-width:0.8;" x="559.561364" xlink:href="#m84e3ac4cb9" y="582.9575"/>
      </g>
     </g>
     <g id="text_7">
      <!-- 600 -->
      <g transform="translate(550.017614 597.555938)scale(0.1 -0.1)">
       <defs>
        <path d="M 33.015625 40.375 
Q 26.375 40.375 22.484375 35.828125 
Q 18.609375 31.296875 18.609375 23.390625 
Q 18.609375 15.53125 22.484375 10.953125 
Q 26.375 6.390625 33.015625 6.390625 
Q 39.65625 6.390625 43.53125 10.953125 
Q 47.40625 15.53125 47.40625 23.390625 
Q 47.40625 31.296875 43.53125 35.828125 
Q 39.65625 40.375 33.015625 40.375 
z
M 52.59375 71.296875 
L 52.59375 62.3125 
Q 48.875 64.0625 45.09375 64.984375 
Q 41.3125 65.921875 37.59375 65.921875 
Q 27.828125 65.921875 22.671875 59.328125 
Q 17.53125 52.734375 16.796875 39.40625 
Q 19.671875 43.65625 24.015625 45.921875 
Q 28.375 48.1875 33.59375 48.1875 
Q 44.578125 48.1875 50.953125 41.515625 
Q 57.328125 34.859375 57.328125 23.390625 
Q 57.328125 12.15625 50.6875 5.359375 
Q 44.046875 -1.421875 33.015625 -1.421875 
Q 20.359375 -1.421875 13.671875 8.265625 
Q 6.984375 17.96875 6.984375 36.375 
Q 6.984375 53.65625 15.1875 63.9375 
Q 23.390625 74.21875 37.203125 74.21875 
Q 40.921875 74.21875 44.703125 73.484375 
Q 48.484375 72.75 52.59375 71.296875 
z
" id="DejaVuSans-54"/>
       </defs>
       <use xlink:href="#DejaVuSans-54"/>
       <use x="63.623047" xlink:href="#DejaVuSans-48"/>
       <use x="127.246094" xlink:href="#DejaVuSans-48"/>
      </g>
     </g>
    </g>
    <g id="text_8">
     <!-- Epochs -->
     <g transform="translate(288.009375 611.234063)scale(0.1 -0.1)">
      <defs>
       <path d="M 9.8125 72.90625 
L 55.90625 72.90625 
L 55.90625 64.59375 
L 19.671875 64.59375 
L 19.671875 43.015625 
L 54.390625 43.015625 
L 54.390625 34.71875 
L 19.671875 34.71875 
L 19.671875 8.296875 
L 56.78125 8.296875 
L 56.78125 0 
L 9.8125 0 
z
" id="DejaVuSans-69"/>
       <path d="M 18.109375 8.203125 
L 18.109375 -20.796875 
L 9.078125 -20.796875 
L 9.078125 54.6875 
L 18.109375 54.6875 
L 18.109375 46.390625 
Q 20.953125 51.265625 25.265625 53.625 
Q 29.59375 56 35.59375 56 
Q 45.5625 56 51.78125 48.09375 
Q 58.015625 40.1875 58.015625 27.296875 
Q 58.015625 14.40625 51.78125 6.484375 
Q 45.5625 -1.421875 35.59375 -1.421875 
Q 29.59375 -1.421875 25.265625 0.953125 
Q 20.953125 3.328125 18.109375 8.203125 
z
M 48.6875 27.296875 
Q 48.6875 37.203125 44.609375 42.84375 
Q 40.53125 48.484375 33.40625 48.484375 
Q 26.265625 48.484375 22.1875 42.84375 
Q 18.109375 37.203125 18.109375 27.296875 
Q 18.109375 17.390625 22.1875 11.75 
Q 26.265625 6.109375 33.40625 6.109375 
Q 40.53125 6.109375 44.609375 11.75 
Q 48.6875 17.390625 48.6875 27.296875 
z
" id="DejaVuSans-112"/>
       <path d="M 30.609375 48.390625 
Q 23.390625 48.390625 19.1875 42.75 
Q 14.984375 37.109375 14.984375 27.296875 
Q 14.984375 17.484375 19.15625 11.84375 
Q 23.34375 6.203125 30.609375 6.203125 
Q 37.796875 6.203125 41.984375 11.859375 
Q 46.1875 17.53125 46.1875 27.296875 
Q 46.1875 37.015625 41.984375 42.703125 
Q 37.796875 48.390625 30.609375 48.390625 
z
M 30.609375 56 
Q 42.328125 56 49.015625 48.375 
Q 55.71875 40.765625 55.71875 27.296875 
Q 55.71875 13.875 49.015625 6.21875 
Q 42.328125 -1.421875 30.609375 -1.421875 
Q 18.84375 -1.421875 12.171875 6.21875 
Q 5.515625 13.875 5.515625 27.296875 
Q 5.515625 40.765625 12.171875 48.375 
Q 18.84375 56 30.609375 56 
z
" id="DejaVuSans-111"/>
       <path d="M 48.78125 52.59375 
L 48.78125 44.1875 
Q 44.96875 46.296875 41.140625 47.34375 
Q 37.3125 48.390625 33.40625 48.390625 
Q 24.65625 48.390625 19.8125 42.84375 
Q 14.984375 37.3125 14.984375 27.296875 
Q 14.984375 17.28125 19.8125 11.734375 
Q 24.65625 6.203125 33.40625 6.203125 
Q 37.3125 6.203125 41.140625 7.25 
Q 44.96875 8.296875 48.78125 10.40625 
L 48.78125 2.09375 
Q 45.015625 0.34375 40.984375 -0.53125 
Q 36.96875 -1.421875 32.421875 -1.421875 
Q 20.0625 -1.421875 12.78125 6.34375 
Q 5.515625 14.109375 5.515625 27.296875 
Q 5.515625 40.671875 12.859375 48.328125 
Q 20.21875 56 33.015625 56 
Q 37.15625 56 41.109375 55.140625 
Q 45.0625 54.296875 48.78125 52.59375 
z
" id="DejaVuSans-99"/>
       <path d="M 54.890625 33.015625 
L 54.890625 0 
L 45.90625 0 
L 45.90625 32.71875 
Q 45.90625 40.484375 42.875 44.328125 
Q 39.84375 48.1875 33.796875 48.1875 
Q 26.515625 48.1875 22.3125 43.546875 
Q 18.109375 38.921875 18.109375 30.90625 
L 18.109375 0 
L 9.078125 0 
L 9.078125 75.984375 
L 18.109375 75.984375 
L 18.109375 46.1875 
Q 21.34375 51.125 25.703125 53.5625 
Q 30.078125 56 35.796875 56 
Q 45.21875 56 50.046875 50.171875 
Q 54.890625 44.34375 54.890625 33.015625 
z
" id="DejaVuSans-104"/>
       <path d="M 44.28125 53.078125 
L 44.28125 44.578125 
Q 40.484375 46.53125 36.375 47.5 
Q 32.28125 48.484375 27.875 48.484375 
Q 21.1875 48.484375 17.84375 46.4375 
Q 14.5 44.390625 14.5 40.28125 
Q 14.5 37.15625 16.890625 35.375 
Q 19.28125 33.59375 26.515625 31.984375 
L 29.59375 31.296875 
Q 39.15625 29.25 43.1875 25.515625 
Q 47.21875 21.78125 47.21875 15.09375 
Q 47.21875 7.46875 41.1875 3.015625 
Q 35.15625 -1.421875 24.609375 -1.421875 
Q 20.21875 -1.421875 15.453125 -0.5625 
Q 10.6875 0.296875 5.421875 2 
L 5.421875 11.28125 
Q 10.40625 8.6875 15.234375 7.390625 
Q 20.0625 6.109375 24.8125 6.109375 
Q 31.15625 6.109375 34.5625 8.28125 
Q 37.984375 10.453125 37.984375 14.40625 
Q 37.984375 18.0625 35.515625 20.015625 
Q 33.0625 21.96875 24.703125 23.78125 
L 21.578125 24.515625 
Q 13.234375 26.265625 9.515625 29.90625 
Q 5.8125 33.546875 5.8125 39.890625 
Q 5.8125 47.609375 11.28125 51.796875 
Q 16.75 56 26.8125 56 
Q 31.78125 56 36.171875 55.265625 
Q 40.578125 54.546875 44.28125 53.078125 
z
" id="DejaVuSans-115"/>
      </defs>
      <use xlink:href="#DejaVuSans-69"/>
      <use x="63.183594" xlink:href="#DejaVuSans-112"/>
      <use x="126.660156" xlink:href="#DejaVuSans-111"/>
      <use x="187.841797" xlink:href="#DejaVuSans-99"/>
      <use x="242.822266" xlink:href="#DejaVuSans-104"/>
      <use x="306.201172" xlink:href="#DejaVuSans-115"/>
     </g>
    </g>
   </g>
   <g id="matplotlib.axis_2">
    <g id="ytick_1">
     <g id="line2d_8">
      <defs>
       <path d="M 0 0 
L -3.5 0 
" id="mff9b0cb112" style="stroke:#000000;stroke-width:0.8;"/>
      </defs>
      <g>
       <use style="stroke:#000000;stroke-width:0.8;" x="26.925" xlink:href="#mff9b0cb112" y="558.248409"/>
      </g>
     </g>
     <g id="text_9">
      <!-- 0 -->
      <g transform="translate(13.5625 562.047628)scale(0.1 -0.1)">
       <use xlink:href="#DejaVuSans-48"/>
      </g>
     </g>
    </g>
    <g id="ytick_2">
     <g id="line2d_9">
      <g>
       <use style="stroke:#000000;stroke-width:0.8;" x="26.925" xlink:href="#mff9b0cb112" y="480.991984"/>
      </g>
     </g>
     <g id="text_10">
      <!-- 10 -->
      <g transform="translate(7.2 484.791202)scale(0.1 -0.1)">
       <use xlink:href="#DejaVuSans-49"/>
       <use x="63.623047" xlink:href="#DejaVuSans-48"/>
      </g>
     </g>
    </g>
    <g id="ytick_3">
     <g id="line2d_10">
      <g>
       <use style="stroke:#000000;stroke-width:0.8;" x="26.925" xlink:href="#mff9b0cb112" y="403.735558"/>
      </g>
     </g>
     <g id="text_11">
      <!-- 20 -->
      <g transform="translate(7.2 407.534777)scale(0.1 -0.1)">
       <use xlink:href="#DejaVuSans-50"/>
       <use x="63.623047" xlink:href="#DejaVuSans-48"/>
      </g>
     </g>
    </g>
    <g id="ytick_4">
     <g id="line2d_11">
      <g>
       <use style="stroke:#000000;stroke-width:0.8;" x="26.925" xlink:href="#mff9b0cb112" y="326.479133"/>
      </g>
     </g>
     <g id="text_12">
      <!-- 30 -->
      <g transform="translate(7.2 330.278352)scale(0.1 -0.1)">
       <use xlink:href="#DejaVuSans-51"/>
       <use x="63.623047" xlink:href="#DejaVuSans-48"/>
      </g>
     </g>
    </g>
    <g id="ytick_5">
     <g id="line2d_12">
      <g>
       <use style="stroke:#000000;stroke-width:0.8;" x="26.925" xlink:href="#mff9b0cb112" y="249.222708"/>
      </g>
     </g>
     <g id="text_13">
      <!-- 40 -->
      <g transform="translate(7.2 253.021926)scale(0.1 -0.1)">
       <use xlink:href="#DejaVuSans-52"/>
       <use x="63.623047" xlink:href="#DejaVuSans-48"/>
      </g>
     </g>
    </g>
    <g id="ytick_6">
     <g id="line2d_13">
      <g>
       <use style="stroke:#000000;stroke-width:0.8;" x="26.925" xlink:href="#mff9b0cb112" y="171.966282"/>
      </g>
     </g>
     <g id="text_14">
      <!-- 50 -->
      <g transform="translate(7.2 175.765501)scale(0.1 -0.1)">
       <use xlink:href="#DejaVuSans-53"/>
       <use x="63.623047" xlink:href="#DejaVuSans-48"/>
      </g>
     </g>
    </g>
    <g id="ytick_7">
     <g id="line2d_14">
      <g>
       <use style="stroke:#000000;stroke-width:0.8;" x="26.925" xlink:href="#mff9b0cb112" y="94.709857"/>
      </g>
     </g>
     <g id="text_15">
      <!-- 60 -->
      <g transform="translate(7.2 98.509076)scale(0.1 -0.1)">
       <use xlink:href="#DejaVuSans-54"/>
       <use x="63.623047" xlink:href="#DejaVuSans-48"/>
      </g>
     </g>
    </g>
   </g>
   <g id="line2d_15">
    <path clip-path="url(#pd93ee21784)" d="M 52.288636 467.808505 
L 53.134091 469.29411 
L 54.825 473.040735 
L 57.361364 479.658813 
L 59.897727 487.224909 
L 62.434091 494.979588 
L 64.970455 501.714284 
L 68.352273 509.786805 
L 70.888636 515.238298 
L 72.579545 518.416452 
L 75.961364 524.027866 
L 77.652273 526.62234 
L 81.879545 532.079245 
L 84.415909 535.072068 
L 86.106818 536.814473 
L 88.643182 539.008595 
L 91.179545 540.980818 
L 93.715909 542.655028 
L 95.406818 543.613198 
L 98.788636 545.239332 
L 103.861364 547.241552 
L 107.243182 548.36169 
L 111.470455 549.498541 
L 116.543182 550.484771 
L 120.770455 551.074751 
L 126.688636 551.688923 
L 135.143182 552.289235 
L 147.825 552.898634 
L 166.425 553.54199 
L 195.170455 554.29607 
L 234.906818 555.106097 
L 283.943182 555.874929 
L 346.506818 556.630772 
L 425.979545 557.354422 
L 532.506818 558.091371 
L 559.561364 558.248409 
L 559.561364 558.248409 
" style="fill:none;stroke:#1f77b4;stroke-linecap:square;stroke-width:1.5;"/>
   </g>
   <g id="line2d_16">
    <path clip-path="url(#pd93ee21784)" d="M 52.288636 400.68617 
L 53.134091 402.905167 
L 54.825 408.561424 
L 56.515909 414.299705 
L 61.588636 433.903069 
L 62.434091 436.904986 
L 63.279545 439.293528 
L 64.970455 443.097406 
L 65.815909 444.543364 
L 66.661364 445.757823 
L 68.352273 447.613665 
L 69.197727 448.283925 
L 71.734091 449.735586 
L 72.579545 450.052352 
L 73.425 450.09891 
L 74.270455 450.27074 
L 82.725 449.336531 
L 83.570455 449.620896 
L 84.415909 449.555413 
L 86.106818 448.88207 
L 87.797727 448.693324 
L 89.488636 448.784354 
L 91.179545 448.09561 
L 93.715909 448.182021 
L 94.561364 448.496632 
L 95.406818 448.417037 
L 96.252273 448.065416 
L 97.097727 448.146143 
L 97.943182 447.973045 
L 98.788636 447.670283 
L 99.634091 447.630206 
L 100.479545 447.956073 
L 101.325 447.988434 
L 103.015909 447.612784 
L 104.706818 447.923841 
L 106.397727 447.779542 
L 107.243182 448.099239 
L 108.088636 448.23935 
L 109.779545 447.982239 
L 111.470455 448.385532 
L 113.161364 448.348621 
L 114.006818 448.656267 
L 114.852273 448.641241 
L 115.697727 448.447776 
L 117.388636 448.790843 
L 119.079545 448.804703 
L 119.925 449.113923 
L 120.770455 449.111297 
L 121.615909 448.953889 
L 122.461364 449.222545 
L 123.306818 449.285475 
L 124.152273 449.16276 
L 124.997727 449.214743 
L 125.843182 449.527864 
L 126.688636 449.599006 
L 127.534091 449.473328 
L 128.379545 449.727482 
L 129.225 449.782304 
L 130.070455 449.685812 
L 130.915909 450.03259 
L 131.761364 450.091411 
L 132.606818 449.937021 
L 133.452273 450.322099 
L 134.297727 450.300245 
L 135.143182 450.084167 
L 135.988636 450.617936 
L 136.834091 450.687356 
L 137.679545 450.384277 
L 139.370455 450.798878 
L 141.061364 450.79471 
L 141.906818 451.144467 
L 143.597727 450.856865 
L 144.443182 451.424205 
L 145.288636 451.216551 
L 146.134091 450.738842 
L 146.979545 451.228254 
L 147.825 451.330161 
L 148.670455 450.960186 
L 150.361364 451.264842 
L 152.052273 450.908989 
L 152.897727 451.265628 
L 153.743182 451.146785 
L 154.588636 450.791043 
L 155.434091 451.158527 
L 156.279545 451.09989 
L 157.125 450.797353 
L 157.970455 451.182185 
L 158.815909 451.110989 
L 159.661364 450.802821 
L 160.506818 451.179252 
L 161.352273 451.137822 
L 162.197727 450.821284 
L 163.043182 451.107179 
L 163.888636 451.079682 
L 164.734091 450.810343 
L 165.579545 451.009384 
L 166.425 450.944955 
L 167.270455 450.67881 
L 168.115909 450.810096 
L 168.961364 450.728656 
L 169.806818 450.503351 
L 170.652273 450.642603 
L 172.343182 450.354642 
L 173.188636 450.538328 
L 174.879545 450.24701 
L 175.725 450.473227 
L 177.415909 450.170166 
L 178.261364 450.420113 
L 179.952273 450.103815 
L 180.797727 450.336046 
L 181.643182 450.23541 
L 182.488636 449.991948 
L 183.334091 450.171546 
L 184.179545 450.101523 
L 185.025 449.875978 
L 185.870455 449.993348 
L 186.715909 449.948802 
L 187.561364 449.748215 
L 189.252273 449.778539 
L 190.097727 449.599791 
L 191.788636 449.559192 
L 193.479545 449.352771 
L 195.170455 449.246255 
L 216.306818 447.747297 
L 228.988636 447.120096 
L 273.797727 445.303217 
L 294.088636 444.751624 
L 316.915909 444.331418 
L 343.125 444.087266 
L 382.015909 443.936021 
L 436.125 443.9916 
L 522.361364 444.409495 
L 559.561364 444.61922 
L 559.561364 444.61922 
" style="fill:none;stroke:#ff7f0e;stroke-linecap:square;stroke-width:1.5;"/>
   </g>
   <g id="line2d_17">
    <path clip-path="url(#pd93ee21784)" d="M 52.288636 400.68617 
L 53.134091 402.653273 
L 53.979545 401.930579 
L 54.825 403.714614 
L 57.361364 408.285991 
L 59.052273 410.09202 
L 59.897727 410.207928 
L 60.743182 409.872709 
L 61.588636 408.929754 
L 62.434091 407.521431 
L 63.279545 405.586489 
L 64.125 402.441851 
L 64.970455 398.308811 
L 65.815909 393.554033 
L 66.661364 387.633683 
L 68.352273 373.260491 
L 70.043182 356.747348 
L 71.734091 337.917675 
L 78.497727 251.550159 
L 81.034091 218.561676 
L 84.415909 172.646311 
L 87.797727 130.538058 
L 90.334091 103.993504 
L 91.179545 96.404303 
L 92.870455 84.040376 
L 93.715909 78.863329 
L 94.561364 74.407115 
L 95.406818 70.798751 
L 96.252273 68.030147 
L 97.097727 66.082394 
L 97.943182 64.852575 
L 98.788636 64.212371 
L 99.634091 64.066591 
L 100.479545 64.355449 
L 101.325 65.060354 
L 102.170455 66.183962 
L 103.015909 67.726124 
L 103.861364 69.676166 
L 104.706818 72.001473 
L 106.397727 77.574458 
L 108.934091 87.288969 
L 112.315909 101.211071 
L 121.615909 141.013615 
L 124.152273 150.736876 
L 126.688636 159.436414 
L 129.225 167.165751 
L 130.915909 171.743962 
L 133.452273 177.73012 
L 135.143182 181.343692 
L 136.834091 184.472604 
L 139.370455 188.640342 
L 141.061364 191.11366 
L 143.597727 194.3023 
L 145.288636 196.002196 
L 146.979545 197.474335 
L 149.515909 199.319727 
L 154.588636 202.467679 
L 158.815909 205.189091 
L 163.043182 208.219281 
L 168.115909 212.196218 
L 179.106818 221.069701 
L 181.643182 222.923188 
L 190.097727 229.407246 
L 195.170455 233.266814 
L 199.397727 236.27889 
L 205.315909 240.221746 
L 219.688636 249.439492 
L 227.297727 253.983043 
L 234.061364 257.815755 
L 243.361364 262.81861 
L 252.661364 267.603275 
L 263.652273 272.988875 
L 272.952273 277.327939 
L 282.252273 281.433202 
L 294.934091 286.755543 
L 309.306818 292.521004 
L 319.452273 296.336909 
L 328.752273 299.540184 
L 342.279545 303.957163 
L 354.961364 307.86271 
L 371.025 312.536136 
L 387.088636 317.002244 
L 402.306818 320.964202 
L 415.834091 324.330896 
L 435.279545 328.920987 
L 448.806818 331.941403 
L 467.406818 335.906105 
L 484.315909 339.271214 
L 503.761364 342.9429 
L 518.979545 345.674595 
L 538.425 349.032934 
L 559.561364 352.515649 
L 559.561364 352.515649 
" style="fill:none;stroke:#2ca02c;stroke-linecap:square;stroke-width:1.5;"/>
   </g>
   <g id="line2d_18">
    <path clip-path="url(#pd93ee21784)" d="M 52.288636 400.68617 
L 53.134091 402.557464 
L 53.979545 401.585736 
L 55.670455 409.299433 
L 57.361364 415.472412 
L 59.897727 422.851949 
L 60.743182 424.651284 
L 61.588636 425.563788 
L 62.434091 426.227483 
L 63.279545 426.34943 
L 64.125 425.452128 
L 64.970455 423.395662 
L 65.815909 420.593797 
L 67.506818 412.671324 
L 69.197727 402.932163 
L 72.579545 379.586093 
L 73.425 373.290842 
L 75.115909 364.294029 
L 78.497727 341.240479 
L 80.188636 328.559987 
L 81.879545 316.544809 
L 82.725 311.974143 
L 83.570455 306.651888 
L 84.415909 300.177719 
L 90.334091 262.453859 
L 92.025 253.826263 
L 92.870455 250.25278 
L 93.715909 247.682732 
L 94.561364 245.900337 
L 95.406818 244.975826 
L 96.252273 244.985368 
L 97.097727 245.321908 
L 97.943182 246.125508 
L 98.788636 247.935664 
L 100.479545 253.363408 
L 101.325 256.452325 
L 104.706818 271.198196 
L 106.397727 278.917278 
L 108.088636 285.0935 
L 108.934091 287.900872 
L 109.779545 290.111372 
L 111.470455 293.703298 
L 112.315909 295.149943 
L 114.852273 297.844654 
L 116.543182 299.180681 
L 117.388636 299.967125 
L 119.079545 301.201953 
L 122.461364 304.358281 
L 124.997727 307.202363 
L 129.225 313.238214 
L 132.606818 318.449742 
L 135.988636 323.430756 
L 137.679545 325.655617 
L 139.370455 327.635851 
L 141.906818 330.047543 
L 144.443182 331.896019 
L 148.670455 334.648011 
L 151.206818 336.544304 
L 161.352273 344.851269 
L 164.734091 347.066584 
L 178.261364 355.413463 
L 184.179545 358.627143 
L 195.170455 363.91819 
L 202.779545 367.349868 
L 209.543182 370.267078 
L 210.388636 370.536544 
L 211.234091 370.951757 
L 212.079545 371.193205 
L 212.925 371.621308 
L 213.770455 371.850605 
L 214.615909 372.270096 
L 215.461364 372.51055 
L 216.306818 372.915115 
L 217.152273 373.17649 
L 218.843182 373.839596 
L 221.379545 374.859399 
L 223.915909 375.728803 
L 224.761364 376.088299 
L 225.606818 376.31038 
L 226.452273 376.692826 
L 227.297727 376.85073 
L 228.143182 377.306133 
L 228.988636 377.343692 
L 229.834091 377.925813 
L 230.679545 377.802536 
L 231.525 378.477434 
L 232.370455 378.240682 
L 233.215909 378.910678 
L 234.061364 378.711942 
L 234.906818 379.222167 
L 235.752273 379.301381 
L 236.597727 379.568203 
L 237.443182 379.983972 
L 238.288636 380.049405 
L 239.134091 380.653448 
L 239.979545 380.678484 
L 240.825 381.243939 
L 241.670455 381.410471 
L 243.361364 382.172254 
L 244.206818 382.382544 
L 245.052273 382.895793 
L 245.897727 382.961503 
L 246.743182 383.509419 
L 247.588636 383.512242 
L 248.434091 383.990601 
L 249.279545 384.026468 
L 250.125 384.391422 
L 251.815909 384.785513 
L 254.352273 385.543434 
L 255.197727 385.663323 
L 256.043182 386.045267 
L 256.888636 386.14789 
L 257.734091 386.543738 
L 258.579545 386.652313 
L 259.425 387.039467 
L 260.270455 387.170201 
L 261.115909 387.533997 
L 261.961364 387.695391 
L 262.806818 388.031226 
L 263.652273 388.219383 
L 265.343182 388.735825 
L 267.879545 389.498592 
L 279.715909 392.459503 
L 280.561364 392.853958 
L 281.406818 392.810025 
L 282.252273 393.309865 
L 283.097727 393.08807 
L 283.943182 393.678199 
L 284.788636 393.28568 
L 285.634091 393.878926 
L 286.479545 393.465668 
L 287.325 393.909634 
L 288.170455 393.825529 
L 289.015909 393.985105 
L 289.861364 394.391995 
L 290.706818 394.333845 
L 291.552273 394.947714 
L 292.397727 394.956988 
L 293.243182 395.415673 
L 294.088636 395.741336 
L 294.934091 395.912689 
L 295.779545 396.469055 
L 296.625 396.474137 
L 297.470455 397.007463 
L 298.315909 397.031743 
L 299.161364 397.37508 
L 303.388636 398.326236 
L 304.234091 398.283213 
L 305.079545 398.576869 
L 305.925 398.602392 
L 307.615909 398.967096 
L 308.461364 399.064621 
L 309.306818 399.340551 
L 310.152273 399.387616 
L 310.997727 399.699369 
L 311.843182 399.77625 
L 312.688636 400.0447 
L 314.379545 400.384532 
L 315.225 400.625905 
L 316.070455 400.743301 
L 316.915909 401.023185 
L 317.761364 401.105452 
L 318.606818 401.375466 
L 319.452273 401.465591 
L 321.143182 401.810377 
L 330.443182 403.445061 
L 334.670455 404.180767 
L 338.052273 404.817212 
L 355.806818 407.728947 
L 363.415909 408.909287 
L 374.406818 410.546775 
L 389.625 412.670059 
L 390.470455 412.724031 
L 392.161364 412.960605 
L 394.697727 413.348481 
L 398.925 413.903801 
L 403.152273 414.461977 
L 405.688636 414.731679 
L 408.225 415.08453 
L 409.070455 415.128548 
L 409.915909 415.293621 
L 410.761364 415.326123 
L 411.606818 415.504933 
L 412.452273 415.518908 
L 413.297727 415.7201 
L 414.143182 415.703873 
L 414.988636 415.930736 
L 415.834091 415.87027 
L 416.679545 416.121947 
L 417.525 416.017788 
L 418.370455 416.287275 
L 419.215909 416.149521 
L 420.061364 416.429135 
L 420.906818 416.284779 
L 421.752273 416.557614 
L 422.597727 416.453306 
L 423.443182 416.687627 
L 424.288636 416.689784 
L 427.670455 417.329034 
L 428.515909 417.363713 
L 429.361364 417.629852 
L 430.206818 417.622554 
L 431.052273 417.870203 
L 431.897727 417.844284 
L 432.743182 418.048125 
L 433.588636 418.031856 
L 434.434091 418.189361 
L 436.125 418.325952 
L 439.506818 418.653133 
L 442.043182 418.989323 
L 444.579545 419.258692 
L 447.961364 419.659338 
L 480.088636 422.882735 
L 480.934091 422.88836 
L 481.779545 423.031095 
L 482.625 423.031135 
L 483.470455 423.17551 
L 484.315909 423.181739 
L 486.006818 423.345347 
L 489.388636 423.698037 
L 546.879545 428.350346 
L 551.106818 428.624007 
L 554.488636 428.870071 
L 559.561364 429.245259 
L 559.561364 429.245259 
" style="fill:none;stroke:#d62728;stroke-linecap:square;stroke-width:1.5;"/>
   </g>
   <g id="line2d_19">
    <path clip-path="url(#pd93ee21784)" d="M 52.288636 400.68617 
L 53.134091 402.160462 
L 53.979545 406.198245 
L 54.825 406.807645 
L 55.670455 407.667202 
L 57.361364 411.99706 
L 58.206818 414.197338 
L 59.052273 416.048172 
L 59.897727 417.214727 
L 60.743182 418.096734 
L 61.588636 419.197311 
L 62.434091 420.831502 
L 64.125 424.678822 
L 64.970455 426.187167 
L 66.661364 428.199548 
L 69.197727 430.173552 
L 70.043182 431.202385 
L 71.734091 433.692858 
L 72.579545 434.693141 
L 73.425 435.460941 
L 74.270455 436.03816 
L 75.961364 436.42002 
L 77.652273 437.352182 
L 80.188636 438.309636 
L 81.034091 437.620332 
L 83.570455 433.456691 
L 84.415909 432.165929 
L 86.952273 429.20185 
L 87.797727 428.758103 
L 88.643182 428.128858 
L 89.488636 426.847251 
L 90.334091 426.204242 
L 91.179545 425.831165 
L 92.025 424.723456 
L 92.870455 423.147096 
L 93.715909 422.952741 
L 94.561364 422.958461 
L 95.406818 422.254722 
L 96.252273 421.17281 
L 97.097727 421.412003 
L 97.943182 422.042634 
L 98.788636 421.520139 
L 99.634091 420.253472 
L 100.479545 419.812944 
L 101.325 420.408051 
L 102.170455 420.644146 
L 103.015909 420.246704 
L 103.861364 419.698107 
L 105.552273 419.449145 
L 106.397727 418.978866 
L 107.243182 418.358512 
L 108.088636 419.444442 
L 108.934091 419.821076 
L 109.779545 419.12453 
L 110.625 418.608682 
L 111.470455 419.227486 
L 112.315909 419.189892 
L 113.161364 418.492606 
L 114.006818 418.099345 
L 114.852273 418.982198 
L 115.697727 419.188447 
L 116.543182 418.755678 
L 117.388636 418.1442 
L 118.234091 418.801338 
L 119.079545 419.234825 
L 119.925 419.051753 
L 120.770455 418.620259 
L 122.461364 419.042007 
L 123.306818 418.638534 
L 124.152273 417.780244 
L 124.997727 416.67367 
L 125.843182 416.047909 
L 126.688636 415.155866 
L 127.534091 413.954079 
L 128.379545 412.159663 
L 129.225 410.864565 
L 130.070455 407.984499 
L 132.606818 395.434414 
L 133.452273 393.308996 
L 134.297727 391.686287 
L 135.143182 390.781541 
L 135.988636 390.916428 
L 136.834091 390.874897 
L 137.679545 390.37446 
L 138.525 390.318802 
L 139.370455 391.020512 
L 140.215909 391.870523 
L 141.061364 392.2784 
L 141.906818 393.028518 
L 143.597727 395.908626 
L 144.443182 396.688613 
L 145.288636 397.269859 
L 146.134091 397.990229 
L 146.979545 398.179052 
L 148.670455 397.49232 
L 149.515909 397.527581 
L 152.052273 398.150998 
L 152.897727 399.040204 
L 154.588636 401.172026 
L 155.434091 402.133964 
L 157.125 404.468664 
L 157.970455 405.181394 
L 160.506818 406.571089 
L 163.043182 406.731154 
L 165.579545 407.275846 
L 167.270455 408.305002 
L 168.961364 409.356445 
L 170.652273 410.636218 
L 172.343182 411.464851 
L 174.034091 412.126494 
L 179.106818 413.12731 
L 182.488636 414.371593 
L 185.025 415.444275 
L 187.561364 416.36749 
L 203.625 420.522617 
L 223.070455 424.038569 
L 234.906818 425.789244 
L 248.434091 427.436537 
L 263.652273 428.993517 
L 278.870455 430.300829 
L 297.470455 431.650398 
L 316.070455 432.761035 
L 337.206818 433.803343 
L 361.725 434.794374 
L 390.470455 435.715946 
L 419.215909 436.430551 
L 458.106818 437.176237 
L 505.452273 437.85044 
L 559.561364 438.403789 
L 559.561364 438.403789 
" style="fill:none;stroke:#9467bd;stroke-linecap:square;stroke-width:1.5;"/>
   </g>
   <g id="line2d_20">
    <path clip-path="url(#pd93ee21784)" d="M 52.288636 400.68617 
L 53.134091 401.877628 
L 53.979545 404.996547 
L 54.825 405.046394 
L 55.670455 404.517258 
L 56.515909 405.29379 
L 58.206818 408.879884 
L 59.052273 410.250418 
L 59.897727 410.959698 
L 60.743182 411.032703 
L 61.588636 410.850641 
L 62.434091 410.878294 
L 63.279545 411.375022 
L 64.970455 413.186262 
L 68.352273 417.138744 
L 70.043182 419.045337 
L 72.579545 422.652049 
L 74.270455 424.614459 
L 75.961364 426.120219 
L 76.806818 426.425342 
L 78.497727 426.807836 
L 79.343182 427.283197 
L 81.879545 429.787765 
L 83.570455 431.179608 
L 84.415909 431.869971 
L 85.261364 432.85491 
L 86.106818 434.109663 
L 86.952273 435.90951 
L 87.797727 437.374015 
L 89.488636 439.375652 
L 90.334091 440.559723 
L 91.179545 441.242937 
L 92.870455 440.015517 
L 93.715909 440.28038 
L 94.561364 440.778499 
L 95.406818 440.353626 
L 96.252273 440.147595 
L 97.097727 440.594171 
L 97.943182 440.754429 
L 98.788636 440.193989 
L 99.634091 440.059754 
L 100.479545 440.118799 
L 101.325 439.135784 
L 102.170455 438.416818 
L 103.015909 438.622154 
L 103.861364 438.221069 
L 104.706818 437.168021 
L 105.552273 437.199247 
L 106.397727 437.570408 
L 107.243182 436.860615 
L 108.088636 435.66882 
L 108.934091 435.756454 
L 109.779545 436.155734 
L 110.625 435.256768 
L 111.470455 433.396792 
L 112.315909 432.948459 
L 113.161364 433.471119 
L 114.006818 433.279731 
L 114.852273 432.295778 
L 115.697727 431.857625 
L 116.543182 431.929998 
L 117.388636 431.622237 
L 118.234091 430.697515 
L 119.079545 430.007958 
L 120.770455 429.622575 
L 121.615909 428.964345 
L 122.461364 428.506488 
L 123.306818 428.671007 
L 124.152273 428.508182 
L 124.997727 428.108631 
L 126.688636 428.236218 
L 127.534091 427.891484 
L 128.379545 427.809094 
L 129.225 427.984663 
L 130.915909 427.397718 
L 131.761364 427.712539 
L 132.606818 427.648963 
L 133.452273 427.355102 
L 134.297727 427.739506 
L 135.143182 427.686165 
L 135.988636 427.444016 
L 136.834091 427.926276 
L 138.525 427.715739 
L 139.370455 428.222899 
L 140.215909 428.023196 
L 141.061364 427.990263 
L 141.906818 428.504503 
L 142.752273 428.278559 
L 143.597727 428.322558 
L 144.443182 428.772868 
L 145.288636 428.619447 
L 146.134091 428.852065 
L 146.979545 429.305304 
L 147.825 429.151087 
L 148.670455 429.604352 
L 149.515909 429.804926 
L 150.361364 429.706582 
L 151.206818 430.18535 
L 152.052273 430.200674 
L 153.743182 430.711284 
L 154.588636 430.607668 
L 155.434091 430.997411 
L 157.125 431.04477 
L 157.970455 431.355902 
L 158.815909 431.259347 
L 159.661364 431.659257 
L 160.506818 431.627186 
L 161.352273 431.920806 
L 164.734091 432.439152 
L 165.579545 432.812362 
L 166.425 432.806589 
L 167.270455 433.169719 
L 168.115909 433.183288 
L 168.961364 433.497504 
L 169.806818 433.543853 
L 170.652273 433.789101 
L 171.497727 433.845751 
L 172.343182 434.0758 
L 173.188636 434.116981 
L 174.034091 434.394334 
L 174.879545 434.338829 
L 175.725 434.702763 
L 176.570455 434.525937 
L 177.415909 434.907724 
L 178.261364 434.719391 
L 179.106818 435.028743 
L 179.952273 434.97628 
L 182.488636 435.248559 
L 183.334091 435.560013 
L 184.179545 435.504413 
L 185.025 435.735526 
L 186.715909 435.89464 
L 187.561364 436.0802 
L 188.406818 436.078278 
L 189.252273 436.339208 
L 190.097727 436.325917 
L 190.943182 436.541978 
L 192.634091 436.727229 
L 193.479545 436.869957 
L 194.325 436.899111 
L 195.170455 437.079555 
L 196.015909 437.078007 
L 197.706818 437.276098 
L 202.779545 437.818824 
L 205.315909 438.087269 
L 208.697727 438.343929 
L 210.388636 438.505783 
L 234.061364 440.118775 
L 243.361364 440.599213 
L 254.352273 441.082541 
L 276.334091 441.822682 
L 310.152273 442.61587 
L 339.743182 443.093736 
L 374.406818 443.49845 
L 432.743182 443.931255 
L 513.906818 444.281084 
L 559.561364 444.409402 
L 559.561364 444.409402 
" style="fill:none;stroke:#8c564b;stroke-linecap:square;stroke-width:1.5;"/>
   </g>
   <g id="line2d_21">
    <path clip-path="url(#pd93ee21784)" d="M 52.288636 400.68617 
L 53.134091 401.698603 
L 53.979545 404.216838 
L 54.825 404.10344 
L 55.670455 403.345872 
L 56.515909 403.732477 
L 58.206818 406.501721 
L 59.052273 407.427295 
L 59.897727 407.787794 
L 60.743182 407.683101 
L 62.434091 407.130973 
L 63.279545 407.476585 
L 64.970455 409.209396 
L 65.815909 410.032641 
L 66.661364 410.546845 
L 69.197727 411.191581 
L 70.043182 411.737462 
L 72.579545 414.057277 
L 75.961364 416.360053 
L 77.652273 418.266907 
L 79.343182 420.090772 
L 80.188636 420.875248 
L 81.879545 422.232894 
L 83.570455 423.755817 
L 85.261364 424.867352 
L 86.952273 425.60692 
L 89.488636 427.340787 
L 91.179545 428.003411 
L 92.025 428.546831 
L 92.870455 429.547356 
L 94.561364 432.575779 
L 96.252273 434.882094 
L 97.097727 435.765674 
L 97.943182 437.320543 
L 98.788636 438.361214 
L 100.479545 441.589162 
L 102.170455 442.364468 
L 103.015909 443.270677 
L 103.861364 443.718939 
L 104.706818 443.657549 
L 105.552273 444.21765 
L 106.397727 444.439645 
L 107.243182 444.223721 
L 108.088636 444.192215 
L 108.934091 443.608321 
L 109.779545 443.229279 
L 111.470455 442.037506 
L 112.315909 441.76646 
L 113.161364 440.345094 
L 114.852273 439.916554 
L 115.697727 439.109627 
L 116.543182 439.077434 
L 117.388636 439.403941 
L 118.234091 439.024255 
L 119.079545 438.261883 
L 119.925 438.256292 
L 120.770455 438.079582 
L 121.615909 437.067398 
L 122.461364 436.664714 
L 123.306818 436.522656 
L 124.152273 435.618275 
L 125.843182 435.738697 
L 126.688636 435.371121 
L 127.534091 435.743374 
L 128.379545 435.940431 
L 129.225 435.953749 
L 130.070455 436.234744 
L 131.761364 436.134227 
L 132.606818 436.583885 
L 133.452273 436.315563 
L 134.297727 436.739103 
L 135.988636 436.681177 
L 136.834091 437.038229 
L 137.679545 436.708999 
L 138.525 437.201542 
L 140.215909 437.379097 
L 141.061364 437.835102 
L 141.906818 437.68253 
L 143.597727 438.086501 
L 144.443182 437.66965 
L 145.288636 438.136252 
L 146.979545 438.04828 
L 147.825 438.524824 
L 148.670455 438.349375 
L 149.515909 438.817858 
L 150.361364 438.946084 
L 151.206818 438.713964 
L 152.052273 439.060023 
L 153.743182 438.894233 
L 154.588636 439.213218 
L 155.434091 439.048246 
L 156.279545 439.333713 
L 157.970455 439.3611 
L 158.815909 439.709313 
L 159.661364 439.536626 
L 160.506818 439.901853 
L 161.352273 439.984275 
L 162.197727 439.937194 
L 163.043182 440.244292 
L 163.888636 440.152435 
L 164.734091 440.244426 
L 165.579545 440.453989 
L 166.425 440.324532 
L 167.270455 440.617539 
L 168.961364 440.72372 
L 169.806818 440.898983 
L 170.652273 440.845747 
L 171.497727 441.086047 
L 173.188636 441.114839 
L 174.034091 441.288637 
L 174.879545 441.196574 
L 175.725 441.406267 
L 177.415909 441.494589 
L 178.261364 441.624552 
L 179.106818 441.597583 
L 179.952273 441.776573 
L 181.643182 441.844489 
L 182.488636 441.974734 
L 183.334091 441.967443 
L 184.179545 442.132886 
L 185.870455 442.260637 
L 190.943182 442.693748 
L 193.479545 442.834463 
L 199.397727 443.202769 
L 202.779545 443.374437 
L 206.161364 443.565497 
L 212.079545 443.842353 
L 219.688636 444.142982 
L 237.443182 444.73439 
L 248.434091 445.002739 
L 282.252273 445.57836 
L 316.070455 445.949642 
L 388.779545 446.360778 
L 496.152273 446.581203 
L 559.561364 446.645563 
L 559.561364 446.645563 
" style="fill:none;stroke:#e377c2;stroke-linecap:square;stroke-width:1.5;"/>
   </g>
   <g id="line2d_22">
    <path clip-path="url(#pd93ee21784)" d="M 52.288636 400.68617 
L 53.134091 401.578776 
L 53.979545 403.743161 
L 54.825 403.574168 
L 55.670455 402.70203 
L 56.515909 402.787355 
L 58.206818 404.842981 
L 59.052273 405.458888 
L 59.897727 405.612694 
L 61.588636 405.306917 
L 62.434091 405.32794 
L 63.279545 405.765092 
L 65.815909 408.106723 
L 66.661364 408.388954 
L 69.197727 408.148268 
L 70.043182 408.521773 
L 70.888636 409.25859 
L 72.579545 411.027232 
L 73.425 411.646514 
L 74.270455 411.948021 
L 75.961364 412.268368 
L 76.806818 412.735803 
L 80.188636 415.416924 
L 81.879545 416.238778 
L 82.725 416.824925 
L 85.261364 419.084318 
L 86.952273 420.276804 
L 90.334091 423.093549 
L 92.025 423.871842 
L 92.870455 424.275519 
L 97.097727 426.89629 
L 97.943182 427.17857 
L 98.788636 427.622368 
L 99.634091 428.219741 
L 100.479545 429.01383 
L 102.170455 430.936152 
L 103.015909 431.173573 
L 103.861364 431.987424 
L 104.706818 433.35105 
L 106.397727 434.908342 
L 107.243182 436.085306 
L 108.088636 436.664327 
L 108.934091 437.736979 
L 109.779545 438.454291 
L 110.625 438.259652 
L 112.315909 439.545933 
L 113.161364 439.088903 
L 114.006818 439.374605 
L 114.852273 440.472155 
L 115.697727 440.955541 
L 116.543182 440.573887 
L 117.388636 440.615743 
L 118.234091 440.769892 
L 119.079545 440.135431 
L 119.925 439.270933 
L 120.770455 439.053424 
L 121.615909 439.011633 
L 123.306818 437.921493 
L 124.152273 438.0065 
L 124.997727 437.546593 
L 125.843182 436.487279 
L 126.688636 436.40754 
L 127.534091 436.041328 
L 128.379545 435.249839 
L 129.225 435.360195 
L 130.070455 435.00749 
L 130.915909 434.481043 
L 131.761364 434.835282 
L 133.452273 434.534842 
L 134.297727 435.020408 
L 135.143182 434.704845 
L 135.988636 434.799488 
L 136.834091 435.147716 
L 137.679545 434.709282 
L 138.525 435.386605 
L 139.370455 435.042357 
L 140.215909 435.539789 
L 141.906818 435.714513 
L 142.752273 436.201479 
L 143.597727 435.890848 
L 144.443182 436.400572 
L 145.288636 436.13654 
L 146.134091 436.449961 
L 146.979545 436.29681 
L 147.825 436.482051 
L 149.515909 436.396693 
L 150.361364 436.625934 
L 151.206818 436.416784 
L 152.052273 436.962928 
L 152.897727 436.502444 
L 153.743182 437.435275 
L 154.588636 437.134501 
L 155.434091 437.180175 
L 156.279545 437.830917 
L 157.125 437.62792 
L 157.970455 437.621953 
L 158.815909 438.101699 
L 160.506818 437.81452 
L 161.352273 438.103388 
L 163.043182 437.757745 
L 163.888636 437.959731 
L 165.579545 437.800724 
L 166.425 438.035783 
L 168.115909 438.060273 
L 168.961364 438.267963 
L 169.806818 438.132143 
L 171.497727 438.382229 
L 172.343182 438.193019 
L 174.034091 438.436148 
L 174.879545 438.286902 
L 183.334091 438.741093 
L 184.179545 438.857464 
L 185.025 438.792631 
L 187.561364 438.905772 
L 191.788636 439.116348 
L 193.479545 439.166878 
L 196.861364 439.313297 
L 199.397727 439.386197 
L 202.779545 439.447089 
L 210.388636 439.718908 
L 221.379545 439.954317 
L 237.443182 440.244718 
L 308.461364 440.709666 
L 370.179545 440.885622 
L 555.334091 441.010089 
L 559.561364 441.011039 
L 559.561364 441.011039 
" style="fill:none;stroke:#7f7f7f;stroke-linecap:square;stroke-width:1.5;"/>
   </g>
   <g id="line2d_23">
    <path clip-path="url(#pd93ee21784)" d="M 52.288636 400.68617 
L 53.134091 401.442792 
L 53.979545 403.323632 
L 54.825 403.14549 
L 55.670455 402.205945 
L 56.515909 402.078264 
L 58.206818 403.599029 
L 59.052273 404.052263 
L 59.897727 404.160594 
L 61.588636 403.681653 
L 62.434091 403.741106 
L 63.279545 404.239804 
L 64.970455 405.73759 
L 65.815909 406.143876 
L 66.661364 406.119685 
L 68.352273 405.416138 
L 69.197727 405.297139 
L 70.043182 405.628017 
L 72.579545 407.924088 
L 73.425 408.276722 
L 74.270455 408.264664 
L 75.961364 408.020653 
L 76.806818 408.253575 
L 77.652273 408.839998 
L 79.343182 410.39183 
L 80.188636 410.97056 
L 81.034091 411.315383 
L 83.570455 411.908818 
L 84.415909 412.365929 
L 86.952273 414.067105 
L 88.643182 414.793798 
L 90.334091 415.552275 
L 93.715909 417.583809 
L 96.252273 419.01684 
L 97.943182 420.216508 
L 99.634091 421.501461 
L 101.325 422.251402 
L 103.015909 423.079729 
L 106.397727 424.812368 
L 108.088636 426.081333 
L 109.779545 426.595986 
L 111.470455 427.642908 
L 112.315909 428.204932 
L 113.161364 428.389192 
L 114.006818 428.831129 
L 118.234091 431.982491 
L 119.079545 433.459896 
L 119.925 434.499275 
L 120.770455 434.840443 
L 121.615909 435.31754 
L 122.461364 436.396909 
L 123.306818 437.06059 
L 124.152273 437.157944 
L 124.997727 437.791021 
L 125.843182 438.87711 
L 126.688636 439.137358 
L 127.534091 438.86393 
L 128.379545 439.088917 
L 129.225 439.519367 
L 130.070455 439.320355 
L 130.915909 439.525426 
L 131.761364 440.044069 
L 133.452273 439.392468 
L 134.297727 439.46926 
L 135.143182 439.176702 
L 135.988636 438.692456 
L 136.834091 438.861575 
L 138.525 438.805784 
L 139.370455 439.093509 
L 141.061364 438.728822 
L 141.906818 438.530916 
L 142.752273 437.94668 
L 143.597727 437.931505 
L 144.443182 437.350332 
L 145.288636 437.415738 
L 146.134091 436.910994 
L 146.979545 436.940423 
L 148.670455 436.427631 
L 149.515909 436.673914 
L 150.361364 436.466071 
L 152.052273 436.646647 
L 152.897727 436.603876 
L 153.743182 436.829377 
L 154.588636 436.731966 
L 155.434091 437.111773 
L 156.279545 436.899147 
L 157.125 437.469301 
L 157.970455 437.320236 
L 159.661364 437.766075 
L 160.506818 437.571552 
L 161.352273 437.888827 
L 162.197727 437.77564 
L 163.043182 437.868028 
L 163.888636 438.08722 
L 164.734091 437.919834 
L 165.579545 438.195622 
L 167.270455 438.177669 
L 168.115909 438.367561 
L 168.961364 438.265987 
L 169.806818 438.518558 
L 170.652273 438.452605 
L 172.343182 438.660779 
L 173.188636 438.567602 
L 174.034091 438.78548 
L 174.879545 438.729643 
L 176.570455 438.921277 
L 177.415909 438.843486 
L 178.261364 438.972616 
L 179.952273 438.977669 
L 185.025 439.228309 
L 185.870455 439.191024 
L 186.715909 439.276921 
L 188.406818 439.279454 
L 193.479545 439.404109 
L 195.170455 439.406526 
L 200.243182 439.536587 
L 206.161364 439.607574 
L 222.225 439.829358 
L 283.943182 440.222253 
L 373.561364 440.398952 
L 524.897727 440.438771 
L 559.561364 440.42271 
L 559.561364 440.42271 
" style="fill:none;stroke:#bcbd22;stroke-linecap:square;stroke-width:1.5;"/>
   </g>
   <g id="patch_4">
    <path d="M 26.925 582.9575 
L 26.925 39.3575 
" style="fill:none;stroke:#000000;stroke-linecap:square;stroke-linejoin:miter;stroke-width:0.8;"/>
   </g>
   <g id="patch_5">
    <path d="M 584.925 582.9575 
L 584.925 39.3575 
" style="fill:none;stroke:#000000;stroke-linecap:square;stroke-linejoin:miter;stroke-width:0.8;"/>
   </g>
   <g id="patch_6">
    <path d="M 26.925 582.9575 
L 584.925 582.9575 
" style="fill:none;stroke:#000000;stroke-linecap:square;stroke-linejoin:miter;stroke-width:0.8;"/>
   </g>
   <g id="patch_7">
    <path d="M 26.925 39.3575 
L 584.925 39.3575 
" style="fill:none;stroke:#000000;stroke-linecap:square;stroke-linejoin:miter;stroke-width:0.8;"/>
   </g>
   <g id="text_16">
    <!-- Class separation -->
    <g transform="translate(130.915909 577.5215)scale(0.1 -0.1)">
     <defs>
      <path d="M 64.40625 67.28125 
L 64.40625 56.890625 
Q 59.421875 61.53125 53.78125 63.8125 
Q 48.140625 66.109375 41.796875 66.109375 
Q 29.296875 66.109375 22.65625 58.46875 
Q 16.015625 50.828125 16.015625 36.375 
Q 16.015625 21.96875 22.65625 14.328125 
Q 29.296875 6.6875 41.796875 6.6875 
Q 48.140625 6.6875 53.78125 8.984375 
Q 59.421875 11.28125 64.40625 15.921875 
L 64.40625 5.609375 
Q 59.234375 2.09375 53.4375 0.328125 
Q 47.65625 -1.421875 41.21875 -1.421875 
Q 24.65625 -1.421875 15.125 8.703125 
Q 5.609375 18.84375 5.609375 36.375 
Q 5.609375 53.953125 15.125 64.078125 
Q 24.65625 74.21875 41.21875 74.21875 
Q 47.75 74.21875 53.53125 72.484375 
Q 59.328125 70.75 64.40625 67.28125 
z
" id="DejaVuSans-67"/>
      <path d="M 9.421875 75.984375 
L 18.40625 75.984375 
L 18.40625 0 
L 9.421875 0 
z
" id="DejaVuSans-108"/>
      <path d="M 34.28125 27.484375 
Q 23.390625 27.484375 19.1875 25 
Q 14.984375 22.515625 14.984375 16.5 
Q 14.984375 11.71875 18.140625 8.90625 
Q 21.296875 6.109375 26.703125 6.109375 
Q 34.1875 6.109375 38.703125 11.40625 
Q 43.21875 16.703125 43.21875 25.484375 
L 43.21875 27.484375 
z
M 52.203125 31.203125 
L 52.203125 0 
L 43.21875 0 
L 43.21875 8.296875 
Q 40.140625 3.328125 35.546875 0.953125 
Q 30.953125 -1.421875 24.3125 -1.421875 
Q 15.921875 -1.421875 10.953125 3.296875 
Q 6 8.015625 6 15.921875 
Q 6 25.140625 12.171875 29.828125 
Q 18.359375 34.515625 30.609375 34.515625 
L 43.21875 34.515625 
L 43.21875 35.40625 
Q 43.21875 41.609375 39.140625 45 
Q 35.0625 48.390625 27.6875 48.390625 
Q 23 48.390625 18.546875 47.265625 
Q 14.109375 46.140625 10.015625 43.890625 
L 10.015625 52.203125 
Q 14.9375 54.109375 19.578125 55.046875 
Q 24.21875 56 28.609375 56 
Q 40.484375 56 46.34375 49.84375 
Q 52.203125 43.703125 52.203125 31.203125 
z
" id="DejaVuSans-97"/>
      <path id="DejaVuSans-32"/>
      <path d="M 56.203125 29.59375 
L 56.203125 25.203125 
L 14.890625 25.203125 
Q 15.484375 15.921875 20.484375 11.0625 
Q 25.484375 6.203125 34.421875 6.203125 
Q 39.59375 6.203125 44.453125 7.46875 
Q 49.3125 8.734375 54.109375 11.28125 
L 54.109375 2.78125 
Q 49.265625 0.734375 44.1875 -0.34375 
Q 39.109375 -1.421875 33.890625 -1.421875 
Q 20.796875 -1.421875 13.15625 6.1875 
Q 5.515625 13.8125 5.515625 26.8125 
Q 5.515625 40.234375 12.765625 48.109375 
Q 20.015625 56 32.328125 56 
Q 43.359375 56 49.78125 48.890625 
Q 56.203125 41.796875 56.203125 29.59375 
z
M 47.21875 32.234375 
Q 47.125 39.59375 43.09375 43.984375 
Q 39.0625 48.390625 32.421875 48.390625 
Q 24.90625 48.390625 20.390625 44.140625 
Q 15.875 39.890625 15.1875 32.171875 
z
" id="DejaVuSans-101"/>
      <path d="M 41.109375 46.296875 
Q 39.59375 47.171875 37.8125 47.578125 
Q 36.03125 48 33.890625 48 
Q 26.265625 48 22.1875 43.046875 
Q 18.109375 38.09375 18.109375 28.8125 
L 18.109375 0 
L 9.078125 0 
L 9.078125 54.6875 
L 18.109375 54.6875 
L 18.109375 46.1875 
Q 20.953125 51.171875 25.484375 53.578125 
Q 30.03125 56 36.53125 56 
Q 37.453125 56 38.578125 55.875 
Q 39.703125 55.765625 41.0625 55.515625 
z
" id="DejaVuSans-114"/>
      <path d="M 18.3125 70.21875 
L 18.3125 54.6875 
L 36.8125 54.6875 
L 36.8125 47.703125 
L 18.3125 47.703125 
L 18.3125 18.015625 
Q 18.3125 11.328125 20.140625 9.421875 
Q 21.96875 7.515625 27.59375 7.515625 
L 36.8125 7.515625 
L 36.8125 0 
L 27.59375 0 
Q 17.1875 0 13.234375 3.875 
Q 9.28125 7.765625 9.28125 18.015625 
L 9.28125 47.703125 
L 2.6875 47.703125 
L 2.6875 54.6875 
L 9.28125 54.6875 
L 9.28125 70.21875 
z
" id="DejaVuSans-116"/>
      <path d="M 9.421875 54.6875 
L 18.40625 54.6875 
L 18.40625 0 
L 9.421875 0 
z
M 9.421875 75.984375 
L 18.40625 75.984375 
L 18.40625 64.59375 
L 9.421875 64.59375 
z
" id="DejaVuSans-105"/>
      <path d="M 54.890625 33.015625 
L 54.890625 0 
L 45.90625 0 
L 45.90625 32.71875 
Q 45.90625 40.484375 42.875 44.328125 
Q 39.84375 48.1875 33.796875 48.1875 
Q 26.515625 48.1875 22.3125 43.546875 
Q 18.109375 38.921875 18.109375 30.90625 
L 18.109375 0 
L 9.078125 0 
L 9.078125 54.6875 
L 18.109375 54.6875 
L 18.109375 46.1875 
Q 21.34375 51.125 25.703125 53.5625 
Q 30.078125 56 35.796875 56 
Q 45.21875 56 50.046875 50.171875 
Q 54.890625 44.34375 54.890625 33.015625 
z
" id="DejaVuSans-110"/>
     </defs>
     <use xlink:href="#DejaVuSans-67"/>
     <use x="69.824219" xlink:href="#DejaVuSans-108"/>
     <use x="97.607422" xlink:href="#DejaVuSans-97"/>
     <use x="158.886719" xlink:href="#DejaVuSans-115"/>
     <use x="210.986328" xlink:href="#DejaVuSans-115"/>
     <use x="263.085938" xlink:href="#DejaVuSans-32"/>
     <use x="294.873047" xlink:href="#DejaVuSans-115"/>
     <use x="346.972656" xlink:href="#DejaVuSans-101"/>
     <use x="408.496094" xlink:href="#DejaVuSans-112"/>
     <use x="471.972656" xlink:href="#DejaVuSans-97"/>
     <use x="533.251953" xlink:href="#DejaVuSans-114"/>
     <use x="574.365234" xlink:href="#DejaVuSans-97"/>
     <use x="635.644531" xlink:href="#DejaVuSans-116"/>
     <use x="674.853516" xlink:href="#DejaVuSans-105"/>
     <use x="702.636719" xlink:href="#DejaVuSans-111"/>
     <use x="763.818359" xlink:href="#DejaVuSans-110"/>
    </g>
   </g>
   <g id="text_17">
    <!-- Distance from final baseline solution -->
    <g transform="translate(159.74125 19.3575)scale(0.16 -0.16)">
     <defs>
      <path d="M 19.671875 64.796875 
L 19.671875 8.109375 
L 31.59375 8.109375 
Q 46.6875 8.109375 53.6875 14.9375 
Q 60.6875 21.78125 60.6875 36.53125 
Q 60.6875 51.171875 53.6875 57.984375 
Q 46.6875 64.796875 31.59375 64.796875 
z
M 9.8125 72.90625 
L 30.078125 72.90625 
Q 51.265625 72.90625 61.171875 64.09375 
Q 71.09375 55.28125 71.09375 36.53125 
Q 71.09375 17.671875 61.125 8.828125 
Q 51.171875 0 30.078125 0 
L 9.8125 0 
z
" id="DejaVuSans-68"/>
      <path d="M 37.109375 75.984375 
L 37.109375 68.5 
L 28.515625 68.5 
Q 23.6875 68.5 21.796875 66.546875 
Q 19.921875 64.59375 19.921875 59.515625 
L 19.921875 54.6875 
L 34.71875 54.6875 
L 34.71875 47.703125 
L 19.921875 47.703125 
L 19.921875 0 
L 10.890625 0 
L 10.890625 47.703125 
L 2.296875 47.703125 
L 2.296875 54.6875 
L 10.890625 54.6875 
L 10.890625 58.5 
Q 10.890625 67.625 15.140625 71.796875 
Q 19.390625 75.984375 28.609375 75.984375 
z
" id="DejaVuSans-102"/>
      <path d="M 52 44.1875 
Q 55.375 50.25 60.0625 53.125 
Q 64.75 56 71.09375 56 
Q 79.640625 56 84.28125 50.015625 
Q 88.921875 44.046875 88.921875 33.015625 
L 88.921875 0 
L 79.890625 0 
L 79.890625 32.71875 
Q 79.890625 40.578125 77.09375 44.375 
Q 74.3125 48.1875 68.609375 48.1875 
Q 61.625 48.1875 57.5625 43.546875 
Q 53.515625 38.921875 53.515625 30.90625 
L 53.515625 0 
L 44.484375 0 
L 44.484375 32.71875 
Q 44.484375 40.625 41.703125 44.40625 
Q 38.921875 48.1875 33.109375 48.1875 
Q 26.21875 48.1875 22.15625 43.53125 
Q 18.109375 38.875 18.109375 30.90625 
L 18.109375 0 
L 9.078125 0 
L 9.078125 54.6875 
L 18.109375 54.6875 
L 18.109375 46.1875 
Q 21.1875 51.21875 25.484375 53.609375 
Q 29.78125 56 35.6875 56 
Q 41.65625 56 45.828125 52.96875 
Q 50 49.953125 52 44.1875 
z
" id="DejaVuSans-109"/>
      <path d="M 48.6875 27.296875 
Q 48.6875 37.203125 44.609375 42.84375 
Q 40.53125 48.484375 33.40625 48.484375 
Q 26.265625 48.484375 22.1875 42.84375 
Q 18.109375 37.203125 18.109375 27.296875 
Q 18.109375 17.390625 22.1875 11.75 
Q 26.265625 6.109375 33.40625 6.109375 
Q 40.53125 6.109375 44.609375 11.75 
Q 48.6875 17.390625 48.6875 27.296875 
z
M 18.109375 46.390625 
Q 20.953125 51.265625 25.265625 53.625 
Q 29.59375 56 35.59375 56 
Q 45.5625 56 51.78125 48.09375 
Q 58.015625 40.1875 58.015625 27.296875 
Q 58.015625 14.40625 51.78125 6.484375 
Q 45.5625 -1.421875 35.59375 -1.421875 
Q 29.59375 -1.421875 25.265625 0.953125 
Q 20.953125 3.328125 18.109375 8.203125 
L 18.109375 0 
L 9.078125 0 
L 9.078125 75.984375 
L 18.109375 75.984375 
z
" id="DejaVuSans-98"/>
      <path d="M 8.5 21.578125 
L 8.5 54.6875 
L 17.484375 54.6875 
L 17.484375 21.921875 
Q 17.484375 14.15625 20.5 10.265625 
Q 23.53125 6.390625 29.59375 6.390625 
Q 36.859375 6.390625 41.078125 11.03125 
Q 45.3125 15.671875 45.3125 23.6875 
L 45.3125 54.6875 
L 54.296875 54.6875 
L 54.296875 0 
L 45.3125 0 
L 45.3125 8.40625 
Q 42.046875 3.421875 37.71875 1 
Q 33.40625 -1.421875 27.6875 -1.421875 
Q 18.265625 -1.421875 13.375 4.4375 
Q 8.5 10.296875 8.5 21.578125 
z
M 31.109375 56 
z
" id="DejaVuSans-117"/>
     </defs>
     <use xlink:href="#DejaVuSans-68"/>
     <use x="77.001953" xlink:href="#DejaVuSans-105"/>
     <use x="104.785156" xlink:href="#DejaVuSans-115"/>
     <use x="156.884766" xlink:href="#DejaVuSans-116"/>
     <use x="196.09375" xlink:href="#DejaVuSans-97"/>
     <use x="257.373047" xlink:href="#DejaVuSans-110"/>
     <use x="320.751953" xlink:href="#DejaVuSans-99"/>
     <use x="375.732422" xlink:href="#DejaVuSans-101"/>
     <use x="437.255859" xlink:href="#DejaVuSans-32"/>
     <use x="469.042969" xlink:href="#DejaVuSans-102"/>
     <use x="504.248047" xlink:href="#DejaVuSans-114"/>
     <use x="543.111328" xlink:href="#DejaVuSans-111"/>
     <use x="604.292969" xlink:href="#DejaVuSans-109"/>
     <use x="701.705078" xlink:href="#DejaVuSans-32"/>
     <use x="733.492188" xlink:href="#DejaVuSans-102"/>
     <use x="768.697266" xlink:href="#DejaVuSans-105"/>
     <use x="796.480469" xlink:href="#DejaVuSans-110"/>
     <use x="859.859375" xlink:href="#DejaVuSans-97"/>
     <use x="921.138672" xlink:href="#DejaVuSans-108"/>
     <use x="948.921875" xlink:href="#DejaVuSans-32"/>
     <use x="980.708984" xlink:href="#DejaVuSans-98"/>
     <use x="1044.185547" xlink:href="#DejaVuSans-97"/>
     <use x="1105.464844" xlink:href="#DejaVuSans-115"/>
     <use x="1157.564453" xlink:href="#DejaVuSans-101"/>
     <use x="1219.087891" xlink:href="#DejaVuSans-108"/>
     <use x="1246.871094" xlink:href="#DejaVuSans-105"/>
     <use x="1274.654297" xlink:href="#DejaVuSans-110"/>
     <use x="1338.033203" xlink:href="#DejaVuSans-101"/>
     <use x="1399.556641" xlink:href="#DejaVuSans-32"/>
     <use x="1431.34375" xlink:href="#DejaVuSans-115"/>
     <use x="1483.443359" xlink:href="#DejaVuSans-111"/>
     <use x="1544.625" xlink:href="#DejaVuSans-108"/>
     <use x="1572.408203" xlink:href="#DejaVuSans-117"/>
     <use x="1635.787109" xlink:href="#DejaVuSans-116"/>
     <use x="1674.996094" xlink:href="#DejaVuSans-105"/>
     <use x="1702.779297" xlink:href="#DejaVuSans-111"/>
     <use x="1763.960938" xlink:href="#DejaVuSans-110"/>
    </g>
   </g>
   <g id="legend_1">
    <g id="line2d_24">
     <path d="M 49.917187 628.671938 
L 69.917187 628.671938 
" style="fill:none;stroke:#1f77b4;stroke-linecap:square;stroke-width:1.5;"/>
    </g>
    <g id="line2d_25"/>
    <g id="text_18">
     <!-- Baseline -->
     <g transform="translate(77.917187 632.171938)scale(0.1 -0.1)">
      <defs>
       <path d="M 19.671875 34.8125 
L 19.671875 8.109375 
L 35.5 8.109375 
Q 43.453125 8.109375 47.28125 11.40625 
Q 51.125 14.703125 51.125 21.484375 
Q 51.125 28.328125 47.28125 31.5625 
Q 43.453125 34.8125 35.5 34.8125 
z
M 19.671875 64.796875 
L 19.671875 42.828125 
L 34.28125 42.828125 
Q 41.5 42.828125 45.03125 45.53125 
Q 48.578125 48.25 48.578125 53.8125 
Q 48.578125 59.328125 45.03125 62.0625 
Q 41.5 64.796875 34.28125 64.796875 
z
M 9.8125 72.90625 
L 35.015625 72.90625 
Q 46.296875 72.90625 52.390625 68.21875 
Q 58.5 63.53125 58.5 54.890625 
Q 58.5 48.1875 55.375 44.234375 
Q 52.25 40.28125 46.1875 39.3125 
Q 53.46875 37.75 57.5 32.78125 
Q 61.53125 27.828125 61.53125 20.40625 
Q 61.53125 10.640625 54.890625 5.3125 
Q 48.25 0 35.984375 0 
L 9.8125 0 
z
" id="DejaVuSans-66"/>
      </defs>
      <use xlink:href="#DejaVuSans-66"/>
      <use x="68.603516" xlink:href="#DejaVuSans-97"/>
      <use x="129.882812" xlink:href="#DejaVuSans-115"/>
      <use x="181.982422" xlink:href="#DejaVuSans-101"/>
      <use x="243.505859" xlink:href="#DejaVuSans-108"/>
      <use x="271.289062" xlink:href="#DejaVuSans-105"/>
      <use x="299.072266" xlink:href="#DejaVuSans-110"/>
      <use x="362.451172" xlink:href="#DejaVuSans-101"/>
     </g>
    </g>
    <g id="line2d_26">
     <path d="M 49.917187 643.350063 
L 69.917187 643.350063 
" style="fill:none;stroke:#ff7f0e;stroke-linecap:square;stroke-width:1.5;"/>
    </g>
    <g id="line2d_27"/>
    <g id="text_19">
     <!-- Forced normaliz. -->
     <g transform="translate(77.917187 646.850063)scale(0.1 -0.1)">
      <defs>
       <path d="M 9.8125 72.90625 
L 51.703125 72.90625 
L 51.703125 64.59375 
L 19.671875 64.59375 
L 19.671875 43.109375 
L 48.578125 43.109375 
L 48.578125 34.8125 
L 19.671875 34.8125 
L 19.671875 0 
L 9.8125 0 
z
" id="DejaVuSans-70"/>
       <path d="M 45.40625 46.390625 
L 45.40625 75.984375 
L 54.390625 75.984375 
L 54.390625 0 
L 45.40625 0 
L 45.40625 8.203125 
Q 42.578125 3.328125 38.25 0.953125 
Q 33.9375 -1.421875 27.875 -1.421875 
Q 17.96875 -1.421875 11.734375 6.484375 
Q 5.515625 14.40625 5.515625 27.296875 
Q 5.515625 40.1875 11.734375 48.09375 
Q 17.96875 56 27.875 56 
Q 33.9375 56 38.25 53.625 
Q 42.578125 51.265625 45.40625 46.390625 
z
M 14.796875 27.296875 
Q 14.796875 17.390625 18.875 11.75 
Q 22.953125 6.109375 30.078125 6.109375 
Q 37.203125 6.109375 41.296875 11.75 
Q 45.40625 17.390625 45.40625 27.296875 
Q 45.40625 37.203125 41.296875 42.84375 
Q 37.203125 48.484375 30.078125 48.484375 
Q 22.953125 48.484375 18.875 42.84375 
Q 14.796875 37.203125 14.796875 27.296875 
z
" id="DejaVuSans-100"/>
       <path d="M 5.515625 54.6875 
L 48.1875 54.6875 
L 48.1875 46.484375 
L 14.40625 7.171875 
L 48.1875 7.171875 
L 48.1875 0 
L 4.296875 0 
L 4.296875 8.203125 
L 38.09375 47.515625 
L 5.515625 47.515625 
z
" id="DejaVuSans-122"/>
       <path d="M 10.6875 12.40625 
L 21 12.40625 
L 21 0 
L 10.6875 0 
z
" id="DejaVuSans-46"/>
      </defs>
      <use xlink:href="#DejaVuSans-70"/>
      <use x="53.894531" xlink:href="#DejaVuSans-111"/>
      <use x="115.076172" xlink:href="#DejaVuSans-114"/>
      <use x="153.939453" xlink:href="#DejaVuSans-99"/>
      <use x="208.919922" xlink:href="#DejaVuSans-101"/>
      <use x="270.443359" xlink:href="#DejaVuSans-100"/>
      <use x="333.919922" xlink:href="#DejaVuSans-32"/>
      <use x="365.707031" xlink:href="#DejaVuSans-110"/>
      <use x="429.085938" xlink:href="#DejaVuSans-111"/>
      <use x="490.267578" xlink:href="#DejaVuSans-114"/>
      <use x="529.630859" xlink:href="#DejaVuSans-109"/>
      <use x="627.042969" xlink:href="#DejaVuSans-97"/>
      <use x="688.322266" xlink:href="#DejaVuSans-108"/>
      <use x="716.105469" xlink:href="#DejaVuSans-105"/>
      <use x="743.888672" xlink:href="#DejaVuSans-122"/>
      <use x="796.378906" xlink:href="#DejaVuSans-46"/>
     </g>
    </g>
    <g id="line2d_28">
     <path d="M 180.732813 628.671938 
L 200.732813 628.671938 
" style="fill:none;stroke:#2ca02c;stroke-linecap:square;stroke-width:1.5;"/>
    </g>
    <g id="line2d_29"/>
    <g id="text_20">
     <!-- $\lambda=0.005$ -->
     <g transform="translate(208.732813 632.171938)scale(0.1 -0.1)">
      <defs>
       <path d="M 36.71875 67.4375 
L 48.828125 0 
L 39.3125 0 
L 31.84375 40.4375 
L 5.125 0 
L -4.390625 0 
L 29.734375 52.4375 
L 28.03125 62.109375 
Q 26.953125 68.265625 21.734375 68.265625 
L 17.046875 68.265625 
L 18.5 75.984375 
L 24.21875 75.875 
Q 35.203125 75.734375 36.71875 67.4375 
z
" id="DejaVuSans-Oblique-955"/>
       <path d="M 10.59375 45.40625 
L 73.1875 45.40625 
L 73.1875 37.203125 
L 10.59375 37.203125 
z
M 10.59375 25.484375 
L 73.1875 25.484375 
L 73.1875 17.1875 
L 10.59375 17.1875 
z
" id="DejaVuSans-61"/>
      </defs>
      <use transform="translate(0 0.015625)" xlink:href="#DejaVuSans-Oblique-955"/>
      <use transform="translate(78.662109 0.015625)" xlink:href="#DejaVuSans-61"/>
      <use transform="translate(181.933594 0.015625)" xlink:href="#DejaVuSans-48"/>
      <use transform="translate(245.556641 0.015625)" xlink:href="#DejaVuSans-46"/>
      <use transform="translate(277.34375 0.015625)" xlink:href="#DejaVuSans-48"/>
      <use transform="translate(340.966797 0.015625)" xlink:href="#DejaVuSans-48"/>
      <use transform="translate(404.589844 0.015625)" xlink:href="#DejaVuSans-53"/>
     </g>
    </g>
    <g id="line2d_30">
     <path d="M 180.732813 643.350063 
L 200.732813 643.350063 
" style="fill:none;stroke:#d62728;stroke-linecap:square;stroke-width:1.5;"/>
    </g>
    <g id="line2d_31"/>
    <g id="text_21">
     <!-- $\lambda=0.05$ -->
     <g transform="translate(208.732813 646.850063)scale(0.1 -0.1)">
      <use transform="translate(0 0.015625)" xlink:href="#DejaVuSans-Oblique-955"/>
      <use transform="translate(78.662109 0.015625)" xlink:href="#DejaVuSans-61"/>
      <use transform="translate(181.933594 0.015625)" xlink:href="#DejaVuSans-48"/>
      <use transform="translate(245.556641 0.015625)" xlink:href="#DejaVuSans-46"/>
      <use transform="translate(277.34375 0.015625)" xlink:href="#DejaVuSans-48"/>
      <use transform="translate(340.966797 0.015625)" xlink:href="#DejaVuSans-53"/>
     </g>
    </g>
    <g id="line2d_32">
     <path d="M 275.632812 628.671938 
L 295.632812 628.671938 
" style="fill:none;stroke:#9467bd;stroke-linecap:square;stroke-width:1.5;"/>
    </g>
    <g id="line2d_33"/>
    <g id="text_22">
     <!-- $\lambda=0.5$ -->
     <g transform="translate(303.632812 632.171938)scale(0.1 -0.1)">
      <use transform="translate(0 0.015625)" xlink:href="#DejaVuSans-Oblique-955"/>
      <use transform="translate(78.662109 0.015625)" xlink:href="#DejaVuSans-61"/>
      <use transform="translate(181.933594 0.015625)" xlink:href="#DejaVuSans-48"/>
      <use transform="translate(245.556641 0.015625)" xlink:href="#DejaVuSans-46"/>
      <use transform="translate(277.34375 0.015625)" xlink:href="#DejaVuSans-53"/>
     </g>
    </g>
    <g id="line2d_34">
     <path d="M 275.632812 643.350063 
L 295.632812 643.350063 
" style="fill:none;stroke:#8c564b;stroke-linecap:square;stroke-width:1.5;"/>
    </g>
    <g id="line2d_35"/>
    <g id="text_23">
     <!-- $\lambda=1.5$ -->
     <g transform="translate(303.632812 646.850063)scale(0.1 -0.1)">
      <use transform="translate(0 0.015625)" xlink:href="#DejaVuSans-Oblique-955"/>
      <use transform="translate(78.662109 0.015625)" xlink:href="#DejaVuSans-61"/>
      <use transform="translate(181.933594 0.015625)" xlink:href="#DejaVuSans-49"/>
      <use transform="translate(245.556641 0.015625)" xlink:href="#DejaVuSans-46"/>
      <use transform="translate(277.34375 0.015625)" xlink:href="#DejaVuSans-53"/>
     </g>
    </g>
    <g id="line2d_36">
     <path d="M 357.732813 628.671938 
L 377.732813 628.671938 
" style="fill:none;stroke:#e377c2;stroke-linecap:square;stroke-width:1.5;"/>
    </g>
    <g id="line2d_37"/>
    <g id="text_24">
     <!-- $\lambda=3$ -->
     <g transform="translate(385.732813 632.171938)scale(0.1 -0.1)">
      <use transform="translate(0 0.015625)" xlink:href="#DejaVuSans-Oblique-955"/>
      <use transform="translate(78.662109 0.015625)" xlink:href="#DejaVuSans-61"/>
      <use transform="translate(181.933594 0.015625)" xlink:href="#DejaVuSans-51"/>
     </g>
    </g>
    <g id="line2d_38">
     <path d="M 430.332812 628.671938 
L 450.332812 628.671938 
" style="fill:none;stroke:#7f7f7f;stroke-linecap:square;stroke-width:1.5;"/>
    </g>
    <g id="line2d_39"/>
    <g id="text_25">
     <!-- $\lambda=5$ -->
     <g transform="translate(458.332812 632.171938)scale(0.1 -0.1)">
      <use transform="translate(0 0.015625)" xlink:href="#DejaVuSans-Oblique-955"/>
      <use transform="translate(78.662109 0.015625)" xlink:href="#DejaVuSans-61"/>
      <use transform="translate(181.933594 0.015625)" xlink:href="#DejaVuSans-53"/>
     </g>
    </g>
    <g id="line2d_40">
     <path d="M 502.932813 628.671938 
L 522.932812 628.671938 
" style="fill:none;stroke:#bcbd22;stroke-linecap:square;stroke-width:1.5;"/>
    </g>
    <g id="line2d_41"/>
    <g id="text_26">
     <!-- $\lambda=10$ -->
     <g transform="translate(530.932812 632.171938)scale(0.1 -0.1)">
      <use transform="translate(0 0.015625)" xlink:href="#DejaVuSans-Oblique-955"/>
      <use transform="translate(78.662109 0.015625)" xlink:href="#DejaVuSans-61"/>
      <use transform="translate(181.933594 0.015625)" xlink:href="#DejaVuSans-49"/>
      <use transform="translate(245.556641 0.015625)" xlink:href="#DejaVuSans-48"/>
     </g>
    </g>
   </g>
  </g>
 </g>
 <defs>
  <clipPath id="pd93ee21784">
   <rect height="543.6" width="558" x="26.925" y="39.3575"/>
  </clipPath>
 </defs>
</svg>
