<?xml version="1.0" encoding="utf-8" standalone="no"?>
<!DOCTYPE svg PUBLIC "-//W3C//DTD SVG 1.1//EN"
  "http://www.w3.org/Graphics/SVG/1.1/DTD/svg11.dtd">
<!-- Created with matplotlib (https://matplotlib.org/) -->
<svg height="660.12975pt" version="1.1" viewBox="0 0 592.125 660.12975" width="592.125pt" xmlns="http://www.w3.org/2000/svg" xmlns:xlink="http://www.w3.org/1999/xlink">
 <metadata>
  <rdf:RDF xmlns:cc="http://creativecommons.org/ns#" xmlns:dc="http://purl.org/dc/elements/1.1/" xmlns:rdf="http://www.w3.org/1999/02/22-rdf-syntax-ns#">
   <cc:Work>
    <dc:type rdf:resource="http://purl.org/dc/dcmitype/StillImage"/>
    <dc:date>2021-01-11T22:44:30.072744</dc:date>
    <dc:format>image/svg+xml</dc:format>
    <dc:creator>
     <cc:Agent>
      <dc:title>Matplotlib v3.3.2, https://matplotlib.org/</dc:title>
     </cc:Agent>
    </dc:creator>
   </cc:Work>
  </rdf:RDF>
 </metadata>
 <defs>
  <style type="text/css">*{stroke-linecap:butt;stroke-linejoin:round;}</style>
 </defs>
 <g id="figure_1">
  <g id="patch_1">
   <path d="M 0 660.12975 
L 592.125 660.12975 
L 592.125 0 
L 0 0 
z
" style="fill:none;"/>
  </g>
  <g id="axes_1">
   <g id="patch_2">
    <path d="M 26.925 582.9575 
L 584.925 582.9575 
L 584.925 39.3575 
L 26.925 39.3575 
z
" style="fill:#ffffff;"/>
   </g>
   <g id="patch_3">
    <path clip-path="url(#p8f4cca16a1)" d="M 89.488636 582.9575 
L 264.497727 582.9575 
L 264.497727 39.3575 
L 89.488636 39.3575 
z
" style="fill:#1f77b4;opacity:0.2;"/>
   </g>
   <g id="matplotlib.axis_1">
    <g id="xtick_1">
     <g id="line2d_1">
      <defs>
       <path d="M 0 0 
L 0 3.5 
" id="m71aeaacba6" style="stroke:#000000;stroke-width:0.8;"/>
      </defs>
      <g>
       <use style="stroke:#000000;stroke-width:0.8;" x="52.288636" xlink:href="#m71aeaacba6" y="582.9575"/>
      </g>
     </g>
     <g id="text_1">
      <!-- 0 -->
      <g transform="translate(49.107386 597.555938)scale(0.1 -0.1)">
       <defs>
        <path d="M 31.78125 66.40625 
Q 24.171875 66.40625 20.328125 58.90625 
Q 16.5 51.421875 16.5 36.375 
Q 16.5 21.390625 20.328125 13.890625 
Q 24.171875 6.390625 31.78125 6.390625 
Q 39.453125 6.390625 43.28125 13.890625 
Q 47.125 21.390625 47.125 36.375 
Q 47.125 51.421875 43.28125 58.90625 
Q 39.453125 66.40625 31.78125 66.40625 
z
M 31.78125 74.21875 
Q 44.046875 74.21875 50.515625 64.515625 
Q 56.984375 54.828125 56.984375 36.375 
Q 56.984375 17.96875 50.515625 8.265625 
Q 44.046875 -1.421875 31.78125 -1.421875 
Q 19.53125 -1.421875 13.0625 8.265625 
Q 6.59375 17.96875 6.59375 36.375 
Q 6.59375 54.828125 13.0625 64.515625 
Q 19.53125 74.21875 31.78125 74.21875 
z
" id="DejaVuSans-48"/>
       </defs>
       <use xlink:href="#DejaVuSans-48"/>
      </g>
     </g>
    </g>
    <g id="xtick_2">
     <g id="line2d_2">
      <g>
       <use style="stroke:#000000;stroke-width:0.8;" x="136.834091" xlink:href="#m71aeaacba6" y="582.9575"/>
      </g>
     </g>
     <g id="text_2">
      <!-- 100 -->
      <g transform="translate(127.290341 597.555938)scale(0.1 -0.1)">
       <defs>
        <path d="M 12.40625 8.296875 
L 28.515625 8.296875 
L 28.515625 63.921875 
L 10.984375 60.40625 
L 10.984375 69.390625 
L 28.421875 72.90625 
L 38.28125 72.90625 
L 38.28125 8.296875 
L 54.390625 8.296875 
L 54.390625 0 
L 12.40625 0 
z
" id="DejaVuSans-49"/>
       </defs>
       <use xlink:href="#DejaVuSans-49"/>
       <use x="63.623047" xlink:href="#DejaVuSans-48"/>
       <use x="127.246094" xlink:href="#DejaVuSans-48"/>
      </g>
     </g>
    </g>
    <g id="xtick_3">
     <g id="line2d_3">
      <g>
       <use style="stroke:#000000;stroke-width:0.8;" x="221.379545" xlink:href="#m71aeaacba6" y="582.9575"/>
      </g>
     </g>
     <g id="text_3">
      <!-- 200 -->
      <g transform="translate(211.835795 597.555938)scale(0.1 -0.1)">
       <defs>
        <path d="M 19.1875 8.296875 
L 53.609375 8.296875 
L 53.609375 0 
L 7.328125 0 
L 7.328125 8.296875 
Q 12.9375 14.109375 22.625 23.890625 
Q 32.328125 33.6875 34.8125 36.53125 
Q 39.546875 41.84375 41.421875 45.53125 
Q 43.3125 49.21875 43.3125 52.78125 
Q 43.3125 58.59375 39.234375 62.25 
Q 35.15625 65.921875 28.609375 65.921875 
Q 23.96875 65.921875 18.8125 64.3125 
Q 13.671875 62.703125 7.8125 59.421875 
L 7.8125 69.390625 
Q 13.765625 71.78125 18.9375 73 
Q 24.125 74.21875 28.421875 74.21875 
Q 39.75 74.21875 46.484375 68.546875 
Q 53.21875 62.890625 53.21875 53.421875 
Q 53.21875 48.921875 51.53125 44.890625 
Q 49.859375 40.875 45.40625 35.40625 
Q 44.1875 33.984375 37.640625 27.21875 
Q 31.109375 20.453125 19.1875 8.296875 
z
" id="DejaVuSans-50"/>
       </defs>
       <use xlink:href="#DejaVuSans-50"/>
       <use x="63.623047" xlink:href="#DejaVuSans-48"/>
       <use x="127.246094" xlink:href="#DejaVuSans-48"/>
      </g>
     </g>
    </g>
    <g id="xtick_4">
     <g id="line2d_4">
      <g>
       <use style="stroke:#000000;stroke-width:0.8;" x="305.925" xlink:href="#m71aeaacba6" y="582.9575"/>
      </g>
     </g>
     <g id="text_4">
      <!-- 300 -->
      <g transform="translate(296.38125 597.555938)scale(0.1 -0.1)">
       <defs>
        <path d="M 40.578125 39.3125 
Q 47.65625 37.796875 51.625 33 
Q 55.609375 28.21875 55.609375 21.1875 
Q 55.609375 10.40625 48.1875 4.484375 
Q 40.765625 -1.421875 27.09375 -1.421875 
Q 22.515625 -1.421875 17.65625 -0.515625 
Q 12.796875 0.390625 7.625 2.203125 
L 7.625 11.71875 
Q 11.71875 9.328125 16.59375 8.109375 
Q 21.484375 6.890625 26.8125 6.890625 
Q 36.078125 6.890625 40.9375 10.546875 
Q 45.796875 14.203125 45.796875 21.1875 
Q 45.796875 27.640625 41.28125 31.265625 
Q 36.765625 34.90625 28.71875 34.90625 
L 20.21875 34.90625 
L 20.21875 43.015625 
L 29.109375 43.015625 
Q 36.375 43.015625 40.234375 45.921875 
Q 44.09375 48.828125 44.09375 54.296875 
Q 44.09375 59.90625 40.109375 62.90625 
Q 36.140625 65.921875 28.71875 65.921875 
Q 24.65625 65.921875 20.015625 65.03125 
Q 15.375 64.15625 9.8125 62.3125 
L 9.8125 71.09375 
Q 15.4375 72.65625 20.34375 73.4375 
Q 25.25 74.21875 29.59375 74.21875 
Q 40.828125 74.21875 47.359375 69.109375 
Q 53.90625 64.015625 53.90625 55.328125 
Q 53.90625 49.265625 50.4375 45.09375 
Q 46.96875 40.921875 40.578125 39.3125 
z
" id="DejaVuSans-51"/>
       </defs>
       <use xlink:href="#DejaVuSans-51"/>
       <use x="63.623047" xlink:href="#DejaVuSans-48"/>
       <use x="127.246094" xlink:href="#DejaVuSans-48"/>
      </g>
     </g>
    </g>
    <g id="xtick_5">
     <g id="line2d_5">
      <g>
       <use style="stroke:#000000;stroke-width:0.8;" x="390.470455" xlink:href="#m71aeaacba6" y="582.9575"/>
      </g>
     </g>
     <g id="text_5">
      <!-- 400 -->
      <g transform="translate(380.926705 597.555938)scale(0.1 -0.1)">
       <defs>
        <path d="M 37.796875 64.3125 
L 12.890625 25.390625 
L 37.796875 25.390625 
z
M 35.203125 72.90625 
L 47.609375 72.90625 
L 47.609375 25.390625 
L 58.015625 25.390625 
L 58.015625 17.1875 
L 47.609375 17.1875 
L 47.609375 0 
L 37.796875 0 
L 37.796875 17.1875 
L 4.890625 17.1875 
L 4.890625 26.703125 
z
" id="DejaVuSans-52"/>
       </defs>
       <use xlink:href="#DejaVuSans-52"/>
       <use x="63.623047" xlink:href="#DejaVuSans-48"/>
       <use x="127.246094" xlink:href="#DejaVuSans-48"/>
      </g>
     </g>
    </g>
    <g id="xtick_6">
     <g id="line2d_6">
      <g>
       <use style="stroke:#000000;stroke-width:0.8;" x="475.015909" xlink:href="#m71aeaacba6" y="582.9575"/>
      </g>
     </g>
     <g id="text_6">
      <!-- 500 -->
      <g transform="translate(465.472159 597.555938)scale(0.1 -0.1)">
       <defs>
        <path d="M 10.796875 72.90625 
L 49.515625 72.90625 
L 49.515625 64.59375 
L 19.828125 64.59375 
L 19.828125 46.734375 
Q 21.96875 47.46875 24.109375 47.828125 
Q 26.265625 48.1875 28.421875 48.1875 
Q 40.625 48.1875 47.75 41.5 
Q 54.890625 34.8125 54.890625 23.390625 
Q 54.890625 11.625 47.5625 5.09375 
Q 40.234375 -1.421875 26.90625 -1.421875 
Q 22.3125 -1.421875 17.546875 -0.640625 
Q 12.796875 0.140625 7.71875 1.703125 
L 7.71875 11.625 
Q 12.109375 9.234375 16.796875 8.0625 
Q 21.484375 6.890625 26.703125 6.890625 
Q 35.15625 6.890625 40.078125 11.328125 
Q 45.015625 15.765625 45.015625 23.390625 
Q 45.015625 31 40.078125 35.4375 
Q 35.15625 39.890625 26.703125 39.890625 
Q 22.75 39.890625 18.8125 39.015625 
Q 14.890625 38.140625 10.796875 36.28125 
z
" id="DejaVuSans-53"/>
       </defs>
       <use xlink:href="#DejaVuSans-53"/>
       <use x="63.623047" xlink:href="#DejaVuSans-48"/>
       <use x="127.246094" xlink:href="#DejaVuSans-48"/>
      </g>
     </g>
    </g>
    <g id="xtick_7">
     <g id="line2d_7">
      <g>
       <use style="stroke:#000000;stroke-width:0.8;" x="559.561364" xlink:href="#m71aeaacba6" y="582.9575"/>
      </g>
     </g>
     <g id="text_7">
      <!-- 600 -->
      <g transform="translate(550.017614 597.555938)scale(0.1 -0.1)">
       <defs>
        <path d="M 33.015625 40.375 
Q 26.375 40.375 22.484375 35.828125 
Q 18.609375 31.296875 18.609375 23.390625 
Q 18.609375 15.53125 22.484375 10.953125 
Q 26.375 6.390625 33.015625 6.390625 
Q 39.65625 6.390625 43.53125 10.953125 
Q 47.40625 15.53125 47.40625 23.390625 
Q 47.40625 31.296875 43.53125 35.828125 
Q 39.65625 40.375 33.015625 40.375 
z
M 52.59375 71.296875 
L 52.59375 62.3125 
Q 48.875 64.0625 45.09375 64.984375 
Q 41.3125 65.921875 37.59375 65.921875 
Q 27.828125 65.921875 22.671875 59.328125 
Q 17.53125 52.734375 16.796875 39.40625 
Q 19.671875 43.65625 24.015625 45.921875 
Q 28.375 48.1875 33.59375 48.1875 
Q 44.578125 48.1875 50.953125 41.515625 
Q 57.328125 34.859375 57.328125 23.390625 
Q 57.328125 12.15625 50.6875 5.359375 
Q 44.046875 -1.421875 33.015625 -1.421875 
Q 20.359375 -1.421875 13.671875 8.265625 
Q 6.984375 17.96875 6.984375 36.375 
Q 6.984375 53.65625 15.1875 63.9375 
Q 23.390625 74.21875 37.203125 74.21875 
Q 40.921875 74.21875 44.703125 73.484375 
Q 48.484375 72.75 52.59375 71.296875 
z
" id="DejaVuSans-54"/>
       </defs>
       <use xlink:href="#DejaVuSans-54"/>
       <use x="63.623047" xlink:href="#DejaVuSans-48"/>
       <use x="127.246094" xlink:href="#DejaVuSans-48"/>
      </g>
     </g>
    </g>
    <g id="text_8">
     <!-- Epochs -->
     <g transform="translate(288.009375 611.234063)scale(0.1 -0.1)">
      <defs>
       <path d="M 9.8125 72.90625 
L 55.90625 72.90625 
L 55.90625 64.59375 
L 19.671875 64.59375 
L 19.671875 43.015625 
L 54.390625 43.015625 
L 54.390625 34.71875 
L 19.671875 34.71875 
L 19.671875 8.296875 
L 56.78125 8.296875 
L 56.78125 0 
L 9.8125 0 
z
" id="DejaVuSans-69"/>
       <path d="M 18.109375 8.203125 
L 18.109375 -20.796875 
L 9.078125 -20.796875 
L 9.078125 54.6875 
L 18.109375 54.6875 
L 18.109375 46.390625 
Q 20.953125 51.265625 25.265625 53.625 
Q 29.59375 56 35.59375 56 
Q 45.5625 56 51.78125 48.09375 
Q 58.015625 40.1875 58.015625 27.296875 
Q 58.015625 14.40625 51.78125 6.484375 
Q 45.5625 -1.421875 35.59375 -1.421875 
Q 29.59375 -1.421875 25.265625 0.953125 
Q 20.953125 3.328125 18.109375 8.203125 
z
M 48.6875 27.296875 
Q 48.6875 37.203125 44.609375 42.84375 
Q 40.53125 48.484375 33.40625 48.484375 
Q 26.265625 48.484375 22.1875 42.84375 
Q 18.109375 37.203125 18.109375 27.296875 
Q 18.109375 17.390625 22.1875 11.75 
Q 26.265625 6.109375 33.40625 6.109375 
Q 40.53125 6.109375 44.609375 11.75 
Q 48.6875 17.390625 48.6875 27.296875 
z
" id="DejaVuSans-112"/>
       <path d="M 30.609375 48.390625 
Q 23.390625 48.390625 19.1875 42.75 
Q 14.984375 37.109375 14.984375 27.296875 
Q 14.984375 17.484375 19.15625 11.84375 
Q 23.34375 6.203125 30.609375 6.203125 
Q 37.796875 6.203125 41.984375 11.859375 
Q 46.1875 17.53125 46.1875 27.296875 
Q 46.1875 37.015625 41.984375 42.703125 
Q 37.796875 48.390625 30.609375 48.390625 
z
M 30.609375 56 
Q 42.328125 56 49.015625 48.375 
Q 55.71875 40.765625 55.71875 27.296875 
Q 55.71875 13.875 49.015625 6.21875 
Q 42.328125 -1.421875 30.609375 -1.421875 
Q 18.84375 -1.421875 12.171875 6.21875 
Q 5.515625 13.875 5.515625 27.296875 
Q 5.515625 40.765625 12.171875 48.375 
Q 18.84375 56 30.609375 56 
z
" id="DejaVuSans-111"/>
       <path d="M 48.78125 52.59375 
L 48.78125 44.1875 
Q 44.96875 46.296875 41.140625 47.34375 
Q 37.3125 48.390625 33.40625 48.390625 
Q 24.65625 48.390625 19.8125 42.84375 
Q 14.984375 37.3125 14.984375 27.296875 
Q 14.984375 17.28125 19.8125 11.734375 
Q 24.65625 6.203125 33.40625 6.203125 
Q 37.3125 6.203125 41.140625 7.25 
Q 44.96875 8.296875 48.78125 10.40625 
L 48.78125 2.09375 
Q 45.015625 0.34375 40.984375 -0.53125 
Q 36.96875 -1.421875 32.421875 -1.421875 
Q 20.0625 -1.421875 12.78125 6.34375 
Q 5.515625 14.109375 5.515625 27.296875 
Q 5.515625 40.671875 12.859375 48.328125 
Q 20.21875 56 33.015625 56 
Q 37.15625 56 41.109375 55.140625 
Q 45.0625 54.296875 48.78125 52.59375 
z
" id="DejaVuSans-99"/>
       <path d="M 54.890625 33.015625 
L 54.890625 0 
L 45.90625 0 
L 45.90625 32.71875 
Q 45.90625 40.484375 42.875 44.328125 
Q 39.84375 48.1875 33.796875 48.1875 
Q 26.515625 48.1875 22.3125 43.546875 
Q 18.109375 38.921875 18.109375 30.90625 
L 18.109375 0 
L 9.078125 0 
L 9.078125 75.984375 
L 18.109375 75.984375 
L 18.109375 46.1875 
Q 21.34375 51.125 25.703125 53.5625 
Q 30.078125 56 35.796875 56 
Q 45.21875 56 50.046875 50.171875 
Q 54.890625 44.34375 54.890625 33.015625 
z
" id="DejaVuSans-104"/>
       <path d="M 44.28125 53.078125 
L 44.28125 44.578125 
Q 40.484375 46.53125 36.375 47.5 
Q 32.28125 48.484375 27.875 48.484375 
Q 21.1875 48.484375 17.84375 46.4375 
Q 14.5 44.390625 14.5 40.28125 
Q 14.5 37.15625 16.890625 35.375 
Q 19.28125 33.59375 26.515625 31.984375 
L 29.59375 31.296875 
Q 39.15625 29.25 43.1875 25.515625 
Q 47.21875 21.78125 47.21875 15.09375 
Q 47.21875 7.46875 41.1875 3.015625 
Q 35.15625 -1.421875 24.609375 -1.421875 
Q 20.21875 -1.421875 15.453125 -0.5625 
Q 10.6875 0.296875 5.421875 2 
L 5.421875 11.28125 
Q 10.40625 8.6875 15.234375 7.390625 
Q 20.0625 6.109375 24.8125 6.109375 
Q 31.15625 6.109375 34.5625 8.28125 
Q 37.984375 10.453125 37.984375 14.40625 
Q 37.984375 18.0625 35.515625 20.015625 
Q 33.0625 21.96875 24.703125 23.78125 
L 21.578125 24.515625 
Q 13.234375 26.265625 9.515625 29.90625 
Q 5.8125 33.546875 5.8125 39.890625 
Q 5.8125 47.609375 11.28125 51.796875 
Q 16.75 56 26.8125 56 
Q 31.78125 56 36.171875 55.265625 
Q 40.578125 54.546875 44.28125 53.078125 
z
" id="DejaVuSans-115"/>
      </defs>
      <use xlink:href="#DejaVuSans-69"/>
      <use x="63.183594" xlink:href="#DejaVuSans-112"/>
      <use x="126.660156" xlink:href="#DejaVuSans-111"/>
      <use x="187.841797" xlink:href="#DejaVuSans-99"/>
      <use x="242.822266" xlink:href="#DejaVuSans-104"/>
      <use x="306.201172" xlink:href="#DejaVuSans-115"/>
     </g>
    </g>
   </g>
   <g id="matplotlib.axis_2">
    <g id="ytick_1">
     <g id="line2d_8">
      <defs>
       <path d="M 0 0 
L -3.5 0 
" id="m6a86346245" style="stroke:#000000;stroke-width:0.8;"/>
      </defs>
      <g>
       <use style="stroke:#000000;stroke-width:0.8;" x="26.925" xlink:href="#m6a86346245" y="558.248409"/>
      </g>
     </g>
     <g id="text_9">
      <!-- 0 -->
      <g transform="translate(13.5625 562.047628)scale(0.1 -0.1)">
       <use xlink:href="#DejaVuSans-48"/>
      </g>
     </g>
    </g>
    <g id="ytick_2">
     <g id="line2d_9">
      <g>
       <use style="stroke:#000000;stroke-width:0.8;" x="26.925" xlink:href="#m6a86346245" y="475.104733"/>
      </g>
     </g>
     <g id="text_10">
      <!-- 10 -->
      <g transform="translate(7.2 478.903952)scale(0.1 -0.1)">
       <use xlink:href="#DejaVuSans-49"/>
       <use x="63.623047" xlink:href="#DejaVuSans-48"/>
      </g>
     </g>
    </g>
    <g id="ytick_3">
     <g id="line2d_10">
      <g>
       <use style="stroke:#000000;stroke-width:0.8;" x="26.925" xlink:href="#m6a86346245" y="391.961057"/>
      </g>
     </g>
     <g id="text_11">
      <!-- 20 -->
      <g transform="translate(7.2 395.760276)scale(0.1 -0.1)">
       <use xlink:href="#DejaVuSans-50"/>
       <use x="63.623047" xlink:href="#DejaVuSans-48"/>
      </g>
     </g>
    </g>
    <g id="ytick_4">
     <g id="line2d_11">
      <g>
       <use style="stroke:#000000;stroke-width:0.8;" x="26.925" xlink:href="#m6a86346245" y="308.817382"/>
      </g>
     </g>
     <g id="text_12">
      <!-- 30 -->
      <g transform="translate(7.2 312.6166)scale(0.1 -0.1)">
       <use xlink:href="#DejaVuSans-51"/>
       <use x="63.623047" xlink:href="#DejaVuSans-48"/>
      </g>
     </g>
    </g>
    <g id="ytick_5">
     <g id="line2d_12">
      <g>
       <use style="stroke:#000000;stroke-width:0.8;" x="26.925" xlink:href="#m6a86346245" y="225.673706"/>
      </g>
     </g>
     <g id="text_13">
      <!-- 40 -->
      <g transform="translate(7.2 229.472924)scale(0.1 -0.1)">
       <use xlink:href="#DejaVuSans-52"/>
       <use x="63.623047" xlink:href="#DejaVuSans-48"/>
      </g>
     </g>
    </g>
    <g id="ytick_6">
     <g id="line2d_13">
      <g>
       <use style="stroke:#000000;stroke-width:0.8;" x="26.925" xlink:href="#m6a86346245" y="142.53003"/>
      </g>
     </g>
     <g id="text_14">
      <!-- 50 -->
      <g transform="translate(7.2 146.329249)scale(0.1 -0.1)">
       <use xlink:href="#DejaVuSans-53"/>
       <use x="63.623047" xlink:href="#DejaVuSans-48"/>
      </g>
     </g>
    </g>
    <g id="ytick_7">
     <g id="line2d_14">
      <g>
       <use style="stroke:#000000;stroke-width:0.8;" x="26.925" xlink:href="#m6a86346245" y="59.386354"/>
      </g>
     </g>
     <g id="text_15">
      <!-- 60 -->
      <g transform="translate(7.2 63.185573)scale(0.1 -0.1)">
       <use xlink:href="#DejaVuSans-54"/>
       <use x="63.623047" xlink:href="#DejaVuSans-48"/>
      </g>
     </g>
    </g>
   </g>
   <g id="line2d_15">
    <path clip-path="url(#p8f4cca16a1)" d="M 52.288636 466.546636 
L 53.134091 467.760936 
L 54.825 470.863688 
L 58.206818 478.595139 
L 62.434091 488.872921 
L 66.661364 497.486958 
L 70.888636 505.868476 
L 73.425 510.435174 
L 75.961364 514.509801 
L 78.497727 518.215785 
L 81.034091 521.428014 
L 85.261364 526.143064 
L 90.334091 530.646135 
L 95.406818 534.18857 
L 103.861364 539.105854 
L 107.243182 540.696417 
L 112.315909 542.724367 
L 117.388636 544.490001 
L 123.306818 546.253403 
L 130.915909 548.254861 
L 137.679545 549.948235 
L 141.061364 550.539632 
L 145.288636 551.027814 
L 152.052273 551.592778 
L 159.661364 552.0422 
L 175.725 552.722447 
L 195.170455 553.327932 
L 228.143182 554.133093 
L 275.488636 555.063084 
L 329.597727 555.900264 
L 404.843182 556.842601 
L 491.925 557.699091 
L 559.561364 558.248409 
L 559.561364 558.248409 
" style="fill:none;stroke:#1f77b4;stroke-linecap:square;stroke-width:1.5;"/>
   </g>
   <g id="line2d_16">
    <path clip-path="url(#p8f4cca16a1)" d="M 52.288636 394.169637 
L 53.134091 394.844013 
L 53.979545 396.312716 
L 54.825 398.286115 
L 55.670455 400.847314 
L 57.361364 406.544185 
L 62.434091 420.185261 
L 64.125 423.373102 
L 69.197727 433.620277 
L 71.734091 438.267271 
L 73.425 440.663819 
L 79.343182 447.274534 
L 80.188636 448.050329 
L 81.034091 448.656376 
L 82.725 449.482201 
L 84.415909 449.886454 
L 86.952273 450.485421 
L 90.334091 451.36631 
L 91.179545 451.447994 
L 93.715909 451.015 
L 95.406818 450.654539 
L 97.943182 450.393064 
L 98.788636 450.10991 
L 100.479545 449.717071 
L 103.015909 449.162842 
L 103.861364 449.144717 
L 105.552273 448.781817 
L 106.397727 448.717199 
L 107.243182 448.490312 
L 108.934091 448.264116 
L 112.315909 447.815282 
L 113.161364 447.796208 
L 114.006818 447.607588 
L 114.852273 447.714639 
L 115.697727 447.55715 
L 119.925 447.545404 
L 126.688636 447.07872 
L 130.070455 446.765184 
L 130.915909 446.939523 
L 131.761364 446.805362 
L 132.606818 447.084457 
L 149.515909 448.328997 
L 162.197727 448.39653 
L 167.270455 448.588159 
L 170.652273 448.940245 
L 174.879545 449.36442 
L 177.415909 449.510751 
L 181.643182 449.703595 
L 185.870455 450.104503 
L 190.097727 450.659059 
L 190.943182 450.917302 
L 191.788636 450.922608 
L 192.634091 451.615078 
L 193.479545 451.354812 
L 194.325 451.850394 
L 195.170455 452.48124 
L 198.552273 452.24471 
L 201.088636 451.325329 
L 201.934091 451.146372 
L 203.625 450.602932 
L 205.315909 450.296285 
L 208.697727 450.056113 
L 210.388636 449.957667 
L 215.461364 449.083593 
L 221.379545 448.248297 
L 232.370455 446.695149 
L 235.752273 446.464304 
L 238.288636 446.524316 
L 240.825 446.74954 
L 245.052273 447.401386 
L 254.352273 449.087413 
L 264.497727 449.412565 
L 270.415909 449.9102 
L 280.561364 450.901166 
L 289.015909 451.511705 
L 298.315909 451.52028 
L 316.915909 451.51256 
L 346.506818 451.837131 
L 364.261364 451.9622 
L 503.761364 452.54312 
L 547.725 452.576495 
L 559.561364 452.589158 
L 559.561364 452.589158 
" style="fill:none;stroke:#ff7f0e;stroke-linecap:square;stroke-width:1.5;"/>
   </g>
   <g id="line2d_17">
    <path clip-path="url(#p8f4cca16a1)" d="M 52.288636 394.169637 
L 53.979545 395.706703 
L 54.825 395.945598 
L 55.670455 398.807531 
L 57.361364 407.511673 
L 58.206818 410.601057 
L 59.897727 414.257622 
L 60.743182 415.808592 
L 61.588636 416.793243 
L 62.434091 416.386502 
L 63.279545 415.357551 
L 64.970455 412.197999 
L 67.506818 406.241722 
L 68.352273 403.58481 
L 69.197727 400.243061 
L 70.043182 395.962159 
L 70.888636 391.033047 
L 71.734091 385.085043 
L 72.579545 378.250894 
L 74.270455 361.376405 
L 76.806818 335.113942 
L 78.497727 319.51375 
L 80.188636 301.619746 
L 82.725 272.26074 
L 84.415909 249.937004 
L 85.261364 237.15238 
L 86.952273 214.572505 
L 92.025 140.671928 
L 93.715909 118.903671 
L 95.406818 98.837981 
L 96.252273 90.908462 
L 97.943182 77.911115 
L 98.788636 72.667773 
L 99.634091 68.669595 
L 100.479545 66.084405 
L 101.325 64.644912 
L 102.170455 64.08757 
L 103.015909 64.066591 
L 103.861364 64.470244 
L 104.706818 65.257991 
L 105.552273 66.515434 
L 106.397727 68.379734 
L 107.243182 70.725701 
L 108.934091 76.399839 
L 114.852273 98.177061 
L 120.770455 122.412861 
L 124.997727 138.288952 
L 129.225 152.62147 
L 131.761364 160.489367 
L 135.143182 170.166623 
L 137.679545 176.661955 
L 140.215909 182.521125 
L 142.752273 187.82699 
L 145.288636 192.364788 
L 146.979545 195.131667 
L 148.670455 197.57195 
L 151.206818 200.848681 
L 153.743182 203.729381 
L 156.279545 206.2549 
L 158.815909 208.485976 
L 161.352273 210.440548 
L 164.734091 212.629028 
L 171.497727 216.765314 
L 180.797727 222.526209 
L 196.015909 232.244736 
L 205.315909 237.747109 
L 212.079545 241.496358 
L 220.534091 245.855718 
L 228.988636 249.926959 
L 238.288636 254.174611 
L 248.434091 258.589024 
L 264.497727 265.386319 
L 283.943182 273.346683 
L 294.088636 277.216071 
L 306.770455 281.739777 
L 315.225 284.542617 
L 331.288636 289.478112 
L 343.970455 293.229709 
L 357.497727 297.031276 
L 378.634091 302.664875 
L 389.625 305.420037 
L 407.379545 309.705245 
L 443.734091 317.939086 
L 468.252273 323.043386 
L 486.006818 326.39548 
L 519.825 332.435632 
L 559.561364 338.823779 
L 559.561364 338.823779 
" style="fill:none;stroke:#2ca02c;stroke-linecap:square;stroke-width:1.5;"/>
   </g>
   <g id="line2d_18">
    <path clip-path="url(#p8f4cca16a1)" d="M 52.288636 394.169637 
L 53.134091 394.484268 
L 53.979545 396.441947 
L 54.825 397.650402 
L 55.670455 400.546489 
L 56.515909 404.361803 
L 57.361364 407.540875 
L 60.743182 417.136173 
L 61.588636 419.065136 
L 62.434091 419.628886 
L 63.279545 420.048377 
L 64.125 420.043455 
L 64.970455 419.908435 
L 65.815909 419.42975 
L 68.352273 414.887708 
L 69.197727 413.055169 
L 70.043182 410.756331 
L 70.888636 406.899766 
L 74.270455 386.249842 
L 78.497727 357.610471 
L 81.034091 337.762712 
L 85.261364 298.334197 
L 87.797727 271.378629 
L 89.488636 257.588546 
L 90.334091 250.188968 
L 92.025 238.810335 
L 92.870455 233.881614 
L 94.561364 225.370021 
L 95.406818 222.32898 
L 97.097727 218.349442 
L 97.943182 217.318042 
L 98.788636 217.550914 
L 99.634091 218.082872 
L 100.479545 219.086255 
L 101.325 221.101533 
L 103.015909 226.246767 
L 103.861364 229.371349 
L 110.625 257.964047 
L 112.315909 263.629459 
L 114.006818 268.786575 
L 116.543182 274.402212 
L 119.079545 278.194754 
L 119.925 279.201299 
L 120.770455 280.018658 
L 122.461364 281.940197 
L 123.306818 282.640147 
L 124.997727 284.331905 
L 125.843182 284.96317 
L 130.915909 289.793545 
L 134.297727 293.487346 
L 142.752273 303.79742 
L 146.979545 308.282437 
L 151.206818 312.083404 
L 163.043182 320.988192 
L 168.115909 324.54172 
L 173.188636 327.73965 
L 174.034091 328.074437 
L 174.879545 328.774446 
L 175.725 328.931411 
L 176.570455 329.816659 
L 177.415909 329.68779 
L 178.261364 330.789546 
L 179.106818 330.374003 
L 179.952273 331.51257 
L 180.797727 331.153124 
L 181.643182 331.849142 
L 182.488636 332.231412 
L 183.334091 332.218553 
L 184.179545 333.13585 
L 185.025 333.13601 
L 186.715909 334.383462 
L 187.561364 334.471373 
L 188.406818 335.365328 
L 190.097727 336.13134 
L 190.943182 336.97011 
L 191.788636 337.15776 
L 192.634091 337.905819 
L 193.479545 338.411158 
L 194.325 338.740449 
L 195.170455 339.524432 
L 196.015909 339.736038 
L 196.861364 340.340588 
L 197.706818 340.797145 
L 198.552273 341.065725 
L 199.397727 341.721473 
L 200.243182 341.853128 
L 201.088636 342.429881 
L 202.779545 343.049263 
L 203.625 343.504914 
L 204.470455 343.685302 
L 205.315909 344.225181 
L 206.161364 344.375303 
L 207.006818 344.863788 
L 207.852273 345.099113 
L 211.234091 346.604199 
L 212.079545 346.825877 
L 212.925 347.323817 
L 213.770455 347.566356 
L 215.461364 348.353059 
L 223.915909 352.017241 
L 224.761364 352.185479 
L 225.606818 352.667451 
L 226.452273 352.731452 
L 227.297727 353.324504 
L 228.143182 353.182646 
L 228.988636 353.942325 
L 229.834091 353.541153 
L 230.679545 354.363813 
L 231.525 353.901026 
L 232.370455 354.474826 
L 234.061364 354.562037 
L 234.906818 355.149521 
L 235.752273 355.036209 
L 236.597727 355.615942 
L 238.288636 356.074921 
L 239.134091 356.759147 
L 239.979545 356.864438 
L 240.825 357.440059 
L 241.670455 357.851724 
L 242.515909 358.114937 
L 243.361364 358.773253 
L 244.206818 358.911118 
L 245.052273 359.480886 
L 246.743182 360.098894 
L 247.588636 360.550561 
L 248.434091 360.692981 
L 249.279545 361.187168 
L 250.125 361.258709 
L 250.970455 361.649501 
L 252.661364 362.032196 
L 253.506818 362.281846 
L 254.352273 362.394199 
L 255.197727 362.731927 
L 256.043182 362.78781 
L 256.888636 363.129901 
L 257.734091 363.23062 
L 259.425 363.729882 
L 261.961364 364.419999 
L 262.806818 364.80671 
L 263.652273 364.94306 
L 264.497727 365.337641 
L 265.343182 365.490986 
L 266.188636 365.856524 
L 267.034091 366.052983 
L 268.725 366.611868 
L 275.488636 368.614895 
L 276.334091 368.589384 
L 277.179545 369.032117 
L 278.025 368.920001 
L 278.870455 369.384481 
L 279.715909 369.233895 
L 280.561364 369.659337 
L 281.406818 369.564945 
L 282.252273 369.897886 
L 283.097727 369.957287 
L 287.325 370.910592 
L 288.170455 371.325285 
L 289.015909 371.376657 
L 289.861364 371.79295 
L 290.706818 371.864678 
L 291.552273 372.25718 
L 292.397727 372.356754 
L 293.243182 372.706335 
L 294.088636 372.836837 
L 294.934091 373.145415 
L 295.779545 373.281459 
L 296.625 373.563245 
L 297.470455 373.685685 
L 298.315909 373.957297 
L 299.161364 374.041436 
L 300.006818 374.336365 
L 300.852273 374.361306 
L 301.697727 374.703195 
L 302.543182 374.635535 
L 303.388636 375.054931 
L 304.234091 374.873955 
L 305.079545 375.345714 
L 305.925 375.084885 
L 306.770455 375.519501 
L 307.615909 375.342123 
L 308.461364 375.614448 
L 310.152273 375.763345 
L 310.997727 376.079799 
L 311.843182 376.036555 
L 312.688636 376.453792 
L 313.534091 376.449125 
L 314.379545 376.793196 
L 316.070455 377.18694 
L 316.915909 377.477682 
L 317.761364 377.602748 
L 318.606818 377.999687 
L 319.452273 378.012553 
L 320.297727 378.452825 
L 321.143182 378.393967 
L 321.988636 378.820512 
L 322.834091 378.724615 
L 323.679545 379.089971 
L 324.525 379.033047 
L 325.370455 379.284881 
L 327.061364 379.457597 
L 327.906818 379.623704 
L 328.752273 379.636808 
L 329.597727 379.905008 
L 330.443182 379.868458 
L 331.288636 380.185735 
L 332.134091 380.137569 
L 332.979545 380.459963 
L 333.825 380.462673 
L 334.670455 380.747394 
L 335.515909 380.803257 
L 336.361364 381.04653 
L 338.897727 381.513443 
L 343.970455 382.515643 
L 344.815909 382.549933 
L 345.661364 382.827211 
L 346.506818 382.780265 
L 347.352273 383.133518 
L 348.197727 382.946097 
L 349.043182 383.374145 
L 349.888636 383.070424 
L 350.734091 383.483393 
L 351.579545 383.185744 
L 352.425 383.457824 
L 354.115909 383.435105 
L 354.961364 383.677577 
L 355.806818 383.570853 
L 356.652273 383.914441 
L 357.497727 383.894423 
L 359.188636 384.324765 
L 360.034091 384.396445 
L 360.879545 384.754645 
L 361.725 384.763832 
L 362.570455 385.166379 
L 363.415909 385.188468 
L 364.261364 385.525529 
L 365.106818 385.609458 
L 365.952273 385.864347 
L 371.870455 386.789504 
L 372.715909 386.754497 
L 373.561364 386.97725 
L 374.406818 386.89738 
L 375.252273 387.144223 
L 376.097727 387.04057 
L 376.943182 387.288076 
L 377.788636 387.212959 
L 378.634091 387.423078 
L 379.479545 387.422451 
L 382.861364 387.953697 
L 383.706818 388.007844 
L 384.552273 388.258985 
L 385.397727 388.266953 
L 386.243182 388.559772 
L 387.088636 388.542144 
L 387.934091 388.835669 
L 388.779545 388.805783 
L 389.625 389.078426 
L 390.470455 389.073628 
L 391.315909 389.294957 
L 392.161364 389.326401 
L 393.852273 389.567975 
L 398.925 390.239899 
L 399.770455 390.305563 
L 400.615909 390.48905 
L 401.461364 390.501522 
L 402.306818 390.748666 
L 403.152273 390.684329 
L 403.997727 390.986568 
L 404.843182 390.832357 
L 405.688636 391.156611 
L 406.534091 390.96346 
L 407.379545 391.243457 
L 408.225 391.115303 
L 409.070455 391.290502 
L 410.761364 391.366227 
L 411.606818 391.546867 
L 412.452273 391.5068 
L 413.297727 391.774148 
L 414.143182 391.728415 
L 414.988636 391.985272 
L 415.834091 392.011986 
L 417.525 392.328392 
L 422.597727 393.266609 
L 423.443182 393.203558 
L 424.288636 393.500575 
L 425.134091 393.351426 
L 425.979545 393.640862 
L 426.825 393.464816 
L 427.670455 393.693396 
L 428.515909 393.582822 
L 429.361364 393.719842 
L 431.052273 393.776486 
L 431.897727 393.927966 
L 432.743182 393.895301 
L 433.588636 394.120697 
L 434.434091 394.091125 
L 435.279545 394.320273 
L 436.125 394.347379 
L 437.815909 394.640617 
L 441.197727 395.234199 
L 442.043182 395.285158 
L 442.888636 395.499273 
L 443.734091 395.488675 
L 444.579545 395.727515 
L 445.425 395.646063 
L 446.270455 395.901492 
L 447.115909 395.76251 
L 447.961364 396.004047 
L 448.806818 395.86461 
L 449.652273 396.05607 
L 450.497727 395.985021 
L 452.188636 396.139244 
L 454.725 396.312212 
L 455.570455 396.520412 
L 456.415909 396.505442 
L 457.261364 396.730545 
L 458.106818 396.746393 
L 458.952273 396.961322 
L 459.797727 397.004221 
L 461.488636 397.264884 
L 464.870455 397.72388 
L 467.406818 397.934973 
L 468.252273 398.098353 
L 469.097727 398.071241 
L 469.943182 398.256317 
L 470.788636 398.190796 
L 471.634091 398.402489 
L 472.479545 398.297133 
L 473.325 398.521025 
L 474.170455 398.408806 
L 475.015909 398.608475 
L 475.861364 398.539072 
L 477.552273 398.710585 
L 480.088636 398.888892 
L 480.934091 399.082735 
L 481.779545 399.073003 
L 482.625 399.264556 
L 483.470455 399.295785 
L 485.161364 399.52855 
L 488.543182 399.987021 
L 491.079545 400.212206 
L 491.925 400.361828 
L 492.770455 400.352023 
L 493.615909 400.505619 
L 494.461364 400.465067 
L 495.306818 400.623575 
L 496.152273 400.572881 
L 496.997727 400.726088 
L 497.843182 400.68492 
L 498.688636 400.820973 
L 499.534091 400.812125 
L 502.070455 401.038441 
L 507.143182 401.506856 
L 507.988636 401.661071 
L 508.834091 401.680399 
L 509.679545 401.840378 
L 510.525 401.845504 
L 511.370455 402.004778 
L 512.215909 402.006436 
L 513.061364 402.149915 
L 513.906818 402.157131 
L 515.597727 402.296766 
L 518.134091 402.513544 
L 523.206818 402.91562 
L 559.561364 405.730301 
L 559.561364 405.730301 
" style="fill:none;stroke:#d62728;stroke-linecap:square;stroke-width:1.5;"/>
   </g>
   <g id="line2d_19">
    <path clip-path="url(#p8f4cca16a1)" d="M 52.288636 394.169637 
L 53.134091 392.273457 
L 53.979545 401.983118 
L 55.670455 395.373179 
L 56.515909 396.743673 
L 58.206818 405.435466 
L 59.052273 408.374471 
L 59.897727 409.03384 
L 61.588636 407.375209 
L 62.434091 407.436604 
L 63.279545 409.085217 
L 64.970455 414.250326 
L 65.815909 416.112734 
L 66.661364 416.836218 
L 67.506818 416.874894 
L 68.352273 416.595909 
L 69.197727 416.947809 
L 70.043182 418.1338 
L 70.888636 420.451106 
L 73.425 430.205548 
L 74.270455 432.406075 
L 75.115909 433.963054 
L 75.961364 435.180611 
L 77.652273 438.327993 
L 78.497727 440.075861 
L 79.343182 441.349683 
L 80.188636 442.371522 
L 81.034091 442.880395 
L 81.879545 443.19448 
L 82.725 442.700276 
L 83.570455 442.023658 
L 84.415909 440.995069 
L 85.261364 439.446304 
L 86.106818 437.657205 
L 86.952273 436.337646 
L 89.488636 433.573064 
L 91.179545 430.691237 
L 92.025 430.149742 
L 92.870455 429.213144 
L 93.715909 428.471936 
L 94.561364 427.932522 
L 95.406818 427.143949 
L 96.252273 426.819968 
L 97.097727 425.857713 
L 97.943182 424.137842 
L 98.788636 422.783639 
L 99.634091 420.954686 
L 100.479545 418.756359 
L 101.325 416.92866 
L 102.170455 414.66558 
L 103.015909 413.73005 
L 103.861364 412.130665 
L 104.706818 411.005352 
L 105.552273 409.496415 
L 106.397727 407.408015 
L 107.243182 406.113136 
L 108.088636 403.806091 
L 108.934091 404.199697 
L 109.779545 403.674118 
L 110.625 402.608644 
L 111.470455 402.43204 
L 112.315909 402.376843 
L 113.161364 401.654431 
L 114.006818 400.696458 
L 115.697727 400.526662 
L 117.388636 398.881786 
L 118.234091 398.858598 
L 119.079545 398.528591 
L 119.925 397.779788 
L 121.615909 397.722308 
L 122.461364 397.258016 
L 123.306818 397.064899 
L 124.152273 397.234479 
L 125.843182 397.057525 
L 127.534091 397.528201 
L 128.379545 397.571469 
L 130.070455 398.378622 
L 130.915909 398.538473 
L 131.761364 398.813848 
L 132.606818 399.213709 
L 134.297727 399.533928 
L 135.143182 399.85801 
L 136.834091 400.237544 
L 137.679545 400.607782 
L 139.370455 401.040126 
L 141.061364 401.71476 
L 146.134091 403.876248 
L 147.825 404.662913 
L 152.052273 406.266408 
L 154.588636 407.127339 
L 156.279545 407.788561 
L 157.125 408.033518 
L 158.815909 408.64829 
L 162.197727 409.900464 
L 164.734091 410.714862 
L 168.115909 411.732016 
L 170.652273 412.388215 
L 173.188636 413.079024 
L 175.725 413.655218 
L 178.261364 414.29209 
L 180.797727 414.820382 
L 181.643182 415.070132 
L 182.488636 415.146731 
L 183.334091 415.434696 
L 184.179545 415.459434 
L 185.025 415.759138 
L 185.870455 415.759341 
L 186.715909 416.031707 
L 187.561364 416.079661 
L 189.252273 416.402451 
L 205.315909 419.122302 
L 208.697727 419.589265 
L 211.234091 419.993969 
L 212.925 420.21254 
L 215.461364 420.520762 
L 230.679545 422.339091 
L 254.352273 424.627796 
L 266.188636 425.601271 
L 281.406818 426.721052 
L 293.243182 427.404345 
L 330.443182 429.110812 
L 351.579545 429.934346 
L 381.170455 430.94513 
L 409.070455 431.72969 
L 442.043182 432.456129 
L 480.088636 433.103081 
L 559.561364 434.056448 
L 559.561364 434.056448 
" style="fill:none;stroke:#9467bd;stroke-linecap:square;stroke-width:1.5;"/>
   </g>
   <g id="line2d_20">
    <path clip-path="url(#p8f4cca16a1)" d="M 52.288636 394.169637 
L 53.134091 390.865688 
L 53.979545 400.881286 
L 54.825 399.239719 
L 55.670455 395.116931 
L 56.515909 394.022766 
L 57.361364 396.346261 
L 58.206818 400.129029 
L 59.052273 403.308014 
L 59.897727 404.782213 
L 60.743182 404.456164 
L 61.588636 403.174746 
L 62.434091 402.268202 
L 63.279545 402.597147 
L 64.125 404.104147 
L 65.815909 408.446797 
L 66.661364 409.799965 
L 67.506818 410.145375 
L 69.197727 409.294059 
L 70.043182 409.401451 
L 70.888636 410.440054 
L 72.579545 413.757064 
L 73.425 414.976627 
L 74.270455 415.507774 
L 75.115909 415.55432 
L 75.961364 415.447647 
L 76.806818 415.848332 
L 77.652273 417.104678 
L 80.188636 422.410747 
L 81.879545 425.024539 
L 82.725 426.844346 
L 86.106818 436.87448 
L 90.334091 445.543133 
L 91.179545 446.922708 
L 92.025 447.692835 
L 92.870455 449.12223 
L 94.561364 449.845479 
L 95.406818 451.011487 
L 96.252273 451.474422 
L 97.097727 451.367723 
L 97.943182 451.38818 
L 98.788636 451.231206 
L 100.479545 450.472904 
L 101.325 449.470072 
L 102.170455 448.949986 
L 103.861364 448.327315 
L 104.706818 448.375879 
L 105.552273 447.711926 
L 106.397727 447.624404 
L 107.243182 446.780003 
L 110.625 445.442062 
L 111.470455 445.369077 
L 112.315909 445.045523 
L 113.161364 444.50189 
L 114.006818 444.577342 
L 115.697727 443.913793 
L 116.543182 443.76879 
L 117.388636 443.187045 
L 119.079545 442.304242 
L 119.925 441.452455 
L 120.770455 441.316316 
L 121.615909 440.926307 
L 122.461364 440.33811 
L 123.306818 440.240572 
L 124.152273 439.526378 
L 125.843182 438.97225 
L 126.688636 438.322223 
L 127.534091 438.236864 
L 128.379545 437.667922 
L 129.225 437.614846 
L 130.070455 437.448382 
L 130.915909 437.145589 
L 131.761364 437.289646 
L 132.606818 437.098589 
L 133.452273 437.158874 
L 135.143182 437.032492 
L 135.988636 437.156371 
L 136.834091 436.909288 
L 137.679545 437.024841 
L 138.525 436.836895 
L 139.370455 436.952432 
L 141.061364 436.843713 
L 141.906818 436.890711 
L 142.752273 436.810622 
L 143.597727 436.945867 
L 144.443182 436.816169 
L 145.288636 437.082975 
L 146.134091 436.942679 
L 146.979545 437.049236 
L 148.670455 436.955266 
L 149.515909 437.155351 
L 150.361364 436.970036 
L 151.206818 437.220097 
L 152.897727 437.218524 
L 153.743182 437.418157 
L 154.588636 437.26529 
L 155.434091 437.521008 
L 156.279545 437.463324 
L 157.125 437.526476 
L 157.970455 437.70764 
L 158.815909 437.601395 
L 159.661364 437.854791 
L 160.506818 437.804198 
L 165.579545 438.388997 
L 166.425 438.543909 
L 167.270455 438.467368 
L 168.115909 438.649878 
L 168.961364 438.593045 
L 176.570455 439.393162 
L 177.415909 439.341807 
L 178.261364 439.485387 
L 179.106818 439.45853 
L 182.488636 439.796609 
L 183.334091 439.753365 
L 184.179545 439.913666 
L 185.025 439.873877 
L 186.715909 440.03246 
L 189.252273 440.185464 
L 190.097727 440.327603 
L 190.943182 440.292662 
L 192.634091 440.424162 
L 214.615909 441.860668 
L 244.206818 442.693656 
L 254.352273 442.832401 
L 271.261364 442.671103 
L 289.861364 442.212619 
L 308.461364 441.578031 
L 340.588636 440.621305 
L 358.343182 440.251746 
L 376.943182 440.098596 
L 377.788636 439.849573 
L 378.634091 440.126315 
L 379.479545 439.813932 
L 380.325 440.086236 
L 381.170455 439.898012 
L 382.861364 440.047453 
L 383.706818 439.873835 
L 384.552273 440.087901 
L 385.397727 439.939645 
L 387.088636 440.05219 
L 387.934091 439.907719 
L 388.779545 440.062151 
L 389.625 439.955702 
L 395.543182 440.004869 
L 396.388636 439.899451 
L 398.079545 439.944513 
L 398.925 439.884457 
L 399.770455 439.958879 
L 401.461364 439.908346 
L 406.534091 439.902257 
L 408.225 439.886599 
L 414.143182 439.813826 
L 416.679545 439.820582 
L 440.352273 439.703774 
L 473.325 439.545317 
L 514.752273 439.379747 
L 559.561364 439.251041 
L 559.561364 439.251041 
" style="fill:none;stroke:#8c564b;stroke-linecap:square;stroke-width:1.5;"/>
   </g>
   <g id="line2d_21">
    <path clip-path="url(#p8f4cca16a1)" d="M 52.288636 394.169637 
L 53.134091 390.118934 
L 53.979545 400.178752 
L 54.825 399.235002 
L 55.670455 395.284841 
L 56.515909 393.423057 
L 57.361364 394.590374 
L 59.052273 400.465399 
L 59.897727 401.947712 
L 60.743182 401.884876 
L 62.434091 399.789269 
L 63.279545 399.538665 
L 64.125 400.354776 
L 66.661364 405.488003 
L 67.506818 406.286725 
L 68.352273 406.422597 
L 70.043182 406.030722 
L 70.888636 406.259697 
L 71.734091 406.946267 
L 74.270455 410.344054 
L 75.115909 410.902276 
L 75.961364 411.205742 
L 76.806818 411.254612 
L 77.652273 411.596705 
L 78.497727 412.262369 
L 81.034091 414.738132 
L 83.570455 416.467174 
L 85.261364 418.47831 
L 88.643182 422.931225 
L 89.488636 424.50572 
L 92.025 429.984904 
L 97.943182 441.603632 
L 101.325 446.78565 
L 102.170455 447.565184 
L 103.015909 449.619425 
L 103.861364 450.66883 
L 104.706818 451.200178 
L 105.552273 452.378657 
L 106.397727 453.323216 
L 107.243182 453.440392 
L 108.934091 454.229295 
L 110.625 453.713382 
L 111.470455 453.661596 
L 112.315909 452.521019 
L 113.161364 451.767881 
L 114.006818 451.47164 
L 114.852273 450.848809 
L 115.697727 451.035747 
L 117.388636 450.390146 
L 119.079545 448.99035 
L 119.925 448.574188 
L 120.770455 447.525111 
L 121.615909 448.322081 
L 122.461364 448.516965 
L 123.306818 448.315625 
L 124.152273 448.260915 
L 124.997727 448.456792 
L 125.843182 448.324659 
L 126.688636 447.944613 
L 127.534091 448.152183 
L 128.379545 448.748533 
L 129.225 448.897647 
L 130.070455 448.83394 
L 131.761364 449.233565 
L 132.606818 449.140773 
L 133.452273 448.85667 
L 134.297727 448.874164 
L 135.143182 448.712478 
L 135.988636 448.167696 
L 136.834091 448.149667 
L 137.679545 448.426695 
L 139.370455 448.05462 
L 140.215909 448.36804 
L 141.061364 448.447098 
L 141.906818 448.294815 
L 143.597727 448.589443 
L 144.443182 448.298691 
L 146.134091 448.312381 
L 146.979545 447.994087 
L 147.825 447.808407 
L 148.670455 447.824152 
L 149.515909 447.528249 
L 151.206818 447.31129 
L 152.052273 446.864868 
L 153.743182 446.686259 
L 154.588636 446.3106 
L 155.434091 446.31603 
L 157.125 445.844707 
L 157.970455 445.756476 
L 158.815909 445.35255 
L 159.661364 445.367802 
L 161.352273 444.824149 
L 162.197727 444.788858 
L 163.043182 444.335021 
L 163.888636 444.431399 
L 164.734091 443.90163 
L 165.579545 444.077568 
L 166.425 443.65502 
L 167.270455 443.708137 
L 168.961364 443.418543 
L 169.806818 443.477303 
L 170.652273 443.140153 
L 171.497727 443.394044 
L 172.343182 442.904156 
L 173.188636 443.260254 
L 174.034091 442.778444 
L 174.879545 443.02089 
L 176.570455 442.710826 
L 177.415909 442.923345 
L 178.261364 442.513699 
L 179.106818 442.76864 
L 179.952273 442.50113 
L 181.643182 442.507396 
L 182.488636 442.213286 
L 183.334091 442.392598 
L 184.179545 442.150393 
L 185.870455 442.162631 
L 186.715909 441.965329 
L 187.561364 442.115941 
L 188.406818 441.910841 
L 190.097727 441.947195 
L 190.943182 441.829643 
L 191.788636 441.93964 
L 192.634091 441.797645 
L 194.325 441.813846 
L 195.170455 441.741599 
L 196.015909 441.818261 
L 196.861364 441.66355 
L 197.706818 441.756037 
L 198.552273 441.636575 
L 200.243182 441.646084 
L 201.088636 441.568358 
L 201.934091 441.654545 
L 202.779545 441.517354 
L 203.625 441.599637 
L 205.315909 441.495277 
L 206.161364 441.515515 
L 207.006818 441.420703 
L 207.852273 441.482163 
L 209.543182 441.40734 
L 232.370455 440.94851 
L 246.743182 440.606258 
L 253.506818 440.507405 
L 258.579545 440.394115 
L 269.570455 440.122195 
L 294.088636 439.763414 
L 315.225 439.666527 
L 343.970455 439.578372 
L 360.879545 439.561328 
L 370.179545 439.524211 
L 559.561364 439.604775 
L 559.561364 439.604775 
" style="fill:none;stroke:#e377c2;stroke-linecap:square;stroke-width:1.5;"/>
   </g>
   <g id="line2d_22">
    <path clip-path="url(#p8f4cca16a1)" d="M 52.288636 394.169637 
L 53.134091 389.678094 
L 53.979545 399.746412 
L 54.825 399.151756 
L 55.670455 395.203531 
L 56.515909 393.002536 
L 57.361364 393.663131 
L 59.052273 398.981988 
L 59.897727 400.503116 
L 60.743182 400.54731 
L 62.434091 398.279009 
L 63.279545 397.720918 
L 64.125 398.177024 
L 64.970455 399.445916 
L 65.815909 400.988572 
L 66.661364 402.252791 
L 67.506818 402.984509 
L 68.352273 403.188371 
L 70.043182 403.093739 
L 70.888636 403.27317 
L 71.734091 403.682764 
L 72.579545 404.366888 
L 74.270455 406.085898 
L 75.115909 406.743465 
L 76.806818 407.567342 
L 78.497727 408.330305 
L 80.188636 409.632021 
L 81.034091 410.441111 
L 82.725 411.676793 
L 86.952273 413.845985 
L 88.643182 415.156558 
L 92.870455 419.097632 
L 93.715909 420.077097 
L 95.406818 422.487201 
L 105.552273 438.76477 
L 106.397727 440.471026 
L 108.088636 442.673758 
L 108.934091 444.209593 
L 109.779545 445.107752 
L 111.470455 447.453404 
L 112.315909 447.958174 
L 113.161364 448.614651 
L 114.006818 449.415691 
L 114.852273 449.798533 
L 115.697727 450.941596 
L 116.543182 451.431469 
L 117.388636 451.751006 
L 118.234091 451.900217 
L 119.079545 451.567572 
L 119.925 451.76737 
L 120.770455 451.292764 
L 121.615909 451.286266 
L 122.461364 450.397292 
L 123.306818 449.169073 
L 124.152273 448.536151 
L 125.843182 446.639723 
L 126.688636 446.332212 
L 128.379545 445.252799 
L 129.225 445.313677 
L 130.070455 444.559303 
L 131.761364 444.471333 
L 132.606818 444.196087 
L 133.452273 444.426643 
L 134.297727 444.399591 
L 135.143182 444.185679 
L 135.988636 444.541907 
L 137.679545 444.713176 
L 138.525 445.12304 
L 139.370455 444.924995 
L 141.061364 444.87993 
L 141.906818 444.493556 
L 142.752273 444.757751 
L 143.597727 444.351114 
L 144.443182 444.577619 
L 145.288636 444.53162 
L 146.134091 444.309966 
L 146.979545 444.500404 
L 147.825 444.058213 
L 148.670455 444.292363 
L 149.515909 444.064836 
L 150.361364 444.013071 
L 151.206818 444.137932 
L 152.052273 443.879626 
L 152.897727 444.197185 
L 153.743182 443.985969 
L 154.588636 444.165067 
L 155.434091 444.214963 
L 156.279545 444.135942 
L 157.125 444.361745 
L 157.970455 444.092837 
L 158.815909 444.379487 
L 159.661364 444.159129 
L 160.506818 444.288707 
L 163.043182 444.236532 
L 163.888636 443.911562 
L 164.734091 444.105218 
L 165.579545 443.743122 
L 166.425 443.835306 
L 167.270455 443.631507 
L 170.652273 443.377267 
L 171.497727 443.014292 
L 172.343182 443.178285 
L 173.188636 442.843481 
L 174.034091 442.914356 
L 174.879545 442.652779 
L 176.570455 442.415592 
L 177.415909 442.165761 
L 178.261364 442.099466 
L 179.106818 441.715139 
L 179.952273 441.780948 
L 180.797727 441.263409 
L 181.643182 441.522291 
L 182.488636 440.922683 
L 183.334091 441.309851 
L 184.179545 440.723355 
L 185.025 441.044905 
L 185.870455 440.70742 
L 187.561364 440.7469 
L 188.406818 440.385303 
L 189.252273 440.663677 
L 190.097727 440.221849 
L 190.943182 440.421423 
L 191.788636 440.17344 
L 192.634091 440.082791 
L 193.479545 440.12048 
L 194.325 439.787995 
L 195.170455 439.983798 
L 196.015909 439.602713 
L 196.861364 439.763698 
L 197.706818 439.52404 
L 199.397727 439.504729 
L 200.243182 439.279498 
L 201.088636 439.451741 
L 201.934091 439.121124 
L 202.779545 439.330478 
L 203.625 439.045006 
L 204.470455 439.147879 
L 206.161364 438.968673 
L 207.006818 439.061541 
L 207.852273 438.839367 
L 208.697727 439.002137 
L 209.543182 438.746533 
L 210.388636 438.858591 
L 212.079545 438.687651 
L 212.925 438.740412 
L 213.770455 438.558623 
L 214.615909 438.707773 
L 215.461364 438.48149 
L 216.306818 438.600948 
L 217.997727 438.462093 
L 218.843182 438.493072 
L 219.688636 438.358128 
L 220.534091 438.480874 
L 221.379545 438.306565 
L 222.225 438.394158 
L 223.915909 438.286211 
L 224.761364 438.325491 
L 225.606818 438.209529 
L 226.452273 438.308012 
L 227.297727 438.177956 
L 228.988636 438.18734 
L 231.525 438.085945 
L 232.370455 438.15461 
L 233.215909 438.058153 
L 234.906818 438.0701 
L 237.443182 438.009852 
L 239.134091 438.011576 
L 316.915909 437.894109 
L 358.343182 437.922587 
L 559.561364 438.127878 
L 559.561364 438.127878 
" style="fill:none;stroke:#7f7f7f;stroke-linecap:square;stroke-width:1.5;"/>
   </g>
   <g id="line2d_23">
    <path clip-path="url(#p8f4cca16a1)" d="M 52.288636 394.169637 
L 53.134091 389.233433 
L 53.979545 399.065576 
L 54.825 398.746979 
L 55.670455 394.833476 
L 56.515909 392.213108 
L 57.361364 392.425148 
L 58.206818 394.594589 
L 59.052273 397.175153 
L 59.897727 398.747214 
L 60.743182 398.9208 
L 61.588636 397.938583 
L 62.434091 396.646228 
L 63.279545 395.827158 
L 64.125 395.82229 
L 64.970455 396.605833 
L 66.661364 398.881112 
L 67.506818 399.535062 
L 68.352273 399.701848 
L 70.043182 399.393837 
L 70.888636 399.437688 
L 71.734091 399.732155 
L 73.425 400.822227 
L 75.961364 402.569781 
L 78.497727 404.058908 
L 81.034091 404.904859 
L 81.879545 405.489067 
L 83.570455 406.976049 
L 84.415909 407.505447 
L 85.261364 407.825549 
L 86.952273 408.185955 
L 87.797727 408.627887 
L 91.179545 411.160971 
L 92.870455 411.610201 
L 93.715909 412.066552 
L 97.097727 414.472325 
L 97.943182 414.872179 
L 98.788636 415.484613 
L 102.170455 418.833746 
L 103.015909 419.668104 
L 104.706818 421.950692 
L 105.552273 423.097043 
L 111.470455 429.45495 
L 113.161364 431.953341 
L 114.852273 434.529618 
L 115.697727 436.041205 
L 116.543182 438.064272 
L 119.925 443.157697 
L 120.770455 444.187312 
L 121.615909 445.611949 
L 123.306818 447.009792 
L 124.152273 448.411986 
L 125.843182 449.83108 
L 126.688636 450.825926 
L 127.534091 451.316026 
L 128.379545 452.219429 
L 130.070455 453.029999 
L 131.761364 452.584269 
L 132.606818 452.268112 
L 133.452273 452.155414 
L 134.297727 451.314141 
L 135.143182 451.782951 
L 135.988636 451.05907 
L 136.834091 449.936364 
L 138.525 449.447527 
L 140.215909 448.094783 
L 141.906818 448.420817 
L 142.752273 448.003678 
L 143.597727 447.372273 
L 146.979545 446.793311 
L 148.670455 447.302965 
L 150.361364 447.015954 
L 151.206818 447.449137 
L 152.052273 447.665996 
L 152.897727 447.591831 
L 153.743182 447.637202 
L 154.588636 448.009606 
L 155.434091 448.229475 
L 157.125 448.399811 
L 157.970455 448.677259 
L 158.815909 448.785796 
L 159.661364 448.752882 
L 164.734091 449.546029 
L 166.425 449.405229 
L 167.270455 449.516647 
L 169.806818 449.382089 
L 170.652273 449.504831 
L 172.343182 449.475296 
L 174.034091 449.627261 
L 175.725 449.603743 
L 176.570455 449.653543 
L 178.261364 449.523648 
L 179.952273 449.605026 
L 181.643182 449.527146 
L 183.334091 449.548627 
L 185.025 449.504686 
L 186.715909 449.46517 
L 194.325 449.276909 
L 200.243182 449.009129 
L 223.915909 447.776588 
L 238.288636 446.780323 
L 268.725 444.810869 
L 289.861364 443.594604 
L 309.306818 442.685893 
L 328.752273 442.028669 
L 359.188636 441.295209 
L 395.543182 440.696701 
L 436.970455 440.253601 
L 494.461364 439.82402 
L 559.561364 439.496866 
L 559.561364 439.496866 
" style="fill:none;stroke:#bcbd22;stroke-linecap:square;stroke-width:1.5;"/>
   </g>
   <g id="patch_4">
    <path d="M 26.925 582.9575 
L 26.925 39.3575 
" style="fill:none;stroke:#000000;stroke-linecap:square;stroke-linejoin:miter;stroke-width:0.8;"/>
   </g>
   <g id="patch_5">
    <path d="M 584.925 582.9575 
L 584.925 39.3575 
" style="fill:none;stroke:#000000;stroke-linecap:square;stroke-linejoin:miter;stroke-width:0.8;"/>
   </g>
   <g id="patch_6">
    <path d="M 26.925 582.9575 
L 584.925 582.9575 
" style="fill:none;stroke:#000000;stroke-linecap:square;stroke-linejoin:miter;stroke-width:0.8;"/>
   </g>
   <g id="patch_7">
    <path d="M 26.925 39.3575 
L 584.925 39.3575 
" style="fill:none;stroke:#000000;stroke-linecap:square;stroke-linejoin:miter;stroke-width:0.8;"/>
   </g>
   <g id="text_16">
    <!-- Class separation -->
    <g transform="translate(265.343182 577.5215)scale(0.1 -0.1)">
     <defs>
      <path d="M 64.40625 67.28125 
L 64.40625 56.890625 
Q 59.421875 61.53125 53.78125 63.8125 
Q 48.140625 66.109375 41.796875 66.109375 
Q 29.296875 66.109375 22.65625 58.46875 
Q 16.015625 50.828125 16.015625 36.375 
Q 16.015625 21.96875 22.65625 14.328125 
Q 29.296875 6.6875 41.796875 6.6875 
Q 48.140625 6.6875 53.78125 8.984375 
Q 59.421875 11.28125 64.40625 15.921875 
L 64.40625 5.609375 
Q 59.234375 2.09375 53.4375 0.328125 
Q 47.65625 -1.421875 41.21875 -1.421875 
Q 24.65625 -1.421875 15.125 8.703125 
Q 5.609375 18.84375 5.609375 36.375 
Q 5.609375 53.953125 15.125 64.078125 
Q 24.65625 74.21875 41.21875 74.21875 
Q 47.75 74.21875 53.53125 72.484375 
Q 59.328125 70.75 64.40625 67.28125 
z
" id="DejaVuSans-67"/>
      <path d="M 9.421875 75.984375 
L 18.40625 75.984375 
L 18.40625 0 
L 9.421875 0 
z
" id="DejaVuSans-108"/>
      <path d="M 34.28125 27.484375 
Q 23.390625 27.484375 19.1875 25 
Q 14.984375 22.515625 14.984375 16.5 
Q 14.984375 11.71875 18.140625 8.90625 
Q 21.296875 6.109375 26.703125 6.109375 
Q 34.1875 6.109375 38.703125 11.40625 
Q 43.21875 16.703125 43.21875 25.484375 
L 43.21875 27.484375 
z
M 52.203125 31.203125 
L 52.203125 0 
L 43.21875 0 
L 43.21875 8.296875 
Q 40.140625 3.328125 35.546875 0.953125 
Q 30.953125 -1.421875 24.3125 -1.421875 
Q 15.921875 -1.421875 10.953125 3.296875 
Q 6 8.015625 6 15.921875 
Q 6 25.140625 12.171875 29.828125 
Q 18.359375 34.515625 30.609375 34.515625 
L 43.21875 34.515625 
L 43.21875 35.40625 
Q 43.21875 41.609375 39.140625 45 
Q 35.0625 48.390625 27.6875 48.390625 
Q 23 48.390625 18.546875 47.265625 
Q 14.109375 46.140625 10.015625 43.890625 
L 10.015625 52.203125 
Q 14.9375 54.109375 19.578125 55.046875 
Q 24.21875 56 28.609375 56 
Q 40.484375 56 46.34375 49.84375 
Q 52.203125 43.703125 52.203125 31.203125 
z
" id="DejaVuSans-97"/>
      <path id="DejaVuSans-32"/>
      <path d="M 56.203125 29.59375 
L 56.203125 25.203125 
L 14.890625 25.203125 
Q 15.484375 15.921875 20.484375 11.0625 
Q 25.484375 6.203125 34.421875 6.203125 
Q 39.59375 6.203125 44.453125 7.46875 
Q 49.3125 8.734375 54.109375 11.28125 
L 54.109375 2.78125 
Q 49.265625 0.734375 44.1875 -0.34375 
Q 39.109375 -1.421875 33.890625 -1.421875 
Q 20.796875 -1.421875 13.15625 6.1875 
Q 5.515625 13.8125 5.515625 26.8125 
Q 5.515625 40.234375 12.765625 48.109375 
Q 20.015625 56 32.328125 56 
Q 43.359375 56 49.78125 48.890625 
Q 56.203125 41.796875 56.203125 29.59375 
z
M 47.21875 32.234375 
Q 47.125 39.59375 43.09375 43.984375 
Q 39.0625 48.390625 32.421875 48.390625 
Q 24.90625 48.390625 20.390625 44.140625 
Q 15.875 39.890625 15.1875 32.171875 
z
" id="DejaVuSans-101"/>
      <path d="M 41.109375 46.296875 
Q 39.59375 47.171875 37.8125 47.578125 
Q 36.03125 48 33.890625 48 
Q 26.265625 48 22.1875 43.046875 
Q 18.109375 38.09375 18.109375 28.8125 
L 18.109375 0 
L 9.078125 0 
L 9.078125 54.6875 
L 18.109375 54.6875 
L 18.109375 46.1875 
Q 20.953125 51.171875 25.484375 53.578125 
Q 30.03125 56 36.53125 56 
Q 37.453125 56 38.578125 55.875 
Q 39.703125 55.765625 41.0625 55.515625 
z
" id="DejaVuSans-114"/>
      <path d="M 18.3125 70.21875 
L 18.3125 54.6875 
L 36.8125 54.6875 
L 36.8125 47.703125 
L 18.3125 47.703125 
L 18.3125 18.015625 
Q 18.3125 11.328125 20.140625 9.421875 
Q 21.96875 7.515625 27.59375 7.515625 
L 36.8125 7.515625 
L 36.8125 0 
L 27.59375 0 
Q 17.1875 0 13.234375 3.875 
Q 9.28125 7.765625 9.28125 18.015625 
L 9.28125 47.703125 
L 2.6875 47.703125 
L 2.6875 54.6875 
L 9.28125 54.6875 
L 9.28125 70.21875 
z
" id="DejaVuSans-116"/>
      <path d="M 9.421875 54.6875 
L 18.40625 54.6875 
L 18.40625 0 
L 9.421875 0 
z
M 9.421875 75.984375 
L 18.40625 75.984375 
L 18.40625 64.59375 
L 9.421875 64.59375 
z
" id="DejaVuSans-105"/>
      <path d="M 54.890625 33.015625 
L 54.890625 0 
L 45.90625 0 
L 45.90625 32.71875 
Q 45.90625 40.484375 42.875 44.328125 
Q 39.84375 48.1875 33.796875 48.1875 
Q 26.515625 48.1875 22.3125 43.546875 
Q 18.109375 38.921875 18.109375 30.90625 
L 18.109375 0 
L 9.078125 0 
L 9.078125 54.6875 
L 18.109375 54.6875 
L 18.109375 46.1875 
Q 21.34375 51.125 25.703125 53.5625 
Q 30.078125 56 35.796875 56 
Q 45.21875 56 50.046875 50.171875 
Q 54.890625 44.34375 54.890625 33.015625 
z
" id="DejaVuSans-110"/>
     </defs>
     <use xlink:href="#DejaVuSans-67"/>
     <use x="69.824219" xlink:href="#DejaVuSans-108"/>
     <use x="97.607422" xlink:href="#DejaVuSans-97"/>
     <use x="158.886719" xlink:href="#DejaVuSans-115"/>
     <use x="210.986328" xlink:href="#DejaVuSans-115"/>
     <use x="263.085938" xlink:href="#DejaVuSans-32"/>
     <use x="294.873047" xlink:href="#DejaVuSans-115"/>
     <use x="346.972656" xlink:href="#DejaVuSans-101"/>
     <use x="408.496094" xlink:href="#DejaVuSans-112"/>
     <use x="471.972656" xlink:href="#DejaVuSans-97"/>
     <use x="533.251953" xlink:href="#DejaVuSans-114"/>
     <use x="574.365234" xlink:href="#DejaVuSans-97"/>
     <use x="635.644531" xlink:href="#DejaVuSans-116"/>
     <use x="674.853516" xlink:href="#DejaVuSans-105"/>
     <use x="702.636719" xlink:href="#DejaVuSans-111"/>
     <use x="763.818359" xlink:href="#DejaVuSans-110"/>
    </g>
   </g>
   <g id="text_17">
    <!-- Distance from final baseline solution -->
    <g transform="translate(159.74125 19.3575)scale(0.16 -0.16)">
     <defs>
      <path d="M 19.671875 64.796875 
L 19.671875 8.109375 
L 31.59375 8.109375 
Q 46.6875 8.109375 53.6875 14.9375 
Q 60.6875 21.78125 60.6875 36.53125 
Q 60.6875 51.171875 53.6875 57.984375 
Q 46.6875 64.796875 31.59375 64.796875 
z
M 9.8125 72.90625 
L 30.078125 72.90625 
Q 51.265625 72.90625 61.171875 64.09375 
Q 71.09375 55.28125 71.09375 36.53125 
Q 71.09375 17.671875 61.125 8.828125 
Q 51.171875 0 30.078125 0 
L 9.8125 0 
z
" id="DejaVuSans-68"/>
      <path d="M 37.109375 75.984375 
L 37.109375 68.5 
L 28.515625 68.5 
Q 23.6875 68.5 21.796875 66.546875 
Q 19.921875 64.59375 19.921875 59.515625 
L 19.921875 54.6875 
L 34.71875 54.6875 
L 34.71875 47.703125 
L 19.921875 47.703125 
L 19.921875 0 
L 10.890625 0 
L 10.890625 47.703125 
L 2.296875 47.703125 
L 2.296875 54.6875 
L 10.890625 54.6875 
L 10.890625 58.5 
Q 10.890625 67.625 15.140625 71.796875 
Q 19.390625 75.984375 28.609375 75.984375 
z
" id="DejaVuSans-102"/>
      <path d="M 52 44.1875 
Q 55.375 50.25 60.0625 53.125 
Q 64.75 56 71.09375 56 
Q 79.640625 56 84.28125 50.015625 
Q 88.921875 44.046875 88.921875 33.015625 
L 88.921875 0 
L 79.890625 0 
L 79.890625 32.71875 
Q 79.890625 40.578125 77.09375 44.375 
Q 74.3125 48.1875 68.609375 48.1875 
Q 61.625 48.1875 57.5625 43.546875 
Q 53.515625 38.921875 53.515625 30.90625 
L 53.515625 0 
L 44.484375 0 
L 44.484375 32.71875 
Q 44.484375 40.625 41.703125 44.40625 
Q 38.921875 48.1875 33.109375 48.1875 
Q 26.21875 48.1875 22.15625 43.53125 
Q 18.109375 38.875 18.109375 30.90625 
L 18.109375 0 
L 9.078125 0 
L 9.078125 54.6875 
L 18.109375 54.6875 
L 18.109375 46.1875 
Q 21.1875 51.21875 25.484375 53.609375 
Q 29.78125 56 35.6875 56 
Q 41.65625 56 45.828125 52.96875 
Q 50 49.953125 52 44.1875 
z
" id="DejaVuSans-109"/>
      <path d="M 48.6875 27.296875 
Q 48.6875 37.203125 44.609375 42.84375 
Q 40.53125 48.484375 33.40625 48.484375 
Q 26.265625 48.484375 22.1875 42.84375 
Q 18.109375 37.203125 18.109375 27.296875 
Q 18.109375 17.390625 22.1875 11.75 
Q 26.265625 6.109375 33.40625 6.109375 
Q 40.53125 6.109375 44.609375 11.75 
Q 48.6875 17.390625 48.6875 27.296875 
z
M 18.109375 46.390625 
Q 20.953125 51.265625 25.265625 53.625 
Q 29.59375 56 35.59375 56 
Q 45.5625 56 51.78125 48.09375 
Q 58.015625 40.1875 58.015625 27.296875 
Q 58.015625 14.40625 51.78125 6.484375 
Q 45.5625 -1.421875 35.59375 -1.421875 
Q 29.59375 -1.421875 25.265625 0.953125 
Q 20.953125 3.328125 18.109375 8.203125 
L 18.109375 0 
L 9.078125 0 
L 9.078125 75.984375 
L 18.109375 75.984375 
z
" id="DejaVuSans-98"/>
      <path d="M 8.5 21.578125 
L 8.5 54.6875 
L 17.484375 54.6875 
L 17.484375 21.921875 
Q 17.484375 14.15625 20.5 10.265625 
Q 23.53125 6.390625 29.59375 6.390625 
Q 36.859375 6.390625 41.078125 11.03125 
Q 45.3125 15.671875 45.3125 23.6875 
L 45.3125 54.6875 
L 54.296875 54.6875 
L 54.296875 0 
L 45.3125 0 
L 45.3125 8.40625 
Q 42.046875 3.421875 37.71875 1 
Q 33.40625 -1.421875 27.6875 -1.421875 
Q 18.265625 -1.421875 13.375 4.4375 
Q 8.5 10.296875 8.5 21.578125 
z
M 31.109375 56 
z
" id="DejaVuSans-117"/>
     </defs>
     <use xlink:href="#DejaVuSans-68"/>
     <use x="77.001953" xlink:href="#DejaVuSans-105"/>
     <use x="104.785156" xlink:href="#DejaVuSans-115"/>
     <use x="156.884766" xlink:href="#DejaVuSans-116"/>
     <use x="196.09375" xlink:href="#DejaVuSans-97"/>
     <use x="257.373047" xlink:href="#DejaVuSans-110"/>
     <use x="320.751953" xlink:href="#DejaVuSans-99"/>
     <use x="375.732422" xlink:href="#DejaVuSans-101"/>
     <use x="437.255859" xlink:href="#DejaVuSans-32"/>
     <use x="469.042969" xlink:href="#DejaVuSans-102"/>
     <use x="504.248047" xlink:href="#DejaVuSans-114"/>
     <use x="543.111328" xlink:href="#DejaVuSans-111"/>
     <use x="604.292969" xlink:href="#DejaVuSans-109"/>
     <use x="701.705078" xlink:href="#DejaVuSans-32"/>
     <use x="733.492188" xlink:href="#DejaVuSans-102"/>
     <use x="768.697266" xlink:href="#DejaVuSans-105"/>
     <use x="796.480469" xlink:href="#DejaVuSans-110"/>
     <use x="859.859375" xlink:href="#DejaVuSans-97"/>
     <use x="921.138672" xlink:href="#DejaVuSans-108"/>
     <use x="948.921875" xlink:href="#DejaVuSans-32"/>
     <use x="980.708984" xlink:href="#DejaVuSans-98"/>
     <use x="1044.185547" xlink:href="#DejaVuSans-97"/>
     <use x="1105.464844" xlink:href="#DejaVuSans-115"/>
     <use x="1157.564453" xlink:href="#DejaVuSans-101"/>
     <use x="1219.087891" xlink:href="#DejaVuSans-108"/>
     <use x="1246.871094" xlink:href="#DejaVuSans-105"/>
     <use x="1274.654297" xlink:href="#DejaVuSans-110"/>
     <use x="1338.033203" xlink:href="#DejaVuSans-101"/>
     <use x="1399.556641" xlink:href="#DejaVuSans-32"/>
     <use x="1431.34375" xlink:href="#DejaVuSans-115"/>
     <use x="1483.443359" xlink:href="#DejaVuSans-111"/>
     <use x="1544.625" xlink:href="#DejaVuSans-108"/>
     <use x="1572.408203" xlink:href="#DejaVuSans-117"/>
     <use x="1635.787109" xlink:href="#DejaVuSans-116"/>
     <use x="1674.996094" xlink:href="#DejaVuSans-105"/>
     <use x="1702.779297" xlink:href="#DejaVuSans-111"/>
     <use x="1763.960938" xlink:href="#DejaVuSans-110"/>
    </g>
   </g>
   <g id="legend_1">
    <g id="line2d_24">
     <path d="M 48.267187 628.671938 
L 68.267187 628.671938 
" style="fill:none;stroke:#1f77b4;stroke-linecap:square;stroke-width:1.5;"/>
    </g>
    <g id="line2d_25"/>
    <g id="text_18">
     <!-- Baseline -->
     <g transform="translate(76.267187 632.171938)scale(0.1 -0.1)">
      <defs>
       <path d="M 19.671875 34.8125 
L 19.671875 8.109375 
L 35.5 8.109375 
Q 43.453125 8.109375 47.28125 11.40625 
Q 51.125 14.703125 51.125 21.484375 
Q 51.125 28.328125 47.28125 31.5625 
Q 43.453125 34.8125 35.5 34.8125 
z
M 19.671875 64.796875 
L 19.671875 42.828125 
L 34.28125 42.828125 
Q 41.5 42.828125 45.03125 45.53125 
Q 48.578125 48.25 48.578125 53.8125 
Q 48.578125 59.328125 45.03125 62.0625 
Q 41.5 64.796875 34.28125 64.796875 
z
M 9.8125 72.90625 
L 35.015625 72.90625 
Q 46.296875 72.90625 52.390625 68.21875 
Q 58.5 63.53125 58.5 54.890625 
Q 58.5 48.1875 55.375 44.234375 
Q 52.25 40.28125 46.1875 39.3125 
Q 53.46875 37.75 57.5 32.78125 
Q 61.53125 27.828125 61.53125 20.40625 
Q 61.53125 10.640625 54.890625 5.3125 
Q 48.25 0 35.984375 0 
L 9.8125 0 
z
" id="DejaVuSans-66"/>
      </defs>
      <use xlink:href="#DejaVuSans-66"/>
      <use x="68.603516" xlink:href="#DejaVuSans-97"/>
      <use x="129.882812" xlink:href="#DejaVuSans-115"/>
      <use x="181.982422" xlink:href="#DejaVuSans-101"/>
      <use x="243.505859" xlink:href="#DejaVuSans-108"/>
      <use x="271.289062" xlink:href="#DejaVuSans-105"/>
      <use x="299.072266" xlink:href="#DejaVuSans-110"/>
      <use x="362.451172" xlink:href="#DejaVuSans-101"/>
     </g>
    </g>
    <g id="line2d_26">
     <path d="M 48.267187 643.350063 
L 68.267187 643.350063 
" style="fill:none;stroke:#ff7f0e;stroke-linecap:square;stroke-width:1.5;"/>
    </g>
    <g id="line2d_27"/>
    <g id="text_19">
     <!-- Forced normaliz. -->
     <g transform="translate(76.267187 646.850063)scale(0.1 -0.1)">
      <defs>
       <path d="M 9.8125 72.90625 
L 51.703125 72.90625 
L 51.703125 64.59375 
L 19.671875 64.59375 
L 19.671875 43.109375 
L 48.578125 43.109375 
L 48.578125 34.8125 
L 19.671875 34.8125 
L 19.671875 0 
L 9.8125 0 
z
" id="DejaVuSans-70"/>
       <path d="M 45.40625 46.390625 
L 45.40625 75.984375 
L 54.390625 75.984375 
L 54.390625 0 
L 45.40625 0 
L 45.40625 8.203125 
Q 42.578125 3.328125 38.25 0.953125 
Q 33.9375 -1.421875 27.875 -1.421875 
Q 17.96875 -1.421875 11.734375 6.484375 
Q 5.515625 14.40625 5.515625 27.296875 
Q 5.515625 40.1875 11.734375 48.09375 
Q 17.96875 56 27.875 56 
Q 33.9375 56 38.25 53.625 
Q 42.578125 51.265625 45.40625 46.390625 
z
M 14.796875 27.296875 
Q 14.796875 17.390625 18.875 11.75 
Q 22.953125 6.109375 30.078125 6.109375 
Q 37.203125 6.109375 41.296875 11.75 
Q 45.40625 17.390625 45.40625 27.296875 
Q 45.40625 37.203125 41.296875 42.84375 
Q 37.203125 48.484375 30.078125 48.484375 
Q 22.953125 48.484375 18.875 42.84375 
Q 14.796875 37.203125 14.796875 27.296875 
z
" id="DejaVuSans-100"/>
       <path d="M 5.515625 54.6875 
L 48.1875 54.6875 
L 48.1875 46.484375 
L 14.40625 7.171875 
L 48.1875 7.171875 
L 48.1875 0 
L 4.296875 0 
L 4.296875 8.203125 
L 38.09375 47.515625 
L 5.515625 47.515625 
z
" id="DejaVuSans-122"/>
       <path d="M 10.6875 12.40625 
L 21 12.40625 
L 21 0 
L 10.6875 0 
z
" id="DejaVuSans-46"/>
      </defs>
      <use xlink:href="#DejaVuSans-70"/>
      <use x="53.894531" xlink:href="#DejaVuSans-111"/>
      <use x="115.076172" xlink:href="#DejaVuSans-114"/>
      <use x="153.939453" xlink:href="#DejaVuSans-99"/>
      <use x="208.919922" xlink:href="#DejaVuSans-101"/>
      <use x="270.443359" xlink:href="#DejaVuSans-100"/>
      <use x="333.919922" xlink:href="#DejaVuSans-32"/>
      <use x="365.707031" xlink:href="#DejaVuSans-110"/>
      <use x="429.085938" xlink:href="#DejaVuSans-111"/>
      <use x="490.267578" xlink:href="#DejaVuSans-114"/>
      <use x="529.630859" xlink:href="#DejaVuSans-109"/>
      <use x="627.042969" xlink:href="#DejaVuSans-97"/>
      <use x="688.322266" xlink:href="#DejaVuSans-108"/>
      <use x="716.105469" xlink:href="#DejaVuSans-105"/>
      <use x="743.888672" xlink:href="#DejaVuSans-122"/>
      <use x="796.378906" xlink:href="#DejaVuSans-46"/>
     </g>
    </g>
    <g id="line2d_28">
     <path d="M 179.082812 628.671938 
L 199.082812 628.671938 
" style="fill:none;stroke:#2ca02c;stroke-linecap:square;stroke-width:1.5;"/>
    </g>
    <g id="line2d_29"/>
    <g id="text_20">
     <!-- $\alpha=0.005$ -->
     <g transform="translate(207.082812 632.171938)scale(0.1 -0.1)">
      <defs>
       <path d="M 40.921875 25.4375 
L 40.96875 36.71875 
Q 41.015625 48.25 32.328125 48.296875 
Q 25.828125 48.34375 21.78125 42.921875 
Q 16.703125 36.234375 14.984375 27.296875 
Q 12.890625 16.546875 15.53125 11.421875 
Q 18.265625 6.203125 24.171875 6.203125 
Q 30.71875 6.203125 36.234375 16.609375 
z
M 33.84375 55.90625 
Q 49.078125 56.15625 48.875 40.375 
Q 48.875 40.375 56.5 54.6875 
L 64.5 54.6875 
L 48.734375 25.046875 
L 48.578125 14.359375 
Q 48.578125 11.96875 49.90625 9.96875 
Q 51.421875 7.625 52.984375 7.625 
L 57.328125 7.625 
L 55.859375 0 
L 50.4375 0 
Q 45.84375 0 42.53125 4.109375 
Q 40.96875 6.15625 40.921875 10.453125 
Q 37.75 5.21875 32.28125 0.78125 
Q 29.6875 -1.265625 22.703125 -1.21875 
Q 11.28125 -1.125 7.125 6.203125 
Q 2.875 13.8125 5.515625 27.296875 
Q 8.34375 41.796875 15.765625 48.390625 
Q 24.125 55.765625 33.84375 55.90625 
z
" id="DejaVuSans-Oblique-945"/>
       <path d="M 10.59375 45.40625 
L 73.1875 45.40625 
L 73.1875 37.203125 
L 10.59375 37.203125 
z
M 10.59375 25.484375 
L 73.1875 25.484375 
L 73.1875 17.1875 
L 10.59375 17.1875 
z
" id="DejaVuSans-61"/>
      </defs>
      <use transform="translate(0 0.78125)" xlink:href="#DejaVuSans-Oblique-945"/>
      <use transform="translate(85.400391 0.78125)" xlink:href="#DejaVuSans-61"/>
      <use transform="translate(188.671875 0.78125)" xlink:href="#DejaVuSans-48"/>
      <use transform="translate(252.294922 0.78125)" xlink:href="#DejaVuSans-46"/>
      <use transform="translate(284.082031 0.78125)" xlink:href="#DejaVuSans-48"/>
      <use transform="translate(347.705078 0.78125)" xlink:href="#DejaVuSans-48"/>
      <use transform="translate(411.328125 0.78125)" xlink:href="#DejaVuSans-53"/>
     </g>
    </g>
    <g id="line2d_30">
     <path d="M 179.082812 643.350063 
L 199.082812 643.350063 
" style="fill:none;stroke:#d62728;stroke-linecap:square;stroke-width:1.5;"/>
    </g>
    <g id="line2d_31"/>
    <g id="text_21">
     <!-- $\alpha=0.05$ -->
     <g transform="translate(207.082812 646.850063)scale(0.1 -0.1)">
      <use transform="translate(0 0.78125)" xlink:href="#DejaVuSans-Oblique-945"/>
      <use transform="translate(85.400391 0.78125)" xlink:href="#DejaVuSans-61"/>
      <use transform="translate(188.671875 0.78125)" xlink:href="#DejaVuSans-48"/>
      <use transform="translate(252.294922 0.78125)" xlink:href="#DejaVuSans-46"/>
      <use transform="translate(284.082031 0.78125)" xlink:href="#DejaVuSans-48"/>
      <use transform="translate(347.705078 0.78125)" xlink:href="#DejaVuSans-53"/>
     </g>
    </g>
    <g id="line2d_32">
     <path d="M 274.582812 628.671938 
L 294.582812 628.671938 
" style="fill:none;stroke:#9467bd;stroke-linecap:square;stroke-width:1.5;"/>
    </g>
    <g id="line2d_33"/>
    <g id="text_22">
     <!-- $\alpha=0.5$ -->
     <g transform="translate(302.582812 632.171938)scale(0.1 -0.1)">
      <use transform="translate(0 0.78125)" xlink:href="#DejaVuSans-Oblique-945"/>
      <use transform="translate(85.400391 0.78125)" xlink:href="#DejaVuSans-61"/>
      <use transform="translate(188.671875 0.78125)" xlink:href="#DejaVuSans-48"/>
      <use transform="translate(252.294922 0.78125)" xlink:href="#DejaVuSans-46"/>
      <use transform="translate(284.082031 0.78125)" xlink:href="#DejaVuSans-53"/>
     </g>
    </g>
    <g id="line2d_34">
     <path d="M 274.582812 643.350063 
L 294.582812 643.350063 
" style="fill:none;stroke:#8c564b;stroke-linecap:square;stroke-width:1.5;"/>
    </g>
    <g id="line2d_35"/>
    <g id="text_23">
     <!-- $\alpha=1.5$ -->
     <g transform="translate(302.582812 646.850063)scale(0.1 -0.1)">
      <use transform="translate(0 0.09375)" xlink:href="#DejaVuSans-Oblique-945"/>
      <use transform="translate(85.400391 0.09375)" xlink:href="#DejaVuSans-61"/>
      <use transform="translate(188.671875 0.09375)" xlink:href="#DejaVuSans-49"/>
      <use transform="translate(252.294922 0.09375)" xlink:href="#DejaVuSans-46"/>
      <use transform="translate(284.082031 0.09375)" xlink:href="#DejaVuSans-53"/>
     </g>
    </g>
    <g id="line2d_36">
     <path d="M 357.382812 628.671938 
L 377.382812 628.671938 
" style="fill:none;stroke:#e377c2;stroke-linecap:square;stroke-width:1.5;"/>
    </g>
    <g id="line2d_37"/>
    <g id="text_24">
     <!-- $\alpha=3$ -->
     <g transform="translate(385.382812 632.171938)scale(0.1 -0.1)">
      <use transform="translate(0 0.78125)" xlink:href="#DejaVuSans-Oblique-945"/>
      <use transform="translate(85.400391 0.78125)" xlink:href="#DejaVuSans-61"/>
      <use transform="translate(188.671875 0.78125)" xlink:href="#DejaVuSans-51"/>
     </g>
    </g>
    <g id="line2d_38">
     <path d="M 430.682813 628.671938 
L 450.682813 628.671938 
" style="fill:none;stroke:#7f7f7f;stroke-linecap:square;stroke-width:1.5;"/>
    </g>
    <g id="line2d_39"/>
    <g id="text_25">
     <!-- $\alpha=5$ -->
     <g transform="translate(458.682813 632.171938)scale(0.1 -0.1)">
      <use transform="translate(0 0.09375)" xlink:href="#DejaVuSans-Oblique-945"/>
      <use transform="translate(85.400391 0.09375)" xlink:href="#DejaVuSans-61"/>
      <use transform="translate(188.671875 0.09375)" xlink:href="#DejaVuSans-53"/>
     </g>
    </g>
    <g id="line2d_40">
     <path d="M 503.982813 628.671938 
L 523.982813 628.671938 
" style="fill:none;stroke:#bcbd22;stroke-linecap:square;stroke-width:1.5;"/>
    </g>
    <g id="line2d_41"/>
    <g id="text_26">
     <!-- $\alpha=10$ -->
     <g transform="translate(531.982813 632.171938)scale(0.1 -0.1)">
      <use transform="translate(0 0.78125)" xlink:href="#DejaVuSans-Oblique-945"/>
      <use transform="translate(85.400391 0.78125)" xlink:href="#DejaVuSans-61"/>
      <use transform="translate(188.671875 0.78125)" xlink:href="#DejaVuSans-49"/>
      <use transform="translate(252.294922 0.78125)" xlink:href="#DejaVuSans-48"/>
     </g>
    </g>
   </g>
  </g>
 </g>
 <defs>
  <clipPath id="p8f4cca16a1">
   <rect height="543.6" width="558" x="26.925" y="39.3575"/>
  </clipPath>
 </defs>
</svg>
