<?xml version="1.0" encoding="utf-8" standalone="no"?>
<!DOCTYPE svg PUBLIC "-//W3C//DTD SVG 1.1//EN"
  "http://www.w3.org/Graphics/SVG/1.1/DTD/svg11.dtd">
<!-- Created with matplotlib (https://matplotlib.org/) -->
<svg height="720pt" version="1.1" viewBox="0 0 720 720" width="720pt" xmlns="http://www.w3.org/2000/svg" xmlns:xlink="http://www.w3.org/1999/xlink">
 <metadata>
  <rdf:RDF xmlns:cc="http://creativecommons.org/ns#" xmlns:dc="http://purl.org/dc/elements/1.1/" xmlns:rdf="http://www.w3.org/1999/02/22-rdf-syntax-ns#">
   <cc:Work>
    <dc:type rdf:resource="http://purl.org/dc/dcmitype/StillImage"/>
    <dc:date>2021-01-11T23:00:11.822241</dc:date>
    <dc:format>image/svg+xml</dc:format>
    <dc:creator>
     <cc:Agent>
      <dc:title>Matplotlib v3.3.2, https://matplotlib.org/</dc:title>
     </cc:Agent>
    </dc:creator>
   </cc:Work>
  </rdf:RDF>
 </metadata>
 <defs>
  <style type="text/css">*{stroke-linecap:butt;stroke-linejoin:round;}</style>
 </defs>
 <g id="figure_1">
  <g id="patch_1">
   <path d="M 0 720 
L 720 720 
L 720 0 
L 0 0 
z
" style="fill:none;"/>
  </g>
  <g id="axes_1">
   <g id="patch_2">
    <path d="M 90 630 
L 648 630 
L 648 86.4 
L 90 86.4 
z
" style="fill:#ffffff;"/>
   </g>
   <g id="patch_3">
    <path clip-path="url(#peeae90ea3f)" d="M 152.563636 630 
L 327.572727 630 
L 327.572727 86.4 
L 152.563636 86.4 
z
" style="fill:#1f77b4;opacity:0.2;"/>
   </g>
   <g id="matplotlib.axis_1">
    <g id="xtick_1">
     <g id="line2d_1">
      <defs>
       <path d="M 0 0 
L 0 3.5 
" id="m8817bd4676" style="stroke:#000000;stroke-width:0.8;"/>
      </defs>
      <g>
       <use style="stroke:#000000;stroke-width:0.8;" x="115.363636" xlink:href="#m8817bd4676" y="630"/>
      </g>
     </g>
     <g id="text_1">
      <!-- 0 -->
      <g transform="translate(112.182386 644.598438)scale(0.1 -0.1)">
       <defs>
        <path d="M 31.78125 66.40625 
Q 24.171875 66.40625 20.328125 58.90625 
Q 16.5 51.421875 16.5 36.375 
Q 16.5 21.390625 20.328125 13.890625 
Q 24.171875 6.390625 31.78125 6.390625 
Q 39.453125 6.390625 43.28125 13.890625 
Q 47.125 21.390625 47.125 36.375 
Q 47.125 51.421875 43.28125 58.90625 
Q 39.453125 66.40625 31.78125 66.40625 
z
M 31.78125 74.21875 
Q 44.046875 74.21875 50.515625 64.515625 
Q 56.984375 54.828125 56.984375 36.375 
Q 56.984375 17.96875 50.515625 8.265625 
Q 44.046875 -1.421875 31.78125 -1.421875 
Q 19.53125 -1.421875 13.0625 8.265625 
Q 6.59375 17.96875 6.59375 36.375 
Q 6.59375 54.828125 13.0625 64.515625 
Q 19.53125 74.21875 31.78125 74.21875 
z
" id="DejaVuSans-48"/>
       </defs>
       <use xlink:href="#DejaVuSans-48"/>
      </g>
     </g>
    </g>
    <g id="xtick_2">
     <g id="line2d_2">
      <g>
       <use style="stroke:#000000;stroke-width:0.8;" x="199.909091" xlink:href="#m8817bd4676" y="630"/>
      </g>
     </g>
     <g id="text_2">
      <!-- 100 -->
      <g transform="translate(190.365341 644.598438)scale(0.1 -0.1)">
       <defs>
        <path d="M 12.40625 8.296875 
L 28.515625 8.296875 
L 28.515625 63.921875 
L 10.984375 60.40625 
L 10.984375 69.390625 
L 28.421875 72.90625 
L 38.28125 72.90625 
L 38.28125 8.296875 
L 54.390625 8.296875 
L 54.390625 0 
L 12.40625 0 
z
" id="DejaVuSans-49"/>
       </defs>
       <use xlink:href="#DejaVuSans-49"/>
       <use x="63.623047" xlink:href="#DejaVuSans-48"/>
       <use x="127.246094" xlink:href="#DejaVuSans-48"/>
      </g>
     </g>
    </g>
    <g id="xtick_3">
     <g id="line2d_3">
      <g>
       <use style="stroke:#000000;stroke-width:0.8;" x="284.454545" xlink:href="#m8817bd4676" y="630"/>
      </g>
     </g>
     <g id="text_3">
      <!-- 200 -->
      <g transform="translate(274.910795 644.598438)scale(0.1 -0.1)">
       <defs>
        <path d="M 19.1875 8.296875 
L 53.609375 8.296875 
L 53.609375 0 
L 7.328125 0 
L 7.328125 8.296875 
Q 12.9375 14.109375 22.625 23.890625 
Q 32.328125 33.6875 34.8125 36.53125 
Q 39.546875 41.84375 41.421875 45.53125 
Q 43.3125 49.21875 43.3125 52.78125 
Q 43.3125 58.59375 39.234375 62.25 
Q 35.15625 65.921875 28.609375 65.921875 
Q 23.96875 65.921875 18.8125 64.3125 
Q 13.671875 62.703125 7.8125 59.421875 
L 7.8125 69.390625 
Q 13.765625 71.78125 18.9375 73 
Q 24.125 74.21875 28.421875 74.21875 
Q 39.75 74.21875 46.484375 68.546875 
Q 53.21875 62.890625 53.21875 53.421875 
Q 53.21875 48.921875 51.53125 44.890625 
Q 49.859375 40.875 45.40625 35.40625 
Q 44.1875 33.984375 37.640625 27.21875 
Q 31.109375 20.453125 19.1875 8.296875 
z
" id="DejaVuSans-50"/>
       </defs>
       <use xlink:href="#DejaVuSans-50"/>
       <use x="63.623047" xlink:href="#DejaVuSans-48"/>
       <use x="127.246094" xlink:href="#DejaVuSans-48"/>
      </g>
     </g>
    </g>
    <g id="xtick_4">
     <g id="line2d_4">
      <g>
       <use style="stroke:#000000;stroke-width:0.8;" x="369" xlink:href="#m8817bd4676" y="630"/>
      </g>
     </g>
     <g id="text_4">
      <!-- 300 -->
      <g transform="translate(359.45625 644.598438)scale(0.1 -0.1)">
       <defs>
        <path d="M 40.578125 39.3125 
Q 47.65625 37.796875 51.625 33 
Q 55.609375 28.21875 55.609375 21.1875 
Q 55.609375 10.40625 48.1875 4.484375 
Q 40.765625 -1.421875 27.09375 -1.421875 
Q 22.515625 -1.421875 17.65625 -0.515625 
Q 12.796875 0.390625 7.625 2.203125 
L 7.625 11.71875 
Q 11.71875 9.328125 16.59375 8.109375 
Q 21.484375 6.890625 26.8125 6.890625 
Q 36.078125 6.890625 40.9375 10.546875 
Q 45.796875 14.203125 45.796875 21.1875 
Q 45.796875 27.640625 41.28125 31.265625 
Q 36.765625 34.90625 28.71875 34.90625 
L 20.21875 34.90625 
L 20.21875 43.015625 
L 29.109375 43.015625 
Q 36.375 43.015625 40.234375 45.921875 
Q 44.09375 48.828125 44.09375 54.296875 
Q 44.09375 59.90625 40.109375 62.90625 
Q 36.140625 65.921875 28.71875 65.921875 
Q 24.65625 65.921875 20.015625 65.03125 
Q 15.375 64.15625 9.8125 62.3125 
L 9.8125 71.09375 
Q 15.4375 72.65625 20.34375 73.4375 
Q 25.25 74.21875 29.59375 74.21875 
Q 40.828125 74.21875 47.359375 69.109375 
Q 53.90625 64.015625 53.90625 55.328125 
Q 53.90625 49.265625 50.4375 45.09375 
Q 46.96875 40.921875 40.578125 39.3125 
z
" id="DejaVuSans-51"/>
       </defs>
       <use xlink:href="#DejaVuSans-51"/>
       <use x="63.623047" xlink:href="#DejaVuSans-48"/>
       <use x="127.246094" xlink:href="#DejaVuSans-48"/>
      </g>
     </g>
    </g>
    <g id="xtick_5">
     <g id="line2d_5">
      <g>
       <use style="stroke:#000000;stroke-width:0.8;" x="453.545455" xlink:href="#m8817bd4676" y="630"/>
      </g>
     </g>
     <g id="text_5">
      <!-- 400 -->
      <g transform="translate(444.001705 644.598438)scale(0.1 -0.1)">
       <defs>
        <path d="M 37.796875 64.3125 
L 12.890625 25.390625 
L 37.796875 25.390625 
z
M 35.203125 72.90625 
L 47.609375 72.90625 
L 47.609375 25.390625 
L 58.015625 25.390625 
L 58.015625 17.1875 
L 47.609375 17.1875 
L 47.609375 0 
L 37.796875 0 
L 37.796875 17.1875 
L 4.890625 17.1875 
L 4.890625 26.703125 
z
" id="DejaVuSans-52"/>
       </defs>
       <use xlink:href="#DejaVuSans-52"/>
       <use x="63.623047" xlink:href="#DejaVuSans-48"/>
       <use x="127.246094" xlink:href="#DejaVuSans-48"/>
      </g>
     </g>
    </g>
    <g id="xtick_6">
     <g id="line2d_6">
      <g>
       <use style="stroke:#000000;stroke-width:0.8;" x="538.090909" xlink:href="#m8817bd4676" y="630"/>
      </g>
     </g>
     <g id="text_6">
      <!-- 500 -->
      <g transform="translate(528.547159 644.598438)scale(0.1 -0.1)">
       <defs>
        <path d="M 10.796875 72.90625 
L 49.515625 72.90625 
L 49.515625 64.59375 
L 19.828125 64.59375 
L 19.828125 46.734375 
Q 21.96875 47.46875 24.109375 47.828125 
Q 26.265625 48.1875 28.421875 48.1875 
Q 40.625 48.1875 47.75 41.5 
Q 54.890625 34.8125 54.890625 23.390625 
Q 54.890625 11.625 47.5625 5.09375 
Q 40.234375 -1.421875 26.90625 -1.421875 
Q 22.3125 -1.421875 17.546875 -0.640625 
Q 12.796875 0.140625 7.71875 1.703125 
L 7.71875 11.625 
Q 12.109375 9.234375 16.796875 8.0625 
Q 21.484375 6.890625 26.703125 6.890625 
Q 35.15625 6.890625 40.078125 11.328125 
Q 45.015625 15.765625 45.015625 23.390625 
Q 45.015625 31 40.078125 35.4375 
Q 35.15625 39.890625 26.703125 39.890625 
Q 22.75 39.890625 18.8125 39.015625 
Q 14.890625 38.140625 10.796875 36.28125 
z
" id="DejaVuSans-53"/>
       </defs>
       <use xlink:href="#DejaVuSans-53"/>
       <use x="63.623047" xlink:href="#DejaVuSans-48"/>
       <use x="127.246094" xlink:href="#DejaVuSans-48"/>
      </g>
     </g>
    </g>
    <g id="xtick_7">
     <g id="line2d_7">
      <g>
       <use style="stroke:#000000;stroke-width:0.8;" x="622.636364" xlink:href="#m8817bd4676" y="630"/>
      </g>
     </g>
     <g id="text_7">
      <!-- 600 -->
      <g transform="translate(613.092614 644.598438)scale(0.1 -0.1)">
       <defs>
        <path d="M 33.015625 40.375 
Q 26.375 40.375 22.484375 35.828125 
Q 18.609375 31.296875 18.609375 23.390625 
Q 18.609375 15.53125 22.484375 10.953125 
Q 26.375 6.390625 33.015625 6.390625 
Q 39.65625 6.390625 43.53125 10.953125 
Q 47.40625 15.53125 47.40625 23.390625 
Q 47.40625 31.296875 43.53125 35.828125 
Q 39.65625 40.375 33.015625 40.375 
z
M 52.59375 71.296875 
L 52.59375 62.3125 
Q 48.875 64.0625 45.09375 64.984375 
Q 41.3125 65.921875 37.59375 65.921875 
Q 27.828125 65.921875 22.671875 59.328125 
Q 17.53125 52.734375 16.796875 39.40625 
Q 19.671875 43.65625 24.015625 45.921875 
Q 28.375 48.1875 33.59375 48.1875 
Q 44.578125 48.1875 50.953125 41.515625 
Q 57.328125 34.859375 57.328125 23.390625 
Q 57.328125 12.15625 50.6875 5.359375 
Q 44.046875 -1.421875 33.015625 -1.421875 
Q 20.359375 -1.421875 13.671875 8.265625 
Q 6.984375 17.96875 6.984375 36.375 
Q 6.984375 53.65625 15.1875 63.9375 
Q 23.390625 74.21875 37.203125 74.21875 
Q 40.921875 74.21875 44.703125 73.484375 
Q 48.484375 72.75 52.59375 71.296875 
z
" id="DejaVuSans-54"/>
       </defs>
       <use xlink:href="#DejaVuSans-54"/>
       <use x="63.623047" xlink:href="#DejaVuSans-48"/>
       <use x="127.246094" xlink:href="#DejaVuSans-48"/>
      </g>
     </g>
    </g>
    <g id="text_8">
     <!-- Epochs -->
     <g transform="translate(351.084375 658.276562)scale(0.1 -0.1)">
      <defs>
       <path d="M 9.8125 72.90625 
L 55.90625 72.90625 
L 55.90625 64.59375 
L 19.671875 64.59375 
L 19.671875 43.015625 
L 54.390625 43.015625 
L 54.390625 34.71875 
L 19.671875 34.71875 
L 19.671875 8.296875 
L 56.78125 8.296875 
L 56.78125 0 
L 9.8125 0 
z
" id="DejaVuSans-69"/>
       <path d="M 18.109375 8.203125 
L 18.109375 -20.796875 
L 9.078125 -20.796875 
L 9.078125 54.6875 
L 18.109375 54.6875 
L 18.109375 46.390625 
Q 20.953125 51.265625 25.265625 53.625 
Q 29.59375 56 35.59375 56 
Q 45.5625 56 51.78125 48.09375 
Q 58.015625 40.1875 58.015625 27.296875 
Q 58.015625 14.40625 51.78125 6.484375 
Q 45.5625 -1.421875 35.59375 -1.421875 
Q 29.59375 -1.421875 25.265625 0.953125 
Q 20.953125 3.328125 18.109375 8.203125 
z
M 48.6875 27.296875 
Q 48.6875 37.203125 44.609375 42.84375 
Q 40.53125 48.484375 33.40625 48.484375 
Q 26.265625 48.484375 22.1875 42.84375 
Q 18.109375 37.203125 18.109375 27.296875 
Q 18.109375 17.390625 22.1875 11.75 
Q 26.265625 6.109375 33.40625 6.109375 
Q 40.53125 6.109375 44.609375 11.75 
Q 48.6875 17.390625 48.6875 27.296875 
z
" id="DejaVuSans-112"/>
       <path d="M 30.609375 48.390625 
Q 23.390625 48.390625 19.1875 42.75 
Q 14.984375 37.109375 14.984375 27.296875 
Q 14.984375 17.484375 19.15625 11.84375 
Q 23.34375 6.203125 30.609375 6.203125 
Q 37.796875 6.203125 41.984375 11.859375 
Q 46.1875 17.53125 46.1875 27.296875 
Q 46.1875 37.015625 41.984375 42.703125 
Q 37.796875 48.390625 30.609375 48.390625 
z
M 30.609375 56 
Q 42.328125 56 49.015625 48.375 
Q 55.71875 40.765625 55.71875 27.296875 
Q 55.71875 13.875 49.015625 6.21875 
Q 42.328125 -1.421875 30.609375 -1.421875 
Q 18.84375 -1.421875 12.171875 6.21875 
Q 5.515625 13.875 5.515625 27.296875 
Q 5.515625 40.765625 12.171875 48.375 
Q 18.84375 56 30.609375 56 
z
" id="DejaVuSans-111"/>
       <path d="M 48.78125 52.59375 
L 48.78125 44.1875 
Q 44.96875 46.296875 41.140625 47.34375 
Q 37.3125 48.390625 33.40625 48.390625 
Q 24.65625 48.390625 19.8125 42.84375 
Q 14.984375 37.3125 14.984375 27.296875 
Q 14.984375 17.28125 19.8125 11.734375 
Q 24.65625 6.203125 33.40625 6.203125 
Q 37.3125 6.203125 41.140625 7.25 
Q 44.96875 8.296875 48.78125 10.40625 
L 48.78125 2.09375 
Q 45.015625 0.34375 40.984375 -0.53125 
Q 36.96875 -1.421875 32.421875 -1.421875 
Q 20.0625 -1.421875 12.78125 6.34375 
Q 5.515625 14.109375 5.515625 27.296875 
Q 5.515625 40.671875 12.859375 48.328125 
Q 20.21875 56 33.015625 56 
Q 37.15625 56 41.109375 55.140625 
Q 45.0625 54.296875 48.78125 52.59375 
z
" id="DejaVuSans-99"/>
       <path d="M 54.890625 33.015625 
L 54.890625 0 
L 45.90625 0 
L 45.90625 32.71875 
Q 45.90625 40.484375 42.875 44.328125 
Q 39.84375 48.1875 33.796875 48.1875 
Q 26.515625 48.1875 22.3125 43.546875 
Q 18.109375 38.921875 18.109375 30.90625 
L 18.109375 0 
L 9.078125 0 
L 9.078125 75.984375 
L 18.109375 75.984375 
L 18.109375 46.1875 
Q 21.34375 51.125 25.703125 53.5625 
Q 30.078125 56 35.796875 56 
Q 45.21875 56 50.046875 50.171875 
Q 54.890625 44.34375 54.890625 33.015625 
z
" id="DejaVuSans-104"/>
       <path d="M 44.28125 53.078125 
L 44.28125 44.578125 
Q 40.484375 46.53125 36.375 47.5 
Q 32.28125 48.484375 27.875 48.484375 
Q 21.1875 48.484375 17.84375 46.4375 
Q 14.5 44.390625 14.5 40.28125 
Q 14.5 37.15625 16.890625 35.375 
Q 19.28125 33.59375 26.515625 31.984375 
L 29.59375 31.296875 
Q 39.15625 29.25 43.1875 25.515625 
Q 47.21875 21.78125 47.21875 15.09375 
Q 47.21875 7.46875 41.1875 3.015625 
Q 35.15625 -1.421875 24.609375 -1.421875 
Q 20.21875 -1.421875 15.453125 -0.5625 
Q 10.6875 0.296875 5.421875 2 
L 5.421875 11.28125 
Q 10.40625 8.6875 15.234375 7.390625 
Q 20.0625 6.109375 24.8125 6.109375 
Q 31.15625 6.109375 34.5625 8.28125 
Q 37.984375 10.453125 37.984375 14.40625 
Q 37.984375 18.0625 35.515625 20.015625 
Q 33.0625 21.96875 24.703125 23.78125 
L 21.578125 24.515625 
Q 13.234375 26.265625 9.515625 29.90625 
Q 5.8125 33.546875 5.8125 39.890625 
Q 5.8125 47.609375 11.28125 51.796875 
Q 16.75 56 26.8125 56 
Q 31.78125 56 36.171875 55.265625 
Q 40.578125 54.546875 44.28125 53.078125 
z
" id="DejaVuSans-115"/>
      </defs>
      <use xlink:href="#DejaVuSans-69"/>
      <use x="63.183594" xlink:href="#DejaVuSans-112"/>
      <use x="126.660156" xlink:href="#DejaVuSans-111"/>
      <use x="187.841797" xlink:href="#DejaVuSans-99"/>
      <use x="242.822266" xlink:href="#DejaVuSans-104"/>
      <use x="306.201172" xlink:href="#DejaVuSans-115"/>
     </g>
    </g>
   </g>
   <g id="matplotlib.axis_2">
    <g id="ytick_1">
     <g id="line2d_8">
      <defs>
       <path d="M 0 0 
L -3.5 0 
" id="m2284b49b69" style="stroke:#000000;stroke-width:0.8;"/>
      </defs>
      <g>
       <use style="stroke:#000000;stroke-width:0.8;" x="90" xlink:href="#m2284b49b69" y="605.299706"/>
      </g>
     </g>
     <g id="text_9">
      <!-- 0 -->
      <g transform="translate(76.6375 609.098925)scale(0.1 -0.1)">
       <use xlink:href="#DejaVuSans-48"/>
      </g>
     </g>
    </g>
    <g id="ytick_2">
     <g id="line2d_9">
      <g>
       <use style="stroke:#000000;stroke-width:0.8;" x="90" xlink:href="#m2284b49b69" y="510.260797"/>
      </g>
     </g>
     <g id="text_10">
      <!-- 1 -->
      <g transform="translate(76.6375 514.060016)scale(0.1 -0.1)">
       <use xlink:href="#DejaVuSans-49"/>
      </g>
     </g>
    </g>
    <g id="ytick_3">
     <g id="line2d_10">
      <g>
       <use style="stroke:#000000;stroke-width:0.8;" x="90" xlink:href="#m2284b49b69" y="415.221889"/>
      </g>
     </g>
     <g id="text_11">
      <!-- 2 -->
      <g transform="translate(76.6375 419.021107)scale(0.1 -0.1)">
       <use xlink:href="#DejaVuSans-50"/>
      </g>
     </g>
    </g>
    <g id="ytick_4">
     <g id="line2d_11">
      <g>
       <use style="stroke:#000000;stroke-width:0.8;" x="90" xlink:href="#m2284b49b69" y="320.18298"/>
      </g>
     </g>
     <g id="text_12">
      <!-- 3 -->
      <g transform="translate(76.6375 323.982199)scale(0.1 -0.1)">
       <use xlink:href="#DejaVuSans-51"/>
      </g>
     </g>
    </g>
    <g id="ytick_5">
     <g id="line2d_12">
      <g>
       <use style="stroke:#000000;stroke-width:0.8;" x="90" xlink:href="#m2284b49b69" y="225.144071"/>
      </g>
     </g>
     <g id="text_13">
      <!-- 4 -->
      <g transform="translate(76.6375 228.94329)scale(0.1 -0.1)">
       <use xlink:href="#DejaVuSans-52"/>
      </g>
     </g>
    </g>
    <g id="ytick_6">
     <g id="line2d_13">
      <g>
       <use style="stroke:#000000;stroke-width:0.8;" x="90" xlink:href="#m2284b49b69" y="130.105162"/>
      </g>
     </g>
     <g id="text_14">
      <!-- 5 -->
      <g transform="translate(76.6375 133.904381)scale(0.1 -0.1)">
       <use xlink:href="#DejaVuSans-53"/>
      </g>
     </g>
    </g>
    <g id="text_15">
     <!-- Loss -->
     <g transform="translate(70.557812 369.167188)rotate(-90)scale(0.1 -0.1)">
      <defs>
       <path d="M 9.8125 72.90625 
L 19.671875 72.90625 
L 19.671875 8.296875 
L 55.171875 8.296875 
L 55.171875 0 
L 9.8125 0 
z
" id="DejaVuSans-76"/>
      </defs>
      <use xlink:href="#DejaVuSans-76"/>
      <use x="53.962891" xlink:href="#DejaVuSans-111"/>
      <use x="115.144531" xlink:href="#DejaVuSans-115"/>
      <use x="167.244141" xlink:href="#DejaVuSans-115"/>
     </g>
    </g>
   </g>
   <g id="line2d_14">
    <path clip-path="url(#peeae90ea3f)" d="M 115.363636 510.255552 
L 121.281818 510.598814 
L 123.818182 510.909135 
L 126.354545 511.413667 
L 128.045455 511.923195 
L 129.736364 512.592532 
L 131.427273 513.470995 
L 133.118182 514.591286 
L 134.809091 516.001908 
L 136.5 517.730843 
L 138.190909 519.772514 
L 139.881818 522.206803 
L 141.572727 525.139716 
L 143.263636 528.667598 
L 144.954545 532.881324 
L 147.490909 540.213518 
L 150.027273 547.565845 
L 151.718182 552.392096 
L 154.254545 560.065056 
L 160.172727 577.692394 
L 161.863636 582.003947 
L 163.554545 585.830345 
L 164.4 587.442495 
L 166.936364 591.278291 
L 168.627273 593.076429 
L 171.163636 595.310271 
L 173.7 596.966206 
L 175.390909 597.864086 
L 178.772727 599.208178 
L 183.845455 600.645 
L 191.454545 602.235015 
L 194.836364 603.044081 
L 198.218182 604.043332 
L 200.754545 604.539004 
L 203.290909 604.808341 
L 207.518182 604.983255 
L 218.509091 605.110952 
L 247.254545 605.201558 
L 372.381818 605.268476 
L 622.636364 605.290731 
L 622.636364 605.290731 
" style="fill:none;stroke:#1f77b4;stroke-linecap:square;stroke-width:1.5;"/>
   </g>
   <g id="line2d_15">
    <path clip-path="url(#peeae90ea3f)" d="M 115.363636 510.257523 
L 122.972727 510.668972 
L 125.509091 511.091705 
L 128.890909 511.901992 
L 132.272727 513.141283 
L 133.963636 514.144937 
L 136.5 516.057003 
L 137.345455 516.797767 
L 139.036364 518.725326 
L 140.727273 520.900464 
L 141.572727 522.179895 
L 142.418182 523.690075 
L 143.263636 525.473245 
L 144.954545 530.103456 
L 145.8 532.835128 
L 150.027273 548.277905 
L 152.563636 556.83618 
L 156.790909 568.198451 
L 161.863636 582.071866 
L 165.245455 588.281459 
L 166.936364 590.572285 
L 169.472727 593.486075 
L 172.009091 595.779252 
L 175.390909 597.904519 
L 177.927273 599.135703 
L 182.154545 600.684277 
L 183.845455 601.243738 
L 187.227273 602.307095 
L 188.918182 602.760832 
L 190.609091 603.077902 
L 192.3 603.453777 
L 197.372727 604.18224 
L 201.6 604.707817 
L 205.827273 604.93383 
L 215.127273 605.079736 
L 237.109091 605.183686 
L 327.572727 605.257264 
L 622.636364 605.290909 
L 622.636364 605.290909 
" style="fill:none;stroke:#1f77b4;stroke-dasharray:9.6,2.4,1.5,2.4;stroke-dashoffset:0;stroke-width:1.5;"/>
   </g>
   <g id="line2d_16">
    <path clip-path="url(#peeae90ea3f)" d="M 115.363636 510.255552 
L 122.127273 510.622719 
L 127.2 511.244177 
L 131.427273 511.996899 
L 136.5 513.159835 
L 140.727273 514.301624 
L 146.645455 516.216964 
L 151.718182 518.069341 
L 157.636364 520.521191 
L 162.709091 522.876808 
L 167.781818 525.516201 
L 172.009091 527.930613 
L 177.927273 531.455487 
L 178.772727 532.207733 
L 186.381818 537.634296 
L 191.454545 541.621302 
L 193.145455 542.758083 
L 193.990909 542.032767 
L 194.836364 543.376143 
L 196.527273 545.404427 
L 197.372727 545.310432 
L 198.218182 546.141565 
L 199.063636 547.219671 
L 199.909091 547.257716 
L 200.754545 546.951116 
L 201.6 549.102105 
L 202.445455 548.570734 
L 203.290909 548.328644 
L 204.136364 550.737516 
L 204.981818 549.442665 
L 205.827273 550.423518 
L 206.672727 551.788063 
L 207.518182 551.239249 
L 208.363636 553.230163 
L 209.209091 552.969783 
L 210.054545 554.168763 
L 210.9 555.004899 
L 211.745455 554.84449 
L 212.590909 556.287429 
L 213.436364 556.218239 
L 214.281818 556.932968 
L 215.127273 557.819475 
L 215.972727 557.950764 
L 217.663636 559.55047 
L 218.509091 559.769486 
L 220.2 561.396762 
L 221.045455 561.629114 
L 221.890909 562.180663 
L 222.736364 563.188758 
L 224.427273 563.781584 
L 225.272727 564.857231 
L 226.118182 565.560452 
L 226.963636 565.948952 
L 228.654545 567.670111 
L 229.5 568.605719 
L 232.881818 571.712974 
L 233.727273 572.61469 
L 235.418182 573.896116 
L 238.8 576.092522 
L 240.490909 577.416475 
L 243.027273 579.27022 
L 252.327273 585.023508 
L 253.172727 585.087681 
L 254.018182 582.698653 
L 254.863636 571.791943 
L 256.554545 377.568793 
L 257.4 581.298456 
L 258.245455 135.388571 
L 259.090909 570.583857 
L 259.936364 548.031805 
L 260.781818 371.112122 
L 261.627273 483.726833 
L 262.472727 555.511572 
L 263.318182 560.756339 
L 264.163636 538.459006 
L 265.009091 519.115673 
L 265.854545 516.607482 
L 267.545455 536.720661 
L 268.390909 543.408505 
L 269.236364 546.002054 
L 270.081818 545.750895 
L 271.772727 544.71617 
L 272.618182 543.140908 
L 273.463636 540.950226 
L 274.309091 539.36368 
L 275.154545 538.285172 
L 276 537.682475 
L 276.845455 537.814923 
L 277.690909 538.613552 
L 279.381818 540.732728 
L 280.227273 541.534167 
L 281.072727 542.078703 
L 281.918182 542.455053 
L 282.763636 542.967379 
L 283.609091 543.622548 
L 284.454545 544.584957 
L 287.836364 549.225875 
L 288.681818 550.006586 
L 292.063636 552.415984 
L 292.909091 553.298701 
L 294.6 555.615855 
L 298.827273 561.248637 
L 303.054545 565.932833 
L 305.590909 568.505411 
L 308.972727 571.760328 
L 316.581818 579.451589 
L 319.118182 581.474225 
L 320.809091 582.586699 
L 322.5 583.486494 
L 325.036364 584.522861 
L 328.418182 585.53305 
L 332.645455 586.605355 
L 340.254545 588.311233 
L 347.018182 589.530529 
L 355.472727 590.798568 
L 365.618182 592.111657 
L 379.990909 593.73873 
L 393.518182 595.013625 
L 408.736364 596.214472 
L 429.027273 597.580668 
L 450.163636 598.755646 
L 473.836364 599.836763 
L 494.972727 600.606266 
L 524.563636 601.451864 
L 558.381818 602.164522 
L 602.345455 602.855002 
L 622.636364 603.104625 
L 622.636364 603.104625 
" style="fill:none;stroke:#ff7f0e;stroke-linecap:square;stroke-width:1.5;"/>
   </g>
   <g id="line2d_17">
    <path clip-path="url(#peeae90ea3f)" d="M 115.363636 510.257523 
L 123.818182 510.700105 
L 134.809091 512.13116 
L 138.190909 512.793863 
L 141.572727 513.630933 
L 148.336364 515.807368 
L 153.409091 517.932769 
L 156.790909 519.507239 
L 167.781818 525.175307 
L 175.390909 529.857113 
L 176.236364 530.47507 
L 177.927273 531.376203 
L 179.618182 532.932556 
L 181.309091 534.146894 
L 182.154545 534.965599 
L 183.845455 536.042572 
L 184.690909 536.758609 
L 185.536364 537.188485 
L 186.381818 537.8443 
L 187.227273 538.739786 
L 188.072727 539.348878 
L 188.918182 539.773723 
L 189.763636 540.739452 
L 191.454545 541.798275 
L 192.3 542.742822 
L 193.145455 543.045825 
L 193.990909 542.37693 
L 194.836364 543.599776 
L 195.681818 545.539039 
L 196.527273 546.31847 
L 197.372727 545.788385 
L 199.063636 548.573243 
L 199.909091 548.073186 
L 200.754545 547.906439 
L 201.6 550.022045 
L 202.445455 549.426203 
L 203.290909 549.686663 
L 204.136364 551.740184 
L 204.981818 549.588646 
L 205.827273 551.665681 
L 206.672727 553.155037 
L 207.518182 551.780183 
L 208.363636 554.379362 
L 209.209091 554.151032 
L 210.054545 554.858748 
L 210.9 556.053927 
L 211.745455 556.281447 
L 212.590909 557.388426 
L 213.436364 556.82608 
L 214.281818 558.287319 
L 215.127273 559.086871 
L 215.972727 558.429077 
L 216.818182 559.823579 
L 217.663636 560.508358 
L 218.509091 560.174927 
L 219.354545 561.554874 
L 220.2 562.146779 
L 221.045455 561.77222 
L 221.890909 563.117462 
L 222.736364 563.855532 
L 223.581818 563.793327 
L 224.427273 564.626452 
L 225.272727 565.219484 
L 226.118182 566.107036 
L 226.963636 566.787057 
L 227.809091 566.887527 
L 228.654545 568.233454 
L 229.5 569.086454 
L 230.345455 569.636423 
L 231.190909 570.461495 
L 232.036364 570.717307 
L 232.881818 571.940686 
L 233.727273 572.493246 
L 234.572727 573.228464 
L 235.418182 573.689927 
L 236.263636 573.863793 
L 237.109091 574.616758 
L 237.954545 574.716356 
L 238.8 575.90676 
L 239.645455 576.286211 
L 240.490909 577.362334 
L 241.336364 577.837441 
L 242.181818 578.734495 
L 243.027273 579.294188 
L 243.872727 580.014725 
L 245.563636 581.23083 
L 248.945455 583.858822 
L 250.636364 585.115775 
L 252.327273 585.994332 
L 253.172727 585.506477 
L 254.018182 583.438521 
L 254.863636 568.258625 
L 255.709091 470.187082 
L 256.554545 311.298551 
L 257.4 581.763949 
L 258.245455 111.109091 
L 259.090909 571.340601 
L 259.936364 561.181799 
L 260.781818 398.880641 
L 262.472727 548.018272 
L 263.318182 559.434767 
L 265.009091 518.41326 
L 265.854545 515.184437 
L 266.7 524.598448 
L 267.545455 535.383251 
L 268.390909 542.240573 
L 269.236364 544.773237 
L 270.081818 545.253541 
L 270.927273 545.995783 
L 271.772727 546.110692 
L 272.618182 544.998009 
L 273.463636 543.341746 
L 274.309091 542.239072 
L 275.154545 541.489285 
L 276 541.075066 
L 276.845455 541.170783 
L 277.690909 541.75912 
L 280.227273 544.128604 
L 281.072727 544.71297 
L 282.763636 545.598428 
L 283.609091 546.203651 
L 284.454545 547.048244 
L 286.145455 549.110064 
L 287.836364 550.723173 
L 288.681818 551.206972 
L 291.218182 552.181441 
L 292.063636 552.713413 
L 292.909091 553.38693 
L 293.754545 554.241198 
L 303.054545 565.861653 
L 305.590909 568.613333 
L 312.354545 575.332164 
L 319.118182 582.308431 
L 320.809091 583.614726 
L 323.345455 585.121416 
L 325.036364 585.930103 
L 326.727273 586.539796 
L 329.263636 587.207437 
L 341.1 589.494152 
L 348.709091 590.623789 
L 370.690909 593.352341 
L 382.527273 594.51551 
L 406.2 596.483448 
L 427.336364 597.866531 
L 444.245455 598.74787 
L 463.690909 599.571544 
L 489.054545 600.443042 
L 522.027273 601.379888 
L 559.227273 602.156733 
L 606.572727 602.889499 
L 622.636364 603.074939 
L 622.636364 603.074939 
" style="fill:none;stroke:#ff7f0e;stroke-dasharray:9.6,2.4,1.5,2.4;stroke-dashoffset:0;stroke-width:1.5;"/>
   </g>
   <g id="line2d_18">
    <path clip-path="url(#peeae90ea3f)" d="M 115.363636 510.255552 
L 120.436364 510.549921 
L 122.972727 510.906591 
L 124.663636 511.282958 
L 126.354545 511.832842 
L 128.045455 512.645038 
L 129.736364 513.769907 
L 131.427273 515.290062 
L 133.118182 517.206372 
L 134.809091 519.664566 
L 136.5 522.718387 
L 137.345455 524.541166 
L 138.190909 526.630816 
L 139.881818 531.600363 
L 140.727273 534.552661 
L 142.418182 541.640823 
L 147.490909 565.319025 
L 150.027273 578.499875 
L 153.409091 590.154519 
L 154.254545 592.326126 
L 155.1 593.887772 
L 156.790909 596.154156 
L 157.636364 596.995408 
L 158.481818 597.545219 
L 159.327273 597.938657 
L 161.018182 598.116002 
L 162.709091 598.117081 
L 166.936364 598.07095 
L 172.009091 598.302898 
L 177.927273 598.791895 
L 194.836364 600.202549 
L 204.136364 600.694533 
L 217.663636 601.160501 
L 242.181818 601.750042 
L 276.845455 602.342811 
L 324.190909 602.908644 
L 385.063636 603.414077 
L 468.763636 603.869847 
L 586.281818 604.280078 
L 622.636364 604.373709 
L 622.636364 604.373709 
" style="fill:none;stroke:#2ca02c;stroke-linecap:square;stroke-width:1.5;"/>
   </g>
   <g id="line2d_19">
    <path clip-path="url(#peeae90ea3f)" d="M 115.363636 510.257523 
L 122.127273 510.636694 
L 123.818182 510.919014 
L 126.354545 511.640461 
L 128.045455 512.204003 
L 129.736364 513.127472 
L 132.272727 514.735159 
L 133.118182 515.582426 
L 134.809091 517.781169 
L 136.5 520.50725 
L 137.345455 522.395632 
L 139.036364 527.10895 
L 140.727273 532.970357 
L 144.109091 549.977005 
L 144.954545 554.039227 
L 146.645455 563.628247 
L 149.181818 576.029654 
L 150.027273 579.779355 
L 154.254545 593.72069 
L 155.1 594.862775 
L 156.790909 596.889122 
L 157.636364 597.417284 
L 159.327273 598.057962 
L 161.863636 598.125835 
L 166.090909 597.989014 
L 172.009091 598.284354 
L 177.927273 598.780827 
L 189.763636 599.831081 
L 199.063636 600.453156 
L 208.363636 600.865175 
L 226.963636 601.400034 
L 256.554545 602.019373 
L 292.909091 602.548392 
L 346.172727 603.09285 
L 417.190909 603.589847 
L 513.572727 604.023311 
L 622.636364 604.350796 
L 622.636364 604.350796 
" style="fill:none;stroke:#2ca02c;stroke-dasharray:9.6,2.4,1.5,2.4;stroke-dashoffset:0;stroke-width:1.5;"/>
   </g>
   <g id="line2d_20">
    <path clip-path="url(#peeae90ea3f)" d="M 115.363636 510.255552 
L 121.281818 510.613871 
L 122.972727 510.822895 
L 125.509091 511.322634 
L 127.2 511.843934 
L 128.890909 512.545316 
L 130.581818 513.446353 
L 132.272727 514.563495 
L 134.809091 516.639612 
L 136.5 518.288346 
L 138.190909 520.341125 
L 139.881818 522.982473 
L 142.418182 527.932612 
L 146.645455 538.375117 
L 149.181818 546.646018 
L 150.872727 551.381945 
L 151.718182 554.420709 
L 152.563636 556.972264 
L 154.254545 560.802373 
L 155.1 563.413091 
L 155.945455 565.324682 
L 158.481818 569.605935 
L 159.327273 570.395778 
L 160.172727 571.454825 
L 161.863636 572.768517 
L 162.709091 573.57775 
L 163.554545 574.168344 
L 164.4 574.997243 
L 165.245455 575.609717 
L 166.936364 577.027884 
L 169.472727 578.947708 
L 171.163636 580.089894 
L 172.854545 581.153396 
L 175.390909 582.569677 
L 177.927273 583.848773 
L 181.309091 585.27274 
L 185.536364 586.838499 
L 189.763636 588.162482 
L 195.681818 589.657809 
L 201.6 590.931394 
L 208.363636 592.171671 
L 215.972727 593.345073 
L 225.272727 594.55711 
L 235.418182 595.657863 
L 239.645455 595.994903 
L 243.027273 596.148621 
L 245.563636 596.566154 
L 247.254545 596.6178 
L 248.945455 596.866658 
L 251.481818 597.021204 
L 253.172727 597.1713 
L 254.863636 597.273908 
L 256.554545 597.441323 
L 259.090909 597.602047 
L 262.472727 597.820691 
L 274.309091 598.575934 
L 290.372727 599.354202 
L 293.754545 599.347752 
L 297.981818 599.664936 
L 309.818182 600.231429 
L 319.118182 600.554651 
L 334.336364 601.047096 
L 367.309091 601.80793 
L 387.6 602.272168 
L 395.209091 602.403634 
L 409.581818 602.630416 
L 415.5 602.728999 
L 421.418182 602.832927 
L 564.3 604.107721 
L 622.636364 604.379964 
L 622.636364 604.379964 
" style="fill:none;stroke:#d62728;stroke-linecap:square;stroke-width:1.5;"/>
   </g>
   <g id="line2d_21">
    <path clip-path="url(#peeae90ea3f)" d="M 115.363636 510.257523 
L 122.127273 510.590628 
L 124.663636 511.004371 
L 128.890909 512.049457 
L 131.427273 512.959982 
L 132.272727 513.381984 
L 135.654545 515.681078 
L 137.345455 517.440117 
L 138.190909 518.378263 
L 139.036364 519.573352 
L 139.881818 521.107703 
L 141.572727 525.219594 
L 143.263636 529.778605 
L 144.954545 534.881631 
L 146.645455 539.783501 
L 148.336364 545.391279 
L 149.181818 547.601567 
L 150.027273 549.470858 
L 150.872727 551.927206 
L 152.563636 558.441805 
L 153.409091 559.947725 
L 155.1 564.504178 
L 155.945455 566.1285 
L 157.636364 568.637048 
L 158.481818 569.759439 
L 161.018182 572.397146 
L 162.709091 574.072624 
L 163.554545 574.577657 
L 164.4 575.467897 
L 166.936364 577.534872 
L 168.627273 579.051807 
L 169.472727 579.562921 
L 171.163636 580.80927 
L 174.545455 582.703324 
L 179.618182 585.109772 
L 188.072727 587.961672 
L 191.454545 588.818548 
L 198.218182 590.449442 
L 210.054545 592.653525 
L 220.2 594.04168 
L 237.954545 595.91956 
L 238.8 595.924545 
L 239.645455 596.047721 
L 240.490909 595.962201 
L 241.336364 596.109865 
L 242.181818 595.952125 
L 243.027273 596.217375 
L 243.872727 596.250341 
L 244.718182 596.517344 
L 245.563636 596.578774 
L 246.409091 596.485767 
L 248.1 596.718867 
L 249.790909 596.896334 
L 250.636364 596.84962 
L 252.327273 597.112711 
L 254.863636 597.231389 
L 256.554545 597.438122 
L 258.245455 597.539805 
L 261.627273 597.740371 
L 265.009091 598.003676 
L 283.609091 599.075668 
L 292.063636 599.36227 
L 292.909091 599.227073 
L 293.754545 599.38748 
L 294.6 599.376964 
L 295.445455 599.604926 
L 297.136364 599.648541 
L 333.490909 601.019982 
L 342.790909 601.199645 
L 345.327273 601.340874 
L 366.463636 601.812312 
L 369 601.801071 
L 371.536364 601.956939 
L 383.372727 602.172557 
L 385.909091 602.198785 
L 390.136364 602.322349 
L 438.327273 603.014315 
L 454.390909 603.210814 
L 484.827273 603.505665 
L 494.972727 603.596151 
L 622.636364 604.356638 
L 622.636364 604.356638 
" style="fill:none;stroke:#d62728;stroke-dasharray:9.6,2.4,1.5,2.4;stroke-dashoffset:0;stroke-width:1.5;"/>
   </g>
   <g id="line2d_22">
    <path clip-path="url(#peeae90ea3f)" d="M 115.363636 510.255552 
L 119.590909 510.304614 
L 122.127273 510.432072 
L 127.2 510.819745 
L 130.581818 511.320731 
L 133.118182 511.903368 
L 135.654545 512.741662 
L 139.036364 514.160209 
L 142.418182 515.723377 
L 149.181818 519.124663 
L 153.409091 521.56575 
L 155.1 522.611306 
L 158.481818 525.172016 
L 159.327273 526.033541 
L 161.018182 527.393208 
L 163.554545 530.360007 
L 164.4 531.345715 
L 165.245455 532.510628 
L 169.472727 539.952735 
L 170.318182 540.30092 
L 171.163636 539.397005 
L 172.009091 543.7529 
L 172.854545 543.775911 
L 173.7 544.991166 
L 174.545455 547.226752 
L 175.390909 547.304813 
L 176.236364 550.167114 
L 177.081818 549.828684 
L 177.927273 552.729421 
L 178.772727 552.600083 
L 179.618182 555.095371 
L 180.463636 555.535794 
L 181.309091 557.082064 
L 182.154545 558.29811 
L 183 559.163164 
L 183.845455 560.851679 
L 184.690909 561.347272 
L 185.536364 562.797706 
L 186.381818 563.777508 
L 187.227273 564.519147 
L 188.072727 565.94167 
L 188.918182 566.490104 
L 189.763636 567.710285 
L 191.454545 569.269666 
L 192.3 570.44558 
L 193.145455 570.934511 
L 193.990909 571.957748 
L 194.836364 572.747243 
L 195.681818 573.369395 
L 196.527273 574.26812 
L 201.6 578.261963 
L 209.209091 582.955968 
L 212.590909 584.696171 
L 218.509091 587.313496 
L 224.427273 589.42868 
L 229.5 590.989519 
L 235.418182 592.524366 
L 241.336364 593.835904 
L 246.409091 594.751752 
L 249.790909 595.344686 
L 253.172727 595.933676 
L 265.009091 597.499765 
L 278.536364 598.923645 
L 290.372727 599.87598 
L 303.9 600.743721 
L 319.118182 601.517546 
L 338.563636 602.271895 
L 361.390909 602.928449 
L 389.290909 603.499996 
L 423.954545 603.980015 
L 470.454545 604.388418 
L 534.709091 604.715445 
L 622.636364 604.950275 
L 622.636364 604.950275 
" style="fill:none;stroke:#9467bd;stroke-linecap:square;stroke-width:1.5;"/>
   </g>
   <g id="line2d_23">
    <path clip-path="url(#peeae90ea3f)" d="M 115.363636 510.257523 
L 119.590909 510.292486 
L 121.281818 510.381802 
L 124.663636 510.504728 
L 127.2 510.703804 
L 133.118182 511.499199 
L 139.036364 512.803584 
L 141.572727 513.625631 
L 143.263636 514.325937 
L 144.109091 514.716828 
L 145.8 515.915441 
L 146.645455 516.332928 
L 151.718182 519.695977 
L 153.409091 520.623151 
L 154.254545 521.010859 
L 155.1 521.668294 
L 155.945455 522.530844 
L 156.790909 523.009834 
L 157.636364 523.224505 
L 158.481818 524.056115 
L 160.172727 526.143228 
L 161.018182 526.972679 
L 162.709091 529.191911 
L 165.245455 532.097044 
L 166.090909 533.382718 
L 167.781818 536.35768 
L 169.472727 539.053596 
L 170.318182 538.961402 
L 171.163636 538.537752 
L 172.009091 542.752572 
L 172.854545 542.456531 
L 173.7 544.23364 
L 174.545455 546.566847 
L 175.390909 546.611803 
L 176.236364 548.868944 
L 177.081818 548.891982 
L 177.927273 551.987819 
L 178.772727 551.676439 
L 179.618182 553.856102 
L 180.463636 554.660107 
L 181.309091 556.586562 
L 182.154545 557.916217 
L 183 558.626315 
L 183.845455 560.161278 
L 184.690909 560.654936 
L 185.536364 562.322345 
L 186.381818 563.119645 
L 187.227273 563.499912 
L 188.072727 565.165972 
L 188.918182 566.150391 
L 189.763636 567.34857 
L 190.609091 567.92799 
L 191.454545 568.758727 
L 192.3 569.980123 
L 193.145455 570.539564 
L 193.990909 571.510181 
L 195.681818 572.642428 
L 196.527273 573.801525 
L 197.372727 574.580379 
L 198.218182 575.002871 
L 199.909091 576.537593 
L 200.754545 577.090559 
L 201.6 577.787591 
L 203.290909 578.769818 
L 204.981818 580.054591 
L 205.827273 580.469209 
L 207.518182 581.622114 
L 210.054545 582.879757 
L 211.745455 583.812136 
L 213.436364 584.6465 
L 215.127273 585.455852 
L 224.427273 589.024467 
L 237.109091 592.551946 
L 243.872727 593.993296 
L 248.1 594.630977 
L 248.945455 594.864634 
L 250.636364 595.208586 
L 264.163636 597.179779 
L 265.854545 597.372437 
L 268.390909 597.651052 
L 270.927273 597.947299 
L 278.536364 598.711368 
L 290.372727 599.695242 
L 298.827273 600.284211 
L 319.963636 601.426851 
L 337.718182 602.124241 
L 363.927273 602.861684 
L 401.972727 603.563461 
L 462 604.224209 
L 531.327273 604.627634 
L 618.409091 604.886057 
L 622.636364 604.89508 
L 622.636364 604.89508 
" style="fill:none;stroke:#9467bd;stroke-dasharray:9.6,2.4,1.5,2.4;stroke-dashoffset:0;stroke-width:1.5;"/>
   </g>
   <g id="line2d_24">
    <path clip-path="url(#peeae90ea3f)" d="M 115.363636 510.255552 
L 117.054545 509.875786 
L 117.9 510.156328 
L 130.581818 510.625212 
L 137.345455 511.225359 
L 140.727273 511.817213 
L 143.263636 512.498004 
L 145.8 513.381673 
L 148.336364 514.625966 
L 150.872727 516.165087 
L 153.409091 518.069222 
L 161.018182 524.172917 
L 162.709091 525.660483 
L 165.245455 527.905801 
L 167.781818 530.393752 
L 169.472727 531.607892 
L 171.163636 534.480282 
L 172.009091 534.964744 
L 172.854545 536.847161 
L 173.7 537.296155 
L 175.390909 540.004268 
L 176.236364 540.601447 
L 177.081818 542.4111 
L 177.927273 543.318662 
L 178.772727 543.914986 
L 179.618182 544.960134 
L 180.463636 546.627075 
L 181.309091 547.691121 
L 182.154545 548.340926 
L 183 549.3834 
L 184.690909 552.042932 
L 185.536364 552.675799 
L 186.381818 553.792799 
L 188.072727 556.554131 
L 190.609091 558.927185 
L 192.3 561.686098 
L 193.145455 562.824659 
L 193.990909 563.521373 
L 195.681818 565.499122 
L 196.527273 566.693582 
L 198.218182 568.631888 
L 200.754545 570.860167 
L 204.136364 574.62551 
L 205.827273 575.925185 
L 208.363636 577.607216 
L 210.9 580.339367 
L 213.436364 581.680229 
L 215.127273 583.273125 
L 215.972727 583.757608 
L 216.818182 584.027813 
L 217.663636 584.427885 
L 219.354545 585.827027 
L 220.2 586.281844 
L 221.890909 586.942127 
L 224.427273 588.449976 
L 226.118182 589.067534 
L 228.654545 590.310847 
L 231.190909 591.21719 
L 232.881818 591.915989 
L 243.027273 594.928438 
L 247.254545 595.86975 
L 251.481818 596.759606 
L 262.472727 598.543264 
L 271.772727 599.662276 
L 281.918182 600.608053 
L 292.909091 601.400181 
L 306.436364 602.140427 
L 322.5 602.788072 
L 342.790909 603.371442 
L 368.154545 603.868437 
L 401.127273 604.281221 
L 441.709091 604.570626 
L 606.572727 605.055178 
L 622.636364 605.07431 
L 622.636364 605.07431 
" style="fill:none;stroke:#8c564b;stroke-linecap:square;stroke-width:1.5;"/>
   </g>
   <g id="line2d_25">
    <path clip-path="url(#peeae90ea3f)" d="M 115.363636 510.257523 
L 117.054545 509.873894 
L 117.9 510.152499 
L 133.118182 510.695126 
L 137.345455 511.08583 
L 142.418182 511.784918 
L 144.954545 512.242739 
L 146.645455 512.594922 
L 150.872727 514.368417 
L 153.409091 515.802429 
L 155.945455 518.228113 
L 157.636364 520.107567 
L 159.327273 522.552002 
L 160.172727 523.223514 
L 161.018182 523.664 
L 162.709091 525.245573 
L 164.4 526.162579 
L 165.245455 526.557599 
L 166.090909 527.37891 
L 166.936364 528.480865 
L 168.627273 529.916814 
L 169.472727 530.466318 
L 170.318182 532.405643 
L 171.163636 533.909807 
L 172.009091 534.256179 
L 172.854545 536.471627 
L 173.7 537.005247 
L 174.545455 538.295498 
L 175.390909 539.055517 
L 176.236364 539.191709 
L 177.081818 541.032813 
L 177.927273 542.352628 
L 178.772727 543.113139 
L 179.618182 544.370353 
L 180.463636 546.385932 
L 181.309091 547.832462 
L 182.154545 548.321388 
L 183 548.662197 
L 183.845455 550.201669 
L 184.690909 551.470445 
L 185.536364 551.630033 
L 186.381818 552.725671 
L 187.227273 554.315418 
L 188.072727 556.203075 
L 188.918182 557.1407 
L 189.763636 557.560516 
L 191.454545 559.728354 
L 192.3 560.893162 
L 193.990909 562.716068 
L 194.836364 564.023665 
L 195.681818 564.842384 
L 196.527273 566.290336 
L 197.372727 567.221549 
L 200.754545 570.209872 
L 201.6 571.138751 
L 202.445455 572.348673 
L 203.290909 573.283101 
L 204.981818 574.681268 
L 207.518182 576.177536 
L 209.209091 577.841315 
L 210.054545 578.920022 
L 210.9 579.611083 
L 213.436364 580.981723 
L 215.127273 582.799955 
L 215.972727 583.248506 
L 216.818182 583.394665 
L 217.663636 583.777004 
L 219.354545 585.280621 
L 221.045455 586.179334 
L 221.890909 586.453385 
L 224.427273 587.92398 
L 226.118182 588.569137 
L 227.809091 589.501705 
L 229.5 590.100877 
L 230.345455 590.367168 
L 232.881818 591.532748 
L 240.490909 593.889792 
L 244.718182 595.049812 
L 255.709091 597.300699 
L 261.627273 598.224201 
L 270.081818 599.272752 
L 280.227273 600.301995 
L 292.909091 601.27074 
L 304.745455 601.955413 
L 322.5 602.703957 
L 341.1 603.261263 
L 366.463636 603.783766 
L 400.281818 604.229946 
L 446.781818 604.582055 
L 622.636364 605.064497 
L 622.636364 605.064497 
" style="fill:none;stroke:#8c564b;stroke-dasharray:9.6,2.4,1.5,2.4;stroke-dashoffset:0;stroke-width:1.5;"/>
   </g>
   <g id="line2d_26">
    <path clip-path="url(#peeae90ea3f)" d="M 115.363636 510.255552 
L 116.209091 509.744375 
L 117.054545 509.474767 
L 117.9 509.859755 
L 118.745455 510.022515 
L 119.590909 509.88988 
L 122.127273 510.137238 
L 122.972727 510.098751 
L 125.509091 510.282811 
L 128.045455 510.349275 
L 133.118182 510.551558 
L 137.345455 510.761874 
L 139.881818 510.942217 
L 144.109091 511.422532 
L 146.645455 511.875373 
L 149.181818 512.52571 
L 151.718182 513.361166 
L 153.409091 514.093557 
L 155.945455 515.479288 
L 157.636364 516.638202 
L 159.327273 518.093224 
L 161.863636 520.721678 
L 163.554545 522.707296 
L 164.4 523.535716 
L 165.245455 524.161406 
L 166.936364 526.439772 
L 167.781818 527.106787 
L 168.627273 528.495452 
L 169.472727 529.183295 
L 171.163636 531.416831 
L 172.009091 532.148673 
L 172.854545 533.523991 
L 173.7 534.486043 
L 174.545455 535.717834 
L 176.236364 538.638284 
L 177.081818 539.636846 
L 180.463636 544.866451 
L 181.309091 545.967425 
L 182.154545 546.735397 
L 183 546.679973 
L 183.845455 543.175208 
L 184.690909 548.550318 
L 185.536364 549.041385 
L 186.381818 550.204524 
L 187.227273 551.922034 
L 188.072727 552.638485 
L 188.918182 554.278603 
L 189.763636 554.966441 
L 190.609091 556.585582 
L 191.454545 557.206819 
L 192.3 558.931039 
L 193.145455 559.457318 
L 193.990909 561.243276 
L 194.836364 561.518365 
L 195.681818 563.514148 
L 196.527273 563.556954 
L 197.372727 565.430406 
L 198.218182 565.836969 
L 199.909091 568.210702 
L 200.754545 568.655938 
L 201.6 570.176753 
L 202.445455 570.486077 
L 203.290909 571.68908 
L 204.136364 572.551296 
L 204.981818 573.152369 
L 205.827273 574.379022 
L 206.672727 574.871488 
L 208.363636 576.679768 
L 209.209091 577.247818 
L 210.9 578.877743 
L 211.745455 579.364377 
L 212.590909 580.225698 
L 213.436364 580.906885 
L 215.127273 582.059557 
L 215.972727 582.845245 
L 218.509091 584.494619 
L 219.354545 585.153075 
L 225.272727 588.580442 
L 227.809091 589.717882 
L 232.036364 591.872618 
L 234.572727 592.655494 
L 236.263636 593.160103 
L 239.645455 594.602993 
L 241.336364 594.917393 
L 243.872727 595.90056 
L 246.409091 596.434845 
L 248.1 596.953081 
L 261.627273 599.391811 
L 265.854545 599.930725 
L 271.772727 600.609313 
L 279.381818 601.298629 
L 290.372727 602.055545 
L 303.054545 602.693819 
L 319.118182 603.26897 
L 339.409091 603.766426 
L 366.463636 604.192907 
L 404.509091 604.548177 
L 462 604.835505 
L 551.618182 605.039903 
L 622.636364 605.119054 
L 622.636364 605.119054 
" style="fill:none;stroke:#e377c2;stroke-linecap:square;stroke-width:1.5;"/>
   </g>
   <g id="line2d_27">
    <path clip-path="url(#peeae90ea3f)" d="M 115.363636 510.257523 
L 116.209091 509.743616 
L 117.054545 509.472523 
L 117.9 509.8563 
L 118.745455 510.018334 
L 119.590909 509.883808 
L 122.127273 510.12516 
L 122.972727 510.084771 
L 125.509091 510.255801 
L 128.045455 510.305373 
L 133.118182 510.480449 
L 136.5 510.624826 
L 143.263636 511.096973 
L 146.645455 511.52618 
L 151.718182 512.361007 
L 153.409091 512.896293 
L 156.790909 514.544608 
L 158.481818 515.405522 
L 159.327273 515.912387 
L 161.018182 517.533019 
L 162.709091 519.492776 
L 163.554545 520.642927 
L 166.936364 526.131179 
L 167.781818 526.833773 
L 168.627273 528.014055 
L 169.472727 528.557906 
L 171.163636 530.688416 
L 172.009091 531.202357 
L 172.854545 532.839586 
L 174.545455 534.725555 
L 175.390909 536.288661 
L 176.236364 538.162377 
L 177.081818 539.64877 
L 177.927273 540.72772 
L 178.772727 541.53944 
L 180.463636 544.268864 
L 181.309091 544.907214 
L 182.154545 545.259177 
L 183 545.858039 
L 183.845455 541.652985 
L 184.690909 548.211922 
L 185.536364 548.575503 
L 186.381818 549.246001 
L 187.227273 551.121502 
L 188.072727 552.39038 
L 188.918182 553.298259 
L 189.763636 553.409311 
L 191.454545 556.874355 
L 192.3 558.528513 
L 193.145455 558.606078 
L 193.990909 560.752645 
L 194.836364 561.945477 
L 195.681818 563.69947 
L 196.527273 562.984204 
L 197.372727 565.013335 
L 198.218182 565.689082 
L 199.063636 566.519986 
L 199.909091 567.79872 
L 200.754545 568.408529 
L 201.6 569.99488 
L 202.445455 570.227008 
L 203.290909 571.877829 
L 204.136364 572.431118 
L 204.981818 572.653876 
L 205.827273 574.123505 
L 207.518182 575.225853 
L 209.209091 577.123148 
L 210.9 578.539112 
L 211.745455 579.058281 
L 213.436364 580.558299 
L 214.281818 581.136427 
L 215.127273 581.566728 
L 215.972727 582.582806 
L 216.818182 583.188076 
L 217.663636 583.410711 
L 218.509091 584.185239 
L 219.354545 584.80561 
L 221.890909 586.177063 
L 222.736364 586.909818 
L 225.272727 588.260257 
L 226.118182 588.459812 
L 226.963636 588.946472 
L 227.809091 589.202318 
L 228.654545 589.830434 
L 229.5 590.184616 
L 230.345455 590.723541 
L 232.036364 591.434596 
L 232.881818 591.781001 
L 233.727273 591.976956 
L 234.572727 592.371761 
L 235.418182 592.465424 
L 236.263636 592.90385 
L 237.109091 593.168349 
L 237.954545 593.708336 
L 238.8 594.047344 
L 241.336364 594.548307 
L 243.027273 595.324548 
L 244.718182 595.726289 
L 245.563636 595.849422 
L 248.1 596.663358 
L 258.245455 598.582994 
L 260.781818 598.972485 
L 263.318182 599.349319 
L 274.309091 600.668743 
L 292.909091 602.062211 
L 303.054545 602.578149 
L 316.581818 603.097607 
L 336.872727 603.637433 
L 365.618182 604.131794 
L 394.363636 604.436874 
L 478.063636 604.860623 
L 622.636364 605.106379 
L 622.636364 605.106379 
" style="fill:none;stroke:#e377c2;stroke-dasharray:9.6,2.4,1.5,2.4;stroke-dashoffset:0;stroke-width:1.5;"/>
   </g>
   <g id="line2d_28">
    <path clip-path="url(#peeae90ea3f)" d="M 115.363636 510.255552 
L 116.209091 509.270178 
L 117.054545 508.969606 
L 118.745455 509.785773 
L 119.590909 509.622787 
L 122.127273 509.968156 
L 122.972727 509.936059 
L 126.354545 510.158129 
L 136.5 510.524719 
L 138.190909 510.601878 
L 139.881818 510.672631 
L 141.572727 510.78434 
L 143.263636 510.88076 
L 150.027273 511.650709 
L 152.563636 512.163715 
L 155.1 512.851105 
L 157.636364 513.744993 
L 159.327273 514.513129 
L 161.863636 515.982823 
L 163.554545 517.229059 
L 165.245455 518.815016 
L 166.936364 520.781747 
L 168.627273 522.905381 
L 169.472727 523.784931 
L 171.163636 526.339087 
L 172.009091 527.198624 
L 172.854545 528.723436 
L 174.545455 531.048961 
L 175.390909 532.521238 
L 178.772727 537.344782 
L 182.154545 543.527794 
L 183 544.517065 
L 183.845455 544.749926 
L 184.690909 546.783808 
L 185.536364 549.453479 
L 186.381818 549.466649 
L 187.227273 551.573153 
L 188.072727 553.079407 
L 188.918182 553.216823 
L 189.763636 555.04398 
L 190.609091 556.478643 
L 191.454545 557.023587 
L 192.3 557.265688 
L 193.990909 560.730026 
L 194.836364 561.318968 
L 195.681818 562.249493 
L 196.527273 563.790339 
L 197.372727 564.954526 
L 198.218182 565.529602 
L 199.909091 568.055697 
L 201.6 569.677062 
L 203.290909 571.996846 
L 205.827273 574.151067 
L 207.518182 576.322763 
L 208.363636 577.217557 
L 209.209091 577.801164 
L 210.054545 578.238435 
L 211.745455 579.884255 
L 212.590909 580.868317 
L 213.436364 581.544402 
L 215.127273 582.515403 
L 215.972727 583.179053 
L 217.663636 584.740161 
L 218.509091 585.318951 
L 221.890909 587.176104 
L 223.581818 588.400786 
L 225.272727 589.260923 
L 227.809091 590.354916 
L 231.190909 592.096076 
L 239.645455 595.155614 
L 243.027273 596.045415 
L 247.254545 596.939793 
L 248.945455 597.602708 
L 250.636364 597.946188 
L 252.327273 598.17502 
L 256.554545 599.092645 
L 259.090909 599.450092 
L 261.627273 599.93659 
L 274.309091 601.391489 
L 282.763636 602.040362 
L 296.290909 602.826114 
L 307.281818 603.270854 
L 325.036364 603.766307 
L 348.709091 604.182425 
L 381.681818 604.525249 
L 432.409091 604.808534 
L 514.418182 605.021026 
L 622.636364 605.141237 
L 622.636364 605.141237 
" style="fill:none;stroke:#7f7f7f;stroke-linecap:square;stroke-width:1.5;"/>
   </g>
   <g id="line2d_29">
    <path clip-path="url(#peeae90ea3f)" d="M 115.363636 510.257523 
L 116.209091 509.269419 
L 117.054545 508.96674 
L 118.745455 509.782714 
L 119.590909 509.618527 
L 122.127273 509.960667 
L 122.972727 509.92788 
L 125.509091 510.123404 
L 133.118182 510.378347 
L 134.809091 510.39124 
L 136.5 510.4618 
L 138.190909 510.531573 
L 139.881818 510.587212 
L 141.572727 510.680001 
L 143.263636 510.767153 
L 152.563636 511.728996 
L 158.481818 512.822895 
L 160.172727 513.662945 
L 163.554545 515.576535 
L 165.245455 516.617616 
L 166.090909 517.358561 
L 168.627273 520.865291 
L 169.472727 521.638214 
L 171.163636 525.341035 
L 172.009091 526.711092 
L 172.854545 528.324716 
L 174.545455 530.290988 
L 175.390909 532.278605 
L 176.236364 533.642883 
L 177.081818 534.437491 
L 178.772727 536.999781 
L 180.463636 540.438183 
L 182.154545 543.385014 
L 183 544.105056 
L 183.845455 544.647258 
L 185.536364 549.394883 
L 186.381818 548.640914 
L 187.227273 550.22775 
L 188.072727 552.08246 
L 188.918182 552.152783 
L 189.763636 554.171681 
L 190.609091 555.601398 
L 191.454545 556.348767 
L 192.3 557.761756 
L 193.145455 558.392692 
L 193.990909 560.4326 
L 194.836364 561.402994 
L 195.681818 561.43462 
L 196.527273 563.17887 
L 197.372727 564.45494 
L 198.218182 564.963383 
L 199.063636 566.656206 
L 199.909091 567.849324 
L 200.754545 568.716063 
L 201.6 569.897543 
L 202.445455 570.527931 
L 203.290909 571.691411 
L 204.136364 572.638533 
L 204.981818 572.820148 
L 206.672727 574.738052 
L 207.518182 576.184971 
L 208.363636 576.84474 
L 209.209091 577.25105 
L 210.054545 578.004268 
L 210.9 578.353497 
L 213.436364 581.127973 
L 214.281818 581.658445 
L 215.127273 581.996907 
L 215.972727 582.849895 
L 216.818182 583.53609 
L 217.663636 584.371474 
L 218.509091 584.976034 
L 219.354545 585.375947 
L 220.2 585.919943 
L 221.045455 586.223538 
L 221.890909 586.914742 
L 222.736364 587.441742 
L 223.581818 588.13774 
L 224.427273 588.603887 
L 226.963636 589.628559 
L 230.345455 591.492617 
L 232.036364 592.208156 
L 232.881818 592.444157 
L 233.727273 592.798611 
L 234.572727 593.014436 
L 237.109091 594.124256 
L 241.336364 595.480016 
L 244.718182 596.257679 
L 245.563636 596.316652 
L 250.636364 597.840758 
L 251.481818 597.872591 
L 256.554545 598.991243 
L 257.4 599.050874 
L 260.781818 599.694538 
L 263.318182 600.008775 
L 268.390909 600.707647 
L 281.072727 601.897889 
L 287.836364 602.359209 
L 290.372727 602.48066 
L 293.754545 602.681771 
L 297.981818 602.874325 
L 318.272727 603.5688 
L 369.845455 604.392925 
L 418.036364 604.724464 
L 497.509091 604.976535 
L 622.636364 605.132874 
L 622.636364 605.132874 
" style="fill:none;stroke:#7f7f7f;stroke-dasharray:9.6,2.4,1.5,2.4;stroke-dashoffset:0;stroke-width:1.5;"/>
   </g>
   <g id="line2d_30">
    <path clip-path="url(#peeae90ea3f)" d="M 115.363636 510.255552 
L 116.209091 508.04131 
L 117.054545 507.757823 
L 117.9 508.364213 
L 118.745455 509.156486 
L 119.590909 508.971668 
L 120.436364 509.1687 
L 121.281818 509.514431 
L 122.972727 509.550403 
L 124.663636 509.801057 
L 126.354545 509.89303 
L 127.2 510.010064 
L 128.890909 509.946131 
L 130.581818 510.212149 
L 132.272727 510.066474 
L 134.809091 510.334014 
L 135.654545 510.215887 
L 136.5 510.265686 
L 137.345455 510.438444 
L 138.190909 510.477407 
L 139.881818 510.391693 
L 141.572727 510.596503 
L 143.263636 510.551167 
L 144.954545 510.720742 
L 146.645455 510.750607 
L 157.636364 511.926854 
L 160.172727 512.477996 
L 162.709091 513.207991 
L 165.245455 514.137686 
L 166.936364 514.901788 
L 168.627273 515.859416 
L 170.318182 517.039624 
L 172.009091 518.49707 
L 173.7 520.371596 
L 175.390909 522.564821 
L 177.927273 526.460007 
L 179.618182 528.369507 
L 180.463636 530.73101 
L 182.154545 533.289261 
L 183 535.43173 
L 183.845455 536.421403 
L 185.536364 539.980017 
L 186.381818 541.062672 
L 188.918182 547.38881 
L 190.609091 550.857456 
L 193.990909 558.426717 
L 194.836364 559.82998 
L 195.681818 561.001277 
L 196.527273 560.754704 
L 197.372727 553.944529 
L 198.218182 558.994482 
L 199.063636 564.845063 
L 199.909091 561.23963 
L 200.754545 567.922192 
L 201.6 564.190667 
L 202.445455 570.179325 
L 203.290909 567.126662 
L 204.136364 572.054392 
L 204.981818 570.096987 
L 205.827273 573.963348 
L 206.672727 572.484916 
L 207.518182 575.799583 
L 208.363636 574.688018 
L 209.209091 577.654537 
L 210.054545 576.584498 
L 210.9 579.294369 
L 211.745455 578.482402 
L 212.590909 580.785515 
L 213.436364 580.264504 
L 214.281818 582.186535 
L 215.127273 581.994604 
L 215.972727 583.610363 
L 216.818182 583.545776 
L 217.663636 584.929888 
L 218.509091 585.017077 
L 219.354545 586.136029 
L 220.2 586.38355 
L 221.045455 587.206576 
L 222.736364 588.218855 
L 223.581818 588.84715 
L 224.427273 589.167153 
L 225.272727 589.867416 
L 226.118182 590.144878 
L 226.963636 590.757071 
L 227.809091 591.087491 
L 229.5 591.96091 
L 236.263636 594.732084 
L 245.563636 597.371441 
L 248.945455 598.113081 
L 252.327273 598.77126 
L 259.936364 599.955814 
L 266.7 600.771928 
L 275.154545 601.559023 
L 285.3 602.269024 
L 297.981818 602.914692 
L 313.2 603.461912 
L 332.645455 603.936401 
L 358.854545 604.344928 
L 394.363636 604.654613 
L 451.009091 604.904922 
L 550.772727 605.092513 
L 622.636364 605.156097 
L 622.636364 605.156097 
" style="fill:none;stroke:#bcbd22;stroke-linecap:square;stroke-width:1.5;"/>
   </g>
   <g id="line2d_31">
    <path clip-path="url(#peeae90ea3f)" d="M 115.363636 510.257523 
L 116.209091 508.040551 
L 117.054545 507.757449 
L 117.9 508.36376 
L 118.745455 509.157563 
L 119.590909 508.974115 
L 120.436364 509.170603 
L 121.281818 509.516051 
L 122.972727 509.551592 
L 124.663636 509.803493 
L 126.354545 509.894344 
L 127.2 510.010302 
L 128.890909 509.943763 
L 130.581818 510.207164 
L 132.272727 510.058667 
L 134.809091 510.317853 
L 135.654545 510.197511 
L 136.5 510.24497 
L 137.345455 510.415372 
L 138.190909 510.45132 
L 139.881818 510.355218 
L 141.572727 510.541441 
L 143.263636 510.476557 
L 144.954545 510.634615 
L 147.490909 510.718142 
L 153.409091 511.130248 
L 159.327273 511.805827 
L 165.245455 512.846494 
L 168.627273 514.120522 
L 170.318182 515.280364 
L 172.854545 517.303556 
L 174.545455 519.102712 
L 176.236364 521.756296 
L 177.927273 524.955469 
L 178.772727 526.512117 
L 179.618182 527.716468 
L 180.463636 530.751414 
L 181.309091 532.196347 
L 182.154545 533.176487 
L 183 535.714044 
L 184.690909 538.052276 
L 185.536364 539.940828 
L 187.227273 543.078709 
L 188.918182 548.227619 
L 189.763636 550.260169 
L 190.609091 551.905844 
L 192.3 555.54875 
L 193.145455 557.119169 
L 193.990909 557.981988 
L 194.836364 559.163462 
L 195.681818 560.622245 
L 196.527273 560.907707 
L 197.372727 553.304338 
L 198.218182 560.122749 
L 199.063636 565.743262 
L 199.909091 560.74419 
L 200.754545 568.009195 
L 201.6 564.06274 
L 202.445455 569.991422 
L 203.290909 566.33334 
L 204.136364 572.013741 
L 204.981818 570.574609 
L 205.827273 574.305086 
L 206.672727 572.534809 
L 207.518182 576.408757 
L 208.363636 576.092791 
L 209.209091 578.455268 
L 210.054545 576.777774 
L 210.9 579.710426 
L 211.745455 579.401192 
L 212.590909 581.317501 
L 213.436364 580.354798 
L 214.281818 582.604856 
L 215.127273 582.903287 
L 215.972727 584.22148 
L 216.818182 583.905286 
L 217.663636 585.596527 
L 218.509091 585.80108 
L 219.354545 586.503959 
L 220.2 586.585332 
L 221.045455 587.623129 
L 221.890909 588.117034 
L 222.736364 588.376338 
L 225.272727 590.371468 
L 226.118182 590.333268 
L 227.809091 591.512671 
L 228.654545 591.870497 
L 229.5 592.057543 
L 230.345455 592.380812 
L 231.190909 592.977467 
L 232.036364 593.251091 
L 232.881818 593.668201 
L 233.727273 593.942741 
L 234.572727 594.383154 
L 235.418182 594.608132 
L 236.263636 594.98245 
L 237.954545 595.439716 
L 240.490909 596.212977 
L 246.409091 597.748787 
L 247.254545 597.836091 
L 249.790909 598.448674 
L 251.481818 598.745458 
L 253.172727 599.058832 
L 264.163636 600.587985 
L 279.381818 601.967195 
L 293.754545 602.782665 
L 308.127273 603.347036 
L 326.727273 603.832263 
L 347.863636 604.182562 
L 385.063636 604.573313 
L 433.254545 604.838996 
L 511.036364 605.039286 
L 622.636364 605.158866 
L 622.636364 605.158866 
" style="fill:none;stroke:#bcbd22;stroke-dasharray:9.6,2.4,1.5,2.4;stroke-dashoffset:0;stroke-width:1.5;"/>
   </g>
   <g id="patch_4">
    <path d="M 90 630 
L 90 86.4 
" style="fill:none;stroke:#000000;stroke-linecap:square;stroke-linejoin:miter;stroke-width:0.8;"/>
   </g>
   <g id="patch_5">
    <path d="M 648 630 
L 648 86.4 
" style="fill:none;stroke:#000000;stroke-linecap:square;stroke-linejoin:miter;stroke-width:0.8;"/>
   </g>
   <g id="patch_6">
    <path d="M 90 630 
L 648 630 
" style="fill:none;stroke:#000000;stroke-linecap:square;stroke-linejoin:miter;stroke-width:0.8;"/>
   </g>
   <g id="patch_7">
    <path d="M 90 86.4 
L 648 86.4 
" style="fill:none;stroke:#000000;stroke-linecap:square;stroke-linejoin:miter;stroke-width:0.8;"/>
   </g>
   <g id="text_16">
    <!-- Class separation -->
    <g transform="translate(328.418182 575.64)scale(0.1 -0.1)">
     <defs>
      <path d="M 64.40625 67.28125 
L 64.40625 56.890625 
Q 59.421875 61.53125 53.78125 63.8125 
Q 48.140625 66.109375 41.796875 66.109375 
Q 29.296875 66.109375 22.65625 58.46875 
Q 16.015625 50.828125 16.015625 36.375 
Q 16.015625 21.96875 22.65625 14.328125 
Q 29.296875 6.6875 41.796875 6.6875 
Q 48.140625 6.6875 53.78125 8.984375 
Q 59.421875 11.28125 64.40625 15.921875 
L 64.40625 5.609375 
Q 59.234375 2.09375 53.4375 0.328125 
Q 47.65625 -1.421875 41.21875 -1.421875 
Q 24.65625 -1.421875 15.125 8.703125 
Q 5.609375 18.84375 5.609375 36.375 
Q 5.609375 53.953125 15.125 64.078125 
Q 24.65625 74.21875 41.21875 74.21875 
Q 47.75 74.21875 53.53125 72.484375 
Q 59.328125 70.75 64.40625 67.28125 
z
" id="DejaVuSans-67"/>
      <path d="M 9.421875 75.984375 
L 18.40625 75.984375 
L 18.40625 0 
L 9.421875 0 
z
" id="DejaVuSans-108"/>
      <path d="M 34.28125 27.484375 
Q 23.390625 27.484375 19.1875 25 
Q 14.984375 22.515625 14.984375 16.5 
Q 14.984375 11.71875 18.140625 8.90625 
Q 21.296875 6.109375 26.703125 6.109375 
Q 34.1875 6.109375 38.703125 11.40625 
Q 43.21875 16.703125 43.21875 25.484375 
L 43.21875 27.484375 
z
M 52.203125 31.203125 
L 52.203125 0 
L 43.21875 0 
L 43.21875 8.296875 
Q 40.140625 3.328125 35.546875 0.953125 
Q 30.953125 -1.421875 24.3125 -1.421875 
Q 15.921875 -1.421875 10.953125 3.296875 
Q 6 8.015625 6 15.921875 
Q 6 25.140625 12.171875 29.828125 
Q 18.359375 34.515625 30.609375 34.515625 
L 43.21875 34.515625 
L 43.21875 35.40625 
Q 43.21875 41.609375 39.140625 45 
Q 35.0625 48.390625 27.6875 48.390625 
Q 23 48.390625 18.546875 47.265625 
Q 14.109375 46.140625 10.015625 43.890625 
L 10.015625 52.203125 
Q 14.9375 54.109375 19.578125 55.046875 
Q 24.21875 56 28.609375 56 
Q 40.484375 56 46.34375 49.84375 
Q 52.203125 43.703125 52.203125 31.203125 
z
" id="DejaVuSans-97"/>
      <path id="DejaVuSans-32"/>
      <path d="M 56.203125 29.59375 
L 56.203125 25.203125 
L 14.890625 25.203125 
Q 15.484375 15.921875 20.484375 11.0625 
Q 25.484375 6.203125 34.421875 6.203125 
Q 39.59375 6.203125 44.453125 7.46875 
Q 49.3125 8.734375 54.109375 11.28125 
L 54.109375 2.78125 
Q 49.265625 0.734375 44.1875 -0.34375 
Q 39.109375 -1.421875 33.890625 -1.421875 
Q 20.796875 -1.421875 13.15625 6.1875 
Q 5.515625 13.8125 5.515625 26.8125 
Q 5.515625 40.234375 12.765625 48.109375 
Q 20.015625 56 32.328125 56 
Q 43.359375 56 49.78125 48.890625 
Q 56.203125 41.796875 56.203125 29.59375 
z
M 47.21875 32.234375 
Q 47.125 39.59375 43.09375 43.984375 
Q 39.0625 48.390625 32.421875 48.390625 
Q 24.90625 48.390625 20.390625 44.140625 
Q 15.875 39.890625 15.1875 32.171875 
z
" id="DejaVuSans-101"/>
      <path d="M 41.109375 46.296875 
Q 39.59375 47.171875 37.8125 47.578125 
Q 36.03125 48 33.890625 48 
Q 26.265625 48 22.1875 43.046875 
Q 18.109375 38.09375 18.109375 28.8125 
L 18.109375 0 
L 9.078125 0 
L 9.078125 54.6875 
L 18.109375 54.6875 
L 18.109375 46.1875 
Q 20.953125 51.171875 25.484375 53.578125 
Q 30.03125 56 36.53125 56 
Q 37.453125 56 38.578125 55.875 
Q 39.703125 55.765625 41.0625 55.515625 
z
" id="DejaVuSans-114"/>
      <path d="M 18.3125 70.21875 
L 18.3125 54.6875 
L 36.8125 54.6875 
L 36.8125 47.703125 
L 18.3125 47.703125 
L 18.3125 18.015625 
Q 18.3125 11.328125 20.140625 9.421875 
Q 21.96875 7.515625 27.59375 7.515625 
L 36.8125 7.515625 
L 36.8125 0 
L 27.59375 0 
Q 17.1875 0 13.234375 3.875 
Q 9.28125 7.765625 9.28125 18.015625 
L 9.28125 47.703125 
L 2.6875 47.703125 
L 2.6875 54.6875 
L 9.28125 54.6875 
L 9.28125 70.21875 
z
" id="DejaVuSans-116"/>
      <path d="M 9.421875 54.6875 
L 18.40625 54.6875 
L 18.40625 0 
L 9.421875 0 
z
M 9.421875 75.984375 
L 18.40625 75.984375 
L 18.40625 64.59375 
L 9.421875 64.59375 
z
" id="DejaVuSans-105"/>
      <path d="M 54.890625 33.015625 
L 54.890625 0 
L 45.90625 0 
L 45.90625 32.71875 
Q 45.90625 40.484375 42.875 44.328125 
Q 39.84375 48.1875 33.796875 48.1875 
Q 26.515625 48.1875 22.3125 43.546875 
Q 18.109375 38.921875 18.109375 30.90625 
L 18.109375 0 
L 9.078125 0 
L 9.078125 54.6875 
L 18.109375 54.6875 
L 18.109375 46.1875 
Q 21.34375 51.125 25.703125 53.5625 
Q 30.078125 56 35.796875 56 
Q 45.21875 56 50.046875 50.171875 
Q 54.890625 44.34375 54.890625 33.015625 
z
" id="DejaVuSans-110"/>
     </defs>
     <use xlink:href="#DejaVuSans-67"/>
     <use x="69.824219" xlink:href="#DejaVuSans-108"/>
     <use x="97.607422" xlink:href="#DejaVuSans-97"/>
     <use x="158.886719" xlink:href="#DejaVuSans-115"/>
     <use x="210.986328" xlink:href="#DejaVuSans-115"/>
     <use x="263.085938" xlink:href="#DejaVuSans-32"/>
     <use x="294.873047" xlink:href="#DejaVuSans-115"/>
     <use x="346.972656" xlink:href="#DejaVuSans-101"/>
     <use x="408.496094" xlink:href="#DejaVuSans-112"/>
     <use x="471.972656" xlink:href="#DejaVuSans-97"/>
     <use x="533.251953" xlink:href="#DejaVuSans-114"/>
     <use x="574.365234" xlink:href="#DejaVuSans-97"/>
     <use x="635.644531" xlink:href="#DejaVuSans-116"/>
     <use x="674.853516" xlink:href="#DejaVuSans-105"/>
     <use x="702.636719" xlink:href="#DejaVuSans-111"/>
     <use x="763.818359" xlink:href="#DejaVuSans-110"/>
    </g>
   </g>
   <g id="text_17">
    <!-- Training progress -->
    <g transform="translate(300.36875 66.4)scale(0.16 -0.16)">
     <defs>
      <path d="M -0.296875 72.90625 
L 61.375 72.90625 
L 61.375 64.59375 
L 35.5 64.59375 
L 35.5 0 
L 25.59375 0 
L 25.59375 64.59375 
L -0.296875 64.59375 
z
" id="DejaVuSans-84"/>
      <path d="M 45.40625 27.984375 
Q 45.40625 37.75 41.375 43.109375 
Q 37.359375 48.484375 30.078125 48.484375 
Q 22.859375 48.484375 18.828125 43.109375 
Q 14.796875 37.75 14.796875 27.984375 
Q 14.796875 18.265625 18.828125 12.890625 
Q 22.859375 7.515625 30.078125 7.515625 
Q 37.359375 7.515625 41.375 12.890625 
Q 45.40625 18.265625 45.40625 27.984375 
z
M 54.390625 6.78125 
Q 54.390625 -7.171875 48.1875 -13.984375 
Q 42 -20.796875 29.203125 -20.796875 
Q 24.46875 -20.796875 20.265625 -20.09375 
Q 16.0625 -19.390625 12.109375 -17.921875 
L 12.109375 -9.1875 
Q 16.0625 -11.328125 19.921875 -12.34375 
Q 23.78125 -13.375 27.78125 -13.375 
Q 36.625 -13.375 41.015625 -8.765625 
Q 45.40625 -4.15625 45.40625 5.171875 
L 45.40625 9.625 
Q 42.625 4.78125 38.28125 2.390625 
Q 33.9375 0 27.875 0 
Q 17.828125 0 11.671875 7.65625 
Q 5.515625 15.328125 5.515625 27.984375 
Q 5.515625 40.671875 11.671875 48.328125 
Q 17.828125 56 27.875 56 
Q 33.9375 56 38.28125 53.609375 
Q 42.625 51.21875 45.40625 46.390625 
L 45.40625 54.6875 
L 54.390625 54.6875 
z
" id="DejaVuSans-103"/>
     </defs>
     <use xlink:href="#DejaVuSans-84"/>
     <use x="46.333984" xlink:href="#DejaVuSans-114"/>
     <use x="87.447266" xlink:href="#DejaVuSans-97"/>
     <use x="148.726562" xlink:href="#DejaVuSans-105"/>
     <use x="176.509766" xlink:href="#DejaVuSans-110"/>
     <use x="239.888672" xlink:href="#DejaVuSans-105"/>
     <use x="267.671875" xlink:href="#DejaVuSans-110"/>
     <use x="331.050781" xlink:href="#DejaVuSans-103"/>
     <use x="394.527344" xlink:href="#DejaVuSans-32"/>
     <use x="426.314453" xlink:href="#DejaVuSans-112"/>
     <use x="489.791016" xlink:href="#DejaVuSans-114"/>
     <use x="528.654297" xlink:href="#DejaVuSans-111"/>
     <use x="589.835938" xlink:href="#DejaVuSans-103"/>
     <use x="653.3125" xlink:href="#DejaVuSans-114"/>
     <use x="692.175781" xlink:href="#DejaVuSans-101"/>
     <use x="753.699219" xlink:href="#DejaVuSans-115"/>
     <use x="805.798828" xlink:href="#DejaVuSans-115"/>
    </g>
   </g>
   <g id="legend_1">
    <g id="line2d_32">
     <path d="M 99 675.714438 
L 119 675.714438 
" style="fill:none;stroke:#1f77b4;stroke-linecap:square;stroke-width:1.5;"/>
    </g>
    <g id="line2d_33"/>
    <g id="text_18">
     <!-- Baseline -->
     <g transform="translate(127 679.214438)scale(0.1 -0.1)">
      <defs>
       <path d="M 19.671875 34.8125 
L 19.671875 8.109375 
L 35.5 8.109375 
Q 43.453125 8.109375 47.28125 11.40625 
Q 51.125 14.703125 51.125 21.484375 
Q 51.125 28.328125 47.28125 31.5625 
Q 43.453125 34.8125 35.5 34.8125 
z
M 19.671875 64.796875 
L 19.671875 42.828125 
L 34.28125 42.828125 
Q 41.5 42.828125 45.03125 45.53125 
Q 48.578125 48.25 48.578125 53.8125 
Q 48.578125 59.328125 45.03125 62.0625 
Q 41.5 64.796875 34.28125 64.796875 
z
M 9.8125 72.90625 
L 35.015625 72.90625 
Q 46.296875 72.90625 52.390625 68.21875 
Q 58.5 63.53125 58.5 54.890625 
Q 58.5 48.1875 55.375 44.234375 
Q 52.25 40.28125 46.1875 39.3125 
Q 53.46875 37.75 57.5 32.78125 
Q 61.53125 27.828125 61.53125 20.40625 
Q 61.53125 10.640625 54.890625 5.3125 
Q 48.25 0 35.984375 0 
L 9.8125 0 
z
" id="DejaVuSans-66"/>
      </defs>
      <use xlink:href="#DejaVuSans-66"/>
      <use x="68.603516" xlink:href="#DejaVuSans-97"/>
      <use x="129.882812" xlink:href="#DejaVuSans-115"/>
      <use x="181.982422" xlink:href="#DejaVuSans-101"/>
      <use x="243.505859" xlink:href="#DejaVuSans-108"/>
      <use x="271.289062" xlink:href="#DejaVuSans-105"/>
      <use x="299.072266" xlink:href="#DejaVuSans-110"/>
      <use x="362.451172" xlink:href="#DejaVuSans-101"/>
     </g>
    </g>
    <g id="line2d_34">
     <path d="M 99 690.392563 
L 119 690.392563 
" style="fill:none;stroke:#ff7f0e;stroke-linecap:square;stroke-width:1.5;"/>
    </g>
    <g id="line2d_35"/>
    <g id="text_19">
     <!-- Forced normaliz. -->
     <g transform="translate(127 693.892563)scale(0.1 -0.1)">
      <defs>
       <path d="M 9.8125 72.90625 
L 51.703125 72.90625 
L 51.703125 64.59375 
L 19.671875 64.59375 
L 19.671875 43.109375 
L 48.578125 43.109375 
L 48.578125 34.8125 
L 19.671875 34.8125 
L 19.671875 0 
L 9.8125 0 
z
" id="DejaVuSans-70"/>
       <path d="M 45.40625 46.390625 
L 45.40625 75.984375 
L 54.390625 75.984375 
L 54.390625 0 
L 45.40625 0 
L 45.40625 8.203125 
Q 42.578125 3.328125 38.25 0.953125 
Q 33.9375 -1.421875 27.875 -1.421875 
Q 17.96875 -1.421875 11.734375 6.484375 
Q 5.515625 14.40625 5.515625 27.296875 
Q 5.515625 40.1875 11.734375 48.09375 
Q 17.96875 56 27.875 56 
Q 33.9375 56 38.25 53.625 
Q 42.578125 51.265625 45.40625 46.390625 
z
M 14.796875 27.296875 
Q 14.796875 17.390625 18.875 11.75 
Q 22.953125 6.109375 30.078125 6.109375 
Q 37.203125 6.109375 41.296875 11.75 
Q 45.40625 17.390625 45.40625 27.296875 
Q 45.40625 37.203125 41.296875 42.84375 
Q 37.203125 48.484375 30.078125 48.484375 
Q 22.953125 48.484375 18.875 42.84375 
Q 14.796875 37.203125 14.796875 27.296875 
z
" id="DejaVuSans-100"/>
       <path d="M 52 44.1875 
Q 55.375 50.25 60.0625 53.125 
Q 64.75 56 71.09375 56 
Q 79.640625 56 84.28125 50.015625 
Q 88.921875 44.046875 88.921875 33.015625 
L 88.921875 0 
L 79.890625 0 
L 79.890625 32.71875 
Q 79.890625 40.578125 77.09375 44.375 
Q 74.3125 48.1875 68.609375 48.1875 
Q 61.625 48.1875 57.5625 43.546875 
Q 53.515625 38.921875 53.515625 30.90625 
L 53.515625 0 
L 44.484375 0 
L 44.484375 32.71875 
Q 44.484375 40.625 41.703125 44.40625 
Q 38.921875 48.1875 33.109375 48.1875 
Q 26.21875 48.1875 22.15625 43.53125 
Q 18.109375 38.875 18.109375 30.90625 
L 18.109375 0 
L 9.078125 0 
L 9.078125 54.6875 
L 18.109375 54.6875 
L 18.109375 46.1875 
Q 21.1875 51.21875 25.484375 53.609375 
Q 29.78125 56 35.6875 56 
Q 41.65625 56 45.828125 52.96875 
Q 50 49.953125 52 44.1875 
z
" id="DejaVuSans-109"/>
       <path d="M 5.515625 54.6875 
L 48.1875 54.6875 
L 48.1875 46.484375 
L 14.40625 7.171875 
L 48.1875 7.171875 
L 48.1875 0 
L 4.296875 0 
L 4.296875 8.203125 
L 38.09375 47.515625 
L 5.515625 47.515625 
z
" id="DejaVuSans-122"/>
       <path d="M 10.6875 12.40625 
L 21 12.40625 
L 21 0 
L 10.6875 0 
z
" id="DejaVuSans-46"/>
      </defs>
      <use xlink:href="#DejaVuSans-70"/>
      <use x="53.894531" xlink:href="#DejaVuSans-111"/>
      <use x="115.076172" xlink:href="#DejaVuSans-114"/>
      <use x="153.939453" xlink:href="#DejaVuSans-99"/>
      <use x="208.919922" xlink:href="#DejaVuSans-101"/>
      <use x="270.443359" xlink:href="#DejaVuSans-100"/>
      <use x="333.919922" xlink:href="#DejaVuSans-32"/>
      <use x="365.707031" xlink:href="#DejaVuSans-110"/>
      <use x="429.085938" xlink:href="#DejaVuSans-111"/>
      <use x="490.267578" xlink:href="#DejaVuSans-114"/>
      <use x="529.630859" xlink:href="#DejaVuSans-109"/>
      <use x="627.042969" xlink:href="#DejaVuSans-97"/>
      <use x="688.322266" xlink:href="#DejaVuSans-108"/>
      <use x="716.105469" xlink:href="#DejaVuSans-105"/>
      <use x="743.888672" xlink:href="#DejaVuSans-122"/>
      <use x="796.378906" xlink:href="#DejaVuSans-46"/>
     </g>
    </g>
    <g id="line2d_36">
     <path d="M 99 705.070687 
L 119 705.070687 
" style="fill:none;stroke:#2ca02c;stroke-linecap:square;stroke-width:1.5;"/>
    </g>
    <g id="line2d_37"/>
    <g id="text_20">
     <!-- $\lambda=0.005$ -->
     <g transform="translate(127 708.570687)scale(0.1 -0.1)">
      <defs>
       <path d="M 36.71875 67.4375 
L 48.828125 0 
L 39.3125 0 
L 31.84375 40.4375 
L 5.125 0 
L -4.390625 0 
L 29.734375 52.4375 
L 28.03125 62.109375 
Q 26.953125 68.265625 21.734375 68.265625 
L 17.046875 68.265625 
L 18.5 75.984375 
L 24.21875 75.875 
Q 35.203125 75.734375 36.71875 67.4375 
z
" id="DejaVuSans-Oblique-955"/>
       <path d="M 10.59375 45.40625 
L 73.1875 45.40625 
L 73.1875 37.203125 
L 10.59375 37.203125 
z
M 10.59375 25.484375 
L 73.1875 25.484375 
L 73.1875 17.1875 
L 10.59375 17.1875 
z
" id="DejaVuSans-61"/>
      </defs>
      <use transform="translate(0 0.015625)" xlink:href="#DejaVuSans-Oblique-955"/>
      <use transform="translate(78.662109 0.015625)" xlink:href="#DejaVuSans-61"/>
      <use transform="translate(181.933594 0.015625)" xlink:href="#DejaVuSans-48"/>
      <use transform="translate(245.556641 0.015625)" xlink:href="#DejaVuSans-46"/>
      <use transform="translate(277.34375 0.015625)" xlink:href="#DejaVuSans-48"/>
      <use transform="translate(340.966797 0.015625)" xlink:href="#DejaVuSans-48"/>
      <use transform="translate(404.589844 0.015625)" xlink:href="#DejaVuSans-53"/>
     </g>
    </g>
    <g id="line2d_38">
     <path d="M 229.815625 675.714438 
L 249.815625 675.714438 
" style="fill:none;stroke:#d62728;stroke-linecap:square;stroke-width:1.5;"/>
    </g>
    <g id="line2d_39"/>
    <g id="text_21">
     <!-- $\lambda=0.05$ -->
     <g transform="translate(257.815625 679.214438)scale(0.1 -0.1)">
      <use transform="translate(0 0.015625)" xlink:href="#DejaVuSans-Oblique-955"/>
      <use transform="translate(78.662109 0.015625)" xlink:href="#DejaVuSans-61"/>
      <use transform="translate(181.933594 0.015625)" xlink:href="#DejaVuSans-48"/>
      <use transform="translate(245.556641 0.015625)" xlink:href="#DejaVuSans-46"/>
      <use transform="translate(277.34375 0.015625)" xlink:href="#DejaVuSans-48"/>
      <use transform="translate(340.966797 0.015625)" xlink:href="#DejaVuSans-53"/>
     </g>
    </g>
    <g id="line2d_40">
     <path d="M 229.815625 690.392563 
L 249.815625 690.392563 
" style="fill:none;stroke:#9467bd;stroke-linecap:square;stroke-width:1.5;"/>
    </g>
    <g id="line2d_41"/>
    <g id="text_22">
     <!-- $\lambda=0.5$ -->
     <g transform="translate(257.815625 693.892563)scale(0.1 -0.1)">
      <use transform="translate(0 0.015625)" xlink:href="#DejaVuSans-Oblique-955"/>
      <use transform="translate(78.662109 0.015625)" xlink:href="#DejaVuSans-61"/>
      <use transform="translate(181.933594 0.015625)" xlink:href="#DejaVuSans-48"/>
      <use transform="translate(245.556641 0.015625)" xlink:href="#DejaVuSans-46"/>
      <use transform="translate(277.34375 0.015625)" xlink:href="#DejaVuSans-53"/>
     </g>
    </g>
    <g id="line2d_42">
     <path d="M 229.815625 705.070687 
L 249.815625 705.070687 
" style="fill:none;stroke:#8c564b;stroke-linecap:square;stroke-width:1.5;"/>
    </g>
    <g id="line2d_43"/>
    <g id="text_23">
     <!-- $\lambda=1.5$ -->
     <g transform="translate(257.815625 708.570687)scale(0.1 -0.1)">
      <use transform="translate(0 0.015625)" xlink:href="#DejaVuSans-Oblique-955"/>
      <use transform="translate(78.662109 0.015625)" xlink:href="#DejaVuSans-61"/>
      <use transform="translate(181.933594 0.015625)" xlink:href="#DejaVuSans-49"/>
      <use transform="translate(245.556641 0.015625)" xlink:href="#DejaVuSans-46"/>
      <use transform="translate(277.34375 0.015625)" xlink:href="#DejaVuSans-53"/>
     </g>
    </g>
    <g id="line2d_44">
     <path d="M 318.315625 675.714438 
L 338.315625 675.714438 
" style="fill:none;stroke:#e377c2;stroke-linecap:square;stroke-width:1.5;"/>
    </g>
    <g id="line2d_45"/>
    <g id="text_24">
     <!-- $\lambda=3$ -->
     <g transform="translate(346.315625 679.214438)scale(0.1 -0.1)">
      <use transform="translate(0 0.015625)" xlink:href="#DejaVuSans-Oblique-955"/>
      <use transform="translate(78.662109 0.015625)" xlink:href="#DejaVuSans-61"/>
      <use transform="translate(181.933594 0.015625)" xlink:href="#DejaVuSans-51"/>
     </g>
    </g>
    <g id="line2d_46">
     <path d="M 318.315625 690.392563 
L 338.315625 690.392563 
" style="fill:none;stroke:#7f7f7f;stroke-linecap:square;stroke-width:1.5;"/>
    </g>
    <g id="line2d_47"/>
    <g id="text_25">
     <!-- $\lambda=5$ -->
     <g transform="translate(346.315625 693.892563)scale(0.1 -0.1)">
      <use transform="translate(0 0.015625)" xlink:href="#DejaVuSans-Oblique-955"/>
      <use transform="translate(78.662109 0.015625)" xlink:href="#DejaVuSans-61"/>
      <use transform="translate(181.933594 0.015625)" xlink:href="#DejaVuSans-53"/>
     </g>
    </g>
    <g id="line2d_48">
     <path d="M 318.315625 705.070687 
L 338.315625 705.070687 
" style="fill:none;stroke:#bcbd22;stroke-linecap:square;stroke-width:1.5;"/>
    </g>
    <g id="line2d_49"/>
    <g id="text_26">
     <!-- $\lambda=10$ -->
     <g transform="translate(346.315625 708.570687)scale(0.1 -0.1)">
      <use transform="translate(0 0.015625)" xlink:href="#DejaVuSans-Oblique-955"/>
      <use transform="translate(78.662109 0.015625)" xlink:href="#DejaVuSans-61"/>
      <use transform="translate(181.933594 0.015625)" xlink:href="#DejaVuSans-49"/>
      <use transform="translate(245.556641 0.015625)" xlink:href="#DejaVuSans-48"/>
     </g>
    </g>
   </g>
   <g id="legend_2">
    <g id="line2d_50">
     <path d="M 561.765625 675.714438 
L 581.765625 675.714438 
" style="fill:none;stroke:#bcbd22;stroke-linecap:square;stroke-width:1.5;"/>
    </g>
    <g id="line2d_51"/>
    <g id="text_27">
     <!-- train -->
     <g transform="translate(589.765625 679.214438)scale(0.1 -0.1)">
      <use xlink:href="#DejaVuSans-116"/>
      <use x="39.208984" xlink:href="#DejaVuSans-114"/>
      <use x="80.322266" xlink:href="#DejaVuSans-97"/>
      <use x="141.601562" xlink:href="#DejaVuSans-105"/>
      <use x="169.384766" xlink:href="#DejaVuSans-110"/>
     </g>
    </g>
    <g id="line2d_52">
     <path d="M 561.765625 690.392563 
L 581.765625 690.392563 
" style="fill:none;stroke:#bcbd22;stroke-dasharray:9.6,2.4,1.5,2.4;stroke-dashoffset:0;stroke-width:1.5;"/>
    </g>
    <g id="line2d_53"/>
    <g id="text_28">
     <!-- validation -->
     <g transform="translate(589.765625 693.892563)scale(0.1 -0.1)">
      <defs>
       <path d="M 2.984375 54.6875 
L 12.5 54.6875 
L 29.59375 8.796875 
L 46.6875 54.6875 
L 56.203125 54.6875 
L 35.6875 0 
L 23.484375 0 
z
" id="DejaVuSans-118"/>
      </defs>
      <use xlink:href="#DejaVuSans-118"/>
      <use x="59.179688" xlink:href="#DejaVuSans-97"/>
      <use x="120.458984" xlink:href="#DejaVuSans-108"/>
      <use x="148.242188" xlink:href="#DejaVuSans-105"/>
      <use x="176.025391" xlink:href="#DejaVuSans-100"/>
      <use x="239.501953" xlink:href="#DejaVuSans-97"/>
      <use x="300.78125" xlink:href="#DejaVuSans-116"/>
      <use x="339.990234" xlink:href="#DejaVuSans-105"/>
      <use x="367.773438" xlink:href="#DejaVuSans-111"/>
      <use x="428.955078" xlink:href="#DejaVuSans-110"/>
     </g>
    </g>
   </g>
  </g>
 </g>
 <defs>
  <clipPath id="peeae90ea3f">
   <rect height="543.6" width="558" x="90" y="86.4"/>
  </clipPath>
 </defs>
</svg>
