<?xml version="1.0" encoding="utf-8" standalone="no"?>
<!DOCTYPE svg PUBLIC "-//W3C//DTD SVG 1.1//EN"
  "http://www.w3.org/Graphics/SVG/1.1/DTD/svg11.dtd">
<!-- Created with matplotlib (https://matplotlib.org/) -->
<svg height="660.12975pt" version="1.1" viewBox="0 0 592.125 660.12975" width="592.125pt" xmlns="http://www.w3.org/2000/svg" xmlns:xlink="http://www.w3.org/1999/xlink">
 <metadata>
  <rdf:RDF xmlns:cc="http://creativecommons.org/ns#" xmlns:dc="http://purl.org/dc/elements/1.1/" xmlns:rdf="http://www.w3.org/1999/02/22-rdf-syntax-ns#">
   <cc:Work>
    <dc:type rdf:resource="http://purl.org/dc/dcmitype/StillImage"/>
    <dc:date>2021-01-11T23:03:40.532670</dc:date>
    <dc:format>image/svg+xml</dc:format>
    <dc:creator>
     <cc:Agent>
      <dc:title>Matplotlib v3.3.2, https://matplotlib.org/</dc:title>
     </cc:Agent>
    </dc:creator>
   </cc:Work>
  </rdf:RDF>
 </metadata>
 <defs>
  <style type="text/css">*{stroke-linecap:butt;stroke-linejoin:round;}</style>
 </defs>
 <g id="figure_1">
  <g id="patch_1">
   <path d="M 0 660.12975 
L 592.125 660.12975 
L 592.125 0 
L 0 0 
z
" style="fill:none;"/>
  </g>
  <g id="axes_1">
   <g id="patch_2">
    <path d="M 26.925 582.9575 
L 584.925 582.9575 
L 584.925 39.3575 
L 26.925 39.3575 
z
" style="fill:#ffffff;"/>
   </g>
   <g id="patch_3">
    <path clip-path="url(#pa9e399b470)" d="M 86.106818 582.9575 
L 129.225 582.9575 
L 129.225 39.3575 
L 86.106818 39.3575 
z
" style="fill:#1f77b4;opacity:0.2;"/>
   </g>
   <g id="matplotlib.axis_1">
    <g id="xtick_1">
     <g id="line2d_1">
      <defs>
       <path d="M 0 0 
L 0 3.5 
" id="m3d8a135932" style="stroke:#000000;stroke-width:0.8;"/>
      </defs>
      <g>
       <use style="stroke:#000000;stroke-width:0.8;" x="52.288636" xlink:href="#m3d8a135932" y="582.9575"/>
      </g>
     </g>
     <g id="text_1">
      <!-- 0 -->
      <g transform="translate(49.107386 597.555938)scale(0.1 -0.1)">
       <defs>
        <path d="M 31.78125 66.40625 
Q 24.171875 66.40625 20.328125 58.90625 
Q 16.5 51.421875 16.5 36.375 
Q 16.5 21.390625 20.328125 13.890625 
Q 24.171875 6.390625 31.78125 6.390625 
Q 39.453125 6.390625 43.28125 13.890625 
Q 47.125 21.390625 47.125 36.375 
Q 47.125 51.421875 43.28125 58.90625 
Q 39.453125 66.40625 31.78125 66.40625 
z
M 31.78125 74.21875 
Q 44.046875 74.21875 50.515625 64.515625 
Q 56.984375 54.828125 56.984375 36.375 
Q 56.984375 17.96875 50.515625 8.265625 
Q 44.046875 -1.421875 31.78125 -1.421875 
Q 19.53125 -1.421875 13.0625 8.265625 
Q 6.59375 17.96875 6.59375 36.375 
Q 6.59375 54.828125 13.0625 64.515625 
Q 19.53125 74.21875 31.78125 74.21875 
z
" id="DejaVuSans-48"/>
       </defs>
       <use xlink:href="#DejaVuSans-48"/>
      </g>
     </g>
    </g>
    <g id="xtick_2">
     <g id="line2d_2">
      <g>
       <use style="stroke:#000000;stroke-width:0.8;" x="136.834091" xlink:href="#m3d8a135932" y="582.9575"/>
      </g>
     </g>
     <g id="text_2">
      <!-- 100 -->
      <g transform="translate(127.290341 597.555938)scale(0.1 -0.1)">
       <defs>
        <path d="M 12.40625 8.296875 
L 28.515625 8.296875 
L 28.515625 63.921875 
L 10.984375 60.40625 
L 10.984375 69.390625 
L 28.421875 72.90625 
L 38.28125 72.90625 
L 38.28125 8.296875 
L 54.390625 8.296875 
L 54.390625 0 
L 12.40625 0 
z
" id="DejaVuSans-49"/>
       </defs>
       <use xlink:href="#DejaVuSans-49"/>
       <use x="63.623047" xlink:href="#DejaVuSans-48"/>
       <use x="127.246094" xlink:href="#DejaVuSans-48"/>
      </g>
     </g>
    </g>
    <g id="xtick_3">
     <g id="line2d_3">
      <g>
       <use style="stroke:#000000;stroke-width:0.8;" x="221.379545" xlink:href="#m3d8a135932" y="582.9575"/>
      </g>
     </g>
     <g id="text_3">
      <!-- 200 -->
      <g transform="translate(211.835795 597.555938)scale(0.1 -0.1)">
       <defs>
        <path d="M 19.1875 8.296875 
L 53.609375 8.296875 
L 53.609375 0 
L 7.328125 0 
L 7.328125 8.296875 
Q 12.9375 14.109375 22.625 23.890625 
Q 32.328125 33.6875 34.8125 36.53125 
Q 39.546875 41.84375 41.421875 45.53125 
Q 43.3125 49.21875 43.3125 52.78125 
Q 43.3125 58.59375 39.234375 62.25 
Q 35.15625 65.921875 28.609375 65.921875 
Q 23.96875 65.921875 18.8125 64.3125 
Q 13.671875 62.703125 7.8125 59.421875 
L 7.8125 69.390625 
Q 13.765625 71.78125 18.9375 73 
Q 24.125 74.21875 28.421875 74.21875 
Q 39.75 74.21875 46.484375 68.546875 
Q 53.21875 62.890625 53.21875 53.421875 
Q 53.21875 48.921875 51.53125 44.890625 
Q 49.859375 40.875 45.40625 35.40625 
Q 44.1875 33.984375 37.640625 27.21875 
Q 31.109375 20.453125 19.1875 8.296875 
z
" id="DejaVuSans-50"/>
       </defs>
       <use xlink:href="#DejaVuSans-50"/>
       <use x="63.623047" xlink:href="#DejaVuSans-48"/>
       <use x="127.246094" xlink:href="#DejaVuSans-48"/>
      </g>
     </g>
    </g>
    <g id="xtick_4">
     <g id="line2d_4">
      <g>
       <use style="stroke:#000000;stroke-width:0.8;" x="305.925" xlink:href="#m3d8a135932" y="582.9575"/>
      </g>
     </g>
     <g id="text_4">
      <!-- 300 -->
      <g transform="translate(296.38125 597.555938)scale(0.1 -0.1)">
       <defs>
        <path d="M 40.578125 39.3125 
Q 47.65625 37.796875 51.625 33 
Q 55.609375 28.21875 55.609375 21.1875 
Q 55.609375 10.40625 48.1875 4.484375 
Q 40.765625 -1.421875 27.09375 -1.421875 
Q 22.515625 -1.421875 17.65625 -0.515625 
Q 12.796875 0.390625 7.625 2.203125 
L 7.625 11.71875 
Q 11.71875 9.328125 16.59375 8.109375 
Q 21.484375 6.890625 26.8125 6.890625 
Q 36.078125 6.890625 40.9375 10.546875 
Q 45.796875 14.203125 45.796875 21.1875 
Q 45.796875 27.640625 41.28125 31.265625 
Q 36.765625 34.90625 28.71875 34.90625 
L 20.21875 34.90625 
L 20.21875 43.015625 
L 29.109375 43.015625 
Q 36.375 43.015625 40.234375 45.921875 
Q 44.09375 48.828125 44.09375 54.296875 
Q 44.09375 59.90625 40.109375 62.90625 
Q 36.140625 65.921875 28.71875 65.921875 
Q 24.65625 65.921875 20.015625 65.03125 
Q 15.375 64.15625 9.8125 62.3125 
L 9.8125 71.09375 
Q 15.4375 72.65625 20.34375 73.4375 
Q 25.25 74.21875 29.59375 74.21875 
Q 40.828125 74.21875 47.359375 69.109375 
Q 53.90625 64.015625 53.90625 55.328125 
Q 53.90625 49.265625 50.4375 45.09375 
Q 46.96875 40.921875 40.578125 39.3125 
z
" id="DejaVuSans-51"/>
       </defs>
       <use xlink:href="#DejaVuSans-51"/>
       <use x="63.623047" xlink:href="#DejaVuSans-48"/>
       <use x="127.246094" xlink:href="#DejaVuSans-48"/>
      </g>
     </g>
    </g>
    <g id="xtick_5">
     <g id="line2d_5">
      <g>
       <use style="stroke:#000000;stroke-width:0.8;" x="390.470455" xlink:href="#m3d8a135932" y="582.9575"/>
      </g>
     </g>
     <g id="text_5">
      <!-- 400 -->
      <g transform="translate(380.926705 597.555938)scale(0.1 -0.1)">
       <defs>
        <path d="M 37.796875 64.3125 
L 12.890625 25.390625 
L 37.796875 25.390625 
z
M 35.203125 72.90625 
L 47.609375 72.90625 
L 47.609375 25.390625 
L 58.015625 25.390625 
L 58.015625 17.1875 
L 47.609375 17.1875 
L 47.609375 0 
L 37.796875 0 
L 37.796875 17.1875 
L 4.890625 17.1875 
L 4.890625 26.703125 
z
" id="DejaVuSans-52"/>
       </defs>
       <use xlink:href="#DejaVuSans-52"/>
       <use x="63.623047" xlink:href="#DejaVuSans-48"/>
       <use x="127.246094" xlink:href="#DejaVuSans-48"/>
      </g>
     </g>
    </g>
    <g id="xtick_6">
     <g id="line2d_6">
      <g>
       <use style="stroke:#000000;stroke-width:0.8;" x="475.015909" xlink:href="#m3d8a135932" y="582.9575"/>
      </g>
     </g>
     <g id="text_6">
      <!-- 500 -->
      <g transform="translate(465.472159 597.555938)scale(0.1 -0.1)">
       <defs>
        <path d="M 10.796875 72.90625 
L 49.515625 72.90625 
L 49.515625 64.59375 
L 19.828125 64.59375 
L 19.828125 46.734375 
Q 21.96875 47.46875 24.109375 47.828125 
Q 26.265625 48.1875 28.421875 48.1875 
Q 40.625 48.1875 47.75 41.5 
Q 54.890625 34.8125 54.890625 23.390625 
Q 54.890625 11.625 47.5625 5.09375 
Q 40.234375 -1.421875 26.90625 -1.421875 
Q 22.3125 -1.421875 17.546875 -0.640625 
Q 12.796875 0.140625 7.71875 1.703125 
L 7.71875 11.625 
Q 12.109375 9.234375 16.796875 8.0625 
Q 21.484375 6.890625 26.703125 6.890625 
Q 35.15625 6.890625 40.078125 11.328125 
Q 45.015625 15.765625 45.015625 23.390625 
Q 45.015625 31 40.078125 35.4375 
Q 35.15625 39.890625 26.703125 39.890625 
Q 22.75 39.890625 18.8125 39.015625 
Q 14.890625 38.140625 10.796875 36.28125 
z
" id="DejaVuSans-53"/>
       </defs>
       <use xlink:href="#DejaVuSans-53"/>
       <use x="63.623047" xlink:href="#DejaVuSans-48"/>
       <use x="127.246094" xlink:href="#DejaVuSans-48"/>
      </g>
     </g>
    </g>
    <g id="xtick_7">
     <g id="line2d_7">
      <g>
       <use style="stroke:#000000;stroke-width:0.8;" x="559.561364" xlink:href="#m3d8a135932" y="582.9575"/>
      </g>
     </g>
     <g id="text_7">
      <!-- 600 -->
      <g transform="translate(550.017614 597.555938)scale(0.1 -0.1)">
       <defs>
        <path d="M 33.015625 40.375 
Q 26.375 40.375 22.484375 35.828125 
Q 18.609375 31.296875 18.609375 23.390625 
Q 18.609375 15.53125 22.484375 10.953125 
Q 26.375 6.390625 33.015625 6.390625 
Q 39.65625 6.390625 43.53125 10.953125 
Q 47.40625 15.53125 47.40625 23.390625 
Q 47.40625 31.296875 43.53125 35.828125 
Q 39.65625 40.375 33.015625 40.375 
z
M 52.59375 71.296875 
L 52.59375 62.3125 
Q 48.875 64.0625 45.09375 64.984375 
Q 41.3125 65.921875 37.59375 65.921875 
Q 27.828125 65.921875 22.671875 59.328125 
Q 17.53125 52.734375 16.796875 39.40625 
Q 19.671875 43.65625 24.015625 45.921875 
Q 28.375 48.1875 33.59375 48.1875 
Q 44.578125 48.1875 50.953125 41.515625 
Q 57.328125 34.859375 57.328125 23.390625 
Q 57.328125 12.15625 50.6875 5.359375 
Q 44.046875 -1.421875 33.015625 -1.421875 
Q 20.359375 -1.421875 13.671875 8.265625 
Q 6.984375 17.96875 6.984375 36.375 
Q 6.984375 53.65625 15.1875 63.9375 
Q 23.390625 74.21875 37.203125 74.21875 
Q 40.921875 74.21875 44.703125 73.484375 
Q 48.484375 72.75 52.59375 71.296875 
z
" id="DejaVuSans-54"/>
       </defs>
       <use xlink:href="#DejaVuSans-54"/>
       <use x="63.623047" xlink:href="#DejaVuSans-48"/>
       <use x="127.246094" xlink:href="#DejaVuSans-48"/>
      </g>
     </g>
    </g>
    <g id="text_8">
     <!-- Epochs -->
     <g transform="translate(288.009375 611.234063)scale(0.1 -0.1)">
      <defs>
       <path d="M 9.8125 72.90625 
L 55.90625 72.90625 
L 55.90625 64.59375 
L 19.671875 64.59375 
L 19.671875 43.015625 
L 54.390625 43.015625 
L 54.390625 34.71875 
L 19.671875 34.71875 
L 19.671875 8.296875 
L 56.78125 8.296875 
L 56.78125 0 
L 9.8125 0 
z
" id="DejaVuSans-69"/>
       <path d="M 18.109375 8.203125 
L 18.109375 -20.796875 
L 9.078125 -20.796875 
L 9.078125 54.6875 
L 18.109375 54.6875 
L 18.109375 46.390625 
Q 20.953125 51.265625 25.265625 53.625 
Q 29.59375 56 35.59375 56 
Q 45.5625 56 51.78125 48.09375 
Q 58.015625 40.1875 58.015625 27.296875 
Q 58.015625 14.40625 51.78125 6.484375 
Q 45.5625 -1.421875 35.59375 -1.421875 
Q 29.59375 -1.421875 25.265625 0.953125 
Q 20.953125 3.328125 18.109375 8.203125 
z
M 48.6875 27.296875 
Q 48.6875 37.203125 44.609375 42.84375 
Q 40.53125 48.484375 33.40625 48.484375 
Q 26.265625 48.484375 22.1875 42.84375 
Q 18.109375 37.203125 18.109375 27.296875 
Q 18.109375 17.390625 22.1875 11.75 
Q 26.265625 6.109375 33.40625 6.109375 
Q 40.53125 6.109375 44.609375 11.75 
Q 48.6875 17.390625 48.6875 27.296875 
z
" id="DejaVuSans-112"/>
       <path d="M 30.609375 48.390625 
Q 23.390625 48.390625 19.1875 42.75 
Q 14.984375 37.109375 14.984375 27.296875 
Q 14.984375 17.484375 19.15625 11.84375 
Q 23.34375 6.203125 30.609375 6.203125 
Q 37.796875 6.203125 41.984375 11.859375 
Q 46.1875 17.53125 46.1875 27.296875 
Q 46.1875 37.015625 41.984375 42.703125 
Q 37.796875 48.390625 30.609375 48.390625 
z
M 30.609375 56 
Q 42.328125 56 49.015625 48.375 
Q 55.71875 40.765625 55.71875 27.296875 
Q 55.71875 13.875 49.015625 6.21875 
Q 42.328125 -1.421875 30.609375 -1.421875 
Q 18.84375 -1.421875 12.171875 6.21875 
Q 5.515625 13.875 5.515625 27.296875 
Q 5.515625 40.765625 12.171875 48.375 
Q 18.84375 56 30.609375 56 
z
" id="DejaVuSans-111"/>
       <path d="M 48.78125 52.59375 
L 48.78125 44.1875 
Q 44.96875 46.296875 41.140625 47.34375 
Q 37.3125 48.390625 33.40625 48.390625 
Q 24.65625 48.390625 19.8125 42.84375 
Q 14.984375 37.3125 14.984375 27.296875 
Q 14.984375 17.28125 19.8125 11.734375 
Q 24.65625 6.203125 33.40625 6.203125 
Q 37.3125 6.203125 41.140625 7.25 
Q 44.96875 8.296875 48.78125 10.40625 
L 48.78125 2.09375 
Q 45.015625 0.34375 40.984375 -0.53125 
Q 36.96875 -1.421875 32.421875 -1.421875 
Q 20.0625 -1.421875 12.78125 6.34375 
Q 5.515625 14.109375 5.515625 27.296875 
Q 5.515625 40.671875 12.859375 48.328125 
Q 20.21875 56 33.015625 56 
Q 37.15625 56 41.109375 55.140625 
Q 45.0625 54.296875 48.78125 52.59375 
z
" id="DejaVuSans-99"/>
       <path d="M 54.890625 33.015625 
L 54.890625 0 
L 45.90625 0 
L 45.90625 32.71875 
Q 45.90625 40.484375 42.875 44.328125 
Q 39.84375 48.1875 33.796875 48.1875 
Q 26.515625 48.1875 22.3125 43.546875 
Q 18.109375 38.921875 18.109375 30.90625 
L 18.109375 0 
L 9.078125 0 
L 9.078125 75.984375 
L 18.109375 75.984375 
L 18.109375 46.1875 
Q 21.34375 51.125 25.703125 53.5625 
Q 30.078125 56 35.796875 56 
Q 45.21875 56 50.046875 50.171875 
Q 54.890625 44.34375 54.890625 33.015625 
z
" id="DejaVuSans-104"/>
       <path d="M 44.28125 53.078125 
L 44.28125 44.578125 
Q 40.484375 46.53125 36.375 47.5 
Q 32.28125 48.484375 27.875 48.484375 
Q 21.1875 48.484375 17.84375 46.4375 
Q 14.5 44.390625 14.5 40.28125 
Q 14.5 37.15625 16.890625 35.375 
Q 19.28125 33.59375 26.515625 31.984375 
L 29.59375 31.296875 
Q 39.15625 29.25 43.1875 25.515625 
Q 47.21875 21.78125 47.21875 15.09375 
Q 47.21875 7.46875 41.1875 3.015625 
Q 35.15625 -1.421875 24.609375 -1.421875 
Q 20.21875 -1.421875 15.453125 -0.5625 
Q 10.6875 0.296875 5.421875 2 
L 5.421875 11.28125 
Q 10.40625 8.6875 15.234375 7.390625 
Q 20.0625 6.109375 24.8125 6.109375 
Q 31.15625 6.109375 34.5625 8.28125 
Q 37.984375 10.453125 37.984375 14.40625 
Q 37.984375 18.0625 35.515625 20.015625 
Q 33.0625 21.96875 24.703125 23.78125 
L 21.578125 24.515625 
Q 13.234375 26.265625 9.515625 29.90625 
Q 5.8125 33.546875 5.8125 39.890625 
Q 5.8125 47.609375 11.28125 51.796875 
Q 16.75 56 26.8125 56 
Q 31.78125 56 36.171875 55.265625 
Q 40.578125 54.546875 44.28125 53.078125 
z
" id="DejaVuSans-115"/>
      </defs>
      <use xlink:href="#DejaVuSans-69"/>
      <use x="63.183594" xlink:href="#DejaVuSans-112"/>
      <use x="126.660156" xlink:href="#DejaVuSans-111"/>
      <use x="187.841797" xlink:href="#DejaVuSans-99"/>
      <use x="242.822266" xlink:href="#DejaVuSans-104"/>
      <use x="306.201172" xlink:href="#DejaVuSans-115"/>
     </g>
    </g>
   </g>
   <g id="matplotlib.axis_2">
    <g id="ytick_1">
     <g id="line2d_8">
      <defs>
       <path d="M 0 0 
L -3.5 0 
" id="ma2cf1cc172" style="stroke:#000000;stroke-width:0.8;"/>
      </defs>
      <g>
       <use style="stroke:#000000;stroke-width:0.8;" x="26.925" xlink:href="#ma2cf1cc172" y="558.248409"/>
      </g>
     </g>
     <g id="text_9">
      <!-- 0 -->
      <g transform="translate(13.5625 562.047628)scale(0.1 -0.1)">
       <use xlink:href="#DejaVuSans-48"/>
      </g>
     </g>
    </g>
    <g id="ytick_2">
     <g id="line2d_9">
      <g>
       <use style="stroke:#000000;stroke-width:0.8;" x="26.925" xlink:href="#ma2cf1cc172" y="485.035612"/>
      </g>
     </g>
     <g id="text_10">
      <!-- 10 -->
      <g transform="translate(7.2 488.83483)scale(0.1 -0.1)">
       <use xlink:href="#DejaVuSans-49"/>
       <use x="63.623047" xlink:href="#DejaVuSans-48"/>
      </g>
     </g>
    </g>
    <g id="ytick_3">
     <g id="line2d_10">
      <g>
       <use style="stroke:#000000;stroke-width:0.8;" x="26.925" xlink:href="#ma2cf1cc172" y="411.822814"/>
      </g>
     </g>
     <g id="text_11">
      <!-- 20 -->
      <g transform="translate(7.2 415.622033)scale(0.1 -0.1)">
       <use xlink:href="#DejaVuSans-50"/>
       <use x="63.623047" xlink:href="#DejaVuSans-48"/>
      </g>
     </g>
    </g>
    <g id="ytick_4">
     <g id="line2d_11">
      <g>
       <use style="stroke:#000000;stroke-width:0.8;" x="26.925" xlink:href="#ma2cf1cc172" y="338.610017"/>
      </g>
     </g>
     <g id="text_12">
      <!-- 30 -->
      <g transform="translate(7.2 342.409235)scale(0.1 -0.1)">
       <use xlink:href="#DejaVuSans-51"/>
       <use x="63.623047" xlink:href="#DejaVuSans-48"/>
      </g>
     </g>
    </g>
    <g id="ytick_5">
     <g id="line2d_12">
      <g>
       <use style="stroke:#000000;stroke-width:0.8;" x="26.925" xlink:href="#ma2cf1cc172" y="265.397219"/>
      </g>
     </g>
     <g id="text_13">
      <!-- 40 -->
      <g transform="translate(7.2 269.196438)scale(0.1 -0.1)">
       <use xlink:href="#DejaVuSans-52"/>
       <use x="63.623047" xlink:href="#DejaVuSans-48"/>
      </g>
     </g>
    </g>
    <g id="ytick_6">
     <g id="line2d_13">
      <g>
       <use style="stroke:#000000;stroke-width:0.8;" x="26.925" xlink:href="#ma2cf1cc172" y="192.184422"/>
      </g>
     </g>
     <g id="text_14">
      <!-- 50 -->
      <g transform="translate(7.2 195.98364)scale(0.1 -0.1)">
       <use xlink:href="#DejaVuSans-53"/>
       <use x="63.623047" xlink:href="#DejaVuSans-48"/>
      </g>
     </g>
    </g>
    <g id="ytick_7">
     <g id="line2d_14">
      <g>
       <use style="stroke:#000000;stroke-width:0.8;" x="26.925" xlink:href="#ma2cf1cc172" y="118.971624"/>
      </g>
     </g>
     <g id="text_15">
      <!-- 60 -->
      <g transform="translate(7.2 122.770843)scale(0.1 -0.1)">
       <use xlink:href="#DejaVuSans-54"/>
       <use x="63.623047" xlink:href="#DejaVuSans-48"/>
      </g>
     </g>
    </g>
    <g id="ytick_8">
     <g id="line2d_15">
      <g>
       <use style="stroke:#000000;stroke-width:0.8;" x="26.925" xlink:href="#ma2cf1cc172" y="45.758827"/>
      </g>
     </g>
     <g id="text_16">
      <!-- 70 -->
      <g transform="translate(7.2 49.558045)scale(0.1 -0.1)">
       <defs>
        <path d="M 8.203125 72.90625 
L 55.078125 72.90625 
L 55.078125 68.703125 
L 28.609375 0 
L 18.3125 0 
L 43.21875 64.59375 
L 8.203125 64.59375 
z
" id="DejaVuSans-55"/>
       </defs>
       <use xlink:href="#DejaVuSans-55"/>
       <use x="63.623047" xlink:href="#DejaVuSans-48"/>
      </g>
     </g>
    </g>
   </g>
   <g id="line2d_16">
    <path clip-path="url(#pa9e399b470)" d="M 52.288636 464.530215 
L 53.979545 467.327933 
L 55.670455 470.687739 
L 57.361364 474.257854 
L 62.434091 485.814932 
L 64.970455 490.735205 
L 67.506818 495.230094 
L 70.043182 499.065862 
L 73.425 503.712349 
L 77.652273 508.932314 
L 82.725 515.0103 
L 85.261364 517.518377 
L 92.870455 524.580375 
L 95.406818 526.979967 
L 97.097727 528.318495 
L 100.479545 530.707509 
L 103.861364 532.753281 
L 106.397727 533.960706 
L 108.934091 534.893802 
L 111.470455 535.597301 
L 114.852273 536.267492 
L 119.079545 536.872592 
L 124.997727 537.457321 
L 131.761364 537.899414 
L 149.515909 538.67807 
L 162.197727 539.364487 
L 166.425 539.515958 
L 177.415909 539.751259 
L 222.225 540.860837 
L 267.034091 541.500324 
L 315.225 541.993096 
L 358.343182 542.243855 
L 407.379545 542.337708 
L 449.652273 542.442208 
L 452.188636 542.985091 
L 454.725 543.755215 
L 458.106818 545.073172 
L 463.179545 547.398337 
L 468.252273 549.656481 
L 472.479545 551.227394 
L 476.706818 552.479563 
L 480.934091 553.434023 
L 485.161364 554.149042 
L 490.234091 554.783938 
L 496.997727 555.380711 
L 507.988636 556.082665 
L 526.588636 556.993875 
L 549.415909 557.900987 
L 559.561364 558.248409 
L 559.561364 558.248409 
" style="fill:none;stroke:#1f77b4;stroke-linecap:square;stroke-width:1.5;"/>
   </g>
   <g id="line2d_17">
    <path clip-path="url(#pa9e399b470)" d="M 52.288636 367.104229 
L 53.979545 369.048295 
L 56.515909 373.864515 
L 58.206818 377.751002 
L 62.434091 387.328937 
L 64.125 391.116892 
L 64.970455 392.989873 
L 66.661364 395.932128 
L 69.197727 400.15235 
L 70.043182 401.537825 
L 73.425 406.31083 
L 75.115909 408.986619 
L 76.806818 411.179928 
L 78.497727 414.467654 
L 81.879545 422.172099 
L 83.570455 426.060446 
L 85.261364 429.620321 
L 86.106818 431.495433 
L 87.797727 434.406937 
L 88.643182 435.694632 
L 90.334091 437.421234 
L 91.179545 438.187774 
L 94.561364 440.250519 
L 95.406818 440.471188 
L 96.252273 440.934464 
L 97.943182 440.977252 
L 98.788636 441.391374 
L 99.634091 441.380292 
L 100.479545 440.98606 
L 101.325 441.054277 
L 102.170455 440.849719 
L 103.861364 440.165516 
L 104.706818 440.20799 
L 105.552273 440.01608 
L 107.243182 439.442345 
L 108.934091 439.240453 
L 109.779545 438.962798 
L 111.470455 438.622874 
L 114.006818 438.157492 
L 126.688636 435.856418 
L 130.915909 435.376177 
L 132.606818 435.315577 
L 140.215909 434.889078 
L 145.288636 434.740299 
L 150.361364 434.578038 
L 168.961364 434.299625 
L 221.379545 434.280158 
L 249.279545 434.295848 
L 322.834091 434.159404 
L 461.488636 433.962095 
L 559.561364 433.898914 
L 559.561364 433.898914 
" style="fill:none;stroke:#ff7f0e;stroke-linecap:square;stroke-width:1.5;"/>
   </g>
   <g id="line2d_18">
    <path clip-path="url(#pa9e399b470)" d="M 52.288636 367.104229 
L 53.134091 368.510312 
L 53.979545 360.610963 
L 55.670455 375.090081 
L 56.515909 378.597553 
L 57.361364 379.406965 
L 58.206818 378.847832 
L 59.052273 378.462938 
L 59.897727 379.164873 
L 60.743182 381.021027 
L 63.279545 387.571879 
L 64.125 387.949789 
L 64.970455 386.918951 
L 65.815909 385.018196 
L 67.506818 379.339575 
L 68.352273 377.049247 
L 69.197727 374.05319 
L 70.043182 369.770856 
L 70.888636 364.645159 
L 71.734091 358.068806 
L 73.425 339.988937 
L 74.270455 329.665473 
L 75.961364 305.206766 
L 78.497727 265.138678 
L 79.343182 250.746899 
L 81.879545 214.134439 
L 86.106818 151.241697 
L 87.797727 132.334914 
L 89.488636 113.230923 
L 92.025 88.565275 
L 92.870455 82.106475 
L 93.715909 76.908845 
L 94.561364 72.89261 
L 95.406818 69.639507 
L 96.252273 67.013133 
L 97.097727 65.205026 
L 97.943182 64.265433 
L 98.788636 64.066591 
L 99.634091 64.249655 
L 100.479545 64.828373 
L 102.170455 66.783547 
L 103.015909 68.312815 
L 103.861364 70.57932 
L 105.552273 77.00532 
L 107.243182 84.580186 
L 109.779545 96.562434 
L 112.315909 107.921854 
L 117.388636 128.682825 
L 121.615909 144.211511 
L 124.152273 153.063941 
L 127.534091 163.453432 
L 130.070455 170.381037 
L 135.988636 185.019986 
L 138.525 190.466045 
L 141.061364 195.394222 
L 143.597727 199.82724 
L 146.134091 203.640148 
L 148.670455 207.125919 
L 150.361364 209.207514 
L 153.743182 212.807327 
L 156.279545 215.27281 
L 158.815909 217.469816 
L 162.197727 220.042747 
L 164.734091 221.687778 
L 173.188636 226.468854 
L 179.106818 230.128647 
L 196.015909 241.493815 
L 200.243182 244.027951 
L 207.852273 248.227225 
L 217.997727 253.432748 
L 235.752273 262.008588 
L 244.206818 265.799951 
L 257.734091 271.69126 
L 272.106818 277.580936 
L 279.715909 280.490877 
L 291.552273 284.820832 
L 305.079545 289.481249 
L 315.225 292.791427 
L 328.752273 296.966739 
L 346.506818 302.114994 
L 359.188636 305.600333 
L 376.097727 310.019867 
L 390.470455 313.565236 
L 404.843182 316.912859 
L 423.443182 320.959228 
L 443.734091 325.138777 
L 460.643182 328.44573 
L 481.779545 332.385408 
L 503.761364 336.301568 
L 544.343182 343.134553 
L 559.561364 345.48669 
L 559.561364 345.48669 
" style="fill:none;stroke:#2ca02c;stroke-linecap:square;stroke-width:1.5;"/>
   </g>
   <g id="line2d_19">
    <path clip-path="url(#pa9e399b470)" d="M 52.288636 367.104229 
L 53.134091 368.976149 
L 53.979545 359.472236 
L 54.825 369.376911 
L 55.670455 377.790475 
L 56.515909 379.422914 
L 57.361364 377.423275 
L 58.206818 374.665249 
L 59.052273 373.955997 
L 59.897727 375.953629 
L 60.743182 379.730132 
L 62.434091 388.585182 
L 63.279545 391.823871 
L 64.125 394.295895 
L 64.970455 396.007973 
L 65.815909 397.218768 
L 66.661364 397.965586 
L 70.043182 400.449256 
L 70.888636 400.190906 
L 71.734091 398.868068 
L 72.579545 396.656963 
L 74.270455 390.504278 
L 75.115909 386.782544 
L 76.806818 375.88603 
L 77.652273 369.538244 
L 78.497727 362.248191 
L 80.188636 345.033198 
L 81.034091 340.034411 
L 81.879545 333.994636 
L 82.725 325.47213 
L 83.570455 319.110558 
L 84.415909 311.198577 
L 91.179545 238.629147 
L 92.025 231.265372 
L 92.870455 225.021989 
L 93.715909 220.09571 
L 94.561364 216.406181 
L 95.406818 214.621557 
L 96.252273 214.303538 
L 97.097727 214.805797 
L 97.943182 216.02224 
L 98.788636 218.547585 
L 99.634091 222.353998 
L 102.170455 235.877098 
L 106.397727 260.175697 
L 108.934091 272.780712 
L 109.779545 276.531994 
L 111.470455 282.595752 
L 113.161364 288.145591 
L 114.006818 290.553486 
L 115.697727 294.184656 
L 117.388636 297.61734 
L 118.234091 299.016745 
L 120.770455 302.428827 
L 121.615909 303.340613 
L 123.306818 304.643703 
L 124.997727 305.739432 
L 126.688636 306.672278 
L 127.534091 307.309943 
L 130.070455 309.759671 
L 131.761364 311.59976 
L 135.988636 316.591125 
L 137.679545 318.525363 
L 141.906818 322.782291 
L 145.288636 325.484359 
L 149.515909 328.061979 
L 160.506818 334.30988 
L 170.652273 340.335887 
L 176.570455 343.395774 
L 182.488636 346.178688 
L 190.097727 349.393836 
L 204.470455 355.264089 
L 212.079545 358.056714 
L 223.070455 361.756253 
L 232.370455 364.675521 
L 242.515909 367.627535 
L 260.270455 372.435143 
L 271.261364 375.093652 
L 282.252273 377.574607 
L 294.088636 380.045896 
L 310.152273 383.127987 
L 331.288636 386.760762 
L 349.888636 389.605179 
L 363.415909 391.458209 
L 388.779545 394.656281 
L 408.225 396.816133 
L 429.361364 398.886682 
L 463.179545 401.750331 
L 483.470455 403.264824 
L 508.834091 404.987254 
L 537.579545 406.724958 
L 559.561364 407.922214 
L 559.561364 407.922214 
" style="fill:none;stroke:#d62728;stroke-linecap:square;stroke-width:1.5;"/>
   </g>
   <g id="line2d_20">
    <path clip-path="url(#pa9e399b470)" d="M 52.288636 367.104229 
L 53.134091 370.924646 
L 53.979545 366.016055 
L 54.825 366.2828 
L 55.670455 368.622799 
L 56.515909 371.374254 
L 57.361364 372.693617 
L 58.206818 372.20238 
L 59.052273 370.847406 
L 59.897727 369.912196 
L 60.743182 370.184343 
L 61.588636 371.447963 
L 63.279545 374.879896 
L 64.125 376.032066 
L 64.970455 376.55265 
L 66.661364 376.854743 
L 67.506818 377.484248 
L 68.352273 378.723691 
L 71.734091 385.355844 
L 72.579545 386.265834 
L 73.425 386.841146 
L 75.115909 388.623704 
L 76.806818 391.165195 
L 78.497727 393.680233 
L 79.343182 394.792992 
L 80.188636 396.203887 
L 81.034091 397.895743 
L 82.725 402.471914 
L 83.570455 404.683433 
L 84.415909 406.286663 
L 85.261364 407.361265 
L 86.952273 408.462016 
L 87.797727 410.269522 
L 88.643182 409.826651 
L 89.488636 409.615035 
L 90.334091 408.518574 
L 91.179545 405.906887 
L 92.025 404.72667 
L 93.715909 399.54619 
L 94.561364 398.882146 
L 95.406818 396.406378 
L 97.097727 394.69246 
L 97.943182 391.645015 
L 98.788636 391.242053 
L 99.634091 389.743837 
L 100.479545 387.193936 
L 101.325 386.425725 
L 102.170455 385.279628 
L 103.015909 383.244716 
L 104.706818 381.802841 
L 105.552273 380.263954 
L 106.397727 379.225223 
L 107.243182 378.692929 
L 108.088636 377.180826 
L 108.934091 377.006771 
L 110.625 375.863242 
L 111.470455 376.067553 
L 112.315909 376.404655 
L 113.161364 376.90319 
L 114.006818 377.756493 
L 114.852273 378.405703 
L 116.543182 380.473615 
L 117.388636 381.073682 
L 118.234091 382.290309 
L 119.079545 382.965426 
L 119.925 383.31599 
L 120.770455 384.144231 
L 122.461364 385.222374 
L 123.306818 385.987063 
L 124.152273 386.456384 
L 127.534091 389.578915 
L 130.915909 392.805869 
L 131.761364 393.546575 
L 132.606818 394.478088 
L 133.452273 394.982885 
L 134.297727 395.891851 
L 137.679545 398.169805 
L 139.370455 399.237241 
L 140.215909 399.545743 
L 141.906818 400.571403 
L 142.752273 400.927839 
L 143.597727 401.48401 
L 145.288636 402.280757 
L 146.134091 402.838287 
L 146.979545 403.13621 
L 148.670455 404.061843 
L 152.897727 405.756192 
L 153.743182 405.984477 
L 155.434091 406.5968 
L 164.734091 409.746639 
L 167.270455 410.452562 
L 173.188636 411.827155 
L 180.797727 413.188685 
L 197.706818 415.242734 
L 206.161364 416.087996 
L 212.079545 416.562895 
L 212.925 416.898055 
L 213.770455 416.741588 
L 214.615909 416.989557 
L 215.461364 417.096682 
L 216.306818 417.031649 
L 217.152273 417.308982 
L 218.843182 417.365821 
L 219.688636 417.58136 
L 220.534091 417.525875 
L 222.225 417.81897 
L 223.070455 417.773519 
L 223.915909 417.963747 
L 228.143182 418.236535 
L 228.988636 418.37465 
L 230.679545 418.458488 
L 233.215909 418.67789 
L 239.134091 419.141186 
L 245.052273 419.520376 
L 250.970455 419.906232 
L 254.352273 420.104348 
L 257.734091 420.324304 
L 268.725 420.882538 
L 274.643182 421.198415 
L 294.934091 421.996031 
L 318.606818 422.809749 
L 356.652273 423.749642 
L 385.397727 424.248062 
L 403.997727 424.492032 
L 456.415909 425.006305 
L 494.461364 425.25291 
L 559.561364 425.544924 
L 559.561364 425.544924 
" style="fill:none;stroke:#9467bd;stroke-linecap:square;stroke-width:1.5;"/>
   </g>
   <g id="line2d_21">
    <path clip-path="url(#pa9e399b470)" d="M 52.288636 367.104229 
L 53.134091 371.898509 
L 53.979545 366.475043 
L 54.825 364.961826 
L 55.670455 366.654137 
L 56.515909 369.300835 
L 57.361364 371.437897 
L 58.206818 372.203351 
L 59.052273 371.561548 
L 59.897727 370.470326 
L 60.743182 369.562378 
L 61.588636 369.157452 
L 62.434091 369.658369 
L 63.279545 370.852258 
L 64.125 372.32492 
L 64.970455 373.573564 
L 65.815909 374.272209 
L 66.661364 374.380822 
L 67.506818 374.067025 
L 68.352273 373.617758 
L 69.197727 373.412979 
L 70.043182 373.688519 
L 70.888636 374.491025 
L 73.425 377.741433 
L 74.270455 378.45336 
L 75.115909 378.861352 
L 76.806818 379.366482 
L 77.652273 379.873861 
L 78.497727 380.710271 
L 82.725 386.125548 
L 84.415909 386.850092 
L 85.261364 387.118592 
L 86.106818 387.518359 
L 86.952273 388.341488 
L 87.797727 389.552882 
L 90.334091 393.740955 
L 92.025 395.899797 
L 92.870455 397.278798 
L 94.561364 400.965661 
L 96.252273 404.777758 
L 97.097727 408.840137 
L 97.943182 411.366969 
L 98.788636 413.107511 
L 99.634091 413.468996 
L 100.479545 412.595873 
L 101.325 414.050124 
L 102.170455 413.733939 
L 103.015909 412.718665 
L 103.861364 413.016556 
L 104.706818 412.293593 
L 105.552273 410.316581 
L 106.397727 410.579709 
L 107.243182 409.454654 
L 108.088636 407.550572 
L 109.779545 405.361164 
L 110.625 403.268185 
L 111.470455 403.536153 
L 112.315909 403.56849 
L 113.161364 402.618031 
L 114.006818 402.865622 
L 114.852273 403.286101 
L 115.697727 403.306931 
L 116.543182 403.545622 
L 118.234091 404.204404 
L 119.079545 404.171801 
L 119.925 404.713484 
L 120.770455 405.026139 
L 121.615909 404.725641 
L 123.306818 406.373045 
L 124.152273 406.353544 
L 124.997727 406.794749 
L 125.843182 407.409654 
L 126.688636 407.312291 
L 127.534091 407.494441 
L 129.225 408.418258 
L 130.070455 408.734632 
L 130.915909 409.445674 
L 131.761364 409.952364 
L 132.606818 410.262012 
L 134.297727 411.562206 
L 135.143182 411.726218 
L 136.834091 412.561693 
L 137.679545 412.633632 
L 139.370455 413.38233 
L 140.215909 413.402247 
L 141.061364 413.607146 
L 141.906818 414.006723 
L 142.752273 414.119127 
L 143.597727 414.352413 
L 144.443182 414.738223 
L 146.134091 414.976042 
L 146.979545 415.292964 
L 149.515909 415.792072 
L 163.888636 418.548441 
L 175.725 419.900502 
L 185.870455 420.841824 
L 199.397727 421.679565 
L 214.615909 422.338302 
L 234.906818 422.941498 
L 256.888636 423.363603 
L 294.934091 423.824895 
L 343.125 424.152911 
L 406.534091 424.353051 
L 524.897727 424.531193 
L 559.561364 424.555955 
L 559.561364 424.555955 
" style="fill:none;stroke:#8c564b;stroke-linecap:square;stroke-width:1.5;"/>
   </g>
   <g id="line2d_22">
    <path clip-path="url(#pa9e399b470)" d="M 52.288636 367.104229 
L 53.134091 372.281997 
L 53.979545 366.8401 
L 54.825 365.11442 
L 55.670455 366.511611 
L 57.361364 370.419032 
L 58.206818 371.461865 
L 59.052273 371.309894 
L 59.897727 370.549066 
L 61.588636 368.803112 
L 62.434091 368.570291 
L 63.279545 369.119601 
L 65.815909 372.47011 
L 66.661364 373.10347 
L 67.506818 373.295842 
L 68.352273 373.142134 
L 70.043182 372.602864 
L 70.888636 372.603878 
L 71.734091 372.954933 
L 72.579545 373.642478 
L 74.270455 375.290442 
L 75.115909 375.911972 
L 75.961364 376.280621 
L 76.806818 376.426593 
L 78.497727 376.46856 
L 79.343182 376.642995 
L 80.188636 377.036184 
L 81.034091 377.748764 
L 83.570455 380.581763 
L 84.415909 381.220168 
L 86.952273 382.15356 
L 87.797727 382.869044 
L 89.488636 385.013501 
L 90.334091 385.836539 
L 91.179545 386.348279 
L 92.870455 387.066797 
L 93.715909 387.591973 
L 95.406818 389.184035 
L 97.097727 391.05418 
L 97.943182 392.217817 
L 102.170455 399.279629 
L 103.015909 401.29328 
L 103.861364 405.624625 
L 104.706818 408.362872 
L 105.552273 408.986774 
L 106.397727 409.217395 
L 107.243182 411.010325 
L 108.088636 411.691728 
L 108.934091 410.853619 
L 109.779545 411.885854 
L 110.625 413.670522 
L 111.470455 413.949346 
L 112.315909 413.685235 
L 113.161364 414.411319 
L 114.006818 414.070084 
L 114.852273 412.590404 
L 115.697727 412.150692 
L 116.543182 411.39918 
L 117.388636 409.405706 
L 118.234091 409.229435 
L 119.079545 408.150319 
L 119.925 406.882132 
L 120.770455 407.294352 
L 121.615909 406.822037 
L 122.461364 406.708733 
L 123.306818 407.326631 
L 124.152273 407.000018 
L 124.997727 407.545707 
L 125.843182 408.269313 
L 126.688636 408.016453 
L 127.534091 408.885232 
L 128.379545 409.402725 
L 129.225 409.27414 
L 130.070455 409.822085 
L 130.915909 410.077847 
L 131.761364 409.872216 
L 133.452273 410.718038 
L 134.297727 410.447258 
L 135.143182 411.119204 
L 135.988636 411.943433 
L 136.834091 411.739755 
L 137.679545 412.235598 
L 138.525 413.238928 
L 140.215909 413.617696 
L 141.061364 414.352876 
L 141.906818 414.773734 
L 142.752273 414.652943 
L 143.597727 414.970348 
L 144.443182 415.542387 
L 146.134091 415.603115 
L 147.825 416.312977 
L 148.670455 416.204923 
L 149.515909 416.237971 
L 150.361364 416.565284 
L 151.206818 416.755003 
L 152.052273 416.69255 
L 152.897727 416.841524 
L 153.743182 417.185892 
L 154.588636 417.319173 
L 155.434091 417.274134 
L 156.279545 417.416833 
L 157.125 417.688664 
L 157.970455 417.767078 
L 158.815909 417.725797 
L 164.734091 418.380789 
L 166.425 418.358732 
L 168.115909 418.559129 
L 170.652273 418.600411 
L 172.343182 418.722732 
L 174.034091 418.722402 
L 176.570455 418.813347 
L 178.261364 418.805645 
L 180.797727 418.848022 
L 183.334091 418.922219 
L 218.843182 419.546651 
L 276.334091 419.876503 
L 343.125 419.970372 
L 559.561364 419.877587 
L 559.561364 419.877587 
" style="fill:none;stroke:#e377c2;stroke-linecap:square;stroke-width:1.5;"/>
   </g>
   <g id="line2d_23">
    <path clip-path="url(#pa9e399b470)" d="M 52.288636 367.104229 
L 53.134091 372.386069 
L 53.979545 367.047379 
L 54.825 365.487913 
L 57.361364 369.434817 
L 58.206818 370.277485 
L 59.052273 370.322695 
L 59.897727 370.030929 
L 60.743182 369.476893 
L 62.434091 368.005726 
L 63.279545 367.949458 
L 64.125 368.561765 
L 64.970455 369.607846 
L 66.661364 371.942546 
L 67.506818 372.573434 
L 68.352273 372.588457 
L 69.197727 372.098382 
L 70.043182 371.434931 
L 70.888636 370.958955 
L 71.734091 370.947984 
L 72.579545 371.486372 
L 75.115909 374.281328 
L 75.961364 374.675115 
L 76.806818 374.629842 
L 78.497727 374.191987 
L 79.343182 374.208417 
L 80.188636 374.516372 
L 81.879545 375.713106 
L 83.570455 376.888864 
L 84.415909 377.31131 
L 87.797727 378.436017 
L 88.643182 378.943334 
L 90.334091 380.404207 
L 92.025 382.095394 
L 93.715909 383.263633 
L 96.252273 385.028332 
L 97.943182 386.489993 
L 98.788636 387.190002 
L 102.170455 389.338082 
L 103.861364 391.039634 
L 106.397727 394.136999 
L 107.243182 395.384574 
L 108.934091 399.086266 
L 109.779545 402.43862 
L 110.625 404.396943 
L 111.470455 405.819847 
L 112.315909 406.977304 
L 113.161364 407.723667 
L 114.006818 411.969289 
L 114.852273 414.899825 
L 115.697727 415.753 
L 116.543182 416.097492 
L 117.388636 417.53967 
L 118.234091 417.576801 
L 119.079545 416.387902 
L 119.925 416.202841 
L 120.770455 416.408035 
L 121.615909 416.205517 
L 122.461364 416.417039 
L 123.306818 417.16008 
L 124.152273 416.777076 
L 124.997727 415.853405 
L 125.843182 416.002246 
L 126.688636 415.541797 
L 127.534091 414.238138 
L 129.225 414.022959 
L 130.070455 413.080561 
L 130.915909 413.115416 
L 131.761364 413.603322 
L 132.606818 413.410378 
L 133.452273 413.67032 
L 134.297727 414.153945 
L 135.988636 414.354185 
L 136.834091 414.712358 
L 138.525 414.901604 
L 139.370455 415.438676 
L 140.215909 415.763914 
L 141.061364 415.959461 
L 141.906818 416.321286 
L 145.288636 416.84802 
L 146.979545 417.015469 
L 148.670455 417.564201 
L 150.361364 417.934453 
L 151.206818 418.092727 
L 152.897727 418.117004 
L 153.743182 418.24618 
L 156.279545 418.343704 
L 157.970455 418.634733 
L 159.661364 418.818288 
L 161.352273 418.97199 
L 179.106818 419.183555 
L 181.643182 419.169408 
L 190.097727 419.197486 
L 282.252273 418.742269 
L 479.243182 418.217023 
L 559.561364 418.107599 
L 559.561364 418.107599 
" style="fill:none;stroke:#7f7f7f;stroke-linecap:square;stroke-width:1.5;"/>
   </g>
   <g id="line2d_24">
    <path clip-path="url(#pa9e399b470)" d="M 52.288636 367.104229 
L 53.134091 372.350756 
L 53.979545 366.96659 
L 54.825 365.661522 
L 55.670455 367.034827 
L 56.515909 368.014719 
L 57.361364 368.818201 
L 58.206818 369.361811 
L 59.897727 369.727122 
L 60.743182 369.61463 
L 61.588636 369.013982 
L 62.434091 368.096102 
L 63.279545 367.392642 
L 64.125 367.339983 
L 64.970455 368.021867 
L 65.815909 369.311201 
L 66.661364 370.827667 
L 67.506818 371.962319 
L 68.352273 372.317158 
L 69.197727 371.811505 
L 70.888636 369.762971 
L 71.734091 369.286544 
L 72.579545 369.608441 
L 73.425 370.637089 
L 74.270455 371.927817 
L 75.115909 372.940661 
L 75.961364 373.321596 
L 76.806818 373.064424 
L 78.497727 371.954012 
L 79.343182 371.843539 
L 80.188636 372.211684 
L 81.879545 373.538218 
L 82.725 373.97818 
L 83.570455 374.14483 
L 85.261364 374.29769 
L 86.952273 374.918368 
L 87.797727 375.231971 
L 89.488636 375.423511 
L 90.334091 375.531955 
L 91.179545 375.852149 
L 93.715909 377.618452 
L 94.561364 377.918947 
L 97.097727 378.384463 
L 97.943182 378.996303 
L 99.634091 380.640282 
L 100.479545 381.268064 
L 103.015909 382.724019 
L 107.243182 386.116367 
L 108.088636 386.74527 
L 109.779545 388.196565 
L 110.625 388.709497 
L 111.470455 389.075862 
L 112.315909 389.721341 
L 114.006818 391.424394 
L 114.852273 392.08949 
L 116.543182 393.959609 
L 118.234091 397.442881 
L 119.079545 401.349482 
L 119.925 403.232932 
L 121.615909 405.830801 
L 122.461364 406.17644 
L 124.152273 411.082395 
L 124.997727 412.29239 
L 125.843182 415.012539 
L 126.688636 416.729156 
L 127.534091 417.152108 
L 128.379545 418.455114 
L 129.225 419.073169 
L 130.070455 419.453576 
L 130.915909 420.493185 
L 131.761364 420.827834 
L 132.606818 421.324964 
L 133.452273 421.38822 
L 134.297727 421.173589 
L 135.143182 421.44084 
L 135.988636 420.942986 
L 136.834091 420.905023 
L 138.525 419.577082 
L 139.370455 419.314552 
L 140.215909 418.692505 
L 141.906818 418.330236 
L 142.752273 417.932675 
L 144.443182 417.820025 
L 145.288636 417.53357 
L 146.134091 417.48848 
L 146.979545 417.312675 
L 147.825 416.995779 
L 149.515909 416.880708 
L 150.361364 416.602863 
L 151.206818 416.538632 
L 152.052273 416.593968 
L 153.743182 416.426113 
L 155.434091 416.571453 
L 156.279545 416.565508 
L 157.970455 416.919871 
L 162.197727 416.968247 
L 163.888636 417.073845 
L 165.579545 417.164454 
L 167.270455 417.273248 
L 168.961364 417.344291 
L 171.497727 417.324181 
L 176.570455 417.428085 
L 193.479545 417.589329 
L 207.852273 417.461372 
L 293.243182 416.38214 
L 391.315909 415.576393 
L 519.825 414.938755 
L 559.561364 414.792423 
L 559.561364 414.792423 
" style="fill:none;stroke:#bcbd22;stroke-linecap:square;stroke-width:1.5;"/>
   </g>
   <g id="patch_4">
    <path d="M 26.925 582.9575 
L 26.925 39.3575 
" style="fill:none;stroke:#000000;stroke-linecap:square;stroke-linejoin:miter;stroke-width:0.8;"/>
   </g>
   <g id="patch_5">
    <path d="M 584.925 582.9575 
L 584.925 39.3575 
" style="fill:none;stroke:#000000;stroke-linecap:square;stroke-linejoin:miter;stroke-width:0.8;"/>
   </g>
   <g id="patch_6">
    <path d="M 26.925 582.9575 
L 584.925 582.9575 
" style="fill:none;stroke:#000000;stroke-linecap:square;stroke-linejoin:miter;stroke-width:0.8;"/>
   </g>
   <g id="patch_7">
    <path d="M 26.925 39.3575 
L 584.925 39.3575 
" style="fill:none;stroke:#000000;stroke-linecap:square;stroke-linejoin:miter;stroke-width:0.8;"/>
   </g>
   <g id="text_17">
    <!-- Class separation -->
    <g transform="translate(130.070455 577.5215)scale(0.1 -0.1)">
     <defs>
      <path d="M 64.40625 67.28125 
L 64.40625 56.890625 
Q 59.421875 61.53125 53.78125 63.8125 
Q 48.140625 66.109375 41.796875 66.109375 
Q 29.296875 66.109375 22.65625 58.46875 
Q 16.015625 50.828125 16.015625 36.375 
Q 16.015625 21.96875 22.65625 14.328125 
Q 29.296875 6.6875 41.796875 6.6875 
Q 48.140625 6.6875 53.78125 8.984375 
Q 59.421875 11.28125 64.40625 15.921875 
L 64.40625 5.609375 
Q 59.234375 2.09375 53.4375 0.328125 
Q 47.65625 -1.421875 41.21875 -1.421875 
Q 24.65625 -1.421875 15.125 8.703125 
Q 5.609375 18.84375 5.609375 36.375 
Q 5.609375 53.953125 15.125 64.078125 
Q 24.65625 74.21875 41.21875 74.21875 
Q 47.75 74.21875 53.53125 72.484375 
Q 59.328125 70.75 64.40625 67.28125 
z
" id="DejaVuSans-67"/>
      <path d="M 9.421875 75.984375 
L 18.40625 75.984375 
L 18.40625 0 
L 9.421875 0 
z
" id="DejaVuSans-108"/>
      <path d="M 34.28125 27.484375 
Q 23.390625 27.484375 19.1875 25 
Q 14.984375 22.515625 14.984375 16.5 
Q 14.984375 11.71875 18.140625 8.90625 
Q 21.296875 6.109375 26.703125 6.109375 
Q 34.1875 6.109375 38.703125 11.40625 
Q 43.21875 16.703125 43.21875 25.484375 
L 43.21875 27.484375 
z
M 52.203125 31.203125 
L 52.203125 0 
L 43.21875 0 
L 43.21875 8.296875 
Q 40.140625 3.328125 35.546875 0.953125 
Q 30.953125 -1.421875 24.3125 -1.421875 
Q 15.921875 -1.421875 10.953125 3.296875 
Q 6 8.015625 6 15.921875 
Q 6 25.140625 12.171875 29.828125 
Q 18.359375 34.515625 30.609375 34.515625 
L 43.21875 34.515625 
L 43.21875 35.40625 
Q 43.21875 41.609375 39.140625 45 
Q 35.0625 48.390625 27.6875 48.390625 
Q 23 48.390625 18.546875 47.265625 
Q 14.109375 46.140625 10.015625 43.890625 
L 10.015625 52.203125 
Q 14.9375 54.109375 19.578125 55.046875 
Q 24.21875 56 28.609375 56 
Q 40.484375 56 46.34375 49.84375 
Q 52.203125 43.703125 52.203125 31.203125 
z
" id="DejaVuSans-97"/>
      <path id="DejaVuSans-32"/>
      <path d="M 56.203125 29.59375 
L 56.203125 25.203125 
L 14.890625 25.203125 
Q 15.484375 15.921875 20.484375 11.0625 
Q 25.484375 6.203125 34.421875 6.203125 
Q 39.59375 6.203125 44.453125 7.46875 
Q 49.3125 8.734375 54.109375 11.28125 
L 54.109375 2.78125 
Q 49.265625 0.734375 44.1875 -0.34375 
Q 39.109375 -1.421875 33.890625 -1.421875 
Q 20.796875 -1.421875 13.15625 6.1875 
Q 5.515625 13.8125 5.515625 26.8125 
Q 5.515625 40.234375 12.765625 48.109375 
Q 20.015625 56 32.328125 56 
Q 43.359375 56 49.78125 48.890625 
Q 56.203125 41.796875 56.203125 29.59375 
z
M 47.21875 32.234375 
Q 47.125 39.59375 43.09375 43.984375 
Q 39.0625 48.390625 32.421875 48.390625 
Q 24.90625 48.390625 20.390625 44.140625 
Q 15.875 39.890625 15.1875 32.171875 
z
" id="DejaVuSans-101"/>
      <path d="M 41.109375 46.296875 
Q 39.59375 47.171875 37.8125 47.578125 
Q 36.03125 48 33.890625 48 
Q 26.265625 48 22.1875 43.046875 
Q 18.109375 38.09375 18.109375 28.8125 
L 18.109375 0 
L 9.078125 0 
L 9.078125 54.6875 
L 18.109375 54.6875 
L 18.109375 46.1875 
Q 20.953125 51.171875 25.484375 53.578125 
Q 30.03125 56 36.53125 56 
Q 37.453125 56 38.578125 55.875 
Q 39.703125 55.765625 41.0625 55.515625 
z
" id="DejaVuSans-114"/>
      <path d="M 18.3125 70.21875 
L 18.3125 54.6875 
L 36.8125 54.6875 
L 36.8125 47.703125 
L 18.3125 47.703125 
L 18.3125 18.015625 
Q 18.3125 11.328125 20.140625 9.421875 
Q 21.96875 7.515625 27.59375 7.515625 
L 36.8125 7.515625 
L 36.8125 0 
L 27.59375 0 
Q 17.1875 0 13.234375 3.875 
Q 9.28125 7.765625 9.28125 18.015625 
L 9.28125 47.703125 
L 2.6875 47.703125 
L 2.6875 54.6875 
L 9.28125 54.6875 
L 9.28125 70.21875 
z
" id="DejaVuSans-116"/>
      <path d="M 9.421875 54.6875 
L 18.40625 54.6875 
L 18.40625 0 
L 9.421875 0 
z
M 9.421875 75.984375 
L 18.40625 75.984375 
L 18.40625 64.59375 
L 9.421875 64.59375 
z
" id="DejaVuSans-105"/>
      <path d="M 54.890625 33.015625 
L 54.890625 0 
L 45.90625 0 
L 45.90625 32.71875 
Q 45.90625 40.484375 42.875 44.328125 
Q 39.84375 48.1875 33.796875 48.1875 
Q 26.515625 48.1875 22.3125 43.546875 
Q 18.109375 38.921875 18.109375 30.90625 
L 18.109375 0 
L 9.078125 0 
L 9.078125 54.6875 
L 18.109375 54.6875 
L 18.109375 46.1875 
Q 21.34375 51.125 25.703125 53.5625 
Q 30.078125 56 35.796875 56 
Q 45.21875 56 50.046875 50.171875 
Q 54.890625 44.34375 54.890625 33.015625 
z
" id="DejaVuSans-110"/>
     </defs>
     <use xlink:href="#DejaVuSans-67"/>
     <use x="69.824219" xlink:href="#DejaVuSans-108"/>
     <use x="97.607422" xlink:href="#DejaVuSans-97"/>
     <use x="158.886719" xlink:href="#DejaVuSans-115"/>
     <use x="210.986328" xlink:href="#DejaVuSans-115"/>
     <use x="263.085938" xlink:href="#DejaVuSans-32"/>
     <use x="294.873047" xlink:href="#DejaVuSans-115"/>
     <use x="346.972656" xlink:href="#DejaVuSans-101"/>
     <use x="408.496094" xlink:href="#DejaVuSans-112"/>
     <use x="471.972656" xlink:href="#DejaVuSans-97"/>
     <use x="533.251953" xlink:href="#DejaVuSans-114"/>
     <use x="574.365234" xlink:href="#DejaVuSans-97"/>
     <use x="635.644531" xlink:href="#DejaVuSans-116"/>
     <use x="674.853516" xlink:href="#DejaVuSans-105"/>
     <use x="702.636719" xlink:href="#DejaVuSans-111"/>
     <use x="763.818359" xlink:href="#DejaVuSans-110"/>
    </g>
   </g>
   <g id="text_18">
    <!-- Distance from final baseline solution -->
    <g transform="translate(159.74125 19.3575)scale(0.16 -0.16)">
     <defs>
      <path d="M 19.671875 64.796875 
L 19.671875 8.109375 
L 31.59375 8.109375 
Q 46.6875 8.109375 53.6875 14.9375 
Q 60.6875 21.78125 60.6875 36.53125 
Q 60.6875 51.171875 53.6875 57.984375 
Q 46.6875 64.796875 31.59375 64.796875 
z
M 9.8125 72.90625 
L 30.078125 72.90625 
Q 51.265625 72.90625 61.171875 64.09375 
Q 71.09375 55.28125 71.09375 36.53125 
Q 71.09375 17.671875 61.125 8.828125 
Q 51.171875 0 30.078125 0 
L 9.8125 0 
z
" id="DejaVuSans-68"/>
      <path d="M 37.109375 75.984375 
L 37.109375 68.5 
L 28.515625 68.5 
Q 23.6875 68.5 21.796875 66.546875 
Q 19.921875 64.59375 19.921875 59.515625 
L 19.921875 54.6875 
L 34.71875 54.6875 
L 34.71875 47.703125 
L 19.921875 47.703125 
L 19.921875 0 
L 10.890625 0 
L 10.890625 47.703125 
L 2.296875 47.703125 
L 2.296875 54.6875 
L 10.890625 54.6875 
L 10.890625 58.5 
Q 10.890625 67.625 15.140625 71.796875 
Q 19.390625 75.984375 28.609375 75.984375 
z
" id="DejaVuSans-102"/>
      <path d="M 52 44.1875 
Q 55.375 50.25 60.0625 53.125 
Q 64.75 56 71.09375 56 
Q 79.640625 56 84.28125 50.015625 
Q 88.921875 44.046875 88.921875 33.015625 
L 88.921875 0 
L 79.890625 0 
L 79.890625 32.71875 
Q 79.890625 40.578125 77.09375 44.375 
Q 74.3125 48.1875 68.609375 48.1875 
Q 61.625 48.1875 57.5625 43.546875 
Q 53.515625 38.921875 53.515625 30.90625 
L 53.515625 0 
L 44.484375 0 
L 44.484375 32.71875 
Q 44.484375 40.625 41.703125 44.40625 
Q 38.921875 48.1875 33.109375 48.1875 
Q 26.21875 48.1875 22.15625 43.53125 
Q 18.109375 38.875 18.109375 30.90625 
L 18.109375 0 
L 9.078125 0 
L 9.078125 54.6875 
L 18.109375 54.6875 
L 18.109375 46.1875 
Q 21.1875 51.21875 25.484375 53.609375 
Q 29.78125 56 35.6875 56 
Q 41.65625 56 45.828125 52.96875 
Q 50 49.953125 52 44.1875 
z
" id="DejaVuSans-109"/>
      <path d="M 48.6875 27.296875 
Q 48.6875 37.203125 44.609375 42.84375 
Q 40.53125 48.484375 33.40625 48.484375 
Q 26.265625 48.484375 22.1875 42.84375 
Q 18.109375 37.203125 18.109375 27.296875 
Q 18.109375 17.390625 22.1875 11.75 
Q 26.265625 6.109375 33.40625 6.109375 
Q 40.53125 6.109375 44.609375 11.75 
Q 48.6875 17.390625 48.6875 27.296875 
z
M 18.109375 46.390625 
Q 20.953125 51.265625 25.265625 53.625 
Q 29.59375 56 35.59375 56 
Q 45.5625 56 51.78125 48.09375 
Q 58.015625 40.1875 58.015625 27.296875 
Q 58.015625 14.40625 51.78125 6.484375 
Q 45.5625 -1.421875 35.59375 -1.421875 
Q 29.59375 -1.421875 25.265625 0.953125 
Q 20.953125 3.328125 18.109375 8.203125 
L 18.109375 0 
L 9.078125 0 
L 9.078125 75.984375 
L 18.109375 75.984375 
z
" id="DejaVuSans-98"/>
      <path d="M 8.5 21.578125 
L 8.5 54.6875 
L 17.484375 54.6875 
L 17.484375 21.921875 
Q 17.484375 14.15625 20.5 10.265625 
Q 23.53125 6.390625 29.59375 6.390625 
Q 36.859375 6.390625 41.078125 11.03125 
Q 45.3125 15.671875 45.3125 23.6875 
L 45.3125 54.6875 
L 54.296875 54.6875 
L 54.296875 0 
L 45.3125 0 
L 45.3125 8.40625 
Q 42.046875 3.421875 37.71875 1 
Q 33.40625 -1.421875 27.6875 -1.421875 
Q 18.265625 -1.421875 13.375 4.4375 
Q 8.5 10.296875 8.5 21.578125 
z
M 31.109375 56 
z
" id="DejaVuSans-117"/>
     </defs>
     <use xlink:href="#DejaVuSans-68"/>
     <use x="77.001953" xlink:href="#DejaVuSans-105"/>
     <use x="104.785156" xlink:href="#DejaVuSans-115"/>
     <use x="156.884766" xlink:href="#DejaVuSans-116"/>
     <use x="196.09375" xlink:href="#DejaVuSans-97"/>
     <use x="257.373047" xlink:href="#DejaVuSans-110"/>
     <use x="320.751953" xlink:href="#DejaVuSans-99"/>
     <use x="375.732422" xlink:href="#DejaVuSans-101"/>
     <use x="437.255859" xlink:href="#DejaVuSans-32"/>
     <use x="469.042969" xlink:href="#DejaVuSans-102"/>
     <use x="504.248047" xlink:href="#DejaVuSans-114"/>
     <use x="543.111328" xlink:href="#DejaVuSans-111"/>
     <use x="604.292969" xlink:href="#DejaVuSans-109"/>
     <use x="701.705078" xlink:href="#DejaVuSans-32"/>
     <use x="733.492188" xlink:href="#DejaVuSans-102"/>
     <use x="768.697266" xlink:href="#DejaVuSans-105"/>
     <use x="796.480469" xlink:href="#DejaVuSans-110"/>
     <use x="859.859375" xlink:href="#DejaVuSans-97"/>
     <use x="921.138672" xlink:href="#DejaVuSans-108"/>
     <use x="948.921875" xlink:href="#DejaVuSans-32"/>
     <use x="980.708984" xlink:href="#DejaVuSans-98"/>
     <use x="1044.185547" xlink:href="#DejaVuSans-97"/>
     <use x="1105.464844" xlink:href="#DejaVuSans-115"/>
     <use x="1157.564453" xlink:href="#DejaVuSans-101"/>
     <use x="1219.087891" xlink:href="#DejaVuSans-108"/>
     <use x="1246.871094" xlink:href="#DejaVuSans-105"/>
     <use x="1274.654297" xlink:href="#DejaVuSans-110"/>
     <use x="1338.033203" xlink:href="#DejaVuSans-101"/>
     <use x="1399.556641" xlink:href="#DejaVuSans-32"/>
     <use x="1431.34375" xlink:href="#DejaVuSans-115"/>
     <use x="1483.443359" xlink:href="#DejaVuSans-111"/>
     <use x="1544.625" xlink:href="#DejaVuSans-108"/>
     <use x="1572.408203" xlink:href="#DejaVuSans-117"/>
     <use x="1635.787109" xlink:href="#DejaVuSans-116"/>
     <use x="1674.996094" xlink:href="#DejaVuSans-105"/>
     <use x="1702.779297" xlink:href="#DejaVuSans-111"/>
     <use x="1763.960938" xlink:href="#DejaVuSans-110"/>
    </g>
   </g>
   <g id="legend_1">
    <g id="line2d_25">
     <path d="M 49.917187 628.671938 
L 69.917187 628.671938 
" style="fill:none;stroke:#1f77b4;stroke-linecap:square;stroke-width:1.5;"/>
    </g>
    <g id="line2d_26"/>
    <g id="text_19">
     <!-- Baseline -->
     <g transform="translate(77.917187 632.171938)scale(0.1 -0.1)">
      <defs>
       <path d="M 19.671875 34.8125 
L 19.671875 8.109375 
L 35.5 8.109375 
Q 43.453125 8.109375 47.28125 11.40625 
Q 51.125 14.703125 51.125 21.484375 
Q 51.125 28.328125 47.28125 31.5625 
Q 43.453125 34.8125 35.5 34.8125 
z
M 19.671875 64.796875 
L 19.671875 42.828125 
L 34.28125 42.828125 
Q 41.5 42.828125 45.03125 45.53125 
Q 48.578125 48.25 48.578125 53.8125 
Q 48.578125 59.328125 45.03125 62.0625 
Q 41.5 64.796875 34.28125 64.796875 
z
M 9.8125 72.90625 
L 35.015625 72.90625 
Q 46.296875 72.90625 52.390625 68.21875 
Q 58.5 63.53125 58.5 54.890625 
Q 58.5 48.1875 55.375 44.234375 
Q 52.25 40.28125 46.1875 39.3125 
Q 53.46875 37.75 57.5 32.78125 
Q 61.53125 27.828125 61.53125 20.40625 
Q 61.53125 10.640625 54.890625 5.3125 
Q 48.25 0 35.984375 0 
L 9.8125 0 
z
" id="DejaVuSans-66"/>
      </defs>
      <use xlink:href="#DejaVuSans-66"/>
      <use x="68.603516" xlink:href="#DejaVuSans-97"/>
      <use x="129.882812" xlink:href="#DejaVuSans-115"/>
      <use x="181.982422" xlink:href="#DejaVuSans-101"/>
      <use x="243.505859" xlink:href="#DejaVuSans-108"/>
      <use x="271.289062" xlink:href="#DejaVuSans-105"/>
      <use x="299.072266" xlink:href="#DejaVuSans-110"/>
      <use x="362.451172" xlink:href="#DejaVuSans-101"/>
     </g>
    </g>
    <g id="line2d_27">
     <path d="M 49.917187 643.350063 
L 69.917187 643.350063 
" style="fill:none;stroke:#ff7f0e;stroke-linecap:square;stroke-width:1.5;"/>
    </g>
    <g id="line2d_28"/>
    <g id="text_20">
     <!-- Forced normaliz. -->
     <g transform="translate(77.917187 646.850063)scale(0.1 -0.1)">
      <defs>
       <path d="M 9.8125 72.90625 
L 51.703125 72.90625 
L 51.703125 64.59375 
L 19.671875 64.59375 
L 19.671875 43.109375 
L 48.578125 43.109375 
L 48.578125 34.8125 
L 19.671875 34.8125 
L 19.671875 0 
L 9.8125 0 
z
" id="DejaVuSans-70"/>
       <path d="M 45.40625 46.390625 
L 45.40625 75.984375 
L 54.390625 75.984375 
L 54.390625 0 
L 45.40625 0 
L 45.40625 8.203125 
Q 42.578125 3.328125 38.25 0.953125 
Q 33.9375 -1.421875 27.875 -1.421875 
Q 17.96875 -1.421875 11.734375 6.484375 
Q 5.515625 14.40625 5.515625 27.296875 
Q 5.515625 40.1875 11.734375 48.09375 
Q 17.96875 56 27.875 56 
Q 33.9375 56 38.25 53.625 
Q 42.578125 51.265625 45.40625 46.390625 
z
M 14.796875 27.296875 
Q 14.796875 17.390625 18.875 11.75 
Q 22.953125 6.109375 30.078125 6.109375 
Q 37.203125 6.109375 41.296875 11.75 
Q 45.40625 17.390625 45.40625 27.296875 
Q 45.40625 37.203125 41.296875 42.84375 
Q 37.203125 48.484375 30.078125 48.484375 
Q 22.953125 48.484375 18.875 42.84375 
Q 14.796875 37.203125 14.796875 27.296875 
z
" id="DejaVuSans-100"/>
       <path d="M 5.515625 54.6875 
L 48.1875 54.6875 
L 48.1875 46.484375 
L 14.40625 7.171875 
L 48.1875 7.171875 
L 48.1875 0 
L 4.296875 0 
L 4.296875 8.203125 
L 38.09375 47.515625 
L 5.515625 47.515625 
z
" id="DejaVuSans-122"/>
       <path d="M 10.6875 12.40625 
L 21 12.40625 
L 21 0 
L 10.6875 0 
z
" id="DejaVuSans-46"/>
      </defs>
      <use xlink:href="#DejaVuSans-70"/>
      <use x="53.894531" xlink:href="#DejaVuSans-111"/>
      <use x="115.076172" xlink:href="#DejaVuSans-114"/>
      <use x="153.939453" xlink:href="#DejaVuSans-99"/>
      <use x="208.919922" xlink:href="#DejaVuSans-101"/>
      <use x="270.443359" xlink:href="#DejaVuSans-100"/>
      <use x="333.919922" xlink:href="#DejaVuSans-32"/>
      <use x="365.707031" xlink:href="#DejaVuSans-110"/>
      <use x="429.085938" xlink:href="#DejaVuSans-111"/>
      <use x="490.267578" xlink:href="#DejaVuSans-114"/>
      <use x="529.630859" xlink:href="#DejaVuSans-109"/>
      <use x="627.042969" xlink:href="#DejaVuSans-97"/>
      <use x="688.322266" xlink:href="#DejaVuSans-108"/>
      <use x="716.105469" xlink:href="#DejaVuSans-105"/>
      <use x="743.888672" xlink:href="#DejaVuSans-122"/>
      <use x="796.378906" xlink:href="#DejaVuSans-46"/>
     </g>
    </g>
    <g id="line2d_29">
     <path d="M 180.732813 628.671938 
L 200.732813 628.671938 
" style="fill:none;stroke:#2ca02c;stroke-linecap:square;stroke-width:1.5;"/>
    </g>
    <g id="line2d_30"/>
    <g id="text_21">
     <!-- $\lambda=0.005$ -->
     <g transform="translate(208.732813 632.171938)scale(0.1 -0.1)">
      <defs>
       <path d="M 36.71875 67.4375 
L 48.828125 0 
L 39.3125 0 
L 31.84375 40.4375 
L 5.125 0 
L -4.390625 0 
L 29.734375 52.4375 
L 28.03125 62.109375 
Q 26.953125 68.265625 21.734375 68.265625 
L 17.046875 68.265625 
L 18.5 75.984375 
L 24.21875 75.875 
Q 35.203125 75.734375 36.71875 67.4375 
z
" id="DejaVuSans-Oblique-955"/>
       <path d="M 10.59375 45.40625 
L 73.1875 45.40625 
L 73.1875 37.203125 
L 10.59375 37.203125 
z
M 10.59375 25.484375 
L 73.1875 25.484375 
L 73.1875 17.1875 
L 10.59375 17.1875 
z
" id="DejaVuSans-61"/>
      </defs>
      <use transform="translate(0 0.015625)" xlink:href="#DejaVuSans-Oblique-955"/>
      <use transform="translate(78.662109 0.015625)" xlink:href="#DejaVuSans-61"/>
      <use transform="translate(181.933594 0.015625)" xlink:href="#DejaVuSans-48"/>
      <use transform="translate(245.556641 0.015625)" xlink:href="#DejaVuSans-46"/>
      <use transform="translate(277.34375 0.015625)" xlink:href="#DejaVuSans-48"/>
      <use transform="translate(340.966797 0.015625)" xlink:href="#DejaVuSans-48"/>
      <use transform="translate(404.589844 0.015625)" xlink:href="#DejaVuSans-53"/>
     </g>
    </g>
    <g id="line2d_31">
     <path d="M 180.732813 643.350063 
L 200.732813 643.350063 
" style="fill:none;stroke:#d62728;stroke-linecap:square;stroke-width:1.5;"/>
    </g>
    <g id="line2d_32"/>
    <g id="text_22">
     <!-- $\lambda=0.05$ -->
     <g transform="translate(208.732813 646.850063)scale(0.1 -0.1)">
      <use transform="translate(0 0.015625)" xlink:href="#DejaVuSans-Oblique-955"/>
      <use transform="translate(78.662109 0.015625)" xlink:href="#DejaVuSans-61"/>
      <use transform="translate(181.933594 0.015625)" xlink:href="#DejaVuSans-48"/>
      <use transform="translate(245.556641 0.015625)" xlink:href="#DejaVuSans-46"/>
      <use transform="translate(277.34375 0.015625)" xlink:href="#DejaVuSans-48"/>
      <use transform="translate(340.966797 0.015625)" xlink:href="#DejaVuSans-53"/>
     </g>
    </g>
    <g id="line2d_33">
     <path d="M 275.632812 628.671938 
L 295.632812 628.671938 
" style="fill:none;stroke:#9467bd;stroke-linecap:square;stroke-width:1.5;"/>
    </g>
    <g id="line2d_34"/>
    <g id="text_23">
     <!-- $\lambda=0.5$ -->
     <g transform="translate(303.632812 632.171938)scale(0.1 -0.1)">
      <use transform="translate(0 0.015625)" xlink:href="#DejaVuSans-Oblique-955"/>
      <use transform="translate(78.662109 0.015625)" xlink:href="#DejaVuSans-61"/>
      <use transform="translate(181.933594 0.015625)" xlink:href="#DejaVuSans-48"/>
      <use transform="translate(245.556641 0.015625)" xlink:href="#DejaVuSans-46"/>
      <use transform="translate(277.34375 0.015625)" xlink:href="#DejaVuSans-53"/>
     </g>
    </g>
    <g id="line2d_35">
     <path d="M 275.632812 643.350063 
L 295.632812 643.350063 
" style="fill:none;stroke:#8c564b;stroke-linecap:square;stroke-width:1.5;"/>
    </g>
    <g id="line2d_36"/>
    <g id="text_24">
     <!-- $\lambda=1.5$ -->
     <g transform="translate(303.632812 646.850063)scale(0.1 -0.1)">
      <use transform="translate(0 0.015625)" xlink:href="#DejaVuSans-Oblique-955"/>
      <use transform="translate(78.662109 0.015625)" xlink:href="#DejaVuSans-61"/>
      <use transform="translate(181.933594 0.015625)" xlink:href="#DejaVuSans-49"/>
      <use transform="translate(245.556641 0.015625)" xlink:href="#DejaVuSans-46"/>
      <use transform="translate(277.34375 0.015625)" xlink:href="#DejaVuSans-53"/>
     </g>
    </g>
    <g id="line2d_37">
     <path d="M 357.732813 628.671938 
L 377.732813 628.671938 
" style="fill:none;stroke:#e377c2;stroke-linecap:square;stroke-width:1.5;"/>
    </g>
    <g id="line2d_38"/>
    <g id="text_25">
     <!-- $\lambda=3$ -->
     <g transform="translate(385.732813 632.171938)scale(0.1 -0.1)">
      <use transform="translate(0 0.015625)" xlink:href="#DejaVuSans-Oblique-955"/>
      <use transform="translate(78.662109 0.015625)" xlink:href="#DejaVuSans-61"/>
      <use transform="translate(181.933594 0.015625)" xlink:href="#DejaVuSans-51"/>
     </g>
    </g>
    <g id="line2d_39">
     <path d="M 430.332812 628.671938 
L 450.332812 628.671938 
" style="fill:none;stroke:#7f7f7f;stroke-linecap:square;stroke-width:1.5;"/>
    </g>
    <g id="line2d_40"/>
    <g id="text_26">
     <!-- $\lambda=5$ -->
     <g transform="translate(458.332812 632.171938)scale(0.1 -0.1)">
      <use transform="translate(0 0.015625)" xlink:href="#DejaVuSans-Oblique-955"/>
      <use transform="translate(78.662109 0.015625)" xlink:href="#DejaVuSans-61"/>
      <use transform="translate(181.933594 0.015625)" xlink:href="#DejaVuSans-53"/>
     </g>
    </g>
    <g id="line2d_41">
     <path d="M 502.932813 628.671938 
L 522.932812 628.671938 
" style="fill:none;stroke:#bcbd22;stroke-linecap:square;stroke-width:1.5;"/>
    </g>
    <g id="line2d_42"/>
    <g id="text_27">
     <!-- $\lambda=10$ -->
     <g transform="translate(530.932812 632.171938)scale(0.1 -0.1)">
      <use transform="translate(0 0.015625)" xlink:href="#DejaVuSans-Oblique-955"/>
      <use transform="translate(78.662109 0.015625)" xlink:href="#DejaVuSans-61"/>
      <use transform="translate(181.933594 0.015625)" xlink:href="#DejaVuSans-49"/>
      <use transform="translate(245.556641 0.015625)" xlink:href="#DejaVuSans-48"/>
     </g>
    </g>
   </g>
  </g>
 </g>
 <defs>
  <clipPath id="pa9e399b470">
   <rect height="543.6" width="558" x="26.925" y="39.3575"/>
  </clipPath>
 </defs>
</svg>
