<?xml version="1.0" encoding="utf-8" standalone="no"?>
<!DOCTYPE svg PUBLIC "-//W3C//DTD SVG 1.1//EN"
  "http://www.w3.org/Graphics/SVG/1.1/DTD/svg11.dtd">
<!-- Created with matplotlib (https://matplotlib.org/) -->
<svg height="660.12975pt" version="1.1" viewBox="0 0 592.125 660.12975" width="592.125pt" xmlns="http://www.w3.org/2000/svg" xmlns:xlink="http://www.w3.org/1999/xlink">
 <metadata>
  <rdf:RDF xmlns:cc="http://creativecommons.org/ns#" xmlns:dc="http://purl.org/dc/elements/1.1/" xmlns:rdf="http://www.w3.org/1999/02/22-rdf-syntax-ns#">
   <cc:Work>
    <dc:type rdf:resource="http://purl.org/dc/dcmitype/StillImage"/>
    <dc:date>2021-01-13T11:49:41.751382</dc:date>
    <dc:format>image/svg+xml</dc:format>
    <dc:creator>
     <cc:Agent>
      <dc:title>Matplotlib v3.3.2, https://matplotlib.org/</dc:title>
     </cc:Agent>
    </dc:creator>
   </cc:Work>
  </rdf:RDF>
 </metadata>
 <defs>
  <style type="text/css">*{stroke-linecap:butt;stroke-linejoin:round;}</style>
 </defs>
 <g id="figure_1">
  <g id="patch_1">
   <path d="M 0 660.12975 
L 592.125 660.12975 
L 592.125 0 
L 0 0 
z
" style="fill:none;"/>
  </g>
  <g id="axes_1">
   <g id="patch_2">
    <path d="M 26.925 582.9575 
L 584.925 582.9575 
L 584.925 39.3575 
L 26.925 39.3575 
z
" style="fill:#ffffff;"/>
   </g>
   <g id="patch_3">
    <path clip-path="url(#p160e7baaf6)" d="M 106.397727 582.9575 
L 442.888636 582.9575 
L 442.888636 39.3575 
L 106.397727 39.3575 
z
" style="fill:#1f77b4;opacity:0.2;"/>
   </g>
   <g id="matplotlib.axis_1">
    <g id="xtick_1">
     <g id="line2d_1">
      <defs>
       <path d="M 0 0 
L 0 3.5 
" id="mcafcd7c9bd" style="stroke:#000000;stroke-width:0.8;"/>
      </defs>
      <g>
       <use style="stroke:#000000;stroke-width:0.8;" x="52.288636" xlink:href="#mcafcd7c9bd" y="582.9575"/>
      </g>
     </g>
     <g id="text_1">
      <!-- 0 -->
      <g transform="translate(49.107386 597.555938)scale(0.1 -0.1)">
       <defs>
        <path d="M 31.78125 66.40625 
Q 24.171875 66.40625 20.328125 58.90625 
Q 16.5 51.421875 16.5 36.375 
Q 16.5 21.390625 20.328125 13.890625 
Q 24.171875 6.390625 31.78125 6.390625 
Q 39.453125 6.390625 43.28125 13.890625 
Q 47.125 21.390625 47.125 36.375 
Q 47.125 51.421875 43.28125 58.90625 
Q 39.453125 66.40625 31.78125 66.40625 
z
M 31.78125 74.21875 
Q 44.046875 74.21875 50.515625 64.515625 
Q 56.984375 54.828125 56.984375 36.375 
Q 56.984375 17.96875 50.515625 8.265625 
Q 44.046875 -1.421875 31.78125 -1.421875 
Q 19.53125 -1.421875 13.0625 8.265625 
Q 6.59375 17.96875 6.59375 36.375 
Q 6.59375 54.828125 13.0625 64.515625 
Q 19.53125 74.21875 31.78125 74.21875 
z
" id="DejaVuSans-48"/>
       </defs>
       <use xlink:href="#DejaVuSans-48"/>
      </g>
     </g>
    </g>
    <g id="xtick_2">
     <g id="line2d_2">
      <g>
       <use style="stroke:#000000;stroke-width:0.8;" x="136.834091" xlink:href="#mcafcd7c9bd" y="582.9575"/>
      </g>
     </g>
     <g id="text_2">
      <!-- 100 -->
      <g transform="translate(127.290341 597.555938)scale(0.1 -0.1)">
       <defs>
        <path d="M 12.40625 8.296875 
L 28.515625 8.296875 
L 28.515625 63.921875 
L 10.984375 60.40625 
L 10.984375 69.390625 
L 28.421875 72.90625 
L 38.28125 72.90625 
L 38.28125 8.296875 
L 54.390625 8.296875 
L 54.390625 0 
L 12.40625 0 
z
" id="DejaVuSans-49"/>
       </defs>
       <use xlink:href="#DejaVuSans-49"/>
       <use x="63.623047" xlink:href="#DejaVuSans-48"/>
       <use x="127.246094" xlink:href="#DejaVuSans-48"/>
      </g>
     </g>
    </g>
    <g id="xtick_3">
     <g id="line2d_3">
      <g>
       <use style="stroke:#000000;stroke-width:0.8;" x="221.379545" xlink:href="#mcafcd7c9bd" y="582.9575"/>
      </g>
     </g>
     <g id="text_3">
      <!-- 200 -->
      <g transform="translate(211.835795 597.555938)scale(0.1 -0.1)">
       <defs>
        <path d="M 19.1875 8.296875 
L 53.609375 8.296875 
L 53.609375 0 
L 7.328125 0 
L 7.328125 8.296875 
Q 12.9375 14.109375 22.625 23.890625 
Q 32.328125 33.6875 34.8125 36.53125 
Q 39.546875 41.84375 41.421875 45.53125 
Q 43.3125 49.21875 43.3125 52.78125 
Q 43.3125 58.59375 39.234375 62.25 
Q 35.15625 65.921875 28.609375 65.921875 
Q 23.96875 65.921875 18.8125 64.3125 
Q 13.671875 62.703125 7.8125 59.421875 
L 7.8125 69.390625 
Q 13.765625 71.78125 18.9375 73 
Q 24.125 74.21875 28.421875 74.21875 
Q 39.75 74.21875 46.484375 68.546875 
Q 53.21875 62.890625 53.21875 53.421875 
Q 53.21875 48.921875 51.53125 44.890625 
Q 49.859375 40.875 45.40625 35.40625 
Q 44.1875 33.984375 37.640625 27.21875 
Q 31.109375 20.453125 19.1875 8.296875 
z
" id="DejaVuSans-50"/>
       </defs>
       <use xlink:href="#DejaVuSans-50"/>
       <use x="63.623047" xlink:href="#DejaVuSans-48"/>
       <use x="127.246094" xlink:href="#DejaVuSans-48"/>
      </g>
     </g>
    </g>
    <g id="xtick_4">
     <g id="line2d_4">
      <g>
       <use style="stroke:#000000;stroke-width:0.8;" x="305.925" xlink:href="#mcafcd7c9bd" y="582.9575"/>
      </g>
     </g>
     <g id="text_4">
      <!-- 300 -->
      <g transform="translate(296.38125 597.555938)scale(0.1 -0.1)">
       <defs>
        <path d="M 40.578125 39.3125 
Q 47.65625 37.796875 51.625 33 
Q 55.609375 28.21875 55.609375 21.1875 
Q 55.609375 10.40625 48.1875 4.484375 
Q 40.765625 -1.421875 27.09375 -1.421875 
Q 22.515625 -1.421875 17.65625 -0.515625 
Q 12.796875 0.390625 7.625 2.203125 
L 7.625 11.71875 
Q 11.71875 9.328125 16.59375 8.109375 
Q 21.484375 6.890625 26.8125 6.890625 
Q 36.078125 6.890625 40.9375 10.546875 
Q 45.796875 14.203125 45.796875 21.1875 
Q 45.796875 27.640625 41.28125 31.265625 
Q 36.765625 34.90625 28.71875 34.90625 
L 20.21875 34.90625 
L 20.21875 43.015625 
L 29.109375 43.015625 
Q 36.375 43.015625 40.234375 45.921875 
Q 44.09375 48.828125 44.09375 54.296875 
Q 44.09375 59.90625 40.109375 62.90625 
Q 36.140625 65.921875 28.71875 65.921875 
Q 24.65625 65.921875 20.015625 65.03125 
Q 15.375 64.15625 9.8125 62.3125 
L 9.8125 71.09375 
Q 15.4375 72.65625 20.34375 73.4375 
Q 25.25 74.21875 29.59375 74.21875 
Q 40.828125 74.21875 47.359375 69.109375 
Q 53.90625 64.015625 53.90625 55.328125 
Q 53.90625 49.265625 50.4375 45.09375 
Q 46.96875 40.921875 40.578125 39.3125 
z
" id="DejaVuSans-51"/>
       </defs>
       <use xlink:href="#DejaVuSans-51"/>
       <use x="63.623047" xlink:href="#DejaVuSans-48"/>
       <use x="127.246094" xlink:href="#DejaVuSans-48"/>
      </g>
     </g>
    </g>
    <g id="xtick_5">
     <g id="line2d_5">
      <g>
       <use style="stroke:#000000;stroke-width:0.8;" x="390.470455" xlink:href="#mcafcd7c9bd" y="582.9575"/>
      </g>
     </g>
     <g id="text_5">
      <!-- 400 -->
      <g transform="translate(380.926705 597.555938)scale(0.1 -0.1)">
       <defs>
        <path d="M 37.796875 64.3125 
L 12.890625 25.390625 
L 37.796875 25.390625 
z
M 35.203125 72.90625 
L 47.609375 72.90625 
L 47.609375 25.390625 
L 58.015625 25.390625 
L 58.015625 17.1875 
L 47.609375 17.1875 
L 47.609375 0 
L 37.796875 0 
L 37.796875 17.1875 
L 4.890625 17.1875 
L 4.890625 26.703125 
z
" id="DejaVuSans-52"/>
       </defs>
       <use xlink:href="#DejaVuSans-52"/>
       <use x="63.623047" xlink:href="#DejaVuSans-48"/>
       <use x="127.246094" xlink:href="#DejaVuSans-48"/>
      </g>
     </g>
    </g>
    <g id="xtick_6">
     <g id="line2d_6">
      <g>
       <use style="stroke:#000000;stroke-width:0.8;" x="475.015909" xlink:href="#mcafcd7c9bd" y="582.9575"/>
      </g>
     </g>
     <g id="text_6">
      <!-- 500 -->
      <g transform="translate(465.472159 597.555938)scale(0.1 -0.1)">
       <defs>
        <path d="M 10.796875 72.90625 
L 49.515625 72.90625 
L 49.515625 64.59375 
L 19.828125 64.59375 
L 19.828125 46.734375 
Q 21.96875 47.46875 24.109375 47.828125 
Q 26.265625 48.1875 28.421875 48.1875 
Q 40.625 48.1875 47.75 41.5 
Q 54.890625 34.8125 54.890625 23.390625 
Q 54.890625 11.625 47.5625 5.09375 
Q 40.234375 -1.421875 26.90625 -1.421875 
Q 22.3125 -1.421875 17.546875 -0.640625 
Q 12.796875 0.140625 7.71875 1.703125 
L 7.71875 11.625 
Q 12.109375 9.234375 16.796875 8.0625 
Q 21.484375 6.890625 26.703125 6.890625 
Q 35.15625 6.890625 40.078125 11.328125 
Q 45.015625 15.765625 45.015625 23.390625 
Q 45.015625 31 40.078125 35.4375 
Q 35.15625 39.890625 26.703125 39.890625 
Q 22.75 39.890625 18.8125 39.015625 
Q 14.890625 38.140625 10.796875 36.28125 
z
" id="DejaVuSans-53"/>
       </defs>
       <use xlink:href="#DejaVuSans-53"/>
       <use x="63.623047" xlink:href="#DejaVuSans-48"/>
       <use x="127.246094" xlink:href="#DejaVuSans-48"/>
      </g>
     </g>
    </g>
    <g id="xtick_7">
     <g id="line2d_7">
      <g>
       <use style="stroke:#000000;stroke-width:0.8;" x="559.561364" xlink:href="#mcafcd7c9bd" y="582.9575"/>
      </g>
     </g>
     <g id="text_7">
      <!-- 600 -->
      <g transform="translate(550.017614 597.555938)scale(0.1 -0.1)">
       <defs>
        <path d="M 33.015625 40.375 
Q 26.375 40.375 22.484375 35.828125 
Q 18.609375 31.296875 18.609375 23.390625 
Q 18.609375 15.53125 22.484375 10.953125 
Q 26.375 6.390625 33.015625 6.390625 
Q 39.65625 6.390625 43.53125 10.953125 
Q 47.40625 15.53125 47.40625 23.390625 
Q 47.40625 31.296875 43.53125 35.828125 
Q 39.65625 40.375 33.015625 40.375 
z
M 52.59375 71.296875 
L 52.59375 62.3125 
Q 48.875 64.0625 45.09375 64.984375 
Q 41.3125 65.921875 37.59375 65.921875 
Q 27.828125 65.921875 22.671875 59.328125 
Q 17.53125 52.734375 16.796875 39.40625 
Q 19.671875 43.65625 24.015625 45.921875 
Q 28.375 48.1875 33.59375 48.1875 
Q 44.578125 48.1875 50.953125 41.515625 
Q 57.328125 34.859375 57.328125 23.390625 
Q 57.328125 12.15625 50.6875 5.359375 
Q 44.046875 -1.421875 33.015625 -1.421875 
Q 20.359375 -1.421875 13.671875 8.265625 
Q 6.984375 17.96875 6.984375 36.375 
Q 6.984375 53.65625 15.1875 63.9375 
Q 23.390625 74.21875 37.203125 74.21875 
Q 40.921875 74.21875 44.703125 73.484375 
Q 48.484375 72.75 52.59375 71.296875 
z
" id="DejaVuSans-54"/>
       </defs>
       <use xlink:href="#DejaVuSans-54"/>
       <use x="63.623047" xlink:href="#DejaVuSans-48"/>
       <use x="127.246094" xlink:href="#DejaVuSans-48"/>
      </g>
     </g>
    </g>
    <g id="text_8">
     <!-- Epochs -->
     <g transform="translate(288.009375 611.234063)scale(0.1 -0.1)">
      <defs>
       <path d="M 9.8125 72.90625 
L 55.90625 72.90625 
L 55.90625 64.59375 
L 19.671875 64.59375 
L 19.671875 43.015625 
L 54.390625 43.015625 
L 54.390625 34.71875 
L 19.671875 34.71875 
L 19.671875 8.296875 
L 56.78125 8.296875 
L 56.78125 0 
L 9.8125 0 
z
" id="DejaVuSans-69"/>
       <path d="M 18.109375 8.203125 
L 18.109375 -20.796875 
L 9.078125 -20.796875 
L 9.078125 54.6875 
L 18.109375 54.6875 
L 18.109375 46.390625 
Q 20.953125 51.265625 25.265625 53.625 
Q 29.59375 56 35.59375 56 
Q 45.5625 56 51.78125 48.09375 
Q 58.015625 40.1875 58.015625 27.296875 
Q 58.015625 14.40625 51.78125 6.484375 
Q 45.5625 -1.421875 35.59375 -1.421875 
Q 29.59375 -1.421875 25.265625 0.953125 
Q 20.953125 3.328125 18.109375 8.203125 
z
M 48.6875 27.296875 
Q 48.6875 37.203125 44.609375 42.84375 
Q 40.53125 48.484375 33.40625 48.484375 
Q 26.265625 48.484375 22.1875 42.84375 
Q 18.109375 37.203125 18.109375 27.296875 
Q 18.109375 17.390625 22.1875 11.75 
Q 26.265625 6.109375 33.40625 6.109375 
Q 40.53125 6.109375 44.609375 11.75 
Q 48.6875 17.390625 48.6875 27.296875 
z
" id="DejaVuSans-112"/>
       <path d="M 30.609375 48.390625 
Q 23.390625 48.390625 19.1875 42.75 
Q 14.984375 37.109375 14.984375 27.296875 
Q 14.984375 17.484375 19.15625 11.84375 
Q 23.34375 6.203125 30.609375 6.203125 
Q 37.796875 6.203125 41.984375 11.859375 
Q 46.1875 17.53125 46.1875 27.296875 
Q 46.1875 37.015625 41.984375 42.703125 
Q 37.796875 48.390625 30.609375 48.390625 
z
M 30.609375 56 
Q 42.328125 56 49.015625 48.375 
Q 55.71875 40.765625 55.71875 27.296875 
Q 55.71875 13.875 49.015625 6.21875 
Q 42.328125 -1.421875 30.609375 -1.421875 
Q 18.84375 -1.421875 12.171875 6.21875 
Q 5.515625 13.875 5.515625 27.296875 
Q 5.515625 40.765625 12.171875 48.375 
Q 18.84375 56 30.609375 56 
z
" id="DejaVuSans-111"/>
       <path d="M 48.78125 52.59375 
L 48.78125 44.1875 
Q 44.96875 46.296875 41.140625 47.34375 
Q 37.3125 48.390625 33.40625 48.390625 
Q 24.65625 48.390625 19.8125 42.84375 
Q 14.984375 37.3125 14.984375 27.296875 
Q 14.984375 17.28125 19.8125 11.734375 
Q 24.65625 6.203125 33.40625 6.203125 
Q 37.3125 6.203125 41.140625 7.25 
Q 44.96875 8.296875 48.78125 10.40625 
L 48.78125 2.09375 
Q 45.015625 0.34375 40.984375 -0.53125 
Q 36.96875 -1.421875 32.421875 -1.421875 
Q 20.0625 -1.421875 12.78125 6.34375 
Q 5.515625 14.109375 5.515625 27.296875 
Q 5.515625 40.671875 12.859375 48.328125 
Q 20.21875 56 33.015625 56 
Q 37.15625 56 41.109375 55.140625 
Q 45.0625 54.296875 48.78125 52.59375 
z
" id="DejaVuSans-99"/>
       <path d="M 54.890625 33.015625 
L 54.890625 0 
L 45.90625 0 
L 45.90625 32.71875 
Q 45.90625 40.484375 42.875 44.328125 
Q 39.84375 48.1875 33.796875 48.1875 
Q 26.515625 48.1875 22.3125 43.546875 
Q 18.109375 38.921875 18.109375 30.90625 
L 18.109375 0 
L 9.078125 0 
L 9.078125 75.984375 
L 18.109375 75.984375 
L 18.109375 46.1875 
Q 21.34375 51.125 25.703125 53.5625 
Q 30.078125 56 35.796875 56 
Q 45.21875 56 50.046875 50.171875 
Q 54.890625 44.34375 54.890625 33.015625 
z
" id="DejaVuSans-104"/>
       <path d="M 44.28125 53.078125 
L 44.28125 44.578125 
Q 40.484375 46.53125 36.375 47.5 
Q 32.28125 48.484375 27.875 48.484375 
Q 21.1875 48.484375 17.84375 46.4375 
Q 14.5 44.390625 14.5 40.28125 
Q 14.5 37.15625 16.890625 35.375 
Q 19.28125 33.59375 26.515625 31.984375 
L 29.59375 31.296875 
Q 39.15625 29.25 43.1875 25.515625 
Q 47.21875 21.78125 47.21875 15.09375 
Q 47.21875 7.46875 41.1875 3.015625 
Q 35.15625 -1.421875 24.609375 -1.421875 
Q 20.21875 -1.421875 15.453125 -0.5625 
Q 10.6875 0.296875 5.421875 2 
L 5.421875 11.28125 
Q 10.40625 8.6875 15.234375 7.390625 
Q 20.0625 6.109375 24.8125 6.109375 
Q 31.15625 6.109375 34.5625 8.28125 
Q 37.984375 10.453125 37.984375 14.40625 
Q 37.984375 18.0625 35.515625 20.015625 
Q 33.0625 21.96875 24.703125 23.78125 
L 21.578125 24.515625 
Q 13.234375 26.265625 9.515625 29.90625 
Q 5.8125 33.546875 5.8125 39.890625 
Q 5.8125 47.609375 11.28125 51.796875 
Q 16.75 56 26.8125 56 
Q 31.78125 56 36.171875 55.265625 
Q 40.578125 54.546875 44.28125 53.078125 
z
" id="DejaVuSans-115"/>
      </defs>
      <use xlink:href="#DejaVuSans-69"/>
      <use x="63.183594" xlink:href="#DejaVuSans-112"/>
      <use x="126.660156" xlink:href="#DejaVuSans-111"/>
      <use x="187.841797" xlink:href="#DejaVuSans-99"/>
      <use x="242.822266" xlink:href="#DejaVuSans-104"/>
      <use x="306.201172" xlink:href="#DejaVuSans-115"/>
     </g>
    </g>
   </g>
   <g id="matplotlib.axis_2">
    <g id="ytick_1">
     <g id="line2d_8">
      <defs>
       <path d="M 0 0 
L -3.5 0 
" id="m6d19d055e1" style="stroke:#000000;stroke-width:0.8;"/>
      </defs>
      <g>
       <use style="stroke:#000000;stroke-width:0.8;" x="26.925" xlink:href="#m6d19d055e1" y="558.248409"/>
      </g>
     </g>
     <g id="text_9">
      <!-- 0 -->
      <g transform="translate(13.5625 562.047628)scale(0.1 -0.1)">
       <use xlink:href="#DejaVuSans-48"/>
      </g>
     </g>
    </g>
    <g id="ytick_2">
     <g id="line2d_9">
      <g>
       <use style="stroke:#000000;stroke-width:0.8;" x="26.925" xlink:href="#m6d19d055e1" y="448.185844"/>
      </g>
     </g>
     <g id="text_10">
      <!-- 10 -->
      <g transform="translate(7.2 451.985063)scale(0.1 -0.1)">
       <use xlink:href="#DejaVuSans-49"/>
       <use x="63.623047" xlink:href="#DejaVuSans-48"/>
      </g>
     </g>
    </g>
    <g id="ytick_3">
     <g id="line2d_10">
      <g>
       <use style="stroke:#000000;stroke-width:0.8;" x="26.925" xlink:href="#m6d19d055e1" y="338.123279"/>
      </g>
     </g>
     <g id="text_11">
      <!-- 20 -->
      <g transform="translate(7.2 341.922497)scale(0.1 -0.1)">
       <use xlink:href="#DejaVuSans-50"/>
       <use x="63.623047" xlink:href="#DejaVuSans-48"/>
      </g>
     </g>
    </g>
    <g id="ytick_4">
     <g id="line2d_11">
      <g>
       <use style="stroke:#000000;stroke-width:0.8;" x="26.925" xlink:href="#m6d19d055e1" y="228.060713"/>
      </g>
     </g>
     <g id="text_12">
      <!-- 30 -->
      <g transform="translate(7.2 231.859932)scale(0.1 -0.1)">
       <use xlink:href="#DejaVuSans-51"/>
       <use x="63.623047" xlink:href="#DejaVuSans-48"/>
      </g>
     </g>
    </g>
    <g id="ytick_5">
     <g id="line2d_12">
      <g>
       <use style="stroke:#000000;stroke-width:0.8;" x="26.925" xlink:href="#m6d19d055e1" y="117.998148"/>
      </g>
     </g>
     <g id="text_13">
      <!-- 40 -->
      <g transform="translate(7.2 121.797367)scale(0.1 -0.1)">
       <use xlink:href="#DejaVuSans-52"/>
       <use x="63.623047" xlink:href="#DejaVuSans-48"/>
      </g>
     </g>
    </g>
   </g>
   <g id="line2d_13">
    <path clip-path="url(#p160e7baaf6)" d="M 52.288636 420.958352 
L 55.670455 433.320906 
L 58.206818 442.436309 
L 60.743182 451.077314 
L 67.506818 474.124216 
L 69.197727 479.030393 
L 71.734091 486.152835 
L 74.270455 493.142448 
L 76.806818 499.610102 
L 79.343182 505.527575 
L 81.034091 508.680159 
L 83.570455 512.655626 
L 88.643182 520.29483 
L 92.025 525.520061 
L 93.715909 527.574262 
L 95.406818 529.453693 
L 97.943182 531.754398 
L 98.788636 532.467445 
L 101.325 534.090686 
L 104.706818 535.21723 
L 108.088636 536.012184 
L 110.625 536.479257 
L 125.843182 539.248934 
L 130.070455 540.102675 
L 134.297727 540.761529 
L 137.679545 541.14585 
L 141.906818 541.437094 
L 147.825 541.721558 
L 172.343182 542.861646 
L 182.488636 543.471319 
L 203.625 544.519714 
L 222.225 545.404716 
L 256.888636 547.277799 
L 300.006818 549.599351 
L 386.243182 552.528431 
L 456.415909 554.922077 
L 461.488636 555.02518 
L 551.106818 557.824528 
L 551.952273 557.785902 
L 552.797727 557.878062 
L 553.643182 557.792425 
L 554.488636 557.942023 
L 555.334091 557.772794 
L 556.179545 558.024144 
L 557.025 557.713751 
L 557.870455 558.132055 
L 558.715909 557.628594 
L 559.561364 558.248409 
L 559.561364 558.248409 
" style="fill:none;stroke:#1f77b4;stroke-linecap:square;stroke-width:1.5;"/>
   </g>
   <g id="line2d_14">
    <path clip-path="url(#p160e7baaf6)" d="M 52.288636 277.059475 
L 53.134091 281.538232 
L 55.670455 291.53254 
L 57.361364 297.416827 
L 59.052273 302.478112 
L 59.897727 304.414067 
L 61.588636 307.706165 
L 62.434091 310.044727 
L 70.888636 337.034861 
L 72.579545 341.212441 
L 75.961364 347.418412 
L 77.652273 350.670944 
L 80.188636 354.71725 
L 81.879545 357.459283 
L 82.725 358.49748 
L 83.570455 358.883043 
L 84.415909 358.828997 
L 85.261364 358.131303 
L 86.106818 357.807554 
L 86.952273 357.271858 
L 87.797727 356.963445 
L 88.643182 356.150933 
L 89.488636 355.644354 
L 91.179545 353.48016 
L 92.025 352.731692 
L 92.870455 351.7977 
L 93.715909 351.178225 
L 96.252273 349.944499 
L 97.943182 349.346706 
L 98.788636 349.360926 
L 100.479545 348.829458 
L 101.325 348.835352 
L 102.170455 348.630537 
L 107.243182 348.168614 
L 108.088636 348.280886 
L 113.161364 347.855078 
L 114.006818 348.046146 
L 114.852273 348.001073 
L 115.697727 348.413545 
L 116.543182 348.301456 
L 118.234091 349.260384 
L 119.079545 349.076493 
L 119.925 349.561542 
L 120.770455 350.413294 
L 121.615909 350.349561 
L 122.461364 350.491396 
L 124.152273 351.657572 
L 125.843182 351.944806 
L 127.534091 352.770068 
L 129.225 353.053367 
L 130.915909 353.450891 
L 139.370455 353.731885 
L 141.061364 353.713877 
L 141.906818 353.792945 
L 143.597727 353.763491 
L 144.443182 353.89141 
L 145.288636 353.819255 
L 151.206818 354.261926 
L 154.588636 354.69363 
L 161.352273 355.600378 
L 163.888636 355.930907 
L 165.579545 356.188564 
L 171.497727 357.290747 
L 179.106818 358.076293 
L 189.252273 358.029956 
L 192.634091 357.695958 
L 195.170455 357.452993 
L 197.706818 357.32561 
L 201.088636 357.339561 
L 215.461364 357.855673 
L 234.061364 357.950586 
L 273.797727 357.700717 
L 290.706818 357.784119 
L 291.552273 357.87466 
L 292.397727 357.818961 
L 306.770455 358.814298 
L 314.379545 358.946713 
L 345.661364 359.140792 
L 357.497727 359.451165 
L 369.334091 360.135146 
L 382.015909 360.706635 
L 393.852273 361.006341 
L 416.679545 361.289695 
L 507.143182 362.44489 
L 524.052273 362.61065 
L 545.188636 362.790712 
L 559.561364 362.9026 
L 559.561364 362.9026 
" style="fill:none;stroke:#ff7f0e;stroke-linecap:square;stroke-width:1.5;"/>
   </g>
   <g id="line2d_15">
    <path clip-path="url(#p160e7baaf6)" d="M 52.288636 277.059475 
L 53.134091 279.463103 
L 53.979545 292.555286 
L 54.825 288.835427 
L 55.670455 288.516578 
L 56.515909 293.573765 
L 58.206818 306.187297 
L 59.052273 309.906771 
L 59.897727 311.470265 
L 60.743182 311.661769 
L 61.588636 311.714359 
L 62.434091 312.175249 
L 64.125 313.338368 
L 64.970455 314.200127 
L 65.815909 313.991188 
L 66.661364 311.998422 
L 67.506818 309.017703 
L 69.197727 299.274651 
L 70.043182 293.319632 
L 70.888636 286.091197 
L 71.734091 276.787597 
L 72.579545 265.804461 
L 73.425 253.271653 
L 75.115909 223.528633 
L 77.652273 176.412541 
L 81.879545 113.829106 
L 83.570455 96.342876 
L 84.415909 92.09147 
L 85.261364 86.59696 
L 86.106818 81.854588 
L 86.952273 79.775972 
L 87.797727 77.303535 
L 88.643182 76.380297 
L 89.488636 77.643724 
L 91.179545 79.274447 
L 92.025 81.276201 
L 92.870455 82.754406 
L 94.561364 84.440136 
L 95.406818 85.596518 
L 96.252273 86.060092 
L 97.943182 85.455895 
L 98.788636 85.608256 
L 99.634091 85.295226 
L 100.479545 84.408306 
L 101.325 83.814854 
L 102.170455 83.594028 
L 103.861364 81.691788 
L 104.706818 81.55464 
L 105.552273 81.148925 
L 106.397727 80.363131 
L 107.243182 80.067235 
L 108.088636 79.926131 
L 109.779545 78.71658 
L 110.625 78.570902 
L 111.470455 77.679128 
L 112.315909 76.235996 
L 113.161364 75.038071 
L 117.388636 66.678831 
L 118.234091 66.015263 
L 119.079545 65.07241 
L 119.925 64.351045 
L 120.770455 64.437589 
L 121.615909 64.066591 
L 122.461364 64.305577 
L 123.306818 64.698978 
L 124.152273 64.659794 
L 124.997727 65.377579 
L 126.688636 66.25972 
L 127.534091 67.003952 
L 128.379545 67.194447 
L 130.070455 68.067228 
L 130.915909 68.123091 
L 131.761364 68.574926 
L 132.606818 68.735893 
L 133.452273 69.148641 
L 134.297727 69.713651 
L 135.143182 70.079981 
L 135.988636 70.987364 
L 136.834091 71.615106 
L 138.525 73.39461 
L 141.061364 75.763775 
L 141.906818 76.687157 
L 142.752273 77.27067 
L 143.597727 78.088874 
L 147.825 80.886144 
L 148.670455 81.344379 
L 149.515909 82.059691 
L 150.361364 82.5909 
L 151.206818 83.479465 
L 152.052273 83.747219 
L 152.897727 84.868918 
L 153.743182 84.591343 
L 154.588636 86.084396 
L 155.434091 85.638605 
L 156.279545 86.8803 
L 157.970455 87.132617 
L 158.815909 88.065587 
L 159.661364 87.592477 
L 160.506818 88.119578 
L 161.352273 88.325595 
L 162.197727 88.010108 
L 163.043182 88.704936 
L 163.888636 88.35512 
L 164.734091 88.596598 
L 165.579545 89.071249 
L 166.425 88.862225 
L 167.270455 89.616637 
L 168.115909 89.687345 
L 168.961364 90.007114 
L 169.806818 90.681262 
L 170.652273 90.629404 
L 171.497727 91.211549 
L 172.343182 91.436494 
L 173.188636 91.537609 
L 174.034091 92.050805 
L 174.879545 91.967164 
L 176.570455 92.538591 
L 177.415909 92.569055 
L 178.261364 93.040142 
L 179.106818 93.108936 
L 180.797727 93.870157 
L 181.643182 94.065478 
L 182.488636 94.605623 
L 183.334091 94.761598 
L 184.179545 95.234595 
L 189.252273 96.958074 
L 197.706818 99.921708 
L 198.552273 100.2943 
L 199.397727 100.518217 
L 200.243182 100.923232 
L 201.088636 101.116788 
L 201.934091 101.523937 
L 202.779545 101.706708 
L 203.625 102.093344 
L 204.470455 102.287273 
L 205.315909 102.674096 
L 206.161364 102.885733 
L 207.006818 103.287063 
L 207.852273 103.514921 
L 208.697727 103.939651 
L 209.543182 104.153537 
L 210.388636 104.618705 
L 211.234091 104.781711 
L 212.079545 105.32339 
L 212.925 105.38426 
L 213.770455 106.075816 
L 214.615909 105.948189 
L 215.461364 106.935272 
L 216.306818 106.527289 
L 217.152273 107.912 
L 217.997727 107.370609 
L 218.843182 108.709594 
L 219.688636 108.553474 
L 220.534091 108.932824 
L 221.379545 109.52808 
L 222.225 109.01927 
L 223.070455 109.804615 
L 223.915909 109.421494 
L 224.761364 109.612278 
L 225.606818 109.992413 
L 226.452273 109.658764 
L 227.297727 110.458057 
L 228.143182 110.306106 
L 229.834091 111.308414 
L 230.679545 111.331976 
L 231.525 112.112209 
L 232.370455 112.107662 
L 234.061364 112.939459 
L 234.906818 112.911468 
L 235.752273 113.465421 
L 236.597727 113.402406 
L 238.288636 113.972966 
L 239.134091 113.95876 
L 239.979545 114.460295 
L 240.825 114.475482 
L 242.515909 115.1918 
L 243.361364 115.386236 
L 244.206818 115.902673 
L 245.052273 116.007875 
L 245.897727 116.484725 
L 247.588636 116.970003 
L 248.434091 117.338181 
L 249.279545 117.440942 
L 250.125 117.858138 
L 250.970455 117.968986 
L 252.661364 118.553534 
L 253.506818 118.790855 
L 254.352273 119.161441 
L 255.197727 119.338796 
L 256.043182 119.778963 
L 256.888636 119.961281 
L 257.734091 120.377142 
L 259.425 120.953378 
L 263.652273 122.404498 
L 264.497727 122.570649 
L 265.343182 122.96615 
L 266.188636 123.132719 
L 267.034091 123.541584 
L 267.879545 123.710433 
L 268.725 124.135283 
L 269.570455 124.292991 
L 270.415909 124.734933 
L 271.261364 124.863569 
L 272.106818 125.331284 
L 272.952273 125.402608 
L 273.797727 125.922131 
L 274.643182 125.899028 
L 275.488636 126.515815 
L 276.334091 126.372414 
L 277.179545 127.146383 
L 278.025 126.848539 
L 278.870455 127.832977 
L 279.715909 127.378873 
L 280.561364 128.523186 
L 281.406818 128.046841 
L 282.252273 129.010588 
L 283.097727 128.778728 
L 283.943182 129.127516 
L 284.788636 129.344623 
L 285.634091 129.083749 
L 286.479545 129.672655 
L 287.325 129.185171 
L 288.170455 129.914996 
L 289.015909 129.633916 
L 289.861364 130.206377 
L 291.552273 130.535255 
L 292.397727 131.032569 
L 293.243182 130.927162 
L 294.088636 131.553388 
L 294.934091 131.3906 
L 295.779545 131.881563 
L 296.625 131.864898 
L 297.470455 132.026497 
L 298.315909 132.30185 
L 299.161364 132.239696 
L 300.006818 132.699222 
L 300.852273 132.580273 
L 301.697727 133.105768 
L 302.543182 133.099468 
L 303.388636 133.53226 
L 305.079545 133.959698 
L 305.925 134.276456 
L 306.770455 134.374131 
L 307.615909 134.78657 
L 308.461364 134.791088 
L 309.306818 135.239933 
L 310.152273 135.240838 
L 310.997727 135.666593 
L 311.843182 135.727823 
L 312.688636 136.109412 
L 313.534091 136.235759 
L 314.379545 136.556302 
L 316.070455 137.027711 
L 322.834091 138.931553 
L 323.679545 139.35475 
L 324.525 139.364973 
L 325.370455 139.919395 
L 326.215909 139.766864 
L 327.061364 140.614198 
L 327.906818 140.364974 
L 328.752273 141.466239 
L 329.597727 140.907535 
L 330.443182 142.280224 
L 331.288636 141.533189 
L 332.134091 142.841698 
L 332.979545 142.369977 
L 333.825 142.803411 
L 334.670455 142.977051 
L 335.515909 142.384612 
L 336.361364 143.053339 
L 337.206818 142.211338 
L 338.052273 142.786196 
L 338.897727 142.518879 
L 339.743182 142.610307 
L 340.588636 143.090633 
L 341.434091 142.61066 
L 342.279545 144.139924 
L 343.125 143.986306 
L 343.970455 144.074649 
L 344.815909 143.806837 
L 345.661364 143.271893 
L 346.506818 143.36596 
L 347.352273 142.854656 
L 348.197727 143.147462 
L 349.043182 143.056517 
L 349.888636 143.326718 
L 350.734091 143.853899 
L 351.579545 143.991151 
L 352.425 144.866765 
L 353.270455 145.129631 
L 354.115909 145.72907 
L 354.961364 146.041063 
L 355.806818 146.205119 
L 356.652273 146.601721 
L 357.497727 146.435807 
L 358.343182 146.628117 
L 359.188636 146.428746 
L 360.879545 146.628412 
L 361.725 146.672972 
L 362.570455 147.111563 
L 363.415909 147.232565 
L 364.261364 147.712917 
L 365.106818 147.759144 
L 365.952273 148.094318 
L 367.643182 148.438312 
L 377.788636 151.935973 
L 378.634091 152.091059 
L 379.479545 152.363934 
L 380.325 152.496897 
L 381.170455 152.816287 
L 382.015909 152.912412 
L 382.861364 153.253611 
L 383.706818 153.315076 
L 384.552273 153.702415 
L 385.397727 153.689036 
L 386.243182 154.117754 
L 387.088636 154.091003 
L 387.934091 154.540933 
L 388.779545 154.499465 
L 389.625 155.134953 
L 390.470455 155.088765 
L 391.315909 155.834413 
L 392.161364 155.584024 
L 393.006818 156.382415 
L 393.852273 155.923996 
L 394.697727 156.860832 
L 395.543182 156.306852 
L 396.388636 157.342301 
L 397.234091 156.79365 
L 398.079545 157.608554 
L 398.925 157.180866 
L 399.770455 157.490957 
L 401.461364 157.213867 
L 402.306818 157.522685 
L 403.152273 157.151284 
L 403.997727 157.824169 
L 404.843182 157.422695 
L 405.688636 158.263836 
L 406.534091 157.948874 
L 407.379545 158.643292 
L 408.225 158.673273 
L 409.070455 159.021324 
L 409.915909 159.179177 
L 410.761364 159.202673 
L 411.606818 159.683046 
L 412.452273 159.480994 
L 413.297727 159.983793 
L 414.143182 159.662315 
L 414.988636 160.05084 
L 415.834091 159.936458 
L 416.679545 160.303639 
L 418.370455 160.724238 
L 419.215909 161.06484 
L 420.061364 161.121907 
L 420.906818 161.483425 
L 421.752273 161.38869 
L 422.597727 161.737339 
L 423.443182 161.630028 
L 424.288636 161.977125 
L 425.134091 161.951148 
L 425.979545 162.267755 
L 426.825 162.31209 
L 430.206818 163.043381 
L 432.743182 163.914711 
L 433.588636 164.288706 
L 434.434091 164.46914 
L 435.279545 164.831104 
L 436.125 164.91915 
L 436.970455 165.284891 
L 437.815909 165.226639 
L 438.661364 165.594566 
L 439.506818 165.438762 
L 440.352273 165.916591 
L 441.197727 165.59992 
L 442.043182 166.244046 
L 442.888636 165.699498 
L 443.734091 166.611565 
L 444.579545 165.832415 
L 445.425 167.065298 
L 446.270455 166.193293 
L 447.115909 167.291324 
L 447.961364 166.549926 
L 448.806818 165.382517 
L 450.497727 160.86636 
L 451.343182 159.758096 
L 452.188636 157.631895 
L 453.034091 157.351251 
L 453.879545 156.021315 
L 454.725 156.160163 
L 455.570455 156.025132 
L 456.415909 156.2224 
L 457.261364 157.131691 
L 458.106818 157.316786 
L 458.952273 158.692385 
L 459.797727 159.209311 
L 460.643182 160.325934 
L 461.488636 161.204849 
L 462.334091 161.61159 
L 463.179545 162.576665 
L 464.025 162.803755 
L 464.870455 163.714861 
L 465.715909 164.054593 
L 468.252273 166.073865 
L 469.097727 167.106363 
L 469.943182 167.577809 
L 470.788636 168.46551 
L 472.479545 169.383361 
L 473.325 169.918519 
L 474.170455 170.172187 
L 475.015909 170.581764 
L 475.861364 170.478986 
L 476.706818 170.688854 
L 477.552273 170.618469 
L 479.243182 170.873054 
L 480.088636 170.933179 
L 480.934091 171.197639 
L 481.779545 171.26671 
L 482.625 171.645988 
L 483.470455 171.758565 
L 484.315909 172.156499 
L 485.161364 172.341169 
L 486.852273 172.908022 
L 489.388636 173.560473 
L 491.079545 173.995013 
L 491.925 174.464916 
L 492.770455 174.484015 
L 493.615909 174.90131 
L 494.461364 174.802815 
L 495.306818 175.159831 
L 496.152273 175.037245 
L 496.997727 175.381471 
L 497.843182 175.314644 
L 498.688636 175.650701 
L 499.534091 175.673207 
L 500.379545 176.009165 
L 501.225 176.125529 
L 502.070455 176.461112 
L 502.915909 176.623259 
L 503.761364 176.947265 
L 506.297727 177.61326 
L 507.143182 177.883994 
L 512.215909 178.772495 
L 513.061364 178.765125 
L 513.906818 179.051228 
L 514.752273 178.974348 
L 515.597727 179.372213 
L 516.443182 179.156731 
L 517.288636 179.734915 
L 518.134091 179.288379 
L 518.979545 180.170405 
L 519.825 179.375533 
L 520.670455 180.699799 
L 521.515909 179.527633 
L 522.361364 181.269307 
L 523.206818 179.93756 
L 524.052273 181.266409 
L 524.897727 180.54176 
L 525.743182 180.145158 
L 526.588636 180.721765 
L 527.434091 179.271279 
L 528.279545 179.900141 
L 529.125 179.151365 
L 529.970455 178.770871 
L 530.815909 179.330632 
L 531.661364 178.409216 
L 532.506818 179.210065 
L 533.352273 178.904594 
L 534.197727 178.875085 
L 535.043182 179.600987 
L 535.888636 179.040722 
L 536.734091 179.487423 
L 537.579545 179.555616 
L 538.425 179.184279 
L 539.270455 179.705217 
L 540.115909 179.237351 
L 540.961364 179.292171 
L 541.806818 179.566997 
L 542.652273 179.167726 
L 543.497727 179.648505 
L 544.343182 179.584127 
L 545.188636 179.656966 
L 546.034091 180.135133 
L 546.879545 179.961284 
L 547.725 180.359406 
L 548.570455 180.493139 
L 549.415909 180.442847 
L 550.261364 180.850266 
L 551.106818 180.714432 
L 552.797727 181.092133 
L 553.643182 180.996742 
L 554.488636 181.353402 
L 555.334091 181.348538 
L 559.561364 182.26651 
L 559.561364 182.26651 
" style="fill:none;stroke:#2ca02c;stroke-linecap:square;stroke-width:1.5;"/>
   </g>
   <g id="line2d_16">
    <path clip-path="url(#p160e7baaf6)" d="M 52.288636 277.059475 
L 53.134091 278.727558 
L 53.979545 294.779698 
L 54.825 288.884995 
L 55.670455 284.835505 
L 56.515909 288.961019 
L 58.206818 303.083053 
L 59.052273 307.255829 
L 59.897727 308.893647 
L 61.588636 309.393914 
L 62.434091 310.692126 
L 63.279545 313.600489 
L 64.125 317.578788 
L 65.815909 326.405866 
L 66.661364 328.667721 
L 67.506818 329.488439 
L 68.352273 327.689376 
L 70.043182 321.984783 
L 70.888636 318.559337 
L 71.734091 314.445984 
L 72.579545 308.738059 
L 73.425 301.905782 
L 74.270455 292.981646 
L 75.961364 271.3117 
L 78.497727 235.622162 
L 80.188636 211.228829 
L 81.879545 195.554536 
L 83.570455 183.238485 
L 84.415909 180.880955 
L 86.106818 171.207703 
L 86.952273 168.54168 
L 87.797727 163.693148 
L 88.643182 158.10547 
L 89.488636 153.980197 
L 92.025 136.328613 
L 92.870455 135.086395 
L 93.715909 134.336607 
L 94.561364 135.208745 
L 96.252273 138.005915 
L 97.097727 139.311808 
L 98.788636 143.839147 
L 100.479545 147.8974 
L 102.170455 151.351716 
L 103.861364 154.223383 
L 105.552273 156.665404 
L 106.397727 157.526475 
L 108.934091 160.931113 
L 110.625 162.333255 
L 112.315909 164.648652 
L 113.161364 165.454929 
L 114.006818 166.00052 
L 114.852273 166.899505 
L 115.697727 168.107127 
L 116.543182 168.944215 
L 117.388636 169.409895 
L 118.234091 170.130843 
L 119.079545 171.262255 
L 119.925 172.179094 
L 121.615909 173.494794 
L 122.461364 174.441196 
L 123.306818 175.178379 
L 124.152273 175.693486 
L 124.997727 176.440735 
L 125.843182 177.404318 
L 128.379545 179.572663 
L 130.070455 181.310939 
L 131.761364 183.00605 
L 135.143182 186.76 
L 138.525 190.423392 
L 142.752273 194.492517 
L 153.743182 205.026361 
L 157.970455 208.709896 
L 165.579545 214.765336 
L 178.261364 223.892621 
L 189.252273 230.90655 
L 201.088636 237.794291 
L 207.852273 241.388783 
L 215.461364 245.164595 
L 223.070455 248.733755 
L 227.297727 250.543238 
L 228.143182 250.998594 
L 228.988636 251.230063 
L 229.834091 251.781876 
L 230.679545 251.861478 
L 231.525 252.656771 
L 232.370455 252.424604 
L 233.215909 253.735241 
L 234.061364 253.120691 
L 234.906818 254.989139 
L 235.752273 254.429631 
L 236.597727 255.62419 
L 237.443182 256.122598 
L 238.288636 255.650247 
L 239.134091 256.661419 
L 239.979545 256.215563 
L 240.825 255.942969 
L 241.670455 256.66641 
L 242.515909 255.908151 
L 243.361364 256.104092 
L 244.206818 256.63506 
L 245.052273 256.10368 
L 245.897727 256.777289 
L 246.743182 257.086336 
L 247.588636 256.93083 
L 248.434091 257.750024 
L 250.125 257.804153 
L 250.970455 258.537856 
L 251.815909 258.311324 
L 252.661364 258.378646 
L 253.506818 258.929477 
L 254.352273 258.58613 
L 255.197727 258.818635 
L 256.043182 259.198747 
L 256.888636 258.925257 
L 257.734091 259.359469 
L 258.579545 259.573052 
L 259.425 259.497011 
L 260.270455 260.045174 
L 261.961364 260.315533 
L 262.806818 260.840687 
L 263.652273 260.859865 
L 265.343182 261.556565 
L 266.188636 261.551527 
L 267.034091 261.948898 
L 268.725 262.17806 
L 269.570455 262.556984 
L 270.415909 262.594389 
L 272.106818 263.151934 
L 272.952273 263.226759 
L 273.797727 263.615389 
L 275.488636 264.000826 
L 276.334091 264.359848 
L 277.179545 264.47108 
L 278.870455 265.012413 
L 279.715909 265.167447 
L 280.561364 265.489122 
L 281.406818 265.597122 
L 283.097727 266.078753 
L 283.943182 266.234174 
L 284.788636 266.541008 
L 285.634091 266.684784 
L 287.325 267.190752 
L 289.861364 267.834247 
L 291.552273 268.304914 
L 308.461364 272.387381 
L 310.997727 272.931556 
L 313.534091 273.567091 
L 316.070455 274.092427 
L 316.915909 274.35633 
L 317.761364 274.453982 
L 318.606818 274.755314 
L 319.452273 274.80375 
L 320.297727 275.175614 
L 321.143182 275.132742 
L 321.988636 275.643603 
L 322.834091 275.442026 
L 323.679545 276.202381 
L 324.525 275.766862 
L 325.370455 276.939902 
L 326.215909 276.18966 
L 327.061364 277.906762 
L 327.906818 277.050309 
L 328.752273 278.500016 
L 329.597727 278.323356 
L 330.443182 277.856899 
L 331.288636 278.795991 
L 332.134091 277.658973 
L 332.979545 277.452068 
L 333.825 277.770653 
L 334.670455 276.646848 
L 335.515909 276.848275 
L 336.361364 276.779627 
L 337.206818 276.2049 
L 338.052273 276.866392 
L 338.897727 276.704109 
L 339.743182 276.690441 
L 340.588636 277.489964 
L 341.434091 277.240012 
L 342.279545 277.402241 
L 343.125 277.964599 
L 343.970455 277.563717 
L 344.815909 277.666497 
L 345.661364 277.916985 
L 346.506818 277.441653 
L 348.197727 277.659601 
L 349.043182 277.327992 
L 349.888636 277.640216 
L 350.734091 277.709633 
L 351.579545 277.664929 
L 352.425 278.135068 
L 354.115909 278.34953 
L 354.961364 278.766896 
L 355.806818 278.726195 
L 357.497727 279.146245 
L 358.343182 279.024157 
L 359.188636 279.227335 
L 360.034091 279.291808 
L 360.879545 279.239831 
L 361.725 279.498115 
L 363.415909 279.644551 
L 364.261364 279.920792 
L 365.106818 279.965924 
L 366.797727 280.431039 
L 367.643182 280.516047 
L 368.488636 280.787516 
L 370.179545 280.97813 
L 371.025 281.158649 
L 371.870455 281.168765 
L 373.561364 281.43331 
L 374.406818 281.506606 
L 375.252273 281.708424 
L 376.943182 281.960444 
L 380.325 282.529465 
L 383.706818 283.034294 
L 387.088636 283.439837 
L 390.470455 283.982984 
L 397.234091 284.912068 
L 404.843182 285.992908 
L 436.970455 290.226941 
L 437.815909 290.058474 
L 438.661364 290.588221 
L 439.506818 290.100445 
L 440.352273 291.245455 
L 441.197727 290.060634 
L 442.043182 293.09412 
L 442.888636 291.912942 
L 443.734091 295.491762 
L 444.579545 296.228652 
L 445.425 294.608477 
L 446.270455 296.175926 
L 447.115909 295.358334 
L 447.961364 292.308961 
L 448.806818 291.457739 
L 449.652273 290.113363 
L 450.497727 287.274347 
L 451.343182 285.352526 
L 452.188636 284.830866 
L 453.034091 283.515909 
L 453.879545 282.675744 
L 454.725 283.940854 
L 455.570455 284.170298 
L 456.415909 284.037323 
L 457.261364 285.988585 
L 458.106818 286.654598 
L 458.952273 286.080412 
L 460.643182 287.382662 
L 461.488636 286.593985 
L 462.334091 285.605665 
L 463.179545 285.689068 
L 464.025 285.099136 
L 464.870455 283.791514 
L 465.715909 283.517697 
L 466.561364 283.637853 
L 467.406818 283.169669 
L 468.252273 283.107914 
L 469.097727 283.957554 
L 469.943182 284.309719 
L 470.788636 284.395625 
L 471.634091 285.225056 
L 472.479545 285.8377 
L 473.325 285.787523 
L 474.170455 285.947717 
L 475.015909 286.383849 
L 475.861364 286.241942 
L 476.706818 285.834069 
L 478.397727 285.917105 
L 479.243182 285.523955 
L 480.088636 285.479632 
L 480.934091 285.793201 
L 482.625 285.887453 
L 483.470455 286.399084 
L 484.315909 286.749519 
L 485.161364 286.833887 
L 486.852273 287.511782 
L 488.543182 287.531075 
L 489.388636 287.725104 
L 490.234091 287.697751 
L 491.079545 287.554564 
L 492.770455 287.74457 
L 493.615909 287.685238 
L 494.461364 287.808809 
L 495.306818 288.056109 
L 496.997727 288.323898 
L 497.843182 288.617475 
L 501.225 289.234323 
L 502.915909 289.345216 
L 504.606818 289.466999 
L 507.143182 289.753519 
L 508.834091 290.014282 
L 513.906818 290.717641 
L 515.597727 290.861235 
L 519.825 291.240567 
L 548.570455 294.096413 
L 559.561364 295.063747 
L 559.561364 295.063747 
" style="fill:none;stroke:#d62728;stroke-linecap:square;stroke-width:1.5;"/>
   </g>
   <g id="line2d_17">
    <path clip-path="url(#p160e7baaf6)" d="M 52.288636 277.059475 
L 53.134091 275.334954 
L 53.979545 291.91851 
L 54.825 289.493223 
L 55.670455 282.510474 
L 56.515909 280.036421 
L 57.361364 282.474831 
L 59.052273 292.160182 
L 59.897727 294.175747 
L 60.743182 293.772624 
L 62.434091 289.93724 
L 63.279545 289.422855 
L 64.125 290.791456 
L 66.661364 299.28735 
L 67.506818 300.518049 
L 68.352273 300.495746 
L 69.197727 299.731101 
L 70.043182 299.238331 
L 70.888636 299.345786 
L 71.734091 300.21203 
L 72.579545 301.658421 
L 73.425 303.365579 
L 74.270455 304.813376 
L 75.115909 305.899026 
L 77.652273 307.645362 
L 79.343182 307.594567 
L 80.188636 307.763661 
L 81.034091 307.269217 
L 81.879545 306.943714 
L 82.725 307.110016 
L 83.570455 305.885807 
L 84.415909 304.165976 
L 85.261364 302.145055 
L 86.106818 298.734131 
L 87.797727 294.913611 
L 89.488636 290.675392 
L 90.334091 290.270189 
L 91.179545 289.306781 
L 92.870455 286.720381 
L 94.561364 288.999344 
L 95.406818 289.177188 
L 96.252273 288.692149 
L 97.097727 288.421748 
L 97.943182 287.957569 
L 98.788636 286.327939 
L 99.634091 283.505653 
L 101.325 275.695533 
L 102.170455 270.027194 
L 103.861364 255.205845 
L 104.706818 246.730578 
L 106.397727 226.894765 
L 108.088636 221.407323 
L 110.625 229.19567 
L 112.315909 234.78168 
L 114.006818 240.4888 
L 114.852273 242.427828 
L 115.697727 243.187539 
L 116.543182 243.658999 
L 117.388636 244.767796 
L 118.234091 245.026546 
L 119.079545 244.017352 
L 119.925 242.745063 
L 120.770455 242.747563 
L 121.615909 242.964417 
L 123.306818 242.156305 
L 124.152273 242.748178 
L 124.997727 243.556201 
L 125.843182 244.11934 
L 126.688636 244.962397 
L 127.534091 246.186978 
L 128.379545 247.155509 
L 129.225 248.299874 
L 130.915909 250.949829 
L 133.452273 253.160519 
L 134.297727 253.567484 
L 135.143182 253.669493 
L 138.525 254.676723 
L 140.215909 256.025723 
L 141.906818 257.527549 
L 143.597727 259.417195 
L 146.134091 261.609767 
L 147.825 262.778972 
L 149.515909 263.8165 
L 156.279545 268.365801 
L 158.815909 269.600947 
L 165.579545 272.689838 
L 168.115909 273.483916 
L 174.879545 275.245072 
L 178.261364 275.683284 
L 198.552273 277.906892 
L 202.779545 278.161827 
L 207.852273 278.261669 
L 215.461364 278.153338 
L 217.997727 277.975706 
L 223.915909 277.384951 
L 226.452273 276.788217 
L 231.525 275.636486 
L 234.906818 275.168673 
L 237.443182 275.078475 
L 240.825 275.319815 
L 245.052273 275.645378 
L 249.279545 275.603313 
L 258.579545 275.454013 
L 259.425 275.491628 
L 260.270455 275.400729 
L 261.115909 275.507506 
L 261.961364 275.299814 
L 262.806818 275.629019 
L 263.652273 275.222301 
L 264.497727 275.670554 
L 265.343182 275.377685 
L 266.188636 275.385111 
L 267.034091 275.610647 
L 267.879545 275.318065 
L 268.725 275.522738 
L 269.570455 275.584073 
L 270.415909 275.3704 
L 271.261364 275.585678 
L 272.952273 275.338103 
L 273.797727 275.506179 
L 274.643182 275.336204 
L 276.334091 275.488146 
L 277.179545 275.316886 
L 278.025 275.470941 
L 279.715909 275.410645 
L 280.561364 275.580755 
L 281.406818 275.486663 
L 283.097727 275.629531 
L 283.943182 275.564519 
L 284.788636 275.725611 
L 285.634091 275.678509 
L 287.325 275.826345 
L 288.170455 275.759836 
L 289.015909 275.885698 
L 289.861364 275.829812 
L 293.243182 275.99278 
L 294.088636 275.93558 
L 295.779545 276.005379 
L 301.697727 276.137106 
L 302.543182 276.353992 
L 303.388636 276.206806 
L 304.234091 276.416428 
L 305.079545 276.29716 
L 305.925 276.418015 
L 307.615909 276.408752 
L 308.461364 276.508508 
L 309.306818 276.394218 
L 310.152273 276.576937 
L 310.997727 276.43805 
L 311.843182 276.682406 
L 312.688636 276.570825 
L 313.534091 276.767842 
L 314.379545 276.699253 
L 316.070455 276.808572 
L 316.915909 276.756787 
L 317.761364 276.869366 
L 318.606818 276.737547 
L 319.452273 276.893927 
L 320.297727 276.76936 
L 321.143182 276.93388 
L 321.988636 276.856507 
L 322.834091 276.992661 
L 324.525 277.027571 
L 327.906818 277.035273 
L 328.752273 277.101401 
L 329.597727 277.051527 
L 330.443182 277.17811 
L 331.288636 277.077112 
L 332.134091 277.291647 
L 332.979545 277.104032 
L 333.825 277.450653 
L 334.670455 277.175109 
L 335.515909 277.55454 
L 336.361364 277.288875 
L 337.206818 277.471204 
L 338.897727 277.364722 
L 339.743182 277.578212 
L 340.588636 277.32725 
L 341.434091 277.540714 
L 342.279545 277.421048 
L 343.970455 277.571042 
L 344.815909 277.438158 
L 345.661364 277.621791 
L 346.506818 277.448465 
L 347.352273 277.583413 
L 349.043182 277.506613 
L 349.888636 277.581367 
L 350.734091 277.416487 
L 351.579545 277.574663 
L 352.425 277.429528 
L 353.270455 277.585101 
L 354.115909 277.535399 
L 355.806818 277.663027 
L 356.652273 277.620833 
L 357.497727 277.740556 
L 358.343182 277.638414 
L 359.188636 277.779958 
L 360.034091 277.681333 
L 360.879545 277.789425 
L 362.570455 277.798704 
L 369.334091 277.865617 
L 370.179545 278.060343 
L 371.025 277.905504 
L 371.870455 278.124759 
L 372.715909 277.962886 
L 373.561364 278.16909 
L 374.406818 278.033685 
L 375.252273 278.185443 
L 376.097727 278.107504 
L 377.788636 278.172278 
L 382.861364 278.324421 
L 383.706818 278.192039 
L 384.552273 278.353782 
L 385.397727 278.171787 
L 386.243182 278.384217 
L 387.088636 278.196953 
L 387.934091 278.435561 
L 388.779545 278.267587 
L 389.625 278.438926 
L 390.470455 278.346404 
L 392.161364 278.432547 
L 394.697727 278.380872 
L 395.543182 278.505742 
L 396.388636 278.385663 
L 397.234091 278.51859 
L 398.079545 278.405555 
L 398.925 278.494632 
L 399.770455 278.415977 
L 402.306818 278.478494 
L 408.225 278.671626 
L 409.070455 278.547508 
L 409.915909 278.720244 
L 410.761364 278.600601 
L 411.606818 278.81767 
L 412.452273 278.680285 
L 413.297727 278.887274 
L 414.143182 278.758894 
L 414.988636 278.901571 
L 416.679545 278.884442 
L 419.215909 278.954471 
L 420.061364 278.839311 
L 420.906818 278.946236 
L 421.752273 278.832771 
L 422.597727 278.917731 
L 423.443182 278.844961 
L 426.825 278.910393 
L 427.670455 278.860746 
L 428.515909 278.92562 
L 429.361364 278.863207 
L 430.206818 278.949918 
L 431.052273 278.879177 
L 431.897727 278.968476 
L 432.743182 278.902421 
L 433.588636 278.983476 
L 434.434091 278.922904 
L 435.279545 278.997428 
L 437.815909 278.985036 
L 441.197727 279.043225 
L 443.734091 279.003597 
L 444.579545 279.077176 
L 445.425 279.023523 
L 446.270455 279.128767 
L 447.115909 279.043687 
L 447.961364 279.18486 
L 448.806818 279.0586 
L 449.652273 279.248459 
L 450.497727 279.087699 
L 451.343182 279.316009 
L 452.188636 279.14392 
L 453.034091 279.336655 
L 453.879545 279.221281 
L 455.570455 279.316026 
L 456.415909 279.221698 
L 457.261364 279.349119 
L 458.106818 279.210485 
L 458.952273 279.280619 
L 460.643182 279.17986 
L 461.488636 279.229257 
L 462.334091 279.121636 
L 463.179545 279.222555 
L 464.025 279.109336 
L 464.870455 279.19193 
L 466.561364 279.157737 
L 469.097727 279.182618 
L 469.943182 279.079971 
L 470.788636 279.165347 
L 471.634091 279.064385 
L 473.325 279.051132 
L 504.606818 278.74297 
L 505.452273 278.628598 
L 506.297727 278.761949 
L 507.143182 278.620591 
L 507.988636 278.791008 
L 508.834091 278.614376 
L 509.679545 278.815907 
L 510.525 278.621585 
L 511.370455 278.809463 
L 512.215909 278.633644 
L 513.061364 278.718625 
L 516.443182 278.466737 
L 517.288636 278.584165 
L 518.134091 278.409972 
L 518.979545 278.544502 
L 519.825 278.435026 
L 521.515909 278.479835 
L 525.743182 278.366261 
L 526.588636 278.457799 
L 527.434091 278.373001 
L 529.125 278.385143 
L 532.506818 278.378482 
L 536.734091 278.294417 
L 537.579545 278.373717 
L 538.425 278.276583 
L 539.270455 278.350841 
L 540.115909 278.255388 
L 540.961364 278.297957 
L 542.652273 278.221458 
L 545.188636 278.135847 
L 549.415909 278.181614 
L 550.261364 278.108654 
L 551.106818 278.166773 
L 551.952273 278.081879 
L 552.797727 278.15851 
L 553.643182 278.056694 
L 554.488636 278.145658 
L 555.334091 278.024446 
L 556.179545 278.103125 
L 557.025 277.971686 
L 557.870455 278.040233 
L 558.715909 277.927587 
L 559.561364 277.96432 
L 559.561364 277.96432 
" style="fill:none;stroke:#9467bd;stroke-linecap:square;stroke-width:1.5;"/>
   </g>
   <g id="line2d_18">
    <path clip-path="url(#p160e7baaf6)" d="M 52.288636 277.059475 
L 53.134091 273.075351 
L 53.979545 289.210459 
L 54.825 289.965035 
L 55.670455 283.984254 
L 56.515909 278.976648 
L 57.361364 277.784977 
L 58.206818 280.735471 
L 59.052273 285.328452 
L 59.897727 288.993959 
L 60.743182 290.276935 
L 61.588636 289.278782 
L 63.279545 285.084248 
L 64.125 284.52194 
L 64.970455 285.618506 
L 67.506818 292.426474 
L 68.352273 293.246543 
L 69.197727 293.104276 
L 70.888636 291.638011 
L 71.734091 291.294483 
L 72.579545 291.891045 
L 73.425 293.237045 
L 75.115909 296.303481 
L 75.961364 297.29199 
L 76.806818 297.468141 
L 78.497727 296.624029 
L 79.343182 296.588152 
L 80.188636 297.108064 
L 81.034091 298.165139 
L 82.725 300.800254 
L 83.570455 301.843657 
L 84.415909 302.461239 
L 85.261364 302.753259 
L 86.106818 303.209932 
L 86.952273 303.86402 
L 87.797727 305.014238 
L 88.643182 305.885044 
L 89.488636 307.84399 
L 90.334091 311.396393 
L 91.179545 314.402339 
L 92.870455 317.654727 
L 93.715909 318.595091 
L 94.561364 318.610654 
L 95.406818 320.628751 
L 96.252273 321.524232 
L 97.097727 320.355704 
L 97.943182 317.805001 
L 98.788636 316.340148 
L 99.634091 314.049692 
L 100.479545 311.21273 
L 103.015909 304.906745 
L 105.552273 297.028774 
L 106.397727 293.320972 
L 108.088636 289.401754 
L 109.779545 287.087268 
L 110.625 286.865104 
L 111.470455 286.885731 
L 113.161364 286.098046 
L 114.006818 285.708183 
L 114.852273 285.522111 
L 115.697727 285.584401 
L 116.543182 285.305011 
L 117.388636 284.773505 
L 118.234091 284.376945 
L 119.079545 283.538478 
L 120.770455 284.297081 
L 121.615909 285.219809 
L 122.461364 285.200662 
L 124.152273 283.007596 
L 125.843182 281.904305 
L 126.688636 280.635342 
L 127.534091 279.004809 
L 128.379545 277.937096 
L 129.225 277.488372 
L 130.070455 277.454954 
L 130.915909 277.874109 
L 131.761364 278.827204 
L 134.297727 283.820629 
L 135.143182 284.726555 
L 135.988636 285.369709 
L 136.834091 286.247965 
L 138.525 288.32408 
L 141.061364 290.955992 
L 143.597727 294.25912 
L 145.288636 295.832166 
L 146.134091 296.512428 
L 146.979545 297.047785 
L 147.825 297.362052 
L 148.670455 297.47254 
L 150.361364 297.537705 
L 152.052273 297.665421 
L 155.434091 297.423462 
L 156.279545 297.319761 
L 159.661364 296.515587 
L 163.888636 296.659864 
L 166.425 296.975456 
L 168.961364 297.114119 
L 174.034091 297.896536 
L 175.725 298.017558 
L 178.261364 298.036448 
L 181.643182 298.192626 
L 185.870455 298.042143 
L 188.406818 298.024414 
L 206.161364 298.184888 
L 229.834091 297.506197 
L 266.188636 296.921791 
L 279.715909 296.358163 
L 297.470455 295.756933 
L 305.079545 295.50141 
L 320.297727 294.866559 
L 339.743182 294.027746 
L 355.806818 293.226118 
L 362.570455 292.906067 
L 368.488636 292.580445 
L 382.015909 291.845063 
L 393.006818 291.317656 
L 436.970455 289.52971 
L 452.188636 289.128972 
L 502.915909 287.962812 
L 522.361364 287.631325 
L 533.352273 287.464184 
L 559.561364 287.16629 
L 559.561364 287.16629 
" style="fill:none;stroke:#8c564b;stroke-linecap:square;stroke-width:1.5;"/>
   </g>
   <g id="line2d_19">
    <path clip-path="url(#p160e7baaf6)" d="M 52.288636 277.059475 
L 53.134091 271.868468 
L 53.979545 287.870387 
L 54.825 289.972038 
L 56.515909 279.02451 
L 57.361364 276.126162 
L 58.206818 277.501547 
L 59.897727 285.254685 
L 60.743182 287.816808 
L 61.588636 288.106231 
L 62.434091 286.575216 
L 63.279545 284.55309 
L 64.125 283.0773 
L 64.970455 282.769748 
L 65.815909 283.940529 
L 68.352273 290.126074 
L 69.197727 290.782884 
L 70.043182 290.415967 
L 71.734091 288.601052 
L 72.579545 288.443586 
L 73.425 289.201262 
L 74.270455 290.579566 
L 75.115909 292.207149 
L 75.961364 293.542186 
L 76.806818 294.22183 
L 77.652273 294.182494 
L 79.343182 293.140062 
L 80.188636 292.995352 
L 81.034091 293.530725 
L 83.570455 296.697707 
L 84.415909 296.971795 
L 85.261364 296.697263 
L 86.106818 296.151364 
L 86.952273 295.781489 
L 87.797727 295.793755 
L 88.643182 296.487448 
L 90.334091 299.194435 
L 91.179545 300.08708 
L 92.025 300.60019 
L 92.870455 300.743493 
L 94.561364 301.613175 
L 95.406818 302.506543 
L 96.252273 304.329897 
L 97.097727 307.262406 
L 97.943182 309.402825 
L 99.634091 311.25368 
L 100.479545 312.445313 
L 102.170455 315.610113 
L 103.015909 316.739452 
L 103.861364 319.238812 
L 104.706818 320.92598 
L 105.552273 321.697055 
L 106.397727 323.222974 
L 107.243182 323.145203 
L 108.088636 321.431887 
L 109.779545 316.902922 
L 110.625 314.557387 
L 113.161364 306.164724 
L 117.388636 299.273944 
L 118.234091 298.224964 
L 119.079545 297.359905 
L 119.925 296.689122 
L 120.770455 296.952637 
L 122.461364 296.774844 
L 123.306818 297.173075 
L 124.997727 296.659385 
L 125.843182 296.772523 
L 126.688636 296.08702 
L 127.534091 295.103945 
L 128.379545 294.331376 
L 129.225 293.205387 
L 130.070455 291.781898 
L 130.915909 292.614965 
L 131.761364 293.026485 
L 132.606818 292.620274 
L 134.297727 292.53719 
L 135.143182 291.88912 
L 135.988636 290.898531 
L 137.679545 289.759873 
L 139.370455 287.996406 
L 140.215909 287.708271 
L 141.061364 287.746741 
L 142.752273 287.706888 
L 144.443182 288.139791 
L 145.288636 288.010653 
L 146.134091 287.647336 
L 146.979545 287.126308 
L 148.670455 286.482377 
L 149.515909 286.361851 
L 150.361364 286.608217 
L 152.052273 287.672498 
L 153.743182 289.133598 
L 155.434091 290.732718 
L 157.125 291.998968 
L 157.970455 292.41981 
L 158.815909 292.71108 
L 160.506818 292.861408 
L 162.197727 292.870298 
L 163.888636 292.622547 
L 169.806818 291.38487 
L 174.034091 291.547929 
L 176.570455 291.825561 
L 183.334091 291.560566 
L 185.025 291.411557 
L 188.406818 290.910707 
L 190.097727 290.754344 
L 200.243182 289.181054 
L 205.315909 288.813224 
L 208.697727 288.593327 
L 217.152273 288.239086 
L 227.297727 288.072002 
L 245.897727 287.673881 
L 260.270455 286.98685 
L 272.952273 286.693666 
L 292.397727 286.553828 
L 303.388636 286.541568 
L 314.379545 286.400933 
L 335.515909 286.206624 
L 348.197727 286.195828 
L 362.570455 286.379167 
L 439.506818 286.832794 
L 441.197727 286.888685 
L 446.270455 286.95762 
L 448.806818 286.953966 
L 451.343182 287.018785 
L 453.879545 287.008889 
L 456.415909 287.084825 
L 459.797727 287.131982 
L 466.561364 287.186156 
L 467.406818 287.254489 
L 468.252273 287.199141 
L 469.097727 287.273954 
L 469.943182 287.22146 
L 470.788636 287.311499 
L 471.634091 287.261936 
L 474.170455 287.373583 
L 477.552273 287.411285 
L 481.779545 287.496596 
L 482.625 287.443038 
L 483.470455 287.534386 
L 485.161364 287.528476 
L 488.543182 287.557845 
L 491.079545 287.63553 
L 491.925 287.592905 
L 492.770455 287.67521 
L 493.615909 287.621067 
L 494.461364 287.721971 
L 495.306818 287.610724 
L 496.152273 287.769342 
L 496.997727 287.650032 
L 497.843182 287.795651 
L 498.688636 287.678084 
L 499.534091 287.785011 
L 502.915909 287.759817 
L 503.761364 287.827906 
L 504.606818 287.762485 
L 505.452273 287.85011 
L 506.297727 287.788608 
L 507.143182 287.885201 
L 507.988636 287.815522 
L 508.834091 287.902282 
L 510.525 287.917041 
L 513.061364 287.927115 
L 559.561364 288.564069 
L 559.561364 288.564069 
" style="fill:none;stroke:#e377c2;stroke-linecap:square;stroke-width:1.5;"/>
   </g>
   <g id="line2d_20">
    <path clip-path="url(#p160e7baaf6)" d="M 52.288636 277.059475 
L 53.134091 271.158737 
L 53.979545 287.109309 
L 54.825 289.838556 
L 56.515909 279.191299 
L 57.361364 275.676729 
L 58.206818 276.14448 
L 59.052273 279.387294 
L 59.897727 283.202837 
L 60.743182 286.007604 
L 61.588636 286.864381 
L 62.434091 285.754804 
L 64.125 282.187112 
L 64.970455 281.361818 
L 65.815909 281.723425 
L 66.661364 283.139161 
L 68.352273 286.921574 
L 69.197727 288.036264 
L 70.043182 288.258864 
L 70.888636 287.825925 
L 71.734091 287.126651 
L 72.579545 286.714621 
L 73.425 286.842258 
L 74.270455 287.671193 
L 75.961364 290.412958 
L 76.806818 291.409572 
L 77.652273 291.774529 
L 78.497727 291.62344 
L 80.188636 290.929169 
L 81.034091 291.092184 
L 81.879545 291.628214 
L 83.570455 293.643879 
L 84.415909 294.341001 
L 85.261364 294.589179 
L 86.106818 294.418017 
L 86.952273 294.029363 
L 87.797727 293.782829 
L 88.643182 293.985382 
L 89.488636 294.61254 
L 90.334091 295.384005 
L 91.179545 295.904618 
L 92.025 296.038549 
L 92.870455 295.678564 
L 93.715909 295.03897 
L 94.561364 294.803432 
L 95.406818 295.377134 
L 97.943182 299.474373 
L 98.788636 299.92119 
L 99.634091 300.168548 
L 100.479545 300.538878 
L 102.170455 302.916628 
L 103.015909 304.409202 
L 103.861364 306.525003 
L 104.706818 307.770922 
L 105.552273 308.114641 
L 106.397727 308.819717 
L 107.243182 310.026151 
L 108.088636 313.195158 
L 108.934091 315.27713 
L 110.625 317.171201 
L 111.470455 317.668855 
L 112.315909 317.825696 
L 114.006818 319.084152 
L 114.852273 319.4562 
L 115.697727 320.343096 
L 116.543182 320.379906 
L 118.234091 319.74524 
L 120.770455 317.494308 
L 121.615909 316.43372 
L 124.997727 309.849998 
L 128.379545 301.608318 
L 129.225 299.647543 
L 130.915909 295.167065 
L 131.761364 293.080359 
L 132.606818 291.716133 
L 133.452273 290.647015 
L 134.297727 289.886496 
L 135.143182 289.891635 
L 135.988636 290.112737 
L 136.834091 290.495423 
L 137.679545 290.497128 
L 138.525 290.096566 
L 140.215909 288.729203 
L 141.061364 288.558755 
L 141.906818 288.609365 
L 142.752273 289.363903 
L 143.597727 289.858272 
L 144.443182 289.888735 
L 145.288636 289.743227 
L 146.134091 289.093869 
L 149.515909 285.171424 
L 150.361364 284.350825 
L 151.206818 284.09933 
L 152.052273 284.295714 
L 152.897727 284.840054 
L 153.743182 285.774134 
L 156.279545 289.204889 
L 157.125 290.095883 
L 157.970455 290.647435 
L 158.815909 290.809769 
L 160.506818 290.799394 
L 166.425 290.40545 
L 169.806818 290.549772 
L 174.034091 290.35005 
L 176.570455 290.519726 
L 179.952273 291.000381 
L 184.179545 291.180158 
L 186.715909 291.095196 
L 190.943182 291.028189 
L 195.170455 291.296755 
L 196.861364 291.405422 
L 198.552273 291.458265 
L 200.243182 291.581836 
L 206.161364 291.439958 
L 209.543182 291.514092 
L 215.461364 291.607006 
L 218.843182 291.644486 
L 236.597727 291.956056 
L 240.825 292.013602 
L 254.352273 292.450339 
L 262.806818 292.394384 
L 278.025 292.122956 
L 289.861364 291.863841 
L 346.506818 290.122364 
L 386.243182 289.703053 
L 394.697727 289.933493 
L 398.925 290.073326 
L 408.225 290.009796 
L 433.588636 289.600949 
L 437.815909 289.566104 
L 448.806818 289.468235 
L 455.570455 289.447765 
L 463.179545 289.395249 
L 471.634091 289.376663 
L 475.861364 289.35095 
L 482.625 289.359747 
L 527.434091 289.448291 
L 528.279545 289.516061 
L 529.970455 289.486072 
L 538.425 289.552917 
L 540.961364 289.558233 
L 551.952273 289.664547 
L 556.179545 289.698701 
L 559.561364 289.730577 
L 559.561364 289.730577 
" style="fill:none;stroke:#7f7f7f;stroke-linecap:square;stroke-width:1.5;"/>
   </g>
   <g id="line2d_21">
    <path clip-path="url(#p160e7baaf6)" d="M 52.288636 277.059475 
L 53.134091 270.433692 
L 53.979545 286.38989 
L 54.825 289.701823 
L 57.361364 275.153174 
L 58.206818 274.827128 
L 59.052273 277.563997 
L 59.897727 281.262681 
L 60.743182 284.36194 
L 61.588636 285.719364 
L 62.434091 285.210447 
L 64.125 282.028159 
L 64.970455 280.892074 
L 65.815909 280.708721 
L 66.661364 281.531066 
L 69.197727 286.072118 
L 70.043182 286.648996 
L 70.888636 286.514551 
L 72.579545 285.388706 
L 73.425 285.083999 
L 74.270455 285.263532 
L 75.115909 285.922261 
L 76.806818 287.839798 
L 77.652273 288.535916 
L 78.497727 288.863331 
L 79.343182 288.919598 
L 81.034091 288.707236 
L 81.879545 288.860301 
L 82.725 289.310879 
L 85.261364 291.32949 
L 86.106818 291.610233 
L 87.797727 291.652904 
L 89.488636 291.80241 
L 90.334091 292.123138 
L 92.025 293.137168 
L 92.870455 293.462255 
L 93.715909 293.529681 
L 96.252273 293.428772 
L 97.943182 293.859586 
L 98.788636 294.142146 
L 99.634091 294.289892 
L 102.170455 293.632125 
L 103.015909 293.697777 
L 103.861364 294.198846 
L 104.706818 294.945033 
L 106.397727 295.951865 
L 107.243182 296.248489 
L 108.088636 297.000156 
L 108.934091 297.988114 
L 110.625 301.152149 
L 111.470455 302.038852 
L 114.006818 302.915488 
L 114.852273 303.044344 
L 115.697727 303.427871 
L 116.543182 304.27287 
L 117.388636 307.471596 
L 118.234091 309.197612 
L 119.079545 309.354837 
L 119.925 310.088227 
L 120.770455 309.761124 
L 121.615909 309.668309 
L 122.461364 309.393154 
L 124.997727 313.898185 
L 125.843182 315.610001 
L 126.688636 317.001784 
L 127.534091 317.93476 
L 128.379545 318.414862 
L 129.225 319.055779 
L 130.070455 319.202971 
L 130.915909 319.202653 
L 131.761364 318.689861 
L 132.606818 317.911294 
L 133.452273 316.783138 
L 135.143182 313.780322 
L 135.988636 312.493135 
L 136.834091 311.661173 
L 137.679545 311.203335 
L 138.525 311.110179 
L 139.370455 311.23788 
L 140.215909 311.510083 
L 141.906818 312.762955 
L 144.443182 314.951571 
L 146.134091 315.907977 
L 146.979545 316.0964 
L 148.670455 316.103939 
L 149.515909 315.861688 
L 152.897727 314.250728 
L 155.434091 313.620462 
L 157.970455 313.855515 
L 159.661364 314.349247 
L 160.506818 314.51945 
L 162.197727 315.027085 
L 165.579545 315.481775 
L 168.115909 315.33669 
L 169.806818 315.177516 
L 181.643182 313.948151 
L 185.870455 313.307967 
L 189.252273 313.074085 
L 201.934091 312.684168 
L 210.388636 311.989722 
L 219.688636 311.522517 
L 239.134091 311.028783 
L 271.261364 310.775127 
L 289.861364 310.843844 
L 319.452273 310.922786 
L 331.288636 310.533236 
L 379.479545 308.733594 
L 400.615909 308.211456 
L 482.625 306.721717 
L 485.161364 306.719237 
L 486.852273 306.686516 
L 490.234091 306.581445 
L 491.079545 306.631753 
L 491.925 306.554776 
L 493.615909 306.540301 
L 496.997727 306.502051 
L 501.225 306.411906 
L 503.761364 306.425477 
L 504.606818 306.346077 
L 505.452273 306.413432 
L 506.297727 306.317286 
L 507.143182 306.393651 
L 507.988636 306.293941 
L 508.834091 306.364162 
L 509.679545 306.278751 
L 511.370455 306.284972 
L 518.979545 306.157795 
L 519.825 306.221951 
L 521.515909 306.183985 
L 526.588636 306.093953 
L 527.434091 306.138487 
L 528.279545 306.062904 
L 529.125 306.125738 
L 529.970455 306.036678 
L 530.815909 306.102534 
L 531.661364 306.020649 
L 533.352273 306.00992 
L 536.734091 305.979638 
L 539.270455 305.897765 
L 540.115909 305.95298 
L 540.961364 305.860984 
L 541.806818 305.934966 
L 542.652273 305.824088 
L 543.497727 305.905721 
L 544.343182 305.801384 
L 545.188636 305.863463 
L 546.879545 305.804758 
L 551.106818 305.78623 
L 551.952273 305.706336 
L 552.797727 305.765787 
L 554.488636 305.73025 
L 557.870455 305.636981 
L 559.561364 305.608178 
L 559.561364 305.608178 
" style="fill:none;stroke:#bcbd22;stroke-linecap:square;stroke-width:1.5;"/>
   </g>
   <g id="patch_4">
    <path d="M 26.925 582.9575 
L 26.925 39.3575 
" style="fill:none;stroke:#000000;stroke-linecap:square;stroke-linejoin:miter;stroke-width:0.8;"/>
   </g>
   <g id="patch_5">
    <path d="M 584.925 582.9575 
L 584.925 39.3575 
" style="fill:none;stroke:#000000;stroke-linecap:square;stroke-linejoin:miter;stroke-width:0.8;"/>
   </g>
   <g id="patch_6">
    <path d="M 26.925 582.9575 
L 584.925 582.9575 
" style="fill:none;stroke:#000000;stroke-linecap:square;stroke-linejoin:miter;stroke-width:0.8;"/>
   </g>
   <g id="patch_7">
    <path d="M 26.925 39.3575 
L 584.925 39.3575 
" style="fill:none;stroke:#000000;stroke-linecap:square;stroke-linejoin:miter;stroke-width:0.8;"/>
   </g>
   <g id="text_14">
    <!-- Class separation -->
    <g transform="translate(443.734091 577.5215)scale(0.1 -0.1)">
     <defs>
      <path d="M 64.40625 67.28125 
L 64.40625 56.890625 
Q 59.421875 61.53125 53.78125 63.8125 
Q 48.140625 66.109375 41.796875 66.109375 
Q 29.296875 66.109375 22.65625 58.46875 
Q 16.015625 50.828125 16.015625 36.375 
Q 16.015625 21.96875 22.65625 14.328125 
Q 29.296875 6.6875 41.796875 6.6875 
Q 48.140625 6.6875 53.78125 8.984375 
Q 59.421875 11.28125 64.40625 15.921875 
L 64.40625 5.609375 
Q 59.234375 2.09375 53.4375 0.328125 
Q 47.65625 -1.421875 41.21875 -1.421875 
Q 24.65625 -1.421875 15.125 8.703125 
Q 5.609375 18.84375 5.609375 36.375 
Q 5.609375 53.953125 15.125 64.078125 
Q 24.65625 74.21875 41.21875 74.21875 
Q 47.75 74.21875 53.53125 72.484375 
Q 59.328125 70.75 64.40625 67.28125 
z
" id="DejaVuSans-67"/>
      <path d="M 9.421875 75.984375 
L 18.40625 75.984375 
L 18.40625 0 
L 9.421875 0 
z
" id="DejaVuSans-108"/>
      <path d="M 34.28125 27.484375 
Q 23.390625 27.484375 19.1875 25 
Q 14.984375 22.515625 14.984375 16.5 
Q 14.984375 11.71875 18.140625 8.90625 
Q 21.296875 6.109375 26.703125 6.109375 
Q 34.1875 6.109375 38.703125 11.40625 
Q 43.21875 16.703125 43.21875 25.484375 
L 43.21875 27.484375 
z
M 52.203125 31.203125 
L 52.203125 0 
L 43.21875 0 
L 43.21875 8.296875 
Q 40.140625 3.328125 35.546875 0.953125 
Q 30.953125 -1.421875 24.3125 -1.421875 
Q 15.921875 -1.421875 10.953125 3.296875 
Q 6 8.015625 6 15.921875 
Q 6 25.140625 12.171875 29.828125 
Q 18.359375 34.515625 30.609375 34.515625 
L 43.21875 34.515625 
L 43.21875 35.40625 
Q 43.21875 41.609375 39.140625 45 
Q 35.0625 48.390625 27.6875 48.390625 
Q 23 48.390625 18.546875 47.265625 
Q 14.109375 46.140625 10.015625 43.890625 
L 10.015625 52.203125 
Q 14.9375 54.109375 19.578125 55.046875 
Q 24.21875 56 28.609375 56 
Q 40.484375 56 46.34375 49.84375 
Q 52.203125 43.703125 52.203125 31.203125 
z
" id="DejaVuSans-97"/>
      <path id="DejaVuSans-32"/>
      <path d="M 56.203125 29.59375 
L 56.203125 25.203125 
L 14.890625 25.203125 
Q 15.484375 15.921875 20.484375 11.0625 
Q 25.484375 6.203125 34.421875 6.203125 
Q 39.59375 6.203125 44.453125 7.46875 
Q 49.3125 8.734375 54.109375 11.28125 
L 54.109375 2.78125 
Q 49.265625 0.734375 44.1875 -0.34375 
Q 39.109375 -1.421875 33.890625 -1.421875 
Q 20.796875 -1.421875 13.15625 6.1875 
Q 5.515625 13.8125 5.515625 26.8125 
Q 5.515625 40.234375 12.765625 48.109375 
Q 20.015625 56 32.328125 56 
Q 43.359375 56 49.78125 48.890625 
Q 56.203125 41.796875 56.203125 29.59375 
z
M 47.21875 32.234375 
Q 47.125 39.59375 43.09375 43.984375 
Q 39.0625 48.390625 32.421875 48.390625 
Q 24.90625 48.390625 20.390625 44.140625 
Q 15.875 39.890625 15.1875 32.171875 
z
" id="DejaVuSans-101"/>
      <path d="M 41.109375 46.296875 
Q 39.59375 47.171875 37.8125 47.578125 
Q 36.03125 48 33.890625 48 
Q 26.265625 48 22.1875 43.046875 
Q 18.109375 38.09375 18.109375 28.8125 
L 18.109375 0 
L 9.078125 0 
L 9.078125 54.6875 
L 18.109375 54.6875 
L 18.109375 46.1875 
Q 20.953125 51.171875 25.484375 53.578125 
Q 30.03125 56 36.53125 56 
Q 37.453125 56 38.578125 55.875 
Q 39.703125 55.765625 41.0625 55.515625 
z
" id="DejaVuSans-114"/>
      <path d="M 18.3125 70.21875 
L 18.3125 54.6875 
L 36.8125 54.6875 
L 36.8125 47.703125 
L 18.3125 47.703125 
L 18.3125 18.015625 
Q 18.3125 11.328125 20.140625 9.421875 
Q 21.96875 7.515625 27.59375 7.515625 
L 36.8125 7.515625 
L 36.8125 0 
L 27.59375 0 
Q 17.1875 0 13.234375 3.875 
Q 9.28125 7.765625 9.28125 18.015625 
L 9.28125 47.703125 
L 2.6875 47.703125 
L 2.6875 54.6875 
L 9.28125 54.6875 
L 9.28125 70.21875 
z
" id="DejaVuSans-116"/>
      <path d="M 9.421875 54.6875 
L 18.40625 54.6875 
L 18.40625 0 
L 9.421875 0 
z
M 9.421875 75.984375 
L 18.40625 75.984375 
L 18.40625 64.59375 
L 9.421875 64.59375 
z
" id="DejaVuSans-105"/>
      <path d="M 54.890625 33.015625 
L 54.890625 0 
L 45.90625 0 
L 45.90625 32.71875 
Q 45.90625 40.484375 42.875 44.328125 
Q 39.84375 48.1875 33.796875 48.1875 
Q 26.515625 48.1875 22.3125 43.546875 
Q 18.109375 38.921875 18.109375 30.90625 
L 18.109375 0 
L 9.078125 0 
L 9.078125 54.6875 
L 18.109375 54.6875 
L 18.109375 46.1875 
Q 21.34375 51.125 25.703125 53.5625 
Q 30.078125 56 35.796875 56 
Q 45.21875 56 50.046875 50.171875 
Q 54.890625 44.34375 54.890625 33.015625 
z
" id="DejaVuSans-110"/>
     </defs>
     <use xlink:href="#DejaVuSans-67"/>
     <use x="69.824219" xlink:href="#DejaVuSans-108"/>
     <use x="97.607422" xlink:href="#DejaVuSans-97"/>
     <use x="158.886719" xlink:href="#DejaVuSans-115"/>
     <use x="210.986328" xlink:href="#DejaVuSans-115"/>
     <use x="263.085938" xlink:href="#DejaVuSans-32"/>
     <use x="294.873047" xlink:href="#DejaVuSans-115"/>
     <use x="346.972656" xlink:href="#DejaVuSans-101"/>
     <use x="408.496094" xlink:href="#DejaVuSans-112"/>
     <use x="471.972656" xlink:href="#DejaVuSans-97"/>
     <use x="533.251953" xlink:href="#DejaVuSans-114"/>
     <use x="574.365234" xlink:href="#DejaVuSans-97"/>
     <use x="635.644531" xlink:href="#DejaVuSans-116"/>
     <use x="674.853516" xlink:href="#DejaVuSans-105"/>
     <use x="702.636719" xlink:href="#DejaVuSans-111"/>
     <use x="763.818359" xlink:href="#DejaVuSans-110"/>
    </g>
   </g>
   <g id="text_15">
    <!-- Distance from final baseline solution -->
    <g transform="translate(159.74125 19.3575)scale(0.16 -0.16)">
     <defs>
      <path d="M 19.671875 64.796875 
L 19.671875 8.109375 
L 31.59375 8.109375 
Q 46.6875 8.109375 53.6875 14.9375 
Q 60.6875 21.78125 60.6875 36.53125 
Q 60.6875 51.171875 53.6875 57.984375 
Q 46.6875 64.796875 31.59375 64.796875 
z
M 9.8125 72.90625 
L 30.078125 72.90625 
Q 51.265625 72.90625 61.171875 64.09375 
Q 71.09375 55.28125 71.09375 36.53125 
Q 71.09375 17.671875 61.125 8.828125 
Q 51.171875 0 30.078125 0 
L 9.8125 0 
z
" id="DejaVuSans-68"/>
      <path d="M 37.109375 75.984375 
L 37.109375 68.5 
L 28.515625 68.5 
Q 23.6875 68.5 21.796875 66.546875 
Q 19.921875 64.59375 19.921875 59.515625 
L 19.921875 54.6875 
L 34.71875 54.6875 
L 34.71875 47.703125 
L 19.921875 47.703125 
L 19.921875 0 
L 10.890625 0 
L 10.890625 47.703125 
L 2.296875 47.703125 
L 2.296875 54.6875 
L 10.890625 54.6875 
L 10.890625 58.5 
Q 10.890625 67.625 15.140625 71.796875 
Q 19.390625 75.984375 28.609375 75.984375 
z
" id="DejaVuSans-102"/>
      <path d="M 52 44.1875 
Q 55.375 50.25 60.0625 53.125 
Q 64.75 56 71.09375 56 
Q 79.640625 56 84.28125 50.015625 
Q 88.921875 44.046875 88.921875 33.015625 
L 88.921875 0 
L 79.890625 0 
L 79.890625 32.71875 
Q 79.890625 40.578125 77.09375 44.375 
Q 74.3125 48.1875 68.609375 48.1875 
Q 61.625 48.1875 57.5625 43.546875 
Q 53.515625 38.921875 53.515625 30.90625 
L 53.515625 0 
L 44.484375 0 
L 44.484375 32.71875 
Q 44.484375 40.625 41.703125 44.40625 
Q 38.921875 48.1875 33.109375 48.1875 
Q 26.21875 48.1875 22.15625 43.53125 
Q 18.109375 38.875 18.109375 30.90625 
L 18.109375 0 
L 9.078125 0 
L 9.078125 54.6875 
L 18.109375 54.6875 
L 18.109375 46.1875 
Q 21.1875 51.21875 25.484375 53.609375 
Q 29.78125 56 35.6875 56 
Q 41.65625 56 45.828125 52.96875 
Q 50 49.953125 52 44.1875 
z
" id="DejaVuSans-109"/>
      <path d="M 48.6875 27.296875 
Q 48.6875 37.203125 44.609375 42.84375 
Q 40.53125 48.484375 33.40625 48.484375 
Q 26.265625 48.484375 22.1875 42.84375 
Q 18.109375 37.203125 18.109375 27.296875 
Q 18.109375 17.390625 22.1875 11.75 
Q 26.265625 6.109375 33.40625 6.109375 
Q 40.53125 6.109375 44.609375 11.75 
Q 48.6875 17.390625 48.6875 27.296875 
z
M 18.109375 46.390625 
Q 20.953125 51.265625 25.265625 53.625 
Q 29.59375 56 35.59375 56 
Q 45.5625 56 51.78125 48.09375 
Q 58.015625 40.1875 58.015625 27.296875 
Q 58.015625 14.40625 51.78125 6.484375 
Q 45.5625 -1.421875 35.59375 -1.421875 
Q 29.59375 -1.421875 25.265625 0.953125 
Q 20.953125 3.328125 18.109375 8.203125 
L 18.109375 0 
L 9.078125 0 
L 9.078125 75.984375 
L 18.109375 75.984375 
z
" id="DejaVuSans-98"/>
      <path d="M 8.5 21.578125 
L 8.5 54.6875 
L 17.484375 54.6875 
L 17.484375 21.921875 
Q 17.484375 14.15625 20.5 10.265625 
Q 23.53125 6.390625 29.59375 6.390625 
Q 36.859375 6.390625 41.078125 11.03125 
Q 45.3125 15.671875 45.3125 23.6875 
L 45.3125 54.6875 
L 54.296875 54.6875 
L 54.296875 0 
L 45.3125 0 
L 45.3125 8.40625 
Q 42.046875 3.421875 37.71875 1 
Q 33.40625 -1.421875 27.6875 -1.421875 
Q 18.265625 -1.421875 13.375 4.4375 
Q 8.5 10.296875 8.5 21.578125 
z
M 31.109375 56 
z
" id="DejaVuSans-117"/>
     </defs>
     <use xlink:href="#DejaVuSans-68"/>
     <use x="77.001953" xlink:href="#DejaVuSans-105"/>
     <use x="104.785156" xlink:href="#DejaVuSans-115"/>
     <use x="156.884766" xlink:href="#DejaVuSans-116"/>
     <use x="196.09375" xlink:href="#DejaVuSans-97"/>
     <use x="257.373047" xlink:href="#DejaVuSans-110"/>
     <use x="320.751953" xlink:href="#DejaVuSans-99"/>
     <use x="375.732422" xlink:href="#DejaVuSans-101"/>
     <use x="437.255859" xlink:href="#DejaVuSans-32"/>
     <use x="469.042969" xlink:href="#DejaVuSans-102"/>
     <use x="504.248047" xlink:href="#DejaVuSans-114"/>
     <use x="543.111328" xlink:href="#DejaVuSans-111"/>
     <use x="604.292969" xlink:href="#DejaVuSans-109"/>
     <use x="701.705078" xlink:href="#DejaVuSans-32"/>
     <use x="733.492188" xlink:href="#DejaVuSans-102"/>
     <use x="768.697266" xlink:href="#DejaVuSans-105"/>
     <use x="796.480469" xlink:href="#DejaVuSans-110"/>
     <use x="859.859375" xlink:href="#DejaVuSans-97"/>
     <use x="921.138672" xlink:href="#DejaVuSans-108"/>
     <use x="948.921875" xlink:href="#DejaVuSans-32"/>
     <use x="980.708984" xlink:href="#DejaVuSans-98"/>
     <use x="1044.185547" xlink:href="#DejaVuSans-97"/>
     <use x="1105.464844" xlink:href="#DejaVuSans-115"/>
     <use x="1157.564453" xlink:href="#DejaVuSans-101"/>
     <use x="1219.087891" xlink:href="#DejaVuSans-108"/>
     <use x="1246.871094" xlink:href="#DejaVuSans-105"/>
     <use x="1274.654297" xlink:href="#DejaVuSans-110"/>
     <use x="1338.033203" xlink:href="#DejaVuSans-101"/>
     <use x="1399.556641" xlink:href="#DejaVuSans-32"/>
     <use x="1431.34375" xlink:href="#DejaVuSans-115"/>
     <use x="1483.443359" xlink:href="#DejaVuSans-111"/>
     <use x="1544.625" xlink:href="#DejaVuSans-108"/>
     <use x="1572.408203" xlink:href="#DejaVuSans-117"/>
     <use x="1635.787109" xlink:href="#DejaVuSans-116"/>
     <use x="1674.996094" xlink:href="#DejaVuSans-105"/>
     <use x="1702.779297" xlink:href="#DejaVuSans-111"/>
     <use x="1763.960938" xlink:href="#DejaVuSans-110"/>
    </g>
   </g>
   <g id="legend_1">
    <g id="line2d_22">
     <path d="M 49.917187 628.671938 
L 69.917187 628.671938 
" style="fill:none;stroke:#1f77b4;stroke-linecap:square;stroke-width:1.5;"/>
    </g>
    <g id="line2d_23"/>
    <g id="text_16">
     <!-- Baseline -->
     <g transform="translate(77.917187 632.171938)scale(0.1 -0.1)">
      <defs>
       <path d="M 19.671875 34.8125 
L 19.671875 8.109375 
L 35.5 8.109375 
Q 43.453125 8.109375 47.28125 11.40625 
Q 51.125 14.703125 51.125 21.484375 
Q 51.125 28.328125 47.28125 31.5625 
Q 43.453125 34.8125 35.5 34.8125 
z
M 19.671875 64.796875 
L 19.671875 42.828125 
L 34.28125 42.828125 
Q 41.5 42.828125 45.03125 45.53125 
Q 48.578125 48.25 48.578125 53.8125 
Q 48.578125 59.328125 45.03125 62.0625 
Q 41.5 64.796875 34.28125 64.796875 
z
M 9.8125 72.90625 
L 35.015625 72.90625 
Q 46.296875 72.90625 52.390625 68.21875 
Q 58.5 63.53125 58.5 54.890625 
Q 58.5 48.1875 55.375 44.234375 
Q 52.25 40.28125 46.1875 39.3125 
Q 53.46875 37.75 57.5 32.78125 
Q 61.53125 27.828125 61.53125 20.40625 
Q 61.53125 10.640625 54.890625 5.3125 
Q 48.25 0 35.984375 0 
L 9.8125 0 
z
" id="DejaVuSans-66"/>
      </defs>
      <use xlink:href="#DejaVuSans-66"/>
      <use x="68.603516" xlink:href="#DejaVuSans-97"/>
      <use x="129.882812" xlink:href="#DejaVuSans-115"/>
      <use x="181.982422" xlink:href="#DejaVuSans-101"/>
      <use x="243.505859" xlink:href="#DejaVuSans-108"/>
      <use x="271.289062" xlink:href="#DejaVuSans-105"/>
      <use x="299.072266" xlink:href="#DejaVuSans-110"/>
      <use x="362.451172" xlink:href="#DejaVuSans-101"/>
     </g>
    </g>
    <g id="line2d_24">
     <path d="M 49.917187 643.350063 
L 69.917187 643.350063 
" style="fill:none;stroke:#ff7f0e;stroke-linecap:square;stroke-width:1.5;"/>
    </g>
    <g id="line2d_25"/>
    <g id="text_17">
     <!-- Forced normaliz. -->
     <g transform="translate(77.917187 646.850063)scale(0.1 -0.1)">
      <defs>
       <path d="M 9.8125 72.90625 
L 51.703125 72.90625 
L 51.703125 64.59375 
L 19.671875 64.59375 
L 19.671875 43.109375 
L 48.578125 43.109375 
L 48.578125 34.8125 
L 19.671875 34.8125 
L 19.671875 0 
L 9.8125 0 
z
" id="DejaVuSans-70"/>
       <path d="M 45.40625 46.390625 
L 45.40625 75.984375 
L 54.390625 75.984375 
L 54.390625 0 
L 45.40625 0 
L 45.40625 8.203125 
Q 42.578125 3.328125 38.25 0.953125 
Q 33.9375 -1.421875 27.875 -1.421875 
Q 17.96875 -1.421875 11.734375 6.484375 
Q 5.515625 14.40625 5.515625 27.296875 
Q 5.515625 40.1875 11.734375 48.09375 
Q 17.96875 56 27.875 56 
Q 33.9375 56 38.25 53.625 
Q 42.578125 51.265625 45.40625 46.390625 
z
M 14.796875 27.296875 
Q 14.796875 17.390625 18.875 11.75 
Q 22.953125 6.109375 30.078125 6.109375 
Q 37.203125 6.109375 41.296875 11.75 
Q 45.40625 17.390625 45.40625 27.296875 
Q 45.40625 37.203125 41.296875 42.84375 
Q 37.203125 48.484375 30.078125 48.484375 
Q 22.953125 48.484375 18.875 42.84375 
Q 14.796875 37.203125 14.796875 27.296875 
z
" id="DejaVuSans-100"/>
       <path d="M 5.515625 54.6875 
L 48.1875 54.6875 
L 48.1875 46.484375 
L 14.40625 7.171875 
L 48.1875 7.171875 
L 48.1875 0 
L 4.296875 0 
L 4.296875 8.203125 
L 38.09375 47.515625 
L 5.515625 47.515625 
z
" id="DejaVuSans-122"/>
       <path d="M 10.6875 12.40625 
L 21 12.40625 
L 21 0 
L 10.6875 0 
z
" id="DejaVuSans-46"/>
      </defs>
      <use xlink:href="#DejaVuSans-70"/>
      <use x="53.894531" xlink:href="#DejaVuSans-111"/>
      <use x="115.076172" xlink:href="#DejaVuSans-114"/>
      <use x="153.939453" xlink:href="#DejaVuSans-99"/>
      <use x="208.919922" xlink:href="#DejaVuSans-101"/>
      <use x="270.443359" xlink:href="#DejaVuSans-100"/>
      <use x="333.919922" xlink:href="#DejaVuSans-32"/>
      <use x="365.707031" xlink:href="#DejaVuSans-110"/>
      <use x="429.085938" xlink:href="#DejaVuSans-111"/>
      <use x="490.267578" xlink:href="#DejaVuSans-114"/>
      <use x="529.630859" xlink:href="#DejaVuSans-109"/>
      <use x="627.042969" xlink:href="#DejaVuSans-97"/>
      <use x="688.322266" xlink:href="#DejaVuSans-108"/>
      <use x="716.105469" xlink:href="#DejaVuSans-105"/>
      <use x="743.888672" xlink:href="#DejaVuSans-122"/>
      <use x="796.378906" xlink:href="#DejaVuSans-46"/>
     </g>
    </g>
    <g id="line2d_26">
     <path d="M 180.732813 628.671938 
L 200.732813 628.671938 
" style="fill:none;stroke:#2ca02c;stroke-linecap:square;stroke-width:1.5;"/>
    </g>
    <g id="line2d_27"/>
    <g id="text_18">
     <!-- $\lambda=0.005$ -->
     <g transform="translate(208.732813 632.171938)scale(0.1 -0.1)">
      <defs>
       <path d="M 36.71875 67.4375 
L 48.828125 0 
L 39.3125 0 
L 31.84375 40.4375 
L 5.125 0 
L -4.390625 0 
L 29.734375 52.4375 
L 28.03125 62.109375 
Q 26.953125 68.265625 21.734375 68.265625 
L 17.046875 68.265625 
L 18.5 75.984375 
L 24.21875 75.875 
Q 35.203125 75.734375 36.71875 67.4375 
z
" id="DejaVuSans-Oblique-955"/>
       <path d="M 10.59375 45.40625 
L 73.1875 45.40625 
L 73.1875 37.203125 
L 10.59375 37.203125 
z
M 10.59375 25.484375 
L 73.1875 25.484375 
L 73.1875 17.1875 
L 10.59375 17.1875 
z
" id="DejaVuSans-61"/>
      </defs>
      <use transform="translate(0 0.015625)" xlink:href="#DejaVuSans-Oblique-955"/>
      <use transform="translate(78.662109 0.015625)" xlink:href="#DejaVuSans-61"/>
      <use transform="translate(181.933594 0.015625)" xlink:href="#DejaVuSans-48"/>
      <use transform="translate(245.556641 0.015625)" xlink:href="#DejaVuSans-46"/>
      <use transform="translate(277.34375 0.015625)" xlink:href="#DejaVuSans-48"/>
      <use transform="translate(340.966797 0.015625)" xlink:href="#DejaVuSans-48"/>
      <use transform="translate(404.589844 0.015625)" xlink:href="#DejaVuSans-53"/>
     </g>
    </g>
    <g id="line2d_28">
     <path d="M 180.732813 643.350063 
L 200.732813 643.350063 
" style="fill:none;stroke:#d62728;stroke-linecap:square;stroke-width:1.5;"/>
    </g>
    <g id="line2d_29"/>
    <g id="text_19">
     <!-- $\lambda=0.05$ -->
     <g transform="translate(208.732813 646.850063)scale(0.1 -0.1)">
      <use transform="translate(0 0.015625)" xlink:href="#DejaVuSans-Oblique-955"/>
      <use transform="translate(78.662109 0.015625)" xlink:href="#DejaVuSans-61"/>
      <use transform="translate(181.933594 0.015625)" xlink:href="#DejaVuSans-48"/>
      <use transform="translate(245.556641 0.015625)" xlink:href="#DejaVuSans-46"/>
      <use transform="translate(277.34375 0.015625)" xlink:href="#DejaVuSans-48"/>
      <use transform="translate(340.966797 0.015625)" xlink:href="#DejaVuSans-53"/>
     </g>
    </g>
    <g id="line2d_30">
     <path d="M 275.632812 628.671938 
L 295.632812 628.671938 
" style="fill:none;stroke:#9467bd;stroke-linecap:square;stroke-width:1.5;"/>
    </g>
    <g id="line2d_31"/>
    <g id="text_20">
     <!-- $\lambda=0.5$ -->
     <g transform="translate(303.632812 632.171938)scale(0.1 -0.1)">
      <use transform="translate(0 0.015625)" xlink:href="#DejaVuSans-Oblique-955"/>
      <use transform="translate(78.662109 0.015625)" xlink:href="#DejaVuSans-61"/>
      <use transform="translate(181.933594 0.015625)" xlink:href="#DejaVuSans-48"/>
      <use transform="translate(245.556641 0.015625)" xlink:href="#DejaVuSans-46"/>
      <use transform="translate(277.34375 0.015625)" xlink:href="#DejaVuSans-53"/>
     </g>
    </g>
    <g id="line2d_32">
     <path d="M 275.632812 643.350063 
L 295.632812 643.350063 
" style="fill:none;stroke:#8c564b;stroke-linecap:square;stroke-width:1.5;"/>
    </g>
    <g id="line2d_33"/>
    <g id="text_21">
     <!-- $\lambda=1.5$ -->
     <g transform="translate(303.632812 646.850063)scale(0.1 -0.1)">
      <use transform="translate(0 0.015625)" xlink:href="#DejaVuSans-Oblique-955"/>
      <use transform="translate(78.662109 0.015625)" xlink:href="#DejaVuSans-61"/>
      <use transform="translate(181.933594 0.015625)" xlink:href="#DejaVuSans-49"/>
      <use transform="translate(245.556641 0.015625)" xlink:href="#DejaVuSans-46"/>
      <use transform="translate(277.34375 0.015625)" xlink:href="#DejaVuSans-53"/>
     </g>
    </g>
    <g id="line2d_34">
     <path d="M 357.732813 628.671938 
L 377.732813 628.671938 
" style="fill:none;stroke:#e377c2;stroke-linecap:square;stroke-width:1.5;"/>
    </g>
    <g id="line2d_35"/>
    <g id="text_22">
     <!-- $\lambda=3$ -->
     <g transform="translate(385.732813 632.171938)scale(0.1 -0.1)">
      <use transform="translate(0 0.015625)" xlink:href="#DejaVuSans-Oblique-955"/>
      <use transform="translate(78.662109 0.015625)" xlink:href="#DejaVuSans-61"/>
      <use transform="translate(181.933594 0.015625)" xlink:href="#DejaVuSans-51"/>
     </g>
    </g>
    <g id="line2d_36">
     <path d="M 430.332812 628.671938 
L 450.332812 628.671938 
" style="fill:none;stroke:#7f7f7f;stroke-linecap:square;stroke-width:1.5;"/>
    </g>
    <g id="line2d_37"/>
    <g id="text_23">
     <!-- $\lambda=5$ -->
     <g transform="translate(458.332812 632.171938)scale(0.1 -0.1)">
      <use transform="translate(0 0.015625)" xlink:href="#DejaVuSans-Oblique-955"/>
      <use transform="translate(78.662109 0.015625)" xlink:href="#DejaVuSans-61"/>
      <use transform="translate(181.933594 0.015625)" xlink:href="#DejaVuSans-53"/>
     </g>
    </g>
    <g id="line2d_38">
     <path d="M 502.932813 628.671938 
L 522.932812 628.671938 
" style="fill:none;stroke:#bcbd22;stroke-linecap:square;stroke-width:1.5;"/>
    </g>
    <g id="line2d_39"/>
    <g id="text_24">
     <!-- $\lambda=10$ -->
     <g transform="translate(530.932812 632.171938)scale(0.1 -0.1)">
      <use transform="translate(0 0.015625)" xlink:href="#DejaVuSans-Oblique-955"/>
      <use transform="translate(78.662109 0.015625)" xlink:href="#DejaVuSans-61"/>
      <use transform="translate(181.933594 0.015625)" xlink:href="#DejaVuSans-49"/>
      <use transform="translate(245.556641 0.015625)" xlink:href="#DejaVuSans-48"/>
     </g>
    </g>
   </g>
  </g>
 </g>
 <defs>
  <clipPath id="p160e7baaf6">
   <rect height="543.6" width="558" x="26.925" y="39.3575"/>
  </clipPath>
 </defs>
</svg>
