<?xml version="1.0" encoding="utf-8" standalone="no"?>
<!DOCTYPE svg PUBLIC "-//W3C//DTD SVG 1.1//EN"
  "http://www.w3.org/Graphics/SVG/1.1/DTD/svg11.dtd">
<!-- Created with matplotlib (https://matplotlib.org/) -->
<svg height="660.12975pt" version="1.1" viewBox="0 0 598.4875 660.12975" width="598.4875pt" xmlns="http://www.w3.org/2000/svg" xmlns:xlink="http://www.w3.org/1999/xlink">
 <metadata>
  <rdf:RDF xmlns:cc="http://creativecommons.org/ns#" xmlns:dc="http://purl.org/dc/elements/1.1/" xmlns:rdf="http://www.w3.org/1999/02/22-rdf-syntax-ns#">
   <cc:Work>
    <dc:type rdf:resource="http://purl.org/dc/dcmitype/StillImage"/>
    <dc:date>2021-01-13T11:49:41.211008</dc:date>
    <dc:format>image/svg+xml</dc:format>
    <dc:creator>
     <cc:Agent>
      <dc:title>Matplotlib v3.3.2, https://matplotlib.org/</dc:title>
     </cc:Agent>
    </dc:creator>
   </cc:Work>
  </rdf:RDF>
 </metadata>
 <defs>
  <style type="text/css">*{stroke-linecap:butt;stroke-linejoin:round;}</style>
 </defs>
 <g id="figure_1">
  <g id="patch_1">
   <path d="M 0 660.12975 
L 598.4875 660.12975 
L 598.4875 0 
L 0 0 
z
" style="fill:none;"/>
  </g>
  <g id="axes_1">
   <g id="patch_2">
    <path d="M 33.2875 582.9575 
L 591.2875 582.9575 
L 591.2875 39.3575 
L 33.2875 39.3575 
z
" style="fill:#ffffff;"/>
   </g>
   <g id="patch_3">
    <path clip-path="url(#p734ee8794b)" d="M 112.760227 582.9575 
L 449.251136 582.9575 
L 449.251136 39.3575 
L 112.760227 39.3575 
z
" style="fill:#1f77b4;opacity:0.2;"/>
   </g>
   <g id="matplotlib.axis_1">
    <g id="xtick_1">
     <g id="line2d_1">
      <defs>
       <path d="M 0 0 
L 0 3.5 
" id="mf264ad881f" style="stroke:#000000;stroke-width:0.8;"/>
      </defs>
      <g>
       <use style="stroke:#000000;stroke-width:0.8;" x="58.651136" xlink:href="#mf264ad881f" y="582.9575"/>
      </g>
     </g>
     <g id="text_1">
      <!-- 0 -->
      <g transform="translate(55.469886 597.555938)scale(0.1 -0.1)">
       <defs>
        <path d="M 31.78125 66.40625 
Q 24.171875 66.40625 20.328125 58.90625 
Q 16.5 51.421875 16.5 36.375 
Q 16.5 21.390625 20.328125 13.890625 
Q 24.171875 6.390625 31.78125 6.390625 
Q 39.453125 6.390625 43.28125 13.890625 
Q 47.125 21.390625 47.125 36.375 
Q 47.125 51.421875 43.28125 58.90625 
Q 39.453125 66.40625 31.78125 66.40625 
z
M 31.78125 74.21875 
Q 44.046875 74.21875 50.515625 64.515625 
Q 56.984375 54.828125 56.984375 36.375 
Q 56.984375 17.96875 50.515625 8.265625 
Q 44.046875 -1.421875 31.78125 -1.421875 
Q 19.53125 -1.421875 13.0625 8.265625 
Q 6.59375 17.96875 6.59375 36.375 
Q 6.59375 54.828125 13.0625 64.515625 
Q 19.53125 74.21875 31.78125 74.21875 
z
" id="DejaVuSans-48"/>
       </defs>
       <use xlink:href="#DejaVuSans-48"/>
      </g>
     </g>
    </g>
    <g id="xtick_2">
     <g id="line2d_2">
      <g>
       <use style="stroke:#000000;stroke-width:0.8;" x="143.196591" xlink:href="#mf264ad881f" y="582.9575"/>
      </g>
     </g>
     <g id="text_2">
      <!-- 100 -->
      <g transform="translate(133.652841 597.555938)scale(0.1 -0.1)">
       <defs>
        <path d="M 12.40625 8.296875 
L 28.515625 8.296875 
L 28.515625 63.921875 
L 10.984375 60.40625 
L 10.984375 69.390625 
L 28.421875 72.90625 
L 38.28125 72.90625 
L 38.28125 8.296875 
L 54.390625 8.296875 
L 54.390625 0 
L 12.40625 0 
z
" id="DejaVuSans-49"/>
       </defs>
       <use xlink:href="#DejaVuSans-49"/>
       <use x="63.623047" xlink:href="#DejaVuSans-48"/>
       <use x="127.246094" xlink:href="#DejaVuSans-48"/>
      </g>
     </g>
    </g>
    <g id="xtick_3">
     <g id="line2d_3">
      <g>
       <use style="stroke:#000000;stroke-width:0.8;" x="227.742045" xlink:href="#mf264ad881f" y="582.9575"/>
      </g>
     </g>
     <g id="text_3">
      <!-- 200 -->
      <g transform="translate(218.198295 597.555938)scale(0.1 -0.1)">
       <defs>
        <path d="M 19.1875 8.296875 
L 53.609375 8.296875 
L 53.609375 0 
L 7.328125 0 
L 7.328125 8.296875 
Q 12.9375 14.109375 22.625 23.890625 
Q 32.328125 33.6875 34.8125 36.53125 
Q 39.546875 41.84375 41.421875 45.53125 
Q 43.3125 49.21875 43.3125 52.78125 
Q 43.3125 58.59375 39.234375 62.25 
Q 35.15625 65.921875 28.609375 65.921875 
Q 23.96875 65.921875 18.8125 64.3125 
Q 13.671875 62.703125 7.8125 59.421875 
L 7.8125 69.390625 
Q 13.765625 71.78125 18.9375 73 
Q 24.125 74.21875 28.421875 74.21875 
Q 39.75 74.21875 46.484375 68.546875 
Q 53.21875 62.890625 53.21875 53.421875 
Q 53.21875 48.921875 51.53125 44.890625 
Q 49.859375 40.875 45.40625 35.40625 
Q 44.1875 33.984375 37.640625 27.21875 
Q 31.109375 20.453125 19.1875 8.296875 
z
" id="DejaVuSans-50"/>
       </defs>
       <use xlink:href="#DejaVuSans-50"/>
       <use x="63.623047" xlink:href="#DejaVuSans-48"/>
       <use x="127.246094" xlink:href="#DejaVuSans-48"/>
      </g>
     </g>
    </g>
    <g id="xtick_4">
     <g id="line2d_4">
      <g>
       <use style="stroke:#000000;stroke-width:0.8;" x="312.2875" xlink:href="#mf264ad881f" y="582.9575"/>
      </g>
     </g>
     <g id="text_4">
      <!-- 300 -->
      <g transform="translate(302.74375 597.555938)scale(0.1 -0.1)">
       <defs>
        <path d="M 40.578125 39.3125 
Q 47.65625 37.796875 51.625 33 
Q 55.609375 28.21875 55.609375 21.1875 
Q 55.609375 10.40625 48.1875 4.484375 
Q 40.765625 -1.421875 27.09375 -1.421875 
Q 22.515625 -1.421875 17.65625 -0.515625 
Q 12.796875 0.390625 7.625 2.203125 
L 7.625 11.71875 
Q 11.71875 9.328125 16.59375 8.109375 
Q 21.484375 6.890625 26.8125 6.890625 
Q 36.078125 6.890625 40.9375 10.546875 
Q 45.796875 14.203125 45.796875 21.1875 
Q 45.796875 27.640625 41.28125 31.265625 
Q 36.765625 34.90625 28.71875 34.90625 
L 20.21875 34.90625 
L 20.21875 43.015625 
L 29.109375 43.015625 
Q 36.375 43.015625 40.234375 45.921875 
Q 44.09375 48.828125 44.09375 54.296875 
Q 44.09375 59.90625 40.109375 62.90625 
Q 36.140625 65.921875 28.71875 65.921875 
Q 24.65625 65.921875 20.015625 65.03125 
Q 15.375 64.15625 9.8125 62.3125 
L 9.8125 71.09375 
Q 15.4375 72.65625 20.34375 73.4375 
Q 25.25 74.21875 29.59375 74.21875 
Q 40.828125 74.21875 47.359375 69.109375 
Q 53.90625 64.015625 53.90625 55.328125 
Q 53.90625 49.265625 50.4375 45.09375 
Q 46.96875 40.921875 40.578125 39.3125 
z
" id="DejaVuSans-51"/>
       </defs>
       <use xlink:href="#DejaVuSans-51"/>
       <use x="63.623047" xlink:href="#DejaVuSans-48"/>
       <use x="127.246094" xlink:href="#DejaVuSans-48"/>
      </g>
     </g>
    </g>
    <g id="xtick_5">
     <g id="line2d_5">
      <g>
       <use style="stroke:#000000;stroke-width:0.8;" x="396.832955" xlink:href="#mf264ad881f" y="582.9575"/>
      </g>
     </g>
     <g id="text_5">
      <!-- 400 -->
      <g transform="translate(387.289205 597.555938)scale(0.1 -0.1)">
       <defs>
        <path d="M 37.796875 64.3125 
L 12.890625 25.390625 
L 37.796875 25.390625 
z
M 35.203125 72.90625 
L 47.609375 72.90625 
L 47.609375 25.390625 
L 58.015625 25.390625 
L 58.015625 17.1875 
L 47.609375 17.1875 
L 47.609375 0 
L 37.796875 0 
L 37.796875 17.1875 
L 4.890625 17.1875 
L 4.890625 26.703125 
z
" id="DejaVuSans-52"/>
       </defs>
       <use xlink:href="#DejaVuSans-52"/>
       <use x="63.623047" xlink:href="#DejaVuSans-48"/>
       <use x="127.246094" xlink:href="#DejaVuSans-48"/>
      </g>
     </g>
    </g>
    <g id="xtick_6">
     <g id="line2d_6">
      <g>
       <use style="stroke:#000000;stroke-width:0.8;" x="481.378409" xlink:href="#mf264ad881f" y="582.9575"/>
      </g>
     </g>
     <g id="text_6">
      <!-- 500 -->
      <g transform="translate(471.834659 597.555938)scale(0.1 -0.1)">
       <defs>
        <path d="M 10.796875 72.90625 
L 49.515625 72.90625 
L 49.515625 64.59375 
L 19.828125 64.59375 
L 19.828125 46.734375 
Q 21.96875 47.46875 24.109375 47.828125 
Q 26.265625 48.1875 28.421875 48.1875 
Q 40.625 48.1875 47.75 41.5 
Q 54.890625 34.8125 54.890625 23.390625 
Q 54.890625 11.625 47.5625 5.09375 
Q 40.234375 -1.421875 26.90625 -1.421875 
Q 22.3125 -1.421875 17.546875 -0.640625 
Q 12.796875 0.140625 7.71875 1.703125 
L 7.71875 11.625 
Q 12.109375 9.234375 16.796875 8.0625 
Q 21.484375 6.890625 26.703125 6.890625 
Q 35.15625 6.890625 40.078125 11.328125 
Q 45.015625 15.765625 45.015625 23.390625 
Q 45.015625 31 40.078125 35.4375 
Q 35.15625 39.890625 26.703125 39.890625 
Q 22.75 39.890625 18.8125 39.015625 
Q 14.890625 38.140625 10.796875 36.28125 
z
" id="DejaVuSans-53"/>
       </defs>
       <use xlink:href="#DejaVuSans-53"/>
       <use x="63.623047" xlink:href="#DejaVuSans-48"/>
       <use x="127.246094" xlink:href="#DejaVuSans-48"/>
      </g>
     </g>
    </g>
    <g id="xtick_7">
     <g id="line2d_7">
      <g>
       <use style="stroke:#000000;stroke-width:0.8;" x="565.923864" xlink:href="#mf264ad881f" y="582.9575"/>
      </g>
     </g>
     <g id="text_7">
      <!-- 600 -->
      <g transform="translate(556.380114 597.555938)scale(0.1 -0.1)">
       <defs>
        <path d="M 33.015625 40.375 
Q 26.375 40.375 22.484375 35.828125 
Q 18.609375 31.296875 18.609375 23.390625 
Q 18.609375 15.53125 22.484375 10.953125 
Q 26.375 6.390625 33.015625 6.390625 
Q 39.65625 6.390625 43.53125 10.953125 
Q 47.40625 15.53125 47.40625 23.390625 
Q 47.40625 31.296875 43.53125 35.828125 
Q 39.65625 40.375 33.015625 40.375 
z
M 52.59375 71.296875 
L 52.59375 62.3125 
Q 48.875 64.0625 45.09375 64.984375 
Q 41.3125 65.921875 37.59375 65.921875 
Q 27.828125 65.921875 22.671875 59.328125 
Q 17.53125 52.734375 16.796875 39.40625 
Q 19.671875 43.65625 24.015625 45.921875 
Q 28.375 48.1875 33.59375 48.1875 
Q 44.578125 48.1875 50.953125 41.515625 
Q 57.328125 34.859375 57.328125 23.390625 
Q 57.328125 12.15625 50.6875 5.359375 
Q 44.046875 -1.421875 33.015625 -1.421875 
Q 20.359375 -1.421875 13.671875 8.265625 
Q 6.984375 17.96875 6.984375 36.375 
Q 6.984375 53.65625 15.1875 63.9375 
Q 23.390625 74.21875 37.203125 74.21875 
Q 40.921875 74.21875 44.703125 73.484375 
Q 48.484375 72.75 52.59375 71.296875 
z
" id="DejaVuSans-54"/>
       </defs>
       <use xlink:href="#DejaVuSans-54"/>
       <use x="63.623047" xlink:href="#DejaVuSans-48"/>
       <use x="127.246094" xlink:href="#DejaVuSans-48"/>
      </g>
     </g>
    </g>
    <g id="text_8">
     <!-- Epochs -->
     <g transform="translate(294.371875 611.234063)scale(0.1 -0.1)">
      <defs>
       <path d="M 9.8125 72.90625 
L 55.90625 72.90625 
L 55.90625 64.59375 
L 19.671875 64.59375 
L 19.671875 43.015625 
L 54.390625 43.015625 
L 54.390625 34.71875 
L 19.671875 34.71875 
L 19.671875 8.296875 
L 56.78125 8.296875 
L 56.78125 0 
L 9.8125 0 
z
" id="DejaVuSans-69"/>
       <path d="M 18.109375 8.203125 
L 18.109375 -20.796875 
L 9.078125 -20.796875 
L 9.078125 54.6875 
L 18.109375 54.6875 
L 18.109375 46.390625 
Q 20.953125 51.265625 25.265625 53.625 
Q 29.59375 56 35.59375 56 
Q 45.5625 56 51.78125 48.09375 
Q 58.015625 40.1875 58.015625 27.296875 
Q 58.015625 14.40625 51.78125 6.484375 
Q 45.5625 -1.421875 35.59375 -1.421875 
Q 29.59375 -1.421875 25.265625 0.953125 
Q 20.953125 3.328125 18.109375 8.203125 
z
M 48.6875 27.296875 
Q 48.6875 37.203125 44.609375 42.84375 
Q 40.53125 48.484375 33.40625 48.484375 
Q 26.265625 48.484375 22.1875 42.84375 
Q 18.109375 37.203125 18.109375 27.296875 
Q 18.109375 17.390625 22.1875 11.75 
Q 26.265625 6.109375 33.40625 6.109375 
Q 40.53125 6.109375 44.609375 11.75 
Q 48.6875 17.390625 48.6875 27.296875 
z
" id="DejaVuSans-112"/>
       <path d="M 30.609375 48.390625 
Q 23.390625 48.390625 19.1875 42.75 
Q 14.984375 37.109375 14.984375 27.296875 
Q 14.984375 17.484375 19.15625 11.84375 
Q 23.34375 6.203125 30.609375 6.203125 
Q 37.796875 6.203125 41.984375 11.859375 
Q 46.1875 17.53125 46.1875 27.296875 
Q 46.1875 37.015625 41.984375 42.703125 
Q 37.796875 48.390625 30.609375 48.390625 
z
M 30.609375 56 
Q 42.328125 56 49.015625 48.375 
Q 55.71875 40.765625 55.71875 27.296875 
Q 55.71875 13.875 49.015625 6.21875 
Q 42.328125 -1.421875 30.609375 -1.421875 
Q 18.84375 -1.421875 12.171875 6.21875 
Q 5.515625 13.875 5.515625 27.296875 
Q 5.515625 40.765625 12.171875 48.375 
Q 18.84375 56 30.609375 56 
z
" id="DejaVuSans-111"/>
       <path d="M 48.78125 52.59375 
L 48.78125 44.1875 
Q 44.96875 46.296875 41.140625 47.34375 
Q 37.3125 48.390625 33.40625 48.390625 
Q 24.65625 48.390625 19.8125 42.84375 
Q 14.984375 37.3125 14.984375 27.296875 
Q 14.984375 17.28125 19.8125 11.734375 
Q 24.65625 6.203125 33.40625 6.203125 
Q 37.3125 6.203125 41.140625 7.25 
Q 44.96875 8.296875 48.78125 10.40625 
L 48.78125 2.09375 
Q 45.015625 0.34375 40.984375 -0.53125 
Q 36.96875 -1.421875 32.421875 -1.421875 
Q 20.0625 -1.421875 12.78125 6.34375 
Q 5.515625 14.109375 5.515625 27.296875 
Q 5.515625 40.671875 12.859375 48.328125 
Q 20.21875 56 33.015625 56 
Q 37.15625 56 41.109375 55.140625 
Q 45.0625 54.296875 48.78125 52.59375 
z
" id="DejaVuSans-99"/>
       <path d="M 54.890625 33.015625 
L 54.890625 0 
L 45.90625 0 
L 45.90625 32.71875 
Q 45.90625 40.484375 42.875 44.328125 
Q 39.84375 48.1875 33.796875 48.1875 
Q 26.515625 48.1875 22.3125 43.546875 
Q 18.109375 38.921875 18.109375 30.90625 
L 18.109375 0 
L 9.078125 0 
L 9.078125 75.984375 
L 18.109375 75.984375 
L 18.109375 46.1875 
Q 21.34375 51.125 25.703125 53.5625 
Q 30.078125 56 35.796875 56 
Q 45.21875 56 50.046875 50.171875 
Q 54.890625 44.34375 54.890625 33.015625 
z
" id="DejaVuSans-104"/>
       <path d="M 44.28125 53.078125 
L 44.28125 44.578125 
Q 40.484375 46.53125 36.375 47.5 
Q 32.28125 48.484375 27.875 48.484375 
Q 21.1875 48.484375 17.84375 46.4375 
Q 14.5 44.390625 14.5 40.28125 
Q 14.5 37.15625 16.890625 35.375 
Q 19.28125 33.59375 26.515625 31.984375 
L 29.59375 31.296875 
Q 39.15625 29.25 43.1875 25.515625 
Q 47.21875 21.78125 47.21875 15.09375 
Q 47.21875 7.46875 41.1875 3.015625 
Q 35.15625 -1.421875 24.609375 -1.421875 
Q 20.21875 -1.421875 15.453125 -0.5625 
Q 10.6875 0.296875 5.421875 2 
L 5.421875 11.28125 
Q 10.40625 8.6875 15.234375 7.390625 
Q 20.0625 6.109375 24.8125 6.109375 
Q 31.15625 6.109375 34.5625 8.28125 
Q 37.984375 10.453125 37.984375 14.40625 
Q 37.984375 18.0625 35.515625 20.015625 
Q 33.0625 21.96875 24.703125 23.78125 
L 21.578125 24.515625 
Q 13.234375 26.265625 9.515625 29.90625 
Q 5.8125 33.546875 5.8125 39.890625 
Q 5.8125 47.609375 11.28125 51.796875 
Q 16.75 56 26.8125 56 
Q 31.78125 56 36.171875 55.265625 
Q 40.578125 54.546875 44.28125 53.078125 
z
" id="DejaVuSans-115"/>
      </defs>
      <use xlink:href="#DejaVuSans-69"/>
      <use x="63.183594" xlink:href="#DejaVuSans-112"/>
      <use x="126.660156" xlink:href="#DejaVuSans-111"/>
      <use x="187.841797" xlink:href="#DejaVuSans-99"/>
      <use x="242.822266" xlink:href="#DejaVuSans-104"/>
      <use x="306.201172" xlink:href="#DejaVuSans-115"/>
     </g>
    </g>
   </g>
   <g id="matplotlib.axis_2">
    <g id="ytick_1">
     <g id="line2d_8">
      <defs>
       <path d="M 0 0 
L -3.5 0 
" id="m904e25a624" style="stroke:#000000;stroke-width:0.8;"/>
      </defs>
      <g>
       <use style="stroke:#000000;stroke-width:0.8;" x="33.2875" xlink:href="#m904e25a624" y="561.633922"/>
      </g>
     </g>
     <g id="text_9">
      <!-- 0 -->
      <g transform="translate(19.925 565.433141)scale(0.1 -0.1)">
       <use xlink:href="#DejaVuSans-48"/>
      </g>
     </g>
    </g>
    <g id="ytick_2">
     <g id="line2d_9">
      <g>
       <use style="stroke:#000000;stroke-width:0.8;" x="33.2875" xlink:href="#m904e25a624" y="493.923656"/>
      </g>
     </g>
     <g id="text_10">
      <!-- 20 -->
      <g transform="translate(13.5625 497.722874)scale(0.1 -0.1)">
       <use xlink:href="#DejaVuSans-50"/>
       <use x="63.623047" xlink:href="#DejaVuSans-48"/>
      </g>
     </g>
    </g>
    <g id="ytick_3">
     <g id="line2d_10">
      <g>
       <use style="stroke:#000000;stroke-width:0.8;" x="33.2875" xlink:href="#m904e25a624" y="426.213389"/>
      </g>
     </g>
     <g id="text_11">
      <!-- 40 -->
      <g transform="translate(13.5625 430.012608)scale(0.1 -0.1)">
       <use xlink:href="#DejaVuSans-52"/>
       <use x="63.623047" xlink:href="#DejaVuSans-48"/>
      </g>
     </g>
    </g>
    <g id="ytick_4">
     <g id="line2d_11">
      <g>
       <use style="stroke:#000000;stroke-width:0.8;" x="33.2875" xlink:href="#m904e25a624" y="358.503123"/>
      </g>
     </g>
     <g id="text_12">
      <!-- 60 -->
      <g transform="translate(13.5625 362.302342)scale(0.1 -0.1)">
       <use xlink:href="#DejaVuSans-54"/>
       <use x="63.623047" xlink:href="#DejaVuSans-48"/>
      </g>
     </g>
    </g>
    <g id="ytick_5">
     <g id="line2d_12">
      <g>
       <use style="stroke:#000000;stroke-width:0.8;" x="33.2875" xlink:href="#m904e25a624" y="290.792857"/>
      </g>
     </g>
     <g id="text_13">
      <!-- 80 -->
      <g transform="translate(13.5625 294.592076)scale(0.1 -0.1)">
       <defs>
        <path d="M 31.78125 34.625 
Q 24.75 34.625 20.71875 30.859375 
Q 16.703125 27.09375 16.703125 20.515625 
Q 16.703125 13.921875 20.71875 10.15625 
Q 24.75 6.390625 31.78125 6.390625 
Q 38.8125 6.390625 42.859375 10.171875 
Q 46.921875 13.96875 46.921875 20.515625 
Q 46.921875 27.09375 42.890625 30.859375 
Q 38.875 34.625 31.78125 34.625 
z
M 21.921875 38.8125 
Q 15.578125 40.375 12.03125 44.71875 
Q 8.5 49.078125 8.5 55.328125 
Q 8.5 64.0625 14.71875 69.140625 
Q 20.953125 74.21875 31.78125 74.21875 
Q 42.671875 74.21875 48.875 69.140625 
Q 55.078125 64.0625 55.078125 55.328125 
Q 55.078125 49.078125 51.53125 44.71875 
Q 48 40.375 41.703125 38.8125 
Q 48.828125 37.15625 52.796875 32.3125 
Q 56.78125 27.484375 56.78125 20.515625 
Q 56.78125 9.90625 50.3125 4.234375 
Q 43.84375 -1.421875 31.78125 -1.421875 
Q 19.734375 -1.421875 13.25 4.234375 
Q 6.78125 9.90625 6.78125 20.515625 
Q 6.78125 27.484375 10.78125 32.3125 
Q 14.796875 37.15625 21.921875 38.8125 
z
M 18.3125 54.390625 
Q 18.3125 48.734375 21.84375 45.5625 
Q 25.390625 42.390625 31.78125 42.390625 
Q 38.140625 42.390625 41.71875 45.5625 
Q 45.3125 48.734375 45.3125 54.390625 
Q 45.3125 60.0625 41.71875 63.234375 
Q 38.140625 66.40625 31.78125 66.40625 
Q 25.390625 66.40625 21.84375 63.234375 
Q 18.3125 60.0625 18.3125 54.390625 
z
" id="DejaVuSans-56"/>
       </defs>
       <use xlink:href="#DejaVuSans-56"/>
       <use x="63.623047" xlink:href="#DejaVuSans-48"/>
      </g>
     </g>
    </g>
    <g id="ytick_6">
     <g id="line2d_13">
      <g>
       <use style="stroke:#000000;stroke-width:0.8;" x="33.2875" xlink:href="#m904e25a624" y="223.082591"/>
      </g>
     </g>
     <g id="text_14">
      <!-- 100 -->
      <g transform="translate(7.2 226.881809)scale(0.1 -0.1)">
       <use xlink:href="#DejaVuSans-49"/>
       <use x="63.623047" xlink:href="#DejaVuSans-48"/>
       <use x="127.246094" xlink:href="#DejaVuSans-48"/>
      </g>
     </g>
    </g>
    <g id="ytick_7">
     <g id="line2d_14">
      <g>
       <use style="stroke:#000000;stroke-width:0.8;" x="33.2875" xlink:href="#m904e25a624" y="155.372324"/>
      </g>
     </g>
     <g id="text_15">
      <!-- 120 -->
      <g transform="translate(7.2 159.171543)scale(0.1 -0.1)">
       <use xlink:href="#DejaVuSans-49"/>
       <use x="63.623047" xlink:href="#DejaVuSans-50"/>
       <use x="127.246094" xlink:href="#DejaVuSans-48"/>
      </g>
     </g>
    </g>
    <g id="ytick_8">
     <g id="line2d_15">
      <g>
       <use style="stroke:#000000;stroke-width:0.8;" x="33.2875" xlink:href="#m904e25a624" y="87.662058"/>
      </g>
     </g>
     <g id="text_16">
      <!-- 140 -->
      <g transform="translate(7.2 91.461277)scale(0.1 -0.1)">
       <use xlink:href="#DejaVuSans-49"/>
       <use x="63.623047" xlink:href="#DejaVuSans-52"/>
       <use x="127.246094" xlink:href="#DejaVuSans-48"/>
      </g>
     </g>
    </g>
   </g>
   <g id="line2d_16">
    <path clip-path="url(#p734ee8794b)" d="M 58.651136 558.248409 
L 60.342045 558.007229 
L 62.032955 557.51361 
L 63.723864 556.828699 
L 65.414773 555.895503 
L 67.105682 554.638327 
L 68.796591 552.9719 
L 70.4875 550.759292 
L 72.178409 547.924115 
L 73.869318 544.627887 
L 75.560227 540.774033 
L 76.405682 538.443214 
L 77.251136 535.710101 
L 78.942045 528.965043 
L 79.7875 524.887317 
L 81.478409 515.091419 
L 83.169318 502.867397 
L 84.860227 487.848594 
L 86.551136 469.977568 
L 88.242045 451.021323 
L 90.778409 418.808248 
L 95.851136 344.784944 
L 98.3875 306.256493 
L 99.232955 298.187777 
L 100.923864 277.779789 
L 101.769318 271.958322 
L 102.614773 263.667477 
L 103.460227 253.846219 
L 104.305682 247.982859 
L 105.151136 241.088849 
L 105.996591 232.100816 
L 107.6875 219.776283 
L 108.532955 211.906132 
L 111.069318 196.1354 
L 112.760227 191.422544 
L 113.605682 189.881592 
L 114.451136 190.249395 
L 115.296591 188.869093 
L 116.142045 190.355763 
L 116.9875 190.366192 
L 117.832955 190.59191 
L 118.678409 191.235772 
L 119.523864 189.19786 
L 120.369318 188.904411 
L 122.905682 181.547196 
L 123.751136 176.910419 
L 124.596591 174.843027 
L 125.442045 169.716177 
L 126.2875 168.487525 
L 127.132955 164.454804 
L 127.978409 161.695499 
L 128.823864 159.342765 
L 129.669318 155.176926 
L 130.514773 154.223766 
L 131.360227 150.794481 
L 133.051136 146.862247 
L 133.896591 143.453416 
L 134.742045 142.810908 
L 135.5875 139.954382 
L 136.432955 138.287835 
L 137.278409 136.882878 
L 138.123864 134.178788 
L 138.969318 133.898708 
L 139.814773 131.689702 
L 141.505682 129.702339 
L 142.351136 127.833677 
L 143.196591 127.993425 
L 144.042045 126.411111 
L 144.8875 126.051518 
L 145.732955 125.439084 
L 146.578409 124.360854 
L 147.423864 124.804016 
L 148.269318 123.676871 
L 149.114773 123.856418 
L 149.960227 123.340589 
L 150.805682 122.958202 
L 151.651136 123.368591 
L 152.496591 122.578102 
L 153.342045 123.025074 
L 154.1875 122.42517 
L 155.878409 122.585654 
L 156.723864 122.149508 
L 157.569318 122.470187 
L 158.414773 121.77623 
L 159.260227 122.155325 
L 160.105682 121.662538 
L 160.951136 121.713372 
L 162.642045 121.03411 
L 163.4875 121.056192 
L 164.332955 120.456815 
L 165.178409 120.599005 
L 166.023864 119.790711 
L 166.869318 120.043018 
L 167.714773 119.258178 
L 168.560227 119.609226 
L 169.405682 118.740008 
L 170.251136 119.161753 
L 171.096591 118.256612 
L 171.942045 118.892792 
L 172.7875 117.843025 
L 173.632955 118.7144 
L 174.478409 117.479865 
L 175.323864 118.709565 
L 176.169318 117.430899 
L 177.014773 118.750067 
L 177.860227 117.71625 
L 178.705682 118.580035 
L 179.551136 118.245962 
L 180.396591 118.267237 
L 181.242045 118.613692 
L 182.0875 117.8782 
L 182.932955 118.680015 
L 183.778409 117.72096 
L 184.623864 118.519369 
L 185.469318 117.75795 
L 186.314773 118.090807 
L 188.005682 117.607657 
L 188.851136 117.849775 
L 189.696591 117.166614 
L 190.542045 117.688563 
L 191.3875 116.886133 
L 192.232955 117.461061 
L 193.078409 116.770198 
L 193.923864 117.144446 
L 194.769318 116.711639 
L 195.614773 116.816353 
L 197.305682 116.504412 
L 198.151136 116.61619 
L 198.996591 116.231099 
L 199.842045 116.582284 
L 200.6875 116.03344 
L 201.532955 116.592292 
L 202.378409 115.865907 
L 203.223864 116.696792 
L 204.069318 115.788655 
L 204.914773 116.906117 
L 205.760227 115.829306 
L 206.605682 117.144592 
L 207.451136 116.116386 
L 208.296591 117.288095 
L 209.142045 116.620529 
L 209.9875 117.217847 
L 211.678409 117.013257 
L 212.523864 117.463228 
L 213.369318 116.805254 
L 214.214773 117.515589 
L 215.060227 116.70529 
L 215.905682 117.33867 
L 216.751136 116.71992 
L 217.596591 116.96405 
L 219.2875 116.519688 
L 220.132955 116.667666 
L 220.978409 116.107966 
L 221.823864 116.481014 
L 222.669318 115.794265 
L 223.514773 116.222255 
L 224.360227 115.601773 
L 225.205682 115.925925 
L 226.051136 115.475581 
L 226.896591 115.626041 
L 227.742045 115.390949 
L 229.432955 115.291087 
L 230.278409 115.088843 
L 231.123864 115.192695 
L 231.969318 114.851045 
L 232.814773 115.078008 
L 233.660227 114.619584 
L 234.505682 114.976815 
L 235.351136 114.395338 
L 236.196591 114.895677 
L 237.042045 114.162882 
L 237.8875 114.863198 
L 238.732955 113.958009 
L 239.578409 114.866113 
L 240.423864 113.830519 
L 241.269318 114.848934 
L 242.114773 113.829697 
L 242.960227 114.712974 
L 243.805682 113.94173 
L 244.651136 114.403633 
L 245.496591 114.043036 
L 246.342045 113.958832 
L 247.1875 114.021895 
L 248.032955 113.47581 
L 248.878409 113.826864 
L 249.723864 113.037483 
L 250.569318 113.457768 
L 251.414773 112.692118 
L 252.260227 112.933705 
L 253.105682 112.392443 
L 253.951136 112.318685 
L 254.796591 112.052916 
L 255.642045 111.662668 
L 256.4875 111.648454 
L 257.332955 111.047838 
L 258.178409 111.167089 
L 259.023864 110.496535 
L 259.869318 110.632863 
L 260.714773 110.024287 
L 261.560227 110.044535 
L 262.405682 109.566807 
L 263.251136 109.415423 
L 266.632955 108.077863 
L 267.478409 107.96745 
L 268.323864 107.407721 
L 269.169318 107.317445 
L 270.014773 106.74925 
L 270.860227 106.592042 
L 271.705682 106.141378 
L 275.0875 104.922694 
L 275.932955 104.407805 
L 276.778409 104.281622 
L 277.623864 103.847393 
L 278.469318 103.696655 
L 280.160227 103.15957 
L 285.232955 102.147484 
L 286.078409 102.204257 
L 286.923864 101.940014 
L 287.769318 102.006932 
L 288.614773 101.755569 
L 289.460227 101.808988 
L 290.305682 101.562772 
L 291.151136 101.604735 
L 291.996591 101.342581 
L 292.842045 101.373084 
L 293.6875 101.080154 
L 294.532955 101.12633 
L 295.378409 100.771563 
L 296.223864 100.868698 
L 297.069318 100.409754 
L 297.914773 100.626897 
L 298.760227 99.981051 
L 299.605682 100.450037 
L 300.451136 99.463991 
L 301.296591 100.458899 
L 302.142045 98.780042 
L 302.9875 100.88219 
L 303.832955 98.052242 
L 304.678409 101.778503 
L 305.523864 98.408232 
L 306.369318 101.92963 
L 307.214773 100.863959 
L 308.060227 100.511728 
L 308.905682 103.087526 
L 309.751136 100.689586 
L 310.596591 101.854885 
L 311.442045 102.685036 
L 312.2875 100.472211 
L 313.132955 101.953662 
L 313.978409 101.284752 
L 314.823864 99.729943 
L 315.669318 101.072647 
L 316.514773 99.594652 
L 317.360227 98.796345 
L 318.205682 99.748915 
L 319.051136 98.089992 
L 319.896591 98.161082 
L 320.742045 98.59392 
L 321.5875 97.2144 
L 322.432955 97.973648 
L 323.278409 97.886531 
L 324.123864 97.183362 
L 324.969318 98.215875 
L 325.814773 97.731268 
L 326.660227 97.786119 
L 327.505682 98.707653 
L 328.351136 98.099115 
L 330.042045 99.136017 
L 330.8875 98.686812 
L 331.732955 99.422621 
L 332.578409 99.380345 
L 333.423864 99.171706 
L 334.269318 99.806582 
L 335.114773 99.398849 
L 335.960227 99.420564 
L 336.805682 99.698503 
L 337.651136 99.149592 
L 338.496591 99.344491 
L 339.342045 99.196442 
L 340.1875 98.713429 
L 341.032955 98.918247 
L 341.878409 98.473841 
L 342.723864 98.237093 
L 343.569318 98.263511 
L 344.414773 97.749068 
L 345.260227 97.760362 
L 346.105682 97.562888 
L 346.951136 97.194629 
L 347.796591 97.286126 
L 348.642045 96.932806 
L 350.332955 96.812985 
L 351.178409 96.460536 
L 352.023864 96.514021 
L 353.714773 96.139854 
L 354.560227 96.182683 
L 355.405682 95.910854 
L 357.096591 95.79541 
L 357.942045 95.562889 
L 358.7875 95.583963 
L 359.632955 95.354424 
L 361.323864 95.170582 
L 362.169318 94.920318 
L 363.014773 94.889694 
L 364.705682 94.528291 
L 365.551136 94.434021 
L 366.396591 94.188513 
L 367.242045 94.11612 
L 368.932955 93.737264 
L 369.778409 93.627858 
L 370.623864 93.393105 
L 372.314773 93.101849 
L 377.3875 92.256077 
L 398.523864 89.233136 
L 421.351136 85.644219 
L 427.269318 84.494914 
L 428.114773 84.394566 
L 428.960227 84.159974 
L 429.805682 84.080445 
L 430.651136 83.819712 
L 431.496591 83.78071 
L 432.342045 83.464048 
L 433.1875 83.487756 
L 434.032955 83.104733 
L 434.878409 83.239243 
L 435.723864 82.725061 
L 436.569318 83.050196 
L 437.414773 82.315761 
L 438.260227 82.971908 
L 439.105682 81.85232 
L 439.951136 83.068919 
L 440.796591 81.319955 
L 441.642045 83.463073 
L 442.4875 80.764366 
L 443.332955 84.272825 
L 444.178409 80.829256 
L 445.023864 84.809668 
L 445.869318 82.434463 
L 446.714773 83.980797 
L 447.560227 84.922967 
L 448.405682 82.86997 
L 449.251136 85.428096 
L 450.096591 83.630054 
L 450.942045 83.645891 
L 451.7875 84.685532 
L 452.632955 82.334853 
L 453.478409 83.605625 
L 454.323864 82.801394 
L 455.169318 81.486096 
L 456.014773 82.728276 
L 456.860227 80.927978 
L 458.551136 81.43589 
L 459.396591 80.109212 
L 460.242045 81.256738 
L 461.0875 80.424421 
L 461.932955 80.485878 
L 462.778409 81.204954 
L 463.623864 80.361062 
L 464.469318 81.38813 
L 465.314773 81.156416 
L 466.160227 81.153161 
L 467.005682 82.044282 
L 467.851136 81.408407 
L 468.696591 82.148754 
L 469.542045 82.211643 
L 470.3875 81.897165 
L 471.232955 82.639086 
L 472.078409 82.071205 
L 473.769318 82.411392 
L 474.614773 81.839035 
L 475.460227 82.206743 
L 476.305682 81.724728 
L 477.151136 81.574023 
L 477.996591 81.615162 
L 478.842045 81.035409 
L 479.6875 81.194903 
L 480.532955 80.760361 
L 481.378409 80.579377 
L 482.223864 80.568649 
L 483.069318 80.07265 
L 483.914773 80.217444 
L 484.760227 79.839546 
L 485.605682 79.724509 
L 486.451136 79.722518 
L 487.296591 79.358771 
L 488.142045 79.48582 
L 488.9875 79.200384 
L 490.678409 79.108166 
L 491.523864 78.836381 
L 492.369318 78.906832 
L 493.214773 78.634217 
L 494.905682 78.468359 
L 495.751136 78.237227 
L 496.596591 78.231537 
L 497.442045 77.932808 
L 498.2875 77.878869 
L 499.978409 77.469085 
L 500.823864 77.380604 
L 501.669318 77.088015 
L 502.514773 77.014652 
L 504.205682 76.615337 
L 515.196591 74.631504 
L 518.578409 74.10696 
L 522.805682 73.347708 
L 531.260227 71.793208 
L 536.332955 70.799026 
L 542.251136 69.684234 
L 548.169318 68.462802 
L 550.705682 68.003997 
L 551.551136 67.76013 
L 552.396591 67.692906 
L 553.242045 67.414979 
L 554.0875 67.39504 
L 554.932955 67.065191 
L 555.778409 67.123761 
L 556.623864 66.694776 
L 557.469318 66.884628 
L 558.314773 66.275046 
L 559.160227 66.716252 
L 560.005682 65.775718 
L 560.851136 66.653351 
L 561.696591 65.191129 
L 562.542045 66.774485 
L 563.3875 64.575283 
L 564.232955 67.163788 
L 565.078409 64.066591 
L 565.923864 67.795214 
L 565.923864 67.795214 
" style="fill:none;stroke:#1f77b4;stroke-linecap:square;stroke-width:2;"/>
   </g>
   <g id="line2d_17">
    <path clip-path="url(#p734ee8794b)" d="M 58.651136 558.248408 
L 65.414773 556.755899 
L 68.796591 555.786924 
L 72.178409 554.5943 
L 75.560227 553.123516 
L 78.096591 551.805828 
L 80.632955 550.271292 
L 83.169318 548.476624 
L 85.705682 546.37671 
L 88.242045 543.926704 
L 90.778409 541.076629 
L 93.314773 537.772391 
L 95.851136 533.973046 
L 98.3875 529.652761 
L 100.923864 524.779888 
L 103.460227 519.31418 
L 105.996591 513.26885 
L 108.532955 506.671002 
L 111.069318 499.527667 
L 114.451136 489.120792 
L 116.9875 480.765436 
L 119.523864 471.75048 
L 122.060227 461.841715 
L 123.751136 454.907537 
L 127.132955 440.031275 
L 128.823864 433.89756 
L 133.051136 416.140165 
L 138.969318 387.11285 
L 144.042045 360.177318 
L 145.732955 351.446199 
L 148.269318 340.167068 
L 150.805682 331.24311 
L 152.496591 327.221094 
L 153.342045 325.059978 
L 155.032955 322.589985 
L 155.878409 321.148811 
L 158.414773 318.77338 
L 159.260227 318.058868 
L 160.105682 317.78799 
L 161.796591 316.784279 
L 162.642045 316.754275 
L 163.4875 316.589071 
L 164.332955 316.266346 
L 166.023864 316.288078 
L 166.869318 316.106719 
L 171.096591 315.87017 
L 173.632955 315.319175 
L 175.323864 314.574195 
L 176.169318 314.184713 
L 177.860227 312.93399 
L 178.705682 312.218606 
L 181.242045 309.2137 
L 184.623864 304.215126 
L 186.314773 301.719027 
L 188.851136 298.221336 
L 190.542045 296.101963 
L 191.3875 295.049516 
L 193.078409 293.378107 
L 194.769318 292.519676 
L 195.614773 292.820671 
L 196.460227 292.996972 
L 197.305682 293.679266 
L 198.151136 294.156246 
L 198.996591 294.373338 
L 199.842045 294.997888 
L 201.532955 295.511821 
L 202.378409 295.929941 
L 203.223864 295.961441 
L 204.914773 296.340133 
L 205.760227 296.199183 
L 207.451136 296.257633 
L 208.296591 296.015567 
L 209.142045 296.021256 
L 212.523864 295.503604 
L 213.369318 295.426729 
L 214.214773 295.524411 
L 215.060227 295.482001 
L 217.596591 295.910219 
L 222.669318 297.738185 
L 225.205682 298.818737 
L 227.742045 299.775804 
L 230.278409 300.491674 
L 234.505682 301.087818 
L 238.732955 301.143842 
L 248.032955 301.019794 
L 251.414773 301.144493 
L 266.632955 301.873616 
L 286.078409 302.43778 
L 291.996591 302.6037 
L 292.842045 302.717291 
L 293.6875 302.686303 
L 294.532955 302.914553 
L 295.378409 302.88838 
L 296.223864 303.38959 
L 297.069318 303.528899 
L 297.914773 304.46538 
L 298.760227 304.976761 
L 299.605682 305.889908 
L 300.451136 306.504103 
L 301.296591 306.90374 
L 302.142045 307.479073 
L 302.9875 307.619807 
L 303.832955 308.032454 
L 304.678409 308.151912 
L 305.523864 308.116857 
L 306.369318 308.225986 
L 307.214773 308.033372 
L 308.060227 308.066906 
L 312.2875 307.617534 
L 313.978409 307.55969 
L 314.823864 307.728086 
L 315.669318 307.75591 
L 324.969318 309.978837 
L 326.660227 310.177613 
L 328.351136 310.33424 
L 335.960227 310.66155 
L 346.105682 311.859566 
L 349.4875 311.93451 
L 358.7875 311.714287 
L 361.323864 311.394132 
L 363.014773 311.023508 
L 364.705682 310.484843 
L 367.242045 309.362706 
L 375.696591 305.065992 
L 378.232955 304.192052 
L 381.614773 303.259953 
L 384.996591 302.521231 
L 387.532955 302.154678 
L 390.069318 301.980083 
L 395.142045 301.944086 
L 401.905682 302.043358 
L 409.514773 302.298934 
L 421.351136 302.215323 
L 430.651136 301.908346 
L 438.260227 301.456383 
L 463.623864 299.711981 
L 477.151136 299.015383 
L 490.678409 298.276565 
L 521.114773 296.387746 
L 543.096591 294.680937 
L 553.242045 294.205769 
L 565.078409 293.938241 
L 565.923864 293.931317 
L 565.923864 293.931317 
" style="fill:none;stroke:#ff7f0e;stroke-linecap:square;stroke-width:3;"/>
   </g>
   <g id="line2d_18">
    <path clip-path="url(#p734ee8794b)" d="M 58.651136 558.248408 
L 65.414773 556.774031 
L 68.796591 555.813753 
L 73.023864 554.375376 
L 76.405682 553.059179 
L 78.942045 551.817722 
L 81.478409 550.336513 
L 84.014773 548.581057 
L 87.396591 545.928364 
L 90.778409 543.114428 
L 92.469318 541.811194 
L 94.160227 541.039552 
L 95.005682 540.878221 
L 96.696591 541.153189 
L 97.542045 541.365684 
L 99.232955 542.091403 
L 101.769318 542.772968 
L 102.614773 542.885557 
L 104.305682 542.81691 
L 105.996591 542.594982 
L 110.223864 541.525577 
L 112.760227 541.176438 
L 119.523864 540.953134 
L 122.060227 540.455905 
L 125.442045 539.672438 
L 127.132955 539.430294 
L 128.823864 539.289533 
L 137.278409 539.042022 
L 143.196591 538.643844 
L 151.651136 538.503992 
L 160.105682 538.062513 
L 162.642045 538.165167 
L 165.178409 538.120668 
L 168.560227 537.789467 
L 177.014773 537.429976 
L 179.551136 537.345284 
L 182.932955 537.140724 
L 186.314773 536.922607 
L 204.914773 535.970749 
L 222.669318 534.939991 
L 223.514773 535.00729 
L 224.360227 534.942086 
L 225.205682 535.039593 
L 229.432955 534.809562 
L 231.969318 534.548962 
L 232.814773 534.43456 
L 236.196591 534.377465 
L 256.4875 533.315249 
L 261.560227 532.970264 
L 267.478409 532.643907 
L 286.078409 531.529383 
L 286.923864 531.598389 
L 287.769318 531.51939 
L 288.614773 531.576887 
L 296.223864 531.050073 
L 304.678409 530.663416 
L 307.214773 530.452148 
L 311.442045 530.257021 
L 317.360227 529.904694 
L 322.432955 529.578518 
L 335.960227 528.806002 
L 336.805682 528.921812 
L 337.651136 528.84242 
L 338.496591 528.980782 
L 342.723864 528.688581 
L 343.569318 528.518393 
L 346.951136 528.376873 
L 347.796591 528.3135 
L 349.4875 528.335544 
L 351.178409 528.359598 
L 357.096591 527.944777 
L 359.632955 527.765959 
L 363.860227 527.608772 
L 366.396591 527.469274 
L 375.696591 526.872453 
L 379.923864 526.613617 
L 386.6875 526.169075 
L 392.605682 525.821107 
L 396.832955 525.526013 
L 399.369318 525.45668 
L 400.214773 525.354068 
L 401.060227 525.407002 
L 401.905682 525.301853 
L 402.751136 525.372513 
L 403.596591 525.271409 
L 404.442045 525.318932 
L 407.823864 525.005527 
L 412.896591 524.750311 
L 414.5875 524.772041 
L 416.278409 524.719444 
L 420.505682 524.322517 
L 425.578409 524.133708 
L 447.560227 522.733287 
L 448.405682 522.754838 
L 449.251136 522.644959 
L 450.096591 522.71423 
L 450.942045 522.596483 
L 451.7875 522.729914 
L 452.632955 522.626039 
L 453.478409 522.783844 
L 454.323864 522.697758 
L 455.169318 522.743416 
L 457.705682 522.466306 
L 458.551136 522.26659 
L 459.396591 522.285075 
L 460.242045 522.165599 
L 461.932955 522.19789 
L 467.851136 522.087129 
L 470.3875 521.83503 
L 473.769318 521.668147 
L 477.996591 521.49446 
L 490.678409 520.709609 
L 499.132955 520.128253 
L 501.669318 520.018874 
L 505.896591 519.714493 
L 516.042045 519.08755 
L 526.1875 518.476001 
L 527.032955 518.645024 
L 527.878409 518.51838 
L 528.723864 518.813901 
L 529.569318 518.73958 
L 530.414773 519.021079 
L 532.951136 518.856601 
L 533.796591 518.547003 
L 534.642045 518.539915 
L 536.332955 518.220967 
L 537.178409 518.258595 
L 538.023864 518.137016 
L 538.869318 518.300602 
L 540.560227 518.372993 
L 541.405682 518.509792 
L 542.251136 518.448676 
L 543.942045 518.47353 
L 544.7875 518.344901 
L 545.632955 518.332112 
L 547.323864 518.095256 
L 551.551136 517.901041 
L 553.242045 517.895431 
L 554.932955 517.885881 
L 562.542045 517.313017 
L 565.923864 517.183909 
L 565.923864 517.183909 
" style="fill:none;stroke:#2ca02c;stroke-linecap:square;stroke-width:2;"/>
   </g>
   <g id="line2d_19">
    <path clip-path="url(#p734ee8794b)" d="M 58.651136 558.248408 
L 65.414773 556.767725 
L 68.796591 555.804487 
L 73.023864 554.321069 
L 76.405682 552.970063 
L 78.942045 551.720043 
L 81.478409 550.225095 
L 84.014773 548.449774 
L 91.623864 542.646641 
L 95.005682 540.109796 
L 96.696591 538.538716 
L 99.232955 535.844077 
L 100.923864 535.318521 
L 101.769318 535.203154 
L 105.151136 535.843217 
L 106.842045 536.177473 
L 108.532955 536.150055 
L 111.069318 535.63775 
L 112.760227 534.903969 
L 116.142045 533.163639 
L 117.832955 532.241465 
L 124.596591 529.048277 
L 126.2875 528.431416 
L 127.978409 527.714757 
L 130.514773 526.764564 
L 134.742045 525.316546 
L 148.269318 521.327044 
L 161.796591 516.535167 
L 176.169318 511.232191 
L 185.469318 507.686481 
L 238.732955 487.325471 
L 239.578409 487.264963 
L 240.423864 486.886452 
L 241.269318 487.112862 
L 242.114773 486.929006 
L 242.960227 487.13622 
L 243.805682 487.110517 
L 244.651136 486.799918 
L 245.496591 486.798189 
L 247.1875 486.078815 
L 248.032955 485.906136 
L 248.878409 485.440937 
L 253.951136 484.099103 
L 254.796591 484.026984 
L 258.178409 482.938545 
L 264.096591 480.764036 
L 268.323864 479.423071 
L 269.169318 479.254642 
L 270.860227 478.74113 
L 273.396591 477.978115 
L 279.314773 476.004721 
L 282.696591 475.027035 
L 286.078409 473.955586 
L 289.460227 472.894808 
L 293.6875 471.604991 
L 319.051136 463.925208 
L 330.8875 460.601518 
L 331.732955 460.739514 
L 332.578409 460.421212 
L 333.423864 460.869772 
L 334.269318 460.754061 
L 335.114773 461.312885 
L 335.960227 461.298524 
L 336.805682 461.061243 
L 337.651136 461.175912 
L 338.496591 460.70721 
L 340.1875 460.306772 
L 341.032955 459.762591 
L 342.723864 459.406664 
L 343.569318 459.043469 
L 344.414773 459.086086 
L 346.105682 458.772447 
L 346.951136 458.887095 
L 348.642045 458.579733 
L 349.4875 458.569341 
L 350.332955 458.230957 
L 352.023864 457.82939 
L 352.869318 457.3887 
L 354.560227 456.87572 
L 355.405682 456.485649 
L 357.096591 456.109784 
L 357.942045 455.866729 
L 358.7875 455.810815 
L 360.478409 455.466414 
L 361.323864 455.387827 
L 363.014773 454.967857 
L 363.860227 454.78313 
L 365.551136 454.265597 
L 369.778409 453.065155 
L 373.160227 452.374971 
L 387.532955 448.833993 
L 423.8875 440.450125 
L 439.105682 437.028944 
L 443.332955 436.164817 
L 444.178409 435.894287 
L 445.023864 435.865549 
L 445.869318 435.509351 
L 446.714773 435.734527 
L 447.560227 435.360222 
L 449.251136 437.977267 
L 450.096591 440.997506 
L 450.942045 442.596812 
L 451.7875 442.933775 
L 452.632955 444.009278 
L 453.478409 443.902066 
L 454.323864 442.775995 
L 455.169318 442.05629 
L 456.014773 440.927185 
L 456.860227 439.280804 
L 457.705682 437.906546 
L 459.396591 436.365849 
L 460.242045 436.030119 
L 461.932955 437.22858 
L 462.778409 437.766518 
L 463.623864 439.059076 
L 464.469318 439.793824 
L 465.314773 439.92748 
L 466.160227 440.407246 
L 467.005682 440.59887 
L 467.851136 440.109163 
L 468.696591 439.377784 
L 469.542045 438.99591 
L 470.3875 438.281462 
L 471.232955 437.297519 
L 472.078409 436.790939 
L 474.614773 436.132642 
L 476.305682 436.816542 
L 477.151136 437.00381 
L 477.996591 437.469302 
L 478.842045 437.784558 
L 481.378409 437.704474 
L 482.223864 437.391648 
L 483.069318 436.903446 
L 484.760227 436.213102 
L 485.605682 435.727463 
L 486.451136 435.408609 
L 488.9875 434.990515 
L 490.678409 435.123764 
L 492.369318 435.084065 
L 493.214773 435.071048 
L 495.751136 434.49214 
L 499.978409 433.154428 
L 501.669318 432.925939 
L 503.360227 432.73668 
L 505.051136 432.645012 
L 508.432955 432.119978 
L 514.351136 430.999165 
L 519.423864 430.431454 
L 523.651136 429.728263 
L 527.878409 429.059859 
L 532.951136 428.337534 
L 565.923864 423.118751 
L 565.923864 423.118751 
" style="fill:none;stroke:#d62728;stroke-linecap:square;stroke-width:2;"/>
   </g>
   <g id="line2d_20">
    <path clip-path="url(#p734ee8794b)" d="M 58.651136 558.248408 
L 63.723864 557.134239 
L 67.951136 555.945661 
L 71.332955 554.768371 
L 74.714773 553.335126 
L 77.251136 552.0528 
L 79.7875 550.565569 
L 82.323864 548.863102 
L 84.860227 546.926162 
L 87.396591 544.67382 
L 89.932955 542.021355 
L 92.469318 538.909833 
L 94.160227 536.671627 
L 98.3875 530.476045 
L 105.996591 518.09657 
L 108.532955 513.048322 
L 110.223864 509.187061 
L 111.914773 504.672379 
L 114.451136 497.243781 
L 116.142045 493.630229 
L 117.832955 490.854076 
L 121.214773 484.457294 
L 123.751136 477.924117 
L 125.442045 473.034284 
L 127.132955 467.778397 
L 130.514773 457.784495 
L 132.205682 453.914204 
L 133.896591 450.667135 
L 138.969318 441.402012 
L 140.660227 437.522052 
L 145.732955 425.021738 
L 147.423864 421.664331 
L 149.960227 417.291332 
L 157.569318 404.492022 
L 160.105682 401.124297 
L 166.023864 393.788861 
L 168.560227 391.055733 
L 171.942045 387.896449 
L 175.323864 384.941646 
L 177.860227 382.999068 
L 182.0875 380.12581 
L 185.469318 378.009002 
L 188.851136 376.183513 
L 193.923864 373.686541 
L 197.305682 372.280131 
L 203.223864 370.062913 
L 209.142045 368.153816 
L 215.060227 366.448873 
L 221.823864 364.714434 
L 231.969318 362.392014 
L 240.423864 360.350105 
L 279.314773 350.469844 
L 284.3875 349.300366 
L 291.996591 347.580256 
L 308.060227 344.261625 
L 314.823864 342.956821 
L 320.742045 341.842795 
L 346.951136 337.365929 
L 350.332955 336.890298 
L 354.560227 336.272002 
L 401.060227 329.685889 
L 403.596591 329.375253 
L 406.978409 328.898497 
L 423.8875 326.388788 
L 428.114773 325.775287 
L 432.342045 325.212592 
L 438.260227 324.414408 
L 441.642045 323.922502 
L 446.714773 323.189302 
L 454.323864 322.151405 
L 456.860227 321.705888 
L 457.705682 321.636472 
L 458.551136 321.414573 
L 459.396591 321.328357 
L 461.0875 321.000241 
L 472.078409 319.504966 
L 481.378409 318.360539 
L 488.142045 317.512246 
L 514.351136 314.044095 
L 516.8875 313.617495 
L 517.732955 313.547216 
L 519.423864 313.267817 
L 522.805682 312.77748 
L 525.342045 312.491606 
L 528.723864 312.053804 
L 534.642045 311.359865 
L 541.405682 310.537903 
L 545.632955 310.056057 
L 549.860227 309.521821 
L 559.160227 308.387457 
L 561.696591 308.027812 
L 564.232955 307.720224 
L 565.923864 307.480299 
L 565.923864 307.480299 
" style="fill:none;stroke:#9467bd;stroke-linecap:square;stroke-width:2;"/>
   </g>
   <g id="line2d_21">
    <path clip-path="url(#p734ee8794b)" d="M 58.651136 558.248408 
L 63.723864 557.125506 
L 67.951136 555.921435 
L 71.332955 554.728929 
L 74.714773 553.277843 
L 77.251136 551.984122 
L 79.7875 550.477251 
L 82.323864 548.721436 
L 84.860227 546.675052 
L 87.396591 544.291519 
L 89.932955 541.535237 
L 92.469318 538.360416 
L 95.005682 534.700167 
L 96.696591 531.938188 
L 98.3875 528.879912 
L 100.078409 525.498883 
L 102.614773 519.905947 
L 105.996591 511.487245 
L 109.378409 502.065702 
L 111.914773 494.106576 
L 114.451136 485.127377 
L 116.9875 474.843026 
L 119.523864 463.348986 
L 122.060227 451.207843 
L 124.596591 438.412721 
L 126.2875 431.622751 
L 127.132955 428.508416 
L 127.978409 426.357088 
L 128.823864 423.6543 
L 132.205682 410.654396 
L 135.5875 396.592347 
L 137.278409 391.138018 
L 138.123864 388.901756 
L 140.660227 383.106211 
L 142.351136 378.291526 
L 145.732955 367.833549 
L 147.423864 363.717712 
L 149.114773 360.695345 
L 153.342045 354.475859 
L 155.878409 350.352787 
L 156.723864 349.265451 
L 157.569318 348.419823 
L 158.414773 347.783976 
L 160.105682 346.865655 
L 162.642045 345.559453 
L 165.178409 343.790208 
L 166.023864 343.367353 
L 167.714773 342.867263 
L 172.7875 341.798144 
L 174.478409 341.190328 
L 176.169318 340.861038 
L 182.0875 340.281345 
L 184.623864 339.87699 
L 190.542045 339.58718 
L 193.923864 339.237379 
L 199.842045 339.032387 
L 203.223864 338.877481 
L 208.296591 338.778034 
L 212.523864 338.654394 
L 219.2875 338.44195 
L 231.123864 338.00274 
L 242.114773 337.362392 
L 262.405682 336.038632 
L 295.378409 334.239245 
L 310.596591 333.660794 
L 338.496591 332.61638 
L 352.869318 331.695505 
L 369.778409 330.455566 
L 389.223864 328.778876 
L 399.369318 327.900159 
L 427.269318 325.661365 
L 456.860227 323.135089 
L 483.069318 321.350634 
L 496.596591 320.265775 
L 527.878409 317.652647 
L 565.923864 314.682568 
L 565.923864 314.682568 
" style="fill:none;stroke:#8c564b;stroke-linecap:square;stroke-width:2;"/>
   </g>
   <g id="line2d_22">
    <path clip-path="url(#p734ee8794b)" d="M 58.651136 558.248408 
L 63.723864 557.124829 
L 67.951136 555.919009 
L 71.332955 554.731762 
L 74.714773 553.289273 
L 77.251136 552.008154 
L 79.7875 550.520169 
L 82.323864 548.78879 
L 84.860227 546.778378 
L 87.396591 544.44304 
L 89.932955 541.727974 
L 92.469318 538.564011 
L 95.005682 534.86587 
L 97.542045 530.582792 
L 99.232955 527.362856 
L 101.769318 521.922662 
L 103.460227 517.836629 
L 105.151136 513.333869 
L 106.842045 508.365078 
L 108.532955 502.902046 
L 111.069318 493.820543 
L 112.760227 487.588995 
L 116.142045 474.537466 
L 119.523864 459.952471 
L 122.060227 447.744912 
L 128.823864 413.059238 
L 132.205682 398.110466 
L 133.896591 391.127994 
L 135.5875 385.548237 
L 136.432955 382.398099 
L 137.278409 381.441661 
L 138.123864 380.226234 
L 138.969318 378.466354 
L 140.660227 377.162958 
L 141.505682 376.007878 
L 142.351136 374.473913 
L 143.196591 373.689892 
L 144.042045 372.696678 
L 145.732955 369.884389 
L 150.805682 364.723433 
L 151.651136 363.497383 
L 152.496591 361.876687 
L 155.032955 355.950086 
L 158.414773 347.589207 
L 160.951136 342.008824 
L 164.332955 335.145435 
L 166.023864 332.157077 
L 167.714773 329.780309 
L 169.405682 328.121549 
L 172.7875 325.597923 
L 174.478409 324.442137 
L 176.169318 323.558237 
L 178.705682 322.632671 
L 180.396591 322.188601 
L 185.469318 321.189504 
L 188.005682 321.073399 
L 196.460227 321.268797 
L 205.760227 322.021341 
L 215.060227 322.773337 
L 220.978409 322.970059 
L 226.051136 322.902879 
L 233.660227 322.550576 
L 242.960227 321.963577 
L 253.105682 321.109213 
L 262.405682 320.311367 
L 290.305682 318.28386 
L 304.678409 317.132467 
L 317.360227 315.894294 
L 328.351136 314.565329 
L 346.105682 312.118683 
L 360.478409 309.933819 
L 375.696591 307.402677 
L 392.605682 304.342986 
L 419.660227 298.958049 
L 426.423864 297.464791 
L 437.414773 294.934702 
L 450.096591 292.064734 
L 461.932955 289.410003 
L 488.142045 283.378241 
L 499.978409 280.63003 
L 507.5875 278.856816 
L 543.942045 270.356185 
L 549.860227 269.019209 
L 560.005682 266.69503 
L 565.078409 265.557437 
L 565.923864 265.349254 
L 565.923864 265.349254 
" style="fill:none;stroke:#e377c2;stroke-linecap:square;stroke-width:2;"/>
   </g>
   <g id="line2d_23">
    <path clip-path="url(#p734ee8794b)" d="M 58.651136 558.248408 
L 63.723864 557.125745 
L 67.951136 555.921098 
L 71.332955 554.743132 
L 74.714773 553.316036 
L 78.096591 551.589907 
L 80.632955 550.052125 
L 83.169318 548.262277 
L 85.705682 546.186677 
L 88.242045 543.777999 
L 90.778409 540.984926 
L 93.314773 537.756661 
L 95.851136 534.0094 
L 97.542045 531.164983 
L 99.232955 528.000507 
L 100.923864 524.498279 
L 102.614773 520.640149 
L 104.305682 516.38728 
L 105.996591 511.699024 
L 107.6875 506.552385 
L 109.378409 500.894031 
L 111.069318 494.679591 
L 112.760227 487.843649 
L 115.296591 476.553683 
L 117.832955 463.791922 
L 120.369318 449.472863 
L 124.596591 423.229466 
L 127.132955 407.100018 
L 128.823864 396.878538 
L 129.669318 392.061813 
L 133.896591 372.4985 
L 138.969318 355.180009 
L 142.351136 346.424883 
L 146.578409 337.489724 
L 148.269318 336.131627 
L 149.114773 337.38851 
L 149.960227 338.147184 
L 150.805682 338.355707 
L 151.651136 339.561038 
L 152.496591 339.777327 
L 153.342045 339.178251 
L 154.1875 339.498423 
L 155.032955 339.193752 
L 156.723864 336.886871 
L 157.569318 336.356383 
L 158.414773 335.324882 
L 159.260227 333.779973 
L 160.105682 332.565722 
L 160.951136 331.653057 
L 161.796591 330.309647 
L 163.4875 327.106964 
L 164.332955 325.825507 
L 165.178409 324.263197 
L 166.869318 320.707555 
L 170.251136 315.030527 
L 171.942045 313.000769 
L 174.478409 310.102476 
L 180.396591 304.646241 
L 182.932955 302.87581 
L 185.469318 301.54758 
L 188.005682 300.367378 
L 190.542045 299.469401 
L 192.232955 299.062166 
L 196.460227 298.431319 
L 202.378409 297.856111 
L 206.605682 297.698691 
L 221.823864 297.104135 
L 230.278409 296.440851 
L 237.8875 295.662998 
L 242.960227 294.881596 
L 256.4875 292.342188 
L 264.942045 290.543992 
L 273.396591 288.579719 
L 283.542045 285.98675 
L 301.296591 281.219074 
L 324.969318 274.574305 
L 346.105682 268.403166 
L 363.014773 263.314414 
L 388.378409 255.334143 
L 412.896591 247.402329 
L 422.196591 244.801579 
L 430.651136 242.667706 
L 454.323864 236.901279 
L 490.678409 227.954305 
L 519.423864 221.183774 
L 530.414773 218.71593 
L 536.332955 217.424799 
L 556.623864 213.086556 
L 565.923864 211.207082 
L 565.923864 211.207082 
" style="fill:none;stroke:#7f7f7f;stroke-linecap:square;stroke-width:2;"/>
   </g>
   <g id="line2d_24">
    <path clip-path="url(#p734ee8794b)" d="M 58.651136 558.248408 
L 63.723864 557.127559 
L 67.951136 555.928317 
L 71.332955 554.763705 
L 74.714773 553.354668 
L 78.096591 551.652731 
L 80.632955 550.145193 
L 83.169318 548.39583 
L 85.705682 546.373845 
L 88.242045 544.037564 
L 90.778409 541.334485 
L 93.314773 538.223464 
L 95.851136 534.65603 
L 98.3875 530.571845 
L 100.923864 525.896205 
L 102.614773 522.378173 
L 104.305682 518.457527 
L 105.996591 514.070532 
L 107.6875 509.179865 
L 109.378409 503.776131 
L 111.069318 497.826352 
L 112.760227 491.265099 
L 114.451136 484.052417 
L 116.142045 476.140694 
L 117.832955 467.452532 
L 119.523864 457.94178 
L 121.214773 447.53107 
L 124.596591 424.955182 
L 125.442045 418.843458 
L 127.132955 408.174548 
L 129.669318 391.028248 
L 134.742045 358.300358 
L 138.123864 344.47323 
L 138.969318 342.211233 
L 139.814773 339.573261 
L 140.660227 336.483314 
L 142.351136 331.374583 
L 144.8875 322.292419 
L 149.114773 303.66577 
L 150.805682 298.240343 
L 151.651136 295.840402 
L 153.342045 293.596718 
L 154.1875 292.751942 
L 155.032955 292.835446 
L 156.723864 292.629921 
L 157.569318 292.987572 
L 158.414773 292.847336 
L 159.260227 292.471214 
L 160.105682 292.29651 
L 160.951136 291.468311 
L 161.796591 290.350739 
L 162.642045 289.429112 
L 165.178409 284.778403 
L 168.560227 278.20884 
L 169.405682 276.595395 
L 171.096591 274.368757 
L 171.942045 273.245286 
L 172.7875 272.407815 
L 175.323864 270.643775 
L 179.551136 269.265993 
L 181.242045 268.865417 
L 183.778409 268.794606 
L 186.314773 269.172822 
L 190.542045 269.907685 
L 193.078409 270.156777 
L 195.614773 270.219059 
L 199.842045 270.029757 
L 204.069318 269.956604 
L 208.296591 269.86903 
L 213.369318 269.543936 
L 216.751136 269.139663 
L 222.669318 268.127881 
L 226.896591 267.278258 
L 233.660227 265.64339 
L 238.732955 264.488515 
L 243.805682 263.595946 
L 249.723864 262.800559 
L 260.714773 261.580079 
L 277.623864 259.939295 
L 296.223864 258.437294 
L 320.742045 256.552532 
L 351.178409 253.653535 
L 363.860227 252.161256 
L 372.314773 250.830385 
L 386.6875 248.33344 
L 406.132955 244.702313 
L 417.969318 242.256577 
L 431.496591 239.202846 
L 445.869318 235.596237 
L 461.932955 231.17983 
L 471.232955 228.464052 
L 503.360227 218.560653 
L 544.7875 204.663645 
L 545.632955 204.314009 
L 546.478409 204.096375 
L 547.323864 203.725801 
L 548.169318 203.534265 
L 549.014773 203.147079 
L 549.860227 202.965223 
L 550.705682 202.582766 
L 551.551136 202.371871 
L 553.242045 201.752257 
L 557.469318 200.325171 
L 558.314773 199.948086 
L 559.160227 199.736462 
L 560.005682 199.374999 
L 561.696591 198.811545 
L 565.923864 197.314831 
L 565.923864 197.314831 
" style="fill:none;stroke:#bcbd22;stroke-linecap:square;stroke-width:2;"/>
   </g>
   <g id="patch_4">
    <path d="M 33.2875 582.9575 
L 33.2875 39.3575 
" style="fill:none;stroke:#000000;stroke-linecap:square;stroke-linejoin:miter;stroke-width:0.8;"/>
   </g>
   <g id="patch_5">
    <path d="M 591.2875 582.9575 
L 591.2875 39.3575 
" style="fill:none;stroke:#000000;stroke-linecap:square;stroke-linejoin:miter;stroke-width:0.8;"/>
   </g>
   <g id="patch_6">
    <path d="M 33.2875 582.9575 
L 591.2875 582.9575 
" style="fill:none;stroke:#000000;stroke-linecap:square;stroke-linejoin:miter;stroke-width:0.8;"/>
   </g>
   <g id="patch_7">
    <path d="M 33.2875 39.3575 
L 591.2875 39.3575 
" style="fill:none;stroke:#000000;stroke-linecap:square;stroke-linejoin:miter;stroke-width:0.8;"/>
   </g>
   <g id="text_17">
    <!-- Class separation -->
    <g transform="translate(450.096591 93.7175)scale(0.1 -0.1)">
     <defs>
      <path d="M 64.40625 67.28125 
L 64.40625 56.890625 
Q 59.421875 61.53125 53.78125 63.8125 
Q 48.140625 66.109375 41.796875 66.109375 
Q 29.296875 66.109375 22.65625 58.46875 
Q 16.015625 50.828125 16.015625 36.375 
Q 16.015625 21.96875 22.65625 14.328125 
Q 29.296875 6.6875 41.796875 6.6875 
Q 48.140625 6.6875 53.78125 8.984375 
Q 59.421875 11.28125 64.40625 15.921875 
L 64.40625 5.609375 
Q 59.234375 2.09375 53.4375 0.328125 
Q 47.65625 -1.421875 41.21875 -1.421875 
Q 24.65625 -1.421875 15.125 8.703125 
Q 5.609375 18.84375 5.609375 36.375 
Q 5.609375 53.953125 15.125 64.078125 
Q 24.65625 74.21875 41.21875 74.21875 
Q 47.75 74.21875 53.53125 72.484375 
Q 59.328125 70.75 64.40625 67.28125 
z
" id="DejaVuSans-67"/>
      <path d="M 9.421875 75.984375 
L 18.40625 75.984375 
L 18.40625 0 
L 9.421875 0 
z
" id="DejaVuSans-108"/>
      <path d="M 34.28125 27.484375 
Q 23.390625 27.484375 19.1875 25 
Q 14.984375 22.515625 14.984375 16.5 
Q 14.984375 11.71875 18.140625 8.90625 
Q 21.296875 6.109375 26.703125 6.109375 
Q 34.1875 6.109375 38.703125 11.40625 
Q 43.21875 16.703125 43.21875 25.484375 
L 43.21875 27.484375 
z
M 52.203125 31.203125 
L 52.203125 0 
L 43.21875 0 
L 43.21875 8.296875 
Q 40.140625 3.328125 35.546875 0.953125 
Q 30.953125 -1.421875 24.3125 -1.421875 
Q 15.921875 -1.421875 10.953125 3.296875 
Q 6 8.015625 6 15.921875 
Q 6 25.140625 12.171875 29.828125 
Q 18.359375 34.515625 30.609375 34.515625 
L 43.21875 34.515625 
L 43.21875 35.40625 
Q 43.21875 41.609375 39.140625 45 
Q 35.0625 48.390625 27.6875 48.390625 
Q 23 48.390625 18.546875 47.265625 
Q 14.109375 46.140625 10.015625 43.890625 
L 10.015625 52.203125 
Q 14.9375 54.109375 19.578125 55.046875 
Q 24.21875 56 28.609375 56 
Q 40.484375 56 46.34375 49.84375 
Q 52.203125 43.703125 52.203125 31.203125 
z
" id="DejaVuSans-97"/>
      <path id="DejaVuSans-32"/>
      <path d="M 56.203125 29.59375 
L 56.203125 25.203125 
L 14.890625 25.203125 
Q 15.484375 15.921875 20.484375 11.0625 
Q 25.484375 6.203125 34.421875 6.203125 
Q 39.59375 6.203125 44.453125 7.46875 
Q 49.3125 8.734375 54.109375 11.28125 
L 54.109375 2.78125 
Q 49.265625 0.734375 44.1875 -0.34375 
Q 39.109375 -1.421875 33.890625 -1.421875 
Q 20.796875 -1.421875 13.15625 6.1875 
Q 5.515625 13.8125 5.515625 26.8125 
Q 5.515625 40.234375 12.765625 48.109375 
Q 20.015625 56 32.328125 56 
Q 43.359375 56 49.78125 48.890625 
Q 56.203125 41.796875 56.203125 29.59375 
z
M 47.21875 32.234375 
Q 47.125 39.59375 43.09375 43.984375 
Q 39.0625 48.390625 32.421875 48.390625 
Q 24.90625 48.390625 20.390625 44.140625 
Q 15.875 39.890625 15.1875 32.171875 
z
" id="DejaVuSans-101"/>
      <path d="M 41.109375 46.296875 
Q 39.59375 47.171875 37.8125 47.578125 
Q 36.03125 48 33.890625 48 
Q 26.265625 48 22.1875 43.046875 
Q 18.109375 38.09375 18.109375 28.8125 
L 18.109375 0 
L 9.078125 0 
L 9.078125 54.6875 
L 18.109375 54.6875 
L 18.109375 46.1875 
Q 20.953125 51.171875 25.484375 53.578125 
Q 30.03125 56 36.53125 56 
Q 37.453125 56 38.578125 55.875 
Q 39.703125 55.765625 41.0625 55.515625 
z
" id="DejaVuSans-114"/>
      <path d="M 18.3125 70.21875 
L 18.3125 54.6875 
L 36.8125 54.6875 
L 36.8125 47.703125 
L 18.3125 47.703125 
L 18.3125 18.015625 
Q 18.3125 11.328125 20.140625 9.421875 
Q 21.96875 7.515625 27.59375 7.515625 
L 36.8125 7.515625 
L 36.8125 0 
L 27.59375 0 
Q 17.1875 0 13.234375 3.875 
Q 9.28125 7.765625 9.28125 18.015625 
L 9.28125 47.703125 
L 2.6875 47.703125 
L 2.6875 54.6875 
L 9.28125 54.6875 
L 9.28125 70.21875 
z
" id="DejaVuSans-116"/>
      <path d="M 9.421875 54.6875 
L 18.40625 54.6875 
L 18.40625 0 
L 9.421875 0 
z
M 9.421875 75.984375 
L 18.40625 75.984375 
L 18.40625 64.59375 
L 9.421875 64.59375 
z
" id="DejaVuSans-105"/>
      <path d="M 54.890625 33.015625 
L 54.890625 0 
L 45.90625 0 
L 45.90625 32.71875 
Q 45.90625 40.484375 42.875 44.328125 
Q 39.84375 48.1875 33.796875 48.1875 
Q 26.515625 48.1875 22.3125 43.546875 
Q 18.109375 38.921875 18.109375 30.90625 
L 18.109375 0 
L 9.078125 0 
L 9.078125 54.6875 
L 18.109375 54.6875 
L 18.109375 46.1875 
Q 21.34375 51.125 25.703125 53.5625 
Q 30.078125 56 35.796875 56 
Q 45.21875 56 50.046875 50.171875 
Q 54.890625 44.34375 54.890625 33.015625 
z
" id="DejaVuSans-110"/>
     </defs>
     <use xlink:href="#DejaVuSans-67"/>
     <use x="69.824219" xlink:href="#DejaVuSans-108"/>
     <use x="97.607422" xlink:href="#DejaVuSans-97"/>
     <use x="158.886719" xlink:href="#DejaVuSans-115"/>
     <use x="210.986328" xlink:href="#DejaVuSans-115"/>
     <use x="263.085938" xlink:href="#DejaVuSans-32"/>
     <use x="294.873047" xlink:href="#DejaVuSans-115"/>
     <use x="346.972656" xlink:href="#DejaVuSans-101"/>
     <use x="408.496094" xlink:href="#DejaVuSans-112"/>
     <use x="471.972656" xlink:href="#DejaVuSans-97"/>
     <use x="533.251953" xlink:href="#DejaVuSans-114"/>
     <use x="574.365234" xlink:href="#DejaVuSans-97"/>
     <use x="635.644531" xlink:href="#DejaVuSans-116"/>
     <use x="674.853516" xlink:href="#DejaVuSans-105"/>
     <use x="702.636719" xlink:href="#DejaVuSans-111"/>
     <use x="763.818359" xlink:href="#DejaVuSans-110"/>
    </g>
   </g>
   <g id="text_18">
    <!-- Scalar magnitude -->
    <g transform="translate(241.6775 19.3575)scale(0.16 -0.16)">
     <defs>
      <path d="M 53.515625 70.515625 
L 53.515625 60.890625 
Q 47.90625 63.578125 42.921875 64.890625 
Q 37.9375 66.21875 33.296875 66.21875 
Q 25.25 66.21875 20.875 63.09375 
Q 16.5 59.96875 16.5 54.203125 
Q 16.5 49.359375 19.40625 46.890625 
Q 22.3125 44.4375 30.421875 42.921875 
L 36.375 41.703125 
Q 47.40625 39.59375 52.65625 34.296875 
Q 57.90625 29 57.90625 20.125 
Q 57.90625 9.515625 50.796875 4.046875 
Q 43.703125 -1.421875 29.984375 -1.421875 
Q 24.8125 -1.421875 18.96875 -0.25 
Q 13.140625 0.921875 6.890625 3.21875 
L 6.890625 13.375 
Q 12.890625 10.015625 18.65625 8.296875 
Q 24.421875 6.59375 29.984375 6.59375 
Q 38.421875 6.59375 43.015625 9.90625 
Q 47.609375 13.234375 47.609375 19.390625 
Q 47.609375 24.75 44.3125 27.78125 
Q 41.015625 30.8125 33.5 32.328125 
L 27.484375 33.5 
Q 16.453125 35.6875 11.515625 40.375 
Q 6.59375 45.0625 6.59375 53.421875 
Q 6.59375 63.09375 13.40625 68.65625 
Q 20.21875 74.21875 32.171875 74.21875 
Q 37.3125 74.21875 42.625 73.28125 
Q 47.953125 72.359375 53.515625 70.515625 
z
" id="DejaVuSans-83"/>
      <path d="M 52 44.1875 
Q 55.375 50.25 60.0625 53.125 
Q 64.75 56 71.09375 56 
Q 79.640625 56 84.28125 50.015625 
Q 88.921875 44.046875 88.921875 33.015625 
L 88.921875 0 
L 79.890625 0 
L 79.890625 32.71875 
Q 79.890625 40.578125 77.09375 44.375 
Q 74.3125 48.1875 68.609375 48.1875 
Q 61.625 48.1875 57.5625 43.546875 
Q 53.515625 38.921875 53.515625 30.90625 
L 53.515625 0 
L 44.484375 0 
L 44.484375 32.71875 
Q 44.484375 40.625 41.703125 44.40625 
Q 38.921875 48.1875 33.109375 48.1875 
Q 26.21875 48.1875 22.15625 43.53125 
Q 18.109375 38.875 18.109375 30.90625 
L 18.109375 0 
L 9.078125 0 
L 9.078125 54.6875 
L 18.109375 54.6875 
L 18.109375 46.1875 
Q 21.1875 51.21875 25.484375 53.609375 
Q 29.78125 56 35.6875 56 
Q 41.65625 56 45.828125 52.96875 
Q 50 49.953125 52 44.1875 
z
" id="DejaVuSans-109"/>
      <path d="M 45.40625 27.984375 
Q 45.40625 37.75 41.375 43.109375 
Q 37.359375 48.484375 30.078125 48.484375 
Q 22.859375 48.484375 18.828125 43.109375 
Q 14.796875 37.75 14.796875 27.984375 
Q 14.796875 18.265625 18.828125 12.890625 
Q 22.859375 7.515625 30.078125 7.515625 
Q 37.359375 7.515625 41.375 12.890625 
Q 45.40625 18.265625 45.40625 27.984375 
z
M 54.390625 6.78125 
Q 54.390625 -7.171875 48.1875 -13.984375 
Q 42 -20.796875 29.203125 -20.796875 
Q 24.46875 -20.796875 20.265625 -20.09375 
Q 16.0625 -19.390625 12.109375 -17.921875 
L 12.109375 -9.1875 
Q 16.0625 -11.328125 19.921875 -12.34375 
Q 23.78125 -13.375 27.78125 -13.375 
Q 36.625 -13.375 41.015625 -8.765625 
Q 45.40625 -4.15625 45.40625 5.171875 
L 45.40625 9.625 
Q 42.625 4.78125 38.28125 2.390625 
Q 33.9375 0 27.875 0 
Q 17.828125 0 11.671875 7.65625 
Q 5.515625 15.328125 5.515625 27.984375 
Q 5.515625 40.671875 11.671875 48.328125 
Q 17.828125 56 27.875 56 
Q 33.9375 56 38.28125 53.609375 
Q 42.625 51.21875 45.40625 46.390625 
L 45.40625 54.6875 
L 54.390625 54.6875 
z
" id="DejaVuSans-103"/>
      <path d="M 8.5 21.578125 
L 8.5 54.6875 
L 17.484375 54.6875 
L 17.484375 21.921875 
Q 17.484375 14.15625 20.5 10.265625 
Q 23.53125 6.390625 29.59375 6.390625 
Q 36.859375 6.390625 41.078125 11.03125 
Q 45.3125 15.671875 45.3125 23.6875 
L 45.3125 54.6875 
L 54.296875 54.6875 
L 54.296875 0 
L 45.3125 0 
L 45.3125 8.40625 
Q 42.046875 3.421875 37.71875 1 
Q 33.40625 -1.421875 27.6875 -1.421875 
Q 18.265625 -1.421875 13.375 4.4375 
Q 8.5 10.296875 8.5 21.578125 
z
M 31.109375 56 
z
" id="DejaVuSans-117"/>
      <path d="M 45.40625 46.390625 
L 45.40625 75.984375 
L 54.390625 75.984375 
L 54.390625 0 
L 45.40625 0 
L 45.40625 8.203125 
Q 42.578125 3.328125 38.25 0.953125 
Q 33.9375 -1.421875 27.875 -1.421875 
Q 17.96875 -1.421875 11.734375 6.484375 
Q 5.515625 14.40625 5.515625 27.296875 
Q 5.515625 40.1875 11.734375 48.09375 
Q 17.96875 56 27.875 56 
Q 33.9375 56 38.25 53.625 
Q 42.578125 51.265625 45.40625 46.390625 
z
M 14.796875 27.296875 
Q 14.796875 17.390625 18.875 11.75 
Q 22.953125 6.109375 30.078125 6.109375 
Q 37.203125 6.109375 41.296875 11.75 
Q 45.40625 17.390625 45.40625 27.296875 
Q 45.40625 37.203125 41.296875 42.84375 
Q 37.203125 48.484375 30.078125 48.484375 
Q 22.953125 48.484375 18.875 42.84375 
Q 14.796875 37.203125 14.796875 27.296875 
z
" id="DejaVuSans-100"/>
     </defs>
     <use xlink:href="#DejaVuSans-83"/>
     <use x="63.476562" xlink:href="#DejaVuSans-99"/>
     <use x="118.457031" xlink:href="#DejaVuSans-97"/>
     <use x="179.736328" xlink:href="#DejaVuSans-108"/>
     <use x="207.519531" xlink:href="#DejaVuSans-97"/>
     <use x="268.798828" xlink:href="#DejaVuSans-114"/>
     <use x="309.912109" xlink:href="#DejaVuSans-32"/>
     <use x="341.699219" xlink:href="#DejaVuSans-109"/>
     <use x="439.111328" xlink:href="#DejaVuSans-97"/>
     <use x="500.390625" xlink:href="#DejaVuSans-103"/>
     <use x="563.867188" xlink:href="#DejaVuSans-110"/>
     <use x="627.246094" xlink:href="#DejaVuSans-105"/>
     <use x="655.029297" xlink:href="#DejaVuSans-116"/>
     <use x="694.238281" xlink:href="#DejaVuSans-117"/>
     <use x="757.617188" xlink:href="#DejaVuSans-100"/>
     <use x="821.09375" xlink:href="#DejaVuSans-101"/>
    </g>
   </g>
   <g id="legend_1">
    <g id="line2d_25">
     <path d="M 56.279688 628.671938 
L 76.279688 628.671938 
" style="fill:none;stroke:#1f77b4;stroke-linecap:square;stroke-width:2;"/>
    </g>
    <g id="line2d_26"/>
    <g id="text_19">
     <!-- Baseline -->
     <g transform="translate(84.279688 632.171938)scale(0.1 -0.1)">
      <defs>
       <path d="M 19.671875 34.8125 
L 19.671875 8.109375 
L 35.5 8.109375 
Q 43.453125 8.109375 47.28125 11.40625 
Q 51.125 14.703125 51.125 21.484375 
Q 51.125 28.328125 47.28125 31.5625 
Q 43.453125 34.8125 35.5 34.8125 
z
M 19.671875 64.796875 
L 19.671875 42.828125 
L 34.28125 42.828125 
Q 41.5 42.828125 45.03125 45.53125 
Q 48.578125 48.25 48.578125 53.8125 
Q 48.578125 59.328125 45.03125 62.0625 
Q 41.5 64.796875 34.28125 64.796875 
z
M 9.8125 72.90625 
L 35.015625 72.90625 
Q 46.296875 72.90625 52.390625 68.21875 
Q 58.5 63.53125 58.5 54.890625 
Q 58.5 48.1875 55.375 44.234375 
Q 52.25 40.28125 46.1875 39.3125 
Q 53.46875 37.75 57.5 32.78125 
Q 61.53125 27.828125 61.53125 20.40625 
Q 61.53125 10.640625 54.890625 5.3125 
Q 48.25 0 35.984375 0 
L 9.8125 0 
z
" id="DejaVuSans-66"/>
      </defs>
      <use xlink:href="#DejaVuSans-66"/>
      <use x="68.603516" xlink:href="#DejaVuSans-97"/>
      <use x="129.882812" xlink:href="#DejaVuSans-115"/>
      <use x="181.982422" xlink:href="#DejaVuSans-101"/>
      <use x="243.505859" xlink:href="#DejaVuSans-108"/>
      <use x="271.289062" xlink:href="#DejaVuSans-105"/>
      <use x="299.072266" xlink:href="#DejaVuSans-110"/>
      <use x="362.451172" xlink:href="#DejaVuSans-101"/>
     </g>
    </g>
    <g id="line2d_27">
     <path d="M 56.279688 643.350063 
L 76.279688 643.350063 
" style="fill:none;stroke:#ff7f0e;stroke-linecap:square;stroke-width:3;"/>
    </g>
    <g id="line2d_28"/>
    <g id="text_20">
     <!-- Forced normaliz. -->
     <g transform="translate(84.279688 646.850063)scale(0.1 -0.1)">
      <defs>
       <path d="M 9.8125 72.90625 
L 51.703125 72.90625 
L 51.703125 64.59375 
L 19.671875 64.59375 
L 19.671875 43.109375 
L 48.578125 43.109375 
L 48.578125 34.8125 
L 19.671875 34.8125 
L 19.671875 0 
L 9.8125 0 
z
" id="DejaVuSans-70"/>
       <path d="M 5.515625 54.6875 
L 48.1875 54.6875 
L 48.1875 46.484375 
L 14.40625 7.171875 
L 48.1875 7.171875 
L 48.1875 0 
L 4.296875 0 
L 4.296875 8.203125 
L 38.09375 47.515625 
L 5.515625 47.515625 
z
" id="DejaVuSans-122"/>
       <path d="M 10.6875 12.40625 
L 21 12.40625 
L 21 0 
L 10.6875 0 
z
" id="DejaVuSans-46"/>
      </defs>
      <use xlink:href="#DejaVuSans-70"/>
      <use x="53.894531" xlink:href="#DejaVuSans-111"/>
      <use x="115.076172" xlink:href="#DejaVuSans-114"/>
      <use x="153.939453" xlink:href="#DejaVuSans-99"/>
      <use x="208.919922" xlink:href="#DejaVuSans-101"/>
      <use x="270.443359" xlink:href="#DejaVuSans-100"/>
      <use x="333.919922" xlink:href="#DejaVuSans-32"/>
      <use x="365.707031" xlink:href="#DejaVuSans-110"/>
      <use x="429.085938" xlink:href="#DejaVuSans-111"/>
      <use x="490.267578" xlink:href="#DejaVuSans-114"/>
      <use x="529.630859" xlink:href="#DejaVuSans-109"/>
      <use x="627.042969" xlink:href="#DejaVuSans-97"/>
      <use x="688.322266" xlink:href="#DejaVuSans-108"/>
      <use x="716.105469" xlink:href="#DejaVuSans-105"/>
      <use x="743.888672" xlink:href="#DejaVuSans-122"/>
      <use x="796.378906" xlink:href="#DejaVuSans-46"/>
     </g>
    </g>
    <g id="line2d_29">
     <path d="M 187.095313 628.671938 
L 207.095313 628.671938 
" style="fill:none;stroke:#2ca02c;stroke-linecap:square;stroke-width:2;"/>
    </g>
    <g id="line2d_30"/>
    <g id="text_21">
     <!-- $\lambda=0.005$ -->
     <g transform="translate(215.095313 632.171938)scale(0.1 -0.1)">
      <defs>
       <path d="M 36.71875 67.4375 
L 48.828125 0 
L 39.3125 0 
L 31.84375 40.4375 
L 5.125 0 
L -4.390625 0 
L 29.734375 52.4375 
L 28.03125 62.109375 
Q 26.953125 68.265625 21.734375 68.265625 
L 17.046875 68.265625 
L 18.5 75.984375 
L 24.21875 75.875 
Q 35.203125 75.734375 36.71875 67.4375 
z
" id="DejaVuSans-Oblique-955"/>
       <path d="M 10.59375 45.40625 
L 73.1875 45.40625 
L 73.1875 37.203125 
L 10.59375 37.203125 
z
M 10.59375 25.484375 
L 73.1875 25.484375 
L 73.1875 17.1875 
L 10.59375 17.1875 
z
" id="DejaVuSans-61"/>
      </defs>
      <use transform="translate(0 0.015625)" xlink:href="#DejaVuSans-Oblique-955"/>
      <use transform="translate(78.662109 0.015625)" xlink:href="#DejaVuSans-61"/>
      <use transform="translate(181.933594 0.015625)" xlink:href="#DejaVuSans-48"/>
      <use transform="translate(245.556641 0.015625)" xlink:href="#DejaVuSans-46"/>
      <use transform="translate(277.34375 0.015625)" xlink:href="#DejaVuSans-48"/>
      <use transform="translate(340.966797 0.015625)" xlink:href="#DejaVuSans-48"/>
      <use transform="translate(404.589844 0.015625)" xlink:href="#DejaVuSans-53"/>
     </g>
    </g>
    <g id="line2d_31">
     <path d="M 187.095313 643.350063 
L 207.095313 643.350063 
" style="fill:none;stroke:#d62728;stroke-linecap:square;stroke-width:2;"/>
    </g>
    <g id="line2d_32"/>
    <g id="text_22">
     <!-- $\lambda=0.05$ -->
     <g transform="translate(215.095313 646.850063)scale(0.1 -0.1)">
      <use transform="translate(0 0.015625)" xlink:href="#DejaVuSans-Oblique-955"/>
      <use transform="translate(78.662109 0.015625)" xlink:href="#DejaVuSans-61"/>
      <use transform="translate(181.933594 0.015625)" xlink:href="#DejaVuSans-48"/>
      <use transform="translate(245.556641 0.015625)" xlink:href="#DejaVuSans-46"/>
      <use transform="translate(277.34375 0.015625)" xlink:href="#DejaVuSans-48"/>
      <use transform="translate(340.966797 0.015625)" xlink:href="#DejaVuSans-53"/>
     </g>
    </g>
    <g id="line2d_33">
     <path d="M 281.995313 628.671938 
L 301.995313 628.671938 
" style="fill:none;stroke:#9467bd;stroke-linecap:square;stroke-width:2;"/>
    </g>
    <g id="line2d_34"/>
    <g id="text_23">
     <!-- $\lambda=0.5$ -->
     <g transform="translate(309.995313 632.171938)scale(0.1 -0.1)">
      <use transform="translate(0 0.015625)" xlink:href="#DejaVuSans-Oblique-955"/>
      <use transform="translate(78.662109 0.015625)" xlink:href="#DejaVuSans-61"/>
      <use transform="translate(181.933594 0.015625)" xlink:href="#DejaVuSans-48"/>
      <use transform="translate(245.556641 0.015625)" xlink:href="#DejaVuSans-46"/>
      <use transform="translate(277.34375 0.015625)" xlink:href="#DejaVuSans-53"/>
     </g>
    </g>
    <g id="line2d_35">
     <path d="M 281.995313 643.350063 
L 301.995313 643.350063 
" style="fill:none;stroke:#8c564b;stroke-linecap:square;stroke-width:2;"/>
    </g>
    <g id="line2d_36"/>
    <g id="text_24">
     <!-- $\lambda=1.5$ -->
     <g transform="translate(309.995313 646.850063)scale(0.1 -0.1)">
      <use transform="translate(0 0.015625)" xlink:href="#DejaVuSans-Oblique-955"/>
      <use transform="translate(78.662109 0.015625)" xlink:href="#DejaVuSans-61"/>
      <use transform="translate(181.933594 0.015625)" xlink:href="#DejaVuSans-49"/>
      <use transform="translate(245.556641 0.015625)" xlink:href="#DejaVuSans-46"/>
      <use transform="translate(277.34375 0.015625)" xlink:href="#DejaVuSans-53"/>
     </g>
    </g>
    <g id="line2d_37">
     <path d="M 364.095313 628.671938 
L 384.095313 628.671938 
" style="fill:none;stroke:#e377c2;stroke-linecap:square;stroke-width:2;"/>
    </g>
    <g id="line2d_38"/>
    <g id="text_25">
     <!-- $\lambda=3$ -->
     <g transform="translate(392.095313 632.171938)scale(0.1 -0.1)">
      <use transform="translate(0 0.015625)" xlink:href="#DejaVuSans-Oblique-955"/>
      <use transform="translate(78.662109 0.015625)" xlink:href="#DejaVuSans-61"/>
      <use transform="translate(181.933594 0.015625)" xlink:href="#DejaVuSans-51"/>
     </g>
    </g>
    <g id="line2d_39">
     <path d="M 436.695312 628.671938 
L 456.695312 628.671938 
" style="fill:none;stroke:#7f7f7f;stroke-linecap:square;stroke-width:2;"/>
    </g>
    <g id="line2d_40"/>
    <g id="text_26">
     <!-- $\lambda=5$ -->
     <g transform="translate(464.695312 632.171938)scale(0.1 -0.1)">
      <use transform="translate(0 0.015625)" xlink:href="#DejaVuSans-Oblique-955"/>
      <use transform="translate(78.662109 0.015625)" xlink:href="#DejaVuSans-61"/>
      <use transform="translate(181.933594 0.015625)" xlink:href="#DejaVuSans-53"/>
     </g>
    </g>
    <g id="line2d_41">
     <path d="M 509.295313 628.671938 
L 529.295313 628.671938 
" style="fill:none;stroke:#bcbd22;stroke-linecap:square;stroke-width:2;"/>
    </g>
    <g id="line2d_42"/>
    <g id="text_27">
     <!-- $\lambda=10$ -->
     <g transform="translate(537.295313 632.171938)scale(0.1 -0.1)">
      <use transform="translate(0 0.015625)" xlink:href="#DejaVuSans-Oblique-955"/>
      <use transform="translate(78.662109 0.015625)" xlink:href="#DejaVuSans-61"/>
      <use transform="translate(181.933594 0.015625)" xlink:href="#DejaVuSans-49"/>
      <use transform="translate(245.556641 0.015625)" xlink:href="#DejaVuSans-48"/>
     </g>
    </g>
   </g>
  </g>
 </g>
 <defs>
  <clipPath id="p734ee8794b">
   <rect height="543.6" width="558" x="33.2875" y="39.3575"/>
  </clipPath>
 </defs>
</svg>
