<?xml version="1.0" encoding="utf-8" standalone="no"?>
<!DOCTYPE svg PUBLIC "-//W3C//DTD SVG 1.1//EN"
  "http://www.w3.org/Graphics/SVG/1.1/DTD/svg11.dtd">
<!-- Created with matplotlib (https://matplotlib.org/) -->
<svg height="720pt" version="1.1" viewBox="0 0 720 720" width="720pt" xmlns="http://www.w3.org/2000/svg" xmlns:xlink="http://www.w3.org/1999/xlink">
 <metadata>
  <rdf:RDF xmlns:cc="http://creativecommons.org/ns#" xmlns:dc="http://purl.org/dc/elements/1.1/" xmlns:rdf="http://www.w3.org/1999/02/22-rdf-syntax-ns#">
   <cc:Work>
    <dc:type rdf:resource="http://purl.org/dc/dcmitype/StillImage"/>
    <dc:date>2021-01-13T11:47:24.286817</dc:date>
    <dc:format>image/svg+xml</dc:format>
    <dc:creator>
     <cc:Agent>
      <dc:title>Matplotlib v3.3.2, https://matplotlib.org/</dc:title>
     </cc:Agent>
    </dc:creator>
   </cc:Work>
  </rdf:RDF>
 </metadata>
 <defs>
  <style type="text/css">*{stroke-linecap:butt;stroke-linejoin:round;}</style>
 </defs>
 <g id="figure_1">
  <g id="patch_1">
   <path d="M 0 720 
L 720 720 
L 720 0 
L 0 0 
z
" style="fill:none;"/>
  </g>
  <g id="axes_1">
   <g id="patch_2">
    <path d="M 90 630 
L 648 630 
L 648 86.4 
L 90 86.4 
z
" style="fill:#ffffff;"/>
   </g>
   <g id="patch_3">
    <path clip-path="url(#p09596b8283)" d="M 149.181818 630 
L 192.3 630 
L 192.3 86.4 
L 149.181818 86.4 
z
" style="fill:#1f77b4;opacity:0.2;"/>
   </g>
   <g id="matplotlib.axis_1">
    <g id="xtick_1">
     <g id="line2d_1">
      <defs>
       <path d="M 0 0 
L 0 3.5 
" id="m1b8f4e4f95" style="stroke:#000000;stroke-width:0.8;"/>
      </defs>
      <g>
       <use style="stroke:#000000;stroke-width:0.8;" x="115.363636" xlink:href="#m1b8f4e4f95" y="630"/>
      </g>
     </g>
     <g id="text_1">
      <!-- 0 -->
      <g transform="translate(112.182386 644.598438)scale(0.1 -0.1)">
       <defs>
        <path d="M 31.78125 66.40625 
Q 24.171875 66.40625 20.328125 58.90625 
Q 16.5 51.421875 16.5 36.375 
Q 16.5 21.390625 20.328125 13.890625 
Q 24.171875 6.390625 31.78125 6.390625 
Q 39.453125 6.390625 43.28125 13.890625 
Q 47.125 21.390625 47.125 36.375 
Q 47.125 51.421875 43.28125 58.90625 
Q 39.453125 66.40625 31.78125 66.40625 
z
M 31.78125 74.21875 
Q 44.046875 74.21875 50.515625 64.515625 
Q 56.984375 54.828125 56.984375 36.375 
Q 56.984375 17.96875 50.515625 8.265625 
Q 44.046875 -1.421875 31.78125 -1.421875 
Q 19.53125 -1.421875 13.0625 8.265625 
Q 6.59375 17.96875 6.59375 36.375 
Q 6.59375 54.828125 13.0625 64.515625 
Q 19.53125 74.21875 31.78125 74.21875 
z
" id="DejaVuSans-48"/>
       </defs>
       <use xlink:href="#DejaVuSans-48"/>
      </g>
     </g>
    </g>
    <g id="xtick_2">
     <g id="line2d_2">
      <g>
       <use style="stroke:#000000;stroke-width:0.8;" x="199.909091" xlink:href="#m1b8f4e4f95" y="630"/>
      </g>
     </g>
     <g id="text_2">
      <!-- 100 -->
      <g transform="translate(190.365341 644.598438)scale(0.1 -0.1)">
       <defs>
        <path d="M 12.40625 8.296875 
L 28.515625 8.296875 
L 28.515625 63.921875 
L 10.984375 60.40625 
L 10.984375 69.390625 
L 28.421875 72.90625 
L 38.28125 72.90625 
L 38.28125 8.296875 
L 54.390625 8.296875 
L 54.390625 0 
L 12.40625 0 
z
" id="DejaVuSans-49"/>
       </defs>
       <use xlink:href="#DejaVuSans-49"/>
       <use x="63.623047" xlink:href="#DejaVuSans-48"/>
       <use x="127.246094" xlink:href="#DejaVuSans-48"/>
      </g>
     </g>
    </g>
    <g id="xtick_3">
     <g id="line2d_3">
      <g>
       <use style="stroke:#000000;stroke-width:0.8;" x="284.454545" xlink:href="#m1b8f4e4f95" y="630"/>
      </g>
     </g>
     <g id="text_3">
      <!-- 200 -->
      <g transform="translate(274.910795 644.598438)scale(0.1 -0.1)">
       <defs>
        <path d="M 19.1875 8.296875 
L 53.609375 8.296875 
L 53.609375 0 
L 7.328125 0 
L 7.328125 8.296875 
Q 12.9375 14.109375 22.625 23.890625 
Q 32.328125 33.6875 34.8125 36.53125 
Q 39.546875 41.84375 41.421875 45.53125 
Q 43.3125 49.21875 43.3125 52.78125 
Q 43.3125 58.59375 39.234375 62.25 
Q 35.15625 65.921875 28.609375 65.921875 
Q 23.96875 65.921875 18.8125 64.3125 
Q 13.671875 62.703125 7.8125 59.421875 
L 7.8125 69.390625 
Q 13.765625 71.78125 18.9375 73 
Q 24.125 74.21875 28.421875 74.21875 
Q 39.75 74.21875 46.484375 68.546875 
Q 53.21875 62.890625 53.21875 53.421875 
Q 53.21875 48.921875 51.53125 44.890625 
Q 49.859375 40.875 45.40625 35.40625 
Q 44.1875 33.984375 37.640625 27.21875 
Q 31.109375 20.453125 19.1875 8.296875 
z
" id="DejaVuSans-50"/>
       </defs>
       <use xlink:href="#DejaVuSans-50"/>
       <use x="63.623047" xlink:href="#DejaVuSans-48"/>
       <use x="127.246094" xlink:href="#DejaVuSans-48"/>
      </g>
     </g>
    </g>
    <g id="xtick_4">
     <g id="line2d_4">
      <g>
       <use style="stroke:#000000;stroke-width:0.8;" x="369" xlink:href="#m1b8f4e4f95" y="630"/>
      </g>
     </g>
     <g id="text_4">
      <!-- 300 -->
      <g transform="translate(359.45625 644.598438)scale(0.1 -0.1)">
       <defs>
        <path d="M 40.578125 39.3125 
Q 47.65625 37.796875 51.625 33 
Q 55.609375 28.21875 55.609375 21.1875 
Q 55.609375 10.40625 48.1875 4.484375 
Q 40.765625 -1.421875 27.09375 -1.421875 
Q 22.515625 -1.421875 17.65625 -0.515625 
Q 12.796875 0.390625 7.625 2.203125 
L 7.625 11.71875 
Q 11.71875 9.328125 16.59375 8.109375 
Q 21.484375 6.890625 26.8125 6.890625 
Q 36.078125 6.890625 40.9375 10.546875 
Q 45.796875 14.203125 45.796875 21.1875 
Q 45.796875 27.640625 41.28125 31.265625 
Q 36.765625 34.90625 28.71875 34.90625 
L 20.21875 34.90625 
L 20.21875 43.015625 
L 29.109375 43.015625 
Q 36.375 43.015625 40.234375 45.921875 
Q 44.09375 48.828125 44.09375 54.296875 
Q 44.09375 59.90625 40.109375 62.90625 
Q 36.140625 65.921875 28.71875 65.921875 
Q 24.65625 65.921875 20.015625 65.03125 
Q 15.375 64.15625 9.8125 62.3125 
L 9.8125 71.09375 
Q 15.4375 72.65625 20.34375 73.4375 
Q 25.25 74.21875 29.59375 74.21875 
Q 40.828125 74.21875 47.359375 69.109375 
Q 53.90625 64.015625 53.90625 55.328125 
Q 53.90625 49.265625 50.4375 45.09375 
Q 46.96875 40.921875 40.578125 39.3125 
z
" id="DejaVuSans-51"/>
       </defs>
       <use xlink:href="#DejaVuSans-51"/>
       <use x="63.623047" xlink:href="#DejaVuSans-48"/>
       <use x="127.246094" xlink:href="#DejaVuSans-48"/>
      </g>
     </g>
    </g>
    <g id="xtick_5">
     <g id="line2d_5">
      <g>
       <use style="stroke:#000000;stroke-width:0.8;" x="453.545455" xlink:href="#m1b8f4e4f95" y="630"/>
      </g>
     </g>
     <g id="text_5">
      <!-- 400 -->
      <g transform="translate(444.001705 644.598438)scale(0.1 -0.1)">
       <defs>
        <path d="M 37.796875 64.3125 
L 12.890625 25.390625 
L 37.796875 25.390625 
z
M 35.203125 72.90625 
L 47.609375 72.90625 
L 47.609375 25.390625 
L 58.015625 25.390625 
L 58.015625 17.1875 
L 47.609375 17.1875 
L 47.609375 0 
L 37.796875 0 
L 37.796875 17.1875 
L 4.890625 17.1875 
L 4.890625 26.703125 
z
" id="DejaVuSans-52"/>
       </defs>
       <use xlink:href="#DejaVuSans-52"/>
       <use x="63.623047" xlink:href="#DejaVuSans-48"/>
       <use x="127.246094" xlink:href="#DejaVuSans-48"/>
      </g>
     </g>
    </g>
    <g id="xtick_6">
     <g id="line2d_6">
      <g>
       <use style="stroke:#000000;stroke-width:0.8;" x="538.090909" xlink:href="#m1b8f4e4f95" y="630"/>
      </g>
     </g>
     <g id="text_6">
      <!-- 500 -->
      <g transform="translate(528.547159 644.598438)scale(0.1 -0.1)">
       <defs>
        <path d="M 10.796875 72.90625 
L 49.515625 72.90625 
L 49.515625 64.59375 
L 19.828125 64.59375 
L 19.828125 46.734375 
Q 21.96875 47.46875 24.109375 47.828125 
Q 26.265625 48.1875 28.421875 48.1875 
Q 40.625 48.1875 47.75 41.5 
Q 54.890625 34.8125 54.890625 23.390625 
Q 54.890625 11.625 47.5625 5.09375 
Q 40.234375 -1.421875 26.90625 -1.421875 
Q 22.3125 -1.421875 17.546875 -0.640625 
Q 12.796875 0.140625 7.71875 1.703125 
L 7.71875 11.625 
Q 12.109375 9.234375 16.796875 8.0625 
Q 21.484375 6.890625 26.703125 6.890625 
Q 35.15625 6.890625 40.078125 11.328125 
Q 45.015625 15.765625 45.015625 23.390625 
Q 45.015625 31 40.078125 35.4375 
Q 35.15625 39.890625 26.703125 39.890625 
Q 22.75 39.890625 18.8125 39.015625 
Q 14.890625 38.140625 10.796875 36.28125 
z
" id="DejaVuSans-53"/>
       </defs>
       <use xlink:href="#DejaVuSans-53"/>
       <use x="63.623047" xlink:href="#DejaVuSans-48"/>
       <use x="127.246094" xlink:href="#DejaVuSans-48"/>
      </g>
     </g>
    </g>
    <g id="xtick_7">
     <g id="line2d_7">
      <g>
       <use style="stroke:#000000;stroke-width:0.8;" x="622.636364" xlink:href="#m1b8f4e4f95" y="630"/>
      </g>
     </g>
     <g id="text_7">
      <!-- 600 -->
      <g transform="translate(613.092614 644.598438)scale(0.1 -0.1)">
       <defs>
        <path d="M 33.015625 40.375 
Q 26.375 40.375 22.484375 35.828125 
Q 18.609375 31.296875 18.609375 23.390625 
Q 18.609375 15.53125 22.484375 10.953125 
Q 26.375 6.390625 33.015625 6.390625 
Q 39.65625 6.390625 43.53125 10.953125 
Q 47.40625 15.53125 47.40625 23.390625 
Q 47.40625 31.296875 43.53125 35.828125 
Q 39.65625 40.375 33.015625 40.375 
z
M 52.59375 71.296875 
L 52.59375 62.3125 
Q 48.875 64.0625 45.09375 64.984375 
Q 41.3125 65.921875 37.59375 65.921875 
Q 27.828125 65.921875 22.671875 59.328125 
Q 17.53125 52.734375 16.796875 39.40625 
Q 19.671875 43.65625 24.015625 45.921875 
Q 28.375 48.1875 33.59375 48.1875 
Q 44.578125 48.1875 50.953125 41.515625 
Q 57.328125 34.859375 57.328125 23.390625 
Q 57.328125 12.15625 50.6875 5.359375 
Q 44.046875 -1.421875 33.015625 -1.421875 
Q 20.359375 -1.421875 13.671875 8.265625 
Q 6.984375 17.96875 6.984375 36.375 
Q 6.984375 53.65625 15.1875 63.9375 
Q 23.390625 74.21875 37.203125 74.21875 
Q 40.921875 74.21875 44.703125 73.484375 
Q 48.484375 72.75 52.59375 71.296875 
z
" id="DejaVuSans-54"/>
       </defs>
       <use xlink:href="#DejaVuSans-54"/>
       <use x="63.623047" xlink:href="#DejaVuSans-48"/>
       <use x="127.246094" xlink:href="#DejaVuSans-48"/>
      </g>
     </g>
    </g>
    <g id="text_8">
     <!-- Epochs -->
     <g transform="translate(351.084375 658.276562)scale(0.1 -0.1)">
      <defs>
       <path d="M 9.8125 72.90625 
L 55.90625 72.90625 
L 55.90625 64.59375 
L 19.671875 64.59375 
L 19.671875 43.015625 
L 54.390625 43.015625 
L 54.390625 34.71875 
L 19.671875 34.71875 
L 19.671875 8.296875 
L 56.78125 8.296875 
L 56.78125 0 
L 9.8125 0 
z
" id="DejaVuSans-69"/>
       <path d="M 18.109375 8.203125 
L 18.109375 -20.796875 
L 9.078125 -20.796875 
L 9.078125 54.6875 
L 18.109375 54.6875 
L 18.109375 46.390625 
Q 20.953125 51.265625 25.265625 53.625 
Q 29.59375 56 35.59375 56 
Q 45.5625 56 51.78125 48.09375 
Q 58.015625 40.1875 58.015625 27.296875 
Q 58.015625 14.40625 51.78125 6.484375 
Q 45.5625 -1.421875 35.59375 -1.421875 
Q 29.59375 -1.421875 25.265625 0.953125 
Q 20.953125 3.328125 18.109375 8.203125 
z
M 48.6875 27.296875 
Q 48.6875 37.203125 44.609375 42.84375 
Q 40.53125 48.484375 33.40625 48.484375 
Q 26.265625 48.484375 22.1875 42.84375 
Q 18.109375 37.203125 18.109375 27.296875 
Q 18.109375 17.390625 22.1875 11.75 
Q 26.265625 6.109375 33.40625 6.109375 
Q 40.53125 6.109375 44.609375 11.75 
Q 48.6875 17.390625 48.6875 27.296875 
z
" id="DejaVuSans-112"/>
       <path d="M 30.609375 48.390625 
Q 23.390625 48.390625 19.1875 42.75 
Q 14.984375 37.109375 14.984375 27.296875 
Q 14.984375 17.484375 19.15625 11.84375 
Q 23.34375 6.203125 30.609375 6.203125 
Q 37.796875 6.203125 41.984375 11.859375 
Q 46.1875 17.53125 46.1875 27.296875 
Q 46.1875 37.015625 41.984375 42.703125 
Q 37.796875 48.390625 30.609375 48.390625 
z
M 30.609375 56 
Q 42.328125 56 49.015625 48.375 
Q 55.71875 40.765625 55.71875 27.296875 
Q 55.71875 13.875 49.015625 6.21875 
Q 42.328125 -1.421875 30.609375 -1.421875 
Q 18.84375 -1.421875 12.171875 6.21875 
Q 5.515625 13.875 5.515625 27.296875 
Q 5.515625 40.765625 12.171875 48.375 
Q 18.84375 56 30.609375 56 
z
" id="DejaVuSans-111"/>
       <path d="M 48.78125 52.59375 
L 48.78125 44.1875 
Q 44.96875 46.296875 41.140625 47.34375 
Q 37.3125 48.390625 33.40625 48.390625 
Q 24.65625 48.390625 19.8125 42.84375 
Q 14.984375 37.3125 14.984375 27.296875 
Q 14.984375 17.28125 19.8125 11.734375 
Q 24.65625 6.203125 33.40625 6.203125 
Q 37.3125 6.203125 41.140625 7.25 
Q 44.96875 8.296875 48.78125 10.40625 
L 48.78125 2.09375 
Q 45.015625 0.34375 40.984375 -0.53125 
Q 36.96875 -1.421875 32.421875 -1.421875 
Q 20.0625 -1.421875 12.78125 6.34375 
Q 5.515625 14.109375 5.515625 27.296875 
Q 5.515625 40.671875 12.859375 48.328125 
Q 20.21875 56 33.015625 56 
Q 37.15625 56 41.109375 55.140625 
Q 45.0625 54.296875 48.78125 52.59375 
z
" id="DejaVuSans-99"/>
       <path d="M 54.890625 33.015625 
L 54.890625 0 
L 45.90625 0 
L 45.90625 32.71875 
Q 45.90625 40.484375 42.875 44.328125 
Q 39.84375 48.1875 33.796875 48.1875 
Q 26.515625 48.1875 22.3125 43.546875 
Q 18.109375 38.921875 18.109375 30.90625 
L 18.109375 0 
L 9.078125 0 
L 9.078125 75.984375 
L 18.109375 75.984375 
L 18.109375 46.1875 
Q 21.34375 51.125 25.703125 53.5625 
Q 30.078125 56 35.796875 56 
Q 45.21875 56 50.046875 50.171875 
Q 54.890625 44.34375 54.890625 33.015625 
z
" id="DejaVuSans-104"/>
       <path d="M 44.28125 53.078125 
L 44.28125 44.578125 
Q 40.484375 46.53125 36.375 47.5 
Q 32.28125 48.484375 27.875 48.484375 
Q 21.1875 48.484375 17.84375 46.4375 
Q 14.5 44.390625 14.5 40.28125 
Q 14.5 37.15625 16.890625 35.375 
Q 19.28125 33.59375 26.515625 31.984375 
L 29.59375 31.296875 
Q 39.15625 29.25 43.1875 25.515625 
Q 47.21875 21.78125 47.21875 15.09375 
Q 47.21875 7.46875 41.1875 3.015625 
Q 35.15625 -1.421875 24.609375 -1.421875 
Q 20.21875 -1.421875 15.453125 -0.5625 
Q 10.6875 0.296875 5.421875 2 
L 5.421875 11.28125 
Q 10.40625 8.6875 15.234375 7.390625 
Q 20.0625 6.109375 24.8125 6.109375 
Q 31.15625 6.109375 34.5625 8.28125 
Q 37.984375 10.453125 37.984375 14.40625 
Q 37.984375 18.0625 35.515625 20.015625 
Q 33.0625 21.96875 24.703125 23.78125 
L 21.578125 24.515625 
Q 13.234375 26.265625 9.515625 29.90625 
Q 5.8125 33.546875 5.8125 39.890625 
Q 5.8125 47.609375 11.28125 51.796875 
Q 16.75 56 26.8125 56 
Q 31.78125 56 36.171875 55.265625 
Q 40.578125 54.546875 44.28125 53.078125 
z
" id="DejaVuSans-115"/>
      </defs>
      <use xlink:href="#DejaVuSans-69"/>
      <use x="63.183594" xlink:href="#DejaVuSans-112"/>
      <use x="126.660156" xlink:href="#DejaVuSans-111"/>
      <use x="187.841797" xlink:href="#DejaVuSans-99"/>
      <use x="242.822266" xlink:href="#DejaVuSans-104"/>
      <use x="306.201172" xlink:href="#DejaVuSans-115"/>
     </g>
    </g>
   </g>
   <g id="matplotlib.axis_2">
    <g id="ytick_1">
     <g id="line2d_8">
      <defs>
       <path d="M 0 0 
L -3.5 0 
" id="m72163c9516" style="stroke:#000000;stroke-width:0.8;"/>
      </defs>
      <g>
       <use style="stroke:#000000;stroke-width:0.8;" x="90" xlink:href="#m72163c9516" y="605.299034"/>
      </g>
     </g>
     <g id="text_9">
      <!-- 0.0 -->
      <g transform="translate(67.096875 609.098253)scale(0.1 -0.1)">
       <defs>
        <path d="M 10.6875 12.40625 
L 21 12.40625 
L 21 0 
L 10.6875 0 
z
" id="DejaVuSans-46"/>
       </defs>
       <use xlink:href="#DejaVuSans-48"/>
       <use x="63.623047" xlink:href="#DejaVuSans-46"/>
       <use x="95.410156" xlink:href="#DejaVuSans-48"/>
      </g>
     </g>
    </g>
    <g id="ytick_2">
     <g id="line2d_9">
      <g>
       <use style="stroke:#000000;stroke-width:0.8;" x="90" xlink:href="#m72163c9516" y="511.741721"/>
      </g>
     </g>
     <g id="text_10">
      <!-- 0.2 -->
      <g transform="translate(67.096875 515.54094)scale(0.1 -0.1)">
       <use xlink:href="#DejaVuSans-48"/>
       <use x="63.623047" xlink:href="#DejaVuSans-46"/>
       <use x="95.410156" xlink:href="#DejaVuSans-50"/>
      </g>
     </g>
    </g>
    <g id="ytick_3">
     <g id="line2d_10">
      <g>
       <use style="stroke:#000000;stroke-width:0.8;" x="90" xlink:href="#m72163c9516" y="418.184408"/>
      </g>
     </g>
     <g id="text_11">
      <!-- 0.4 -->
      <g transform="translate(67.096875 421.983627)scale(0.1 -0.1)">
       <use xlink:href="#DejaVuSans-48"/>
       <use x="63.623047" xlink:href="#DejaVuSans-46"/>
       <use x="95.410156" xlink:href="#DejaVuSans-52"/>
      </g>
     </g>
    </g>
    <g id="ytick_4">
     <g id="line2d_11">
      <g>
       <use style="stroke:#000000;stroke-width:0.8;" x="90" xlink:href="#m72163c9516" y="324.627095"/>
      </g>
     </g>
     <g id="text_12">
      <!-- 0.6 -->
      <g transform="translate(67.096875 328.426313)scale(0.1 -0.1)">
       <use xlink:href="#DejaVuSans-48"/>
       <use x="63.623047" xlink:href="#DejaVuSans-46"/>
       <use x="95.410156" xlink:href="#DejaVuSans-54"/>
      </g>
     </g>
    </g>
    <g id="ytick_5">
     <g id="line2d_12">
      <g>
       <use style="stroke:#000000;stroke-width:0.8;" x="90" xlink:href="#m72163c9516" y="231.069782"/>
      </g>
     </g>
     <g id="text_13">
      <!-- 0.8 -->
      <g transform="translate(67.096875 234.869)scale(0.1 -0.1)">
       <defs>
        <path d="M 31.78125 34.625 
Q 24.75 34.625 20.71875 30.859375 
Q 16.703125 27.09375 16.703125 20.515625 
Q 16.703125 13.921875 20.71875 10.15625 
Q 24.75 6.390625 31.78125 6.390625 
Q 38.8125 6.390625 42.859375 10.171875 
Q 46.921875 13.96875 46.921875 20.515625 
Q 46.921875 27.09375 42.890625 30.859375 
Q 38.875 34.625 31.78125 34.625 
z
M 21.921875 38.8125 
Q 15.578125 40.375 12.03125 44.71875 
Q 8.5 49.078125 8.5 55.328125 
Q 8.5 64.0625 14.71875 69.140625 
Q 20.953125 74.21875 31.78125 74.21875 
Q 42.671875 74.21875 48.875 69.140625 
Q 55.078125 64.0625 55.078125 55.328125 
Q 55.078125 49.078125 51.53125 44.71875 
Q 48 40.375 41.703125 38.8125 
Q 48.828125 37.15625 52.796875 32.3125 
Q 56.78125 27.484375 56.78125 20.515625 
Q 56.78125 9.90625 50.3125 4.234375 
Q 43.84375 -1.421875 31.78125 -1.421875 
Q 19.734375 -1.421875 13.25 4.234375 
Q 6.78125 9.90625 6.78125 20.515625 
Q 6.78125 27.484375 10.78125 32.3125 
Q 14.796875 37.15625 21.921875 38.8125 
z
M 18.3125 54.390625 
Q 18.3125 48.734375 21.84375 45.5625 
Q 25.390625 42.390625 31.78125 42.390625 
Q 38.140625 42.390625 41.71875 45.5625 
Q 45.3125 48.734375 45.3125 54.390625 
Q 45.3125 60.0625 41.71875 63.234375 
Q 38.140625 66.40625 31.78125 66.40625 
Q 25.390625 66.40625 21.84375 63.234375 
Q 18.3125 60.0625 18.3125 54.390625 
z
" id="DejaVuSans-56"/>
       </defs>
       <use xlink:href="#DejaVuSans-48"/>
       <use x="63.623047" xlink:href="#DejaVuSans-46"/>
       <use x="95.410156" xlink:href="#DejaVuSans-56"/>
      </g>
     </g>
    </g>
    <g id="ytick_6">
     <g id="line2d_13">
      <g>
       <use style="stroke:#000000;stroke-width:0.8;" x="90" xlink:href="#m72163c9516" y="137.512468"/>
      </g>
     </g>
     <g id="text_14">
      <!-- 1.0 -->
      <g transform="translate(67.096875 141.311687)scale(0.1 -0.1)">
       <use xlink:href="#DejaVuSans-49"/>
       <use x="63.623047" xlink:href="#DejaVuSans-46"/>
       <use x="95.410156" xlink:href="#DejaVuSans-48"/>
      </g>
     </g>
    </g>
    <g id="text_15">
     <!-- Loss -->
     <g transform="translate(61.017187 369.167188)rotate(-90)scale(0.1 -0.1)">
      <defs>
       <path d="M 9.8125 72.90625 
L 19.671875 72.90625 
L 19.671875 8.296875 
L 55.171875 8.296875 
L 55.171875 0 
L 9.8125 0 
z
" id="DejaVuSans-76"/>
      </defs>
      <use xlink:href="#DejaVuSans-76"/>
      <use x="53.962891" xlink:href="#DejaVuSans-111"/>
      <use x="115.144531" xlink:href="#DejaVuSans-115"/>
      <use x="167.244141" xlink:href="#DejaVuSans-115"/>
     </g>
    </g>
   </g>
   <g id="line2d_14">
    <path clip-path="url(#p09596b8283)" d="M 115.363636 137.47176 
L 121.281818 138.231106 
L 122.972727 138.741964 
L 124.663636 139.523225 
L 126.354545 140.649473 
L 128.045455 142.289116 
L 128.890909 143.329487 
L 130.581818 145.951088 
L 131.427273 147.573026 
L 133.118182 151.635498 
L 133.963636 154.039673 
L 134.809091 156.821541 
L 135.654545 160.077575 
L 136.5 163.792829 
L 138.190909 172.972224 
L 139.881818 184.12928 
L 140.727273 190.079185 
L 142.418182 204.19109 
L 144.109091 221.697352 
L 145.8 244.177362 
L 147.490909 271.118449 
L 151.718182 345.204074 
L 153.409091 377.774769 
L 155.1 414.524079 
L 156.790909 454.004456 
L 158.481818 488.728469 
L 160.172727 517.828806 
L 161.018182 530.232644 
L 161.863636 540.917569 
L 163.554545 558.931504 
L 165.245455 573.98944 
L 166.090909 579.782734 
L 166.936364 584.361213 
L 167.781818 588.149304 
L 168.627273 591.233991 
L 169.472727 593.561386 
L 171.163636 597.161671 
L 172.009091 598.547095 
L 172.854545 599.646111 
L 174.545455 601.266286 
L 176.236364 602.303035 
L 177.927273 602.973306 
L 180.463636 603.630196 
L 183.845455 604.16697 
L 187.227273 604.488982 
L 193.145455 604.759048 
L 203.290909 604.932535 
L 229.5 605.079603 
L 267.545455 605.158961 
L 418.881818 605.251389 
L 622.636364 605.290909 
L 622.636364 605.290909 
" style="fill:none;stroke:#1f77b4;stroke-linecap:square;stroke-width:1.5;"/>
   </g>
   <g id="line2d_15">
    <path clip-path="url(#p09596b8283)" d="M 115.363636 137.507951 
L 121.281818 138.03685 
L 122.972727 138.373612 
L 124.663636 138.868577 
L 126.354545 139.585235 
L 128.045455 140.599814 
L 128.890909 141.246989 
L 130.581818 142.952686 
L 131.427273 144.070012 
L 133.118182 147.012286 
L 133.963636 148.822402 
L 134.809091 151.083234 
L 135.654545 153.9311 
L 136.5 157.437544 
L 138.190909 166.657229 
L 139.036364 171.912838 
L 141.572727 190.317857 
L 143.263636 205.533035 
L 144.109091 214.742626 
L 145.8 236.882305 
L 147.490909 263.099206 
L 149.181818 294.948462 
L 155.945455 435.046378 
L 157.636364 471.037821 
L 159.327273 500.129452 
L 161.018182 526.294213 
L 162.709091 546.230044 
L 164.4 564.496885 
L 165.245455 571.96522 
L 166.090909 578.094479 
L 167.781818 587.13149 
L 168.627273 590.681235 
L 169.472727 593.360017 
L 170.318182 595.456843 
L 171.163636 597.179139 
L 172.009091 598.537635 
L 172.854545 599.591372 
L 174.545455 601.205195 
L 176.236364 602.315425 
L 177.927273 603.003378 
L 179.618182 603.431936 
L 183 603.994439 
L 187.227273 604.481382 
L 192.3 604.737831 
L 202.445455 604.931006 
L 222.736364 605.047142 
L 287.836364 605.18074 
L 486.518182 605.262744 
L 622.636364 605.290404 
L 622.636364 605.290404 
" style="fill:none;stroke:#1f77b4;stroke-dasharray:9.6,2.4,1.5,2.4;stroke-dashoffset:0;stroke-width:1.5;"/>
   </g>
   <g id="line2d_16">
    <path clip-path="url(#p09596b8283)" d="M 115.363636 137.47176 
L 122.127273 138.308507 
L 124.663636 139.040862 
L 126.354545 139.730836 
L 128.045455 140.628059 
L 130.581818 142.261597 
L 132.272727 143.589349 
L 134.809091 145.863259 
L 136.5 147.648559 
L 139.881818 152.039066 
L 141.572727 154.58979 
L 143.263636 157.620145 
L 145.8 163.670175 
L 146.645455 165.221098 
L 148.336364 169.485075 
L 149.181818 171.350119 
L 150.872727 176.247552 
L 151.718182 178.456886 
L 154.254545 186.393904 
L 155.945455 192.132211 
L 156.790909 195.346142 
L 157.636364 197.554333 
L 158.481818 201.438777 
L 159.327273 203.678251 
L 160.172727 208.303025 
L 161.018182 211.148855 
L 161.863636 210.722005 
L 162.709091 218.635267 
L 163.554545 217.540945 
L 164.4 224.069937 
L 165.245455 226.268368 
L 166.090909 234.736655 
L 166.936364 236.823362 
L 167.781818 238.5193 
L 168.627273 243.782326 
L 170.318182 255.48381 
L 171.163636 255.082529 
L 172.009091 263.792582 
L 172.854545 262.563616 
L 173.7 274.726384 
L 174.545455 272.12681 
L 175.390909 281.408087 
L 176.236364 287.216629 
L 177.081818 291.40789 
L 177.927273 296.729273 
L 179.618182 311.576795 
L 180.463636 317.532807 
L 181.309091 321.259967 
L 182.154545 329.685984 
L 183 333.673313 
L 183.845455 338.468977 
L 184.690909 348.428183 
L 185.536364 353.714128 
L 186.381818 362.550432 
L 187.227273 364.783828 
L 188.072727 375.478609 
L 188.918182 379.387645 
L 189.763636 387.840554 
L 190.609091 388.968726 
L 191.454545 385.984767 
L 192.3 406.665382 
L 193.145455 412.649067 
L 193.990909 408.196453 
L 194.836364 422.616066 
L 195.681818 431.928418 
L 196.527273 437.218252 
L 197.372727 443.446409 
L 198.218182 447.712059 
L 199.063636 452.84585 
L 199.909091 452.721189 
L 200.754545 461.218751 
L 201.6 466.473315 
L 202.445455 476.017047 
L 204.136364 487.569222 
L 207.518182 505.647649 
L 208.363636 509.780754 
L 209.209091 511.876084 
L 210.054545 514.537884 
L 210.9 515.197286 
L 211.745455 523.441168 
L 212.590909 528.349727 
L 213.436364 532.416605 
L 214.281818 534.596474 
L 215.127273 534.583502 
L 215.972727 540.143648 
L 216.818182 544.052921 
L 217.663636 546.629987 
L 218.509091 548.591664 
L 219.354545 550.234263 
L 220.2 554.371188 
L 221.045455 556.623133 
L 221.890909 557.519589 
L 223.581818 562.783566 
L 224.427273 563.70007 
L 226.118182 567.750626 
L 230.345455 574.720119 
L 232.036364 577.259592 
L 233.727273 579.245166 
L 235.418182 581.215985 
L 237.954545 583.761338 
L 240.490909 585.92322 
L 243.027273 587.754993 
L 246.409091 589.820336 
L 249.790909 591.548989 
L 253.172727 593.000966 
L 257.4 594.467375 
L 260.781818 595.449719 
L 265.009091 596.487106 
L 270.081818 597.514417 
L 276 598.481953 
L 282.763636 599.3726 
L 291.218182 600.246118 
L 301.363636 601.052131 
L 313.2 601.762357 
L 327.572727 602.404018 
L 345.327273 602.976837 
L 369 603.507107 
L 400.281818 603.963068 
L 444.245455 604.356071 
L 506.809091 604.671505 
L 605.727273 604.921402 
L 622.636364 604.948855 
L 622.636364 604.948855 
" style="fill:none;stroke:#ff7f0e;stroke-linecap:square;stroke-width:1.5;"/>
   </g>
   <g id="line2d_17">
    <path clip-path="url(#p09596b8283)" d="M 115.363636 137.507951 
L 122.127273 138.079816 
L 125.509091 138.737252 
L 128.045455 139.467209 
L 130.581818 140.462606 
L 132.272727 141.42669 
L 134.809091 143.204686 
L 136.5 144.585554 
L 138.190909 146.55669 
L 139.881818 148.554091 
L 140.727273 149.728631 
L 142.418182 152.67941 
L 143.263636 154.418732 
L 145.8 160.584223 
L 146.645455 162.200613 
L 147.490909 164.406518 
L 149.181818 167.825412 
L 150.872727 172.724965 
L 151.718182 174.641814 
L 152.563636 177.597806 
L 154.254545 182.230359 
L 155.1 185.265481 
L 155.945455 187.720625 
L 156.790909 191.010201 
L 157.636364 192.594053 
L 158.481818 197.051672 
L 159.327273 198.896724 
L 160.172727 203.285669 
L 161.018182 206.384726 
L 161.863636 205.30072 
L 162.709091 213.585847 
L 163.554545 212.686366 
L 164.4 218.620016 
L 165.245455 220.494679 
L 166.090909 229.233005 
L 166.936364 231.782418 
L 167.781818 232.711762 
L 168.627273 237.910324 
L 170.318182 251.141875 
L 171.163636 249.521386 
L 172.009091 258.412311 
L 172.854545 256.576878 
L 173.7 269.540481 
L 174.545455 266.354459 
L 175.390909 276.88171 
L 176.236364 282.55547 
L 177.081818 286.063085 
L 177.927273 291.333109 
L 179.618182 306.772962 
L 180.463636 312.649593 
L 181.309091 316.264443 
L 182.154545 324.763484 
L 183 328.507178 
L 183.845455 334.924585 
L 184.690909 343.412528 
L 185.536364 348.580949 
L 186.381818 358.116373 
L 187.227273 360.474988 
L 188.072727 371.236757 
L 188.918182 374.809254 
L 189.763636 383.847621 
L 190.609091 386.915477 
L 191.454545 381.6782 
L 192.3 403.36036 
L 193.145455 408.91502 
L 193.990909 404.133785 
L 194.836364 420.786502 
L 195.681818 428.846801 
L 196.527273 433.984162 
L 197.372727 441.794246 
L 198.218182 445.123108 
L 199.063636 449.97027 
L 199.909091 449.445191 
L 200.754545 458.974481 
L 201.6 463.812428 
L 202.445455 474.104172 
L 203.290909 479.26869 
L 204.136364 485.66354 
L 205.827273 495.365281 
L 207.518182 504.057936 
L 208.363636 508.57401 
L 209.209091 509.815899 
L 210.054545 513.512201 
L 210.9 512.910439 
L 211.745455 522.556674 
L 213.436364 531.022255 
L 214.281818 533.788265 
L 215.127273 532.64549 
L 215.972727 539.393351 
L 216.818182 542.57903 
L 218.509091 547.892596 
L 219.354545 548.693382 
L 220.2 553.515607 
L 221.045455 555.836065 
L 221.890909 556.068582 
L 222.736364 559.541435 
L 223.581818 561.90539 
L 224.427273 562.589098 
L 225.272727 565.300982 
L 226.963636 568.159404 
L 227.809091 570.129954 
L 230.345455 574.129371 
L 231.190909 575.188032 
L 232.881818 577.705276 
L 233.727273 578.519931 
L 235.418182 580.65628 
L 237.109091 582.369527 
L 237.954545 583.298139 
L 239.645455 584.581277 
L 240.490909 585.424938 
L 241.336364 586.089937 
L 242.181818 586.593077 
L 243.872727 587.827501 
L 245.563636 588.837837 
L 247.254545 589.814643 
L 253.172727 592.59512 
L 259.090909 594.630264 
L 263.318182 595.763882 
L 268.390909 596.897691 
L 272.618182 597.679252 
L 279.381818 598.70299 
L 285.3 599.431387 
L 293.754545 600.262738 
L 303.054545 600.982526 
L 315.736364 601.72674 
L 330.109091 602.353635 
L 348.709091 602.937701 
L 375.763636 603.515788 
L 409.581818 603.976629 
L 453.545455 604.347433 
L 518.645455 604.662285 
L 619.254545 604.908843 
L 622.636364 604.914379 
L 622.636364 604.914379 
" style="fill:none;stroke:#ff7f0e;stroke-dasharray:9.6,2.4,1.5,2.4;stroke-dashoffset:0;stroke-width:1.5;"/>
   </g>
   <g id="line2d_18">
    <path clip-path="url(#p09596b8283)" d="M 115.363636 137.47176 
L 120.436364 138.086648 
L 122.127273 138.577068 
L 123.818182 139.415488 
L 124.663636 139.990671 
L 125.509091 140.70836 
L 126.354545 141.619245 
L 127.2 142.736348 
L 128.045455 144.049295 
L 128.890909 145.652469 
L 129.736364 147.558026 
L 130.581818 149.908555 
L 131.427273 152.917217 
L 132.272727 156.572441 
L 133.118182 160.843668 
L 133.963636 166.093589 
L 134.809091 172.388203 
L 135.654545 180.308602 
L 136.5 189.852586 
L 138.190909 213.005283 
L 139.036364 226.25281 
L 139.881818 241.945973 
L 141.572727 280.216177 
L 144.109091 337.782042 
L 146.645455 394.296049 
L 147.490909 416.385038 
L 148.336364 450.996811 
L 149.181818 477.832963 
L 150.027273 512.122849 
L 151.718182 545.001991 
L 152.563636 560.053061 
L 153.409091 565.099965 
L 154.254545 571.116285 
L 155.1 575.814312 
L 155.945455 577.662257 
L 156.790909 577.905406 
L 157.636364 577.661921 
L 158.481818 577.659201 
L 160.172727 578.135595 
L 161.018182 578.085669 
L 162.709091 577.600319 
L 163.554545 577.596996 
L 164.4 577.744237 
L 165.245455 578.225428 
L 166.090909 578.544096 
L 167.781818 578.863005 
L 169.472727 579.539402 
L 172.854545 580.973892 
L 182.154545 584.612681 
L 188.918182 586.924904 
L 193.145455 588.118675 
L 198.218182 589.287365 
L 203.290909 590.219296 
L 209.209091 591.066177 
L 216.818182 591.937368 
L 228.654545 593.069202 
L 241.336364 594.050006 
L 256.554545 595.001973 
L 276 595.984805 
L 301.363636 597.031967 
L 331.8 598.057102 
L 368.154545 599.050877 
L 410.427273 599.977037 
L 461.154545 600.858857 
L 521.181818 601.673942 
L 593.045455 602.415633 
L 622.636364 602.665658 
L 622.636364 602.665658 
" style="fill:none;stroke:#2ca02c;stroke-linecap:square;stroke-width:1.5;"/>
   </g>
   <g id="line2d_19">
    <path clip-path="url(#p09596b8283)" d="M 115.363636 137.507951 
L 120.436364 137.932793 
L 122.972727 138.481404 
L 124.663636 139.095483 
L 125.509091 139.512825 
L 127.2 140.708834 
L 128.890909 142.345243 
L 129.736364 143.469344 
L 130.581818 145.156667 
L 131.427273 147.63091 
L 132.272727 150.862797 
L 133.118182 154.735001 
L 133.963636 160.002265 
L 134.809091 166.33926 
L 135.654545 174.129617 
L 136.5 183.231527 
L 137.345455 193.867574 
L 139.036364 219.313977 
L 139.881818 234.075399 
L 141.572727 270.911562 
L 142.418182 291.122487 
L 143.263636 308.139527 
L 144.954545 352.745554 
L 145.8 371.278608 
L 147.490909 419.674753 
L 148.336364 455.994649 
L 149.181818 481.961111 
L 150.027273 512.542986 
L 152.563636 558.735464 
L 155.1 575.084996 
L 155.945455 577.128687 
L 156.790909 577.378136 
L 157.636364 576.948203 
L 158.481818 576.893406 
L 160.172727 577.742863 
L 161.018182 577.870883 
L 162.709091 577.49212 
L 164.4 577.835005 
L 166.090909 578.459296 
L 168.627273 579.182011 
L 177.081818 582.609449 
L 184.690909 585.473256 
L 188.918182 586.891867 
L 193.990909 588.31567 
L 199.063636 589.469175 
L 204.136364 590.407984 
L 210.054545 591.252789 
L 217.663636 592.123977 
L 229.5 593.228097 
L 243.027273 594.250248 
L 259.090909 595.227374 
L 277.690909 596.137158 
L 303.9 597.188227 
L 335.181818 598.2059 
L 371.536364 599.161116 
L 416.345455 600.10457 
L 472.145455 601.032105 
L 535.554545 601.842793 
L 610.8 602.56903 
L 622.636364 602.664499 
L 622.636364 602.664499 
" style="fill:none;stroke:#2ca02c;stroke-dasharray:9.6,2.4,1.5,2.4;stroke-dashoffset:0;stroke-width:1.5;"/>
   </g>
   <g id="line2d_20">
    <path clip-path="url(#p09596b8283)" d="M 115.363636 137.47176 
L 116.209091 137.560203 
L 117.054545 137.490051 
L 117.9 137.660161 
L 119.590909 137.748436 
L 122.972727 138.367617 
L 124.663636 138.983062 
L 126.354545 139.883157 
L 128.045455 141.240688 
L 129.736364 143.136402 
L 130.581818 144.344931 
L 131.427273 145.783989 
L 132.272727 147.531705 
L 133.118182 149.653934 
L 133.963636 152.081949 
L 134.809091 155.069616 
L 135.654545 158.827976 
L 136.5 163.274303 
L 137.345455 168.822983 
L 139.036364 182.332018 
L 139.881818 190.918357 
L 141.572727 211.993213 
L 142.418182 224.647099 
L 143.263636 232.422205 
L 144.109091 250.093 
L 144.954545 264.005519 
L 145.8 272.95996 
L 146.645455 293.502488 
L 147.490909 305.486559 
L 149.181818 341.778265 
L 150.027273 355.657047 
L 150.872727 382.510193 
L 151.718182 395.065627 
L 153.409091 431.909569 
L 154.254545 444.781773 
L 155.1 462.272854 
L 155.945455 462.484159 
L 156.790909 473.995961 
L 157.636364 474.377181 
L 158.481818 480.926987 
L 159.327273 480.345419 
L 160.172727 485.632172 
L 161.018182 487.96798 
L 161.863636 489.776305 
L 162.709091 493.892652 
L 163.554545 495.80023 
L 164.4 499.975096 
L 165.245455 503.409157 
L 166.090909 505.746108 
L 167.781818 513.030953 
L 168.627273 515.747835 
L 169.472727 518.994604 
L 171.163636 523.991362 
L 172.009091 526.827308 
L 172.854545 528.558001 
L 173.7 530.691641 
L 176.236364 535.89019 
L 177.081818 537.043358 
L 177.927273 538.723431 
L 178.772727 539.781632 
L 181.309091 543.360221 
L 183.845455 546.751345 
L 188.072727 551.623845 
L 189.763636 553.367231 
L 192.3 555.682595 
L 193.990909 557.125212 
L 197.372727 559.770697 
L 203.290909 563.83524 
L 207.518182 566.357531 
L 211.745455 568.614962 
L 215.972727 570.661212 
L 221.045455 572.875349 
L 226.963636 575.181905 
L 232.881818 577.245366 
L 239.645455 579.355156 
L 246.409091 581.236327 
L 254.018182 583.120236 
L 262.472727 584.975908 
L 271.772727 586.780836 
L 281.918182 588.513216 
L 292.909091 590.158773 
L 304.745455 591.704566 
L 318.272727 593.23405 
L 332.645455 594.630924 
L 348.709091 595.956924 
L 366.463636 597.189589 
L 385.909091 598.318195 
L 407.890909 599.36732 
L 433.254545 600.351294 
L 462.845455 601.261742 
L 495.818182 602.048822 
L 535.554545 602.765391 
L 582.9 603.387395 
L 622.636364 603.773058 
L 622.636364 603.773058 
" style="fill:none;stroke:#d62728;stroke-linecap:square;stroke-width:1.5;"/>
   </g>
   <g id="line2d_21">
    <path clip-path="url(#p09596b8283)" d="M 115.363636 137.507951 
L 116.209091 137.566197 
L 117.054545 137.469753 
L 117.9 137.627817 
L 119.590909 137.668693 
L 124.663636 138.329474 
L 126.354545 138.787329 
L 128.890909 139.812029 
L 129.736364 140.27033 
L 130.581818 140.887503 
L 131.427273 141.825713 
L 132.272727 143.365371 
L 133.118182 145.530149 
L 133.963636 148.125067 
L 134.809091 151.176863 
L 135.654545 154.757279 
L 136.5 159.056081 
L 137.345455 164.952145 
L 139.036364 179.066839 
L 139.881818 187.14073 
L 142.418182 220.328055 
L 143.263636 226.765174 
L 144.109091 244.722906 
L 144.954545 259.607177 
L 145.8 266.23437 
L 146.645455 286.835256 
L 147.490909 297.908804 
L 148.336364 313.532512 
L 149.181818 335.35043 
L 150.027273 350.626224 
L 150.872727 375.575124 
L 151.718182 386.532486 
L 152.563636 409.115159 
L 153.409091 427.531135 
L 154.254545 437.856045 
L 155.1 457.393097 
L 155.945455 457.498715 
L 156.790909 470.646047 
L 157.636364 471.344554 
L 158.481818 477.808454 
L 159.327273 476.348637 
L 160.172727 482.617292 
L 161.018182 486.069199 
L 161.863636 488.347123 
L 162.709091 492.551739 
L 163.554545 494.095098 
L 165.245455 502.055962 
L 166.090909 504.484402 
L 166.936364 508.476513 
L 167.781818 511.902175 
L 168.627273 514.746123 
L 169.472727 518.374921 
L 172.009091 526.349245 
L 172.854545 528.085627 
L 173.7 530.237558 
L 176.236364 535.617787 
L 177.081818 536.869017 
L 177.927273 538.467646 
L 178.772727 539.433634 
L 182.154545 544.145999 
L 187.227273 550.404118 
L 189.763636 553.051974 
L 193.145455 556.240801 
L 199.063636 560.880808 
L 201.6 562.608783 
L 206.672727 565.780326 
L 210.054545 567.62243 
L 214.281818 569.751993 
L 218.509091 571.695626 
L 223.581818 573.782609 
L 229.5 575.96336 
L 235.418182 577.907965 
L 242.181818 579.900247 
L 249.790909 581.904279 
L 258.245455 583.876457 
L 266.7 585.62889 
L 276.845455 587.485286 
L 286.990909 589.119765 
L 297.981818 590.661124 
L 311.509091 592.328787 
L 325.036364 593.762806 
L 340.254545 595.143393 
L 357.163636 596.443148 
L 375.763636 597.650379 
L 395.209091 598.693837 
L 418.881818 599.740443 
L 444.245455 600.644914 
L 475.527273 601.525975 
L 509.345455 602.262399 
L 552.463636 602.963924 
L 605.727273 603.573318 
L 622.636364 603.727003 
L 622.636364 603.727003 
" style="fill:none;stroke:#d62728;stroke-dasharray:9.6,2.4,1.5,2.4;stroke-dashoffset:0;stroke-width:1.5;"/>
   </g>
   <g id="line2d_22">
    <path clip-path="url(#p09596b8283)" d="M 115.363636 137.47176 
L 116.209091 137.16394 
L 117.054545 136.220293 
L 117.9 137.286789 
L 118.745455 137.019566 
L 119.590909 136.88824 
L 120.436364 137.341717 
L 121.281818 137.556132 
L 122.127273 137.345008 
L 122.972727 137.300842 
L 124.663636 137.765862 
L 126.354545 137.655365 
L 128.890909 138.098665 
L 130.581818 138.215408 
L 134.809091 139.304433 
L 137.345455 140.435672 
L 138.190909 140.981885 
L 139.881818 142.488502 
L 140.727273 143.435635 
L 142.418182 146.01979 
L 143.263636 147.626253 
L 144.109091 149.480395 
L 144.954545 151.771341 
L 145.8 154.655564 
L 146.645455 158.225747 
L 147.490909 162.482754 
L 148.336364 167.649558 
L 149.181818 173.705388 
L 150.027273 178.902668 
L 150.872727 182.454281 
L 151.718182 191.224002 
L 152.563636 198.374852 
L 153.409091 203.098552 
L 154.254545 210.4136 
L 155.1 219.278511 
L 155.945455 226.669204 
L 156.790909 230.998314 
L 157.636364 236.374458 
L 160.172727 266.054251 
L 161.018182 269.047439 
L 161.863636 283.874551 
L 162.709091 293.936001 
L 163.554545 294.777153 
L 164.4 315.741372 
L 165.245455 319.942586 
L 166.090909 329.484925 
L 166.936364 345.653118 
L 167.781818 349.326326 
L 168.627273 365.395118 
L 169.472727 375.324602 
L 170.318182 381.298974 
L 171.163636 390.272026 
L 172.009091 402.038476 
L 172.854545 410.035217 
L 173.7 414.863197 
L 174.545455 425.145126 
L 176.236364 438.922193 
L 177.081818 444.148121 
L 178.772727 458.019597 
L 179.618182 462.118986 
L 180.463636 465.232987 
L 182.154545 478.499028 
L 183 480.8623 
L 184.690909 491.280266 
L 188.918182 508.747946 
L 189.763636 511.500169 
L 190.609091 515.225698 
L 191.454545 517.847326 
L 192.3 520.061547 
L 193.145455 522.697793 
L 193.990909 525.904531 
L 194.836364 528.162993 
L 195.681818 529.798127 
L 196.527273 531.900065 
L 198.218182 536.884819 
L 199.063636 538.36352 
L 201.6 544.09006 
L 204.981818 550.365024 
L 206.672727 553.186443 
L 208.363636 555.843824 
L 209.209091 556.891412 
L 211.745455 560.597469 
L 213.436364 562.585899 
L 215.127273 564.626688 
L 217.663636 567.294096 
L 220.2 569.720322 
L 223.581818 572.644198 
L 227.809091 575.813176 
L 231.190909 578.060085 
L 235.418182 580.537217 
L 239.645455 582.722736 
L 243.872727 584.653981 
L 248.1 586.370164 
L 253.172727 588.187389 
L 258.245455 589.782711 
L 264.163636 591.410715 
L 270.927273 593.008491 
L 274.309091 593.657455 
L 276 593.853114 
L 281.072727 594.975988 
L 297.136364 597.336274 
L 312.354545 598.965518 
L 322.5 599.817877 
L 336.027273 600.732776 
L 351.245455 601.537633 
L 369.845455 602.28131 
L 391.827273 602.927097 
L 418.881818 603.488739 
L 453.545455 603.971698 
L 500.045455 604.377967 
L 564.3 604.698931 
L 622.636364 604.86786 
L 622.636364 604.86786 
" style="fill:none;stroke:#9467bd;stroke-linecap:square;stroke-width:1.5;"/>
   </g>
   <g id="line2d_23">
    <path clip-path="url(#p09596b8283)" d="M 115.363636 137.507951 
L 116.209091 137.169963 
L 117.054545 136.215609 
L 117.9 137.272458 
L 118.745455 136.99581 
L 119.590909 136.861529 
L 120.436364 137.314337 
L 121.281818 137.528222 
L 122.127273 137.311103 
L 122.972727 137.2569 
L 124.663636 137.690608 
L 126.354545 137.529895 
L 128.890909 137.873516 
L 130.581818 137.893312 
L 132.272727 138.182786 
L 133.963636 138.337616 
L 137.345455 139.218026 
L 139.036364 139.994295 
L 139.881818 140.552861 
L 140.727273 141.29004 
L 142.418182 143.340946 
L 144.109091 145.675667 
L 144.954545 147.515645 
L 145.8 150.248579 
L 146.645455 153.907902 
L 147.490909 158.681315 
L 148.336364 164.306448 
L 149.181818 170.869903 
L 150.872727 180.924187 
L 151.718182 189.748306 
L 152.563636 197.115968 
L 154.254545 207.773736 
L 155.945455 224.83536 
L 156.790909 228.525604 
L 157.636364 235.926446 
L 158.481818 245.324968 
L 159.327273 257.491639 
L 160.172727 266.783233 
L 161.018182 266.717179 
L 161.863636 283.420544 
L 162.709091 293.404147 
L 163.554545 292.528143 
L 164.4 316.190332 
L 165.245455 321.173281 
L 166.090909 328.724436 
L 166.936364 347.179169 
L 167.781818 352.789636 
L 168.627273 365.51886 
L 169.472727 375.048735 
L 170.318182 382.073041 
L 171.163636 390.138303 
L 172.009091 403.493623 
L 172.854545 411.304418 
L 173.7 414.961398 
L 174.545455 426.874132 
L 176.236364 440.078679 
L 177.081818 445.326955 
L 177.927273 451.720718 
L 178.772727 459.264094 
L 179.618182 463.88679 
L 180.463636 465.666096 
L 181.309091 472.900551 
L 182.154545 479.080345 
L 183 481.348678 
L 183.845455 486.847365 
L 184.690909 491.507395 
L 186.381818 498.608433 
L 188.072727 506.226743 
L 188.918182 508.690042 
L 189.763636 511.522328 
L 190.609091 515.326185 
L 191.454545 518.253292 
L 192.3 520.255712 
L 193.145455 522.614341 
L 193.990909 525.889558 
L 194.836364 528.299233 
L 196.527273 531.773738 
L 198.218182 536.769735 
L 199.063636 538.344825 
L 202.445455 545.456953 
L 203.290909 547.009367 
L 204.136364 548.801816 
L 205.827273 551.424208 
L 207.518182 554.440942 
L 208.363636 555.628566 
L 209.209091 556.492623 
L 210.9 559.19297 
L 211.745455 560.289021 
L 213.436364 562.157108 
L 214.281818 563.344512 
L 215.972727 565.124355 
L 219.354545 568.576637 
L 221.890909 570.791858 
L 223.581818 572.227445 
L 225.272727 573.518958 
L 227.809091 575.376052 
L 234.572727 579.639074 
L 237.954545 581.462748 
L 242.181818 583.510229 
L 247.254545 585.66414 
L 251.481818 587.251861 
L 258.245455 589.443483 
L 264.163636 591.09727 
L 271.772727 592.910125 
L 275.154545 593.494796 
L 276 593.544387 
L 277.690909 594.063482 
L 291.218182 596.350148 
L 292.909091 596.581997 
L 303.054545 597.840634 
L 311.509091 598.701135 
L 317.427273 599.243447 
L 337.718182 600.687244 
L 351.245455 601.407945 
L 377.454545 602.428793 
L 403.663636 603.124285 
L 433.254545 603.659504 
L 471.3 604.114744 
L 521.181818 604.48143 
L 594.736364 604.782683 
L 622.636364 604.855668 
L 622.636364 604.855668 
" style="fill:none;stroke:#9467bd;stroke-dasharray:9.6,2.4,1.5,2.4;stroke-dashoffset:0;stroke-width:1.5;"/>
   </g>
   <g id="line2d_24">
    <path clip-path="url(#p09596b8283)" d="M 115.363636 137.47176 
L 116.209091 135.165062 
L 117.054545 134.450774 
L 117.9 135.779865 
L 119.590909 135.83457 
L 120.436364 136.810059 
L 121.281818 136.78095 
L 122.127273 136.248008 
L 122.972727 136.636575 
L 123.818182 137.335416 
L 124.663636 137.222214 
L 125.509091 136.796619 
L 126.354545 136.980698 
L 127.2 137.48308 
L 128.045455 137.562099 
L 128.890909 137.293258 
L 129.736364 137.298333 
L 130.581818 137.622464 
L 131.427273 137.798986 
L 133.118182 137.66175 
L 134.809091 138.034536 
L 137.345455 138.244489 
L 143.263636 139.59215 
L 145.8 140.741066 
L 147.490909 141.956063 
L 149.181818 143.579507 
L 150.027273 144.637889 
L 150.872727 145.881577 
L 151.718182 147.330367 
L 152.563636 149.097656 
L 153.409091 151.251671 
L 154.254545 153.897028 
L 155.1 157.063002 
L 155.945455 161.141785 
L 156.790909 166.230798 
L 158.481818 179.349035 
L 159.327273 183.121559 
L 162.709091 219.83097 
L 163.554545 216.86862 
L 165.245455 247.543001 
L 166.090909 248.341493 
L 166.936364 263.582183 
L 167.781818 272.147945 
L 168.627273 270.477603 
L 169.472727 292.343339 
L 171.163636 305.253045 
L 172.009091 324.366022 
L 172.854545 320.877841 
L 173.7 319.264155 
L 174.545455 351.699217 
L 175.390909 344.169921 
L 176.236364 357.590458 
L 177.081818 377.44304 
L 177.927273 368.757272 
L 178.772727 394.746988 
L 179.618182 396.057287 
L 180.463636 402.789763 
L 181.309091 421.772084 
L 182.154545 418.304592 
L 183 434.683017 
L 184.690909 443.256252 
L 185.536364 458.073076 
L 186.381818 457.800777 
L 187.227273 467.619485 
L 188.072727 475.850172 
L 188.918182 477.060248 
L 189.763636 487.262573 
L 190.609091 490.947331 
L 191.454545 495.190334 
L 192.3 503.410572 
L 193.145455 504.921156 
L 193.990909 511.01423 
L 194.836364 516.099388 
L 195.681818 517.880925 
L 196.527273 524.206006 
L 197.372727 526.562907 
L 198.218182 529.368838 
L 199.063636 534.513733 
L 199.909091 535.07699 
L 200.754545 539.365399 
L 201.6 543.005392 
L 202.445455 543.55256 
L 203.290909 547.747797 
L 204.136364 550.143956 
L 204.981818 551.029329 
L 205.827273 554.842607 
L 207.518182 557.891364 
L 208.363636 560.745328 
L 209.209091 561.850414 
L 210.9 565.54392 
L 211.745455 566.686876 
L 212.590909 568.354925 
L 215.127273 572.178739 
L 219.354545 577.326449 
L 221.890909 579.939345 
L 226.118182 583.536032 
L 229.5 585.916586 
L 232.881818 587.917257 
L 235.418182 589.253443 
L 238.8 590.799171 
L 243.027273 592.447223 
L 248.1 594.078479 
L 253.172727 595.424128 
L 259.090909 596.718122 
L 265.009091 597.778564 
L 271.772727 598.771174 
L 279.381818 599.676712 
L 288.681818 600.553808 
L 299.672727 601.354088 
L 313.2 602.094147 
L 329.263636 602.736568 
L 349.554545 603.30886 
L 374.918182 603.792114 
L 409.581818 604.213655 
L 457.772727 604.560054 
L 529.636364 604.834683 
L 622.636364 605.010537 
L 622.636364 605.010537 
" style="fill:none;stroke:#8c564b;stroke-linecap:square;stroke-width:1.5;"/>
   </g>
   <g id="line2d_25">
    <path clip-path="url(#p09596b8283)" d="M 115.363636 137.507951 
L 116.209091 135.171084 
L 117.054545 134.456072 
L 117.9 135.779809 
L 119.590909 135.827209 
L 120.436364 136.8032 
L 121.281818 136.774927 
L 122.127273 136.240536 
L 122.972727 136.623694 
L 123.818182 137.314114 
L 124.663636 137.192269 
L 125.509091 136.760874 
L 126.354545 136.941328 
L 127.2 137.442763 
L 128.045455 137.521419 
L 128.890909 137.251156 
L 129.736364 137.249985 
L 130.581818 137.565445 
L 131.427273 137.726465 
L 133.118182 137.545118 
L 134.809091 137.8724 
L 137.345455 137.989952 
L 139.036364 138.183315 
L 140.727273 138.376121 
L 143.263636 138.838688 
L 145.8 139.637877 
L 147.490909 140.611413 
L 149.181818 141.959771 
L 150.872727 144.047734 
L 152.563636 146.446444 
L 153.409091 148.092696 
L 154.254545 150.307996 
L 155.1 153.05108 
L 155.945455 157.252796 
L 157.636364 169.670687 
L 158.481818 177.503815 
L 159.327273 180.660923 
L 160.172727 191.57228 
L 161.863636 208.986865 
L 162.709091 217.612937 
L 163.554545 212.561119 
L 164.4 230.622043 
L 165.245455 244.480777 
L 166.090909 244.42741 
L 166.936364 261.635778 
L 167.781818 274.447952 
L 168.627273 267.977151 
L 169.472727 293.676696 
L 171.163636 303.096353 
L 172.009091 324.076883 
L 172.854545 323.237739 
L 173.7 314.507778 
L 174.545455 350.728106 
L 175.390909 344.247406 
L 176.236364 355.934057 
L 177.081818 377.559922 
L 177.927273 373.83739 
L 178.772727 395.370617 
L 179.618182 395.965471 
L 180.463636 404.009249 
L 181.309091 422.331569 
L 182.154545 417.878021 
L 183 436.265864 
L 183.845455 441.595766 
L 184.690909 443.929524 
L 185.536364 459.332168 
L 186.381818 460.852406 
L 188.072727 477.63656 
L 188.918182 479.052574 
L 189.763636 488.394586 
L 190.609091 492.234251 
L 191.454545 498.31974 
L 192.3 505.886691 
L 193.145455 506.258807 
L 193.990909 512.781295 
L 194.836364 518.409224 
L 195.681818 519.367774 
L 196.527273 526.635004 
L 198.218182 530.783297 
L 199.063636 536.327823 
L 199.909091 537.998346 
L 200.754545 540.793625 
L 201.6 544.422821 
L 202.445455 545.552219 
L 203.290909 549.084803 
L 204.136364 551.516244 
L 204.981818 553.265656 
L 205.827273 556.106119 
L 206.672727 557.483544 
L 207.518182 559.622702 
L 208.363636 562.177451 
L 209.209091 562.979603 
L 210.054545 565.270803 
L 210.9 566.872561 
L 211.745455 567.799723 
L 212.590909 569.740049 
L 213.436364 570.971953 
L 214.281818 571.808954 
L 215.127273 573.323134 
L 215.972727 574.445377 
L 216.818182 575.265018 
L 218.509091 577.477126 
L 220.2 579.145179 
L 221.890909 580.845783 
L 222.736364 581.509475 
L 224.427273 583.052446 
L 226.118182 584.312622 
L 227.809091 585.511592 
L 233.727273 589.004744 
L 240.490909 591.983511 
L 243.872727 593.199843 
L 247.254545 594.256397 
L 250.636364 595.179746 
L 254.018182 596.002226 
L 259.090909 597.065572 
L 266.7 598.354076 
L 276 599.559173 
L 284.454545 600.409876 
L 294.6 601.206488 
L 306.436364 601.91943 
L 320.809091 602.56108 
L 339.409091 603.158609 
L 362.236364 603.662417 
L 392.672727 604.099359 
L 434.1 604.459825 
L 496.663636 604.760436 
L 594.736364 604.986435 
L 622.636364 605.025098 
L 622.636364 605.025098 
" style="fill:none;stroke:#8c564b;stroke-dasharray:9.6,2.4,1.5,2.4;stroke-dashoffset:0;stroke-width:1.5;"/>
   </g>
   <g id="line2d_26">
    <path clip-path="url(#p09596b8283)" d="M 115.363636 137.47176 
L 116.209091 131.411553 
L 117.054545 132.174355 
L 117.9 133.411212 
L 119.590909 134.003431 
L 120.436364 136.136647 
L 121.281818 136.142558 
L 122.127273 134.657549 
L 122.972727 135.14164 
L 123.818182 136.925547 
L 124.663636 137.144144 
L 125.509091 136.01876 
L 126.354545 135.878847 
L 127.2 136.84954 
L 128.045455 137.372555 
L 129.736364 136.782901 
L 131.427273 137.311047 
L 136.5 137.709707 
L 137.345455 137.951056 
L 139.881818 137.970908 
L 140.727273 138.261553 
L 141.572727 138.351166 
L 142.418182 138.30583 
L 143.263636 138.42051 
L 144.954545 138.852963 
L 146.645455 139.167615 
L 149.181818 139.99661 
L 150.872727 140.722803 
L 151.718182 141.199004 
L 153.409091 142.502973 
L 154.254545 143.243386 
L 155.1 144.132356 
L 156.790909 146.462894 
L 158.481818 149.48349 
L 159.327273 151.486942 
L 160.172727 153.935505 
L 161.018182 156.965776 
L 161.863636 161.009957 
L 162.709091 165.640363 
L 163.554545 171.707039 
L 165.245455 185.73803 
L 166.090909 184.996167 
L 166.936364 201.638581 
L 167.781818 196.424154 
L 168.627273 218.259526 
L 169.472727 217.725274 
L 170.318182 240.266681 
L 171.163636 242.467818 
L 172.009091 252.694721 
L 172.854545 272.025849 
L 173.7 272.323603 
L 174.545455 298.325421 
L 175.390909 301.251217 
L 176.236364 319.221774 
L 177.081818 330.598012 
L 177.927273 340.212733 
L 178.772727 357.6876 
L 179.618182 367.504411 
L 180.463636 365.265243 
L 181.309091 385.523121 
L 182.154545 401.820102 
L 183 397.664266 
L 184.690909 427.007312 
L 185.536364 432.59649 
L 186.381818 437.426602 
L 187.227273 445.401763 
L 188.072727 460.148784 
L 188.918182 458.596091 
L 189.763636 462.547271 
L 190.609091 480.500165 
L 191.454545 482.269991 
L 192.3 482.934718 
L 193.145455 498.807847 
L 193.990909 500.222188 
L 194.836364 499.759315 
L 195.681818 514.393092 
L 196.527273 510.630082 
L 197.372727 512.892406 
L 198.218182 528.010867 
L 199.063636 520.264536 
L 199.909091 529.791184 
L 200.754545 535.822122 
L 201.6 533.837791 
L 202.445455 546.493699 
L 203.290909 543.476888 
L 204.136364 551.795488 
L 204.981818 551.383799 
L 205.827273 554.348568 
L 206.672727 558.281335 
L 207.518182 558.093137 
L 208.363636 564.450155 
L 209.209091 563.408063 
L 210.054545 568.237303 
L 210.9 567.092375 
L 211.745455 571.180875 
L 212.590909 571.432414 
L 213.436364 574.269904 
L 214.281818 574.802427 
L 215.127273 576.490781 
L 215.972727 577.612076 
L 217.663636 580.302651 
L 218.509091 581.051506 
L 219.354545 582.243758 
L 220.2 583.114731 
L 221.045455 584.185584 
L 221.890909 584.807043 
L 222.736364 585.739674 
L 226.963636 589.125462 
L 227.809091 589.537725 
L 228.654545 590.228565 
L 229.5 590.556987 
L 230.345455 591.240372 
L 231.190909 591.500747 
L 232.036364 592.112718 
L 232.881818 592.388771 
L 233.727273 592.889458 
L 235.418182 593.588142 
L 237.954545 594.592244 
L 240.490909 595.398296 
L 243.027273 596.156222 
L 245.563636 596.84431 
L 253.172727 598.418395 
L 257.4 599.108775 
L 263.318182 599.906407 
L 271.772727 600.793851 
L 281.918182 601.588338 
L 293.754545 602.270681 
L 308.127273 602.869557 
L 326.727273 603.410107 
L 351.245455 603.882965 
L 384.218182 604.281199 
L 431.563636 604.612354 
L 503.427273 604.873065 
L 622.636364 605.06575 
L 622.636364 605.06575 
" style="fill:none;stroke:#e377c2;stroke-linecap:square;stroke-width:1.5;"/>
   </g>
   <g id="line2d_27">
    <path clip-path="url(#p09596b8283)" d="M 115.363636 137.507951 
L 116.209091 131.417408 
L 117.054545 132.181438 
L 117.9 133.414781 
L 119.590909 134.001758 
L 120.436364 136.136145 
L 121.281818 136.14423 
L 122.127273 134.66056 
L 122.972727 135.143481 
L 123.818182 136.924376 
L 124.663636 137.138679 
L 125.509091 136.008946 
L 126.354545 135.866133 
L 127.2 136.835543 
L 128.045455 137.357833 
L 129.736364 136.761767 
L 131.427273 137.273071 
L 136.5 137.604954 
L 137.345455 137.832612 
L 139.881818 137.799906 
L 140.727273 138.069612 
L 141.572727 138.134828 
L 142.418182 138.059769 
L 143.263636 138.13717 
L 144.954545 138.471813 
L 146.645455 138.653996 
L 149.181818 139.211696 
L 150.872727 139.762036 
L 151.718182 140.154646 
L 153.409091 141.269853 
L 154.254545 141.89514 
L 155.1 142.671856 
L 156.790909 144.761687 
L 157.636364 146.011648 
L 158.481818 147.48029 
L 160.172727 151.136266 
L 161.018182 153.626319 
L 161.863636 157.187747 
L 162.709091 161.363839 
L 163.554545 167.733428 
L 165.245455 184.430715 
L 166.090909 182.010452 
L 166.936364 201.374759 
L 167.781818 196.115832 
L 168.627273 216.161303 
L 169.472727 213.676911 
L 170.318182 239.039527 
L 171.163636 240.690742 
L 172.009091 248.194916 
L 172.854545 268.07432 
L 173.7 269.92177 
L 174.545455 296.504124 
L 175.390909 298.979343 
L 176.236364 321.868692 
L 177.081818 332.349798 
L 177.927273 338.262676 
L 178.772727 356.316908 
L 179.618182 367.102934 
L 180.463636 363.045007 
L 181.309091 386.009903 
L 182.154545 402.392079 
L 183 395.916231 
L 183.845455 414.873318 
L 184.690909 428.832749 
L 185.536364 433.60046 
L 186.381818 440.116975 
L 187.227273 445.352133 
L 188.072727 460.982505 
L 188.918182 461.510734 
L 189.763636 462.95378 
L 190.609091 482.247671 
L 191.454545 484.050816 
L 192.3 483.397995 
L 193.145455 500.657026 
L 193.990909 502.594299 
L 194.836364 500.207634 
L 195.681818 515.533364 
L 196.527273 512.866657 
L 197.372727 513.51218 
L 198.218182 529.6527 
L 199.063636 522.33747 
L 199.909091 530.557793 
L 200.754545 536.662291 
L 201.6 536.480074 
L 202.445455 547.870956 
L 203.290909 544.221455 
L 204.136364 552.856484 
L 204.981818 552.797597 
L 205.827273 555.062026 
L 206.672727 559.155385 
L 207.518182 559.588978 
L 208.363636 565.385677 
L 209.209091 564.01378 
L 210.054545 569.08804 
L 210.9 568.42615 
L 211.745455 571.98196 
L 212.590909 572.102035 
L 213.436364 575.182281 
L 214.281818 575.647005 
L 215.127273 577.077155 
L 215.972727 578.216639 
L 216.818182 579.895007 
L 217.663636 581.125374 
L 218.509091 581.586075 
L 221.045455 584.99319 
L 221.890909 585.367828 
L 223.581818 587.105422 
L 225.272727 588.348427 
L 226.118182 588.900006 
L 226.963636 589.776559 
L 229.5 590.978623 
L 230.345455 591.743603 
L 231.190909 592.102453 
L 232.036364 592.609657 
L 232.881818 592.795798 
L 233.727273 593.306127 
L 236.263636 594.325594 
L 237.109091 594.603572 
L 237.954545 595.011372 
L 243.872727 596.749396 
L 245.563636 597.15637 
L 249.790909 598.081726 
L 254.863636 598.973961 
L 260.781818 599.812562 
L 270.081818 600.828535 
L 280.227273 601.636289 
L 290.372727 602.239082 
L 303.9 602.833523 
L 321.654545 603.380023 
L 344.481818 603.847846 
L 375.763636 604.2534 
L 419.727273 604.58655 
L 485.672727 604.849797 
L 597.272727 605.051427 
L 622.636364 605.077994 
L 622.636364 605.077994 
" style="fill:none;stroke:#e377c2;stroke-dasharray:9.6,2.4,1.5,2.4;stroke-dashoffset:0;stroke-width:1.5;"/>
   </g>
   <g id="line2d_28">
    <path clip-path="url(#p09596b8283)" d="M 115.363636 137.47176 
L 116.209091 125.821719 
L 117.054545 129.465818 
L 117.9 129.910205 
L 118.745455 130.891214 
L 119.590909 131.58314 
L 120.436364 134.873636 
L 121.281818 135.393919 
L 122.127273 132.889145 
L 122.972727 132.967605 
L 123.818182 135.950951 
L 124.663636 137.101763 
L 125.509091 135.387506 
L 126.354545 134.438394 
L 128.045455 137.018506 
L 128.890909 136.848369 
L 129.736364 136.247004 
L 130.581818 136.304052 
L 131.427273 136.699143 
L 133.118182 137.137675 
L 133.963636 137.290972 
L 135.654545 136.993301 
L 136.5 137.25729 
L 137.345455 137.737311 
L 138.190909 137.786356 
L 139.036364 137.469474 
L 139.881818 137.458934 
L 140.727273 137.856507 
L 141.572727 138.092698 
L 143.263636 137.91888 
L 144.954545 138.319018 
L 148.336364 138.735077 
L 151.718182 139.483074 
L 153.409091 140.131671 
L 155.1 140.799033 
L 156.790909 141.804356 
L 158.481818 143.107628 
L 160.172727 144.843633 
L 161.863636 147.191374 
L 163.554545 150.304427 
L 164.4 152.350678 
L 165.245455 154.725326 
L 166.090909 157.491914 
L 166.936364 160.953329 
L 167.781818 165.647891 
L 169.472727 177.867065 
L 171.163636 193.653104 
L 172.009091 198.929151 
L 172.854545 210.286736 
L 173.7 224.664052 
L 174.545455 237.086905 
L 175.390909 245.43909 
L 176.236364 220.842594 
L 177.081818 270.582719 
L 177.927273 261.782885 
L 178.772727 295.3723 
L 179.618182 294.414489 
L 180.463636 324.573076 
L 181.309091 329.876419 
L 182.154545 343.582442 
L 183 366.03641 
L 183.845455 360.808544 
L 184.690909 393.001782 
L 185.536364 394.580475 
L 186.381818 406.454439 
L 187.227273 427.141244 
L 188.072727 422.652885 
L 188.918182 447.504866 
L 189.763636 449.330986 
L 190.609091 456.796598 
L 191.454545 474.915211 
L 192.3 472.035336 
L 193.990909 496.340393 
L 194.836364 495.463768 
L 195.681818 508.122645 
L 196.527273 514.449888 
L 197.372727 515.449704 
L 198.218182 526.238727 
L 199.063636 529.985342 
L 199.909091 533.071036 
L 200.754545 541.210981 
L 201.6 543.09886 
L 202.445455 547.3239 
L 203.290909 552.654063 
L 204.136364 553.909458 
L 204.981818 558.862705 
L 206.672727 563.536586 
L 207.518182 567.19137 
L 208.363636 568.368329 
L 209.209091 571.678085 
L 210.054545 573.236887 
L 210.9 575.107846 
L 211.745455 577.396374 
L 212.590909 578.431046 
L 213.436364 580.541393 
L 214.281818 581.458159 
L 215.127273 583.028479 
L 219.354545 588.160311 
L 220.2 588.814958 
L 221.045455 589.762803 
L 221.890909 590.299196 
L 222.736364 591.119103 
L 223.581818 591.607371 
L 224.427273 592.303099 
L 225.272727 592.749792 
L 226.118182 593.348165 
L 232.036364 596.083439 
L 234.572727 596.981432 
L 237.954545 597.945656 
L 241.336364 598.738744 
L 245.563636 599.547313 
L 250.636364 600.31646 
L 257.4 601.097895 
L 265.009091 601.759721 
L 275.154545 602.408252 
L 287.836364 602.983817 
L 304.745455 603.509666 
L 326.727273 603.957237 
L 357.163636 604.339434 
L 401.972727 604.659988 
L 471.3 604.909184 
L 592.2 605.09339 
L 622.636364 605.119035 
L 622.636364 605.119035 
" style="fill:none;stroke:#7f7f7f;stroke-linecap:square;stroke-width:1.5;"/>
   </g>
   <g id="line2d_29">
    <path clip-path="url(#p09596b8283)" d="M 115.363636 137.507951 
L 116.209091 125.827686 
L 117.054545 129.473402 
L 117.9 129.915168 
L 118.745455 130.89311 
L 119.590909 131.583252 
L 120.436364 134.87425 
L 121.281818 135.397098 
L 122.127273 132.89461 
L 122.972727 132.973182 
L 123.818182 135.954966 
L 124.663636 137.102767 
L 125.509091 135.385108 
L 126.354545 134.433543 
L 128.045455 137.013989 
L 128.890909 136.844633 
L 129.736364 136.242041 
L 130.581818 136.295408 
L 131.427273 136.684756 
L 133.118182 137.108231 
L 133.963636 137.254725 
L 135.654545 136.948076 
L 136.5 137.205764 
L 137.345455 137.676137 
L 138.190909 137.711799 
L 139.036364 137.379972 
L 139.881818 137.353595 
L 140.727273 137.735889 
L 141.572727 137.956688 
L 143.263636 137.750165 
L 144.954545 138.111658 
L 148.336364 138.439219 
L 152.563636 139.12462 
L 155.945455 140.308975 
L 157.636364 141.221338 
L 159.327273 142.524024 
L 161.018182 144.341334 
L 162.709091 146.738287 
L 163.554545 148.280009 
L 164.4 150.336743 
L 166.090909 155.323595 
L 166.936364 158.540482 
L 167.781818 162.774848 
L 168.627273 168.088787 
L 169.472727 174.220262 
L 170.318182 182.11409 
L 171.163636 192.677281 
L 172.009091 197.625154 
L 173.7 224.248132 
L 174.545455 235.282422 
L 175.390909 244.034382 
L 176.236364 215.238094 
L 177.081818 269.374665 
L 177.927273 259.468129 
L 178.772727 292.847422 
L 179.618182 291.085682 
L 180.463636 326.026828 
L 181.309091 333.918593 
L 182.154545 342.88876 
L 183 366.513002 
L 183.845455 360.735409 
L 184.690909 393.541555 
L 185.536364 394.182958 
L 187.227273 428.271563 
L 188.072727 422.935597 
L 188.918182 448.50687 
L 189.763636 452.467711 
L 190.609091 457.386838 
L 191.454545 476.264391 
L 192.3 472.966729 
L 193.990909 497.808185 
L 194.836364 498.919857 
L 195.681818 509.227967 
L 196.527273 515.310732 
L 197.372727 517.268554 
L 198.218182 526.881553 
L 199.063636 530.327729 
L 199.909091 534.253251 
L 200.754545 541.478525 
L 201.6 542.931183 
L 202.445455 548.987153 
L 203.290909 553.544782 
L 204.136364 553.641659 
L 204.981818 559.23402 
L 205.827273 561.973116 
L 206.672727 563.346586 
L 207.518182 567.446789 
L 208.363636 568.995554 
L 209.209091 571.634794 
L 210.054545 573.166297 
L 210.9 575.975813 
L 211.745455 577.858186 
L 212.590909 578.359188 
L 213.436364 580.612242 
L 215.127273 583.218401 
L 215.972727 584.137637 
L 216.818182 585.466116 
L 217.663636 586.484136 
L 218.509091 587.246668 
L 219.354545 588.392338 
L 221.045455 589.98699 
L 221.890909 590.433591 
L 222.736364 591.310175 
L 224.427273 592.570148 
L 225.272727 592.927033 
L 226.118182 593.533216 
L 229.5 595.281142 
L 233.727273 596.889159 
L 237.109091 597.851416 
L 239.645455 598.476547 
L 243.027273 599.19034 
L 246.409091 599.795671 
L 256.554545 601.09673 
L 263.318182 601.694967 
L 275.154545 602.458997 
L 288.681818 603.056276 
L 304.745455 603.542737 
L 326.727273 603.983302 
L 358.009091 604.365825 
L 402.818182 604.675981 
L 472.990909 604.918361 
L 593.890909 605.097436 
L 622.636364 605.121665 
L 622.636364 605.121665 
" style="fill:none;stroke:#7f7f7f;stroke-dasharray:9.6,2.4,1.5,2.4;stroke-dashoffset:0;stroke-width:1.5;"/>
   </g>
   <g id="line2d_30">
    <path clip-path="url(#p09596b8283)" d="M 115.363636 137.47176 
L 116.209091 111.109091 
L 117.054545 122.855382 
L 117.9 120.641196 
L 118.745455 123.086526 
L 119.590909 125.923768 
L 120.436364 131.342461 
L 121.281818 132.904536 
L 122.127273 128.767925 
L 122.972727 127.898054 
L 123.818182 132.917473 
L 124.663636 136.344983 
L 125.509091 134.196209 
L 126.354545 131.417352 
L 127.2 132.541174 
L 128.045455 135.510132 
L 128.890909 136.520474 
L 130.581818 134.505814 
L 131.427273 134.860476 
L 132.272727 135.936563 
L 133.118182 136.738457 
L 133.963636 136.732267 
L 134.809091 136.194809 
L 135.654545 135.946043 
L 136.5 136.457906 
L 137.345455 137.204425 
L 138.190909 137.369098 
L 139.036364 136.972779 
L 139.881818 136.756915 
L 140.727273 137.090164 
L 141.572727 137.577378 
L 142.418182 137.713499 
L 144.109091 137.420122 
L 144.954545 137.629992 
L 145.8 137.964021 
L 146.645455 138.097271 
L 148.336364 137.961679 
L 150.872727 138.498106 
L 152.563636 138.605731 
L 155.1 139.154147 
L 156.790909 139.443509 
L 161.018182 140.878163 
L 163.554545 142.253817 
L 165.245455 143.558651 
L 166.936364 145.239951 
L 168.627273 147.470308 
L 170.318182 150.33401 
L 171.163636 152.103641 
L 172.009091 154.18547 
L 172.854545 156.602638 
L 173.7 159.391867 
L 174.545455 162.734447 
L 175.390909 166.900975 
L 176.236364 172.217424 
L 177.081818 178.515551 
L 177.927273 186.386041 
L 179.618182 204.991812 
L 180.463636 215.527567 
L 181.309091 216.156228 
L 182.154545 228.320446 
L 183 251.570508 
L 183.845455 264.8368 
L 184.690909 266.71269 
L 185.536364 283.267638 
L 186.381818 311.849261 
L 188.072727 324.539617 
L 188.918182 360.201882 
L 189.763636 370.603774 
L 190.609091 382.525389 
L 192.3 424.760267 
L 193.145455 435.021424 
L 193.990909 446.834074 
L 195.681818 478.208592 
L 196.527273 489.585924 
L 198.218182 505.194702 
L 199.063636 514.025109 
L 199.909091 524.504444 
L 200.754545 532.566116 
L 201.6 537.957596 
L 202.445455 541.788004 
L 203.290909 548.631532 
L 204.136364 553.692387 
L 205.827273 560.29779 
L 206.672727 564.872421 
L 207.518182 567.775162 
L 208.363636 569.981649 
L 209.209091 573.211156 
L 210.9 577.415909 
L 211.745455 579.628585 
L 212.590909 581.074899 
L 214.281818 584.384235 
L 215.972727 587.077312 
L 216.818182 587.999308 
L 217.663636 589.256712 
L 220.2 591.948688 
L 221.045455 592.532197 
L 221.890909 593.372169 
L 225.272727 595.619243 
L 230.345455 597.960535 
L 234.572727 599.260073 
L 237.954545 600.048878 
L 243.872727 601.040862 
L 249.790909 601.734803 
L 258.245455 602.423226 
L 268.390909 602.982897 
L 281.918182 603.487142 
L 300.518182 603.935624 
L 326.727273 604.322906 
L 364.772727 604.6416 
L 423.954545 604.894245 
L 526.254545 605.081686 
L 622.636364 605.159373 
L 622.636364 605.159373 
" style="fill:none;stroke:#bcbd22;stroke-linecap:square;stroke-width:1.5;"/>
   </g>
   <g id="line2d_31">
    <path clip-path="url(#p09596b8283)" d="M 115.363636 137.507951 
L 116.209091 111.115113 
L 117.054545 122.863579 
L 117.9 120.647609 
L 118.745455 123.090429 
L 119.590909 125.925441 
L 120.436364 131.344635 
L 121.281818 132.90883 
L 122.127273 128.774895 
L 122.972727 127.906642 
L 123.818182 132.925838 
L 124.663636 136.351563 
L 125.509091 134.20067 
L 126.354545 131.420419 
L 127.2 132.543963 
L 128.045455 135.514259 
L 128.890909 136.526329 
L 130.581818 134.512505 
L 131.427273 134.865327 
L 132.272727 135.938348 
L 133.118182 136.736394 
L 133.963636 136.726356 
L 134.809091 136.186221 
L 135.654545 135.935727 
L 136.5 136.445526 
L 137.345455 137.188477 
L 138.190909 137.348409 
L 139.036364 136.94618 
L 139.881818 136.722007 
L 140.727273 137.045775 
L 141.572727 137.522896 
L 142.418182 137.648952 
L 144.109091 137.333409 
L 144.954545 137.531874 
L 145.8 137.851991 
L 146.645455 137.969737 
L 148.336364 137.800854 
L 150.872727 138.279816 
L 152.563636 138.337588 
L 155.945455 138.920773 
L 157.636364 139.261578 
L 159.327273 139.646102 
L 160.172727 139.8132 
L 161.863636 140.50192 
L 163.554545 141.259843 
L 165.245455 142.359017 
L 166.936364 143.801673 
L 168.627273 145.817086 
L 170.318182 148.384177 
L 171.163636 149.970677 
L 172.009091 152.02256 
L 172.854545 154.604707 
L 174.545455 160.818323 
L 175.390909 164.526383 
L 176.236364 169.317865 
L 177.081818 175.269108 
L 177.927273 183.17777 
L 178.772727 193.048728 
L 180.463636 217.009091 
L 181.309091 214.557627 
L 182.154545 228.500566 
L 183 249.316619 
L 183.845455 261.596938 
L 184.690909 264.531295 
L 185.536364 277.977734 
L 186.381818 308.91708 
L 187.227273 316.942094 
L 188.072727 320.481048 
L 188.918182 361.229622 
L 190.609091 381.11102 
L 192.3 424.046412 
L 193.145455 435.076686 
L 194.836364 462.644413 
L 195.681818 480.317481 
L 196.527273 492.17399 
L 197.372727 499.184341 
L 199.063636 515.600254 
L 199.909091 525.887641 
L 200.754545 534.37442 
L 203.290909 549.91606 
L 204.136364 554.785685 
L 204.981818 558.470349 
L 205.827273 561.077772 
L 206.672727 566.270336 
L 207.518182 569.346616 
L 208.363636 571.146736 
L 209.209091 574.872209 
L 210.054545 576.841585 
L 210.9 578.192918 
L 211.745455 580.69313 
L 212.590909 582.310471 
L 213.436364 583.590338 
L 215.127273 586.990209 
L 215.972727 588.107766 
L 216.818182 588.897127 
L 217.663636 590.438538 
L 218.509091 591.287786 
L 219.354545 591.785844 
L 220.2 592.79314 
L 221.890909 594.180144 
L 222.736364 594.573416 
L 224.427273 595.949754 
L 226.118182 596.617121 
L 226.963636 597.186009 
L 227.809091 597.60202 
L 230.345455 598.516727 
L 232.036364 599.072527 
L 233.727273 599.484954 
L 235.418182 599.955307 
L 237.109091 600.232023 
L 238.8 600.609023 
L 248.945455 601.914143 
L 252.327273 602.21554 
L 259.936364 602.750435 
L 280.227273 603.570744 
L 297.136364 603.972789 
L 323.345455 604.351067 
L 362.236364 604.663999 
L 422.263636 604.904524 
L 536.4 605.095518 
L 622.636364 605.160159 
L 622.636364 605.160159 
" style="fill:none;stroke:#bcbd22;stroke-dasharray:9.6,2.4,1.5,2.4;stroke-dashoffset:0;stroke-width:1.5;"/>
   </g>
   <g id="patch_4">
    <path d="M 90 630 
L 90 86.4 
" style="fill:none;stroke:#000000;stroke-linecap:square;stroke-linejoin:miter;stroke-width:0.8;"/>
   </g>
   <g id="patch_5">
    <path d="M 648 630 
L 648 86.4 
" style="fill:none;stroke:#000000;stroke-linecap:square;stroke-linejoin:miter;stroke-width:0.8;"/>
   </g>
   <g id="patch_6">
    <path d="M 90 630 
L 648 630 
" style="fill:none;stroke:#000000;stroke-linecap:square;stroke-linejoin:miter;stroke-width:0.8;"/>
   </g>
   <g id="patch_7">
    <path d="M 90 86.4 
L 648 86.4 
" style="fill:none;stroke:#000000;stroke-linecap:square;stroke-linejoin:miter;stroke-width:0.8;"/>
   </g>
   <g id="text_16">
    <!-- Class separation -->
    <g transform="translate(193.145455 575.64)scale(0.1 -0.1)">
     <defs>
      <path d="M 64.40625 67.28125 
L 64.40625 56.890625 
Q 59.421875 61.53125 53.78125 63.8125 
Q 48.140625 66.109375 41.796875 66.109375 
Q 29.296875 66.109375 22.65625 58.46875 
Q 16.015625 50.828125 16.015625 36.375 
Q 16.015625 21.96875 22.65625 14.328125 
Q 29.296875 6.6875 41.796875 6.6875 
Q 48.140625 6.6875 53.78125 8.984375 
Q 59.421875 11.28125 64.40625 15.921875 
L 64.40625 5.609375 
Q 59.234375 2.09375 53.4375 0.328125 
Q 47.65625 -1.421875 41.21875 -1.421875 
Q 24.65625 -1.421875 15.125 8.703125 
Q 5.609375 18.84375 5.609375 36.375 
Q 5.609375 53.953125 15.125 64.078125 
Q 24.65625 74.21875 41.21875 74.21875 
Q 47.75 74.21875 53.53125 72.484375 
Q 59.328125 70.75 64.40625 67.28125 
z
" id="DejaVuSans-67"/>
      <path d="M 9.421875 75.984375 
L 18.40625 75.984375 
L 18.40625 0 
L 9.421875 0 
z
" id="DejaVuSans-108"/>
      <path d="M 34.28125 27.484375 
Q 23.390625 27.484375 19.1875 25 
Q 14.984375 22.515625 14.984375 16.5 
Q 14.984375 11.71875 18.140625 8.90625 
Q 21.296875 6.109375 26.703125 6.109375 
Q 34.1875 6.109375 38.703125 11.40625 
Q 43.21875 16.703125 43.21875 25.484375 
L 43.21875 27.484375 
z
M 52.203125 31.203125 
L 52.203125 0 
L 43.21875 0 
L 43.21875 8.296875 
Q 40.140625 3.328125 35.546875 0.953125 
Q 30.953125 -1.421875 24.3125 -1.421875 
Q 15.921875 -1.421875 10.953125 3.296875 
Q 6 8.015625 6 15.921875 
Q 6 25.140625 12.171875 29.828125 
Q 18.359375 34.515625 30.609375 34.515625 
L 43.21875 34.515625 
L 43.21875 35.40625 
Q 43.21875 41.609375 39.140625 45 
Q 35.0625 48.390625 27.6875 48.390625 
Q 23 48.390625 18.546875 47.265625 
Q 14.109375 46.140625 10.015625 43.890625 
L 10.015625 52.203125 
Q 14.9375 54.109375 19.578125 55.046875 
Q 24.21875 56 28.609375 56 
Q 40.484375 56 46.34375 49.84375 
Q 52.203125 43.703125 52.203125 31.203125 
z
" id="DejaVuSans-97"/>
      <path id="DejaVuSans-32"/>
      <path d="M 56.203125 29.59375 
L 56.203125 25.203125 
L 14.890625 25.203125 
Q 15.484375 15.921875 20.484375 11.0625 
Q 25.484375 6.203125 34.421875 6.203125 
Q 39.59375 6.203125 44.453125 7.46875 
Q 49.3125 8.734375 54.109375 11.28125 
L 54.109375 2.78125 
Q 49.265625 0.734375 44.1875 -0.34375 
Q 39.109375 -1.421875 33.890625 -1.421875 
Q 20.796875 -1.421875 13.15625 6.1875 
Q 5.515625 13.8125 5.515625 26.8125 
Q 5.515625 40.234375 12.765625 48.109375 
Q 20.015625 56 32.328125 56 
Q 43.359375 56 49.78125 48.890625 
Q 56.203125 41.796875 56.203125 29.59375 
z
M 47.21875 32.234375 
Q 47.125 39.59375 43.09375 43.984375 
Q 39.0625 48.390625 32.421875 48.390625 
Q 24.90625 48.390625 20.390625 44.140625 
Q 15.875 39.890625 15.1875 32.171875 
z
" id="DejaVuSans-101"/>
      <path d="M 41.109375 46.296875 
Q 39.59375 47.171875 37.8125 47.578125 
Q 36.03125 48 33.890625 48 
Q 26.265625 48 22.1875 43.046875 
Q 18.109375 38.09375 18.109375 28.8125 
L 18.109375 0 
L 9.078125 0 
L 9.078125 54.6875 
L 18.109375 54.6875 
L 18.109375 46.1875 
Q 20.953125 51.171875 25.484375 53.578125 
Q 30.03125 56 36.53125 56 
Q 37.453125 56 38.578125 55.875 
Q 39.703125 55.765625 41.0625 55.515625 
z
" id="DejaVuSans-114"/>
      <path d="M 18.3125 70.21875 
L 18.3125 54.6875 
L 36.8125 54.6875 
L 36.8125 47.703125 
L 18.3125 47.703125 
L 18.3125 18.015625 
Q 18.3125 11.328125 20.140625 9.421875 
Q 21.96875 7.515625 27.59375 7.515625 
L 36.8125 7.515625 
L 36.8125 0 
L 27.59375 0 
Q 17.1875 0 13.234375 3.875 
Q 9.28125 7.765625 9.28125 18.015625 
L 9.28125 47.703125 
L 2.6875 47.703125 
L 2.6875 54.6875 
L 9.28125 54.6875 
L 9.28125 70.21875 
z
" id="DejaVuSans-116"/>
      <path d="M 9.421875 54.6875 
L 18.40625 54.6875 
L 18.40625 0 
L 9.421875 0 
z
M 9.421875 75.984375 
L 18.40625 75.984375 
L 18.40625 64.59375 
L 9.421875 64.59375 
z
" id="DejaVuSans-105"/>
      <path d="M 54.890625 33.015625 
L 54.890625 0 
L 45.90625 0 
L 45.90625 32.71875 
Q 45.90625 40.484375 42.875 44.328125 
Q 39.84375 48.1875 33.796875 48.1875 
Q 26.515625 48.1875 22.3125 43.546875 
Q 18.109375 38.921875 18.109375 30.90625 
L 18.109375 0 
L 9.078125 0 
L 9.078125 54.6875 
L 18.109375 54.6875 
L 18.109375 46.1875 
Q 21.34375 51.125 25.703125 53.5625 
Q 30.078125 56 35.796875 56 
Q 45.21875 56 50.046875 50.171875 
Q 54.890625 44.34375 54.890625 33.015625 
z
" id="DejaVuSans-110"/>
     </defs>
     <use xlink:href="#DejaVuSans-67"/>
     <use x="69.824219" xlink:href="#DejaVuSans-108"/>
     <use x="97.607422" xlink:href="#DejaVuSans-97"/>
     <use x="158.886719" xlink:href="#DejaVuSans-115"/>
     <use x="210.986328" xlink:href="#DejaVuSans-115"/>
     <use x="263.085938" xlink:href="#DejaVuSans-32"/>
     <use x="294.873047" xlink:href="#DejaVuSans-115"/>
     <use x="346.972656" xlink:href="#DejaVuSans-101"/>
     <use x="408.496094" xlink:href="#DejaVuSans-112"/>
     <use x="471.972656" xlink:href="#DejaVuSans-97"/>
     <use x="533.251953" xlink:href="#DejaVuSans-114"/>
     <use x="574.365234" xlink:href="#DejaVuSans-97"/>
     <use x="635.644531" xlink:href="#DejaVuSans-116"/>
     <use x="674.853516" xlink:href="#DejaVuSans-105"/>
     <use x="702.636719" xlink:href="#DejaVuSans-111"/>
     <use x="763.818359" xlink:href="#DejaVuSans-110"/>
    </g>
   </g>
   <g id="text_17">
    <!-- Training progress -->
    <g transform="translate(300.36875 66.4)scale(0.16 -0.16)">
     <defs>
      <path d="M -0.296875 72.90625 
L 61.375 72.90625 
L 61.375 64.59375 
L 35.5 64.59375 
L 35.5 0 
L 25.59375 0 
L 25.59375 64.59375 
L -0.296875 64.59375 
z
" id="DejaVuSans-84"/>
      <path d="M 45.40625 27.984375 
Q 45.40625 37.75 41.375 43.109375 
Q 37.359375 48.484375 30.078125 48.484375 
Q 22.859375 48.484375 18.828125 43.109375 
Q 14.796875 37.75 14.796875 27.984375 
Q 14.796875 18.265625 18.828125 12.890625 
Q 22.859375 7.515625 30.078125 7.515625 
Q 37.359375 7.515625 41.375 12.890625 
Q 45.40625 18.265625 45.40625 27.984375 
z
M 54.390625 6.78125 
Q 54.390625 -7.171875 48.1875 -13.984375 
Q 42 -20.796875 29.203125 -20.796875 
Q 24.46875 -20.796875 20.265625 -20.09375 
Q 16.0625 -19.390625 12.109375 -17.921875 
L 12.109375 -9.1875 
Q 16.0625 -11.328125 19.921875 -12.34375 
Q 23.78125 -13.375 27.78125 -13.375 
Q 36.625 -13.375 41.015625 -8.765625 
Q 45.40625 -4.15625 45.40625 5.171875 
L 45.40625 9.625 
Q 42.625 4.78125 38.28125 2.390625 
Q 33.9375 0 27.875 0 
Q 17.828125 0 11.671875 7.65625 
Q 5.515625 15.328125 5.515625 27.984375 
Q 5.515625 40.671875 11.671875 48.328125 
Q 17.828125 56 27.875 56 
Q 33.9375 56 38.28125 53.609375 
Q 42.625 51.21875 45.40625 46.390625 
L 45.40625 54.6875 
L 54.390625 54.6875 
z
" id="DejaVuSans-103"/>
     </defs>
     <use xlink:href="#DejaVuSans-84"/>
     <use x="46.333984" xlink:href="#DejaVuSans-114"/>
     <use x="87.447266" xlink:href="#DejaVuSans-97"/>
     <use x="148.726562" xlink:href="#DejaVuSans-105"/>
     <use x="176.509766" xlink:href="#DejaVuSans-110"/>
     <use x="239.888672" xlink:href="#DejaVuSans-105"/>
     <use x="267.671875" xlink:href="#DejaVuSans-110"/>
     <use x="331.050781" xlink:href="#DejaVuSans-103"/>
     <use x="394.527344" xlink:href="#DejaVuSans-32"/>
     <use x="426.314453" xlink:href="#DejaVuSans-112"/>
     <use x="489.791016" xlink:href="#DejaVuSans-114"/>
     <use x="528.654297" xlink:href="#DejaVuSans-111"/>
     <use x="589.835938" xlink:href="#DejaVuSans-103"/>
     <use x="653.3125" xlink:href="#DejaVuSans-114"/>
     <use x="692.175781" xlink:href="#DejaVuSans-101"/>
     <use x="753.699219" xlink:href="#DejaVuSans-115"/>
     <use x="805.798828" xlink:href="#DejaVuSans-115"/>
    </g>
   </g>
   <g id="legend_1">
    <g id="line2d_32">
     <path d="M 99 675.714438 
L 119 675.714438 
" style="fill:none;stroke:#1f77b4;stroke-linecap:square;stroke-width:1.5;"/>
    </g>
    <g id="line2d_33"/>
    <g id="text_18">
     <!-- Baseline -->
     <g transform="translate(127 679.214438)scale(0.1 -0.1)">
      <defs>
       <path d="M 19.671875 34.8125 
L 19.671875 8.109375 
L 35.5 8.109375 
Q 43.453125 8.109375 47.28125 11.40625 
Q 51.125 14.703125 51.125 21.484375 
Q 51.125 28.328125 47.28125 31.5625 
Q 43.453125 34.8125 35.5 34.8125 
z
M 19.671875 64.796875 
L 19.671875 42.828125 
L 34.28125 42.828125 
Q 41.5 42.828125 45.03125 45.53125 
Q 48.578125 48.25 48.578125 53.8125 
Q 48.578125 59.328125 45.03125 62.0625 
Q 41.5 64.796875 34.28125 64.796875 
z
M 9.8125 72.90625 
L 35.015625 72.90625 
Q 46.296875 72.90625 52.390625 68.21875 
Q 58.5 63.53125 58.5 54.890625 
Q 58.5 48.1875 55.375 44.234375 
Q 52.25 40.28125 46.1875 39.3125 
Q 53.46875 37.75 57.5 32.78125 
Q 61.53125 27.828125 61.53125 20.40625 
Q 61.53125 10.640625 54.890625 5.3125 
Q 48.25 0 35.984375 0 
L 9.8125 0 
z
" id="DejaVuSans-66"/>
      </defs>
      <use xlink:href="#DejaVuSans-66"/>
      <use x="68.603516" xlink:href="#DejaVuSans-97"/>
      <use x="129.882812" xlink:href="#DejaVuSans-115"/>
      <use x="181.982422" xlink:href="#DejaVuSans-101"/>
      <use x="243.505859" xlink:href="#DejaVuSans-108"/>
      <use x="271.289062" xlink:href="#DejaVuSans-105"/>
      <use x="299.072266" xlink:href="#DejaVuSans-110"/>
      <use x="362.451172" xlink:href="#DejaVuSans-101"/>
     </g>
    </g>
    <g id="line2d_34">
     <path d="M 99 690.392563 
L 119 690.392563 
" style="fill:none;stroke:#ff7f0e;stroke-linecap:square;stroke-width:1.5;"/>
    </g>
    <g id="line2d_35"/>
    <g id="text_19">
     <!-- Forced normaliz. -->
     <g transform="translate(127 693.892563)scale(0.1 -0.1)">
      <defs>
       <path d="M 9.8125 72.90625 
L 51.703125 72.90625 
L 51.703125 64.59375 
L 19.671875 64.59375 
L 19.671875 43.109375 
L 48.578125 43.109375 
L 48.578125 34.8125 
L 19.671875 34.8125 
L 19.671875 0 
L 9.8125 0 
z
" id="DejaVuSans-70"/>
       <path d="M 45.40625 46.390625 
L 45.40625 75.984375 
L 54.390625 75.984375 
L 54.390625 0 
L 45.40625 0 
L 45.40625 8.203125 
Q 42.578125 3.328125 38.25 0.953125 
Q 33.9375 -1.421875 27.875 -1.421875 
Q 17.96875 -1.421875 11.734375 6.484375 
Q 5.515625 14.40625 5.515625 27.296875 
Q 5.515625 40.1875 11.734375 48.09375 
Q 17.96875 56 27.875 56 
Q 33.9375 56 38.25 53.625 
Q 42.578125 51.265625 45.40625 46.390625 
z
M 14.796875 27.296875 
Q 14.796875 17.390625 18.875 11.75 
Q 22.953125 6.109375 30.078125 6.109375 
Q 37.203125 6.109375 41.296875 11.75 
Q 45.40625 17.390625 45.40625 27.296875 
Q 45.40625 37.203125 41.296875 42.84375 
Q 37.203125 48.484375 30.078125 48.484375 
Q 22.953125 48.484375 18.875 42.84375 
Q 14.796875 37.203125 14.796875 27.296875 
z
" id="DejaVuSans-100"/>
       <path d="M 52 44.1875 
Q 55.375 50.25 60.0625 53.125 
Q 64.75 56 71.09375 56 
Q 79.640625 56 84.28125 50.015625 
Q 88.921875 44.046875 88.921875 33.015625 
L 88.921875 0 
L 79.890625 0 
L 79.890625 32.71875 
Q 79.890625 40.578125 77.09375 44.375 
Q 74.3125 48.1875 68.609375 48.1875 
Q 61.625 48.1875 57.5625 43.546875 
Q 53.515625 38.921875 53.515625 30.90625 
L 53.515625 0 
L 44.484375 0 
L 44.484375 32.71875 
Q 44.484375 40.625 41.703125 44.40625 
Q 38.921875 48.1875 33.109375 48.1875 
Q 26.21875 48.1875 22.15625 43.53125 
Q 18.109375 38.875 18.109375 30.90625 
L 18.109375 0 
L 9.078125 0 
L 9.078125 54.6875 
L 18.109375 54.6875 
L 18.109375 46.1875 
Q 21.1875 51.21875 25.484375 53.609375 
Q 29.78125 56 35.6875 56 
Q 41.65625 56 45.828125 52.96875 
Q 50 49.953125 52 44.1875 
z
" id="DejaVuSans-109"/>
       <path d="M 5.515625 54.6875 
L 48.1875 54.6875 
L 48.1875 46.484375 
L 14.40625 7.171875 
L 48.1875 7.171875 
L 48.1875 0 
L 4.296875 0 
L 4.296875 8.203125 
L 38.09375 47.515625 
L 5.515625 47.515625 
z
" id="DejaVuSans-122"/>
      </defs>
      <use xlink:href="#DejaVuSans-70"/>
      <use x="53.894531" xlink:href="#DejaVuSans-111"/>
      <use x="115.076172" xlink:href="#DejaVuSans-114"/>
      <use x="153.939453" xlink:href="#DejaVuSans-99"/>
      <use x="208.919922" xlink:href="#DejaVuSans-101"/>
      <use x="270.443359" xlink:href="#DejaVuSans-100"/>
      <use x="333.919922" xlink:href="#DejaVuSans-32"/>
      <use x="365.707031" xlink:href="#DejaVuSans-110"/>
      <use x="429.085938" xlink:href="#DejaVuSans-111"/>
      <use x="490.267578" xlink:href="#DejaVuSans-114"/>
      <use x="529.630859" xlink:href="#DejaVuSans-109"/>
      <use x="627.042969" xlink:href="#DejaVuSans-97"/>
      <use x="688.322266" xlink:href="#DejaVuSans-108"/>
      <use x="716.105469" xlink:href="#DejaVuSans-105"/>
      <use x="743.888672" xlink:href="#DejaVuSans-122"/>
      <use x="796.378906" xlink:href="#DejaVuSans-46"/>
     </g>
    </g>
    <g id="line2d_36">
     <path d="M 99 705.070687 
L 119 705.070687 
" style="fill:none;stroke:#2ca02c;stroke-linecap:square;stroke-width:1.5;"/>
    </g>
    <g id="line2d_37"/>
    <g id="text_20">
     <!-- $\lambda=0.005$ -->
     <g transform="translate(127 708.570687)scale(0.1 -0.1)">
      <defs>
       <path d="M 36.71875 67.4375 
L 48.828125 0 
L 39.3125 0 
L 31.84375 40.4375 
L 5.125 0 
L -4.390625 0 
L 29.734375 52.4375 
L 28.03125 62.109375 
Q 26.953125 68.265625 21.734375 68.265625 
L 17.046875 68.265625 
L 18.5 75.984375 
L 24.21875 75.875 
Q 35.203125 75.734375 36.71875 67.4375 
z
" id="DejaVuSans-Oblique-955"/>
       <path d="M 10.59375 45.40625 
L 73.1875 45.40625 
L 73.1875 37.203125 
L 10.59375 37.203125 
z
M 10.59375 25.484375 
L 73.1875 25.484375 
L 73.1875 17.1875 
L 10.59375 17.1875 
z
" id="DejaVuSans-61"/>
      </defs>
      <use transform="translate(0 0.015625)" xlink:href="#DejaVuSans-Oblique-955"/>
      <use transform="translate(78.662109 0.015625)" xlink:href="#DejaVuSans-61"/>
      <use transform="translate(181.933594 0.015625)" xlink:href="#DejaVuSans-48"/>
      <use transform="translate(245.556641 0.015625)" xlink:href="#DejaVuSans-46"/>
      <use transform="translate(277.34375 0.015625)" xlink:href="#DejaVuSans-48"/>
      <use transform="translate(340.966797 0.015625)" xlink:href="#DejaVuSans-48"/>
      <use transform="translate(404.589844 0.015625)" xlink:href="#DejaVuSans-53"/>
     </g>
    </g>
    <g id="line2d_38">
     <path d="M 229.815625 675.714438 
L 249.815625 675.714438 
" style="fill:none;stroke:#d62728;stroke-linecap:square;stroke-width:1.5;"/>
    </g>
    <g id="line2d_39"/>
    <g id="text_21">
     <!-- $\lambda=0.05$ -->
     <g transform="translate(257.815625 679.214438)scale(0.1 -0.1)">
      <use transform="translate(0 0.015625)" xlink:href="#DejaVuSans-Oblique-955"/>
      <use transform="translate(78.662109 0.015625)" xlink:href="#DejaVuSans-61"/>
      <use transform="translate(181.933594 0.015625)" xlink:href="#DejaVuSans-48"/>
      <use transform="translate(245.556641 0.015625)" xlink:href="#DejaVuSans-46"/>
      <use transform="translate(277.34375 0.015625)" xlink:href="#DejaVuSans-48"/>
      <use transform="translate(340.966797 0.015625)" xlink:href="#DejaVuSans-53"/>
     </g>
    </g>
    <g id="line2d_40">
     <path d="M 229.815625 690.392563 
L 249.815625 690.392563 
" style="fill:none;stroke:#9467bd;stroke-linecap:square;stroke-width:1.5;"/>
    </g>
    <g id="line2d_41"/>
    <g id="text_22">
     <!-- $\lambda=0.5$ -->
     <g transform="translate(257.815625 693.892563)scale(0.1 -0.1)">
      <use transform="translate(0 0.015625)" xlink:href="#DejaVuSans-Oblique-955"/>
      <use transform="translate(78.662109 0.015625)" xlink:href="#DejaVuSans-61"/>
      <use transform="translate(181.933594 0.015625)" xlink:href="#DejaVuSans-48"/>
      <use transform="translate(245.556641 0.015625)" xlink:href="#DejaVuSans-46"/>
      <use transform="translate(277.34375 0.015625)" xlink:href="#DejaVuSans-53"/>
     </g>
    </g>
    <g id="line2d_42">
     <path d="M 229.815625 705.070687 
L 249.815625 705.070687 
" style="fill:none;stroke:#8c564b;stroke-linecap:square;stroke-width:1.5;"/>
    </g>
    <g id="line2d_43"/>
    <g id="text_23">
     <!-- $\lambda=1.5$ -->
     <g transform="translate(257.815625 708.570687)scale(0.1 -0.1)">
      <use transform="translate(0 0.015625)" xlink:href="#DejaVuSans-Oblique-955"/>
      <use transform="translate(78.662109 0.015625)" xlink:href="#DejaVuSans-61"/>
      <use transform="translate(181.933594 0.015625)" xlink:href="#DejaVuSans-49"/>
      <use transform="translate(245.556641 0.015625)" xlink:href="#DejaVuSans-46"/>
      <use transform="translate(277.34375 0.015625)" xlink:href="#DejaVuSans-53"/>
     </g>
    </g>
    <g id="line2d_44">
     <path d="M 318.315625 675.714438 
L 338.315625 675.714438 
" style="fill:none;stroke:#e377c2;stroke-linecap:square;stroke-width:1.5;"/>
    </g>
    <g id="line2d_45"/>
    <g id="text_24">
     <!-- $\lambda=3$ -->
     <g transform="translate(346.315625 679.214438)scale(0.1 -0.1)">
      <use transform="translate(0 0.015625)" xlink:href="#DejaVuSans-Oblique-955"/>
      <use transform="translate(78.662109 0.015625)" xlink:href="#DejaVuSans-61"/>
      <use transform="translate(181.933594 0.015625)" xlink:href="#DejaVuSans-51"/>
     </g>
    </g>
    <g id="line2d_46">
     <path d="M 318.315625 690.392563 
L 338.315625 690.392563 
" style="fill:none;stroke:#7f7f7f;stroke-linecap:square;stroke-width:1.5;"/>
    </g>
    <g id="line2d_47"/>
    <g id="text_25">
     <!-- $\lambda=5$ -->
     <g transform="translate(346.315625 693.892563)scale(0.1 -0.1)">
      <use transform="translate(0 0.015625)" xlink:href="#DejaVuSans-Oblique-955"/>
      <use transform="translate(78.662109 0.015625)" xlink:href="#DejaVuSans-61"/>
      <use transform="translate(181.933594 0.015625)" xlink:href="#DejaVuSans-53"/>
     </g>
    </g>
    <g id="line2d_48">
     <path d="M 318.315625 705.070687 
L 338.315625 705.070687 
" style="fill:none;stroke:#bcbd22;stroke-linecap:square;stroke-width:1.5;"/>
    </g>
    <g id="line2d_49"/>
    <g id="text_26">
     <!-- $\lambda=10$ -->
     <g transform="translate(346.315625 708.570687)scale(0.1 -0.1)">
      <use transform="translate(0 0.015625)" xlink:href="#DejaVuSans-Oblique-955"/>
      <use transform="translate(78.662109 0.015625)" xlink:href="#DejaVuSans-61"/>
      <use transform="translate(181.933594 0.015625)" xlink:href="#DejaVuSans-49"/>
      <use transform="translate(245.556641 0.015625)" xlink:href="#DejaVuSans-48"/>
     </g>
    </g>
   </g>
   <g id="legend_2">
    <g id="line2d_50">
     <path d="M 561.765625 675.714438 
L 581.765625 675.714438 
" style="fill:none;stroke:#bcbd22;stroke-linecap:square;stroke-width:1.5;"/>
    </g>
    <g id="line2d_51"/>
    <g id="text_27">
     <!-- train -->
     <g transform="translate(589.765625 679.214438)scale(0.1 -0.1)">
      <use xlink:href="#DejaVuSans-116"/>
      <use x="39.208984" xlink:href="#DejaVuSans-114"/>
      <use x="80.322266" xlink:href="#DejaVuSans-97"/>
      <use x="141.601562" xlink:href="#DejaVuSans-105"/>
      <use x="169.384766" xlink:href="#DejaVuSans-110"/>
     </g>
    </g>
    <g id="line2d_52">
     <path d="M 561.765625 690.392563 
L 581.765625 690.392563 
" style="fill:none;stroke:#bcbd22;stroke-dasharray:9.6,2.4,1.5,2.4;stroke-dashoffset:0;stroke-width:1.5;"/>
    </g>
    <g id="line2d_53"/>
    <g id="text_28">
     <!-- validation -->
     <g transform="translate(589.765625 693.892563)scale(0.1 -0.1)">
      <defs>
       <path d="M 2.984375 54.6875 
L 12.5 54.6875 
L 29.59375 8.796875 
L 46.6875 54.6875 
L 56.203125 54.6875 
L 35.6875 0 
L 23.484375 0 
z
" id="DejaVuSans-118"/>
      </defs>
      <use xlink:href="#DejaVuSans-118"/>
      <use x="59.179688" xlink:href="#DejaVuSans-97"/>
      <use x="120.458984" xlink:href="#DejaVuSans-108"/>
      <use x="148.242188" xlink:href="#DejaVuSans-105"/>
      <use x="176.025391" xlink:href="#DejaVuSans-100"/>
      <use x="239.501953" xlink:href="#DejaVuSans-97"/>
      <use x="300.78125" xlink:href="#DejaVuSans-116"/>
      <use x="339.990234" xlink:href="#DejaVuSans-105"/>
      <use x="367.773438" xlink:href="#DejaVuSans-111"/>
      <use x="428.955078" xlink:href="#DejaVuSans-110"/>
     </g>
    </g>
   </g>
  </g>
 </g>
 <defs>
  <clipPath id="p09596b8283">
   <rect height="543.6" width="558" x="90" y="86.4"/>
  </clipPath>
 </defs>
</svg>
