<?xml version="1.0" encoding="UTF-8" standalone="no"?>
<!-- Created with matplotlib (https://matplotlib.org/) -->

<svg
   xmlns:dc="http://purl.org/dc/elements/1.1/"
   xmlns:cc="http://creativecommons.org/ns#"
   xmlns:rdf="http://www.w3.org/1999/02/22-rdf-syntax-ns#"
   xmlns:svg="http://www.w3.org/2000/svg"
   xmlns="http://www.w3.org/2000/svg"
   xmlns:xlink="http://www.w3.org/1999/xlink"
   xmlns:sodipodi="http://sodipodi.sourceforge.net/DTD/sodipodi-0.dtd"
   xmlns:inkscape="http://www.inkscape.org/namespaces/inkscape"
   height="528.48407pt"
   version="1.1"
   viewBox="0 0 619.2242 528.48406"
   width="619.22418pt"
   id="svg348"
   sodipodi:docname="imagenet.svg"
   inkscape:version="0.92.4 (unknown)">
  <metadata
     id="metadata352">
    <rdf:RDF>
      <cc:Work
         rdf:about="">
        <dc:format>image/svg+xml</dc:format>
        <dc:type
           rdf:resource="http://purl.org/dc/dcmitype/StillImage" />
      </cc:Work>
    </rdf:RDF>
  </metadata>
  <sodipodi:namedview
     pagecolor="#ffffff"
     bordercolor="#666666"
     borderopacity="1"
     objecttolerance="10"
     gridtolerance="10"
     guidetolerance="10"
     inkscape:pageopacity="0"
     inkscape:pageshadow="2"
     inkscape:window-width="1920"
     inkscape:window-height="961"
     id="namedview350"
     showgrid="false"
     inkscape:zoom="1.0243055"
     inkscape:cx="497.8707"
     inkscape:cy="530.16746"
     inkscape:window-x="0"
     inkscape:window-y="27"
     inkscape:window-maximized="1"
     inkscape:current-layer="svg348" />
  <defs
     id="defs4"
     style="stroke-linecap:butt;stroke-linejoin:round">
    <style
       type="text/css"
       id="style2">
*{stroke-linecap:butt;stroke-linejoin:round;}
  </style>
  </defs>
  <defs
     id="defs346">
    <clipPath
       id="pc9ec7ae624"
       style="stroke-linecap:butt;stroke-linejoin:round">
      <rect
         height="266.112"
         width="357.12"
         x="57.599998"
         y="41.472"
         id="rect343"
         style="stroke-linecap:butt;stroke-linejoin:round" />
    </clipPath>
  </defs>
  <rect
     style="opacity:1;fill:#ffffff;fill-opacity:0.99074073;stroke:none;stroke-width:1.28303218;stroke-linecap:butt;stroke-linejoin:miter;stroke-miterlimit:4;stroke-dasharray:none;stroke-dashoffset:0;stroke-opacity:1"
     id="rect1770"
     width="619.22418"
     height="528.48407"
     x="0"
     y="0" />
  <text
     xml:space="preserve"
     style="font-style:normal;font-variant:normal;font-weight:normal;font-stretch:normal;font-size:25px;line-height:1.25;font-family:'CMU Serif';-inkscape-font-specification:'CMU Serif';letter-spacing:0px;word-spacing:0px;fill:#000000;fill-opacity:1;stroke:none;stroke-width:0.75;stroke-linecap:butt;stroke-linejoin:round"
     x="-9.6442709"
     y="514.88184"
     id="text1668"><tspan
       sodipodi:role="line"
       id="tspan1666"
       style="stroke-width:0.75;stroke-linecap:butt;stroke-linejoin:round"
       x="-9.6442709"
       y="538.00684" /></text>
  <g
     id="patch_2"
     style="stroke-linecap:butt;stroke-linejoin:round"
     transform="matrix(1.478177,0,0,1.478177,-18.627298,-48.728191)">
    <path
       d="M 57.6,307.584 H 414.72 V 41.472 H 57.6 Z"
       style="fill:#ffffff;stroke-linecap:butt;stroke-linejoin:round"
       id="path9"
       inkscape:connector-curvature="0" />
  </g>
  <g
     id="patch_3"
     style="stroke-linecap:butt;stroke-linejoin:round"
     transform="matrix(1.478177,0,0,1.478177,-18.627298,-48.728191)">
    <path
       clip-path="url(#pc9ec7ae624)"
       d="m 75.456,307.584 h 35.712 V 176.34808 H 75.456 Z"
       style="fill:#1f77b4;stroke-linecap:butt;stroke-linejoin:round"
       id="path12"
       inkscape:connector-curvature="0" />
  </g>
  <g
     id="patch_4"
     style="stroke-linecap:butt;stroke-linejoin:round"
     transform="matrix(1.478177,0,0,1.478177,-18.627298,-48.728191)">
    <path
       clip-path="url(#pc9ec7ae624)"
       d="m 146.88,307.584 h 35.712 V 83.313251 H 146.88 Z"
       style="fill:#1f77b4;stroke-linecap:butt;stroke-linejoin:round"
       id="path15"
       inkscape:connector-curvature="0" />
  </g>
  <g
     id="patch_5"
     style="stroke-linecap:butt;stroke-linejoin:round"
     transform="matrix(1.478177,0,0,1.478177,-18.627298,-48.728191)">
    <path
       clip-path="url(#pc9ec7ae624)"
       d="m 218.304,307.584 h 35.712 V 76.397979 h -35.712 z"
       style="fill:#1f77b4;stroke-linecap:butt;stroke-linejoin:round"
       id="path18"
       inkscape:connector-curvature="0" />
  </g>
  <g
     id="patch_6"
     style="stroke-linecap:butt;stroke-linejoin:round"
     transform="matrix(1.478177,0,0,1.478177,-18.627298,-48.728191)">
    <path
       clip-path="url(#pc9ec7ae624)"
       d="M 289.728,307.584 H 325.44 V 75.721019 h -35.712 z"
       style="fill:#1f77b4;stroke-linecap:butt;stroke-linejoin:round"
       id="path21"
       inkscape:connector-curvature="0" />
  </g>
  <g
     id="patch_7"
     style="stroke-linecap:butt;stroke-linejoin:round"
     transform="matrix(1.478177,0,0,1.478177,-18.627298,-48.728191)">
    <path
       clip-path="url(#pc9ec7ae624)"
       d="m 361.152,307.584 h 35.712 V 54.144 h -35.712 z"
       style="fill:#1f77b4;stroke-linecap:butt;stroke-linejoin:round"
       id="path24"
       inkscape:connector-curvature="0" />
  </g>
  <g
     id="matplotlib.axis_2"
     style="stroke-linecap:butt;stroke-linejoin:round"
     transform="matrix(1.478177,0,0,1.478177,-18.627298,-48.728191)">
    <g
       id="ytick_1"
       style="stroke-linecap:butt;stroke-linejoin:round">
      <g
         id="line2d_6"
         style="stroke-linecap:butt;stroke-linejoin:round">
        <defs
           id="defs171">
          <path
             d="M 0,0 H -3.5"
             id="m4caef436a9"
             style="stroke:#000000;stroke-width:0.80000001;stroke-linecap:butt;stroke-linejoin:round"
             inkscape:connector-curvature="0" />
        </defs>
        <g
           id="g175"
           style="stroke-linecap:butt;stroke-linejoin:round">
          <use
             style="stroke:#000000;stroke-width:0.80000001;stroke-linecap:butt;stroke-linejoin:round"
             x="57.599998"
             xlink:href="#m4caef436a9"
             y="307.58401"
             id="use173"
             width="100%"
             height="100%" />
        </g>
      </g>
      <g
         id="text_7"
         style="stroke-linecap:butt;stroke-linejoin:round">
        <!-- 0.00 -->
        <defs
           id="defs180">
          <path
             d="m 31.78125,66.40625 q -7.609375,0 -11.453125,-7.5 Q 16.5,51.421875 16.5,36.375 q 0,-14.984375 3.828125,-22.484375 3.84375,-7.5 11.453125,-7.5 7.671875,0 11.5,7.5 3.84375,7.5 3.84375,22.484375 0,15.046875 -3.84375,22.53125 -3.828125,7.5 -11.5,7.5 z m 0,7.8125 q 12.265625,0 18.734375,-9.703125 6.46875,-9.6875 6.46875,-28.140625 0,-18.40625 -6.46875,-28.109375 -6.46875,-9.6875 -18.734375,-9.6875 -12.25,0 -18.71875,9.6875 Q 6.59375,17.96875 6.59375,36.375 q 0,18.453125 6.46875,28.140625 6.46875,9.703125 18.71875,9.703125 z"
             id="DejaVuSans-48"
             inkscape:connector-curvature="0"
             style="stroke-linecap:butt;stroke-linejoin:round" />
          <path
             d="M 10.6875,12.40625 H 21 V 0 H 10.6875 Z"
             id="DejaVuSans-46"
             inkscape:connector-curvature="0"
             style="stroke-linecap:butt;stroke-linejoin:round" />
        </defs>
        <g
           transform="matrix(0.1,0,0,-0.1,28.334375,311.38322)"
           id="g190"
           style="stroke-linecap:butt;stroke-linejoin:round">
          <use
             xlink:href="#DejaVuSans-48"
             id="use182"
             style="stroke-linecap:butt;stroke-linejoin:round"
             x="0"
             y="0"
             width="100%"
             height="100%" />
          <use
             x="63.623047"
             xlink:href="#DejaVuSans-46"
             id="use184"
             style="stroke-linecap:butt;stroke-linejoin:round"
             y="0"
             width="100%"
             height="100%" />
          <use
             x="95.410156"
             xlink:href="#DejaVuSans-48"
             id="use186"
             style="stroke-linecap:butt;stroke-linejoin:round"
             y="0"
             width="100%"
             height="100%" />
          <use
             x="159.0332"
             xlink:href="#DejaVuSans-48"
             id="use188"
             style="stroke-linecap:butt;stroke-linejoin:round"
             y="0"
             width="100%"
             height="100%" />
        </g>
      </g>
    </g>
    <g
       id="ytick_2"
       style="stroke-linecap:butt;stroke-linejoin:round">
      <g
         id="line2d_7"
         style="stroke-linecap:butt;stroke-linejoin:round">
        <g
           id="g196"
           style="stroke-linecap:butt;stroke-linejoin:round">
          <use
             style="stroke:#000000;stroke-width:0.80000001;stroke-linecap:butt;stroke-linejoin:round"
             x="57.599998"
             xlink:href="#m4caef436a9"
             y="264.73846"
             id="use194"
             width="100%"
             height="100%" />
        </g>
      </g>
      <g
         id="text_8"
         style="stroke-linecap:butt;stroke-linejoin:round">
        <!-- 0.05 -->
        <defs
           id="defs200">
          <path
             d="m 10.796875,72.90625 h 38.71875 v -8.3125 h -29.6875 V 46.734375 q 2.140625,0.734375 4.28125,1.09375 2.15625,0.359375 4.3125,0.359375 Q 40.625,48.1875 47.75,41.5 54.890625,34.8125 54.890625,23.390625 54.890625,11.625 47.5625,5.09375 40.234375,-1.421875 26.90625,-1.421875 q -4.59375,0 -9.359375,0.78125 -4.75,0.78125 -9.828125,2.34375 V 11.625 q 4.390625,-2.390625 9.078125,-3.5625 4.6875,-1.171875 9.90625,-1.171875 8.453125,0 13.375,4.4375 4.9375,4.4375 4.9375,12.0625 0,7.609375 -4.9375,12.046875 -4.921875,4.453125 -13.375,4.453125 -3.953125,0 -7.890625,-0.875 -3.921875,-0.875 -8.015625,-2.734375 z"
             id="DejaVuSans-53"
             inkscape:connector-curvature="0"
             style="stroke-linecap:butt;stroke-linejoin:round" />
        </defs>
        <g
           transform="matrix(0.1,0,0,-0.1,28.334375,268.53767)"
           id="g210"
           style="stroke-linecap:butt;stroke-linejoin:round">
          <use
             xlink:href="#DejaVuSans-48"
             id="use202"
             style="stroke-linecap:butt;stroke-linejoin:round"
             x="0"
             y="0"
             width="100%"
             height="100%" />
          <use
             x="63.623047"
             xlink:href="#DejaVuSans-46"
             id="use204"
             style="stroke-linecap:butt;stroke-linejoin:round"
             y="0"
             width="100%"
             height="100%" />
          <use
             x="95.410156"
             xlink:href="#DejaVuSans-48"
             id="use206"
             style="stroke-linecap:butt;stroke-linejoin:round"
             y="0"
             width="100%"
             height="100%" />
          <use
             x="159.0332"
             xlink:href="#DejaVuSans-53"
             id="use208"
             style="stroke-linecap:butt;stroke-linejoin:round"
             y="0"
             width="100%"
             height="100%" />
        </g>
      </g>
    </g>
    <g
       id="ytick_3"
       style="stroke-linecap:butt;stroke-linejoin:round">
      <g
         id="line2d_8"
         style="stroke-linecap:butt;stroke-linejoin:round">
        <g
           id="g216"
           style="stroke-linecap:butt;stroke-linejoin:round">
          <use
             style="stroke:#000000;stroke-width:0.80000001;stroke-linecap:butt;stroke-linejoin:round"
             x="57.599998"
             xlink:href="#m4caef436a9"
             y="221.8929"
             id="use214"
             width="100%"
             height="100%" />
        </g>
      </g>
      <g
         id="text_9"
         style="stroke-linecap:butt;stroke-linejoin:round">
        <!-- 0.10 -->
        <defs
           id="defs220">
          <path
             d="m 12.40625,8.296875 h 16.109375 v 55.625 L 10.984375,60.40625 v 8.984375 l 17.4375,3.515625 H 38.28125 V 8.296875 H 54.390625 V 0 H 12.40625 Z"
             id="DejaVuSans-49"
             inkscape:connector-curvature="0"
             style="stroke-linecap:butt;stroke-linejoin:round" />
        </defs>
        <g
           transform="matrix(0.1,0,0,-0.1,28.334375,225.69212)"
           id="g230"
           style="stroke-linecap:butt;stroke-linejoin:round">
          <use
             xlink:href="#DejaVuSans-48"
             id="use222"
             style="stroke-linecap:butt;stroke-linejoin:round"
             x="0"
             y="0"
             width="100%"
             height="100%" />
          <use
             x="63.623047"
             xlink:href="#DejaVuSans-46"
             id="use224"
             style="stroke-linecap:butt;stroke-linejoin:round"
             y="0"
             width="100%"
             height="100%" />
          <use
             x="95.410156"
             xlink:href="#DejaVuSans-49"
             id="use226"
             style="stroke-linecap:butt;stroke-linejoin:round"
             y="0"
             width="100%"
             height="100%" />
          <use
             x="159.0332"
             xlink:href="#DejaVuSans-48"
             id="use228"
             style="stroke-linecap:butt;stroke-linejoin:round"
             y="0"
             width="100%"
             height="100%" />
        </g>
      </g>
    </g>
    <g
       id="ytick_4"
       style="stroke-linecap:butt;stroke-linejoin:round">
      <g
         id="line2d_9"
         style="stroke-linecap:butt;stroke-linejoin:round">
        <g
           id="g236"
           style="stroke-linecap:butt;stroke-linejoin:round">
          <use
             style="stroke:#000000;stroke-width:0.80000001;stroke-linecap:butt;stroke-linejoin:round"
             x="57.599998"
             xlink:href="#m4caef436a9"
             y="179.04735"
             id="use234"
             width="100%"
             height="100%" />
        </g>
      </g>
      <g
         id="text_10"
         style="stroke-linecap:butt;stroke-linejoin:round">
        <!-- 0.15 -->
        <g
           transform="matrix(0.1,0,0,-0.1,28.334375,182.84657)"
           id="g247"
           style="stroke-linecap:butt;stroke-linejoin:round">
          <use
             xlink:href="#DejaVuSans-48"
             id="use239"
             style="stroke-linecap:butt;stroke-linejoin:round"
             x="0"
             y="0"
             width="100%"
             height="100%" />
          <use
             x="63.623047"
             xlink:href="#DejaVuSans-46"
             id="use241"
             style="stroke-linecap:butt;stroke-linejoin:round"
             y="0"
             width="100%"
             height="100%" />
          <use
             x="95.410156"
             xlink:href="#DejaVuSans-49"
             id="use243"
             style="stroke-linecap:butt;stroke-linejoin:round"
             y="0"
             width="100%"
             height="100%" />
          <use
             x="159.0332"
             xlink:href="#DejaVuSans-53"
             id="use245"
             style="stroke-linecap:butt;stroke-linejoin:round"
             y="0"
             width="100%"
             height="100%" />
        </g>
      </g>
    </g>
    <g
       id="ytick_5"
       style="stroke-linecap:butt;stroke-linejoin:round">
      <g
         id="line2d_10"
         style="stroke-linecap:butt;stroke-linejoin:round">
        <g
           id="g253"
           style="stroke-linecap:butt;stroke-linejoin:round">
          <use
             style="stroke:#000000;stroke-width:0.80000001;stroke-linecap:butt;stroke-linejoin:round"
             x="57.599998"
             xlink:href="#m4caef436a9"
             y="136.2018"
             id="use251"
             width="100%"
             height="100%" />
        </g>
      </g>
      <g
         id="text_11"
         style="stroke-linecap:butt;stroke-linejoin:round">
        <!-- 0.20 -->
        <defs
           id="defs257">
          <path
             d="M 19.1875,8.296875 H 53.609375 V 0 H 7.328125 v 8.296875 q 5.609375,5.8125 15.296875,15.59375 9.703125,9.796875 12.1875,12.640625 4.734375,5.3125 6.609375,9 1.890625,3.6875 1.890625,7.25 0,5.8125 -4.078125,9.46875 -4.078125,3.671875 -10.625,3.671875 -4.640625,0 -9.796875,-1.609375 -5.140625,-1.609375 -11,-4.890625 v 9.96875 Q 13.765625,71.78125 18.9375,73 q 5.1875,1.21875 9.484375,1.21875 11.328125,0 18.0625,-5.671875 6.734375,-5.65625 6.734375,-15.125 0,-4.5 -1.6875,-8.53125 Q 49.859375,40.875 45.40625,35.40625 44.1875,33.984375 37.640625,27.21875 31.109375,20.453125 19.1875,8.296875 Z"
             id="DejaVuSans-50"
             inkscape:connector-curvature="0"
             style="stroke-linecap:butt;stroke-linejoin:round" />
        </defs>
        <g
           transform="matrix(0.1,0,0,-0.1,28.334375,140.00102)"
           id="g267"
           style="stroke-linecap:butt;stroke-linejoin:round">
          <use
             xlink:href="#DejaVuSans-48"
             id="use259"
             style="stroke-linecap:butt;stroke-linejoin:round"
             x="0"
             y="0"
             width="100%"
             height="100%" />
          <use
             x="63.623047"
             xlink:href="#DejaVuSans-46"
             id="use261"
             style="stroke-linecap:butt;stroke-linejoin:round"
             y="0"
             width="100%"
             height="100%" />
          <use
             x="95.410156"
             xlink:href="#DejaVuSans-50"
             id="use263"
             style="stroke-linecap:butt;stroke-linejoin:round"
             y="0"
             width="100%"
             height="100%" />
          <use
             x="159.0332"
             xlink:href="#DejaVuSans-48"
             id="use265"
             style="stroke-linecap:butt;stroke-linejoin:round"
             y="0"
             width="100%"
             height="100%" />
        </g>
      </g>
    </g>
    <g
       id="ytick_6"
       style="stroke-linecap:butt;stroke-linejoin:round">
      <g
         id="line2d_11"
         style="stroke-linecap:butt;stroke-linejoin:round">
        <g
           id="g273"
           style="stroke-linecap:butt;stroke-linejoin:round">
          <use
             style="stroke:#000000;stroke-width:0.80000001;stroke-linecap:butt;stroke-linejoin:round"
             x="57.599998"
             xlink:href="#m4caef436a9"
             y="93.356247"
             id="use271"
             width="100%"
             height="100%" />
        </g>
      </g>
      <g
         id="text_12"
         style="stroke-linecap:butt;stroke-linejoin:round">
        <!-- 0.25 -->
        <g
           transform="matrix(0.1,0,0,-0.1,28.334375,97.155467)"
           id="g284"
           style="stroke-linecap:butt;stroke-linejoin:round">
          <use
             xlink:href="#DejaVuSans-48"
             id="use276"
             style="stroke-linecap:butt;stroke-linejoin:round"
             x="0"
             y="0"
             width="100%"
             height="100%" />
          <use
             x="63.623047"
             xlink:href="#DejaVuSans-46"
             id="use278"
             style="stroke-linecap:butt;stroke-linejoin:round"
             y="0"
             width="100%"
             height="100%" />
          <use
             x="95.410156"
             xlink:href="#DejaVuSans-50"
             id="use280"
             style="stroke-linecap:butt;stroke-linejoin:round"
             y="0"
             width="100%"
             height="100%" />
          <use
             x="159.0332"
             xlink:href="#DejaVuSans-53"
             id="use282"
             style="stroke-linecap:butt;stroke-linejoin:round"
             y="0"
             width="100%"
             height="100%" />
        </g>
      </g>
    </g>
    <g
       id="ytick_7"
       style="stroke-linecap:butt;stroke-linejoin:round">
      <g
         id="line2d_12"
         style="stroke-linecap:butt;stroke-linejoin:round">
        <g
           id="g290"
           style="stroke-linecap:butt;stroke-linejoin:round">
          <use
             style="stroke:#000000;stroke-width:0.80000001;stroke-linecap:butt;stroke-linejoin:round"
             x="57.599998"
             xlink:href="#m4caef436a9"
             y="50.510696"
             id="use288"
             width="100%"
             height="100%" />
        </g>
      </g>
      <g
         id="text_13"
         style="stroke-linecap:butt;stroke-linejoin:round">
        <!-- 0.30 -->
        <defs
           id="defs294">
          <path
             d="M 40.578125,39.3125 Q 47.65625,37.796875 51.625,33 q 3.984375,-4.78125 3.984375,-11.8125 0,-10.78125 -7.421875,-16.703125 -7.421875,-5.90625 -21.09375,-5.90625 -4.578125,0 -9.4375,0.90625 -4.859375,0.90625 -10.03125,2.71875 v 9.515625 q 4.09375,-2.390625 8.96875,-3.609375 4.890625,-1.21875 10.21875,-1.21875 9.265625,0 14.125,3.65625 4.859375,3.65625 4.859375,10.640625 0,6.453125 -4.515625,10.078125 -4.515625,3.640625 -12.5625,3.640625 h -8.5 v 8.109375 h 8.890625 q 7.265625,0 11.125,2.90625 3.859375,2.90625 3.859375,8.375 0,5.609375 -3.984375,8.609375 -3.96875,3.015625 -11.390625,3.015625 -4.0625,0 -8.703125,-0.890625 Q 15.375,64.15625 9.8125,62.3125 v 8.78125 q 5.625,1.5625 10.53125,2.34375 4.90625,0.78125 9.25,0.78125 11.234375,0 17.765625,-5.109375 6.546875,-5.09375 6.546875,-13.78125 0,-6.0625 -3.46875,-10.234375 -3.46875,-4.171875 -9.859375,-5.78125 z"
             id="DejaVuSans-51"
             inkscape:connector-curvature="0"
             style="stroke-linecap:butt;stroke-linejoin:round" />
        </defs>
        <g
           transform="matrix(0.1,0,0,-0.1,28.334375,54.309916)"
           id="g304"
           style="stroke-linecap:butt;stroke-linejoin:round">
          <use
             xlink:href="#DejaVuSans-48"
             id="use296"
             style="stroke-linecap:butt;stroke-linejoin:round"
             x="0"
             y="0"
             width="100%"
             height="100%" />
          <use
             x="63.623047"
             xlink:href="#DejaVuSans-46"
             id="use298"
             style="stroke-linecap:butt;stroke-linejoin:round"
             y="0"
             width="100%"
             height="100%" />
          <use
             x="95.410156"
             xlink:href="#DejaVuSans-51"
             id="use300"
             style="stroke-linecap:butt;stroke-linejoin:round"
             y="0"
             width="100%"
             height="100%" />
          <use
             x="159.0332"
             xlink:href="#DejaVuSans-48"
             id="use302"
             style="stroke-linecap:butt;stroke-linejoin:round"
             y="0"
             width="100%"
             height="100%" />
        </g>
      </g>
    </g>
  </g>
  <g
     id="patch_8"
     style="stroke-linecap:butt;stroke-linejoin:round"
     transform="matrix(1.478177,0,0,1.478177,-18.627298,-48.728191)">
    <path
       d="M 57.6,307.584 V 41.472"
       style="fill:none;stroke:#000000;stroke-width:0.80000001;stroke-linecap:square;stroke-linejoin:miter"
       id="path309"
       inkscape:connector-curvature="0" />
  </g>
  <g
     id="patch_9"
     style="stroke-linecap:butt;stroke-linejoin:round"
     transform="matrix(1.478177,0,0,1.478177,-18.627298,-48.728191)">
    <path
       d="M 414.72,307.584 V 41.472"
       style="fill:none;stroke:#000000;stroke-width:0.80000001;stroke-linecap:square;stroke-linejoin:miter"
       id="path312"
       inkscape:connector-curvature="0" />
  </g>
  <g
     id="patch_10"
     style="stroke-linecap:butt;stroke-linejoin:round"
     transform="matrix(1.478177,0,0,1.478177,-18.627298,-48.728191)">
    <path
       d="M 57.6,307.584 H 414.72"
       style="fill:none;stroke:#000000;stroke-width:0.80000001;stroke-linecap:square;stroke-linejoin:miter"
       id="path315"
       inkscape:connector-curvature="0" />
  </g>
  <g
     id="patch_11"
     style="stroke-linecap:butt;stroke-linejoin:round"
     transform="matrix(1.478177,0,0,1.478177,-18.627298,-48.728191)">
    <path
       d="M 57.6,41.472 H 414.72"
       style="fill:none;stroke:#000000;stroke-width:0.80000001;stroke-linecap:square;stroke-linejoin:miter"
       id="path318"
       inkscape:connector-curvature="0" />
  </g>
  <g
     id="legend_1"
     style="stroke-linecap:butt;stroke-linejoin:round"
     transform="matrix(1.478177,0,0,1.478177,-18.627298,-48.728191)">
    <g
       id="patch_12"
       style="stroke-linecap:butt;stroke-linejoin:round">
      <path
         d="m 64.6,64.150125 h 56.6 q 2,0 2,-2 V 48.472 q 0,-2 -2,-2 H 64.6 q -2,0 -2,2 v 13.678125 q 0,2 2,2 z"
         style="opacity:0.8;fill:#ffffff;stroke:#cccccc;stroke-linecap:butt;stroke-linejoin:miter"
         id="path321"
         inkscape:connector-curvature="0" />
    </g>
    <g
       id="patch_13"
       style="stroke-linecap:butt;stroke-linejoin:round">
      <path
         d="m 66.6,58.070438 h 20 v -7 h -20 z"
         style="fill:#1f77b4;stroke-linecap:butt;stroke-linejoin:round"
         id="path324"
         inkscape:connector-curvature="0" />
    </g>
    <g
       id="text_14"
       style="stroke-linecap:butt;stroke-linejoin:round">
      <!-- error -->
      <g
         transform="matrix(0.1,0,0,-0.1,94.6,58.070438)"
         id="g337"
         style="stroke-linecap:butt;stroke-linejoin:round">
        <path
           d="m 56.203125,29.59375 v -4.390625 h -41.3125 q 0.59375,-9.28125 5.59375,-14.140625 5,-4.859375 13.9375,-4.859375 5.171875,0 10.03125,1.265625 4.859375,1.265625 9.65625,3.8125 v -8.5 q -4.84375,-2.046875 -9.921875,-3.125 -5.078125,-1.078125 -10.296875,-1.078125 -13.09375,0 -20.734375,7.609375 -7.640625,7.625 -7.640625,20.625 0,13.421875 7.25,21.296875 Q 20.015625,56 32.328125,56 q 11.03125,0 17.453125,-7.109375 6.421875,-7.09375 6.421875,-19.296875 z m -8.984375,2.640625 q -0.09375,7.359375 -4.125,11.75 -4.03125,4.40625 -10.671875,4.40625 -7.515625,0 -12.03125,-4.25 -4.515625,-4.25 -5.203125,-11.96875 z"
           id="use327"
           inkscape:connector-curvature="0"
           style="stroke-linecap:butt;stroke-linejoin:round" />
        <path
           d="m 102.63281,46.296875 q -1.51562,0.875 -3.296873,1.28125 Q 97.554687,48 95.414062,48 87.789062,48 83.710937,43.046875 79.632812,38.09375 79.632812,28.8125 V 0 h -9.03125 v 54.6875 h 9.03125 v -8.5 q 2.84375,4.984375 7.375,7.390625 Q 91.554687,56 98.054687,56 q 0.921875,0 2.046873,-0.125 1.125,-0.109375 2.48438,-0.359375 z"
           id="use329"
           inkscape:connector-curvature="0"
           style="stroke-linecap:butt;stroke-linejoin:round" />
        <path
           d="m 143.73047,46.296875 q -1.51563,0.875 -3.29688,1.28125 Q 138.65234,48 136.51172,48 128.88672,48 124.80859,43.046875 120.73047,38.09375 120.73047,28.8125 V 0 h -9.03125 v 54.6875 h 9.03125 v -8.5 q 2.84375,4.984375 7.375,7.390625 Q 132.65234,56 139.15234,56 q 0.92188,0 2.04688,-0.125 1.125,-0.109375 2.48437,-0.359375 z"
           id="use331"
           inkscape:connector-curvature="0"
           style="stroke-linecap:butt;stroke-linejoin:round" />
        <path
           d="m 174.3125,48.390625 q -7.21875,0 -11.42188,-5.640625 -4.20312,-5.640625 -4.20312,-15.453125 0,-9.8125 4.17187,-15.453125 4.1875,-5.640625 11.45313,-5.640625 7.1875,0 11.375,5.65625 4.20312,5.671875 4.20312,15.4375 0,9.71875 -4.20312,15.40625 -4.1875,5.6875 -11.375,5.6875 z m 0,7.609375 q 11.71875,0 18.40625,-7.625 6.70312,-7.609375 6.70312,-21.078125 0,-13.421875 -6.70312,-21.078125 -6.6875,-7.640625 -18.40625,-7.640625 -11.76563,0 -18.4375,7.640625 -6.65625,7.65625 -6.65625,21.078125 0,13.46875 6.65625,21.078125 Q 162.54687,56 174.3125,56 Z"
           id="use333"
           inkscape:connector-curvature="0"
           style="stroke-linecap:butt;stroke-linejoin:round" />
        <path
           d="m 245.99414,46.296875 q -1.51562,0.875 -3.29687,1.28125 Q 240.91602,48 238.77539,48 231.15039,48 227.07227,43.046875 222.99414,38.09375 222.99414,28.8125 V 0 h -9.03125 v 54.6875 h 9.03125 v -8.5 q 2.84375,4.984375 7.375,7.390625 Q 234.91602,56 241.41602,56 q 0.92187,0 2.04687,-0.125 1.125,-0.109375 2.48438,-0.359375 z"
           id="use335"
           inkscape:connector-curvature="0"
           style="stroke-linecap:butt;stroke-linejoin:round" />
      </g>
    </g>
  </g>
  <text
     xml:space="preserve"
     style="font-style:normal;font-variant:normal;font-weight:normal;font-stretch:normal;font-size:10px;line-height:1;font-family:sans-serif;-inkscape-font-specification:'sans-serif, Normal';font-variant-ligatures:normal;font-variant-caps:normal;font-variant-numeric:normal;font-feature-settings:normal;text-align:center;letter-spacing:0px;word-spacing:0px;writing-mode:lr-tb;text-anchor:middle;fill:#000000;fill-opacity:1;stroke:none;stroke-width:0.09660672;stroke-linecap:butt;stroke-linejoin:round"
     x="-206.34317"
     y="420.37363"
     id="text1672"
     transform="rotate(-40.903315)"
     inkscape:transform-center-x="3.4770526"
     inkscape:transform-center-y="11.712175"><tspan
       sodipodi:role="line"
       id="tspan1670"
       style="font-style:normal;font-variant:normal;font-weight:normal;font-stretch:normal;font-size:8px;line-height:1;font-family:sans-serif;-inkscape-font-specification:'sans-serif, Normal';font-variant-ligatures:normal;font-variant-caps:normal;font-variant-numeric:normal;font-feature-settings:normal;text-align:center;writing-mode:lr-tb;text-anchor:middle;stroke-width:0.09660672;stroke-linecap:butt;stroke-linejoin:round"
       x="-206.34317"
       y="420.37363">Krizhevsky et al.</tspan><tspan
       sodipodi:role="line"
       style="font-style:normal;font-variant:normal;font-weight:normal;font-stretch:normal;font-size:10px;line-height:1;font-family:sans-serif;-inkscape-font-specification:'sans-serif, Normal';font-variant-ligatures:normal;font-variant-caps:normal;font-variant-numeric:normal;font-feature-settings:normal;text-align:center;writing-mode:lr-tb;text-anchor:middle;stroke-width:0.09660672;stroke-linecap:butt;stroke-linejoin:round"
       x="-206.34317"
       y="430.37363"
       id="tspan1674">Deep neural network</tspan></text>
  <text
     id="text1688"
     y="500.23093"
     x="-137.9576"
     style="font-style:normal;font-variant:normal;font-weight:normal;font-stretch:normal;font-size:10px;line-height:1;font-family:sans-serif;-inkscape-font-specification:'sans-serif, Normal';font-variant-ligatures:normal;font-variant-caps:normal;font-variant-numeric:normal;font-feature-settings:normal;text-align:center;letter-spacing:0px;word-spacing:0px;writing-mode:lr-tb;text-anchor:middle;fill:#000000;fill-opacity:1;stroke:none;stroke-width:0.09660672;stroke-linecap:butt;stroke-linejoin:round"
     xml:space="preserve"
     transform="rotate(-40.903315)"><tspan
       y="500.23093"
       x="-137.9576"
       style="font-style:normal;font-variant:normal;font-weight:normal;font-stretch:normal;font-size:8px;line-height:1;font-family:sans-serif;-inkscape-font-specification:'sans-serif, Normal';font-variant-ligatures:normal;font-variant-caps:normal;font-variant-numeric:normal;font-feature-settings:normal;text-align:center;writing-mode:lr-tb;text-anchor:middle;stroke-width:0.09660672;stroke-linecap:butt;stroke-linejoin:round"
       id="tspan1684"
       sodipodi:role="line">Gunji et al.</tspan><tspan
       id="tspan1686"
       y="510.23096"
       x="-137.9576"
       style="font-style:normal;font-variant:normal;font-weight:normal;font-stretch:normal;font-size:10px;line-height:1;font-family:sans-serif;-inkscape-font-specification:'sans-serif, Normal';font-variant-ligatures:normal;font-variant-caps:normal;font-variant-numeric:normal;font-feature-settings:normal;text-align:center;writing-mode:lr-tb;text-anchor:middle;stroke-width:0.09660672;stroke-linecap:butt;stroke-linejoin:round"
       sodipodi:role="line">Linear models w/ Fisher vectors</tspan></text>
  <text
     xml:space="preserve"
     style="font-style:normal;font-variant:normal;font-weight:normal;font-stretch:normal;font-size:10px;line-height:1;font-family:sans-serif;-inkscape-font-specification:'sans-serif, Normal';font-variant-ligatures:normal;font-variant-caps:normal;font-variant-numeric:normal;font-feature-settings:normal;text-align:center;letter-spacing:0px;word-spacing:0px;writing-mode:lr-tb;text-anchor:middle;fill:#000000;fill-opacity:1;stroke:none;stroke-width:0.09660672;stroke-linecap:butt;stroke-linejoin:round"
     x="31.61853"
     y="628.25629"
     id="text1694"
     transform="rotate(-40.903315)"><tspan
       sodipodi:role="line"
       id="tspan1690"
       style="font-style:normal;font-variant:normal;font-weight:normal;font-stretch:normal;font-size:8px;line-height:1;font-family:sans-serif;-inkscape-font-specification:'sans-serif, Normal';font-variant-ligatures:normal;font-variant-caps:normal;font-variant-numeric:normal;font-feature-settings:normal;text-align:center;writing-mode:lr-tb;text-anchor:middle;stroke-width:0.09660672;stroke-linecap:butt;stroke-linejoin:round"
       x="31.61853"
       y="628.25629">Perronnin et al.</tspan><tspan
       sodipodi:role="line"
       style="font-style:normal;font-variant:normal;font-weight:normal;font-stretch:normal;font-size:10px;line-height:1;font-family:sans-serif;-inkscape-font-specification:'sans-serif, Normal';font-variant-ligatures:normal;font-variant-caps:normal;font-variant-numeric:normal;font-feature-settings:normal;text-align:center;writing-mode:lr-tb;text-anchor:middle;stroke-width:0.09660672;stroke-linecap:butt;stroke-linejoin:round"
       x="31.61853"
       y="638.25629"
       id="tspan1692">SVMs w/ Fisher vectors</tspan></text>
  <text
     id="text1700"
     y="559.24469"
     x="-48.041325"
     style="font-style:normal;font-variant:normal;font-weight:normal;font-stretch:normal;font-size:10px;line-height:1;font-family:sans-serif;-inkscape-font-specification:'sans-serif, Normal';font-variant-ligatures:normal;font-variant-caps:normal;font-variant-numeric:normal;font-feature-settings:normal;text-align:center;letter-spacing:0px;word-spacing:0px;writing-mode:lr-tb;text-anchor:middle;fill:#000000;fill-opacity:1;stroke:none;stroke-width:0.09660672;stroke-linecap:butt;stroke-linejoin:round"
     xml:space="preserve"
     transform="rotate(-40.903315)"><tspan
       y="559.24469"
       x="-48.041325"
       style="font-style:normal;font-variant:normal;font-weight:normal;font-stretch:normal;font-size:8px;line-height:1;font-family:sans-serif;-inkscape-font-specification:'sans-serif, Normal';font-variant-ligatures:normal;font-variant-caps:normal;font-variant-numeric:normal;font-feature-settings:normal;text-align:center;writing-mode:lr-tb;text-anchor:middle;stroke-width:0.09660672;stroke-linecap:butt;stroke-linejoin:round"
       id="tspan1696"
       sodipodi:role="line">Simonyan et al.</tspan><tspan
       id="tspan1698"
       y="569.24469"
       x="-48.041325"
       style="font-style:normal;font-variant:normal;font-weight:normal;font-stretch:normal;font-size:10px;line-height:1;font-family:sans-serif;-inkscape-font-specification:'sans-serif, Normal';font-variant-ligatures:normal;font-variant-caps:normal;font-variant-numeric:normal;font-feature-settings:normal;text-align:center;writing-mode:lr-tb;text-anchor:middle;stroke-width:0.09660672;stroke-linecap:butt;stroke-linejoin:round"
       sodipodi:role="line">SVMs w/ Fisher vectors</tspan></text>
  <text
     id="text1706"
     y="698.15112"
     x="112.29794"
     style="font-style:normal;font-variant:normal;font-weight:normal;font-stretch:normal;font-size:10px;line-height:1;font-family:sans-serif;-inkscape-font-specification:'sans-serif, Normal';font-variant-ligatures:normal;font-variant-caps:normal;font-variant-numeric:normal;font-feature-settings:normal;text-align:center;letter-spacing:0px;word-spacing:0px;writing-mode:lr-tb;text-anchor:middle;fill:#000000;fill-opacity:1;stroke:none;stroke-width:0.09660672;stroke-linecap:butt;stroke-linejoin:round"
     xml:space="preserve"
     transform="rotate(-40.903315)"><tspan
       y="698.15112"
       x="112.29794"
       style="font-style:normal;font-variant:normal;font-weight:normal;font-stretch:normal;font-size:8px;line-height:1;font-family:sans-serif;-inkscape-font-specification:'sans-serif, Normal';font-variant-ligatures:normal;font-variant-caps:normal;font-variant-numeric:normal;font-feature-settings:normal;text-align:center;writing-mode:lr-tb;text-anchor:middle;stroke-width:0.09660672;stroke-linecap:butt;stroke-linejoin:round"
       id="tspan1702"
       sodipodi:role="line">van de Sande et al.</tspan><tspan
       id="tspan1704"
       y="708.15112"
       x="112.29794"
       style="font-style:normal;font-variant:normal;font-weight:normal;font-stretch:normal;font-size:10px;line-height:1;font-family:sans-serif;-inkscape-font-specification:'sans-serif, Normal';font-variant-ligatures:normal;font-variant-caps:normal;font-variant-numeric:normal;font-feature-settings:normal;text-align:center;writing-mode:lr-tb;text-anchor:middle;stroke-width:0.09660672;stroke-linecap:butt;stroke-linejoin:round"
       sodipodi:role="line">SVMs w/ Fisher vectors</tspan></text>
  <path
     style="fill:none;stroke:#000000;stroke-width:1.41347539;stroke-linecap:butt;stroke-linejoin:miter;stroke-miterlimit:4;stroke-dasharray:none;stroke-opacity:1"
     d="m 119.26477,406.10774 v 4.87036"
     id="path1710"
     inkscape:connector-curvature="0" />
  <path
     inkscape:connector-curvature="0"
     id="path1712"
     d="m 224.87224,406.10774 v 4.87036"
     style="fill:none;stroke:#000000;stroke-width:1.41347539;stroke-linecap:butt;stroke-linejoin:miter;stroke-miterlimit:4;stroke-dasharray:none;stroke-opacity:1" />
  <path
     style="fill:none;stroke:#000000;stroke-width:1.41347539;stroke-linecap:butt;stroke-linejoin:miter;stroke-miterlimit:4;stroke-dasharray:none;stroke-opacity:1"
     d="m 330.3406,406.10774 v 4.87036"
     id="path1714"
     inkscape:connector-curvature="0" />
  <path
     inkscape:connector-curvature="0"
     id="path1716"
     d="m 436.03652,406.10774 v 4.87036"
     style="fill:none;stroke:#000000;stroke-width:1.41347539;stroke-linecap:butt;stroke-linejoin:miter;stroke-miterlimit:4;stroke-dasharray:none;stroke-opacity:1" />
  <path
     style="fill:none;stroke:#000000;stroke-width:1.41347539;stroke-linecap:butt;stroke-linejoin:miter;stroke-miterlimit:4;stroke-dasharray:none;stroke-opacity:1"
     d="m 541.59455,406.10774 v 4.87036"
     id="path1718"
     inkscape:connector-curvature="0" />
</svg>
