<?xml version="1.0" encoding="UTF-8" standalone="no"?>
<svg
   xmlns:dc="http://purl.org/dc/elements/1.1/"
   xmlns:cc="http://creativecommons.org/ns#"
   xmlns:rdf="http://www.w3.org/1999/02/22-rdf-syntax-ns#"
   xmlns:svg="http://www.w3.org/2000/svg"
   xmlns="http://www.w3.org/2000/svg"
   xmlns:sodipodi="http://sodipodi.sourceforge.net/DTD/sodipodi-0.dtd"
   xmlns:inkscape="http://www.inkscape.org/namespaces/inkscape"
   id="Capa_1"
   enable-background="new 0 0 510.393 510.393"
   height="314.63965"
   viewBox="0 0 1536.1738 313.6521"
   width="1541.0105"
   version="1.1"
   sodipodi:docname="dog.svg"
   inkscape:version="0.92.4 (unknown)">
  <metadata
     id="metadata13">
    <rdf:RDF>
      <cc:Work
         rdf:about="">
        <dc:format>image/svg+xml</dc:format>
        <dc:type
           rdf:resource="http://purl.org/dc/dcmitype/StillImage" />
      </cc:Work>
    </rdf:RDF>
  </metadata>
  <defs
     id="defs11">
    <marker
       inkscape:isstock="true"
       style="overflow:visible"
       id="marker1918"
       refX="0"
       refY="0"
       orient="auto"
       inkscape:stockid="Arrow1Lend">
      <path
         transform="matrix(-0.8,0,0,-0.8,-10,0)"
         style="fill:#000000;fill-opacity:1;fill-rule:evenodd;stroke:#000000;stroke-width:1.00000003pt;stroke-opacity:1"
         d="M 0,0 5,-5 -12.5,0 5,5 Z"
         id="path1916"
         inkscape:connector-curvature="0" />
    </marker>
    <marker
       inkscape:stockid="Arrow1Lend"
       orient="auto"
       refY="0"
       refX="0"
       id="Arrow1Lend"
       style="overflow:visible"
       inkscape:isstock="true"
       inkscape:collect="always">
      <path
         id="path1539"
         d="M 0,0 5,-5 -12.5,0 5,5 Z"
         style="fill:#000000;fill-opacity:1;fill-rule:evenodd;stroke:#000000;stroke-width:1.00000003pt;stroke-opacity:1"
         transform="matrix(-0.8,0,0,-0.8,-10,0)"
         inkscape:connector-curvature="0" />
    </marker>
  </defs>
  <sodipodi:namedview
     pagecolor="#ffffff"
     bordercolor="#666666"
     borderopacity="1"
     objecttolerance="10"
     gridtolerance="10"
     guidetolerance="10"
     inkscape:pageopacity="0"
     inkscape:pageshadow="2"
     inkscape:window-width="1920"
     inkscape:window-height="961"
     id="namedview9"
     showgrid="false"
     inkscape:zoom="0.4609375"
     inkscape:cx="658.71532"
     inkscape:cy="317.64223"
     inkscape:window-x="0"
     inkscape:window-y="27"
     inkscape:window-maximized="1"
     inkscape:current-layer="Capa_1" />
  <rect
     style="opacity:1;fill:#ffffff;fill-opacity:1;stroke:none;stroke-width:1.49529207;stroke-linecap:round;stroke-linejoin:miter;stroke-miterlimit:4;stroke-dasharray:none;stroke-dashoffset:0;stroke-opacity:1"
     id="rect2032"
     width="1536.1738"
     height="313.6521"
     x="0"
     y="0" />
  <g
     id="g1039"
     transform="matrix(0.20834322,0,0,0.20834322,24.606934,146.08516)">
    <g
       id="g973">
	<g
   id="g971">
		<path
   id="path969"
   d="M 499.485,358.307 H 489.46 c -4.022,-62.349 -21.623,-106.46 -32.018,-127.597 -2.837,-5.769 -7.575,-10.107 -13.254,-12.452 0.023,-1.422 0.029,-2.503 0.029,-2.529 0,-17.781 -11.664,-33.041 -28.603,-37.767 v -4.557 c 0,-17.051 -10.888,-32.046 -27.093,-37.313 -3.943,-1.283 -8.18,0.876 -9.462,4.82 -1.282,3.944 0.876,8.181 4.82,9.462 9.999,3.25 16.717,12.505 16.717,23.03 v 6.514 c 0,5.878 4.024,10.897 9.785,12.205 11.08,2.517 18.817,12.223 18.817,23.605 0,0.162 -10e-4,0.353 -0.003,0.564 H 82.821 c -0.005,-0.189 -0.019,-0.372 -0.019,-0.564 0,-11.382 7.738,-21.088 18.817,-23.604 5.761,-1.309 9.785,-6.328 9.785,-12.206 v -5.763 c 0,-6.981 2.926,-13.715 8.029,-18.475 4.933,-4.601 11.269,-6.883 17.872,-6.426 0.88,0.061 1.769,0.172 2.638,0.33 6.614,1.204 12.966,-2.997 14.451,-9.56 4.885,-21.605 23.785,-36.695 45.964,-36.695 11.626,0 22.794,4.269 31.446,12.022 3.287,2.944 7.944,3.95 12.157,2.624 3.95,-1.243 8.062,-1.873 12.222,-1.873 15.751,0 29.809,8.816 36.686,23.008 1.605,3.311 4.556,5.753 8.098,6.701 3.475,0.933 7.172,0.311 10.137,-1.701 4.843,-3.284 10.506,-5.019 16.378,-5.019 1.515,0 3.035,0.116 4.516,0.345 4.096,0.641 7.934,-2.174 8.569,-6.273 0.634,-4.099 -2.174,-7.935 -6.273,-8.569 -2.239,-0.346 -4.531,-0.521 -6.812,-0.521 -7.916,0 -15.584,2.086 -22.351,6.056 -9.712,-17.73 -28.633,-29.046 -48.948,-29.046 -5.226,0 -10.401,0.729 -15.402,2.167 -11.258,-9.644 -25.556,-14.939 -40.422,-14.939 -14.184,0 -28.056,4.905 -39.061,13.812 -10.233,8.282 -17.627,19.696 -20.996,32.335 -0.653,-0.078 -1.306,-0.14 -1.957,-0.185 -10.783,-0.747 -21.144,2.953 -29.155,10.427 -8.136,7.591 -12.802,18.327 -12.802,29.456 v 3.806 c -16.938,4.726 -28.603,19.986 -28.603,37.767 0,0.853 0.027,1.684 0.082,2.507 -5.703,2.34 -10.462,6.687 -13.309,12.475 -10.394,21.136 -27.995,65.247 -32.017,127.596 H 12.515 C 5.614,358.307 0,363.921 0,370.822 v 40.351 c 0,6.901 5.614,12.515 12.515,12.515 h 121.339 c 4.147,0 7.509,-3.362 7.509,-7.509 0,-4.147 -3.361,-7.509 -7.509,-7.509 H 15.018 V 373.325 H 496.982 V 408.67 H 185.916 c -4.147,0 -7.509,3.362 -7.509,7.509 0,4.147 3.361,7.509 7.509,7.509 h 313.569 c 6.901,0 12.515,-5.614 12.515,-12.515 v -40.351 c 0,-6.901 -5.614,-12.515 -12.515,-12.515 z M 37.584,358.306 c 3.968,-59.248 20.607,-100.952 30.449,-120.968 1.477,-3.002 4.188,-5.061 7.355,-5.753 0.34,0.047 0.684,0.08 1.037,0.08 0.002,0 0.005,0 0.008,0 l 357.882,-0.353 c 4.131,0.012 7.827,2.317 9.651,6.025 9.844,20.016 26.483,61.721 30.45,120.969 z"
   inkscape:connector-curvature="0" />

	</g>

</g>
    <g
       id="g979">
	<g
   id="g977">
		<path
   id="path975"
   d="m 360.186,273.995 c -0.555,-15.871 -13.413,-28.875 -29.271,-29.607 -8.495,-0.39 -16.54,2.617 -22.672,8.472 -4.709,4.498 -7.794,10.197 -8.973,16.451 h -86.536 c -1.177,-6.247 -4.264,-11.951 -8.977,-16.451 -6.131,-5.855 -14.189,-8.863 -22.672,-8.472 -15.858,0.732 -28.716,13.737 -29.271,29.607 -0.269,7.668 2.364,15.069 7.157,20.813 -4.793,5.744 -7.426,13.145 -7.157,20.813 0.555,15.87 13.413,28.875 29.271,29.607 0.492,0.023 0.981,0.034 1.469,0.034 7.945,0 15.427,-2.99 21.203,-8.506 4.713,-4.5 7.799,-10.204 8.977,-16.451 h 86.533 c 1.177,6.247 4.264,11.951 8.977,16.451 6.131,5.855 14.197,8.861 22.672,8.472 15.858,-0.732 28.715,-13.737 29.27,-29.607 0.27,-7.668 -2.362,-15.07 -7.156,-20.814 4.794,-5.743 7.426,-13.144 7.156,-20.812 z m -15.008,41.1 c -0.284,8.111 -6.853,14.757 -14.954,15.131 -4.34,0.198 -8.473,-1.337 -11.609,-4.331 -3.137,-2.996 -4.865,-7.035 -4.865,-11.381 0.003,-2.47 -0.955,-4.791 -2.698,-6.535 -1.734,-1.736 -4.041,-2.692 -6.495,-2.692 h -97.112 c -2.454,0 -4.761,0.956 -6.495,2.692 -1.742,1.744 -2.701,4.064 -2.698,6.527 v 0.018 c 0,4.336 -1.728,8.374 -4.866,11.371 -3.135,2.994 -7.268,4.533 -11.608,4.331 -8.101,-0.374 -14.671,-7.02 -14.955,-15.13 -0.196,-5.611 2.643,-10.944 7.408,-13.917 2.198,-1.372 3.534,-3.78 3.534,-6.37 0,-2.591 -1.336,-4.999 -3.534,-6.37 -4.765,-2.974 -7.604,-8.306 -7.408,-13.917 0.284,-8.11 6.854,-14.756 14.955,-15.13 4.376,-0.201 8.473,1.337 11.608,4.331 3.138,2.996 4.866,7.034 4.866,11.38 -0.003,2.47 0.955,4.791 2.698,6.535 1.734,1.736 4.041,2.692 6.495,2.692 h 97.112 c 2.454,0 4.761,-0.956 6.495,-2.692 1.742,-1.744 2.701,-4.064 2.698,-6.544 0,-4.336 1.728,-8.375 4.865,-11.37 3.137,-2.994 7.273,-4.532 11.608,-4.331 8.102,0.373 14.671,7.02 14.955,15.131 0.197,5.61 -2.642,10.943 -7.407,13.917 -2.198,1.372 -3.533,3.779 -3.533,6.37 -10e-4,2.588 1.335,4.996 3.533,6.367 4.765,2.974 7.604,8.306 7.407,13.917 z"
   inkscape:connector-curvature="0" />

	</g>

</g>
    <g
       id="g981">
</g>
    <g
       id="g983">
</g>
    <g
       id="g985">
</g>
    <g
       id="g987">
</g>
    <g
       id="g989">
</g>
    <g
       id="g991">
</g>
    <g
       id="g993">
</g>
    <g
       id="g995">
</g>
    <g
       id="g997">
</g>
    <g
       id="g999">
</g>
    <g
       id="g1001">
</g>
    <g
       id="g1003">
</g>
    <g
       id="g1005">
</g>
    <g
       id="g1007">
</g>
    <g
       id="g1009">
</g>
  </g>
  <g
     id="g1187"
     transform="translate(162.34399,36.265246)">
    <circle
       id="circle2"
       r="7.3469825"
       cy="56.229736"
       cx="94.887688"
       style="fill:#000000;stroke-width:0.75122517" />
    <circle
       style="fill:#000000;stroke-width:0.24303976"
       cx="60.097313"
       cy="82.991562"
       r="2.3769288"
       id="circle837" />
    <g
       transform="translate(-4.0189239e-8,0.76462362)"
       style="fill:#000000"
       id="g845">
      <circle
         style="fill:#000000;stroke-width:0.24303976"
         cx="52.833389"
         cy="93.696289"
         r="2.3769288"
         id="circle839" />
      <circle
         id="circle841"
         r="2.3769288"
         cy="93.696289"
         cx="67.361237"
         style="fill:#000000;stroke-width:0.24303976" />
    </g>
    <path
       sodipodi:nodetypes="ccczccszsssc"
       inkscape:connector-curvature="0"
       id="path1119"
       d="m 187.61543,120.9119 c 3.75716,26.40607 8.10731,47.23664 8.10731,47.23664 0,0 -5.67704,23.51917 -105.701093,28.11487 0,0 1.967713,-66.41988 -0.811005,-69.47617 -2.778718,-3.05629 -24.870846,0.13517 -24.870846,0.13517 0,0 -52.593114,6.58247 -58.3924199,-44.470151 C 4.2456272,71.00413 5.6095218,60.747519 12.319181,58.824623 30.408343,53.640519 34.278007,59.278597 51.093367,51.634037 67.908727,43.989477 82.996018,7.6845653 107.05277,7.2990517 l 58.46199,-0.9368634 c 19.92927,-0.31937 17.23558,46.4696377 17.50222,71.2240357 0.10407,9.661681 1.16674,19.688236 3.1416,33.567946"
       style="fill:none;stroke:#000000;stroke-width:3.48901463;stroke-linecap:round;stroke-linejoin:miter;stroke-miterlimit:4;stroke-dasharray:none;stroke-opacity:1" />
    <path
       sodipodi:nodetypes="cc"
       inkscape:connector-curvature="0"
       id="path1121"
       d="m 128.94992,7.5693869 c 0,0 -23.91293,126.3634531 53.57809,72.3477931"
       style="fill:none;stroke:#000000;stroke-width:3.48901463;stroke-linecap:butt;stroke-linejoin:miter;stroke-miterlimit:4;stroke-dasharray:none;stroke-opacity:1" />
    <path
       sodipodi:nodetypes="cc"
       inkscape:connector-curvature="0"
       id="path1123"
       d="m 90.654283,177.97919 c 2.342951,-0.58155 57.478047,1.99599 101.468977,-28.299"
       style="fill:none;stroke:#000000;stroke-width:3.48901463;stroke-linecap:butt;stroke-linejoin:miter;stroke-miterlimit:4;stroke-dasharray:none;stroke-opacity:1" />
    <path
       sodipodi:nodetypes="cc"
       inkscape:connector-curvature="0"
       id="path1125"
       d="m 27.619215,55.175587 c 0,0 6.024225,19.764257 -21.502226,17.661542"
       style="fill:none;stroke:#000000;stroke-width:3.48901463;stroke-linecap:butt;stroke-linejoin:miter;stroke-miterlimit:4;stroke-dasharray:none;stroke-opacity:1" />
    <path
       sodipodi:nodetypes="csc"
       inkscape:connector-curvature="0"
       id="path1141"
       d="m 17.600363,111.75707 c -16.77584869,4.19828 -7.56963,17.46021 -6.073146,18.26995 2.278595,1.23294 5.015382,-6.9261 17.871485,-9.82136"
       style="fill:none;stroke:#000000;stroke-width:3.48901463;stroke-linecap:butt;stroke-linejoin:miter;stroke-miterlimit:4;stroke-dasharray:none;stroke-opacity:1" />
    <path
       inkscape:connector-curvature="0"
       id="path1143"
       d="m 12.711868,121.77303 c 0,0 1.433669,-4.49215 8.793172,-5.25677"
       style="fill:none;stroke:#000000;stroke-width:1.69466424;stroke-linecap:butt;stroke-linejoin:miter;stroke-miterlimit:4;stroke-dasharray:none;stroke-opacity:1" />
  </g>
  <path
     style="fill:none;stroke:#000000;stroke-width:1.99372268;stroke-linecap:butt;stroke-linejoin:miter;stroke-miterlimit:4;stroke-dasharray:none;stroke-opacity:1"
     d="m 175.43433,175.18453 c 0,0 -6.23455,10.22868 0.0274,10.22868 6.26199,0 -0.0274,-10.22868 -0.0274,-10.22868 z"
     id="path1163"
     inkscape:connector-curvature="0"
     sodipodi:nodetypes="czc" />
  <path
     sodipodi:nodetypes="czc"
     inkscape:connector-curvature="0"
     id="path1165"
     d="m 175.61363,190.63038 c 0,0 -9.87635,16.20356 0.0435,16.20356 9.91979,0 -0.0435,-16.20356 -0.0435,-16.20356 z"
     style="fill:none;stroke:#000000;stroke-width:1.99372268;stroke-linecap:butt;stroke-linejoin:miter;stroke-miterlimit:4;stroke-dasharray:none;stroke-opacity:1" />
  <rect
     style="opacity:1;fill:none;fill-opacity:1;stroke:#000000;stroke-width:1.49529195;stroke-linecap:round;stroke-linejoin:miter;stroke-miterlimit:4;stroke-dasharray:none;stroke-dashoffset:0;stroke-opacity:1"
     id="rect1189"
     width="383.94629"
     height="253.95239"
     x="0"
     y="0" />
  <g
     transform="translate(546.29028,36.265246)"
     id="g1298">
    <circle
       style="fill:#000000;stroke-width:0.75122517"
       cx="94.887688"
       cy="56.229736"
       r="7.3469825"
       id="circle1276" />
    <circle
       id="circle1278"
       r="2.3769288"
       cy="82.991562"
       cx="60.097313"
       style="fill:#000000;stroke-width:0.24303976" />
    <g
       id="g1284"
       style="fill:#000000"
       transform="translate(-4.0189239e-8,0.76462362)">
      <circle
         id="circle1280"
         r="2.3769288"
         cy="93.696289"
         cx="52.833389"
         style="fill:#000000;stroke-width:0.24303976" />
      <circle
         style="fill:#000000;stroke-width:0.24303976"
         cx="67.361237"
         cy="93.696289"
         r="2.3769288"
         id="circle1282" />
    </g>
    <path
       style="fill:none;stroke:#000000;stroke-width:3.48901463;stroke-linecap:round;stroke-linejoin:miter;stroke-miterlimit:4;stroke-dasharray:none;stroke-opacity:1"
       d="m 187.61543,120.9119 c 3.75716,26.40607 8.10731,47.23664 8.10731,47.23664 0,0 -5.67704,23.51917 -105.701093,28.11487 0,0 1.967713,-66.41988 -0.811005,-69.47617 -2.778718,-3.05629 -24.870846,0.13517 -24.870846,0.13517 0,0 -52.593114,6.58247 -58.3924199,-44.470151 C 4.2456272,71.00413 5.6095218,60.747519 12.319181,58.824623 30.408343,53.640519 34.278007,59.278597 51.093367,51.634037 67.908727,43.989477 82.996018,7.6845653 107.05277,7.2990517 l 58.46199,-0.9368634 c 19.92927,-0.31937 17.23558,46.4696377 17.50222,71.2240357 0.10407,9.661681 1.16674,19.688236 3.1416,33.567946"
       id="path1286"
       inkscape:connector-curvature="0"
       sodipodi:nodetypes="ccczccszsssc" />
    <path
       style="fill:none;stroke:#000000;stroke-width:3.48901463;stroke-linecap:butt;stroke-linejoin:miter;stroke-miterlimit:4;stroke-dasharray:none;stroke-opacity:1"
       d="m 128.94992,7.5693869 c 0,0 -23.91293,126.3634531 53.57809,72.3477931"
       id="path1288"
       inkscape:connector-curvature="0"
       sodipodi:nodetypes="cc" />
    <path
       style="fill:none;stroke:#000000;stroke-width:3.48901463;stroke-linecap:butt;stroke-linejoin:miter;stroke-miterlimit:4;stroke-dasharray:none;stroke-opacity:1"
       d="m 90.654283,177.97919 c 2.342951,-0.58155 57.478047,1.99599 101.468977,-28.299"
       id="path1290"
       inkscape:connector-curvature="0"
       sodipodi:nodetypes="cc" />
    <path
       style="fill:none;stroke:#000000;stroke-width:3.48901463;stroke-linecap:butt;stroke-linejoin:miter;stroke-miterlimit:4;stroke-dasharray:none;stroke-opacity:1"
       d="m 27.619215,55.175587 c 0,0 6.024225,19.764257 -21.502226,17.661542"
       id="path1292"
       inkscape:connector-curvature="0"
       sodipodi:nodetypes="cc" />
    <path
       style="fill:none;stroke:#000000;stroke-width:3.48901463;stroke-linecap:butt;stroke-linejoin:miter;stroke-miterlimit:4;stroke-dasharray:none;stroke-opacity:1"
       d="m 17.600363,111.75707 c -16.77584869,4.19828 -7.56963,17.46021 -6.073146,18.26995 2.278595,1.23294 5.015382,-6.9261 17.871485,-9.82136"
       id="path1294"
       inkscape:connector-curvature="0"
       sodipodi:nodetypes="csc" />
    <path
       style="fill:none;stroke:#000000;stroke-width:1.69466424;stroke-linecap:butt;stroke-linejoin:miter;stroke-miterlimit:4;stroke-dasharray:none;stroke-opacity:1"
       d="m 12.711868,121.77303 c 0,0 1.433669,-4.49215 8.793172,-5.25677"
       id="path1296"
       inkscape:connector-curvature="0" />
  </g>
  <g
     transform="matrix(0.83524198,0,0,0.83524198,625.52496,57.599618)"
     id="g1314">
    <g
       id="g1304"
       transform="matrix(0.18082674,-0.04285281,0.04285281,0.18082674,-269.76508,0.50499454)">
      <g
         id="g1300" />
      <path
         id="path1302"
         d="m 350.67,417.372 -13.131,-83.165 c -3.064,-19.405 -12.977,-37.121 -27.913,-49.883 -8.801,-7.52 -19.033,-13.03 -29.969,-16.304 L 286.816,31.765 C 287.071,23.357 283.985,15.401 278.128,9.363 272.271,3.325 264.412,0 256,0 c -8.412,0 -16.271,3.325 -22.128,9.363 -5.857,6.038 -8.943,13.994 -8.688,22.401 l 3.887,128.269 c 0.125,4.141 3.604,7.389 7.724,7.27 4.14,-0.125 7.395,-3.583 7.27,-7.724 L 240.177,31.31 c -0.131,-4.317 1.453,-8.402 4.461,-11.502 C 247.645,16.708 251.681,15 256,15 c 4.319,0 8.355,1.708 11.362,4.808 3.008,3.1 4.592,7.185 4.461,11.502 l -5.124,169.093 H 245.3 l -0.265,-8.758 c -0.125,-4.141 -3.612,-7.404 -7.724,-7.27 -4.14,0.125 -7.395,3.583 -7.27,7.724 l 2.301,75.92 c -10.936,3.274 -21.169,8.784 -29.969,16.304 -14.936,12.763 -24.849,30.478 -27.913,49.883 l -13.131,83.165 c -18.739,3.106 -33.072,19.426 -33.072,39.032 v 16.032 c 0,4.142 3.358,7.5 7.5,7.5 h 81.399 C 220.673,498.176 236.749,512 256,512 c 19.251,0 35.327,-13.824 38.842,-32.064 h 81.399 c 4.142,0 7.5,-3.358 7.5,-7.5 v -16.032 c 0.001,-19.606 -14.332,-35.926 -33.071,-39.032 z M 245.755,215.403 h 20.49 l -1.503,49.613 c -2.894,-0.309 -5.809,-0.484 -8.741,-0.484 -2.932,0 -5.848,0.176 -8.741,0.484 z M 256,497 c -10.93,0 -20.211,-7.177 -23.389,-17.064 H 279.39 C 276.211,489.823 266.93,497 256,497 Z M 368.742,464.936 H 143.258 v -8.532 c 0,-13.545 11.02,-24.564 24.564,-24.564 h 112.226 c 4.142,0 7.5,-3.358 7.5,-7.5 0,-4.142 -3.358,-7.5 -7.5,-7.5 H 176.6 l 12.678,-80.292 c 2.507,-15.879 10.619,-30.376 22.841,-40.819 12.222,-10.443 27.806,-16.195 43.882,-16.195 16.076,0 31.66,5.751 43.882,16.195 12.222,10.444 20.333,24.94 22.841,40.819 l 12.678,80.293 h -23.287 c -4.142,0 -7.5,3.358 -7.5,7.5 0,4.142 3.358,7.5 7.5,7.5 h 32.064 c 13.545,0 24.564,11.02 24.564,24.564 v 8.531 z"
         inkscape:connector-curvature="0" />
    </g>
    <g
       id="g1312"
       transform="rotate(-21.823612,-197.32329,91.304803)">
      <path
         sodipodi:nodetypes="ccc"
         inkscape:connector-curvature="0"
         id="path1306"
         d="m -187.61299,84.320442 c 0.0378,4.142961 -3.95073,7.538143 -8.90857,7.583349 -4.95785,0.0452 -9.00759,-3.276686 -9.04537,-7.419646"
         style="opacity:1;fill:none;fill-opacity:1;stroke:#000000;stroke-width:1.99372268;stroke-linecap:round;stroke-linejoin:miter;stroke-miterlimit:4;stroke-dasharray:none;stroke-dashoffset:0;stroke-opacity:1" />
      <path
         style="opacity:1;fill:none;fill-opacity:1;stroke:#000000;stroke-width:1.99372268;stroke-linecap:round;stroke-linejoin:miter;stroke-miterlimit:4;stroke-dasharray:none;stroke-dashoffset:0;stroke-opacity:1"
         d="m -183.57507,92.02906 c 6e-4,6.006494 -5.82579,10.87636 -13.01371,10.87713 -7.18793,7.2e-4 -13.01539,-4.867847 -13.01603,-10.874344"
         id="path1308"
         inkscape:connector-curvature="0"
         sodipodi:nodetypes="ccc" />
      <path
         sodipodi:nodetypes="ccc"
         inkscape:connector-curvature="0"
         id="path1310"
         d="m -179.04062,99.675531 c -0.057,8.099159 -7.96031,14.609529 -17.65249,14.541299 -9.69222,-0.0682 -17.50304,-6.68921 -17.44604,-14.788353"
         style="opacity:1;fill:none;fill-opacity:1;stroke:#000000;stroke-width:1.99372268;stroke-linecap:round;stroke-linejoin:miter;stroke-miterlimit:4;stroke-dasharray:none;stroke-dashoffset:0;stroke-opacity:1" />
    </g>
  </g>
  <rect
     y="0"
     x="383.94629"
     height="253.95239"
     width="383.94629"
     id="rect1320"
     style="opacity:1;fill:none;fill-opacity:1;stroke:#000000;stroke-width:1.49529195;stroke-linecap:round;stroke-linejoin:miter;stroke-miterlimit:4;stroke-dasharray:none;stroke-dashoffset:0;stroke-opacity:1" />
  <g
     id="g1364"
     transform="matrix(0.20834322,0,0,0.20834322,792.49951,146.08516)">
    <g
       id="g1326">
	<g
   id="g1324">
		<path
   id="path1322"
   d="M 499.485,358.307 H 489.46 c -4.022,-62.349 -21.623,-106.46 -32.018,-127.597 -2.837,-5.769 -7.575,-10.107 -13.254,-12.452 0.023,-1.422 0.029,-2.503 0.029,-2.529 0,-17.781 -11.664,-33.041 -28.603,-37.767 v -4.557 c 0,-17.051 -10.888,-32.046 -27.093,-37.313 -3.943,-1.283 -8.18,0.876 -9.462,4.82 -1.282,3.944 0.876,8.181 4.82,9.462 9.999,3.25 16.717,12.505 16.717,23.03 v 6.514 c 0,5.878 4.024,10.897 9.785,12.205 11.08,2.517 18.817,12.223 18.817,23.605 0,0.162 -10e-4,0.353 -0.003,0.564 H 82.821 c -0.005,-0.189 -0.019,-0.372 -0.019,-0.564 0,-11.382 7.738,-21.088 18.817,-23.604 5.761,-1.309 9.785,-6.328 9.785,-12.206 v -5.763 c 0,-6.981 2.926,-13.715 8.029,-18.475 4.933,-4.601 11.269,-6.883 17.872,-6.426 0.88,0.061 1.769,0.172 2.638,0.33 6.614,1.204 12.966,-2.997 14.451,-9.56 4.885,-21.605 23.785,-36.695 45.964,-36.695 11.626,0 22.794,4.269 31.446,12.022 3.287,2.944 7.944,3.95 12.157,2.624 3.95,-1.243 8.062,-1.873 12.222,-1.873 15.751,0 29.809,8.816 36.686,23.008 1.605,3.311 4.556,5.753 8.098,6.701 3.475,0.933 7.172,0.311 10.137,-1.701 4.843,-3.284 10.506,-5.019 16.378,-5.019 1.515,0 3.035,0.116 4.516,0.345 4.096,0.641 7.934,-2.174 8.569,-6.273 0.634,-4.099 -2.174,-7.935 -6.273,-8.569 -2.239,-0.346 -4.531,-0.521 -6.812,-0.521 -7.916,0 -15.584,2.086 -22.351,6.056 -9.712,-17.73 -28.633,-29.046 -48.948,-29.046 -5.226,0 -10.401,0.729 -15.402,2.167 -11.258,-9.644 -25.556,-14.939 -40.422,-14.939 -14.184,0 -28.056,4.905 -39.061,13.812 -10.233,8.282 -17.627,19.696 -20.996,32.335 -0.653,-0.078 -1.306,-0.14 -1.957,-0.185 -10.783,-0.747 -21.144,2.953 -29.155,10.427 -8.136,7.591 -12.802,18.327 -12.802,29.456 v 3.806 c -16.938,4.726 -28.603,19.986 -28.603,37.767 0,0.853 0.027,1.684 0.082,2.507 -5.703,2.34 -10.462,6.687 -13.309,12.475 -10.394,21.136 -27.995,65.247 -32.017,127.596 H 12.515 C 5.614,358.307 0,363.921 0,370.822 v 40.351 c 0,6.901 5.614,12.515 12.515,12.515 h 121.339 c 4.147,0 7.509,-3.362 7.509,-7.509 0,-4.147 -3.361,-7.509 -7.509,-7.509 H 15.018 V 373.325 H 496.982 V 408.67 H 185.916 c -4.147,0 -7.509,3.362 -7.509,7.509 0,4.147 3.361,7.509 7.509,7.509 h 313.569 c 6.901,0 12.515,-5.614 12.515,-12.515 v -40.351 c 0,-6.901 -5.614,-12.515 -12.515,-12.515 z M 37.584,358.306 c 3.968,-59.248 20.607,-100.952 30.449,-120.968 1.477,-3.002 4.188,-5.061 7.355,-5.753 0.34,0.047 0.684,0.08 1.037,0.08 0.002,0 0.005,0 0.008,0 l 357.882,-0.353 c 4.131,0.012 7.827,2.317 9.651,6.025 9.844,20.016 26.483,61.721 30.45,120.969 z"
   inkscape:connector-curvature="0" />

	</g>

</g>
    <g
       id="g1332">
	<g
   id="g1330">
		<path
   id="path1328"
   d="m 360.186,273.995 c -0.555,-15.871 -13.413,-28.875 -29.271,-29.607 -8.495,-0.39 -16.54,2.617 -22.672,8.472 -4.709,4.498 -7.794,10.197 -8.973,16.451 h -86.536 c -1.177,-6.247 -4.264,-11.951 -8.977,-16.451 -6.131,-5.855 -14.189,-8.863 -22.672,-8.472 -15.858,0.732 -28.716,13.737 -29.271,29.607 -0.269,7.668 2.364,15.069 7.157,20.813 -4.793,5.744 -7.426,13.145 -7.157,20.813 0.555,15.87 13.413,28.875 29.271,29.607 0.492,0.023 0.981,0.034 1.469,0.034 7.945,0 15.427,-2.99 21.203,-8.506 4.713,-4.5 7.799,-10.204 8.977,-16.451 h 86.533 c 1.177,6.247 4.264,11.951 8.977,16.451 6.131,5.855 14.197,8.861 22.672,8.472 15.858,-0.732 28.715,-13.737 29.27,-29.607 0.27,-7.668 -2.362,-15.07 -7.156,-20.814 4.794,-5.743 7.426,-13.144 7.156,-20.812 z m -15.008,41.1 c -0.284,8.111 -6.853,14.757 -14.954,15.131 -4.34,0.198 -8.473,-1.337 -11.609,-4.331 -3.137,-2.996 -4.865,-7.035 -4.865,-11.381 0.003,-2.47 -0.955,-4.791 -2.698,-6.535 -1.734,-1.736 -4.041,-2.692 -6.495,-2.692 h -97.112 c -2.454,0 -4.761,0.956 -6.495,2.692 -1.742,1.744 -2.701,4.064 -2.698,6.527 v 0.018 c 0,4.336 -1.728,8.374 -4.866,11.371 -3.135,2.994 -7.268,4.533 -11.608,4.331 -8.101,-0.374 -14.671,-7.02 -14.955,-15.13 -0.196,-5.611 2.643,-10.944 7.408,-13.917 2.198,-1.372 3.534,-3.78 3.534,-6.37 0,-2.591 -1.336,-4.999 -3.534,-6.37 -4.765,-2.974 -7.604,-8.306 -7.408,-13.917 0.284,-8.11 6.854,-14.756 14.955,-15.13 4.376,-0.201 8.473,1.337 11.608,4.331 3.138,2.996 4.866,7.034 4.866,11.38 -0.003,2.47 0.955,4.791 2.698,6.535 1.734,1.736 4.041,2.692 6.495,2.692 h 97.112 c 2.454,0 4.761,-0.956 6.495,-2.692 1.742,-1.744 2.701,-4.064 2.698,-6.544 0,-4.336 1.728,-8.375 4.865,-11.37 3.137,-2.994 7.273,-4.532 11.608,-4.331 8.102,0.373 14.671,7.02 14.955,15.131 0.197,5.61 -2.642,10.943 -7.407,13.917 -2.198,1.372 -3.533,3.779 -3.533,6.37 -10e-4,2.588 1.335,4.996 3.533,6.367 4.765,2.974 7.604,8.306 7.407,13.917 z"
   inkscape:connector-curvature="0" />

	</g>

</g>
    <g
       id="g1334">
</g>
    <g
       id="g1336">
</g>
    <g
       id="g1338">
</g>
    <g
       id="g1340">
</g>
    <g
       id="g1342">
</g>
    <g
       id="g1344">
</g>
    <g
       id="g1346">
</g>
    <g
       id="g1348">
</g>
    <g
       id="g1350">
</g>
    <g
       id="g1352">
</g>
    <g
       id="g1354">
</g>
    <g
       id="g1356">
</g>
    <g
       id="g1358">
</g>
    <g
       id="g1360">
</g>
    <g
       id="g1362">
</g>
  </g>
  <g
     id="g1388"
     transform="translate(930.23657,36.265246)">
    <circle
       id="circle1366"
       r="7.3469825"
       cy="56.229736"
       cx="94.887688"
       style="fill:#000000;stroke-width:0.75122517" />
    <circle
       style="fill:#000000;stroke-width:0.24303976"
       cx="60.097313"
       cy="82.991562"
       r="2.3769288"
       id="circle1368" />
    <g
       transform="translate(-4.0189239e-8,0.76462362)"
       style="fill:#000000"
       id="g1374">
      <circle
         style="fill:#000000;stroke-width:0.24303976"
         cx="52.833389"
         cy="93.696289"
         r="2.3769288"
         id="circle1370" />
      <circle
         id="circle1372"
         r="2.3769288"
         cy="93.696289"
         cx="67.361237"
         style="fill:#000000;stroke-width:0.24303976" />
    </g>
    <path
       sodipodi:nodetypes="ccczccszsssc"
       inkscape:connector-curvature="0"
       id="path1376"
       d="m 187.61543,120.9119 c 3.75716,26.40607 8.10731,47.23664 8.10731,47.23664 0,0 -5.67704,23.51917 -105.701093,28.11487 0,0 1.967713,-66.41988 -0.811005,-69.47617 -2.778718,-3.05629 -24.870846,0.13517 -24.870846,0.13517 0,0 -52.593114,6.58247 -58.3924199,-44.470151 C 4.2456272,71.00413 5.6095218,60.747519 12.319181,58.824623 30.408343,53.640519 34.278007,59.278597 51.093367,51.634037 67.908727,43.989477 82.996018,7.6845653 107.05277,7.2990517 l 58.46199,-0.9368634 c 19.92927,-0.31937 17.23558,46.4696377 17.50222,71.2240357 0.10407,9.661681 1.16674,19.688236 3.1416,33.567946"
       style="fill:none;stroke:#000000;stroke-width:3.48901463;stroke-linecap:round;stroke-linejoin:miter;stroke-miterlimit:4;stroke-dasharray:none;stroke-opacity:1" />
    <path
       sodipodi:nodetypes="cc"
       inkscape:connector-curvature="0"
       id="path1378"
       d="m 128.94992,7.5693869 c 0,0 -23.91293,126.3634531 53.57809,72.3477931"
       style="fill:none;stroke:#000000;stroke-width:3.48901463;stroke-linecap:butt;stroke-linejoin:miter;stroke-miterlimit:4;stroke-dasharray:none;stroke-opacity:1" />
    <path
       sodipodi:nodetypes="cc"
       inkscape:connector-curvature="0"
       id="path1380"
       d="m 90.654283,177.97919 c 2.342951,-0.58155 57.478047,1.99599 101.468977,-28.299"
       style="fill:none;stroke:#000000;stroke-width:3.48901463;stroke-linecap:butt;stroke-linejoin:miter;stroke-miterlimit:4;stroke-dasharray:none;stroke-opacity:1" />
    <path
       sodipodi:nodetypes="cc"
       inkscape:connector-curvature="0"
       id="path1382"
       d="m 27.619215,55.175587 c 0,0 6.024225,19.764257 -21.502226,17.661542"
       style="fill:none;stroke:#000000;stroke-width:3.48901463;stroke-linecap:butt;stroke-linejoin:miter;stroke-miterlimit:4;stroke-dasharray:none;stroke-opacity:1" />
    <path
       sodipodi:nodetypes="csc"
       inkscape:connector-curvature="0"
       id="path1384"
       d="m 17.600363,111.75707 c -16.77584869,4.19828 -7.56963,17.46021 -6.073146,18.26995 2.278595,1.23294 5.015382,-6.9261 17.871485,-9.82136"
       style="fill:none;stroke:#000000;stroke-width:3.48901463;stroke-linecap:butt;stroke-linejoin:miter;stroke-miterlimit:4;stroke-dasharray:none;stroke-opacity:1" />
    <path
       inkscape:connector-curvature="0"
       id="path1386"
       d="m 12.711868,121.77303 c 0,0 1.433669,-4.49215 8.793172,-5.25677"
       style="fill:none;stroke:#000000;stroke-width:1.69466424;stroke-linecap:butt;stroke-linejoin:miter;stroke-miterlimit:4;stroke-dasharray:none;stroke-opacity:1" />
  </g>
  <g
     id="g1404"
     transform="matrix(0.83524198,0,0,0.83524198,1009.4711,57.599618)">
    <g
       transform="matrix(0.18082674,-0.04285281,0.04285281,0.18082674,-269.76508,0.50499454)"
       id="g1394">
      <g
         id="g1390" />
      <path
         inkscape:connector-curvature="0"
         d="m 350.67,417.372 -13.131,-83.165 c -3.064,-19.405 -12.977,-37.121 -27.913,-49.883 -8.801,-7.52 -19.033,-13.03 -29.969,-16.304 L 286.816,31.765 C 287.071,23.357 283.985,15.401 278.128,9.363 272.271,3.325 264.412,0 256,0 c -8.412,0 -16.271,3.325 -22.128,9.363 -5.857,6.038 -8.943,13.994 -8.688,22.401 l 3.887,128.269 c 0.125,4.141 3.604,7.389 7.724,7.27 4.14,-0.125 7.395,-3.583 7.27,-7.724 L 240.177,31.31 c -0.131,-4.317 1.453,-8.402 4.461,-11.502 C 247.645,16.708 251.681,15 256,15 c 4.319,0 8.355,1.708 11.362,4.808 3.008,3.1 4.592,7.185 4.461,11.502 l -5.124,169.093 H 245.3 l -0.265,-8.758 c -0.125,-4.141 -3.612,-7.404 -7.724,-7.27 -4.14,0.125 -7.395,3.583 -7.27,7.724 l 2.301,75.92 c -10.936,3.274 -21.169,8.784 -29.969,16.304 -14.936,12.763 -24.849,30.478 -27.913,49.883 l -13.131,83.165 c -18.739,3.106 -33.072,19.426 -33.072,39.032 v 16.032 c 0,4.142 3.358,7.5 7.5,7.5 h 81.399 C 220.673,498.176 236.749,512 256,512 c 19.251,0 35.327,-13.824 38.842,-32.064 h 81.399 c 4.142,0 7.5,-3.358 7.5,-7.5 v -16.032 c 0.001,-19.606 -14.332,-35.926 -33.071,-39.032 z M 245.755,215.403 h 20.49 l -1.503,49.613 c -2.894,-0.309 -5.809,-0.484 -8.741,-0.484 -2.932,0 -5.848,0.176 -8.741,0.484 z M 256,497 c -10.93,0 -20.211,-7.177 -23.389,-17.064 H 279.39 C 276.211,489.823 266.93,497 256,497 Z M 368.742,464.936 H 143.258 v -8.532 c 0,-13.545 11.02,-24.564 24.564,-24.564 h 112.226 c 4.142,0 7.5,-3.358 7.5,-7.5 0,-4.142 -3.358,-7.5 -7.5,-7.5 H 176.6 l 12.678,-80.292 c 2.507,-15.879 10.619,-30.376 22.841,-40.819 12.222,-10.443 27.806,-16.195 43.882,-16.195 16.076,0 31.66,5.751 43.882,16.195 12.222,10.444 20.333,24.94 22.841,40.819 l 12.678,80.293 h -23.287 c -4.142,0 -7.5,3.358 -7.5,7.5 0,4.142 3.358,7.5 7.5,7.5 h 32.064 c 13.545,0 24.564,11.02 24.564,24.564 v 8.531 z"
         id="path1392" />
    </g>
    <g
       transform="rotate(-21.823612,-197.32329,91.304803)"
       id="g1402">
      <path
         style="opacity:1;fill:none;fill-opacity:1;stroke:#000000;stroke-width:1.99372268;stroke-linecap:round;stroke-linejoin:miter;stroke-miterlimit:4;stroke-dasharray:none;stroke-dashoffset:0;stroke-opacity:1"
         d="m -187.61299,84.320442 c 0.0378,4.142961 -3.95073,7.538143 -8.90857,7.583349 -4.95785,0.0452 -9.00759,-3.276686 -9.04537,-7.419646"
         id="path1396"
         inkscape:connector-curvature="0"
         sodipodi:nodetypes="ccc" />
      <path
         sodipodi:nodetypes="ccc"
         inkscape:connector-curvature="0"
         id="path1398"
         d="m -183.57507,92.02906 c 6e-4,6.006494 -5.82579,10.87636 -13.01371,10.87713 -7.18793,7.2e-4 -13.01539,-4.867847 -13.01603,-10.874344"
         style="opacity:1;fill:none;fill-opacity:1;stroke:#000000;stroke-width:1.99372268;stroke-linecap:round;stroke-linejoin:miter;stroke-miterlimit:4;stroke-dasharray:none;stroke-dashoffset:0;stroke-opacity:1" />
      <path
         style="opacity:1;fill:none;fill-opacity:1;stroke:#000000;stroke-width:1.99372268;stroke-linecap:round;stroke-linejoin:miter;stroke-miterlimit:4;stroke-dasharray:none;stroke-dashoffset:0;stroke-opacity:1"
         d="m -179.04062,99.675531 c -0.057,8.099159 -7.96031,14.609529 -17.65249,14.541299 -9.69222,-0.0682 -17.50304,-6.68921 -17.44604,-14.788353"
         id="path1400"
         inkscape:connector-curvature="0"
         sodipodi:nodetypes="ccc" />
    </g>
  </g>
  <path
     style="fill:none;stroke:#000000;stroke-width:1.99372268;stroke-linecap:butt;stroke-linejoin:miter;stroke-miterlimit:4;stroke-dasharray:none;stroke-opacity:1"
     d="m 943.32691,175.18453 c 0,0 -6.23456,10.22868 0.0274,10.22868 6.26198,0 -0.0274,-10.22868 -0.0274,-10.22868 z"
     id="path1406"
     inkscape:connector-curvature="0"
     sodipodi:nodetypes="czc" />
  <path
     sodipodi:nodetypes="czc"
     inkscape:connector-curvature="0"
     id="path1408"
     d="m 943.5062,190.63038 c 0,0 -9.87634,16.20356 0.0435,16.20356 9.9198,0 -0.0435,-16.20356 -0.0435,-16.20356 z"
     style="fill:none;stroke:#000000;stroke-width:1.99372268;stroke-linecap:butt;stroke-linejoin:miter;stroke-miterlimit:4;stroke-dasharray:none;stroke-opacity:1" />
  <rect
     style="opacity:1;fill:none;fill-opacity:1;stroke:#000000;stroke-width:1.49529195;stroke-linecap:round;stroke-linejoin:miter;stroke-miterlimit:4;stroke-dasharray:none;stroke-dashoffset:0;stroke-opacity:1"
     id="rect1410"
     width="383.94629"
     height="253.95239"
     x="767.89258"
     y="0" />
  <g
     transform="translate(1314.1828,36.265246)"
     id="g1478">
    <circle
       style="fill:#000000;stroke-width:0.75122517"
       cx="94.887688"
       cy="56.229736"
       r="7.3469825"
       id="circle1456" />
    <circle
       id="circle1458"
       r="2.3769288"
       cy="82.991562"
       cx="60.097313"
       style="fill:#000000;stroke-width:0.24303976" />
    <g
       id="g1464"
       style="fill:#000000"
       transform="translate(-4.0189239e-8,0.76462362)">
      <circle
         id="circle1460"
         r="2.3769288"
         cy="93.696289"
         cx="52.833389"
         style="fill:#000000;stroke-width:0.24303976" />
      <circle
         style="fill:#000000;stroke-width:0.24303976"
         cx="67.361237"
         cy="93.696289"
         r="2.3769288"
         id="circle1462" />
    </g>
    <path
       style="fill:none;stroke:#000000;stroke-width:3.48901463;stroke-linecap:round;stroke-linejoin:miter;stroke-miterlimit:4;stroke-dasharray:none;stroke-opacity:1"
       d="m 187.61543,120.9119 c 3.75716,26.40607 8.10731,47.23664 8.10731,47.23664 0,0 -5.67704,23.51917 -105.701093,28.11487 0,0 1.967713,-66.41988 -0.811005,-69.47617 -2.778718,-3.05629 -24.870846,0.13517 -24.870846,0.13517 0,0 -52.593114,6.58247 -58.3924199,-44.470151 C 4.2456272,71.00413 5.6095218,60.747519 12.319181,58.824623 30.408343,53.640519 34.278007,59.278597 51.093367,51.634037 67.908727,43.989477 82.996018,7.6845653 107.05277,7.2990517 l 58.46199,-0.9368634 c 19.92927,-0.31937 17.23558,46.4696377 17.50222,71.2240357 0.10407,9.661681 1.16674,19.688236 3.1416,33.567946"
       id="path1466"
       inkscape:connector-curvature="0"
       sodipodi:nodetypes="ccczccszsssc" />
    <path
       style="fill:none;stroke:#000000;stroke-width:3.48901463;stroke-linecap:butt;stroke-linejoin:miter;stroke-miterlimit:4;stroke-dasharray:none;stroke-opacity:1"
       d="m 128.94992,7.5693869 c 0,0 -23.91293,126.3634531 53.57809,72.3477931"
       id="path1468"
       inkscape:connector-curvature="0"
       sodipodi:nodetypes="cc" />
    <path
       style="fill:none;stroke:#000000;stroke-width:3.48901463;stroke-linecap:butt;stroke-linejoin:miter;stroke-miterlimit:4;stroke-dasharray:none;stroke-opacity:1"
       d="m 90.654283,177.97919 c 2.342951,-0.58155 57.478047,1.99599 101.468977,-28.299"
       id="path1470"
       inkscape:connector-curvature="0"
       sodipodi:nodetypes="cc" />
    <path
       style="fill:none;stroke:#000000;stroke-width:3.48901463;stroke-linecap:butt;stroke-linejoin:miter;stroke-miterlimit:4;stroke-dasharray:none;stroke-opacity:1"
       d="m 27.619215,55.175587 c 0,0 6.024225,19.764257 -21.502226,17.661542"
       id="path1472"
       inkscape:connector-curvature="0"
       sodipodi:nodetypes="cc" />
    <path
       style="fill:none;stroke:#000000;stroke-width:3.48901463;stroke-linecap:butt;stroke-linejoin:miter;stroke-miterlimit:4;stroke-dasharray:none;stroke-opacity:1"
       d="m 17.600363,111.75707 c -16.77584869,4.19828 -7.56963,17.46021 -6.073146,18.26995 2.278595,1.23294 5.015382,-6.9261 17.871485,-9.82136"
       id="path1474"
       inkscape:connector-curvature="0"
       sodipodi:nodetypes="csc" />
    <path
       style="fill:none;stroke:#000000;stroke-width:1.69466424;stroke-linecap:butt;stroke-linejoin:miter;stroke-miterlimit:4;stroke-dasharray:none;stroke-opacity:1"
       d="m 12.711868,121.77303 c 0,0 1.433669,-4.49215 8.793172,-5.25677"
       id="path1476"
       inkscape:connector-curvature="0" />
  </g>
  <g
     transform="matrix(0.83524198,0,0,0.83524198,1393.4173,57.599618)"
     id="g1494">
    <g
       id="g1484"
       transform="matrix(0.18082674,-0.04285281,0.04285281,0.18082674,-269.76508,0.50499454)">
      <g
         id="g1480" />
      <path
         id="path1482"
         d="m 350.67,417.372 -13.131,-83.165 c -3.064,-19.405 -12.977,-37.121 -27.913,-49.883 -8.801,-7.52 -19.033,-13.03 -29.969,-16.304 L 286.816,31.765 C 287.071,23.357 283.985,15.401 278.128,9.363 272.271,3.325 264.412,0 256,0 c -8.412,0 -16.271,3.325 -22.128,9.363 -5.857,6.038 -8.943,13.994 -8.688,22.401 l 3.887,128.269 c 0.125,4.141 3.604,7.389 7.724,7.27 4.14,-0.125 7.395,-3.583 7.27,-7.724 L 240.177,31.31 c -0.131,-4.317 1.453,-8.402 4.461,-11.502 C 247.645,16.708 251.681,15 256,15 c 4.319,0 8.355,1.708 11.362,4.808 3.008,3.1 4.592,7.185 4.461,11.502 l -5.124,169.093 H 245.3 l -0.265,-8.758 c -0.125,-4.141 -3.612,-7.404 -7.724,-7.27 -4.14,0.125 -7.395,3.583 -7.27,7.724 l 2.301,75.92 c -10.936,3.274 -21.169,8.784 -29.969,16.304 -14.936,12.763 -24.849,30.478 -27.913,49.883 l -13.131,83.165 c -18.739,3.106 -33.072,19.426 -33.072,39.032 v 16.032 c 0,4.142 3.358,7.5 7.5,7.5 h 81.399 C 220.673,498.176 236.749,512 256,512 c 19.251,0 35.327,-13.824 38.842,-32.064 h 81.399 c 4.142,0 7.5,-3.358 7.5,-7.5 v -16.032 c 0.001,-19.606 -14.332,-35.926 -33.071,-39.032 z M 245.755,215.403 h 20.49 l -1.503,49.613 c -2.894,-0.309 -5.809,-0.484 -8.741,-0.484 -2.932,0 -5.848,0.176 -8.741,0.484 z M 256,497 c -10.93,0 -20.211,-7.177 -23.389,-17.064 H 279.39 C 276.211,489.823 266.93,497 256,497 Z M 368.742,464.936 H 143.258 v -8.532 c 0,-13.545 11.02,-24.564 24.564,-24.564 h 112.226 c 4.142,0 7.5,-3.358 7.5,-7.5 0,-4.142 -3.358,-7.5 -7.5,-7.5 H 176.6 l 12.678,-80.292 c 2.507,-15.879 10.619,-30.376 22.841,-40.819 12.222,-10.443 27.806,-16.195 43.882,-16.195 16.076,0 31.66,5.751 43.882,16.195 12.222,10.444 20.333,24.94 22.841,40.819 l 12.678,80.293 h -23.287 c -4.142,0 -7.5,3.358 -7.5,7.5 0,4.142 3.358,7.5 7.5,7.5 h 32.064 c 13.545,0 24.564,11.02 24.564,24.564 v 8.531 z"
         inkscape:connector-curvature="0" />
    </g>
    <g
       id="g1492"
       transform="rotate(-21.823612,-197.32329,91.304803)">
      <path
         sodipodi:nodetypes="ccc"
         inkscape:connector-curvature="0"
         id="path1486"
         d="m -187.61299,84.320442 c 0.0378,4.142961 -3.95073,7.538143 -8.90857,7.583349 -4.95785,0.0452 -9.00759,-3.276686 -9.04537,-7.419646"
         style="opacity:1;fill:none;fill-opacity:1;stroke:#000000;stroke-width:1.99372268;stroke-linecap:round;stroke-linejoin:miter;stroke-miterlimit:4;stroke-dasharray:none;stroke-dashoffset:0;stroke-opacity:1" />
      <path
         style="opacity:1;fill:none;fill-opacity:1;stroke:#000000;stroke-width:1.99372268;stroke-linecap:round;stroke-linejoin:miter;stroke-miterlimit:4;stroke-dasharray:none;stroke-dashoffset:0;stroke-opacity:1"
         d="m -183.57507,92.02906 c 6e-4,6.006494 -5.82579,10.87636 -13.01371,10.87713 -7.18793,7.2e-4 -13.01539,-4.867847 -13.01603,-10.874344"
         id="path1488"
         inkscape:connector-curvature="0"
         sodipodi:nodetypes="ccc" />
      <path
         sodipodi:nodetypes="ccc"
         inkscape:connector-curvature="0"
         id="path1490"
         d="m -179.04062,99.675531 c -0.057,8.099159 -7.96031,14.609529 -17.65249,14.541299 -9.69222,-0.0682 -17.50304,-6.68921 -17.44604,-14.788353"
         style="opacity:1;fill:none;fill-opacity:1;stroke:#000000;stroke-width:1.99372268;stroke-linecap:round;stroke-linejoin:miter;stroke-miterlimit:4;stroke-dasharray:none;stroke-dashoffset:0;stroke-opacity:1" />
    </g>
  </g>
  <path
     sodipodi:nodetypes="czc"
     inkscape:connector-curvature="0"
     id="path1496"
     d="m 1327.2731,175.18453 c 0,0 -6.2346,10.22868 0.027,10.22868 6.262,0 -0.027,-10.22868 -0.027,-10.22868 z"
     style="fill:none;stroke:#000000;stroke-width:1.99372268;stroke-linecap:butt;stroke-linejoin:miter;stroke-miterlimit:4;stroke-dasharray:none;stroke-opacity:1" />
  <path
     style="fill:none;stroke:#000000;stroke-width:1.99372268;stroke-linecap:butt;stroke-linejoin:miter;stroke-miterlimit:4;stroke-dasharray:none;stroke-opacity:1"
     d="m 1327.4524,190.63038 c 0,0 -9.8763,16.20356 0.043,16.20356 9.9198,0 -0.043,-16.20356 -0.043,-16.20356 z"
     id="path1498"
     inkscape:connector-curvature="0"
     sodipodi:nodetypes="czc" />
  <rect
     y="0"
     x="1151.8389"
     height="253.95239"
     width="383.94629"
     id="rect1500"
     style="opacity:1;fill:none;fill-opacity:1;stroke:#000000;stroke-width:1.49529195;stroke-linecap:round;stroke-linejoin:miter;stroke-miterlimit:4;stroke-dasharray:none;stroke-dashoffset:0;stroke-opacity:1" />
  <rect
     y="253.56369"
     x="-0.3887049"
     height="60.088402"
     width="384.14066"
     id="rect1502"
     style="opacity:1;fill:none;fill-opacity:1;stroke:#000000;stroke-width:1.49529195;stroke-linecap:round;stroke-linejoin:miter;stroke-miterlimit:4;stroke-dasharray:none;stroke-dashoffset:0;stroke-opacity:1" />
  <rect
     style="opacity:1;fill:none;fill-opacity:1;stroke:#000000;stroke-width:1.49529195;stroke-linecap:round;stroke-linejoin:miter;stroke-miterlimit:4;stroke-dasharray:none;stroke-dashoffset:0;stroke-opacity:1"
     id="rect1504"
     width="384.14066"
     height="60.088402"
     x="383.75192"
     y="253.56369" />
  <rect
     y="253.56369"
     x="767.89258"
     height="60.088402"
     width="384.14066"
     id="rect1506"
     style="opacity:1;fill:none;fill-opacity:1;stroke:#000000;stroke-width:1.49529195;stroke-linecap:round;stroke-linejoin:miter;stroke-miterlimit:4;stroke-dasharray:none;stroke-dashoffset:0;stroke-opacity:1" />
  <rect
     style="opacity:1;fill:none;fill-opacity:1;stroke:#000000;stroke-width:1.49529195;stroke-linecap:round;stroke-linejoin:miter;stroke-miterlimit:4;stroke-dasharray:none;stroke-dashoffset:0;stroke-opacity:1"
     id="rect1508"
     width="384.14066"
     height="60.088402"
     x="1152.0332"
     y="253.56369" />
  <text
     xml:space="preserve"
     style="font-style:normal;font-variant:normal;font-weight:normal;font-stretch:normal;font-size:33.22871017px;line-height:1.25;font-family:'CMU Serif';-inkscape-font-specification:'CMU Serif';letter-spacing:0px;word-spacing:0px;fill:#000000;fill-opacity:1;stroke:none;stroke-width:0.99686134"
     x="19.262503"
     y="295.99911"
     id="text1512"><tspan
       sodipodi:role="line"
       id="tspan1510"
       x="19.262503"
       y="295.99911"
       style="stroke-width:0.99686134">Unconditioned response</tspan></text>
  <text
     id="text1516"
     y="295.99911"
     x="398.56845"
     style="font-style:normal;font-variant:normal;font-weight:normal;font-stretch:normal;font-size:33.22871017px;line-height:1.25;font-family:'CMU Serif';-inkscape-font-specification:'CMU Serif';letter-spacing:0px;word-spacing:0px;fill:#000000;fill-opacity:1;stroke:none;stroke-width:0.99686134"
     xml:space="preserve"><tspan
       style="stroke-width:0.99686134"
       y="295.99911"
       x="398.56845"
       id="tspan1514"
       sodipodi:role="line">No conditioned response</tspan></text>
  <text
     id="text1520"
     y="295.99911"
     x="787.15509"
     style="font-style:normal;font-variant:normal;font-weight:normal;font-stretch:normal;font-size:33.22871017px;line-height:1.25;font-family:'CMU Serif';-inkscape-font-specification:'CMU Serif';letter-spacing:0px;word-spacing:0px;fill:#000000;fill-opacity:1;stroke:none;stroke-width:0.99686134"
     xml:space="preserve"><tspan
       style="stroke-width:0.99686134"
       y="295.99911"
       x="787.15509"
       id="tspan1518"
       sodipodi:role="line">Unconditioned response</tspan></text>
  <text
     xml:space="preserve"
     style="font-style:normal;font-variant:normal;font-weight:normal;font-stretch:normal;font-size:33.22871017px;line-height:1.25;font-family:'CMU Serif';-inkscape-font-specification:'CMU Serif';letter-spacing:0px;word-spacing:0px;fill:#000000;fill-opacity:1;stroke:none;stroke-width:0.99686134"
     x="1187.7555"
     y="295.99911"
     id="text1524"><tspan
       sodipodi:role="line"
       id="tspan1522"
       x="1187.7555"
       y="295.99911"
       style="stroke-width:0.99686134">Conditioned response</tspan></text>
  <text
     xml:space="preserve"
     style="font-style:normal;font-variant:normal;font-weight:normal;font-stretch:normal;font-size:25.00266647px;line-height:1.25;font-family:'CMU Serif';-inkscape-font-specification:'CMU Serif';letter-spacing:0px;word-spacing:0px;fill:#000000;fill-opacity:1;stroke:none;stroke-width:0.75007999"
     x="30.061913"
     y="155.93602"
     id="text1528"><tspan
       sodipodi:role="line"
       id="tspan1526"
       x="30.061913"
       y="155.93602"
       style="stroke-width:0.75007999">Stimulus</tspan></text>
  <text
     id="text1532"
     y="37.832802"
     x="94.867058"
     style="font-style:normal;font-variant:normal;font-weight:normal;font-stretch:normal;font-size:25.00266647px;line-height:1.25;font-family:'CMU Serif';-inkscape-font-specification:'CMU Serif';letter-spacing:0px;word-spacing:0px;fill:#000000;fill-opacity:1;stroke:none;stroke-width:0.75007999"
     xml:space="preserve"><tspan
       style="stroke-width:0.75007999"
       y="37.832802"
       x="94.867058"
       id="tspan1530"
       sodipodi:role="line">Response</tspan></text>
  <path
     style="fill:none;stroke:#000000;stroke-width:0.99686134px;stroke-linecap:butt;stroke-linejoin:miter;stroke-opacity:1;marker-end:url(#marker1918)"
     d="m 145.07108,46.781476 -0.76462,77.226984 20.64484,58.11139"
     id="path1534"
     inkscape:connector-curvature="0" />
  <text
     id="text1820"
     y="184.30997"
     x="456.84515"
     style="font-style:normal;font-variant:normal;font-weight:normal;font-stretch:normal;font-size:25.00266647px;line-height:1;font-family:'CMU Serif';-inkscape-font-specification:'CMU Serif';text-align:center;letter-spacing:0px;word-spacing:0px;text-anchor:middle;fill:#000000;fill-opacity:1;stroke:none;stroke-width:0.75007999"
     xml:space="preserve"><tspan
       style="line-height:1;text-align:center;text-anchor:middle;stroke-width:0.75007999"
       y="184.30997"
       x="456.84515"
       sodipodi:role="line"
       id="tspan1840">Neutral</tspan><tspan
       style="line-height:1;text-align:center;text-anchor:middle;stroke-width:0.75007999"
       y="209.31264"
       x="456.84515"
       sodipodi:role="line"
       id="tspan1844">Stimulus</tspan></text>
  <text
     xml:space="preserve"
     style="font-style:normal;font-variant:normal;font-weight:normal;font-stretch:normal;font-size:25.00266647px;line-height:1.25;font-family:'CMU Serif';-inkscape-font-specification:'CMU Serif';letter-spacing:0px;word-spacing:0px;fill:#000000;fill-opacity:1;stroke:none;stroke-width:0.75007999"
     x="462.75842"
     y="37.832802"
     id="text1836"><tspan
       sodipodi:role="line"
       id="tspan1834"
       x="462.75842"
       y="37.832802"
       style="stroke-width:0.75007999">No response</tspan></text>
  <path
     inkscape:connector-curvature="0"
     id="path1838"
     d="m 528.91215,46.781476 -0.76462,77.226984 20.64484,58.11139"
     style="fill:none;stroke:#000000;stroke-width:0.99686134px;stroke-linecap:butt;stroke-linejoin:miter;stroke-opacity:1;marker-end:url(#Arrow1Lend)" />
  <text
     xml:space="preserve"
     style="font-style:normal;font-variant:normal;font-weight:normal;font-stretch:normal;font-size:25.00266647px;line-height:1.25;font-family:'CMU Serif';-inkscape-font-specification:'CMU Serif';letter-spacing:0px;word-spacing:0px;fill:#000000;fill-opacity:1;stroke:none;stroke-width:0.75007999"
     x="1246.7059"
     y="37.832802"
     id="text2006"><tspan
       sodipodi:role="line"
       id="tspan2004"
       x="1246.7059"
       y="37.832802"
       style="stroke-width:0.75007999">Response</tspan></text>
  <path
     inkscape:connector-curvature="0"
     id="path2008"
     d="m 1296.9098,46.781476 -0.7646,77.226984 20.6449,58.11139"
     style="fill:none;stroke:#000000;stroke-width:0.99686134px;stroke-linecap:butt;stroke-linejoin:miter;stroke-opacity:1;marker-end:url(#marker1918)" />
  <text
     xml:space="preserve"
     style="font-style:normal;font-variant:normal;font-weight:normal;font-stretch:normal;font-size:25.00266647px;line-height:1;font-family:'CMU Serif';-inkscape-font-specification:'CMU Serif';text-align:center;letter-spacing:0px;word-spacing:0px;text-anchor:middle;fill:#000000;fill-opacity:1;stroke:none;stroke-width:0.75007999"
     x="1224.7379"
     y="184.30997"
     id="text2030"><tspan
       id="tspan2026"
       sodipodi:role="line"
       x="1224.7379"
       y="184.30997"
       style="line-height:1;text-align:center;text-anchor:middle;stroke-width:0.75007999">Conditional</tspan><tspan
       id="tspan2028"
       sodipodi:role="line"
       x="1224.7379"
       y="209.31264"
       style="line-height:1;text-align:center;text-anchor:middle;stroke-width:0.75007999">Stimulus</tspan></text>
</svg>
