<svg id="Capa_1" enable-background="new 0 0 512 512" height="512" viewBox="0 0 512 512" width="512" xmlns="http://www.w3.org/2000/svg"><g><g><path d="m256 7.5c-13.162 0-23.719 10.881-23.32 24.037l7.288 248.511h32.065l7.288-248.511c.398-13.156-10.159-24.037-23.321-24.037z" fill="#ffd064"/><circle cx="256" cy="472.435" fill="#ffd064" r="32.065"/><path d="m344.177 424.339-14.047-88.962c-5.76-36.478-37.201-63.344-74.131-63.344-36.93 0-68.371 26.866-74.131 63.344l-14.047 88.962c-17.709 0-32.064 14.356-32.064 32.064v16.032h240.484v-16.032c.001-17.709-14.355-32.064-32.064-32.064z" fill="#ffe07d"/><path d="m256 7.5c-13.162 0-23.719 10.881-23.32 24.037l12.653 176.366h28.815l5.172-176.366c.399-13.156-10.158-24.037-23.32-24.037z" fill="#d19a6e"/><path d="m206.447 426.276c5.72-2.454 9.991-7.379 10.58-13.575l13.676-136.244c-25.205 9.034-44.454 31.179-48.834 58.92l-14.047 88.962c-17.709 0-32.065 14.356-32.065 32.065v16.032h240.484v-16.032c0-2.788-.468-5.445-1.136-8.024-31.865-.03-137.476-.138-172.12-.173-6.795-.007-10.814-7.628-7.012-13.259 2.572-3.809 6.205-6.841 10.474-8.672z" fill="#ffd064"/><path d="m256 7.5c-13.162 0-23.719 10.881-23.32 24.037l5.173 176.366h18.147z" fill="#c38c66"/></g><path d="m350.67 417.372-13.131-83.165c-3.064-19.405-12.977-37.121-27.913-49.883-8.801-7.52-19.033-13.03-29.969-16.304l7.159-236.255c.255-8.408-2.831-16.364-8.688-22.402-5.857-6.038-13.716-9.363-22.128-9.363s-16.271 3.325-22.128 9.363-8.943 13.994-8.688 22.401l3.887 128.269c.125 4.141 3.604 7.389 7.724 7.27 4.14-.125 7.395-3.583 7.27-7.724l-3.888-128.269c-.131-4.317 1.453-8.402 4.461-11.502 3.007-3.1 7.043-4.808 11.362-4.808s8.355 1.708 11.362 4.808c3.008 3.1 4.592 7.185 4.461 11.502l-5.124 169.093h-21.399l-.265-8.758c-.125-4.141-3.612-7.404-7.724-7.27-4.14.125-7.395 3.583-7.27 7.724l2.301 75.92c-10.936 3.274-21.169 8.784-29.969 16.304-14.936 12.763-24.849 30.478-27.913 49.883l-13.131 83.165c-18.739 3.106-33.072 19.426-33.072 39.032v16.032c0 4.142 3.358 7.5 7.5 7.5h81.399c3.517 18.241 19.593 32.065 38.844 32.065s35.327-13.824 38.842-32.064h81.399c4.142 0 7.5-3.358 7.5-7.5v-16.032c.001-19.606-14.332-35.926-33.071-39.032zm-104.915-201.969h20.49l-1.503 49.613c-2.894-.309-5.809-.484-8.741-.484s-5.848.176-8.741.484zm10.245 281.597c-10.93 0-20.211-7.177-23.389-17.064h46.779c-3.179 9.887-12.46 17.064-23.39 17.064zm112.742-32.064h-225.484v-8.532c0-13.545 11.02-24.564 24.564-24.564h112.226c4.142 0 7.5-3.358 7.5-7.5s-3.358-7.5-7.5-7.5h-103.448l12.678-80.292c2.507-15.879 10.619-30.376 22.841-40.819s27.806-16.195 43.882-16.195 31.66 5.751 43.882 16.195 20.333 24.94 22.841 40.819l12.678 80.293h-23.287c-4.142 0-7.5 3.358-7.5 7.5s3.358 7.5 7.5 7.5h32.064c13.545 0 24.564 11.02 24.564 24.564v8.531z"/></g></svg>