<?xml version="1.0" encoding="utf-8" standalone="no"?>
<!DOCTYPE svg PUBLIC "-//W3C//DTD SVG 1.1//EN"
  "http://www.w3.org/Graphics/SVG/1.1/DTD/svg11.dtd">
<!-- Created with matplotlib (https://matplotlib.org/) -->
<svg height="645.451625pt" version="1.1" viewBox="0 0 585.7625 645.451625" width="585.7625pt" xmlns="http://www.w3.org/2000/svg" xmlns:xlink="http://www.w3.org/1999/xlink">
 <metadata>
  <rdf:RDF xmlns:cc="http://creativecommons.org/ns#" xmlns:dc="http://purl.org/dc/elements/1.1/" xmlns:rdf="http://www.w3.org/1999/02/22-rdf-syntax-ns#">
   <cc:Work>
    <dc:type rdf:resource="http://purl.org/dc/dcmitype/StillImage"/>
    <dc:date>2021-01-10T12:13:49.565438</dc:date>
    <dc:format>image/svg+xml</dc:format>
    <dc:creator>
     <cc:Agent>
      <dc:title>Matplotlib v3.3.2, https://matplotlib.org/</dc:title>
     </cc:Agent>
    </dc:creator>
   </cc:Work>
  </rdf:RDF>
 </metadata>
 <defs>
  <style type="text/css">*{stroke-linecap:butt;stroke-linejoin:round;}</style>
 </defs>
 <g id="figure_1">
  <g id="patch_1">
   <path d="M 0 645.451625 
L 585.7625 645.451625 
L 585.7625 0 
L 0 0 
z
" style="fill:none;"/>
  </g>
  <g id="axes_1">
   <g id="patch_2">
    <path d="M 20.5625 582.9575 
L 578.5625 582.9575 
L 578.5625 39.3575 
L 20.5625 39.3575 
z
" style="fill:#ffffff;"/>
   </g>
   <g id="patch_3">
    <path clip-path="url(#p54822009e5)" d="M 103.417045 582.9575 
L 176.126136 582.9575 
L 176.126136 39.3575 
L 103.417045 39.3575 
z
" style="fill:#1f77b4;opacity:0.2;"/>
   </g>
   <g id="matplotlib.axis_1">
    <g id="xtick_1">
     <g id="line2d_1">
      <defs>
       <path d="M 0 0 
L 0 3.5 
" id="mb2c1a92dd0" style="stroke:#000000;stroke-width:0.8;"/>
      </defs>
      <g>
       <use style="stroke:#000000;stroke-width:0.8;" x="45.926136" xlink:href="#mb2c1a92dd0" y="582.9575"/>
      </g>
     </g>
     <g id="text_1">
      <!-- 0 -->
      <g transform="translate(42.744886 597.555938)scale(0.1 -0.1)">
       <defs>
        <path d="M 31.78125 66.40625 
Q 24.171875 66.40625 20.328125 58.90625 
Q 16.5 51.421875 16.5 36.375 
Q 16.5 21.390625 20.328125 13.890625 
Q 24.171875 6.390625 31.78125 6.390625 
Q 39.453125 6.390625 43.28125 13.890625 
Q 47.125 21.390625 47.125 36.375 
Q 47.125 51.421875 43.28125 58.90625 
Q 39.453125 66.40625 31.78125 66.40625 
z
M 31.78125 74.21875 
Q 44.046875 74.21875 50.515625 64.515625 
Q 56.984375 54.828125 56.984375 36.375 
Q 56.984375 17.96875 50.515625 8.265625 
Q 44.046875 -1.421875 31.78125 -1.421875 
Q 19.53125 -1.421875 13.0625 8.265625 
Q 6.59375 17.96875 6.59375 36.375 
Q 6.59375 54.828125 13.0625 64.515625 
Q 19.53125 74.21875 31.78125 74.21875 
z
" id="DejaVuSans-48"/>
       </defs>
       <use xlink:href="#DejaVuSans-48"/>
      </g>
     </g>
    </g>
    <g id="xtick_2">
     <g id="line2d_2">
      <g>
       <use style="stroke:#000000;stroke-width:0.8;" x="130.471591" xlink:href="#mb2c1a92dd0" y="582.9575"/>
      </g>
     </g>
     <g id="text_2">
      <!-- 50 -->
      <g transform="translate(124.109091 597.555938)scale(0.1 -0.1)">
       <defs>
        <path d="M 10.796875 72.90625 
L 49.515625 72.90625 
L 49.515625 64.59375 
L 19.828125 64.59375 
L 19.828125 46.734375 
Q 21.96875 47.46875 24.109375 47.828125 
Q 26.265625 48.1875 28.421875 48.1875 
Q 40.625 48.1875 47.75 41.5 
Q 54.890625 34.8125 54.890625 23.390625 
Q 54.890625 11.625 47.5625 5.09375 
Q 40.234375 -1.421875 26.90625 -1.421875 
Q 22.3125 -1.421875 17.546875 -0.640625 
Q 12.796875 0.140625 7.71875 1.703125 
L 7.71875 11.625 
Q 12.109375 9.234375 16.796875 8.0625 
Q 21.484375 6.890625 26.703125 6.890625 
Q 35.15625 6.890625 40.078125 11.328125 
Q 45.015625 15.765625 45.015625 23.390625 
Q 45.015625 31 40.078125 35.4375 
Q 35.15625 39.890625 26.703125 39.890625 
Q 22.75 39.890625 18.8125 39.015625 
Q 14.890625 38.140625 10.796875 36.28125 
z
" id="DejaVuSans-53"/>
       </defs>
       <use xlink:href="#DejaVuSans-53"/>
       <use x="63.623047" xlink:href="#DejaVuSans-48"/>
      </g>
     </g>
    </g>
    <g id="xtick_3">
     <g id="line2d_3">
      <g>
       <use style="stroke:#000000;stroke-width:0.8;" x="215.017045" xlink:href="#mb2c1a92dd0" y="582.9575"/>
      </g>
     </g>
     <g id="text_3">
      <!-- 100 -->
      <g transform="translate(205.473295 597.555938)scale(0.1 -0.1)">
       <defs>
        <path d="M 12.40625 8.296875 
L 28.515625 8.296875 
L 28.515625 63.921875 
L 10.984375 60.40625 
L 10.984375 69.390625 
L 28.421875 72.90625 
L 38.28125 72.90625 
L 38.28125 8.296875 
L 54.390625 8.296875 
L 54.390625 0 
L 12.40625 0 
z
" id="DejaVuSans-49"/>
       </defs>
       <use xlink:href="#DejaVuSans-49"/>
       <use x="63.623047" xlink:href="#DejaVuSans-48"/>
       <use x="127.246094" xlink:href="#DejaVuSans-48"/>
      </g>
     </g>
    </g>
    <g id="xtick_4">
     <g id="line2d_4">
      <g>
       <use style="stroke:#000000;stroke-width:0.8;" x="299.5625" xlink:href="#mb2c1a92dd0" y="582.9575"/>
      </g>
     </g>
     <g id="text_4">
      <!-- 150 -->
      <g transform="translate(290.01875 597.555938)scale(0.1 -0.1)">
       <use xlink:href="#DejaVuSans-49"/>
       <use x="63.623047" xlink:href="#DejaVuSans-53"/>
       <use x="127.246094" xlink:href="#DejaVuSans-48"/>
      </g>
     </g>
    </g>
    <g id="xtick_5">
     <g id="line2d_5">
      <g>
       <use style="stroke:#000000;stroke-width:0.8;" x="384.107955" xlink:href="#mb2c1a92dd0" y="582.9575"/>
      </g>
     </g>
     <g id="text_5">
      <!-- 200 -->
      <g transform="translate(374.564205 597.555938)scale(0.1 -0.1)">
       <defs>
        <path d="M 19.1875 8.296875 
L 53.609375 8.296875 
L 53.609375 0 
L 7.328125 0 
L 7.328125 8.296875 
Q 12.9375 14.109375 22.625 23.890625 
Q 32.328125 33.6875 34.8125 36.53125 
Q 39.546875 41.84375 41.421875 45.53125 
Q 43.3125 49.21875 43.3125 52.78125 
Q 43.3125 58.59375 39.234375 62.25 
Q 35.15625 65.921875 28.609375 65.921875 
Q 23.96875 65.921875 18.8125 64.3125 
Q 13.671875 62.703125 7.8125 59.421875 
L 7.8125 69.390625 
Q 13.765625 71.78125 18.9375 73 
Q 24.125 74.21875 28.421875 74.21875 
Q 39.75 74.21875 46.484375 68.546875 
Q 53.21875 62.890625 53.21875 53.421875 
Q 53.21875 48.921875 51.53125 44.890625 
Q 49.859375 40.875 45.40625 35.40625 
Q 44.1875 33.984375 37.640625 27.21875 
Q 31.109375 20.453125 19.1875 8.296875 
z
" id="DejaVuSans-50"/>
       </defs>
       <use xlink:href="#DejaVuSans-50"/>
       <use x="63.623047" xlink:href="#DejaVuSans-48"/>
       <use x="127.246094" xlink:href="#DejaVuSans-48"/>
      </g>
     </g>
    </g>
    <g id="xtick_6">
     <g id="line2d_6">
      <g>
       <use style="stroke:#000000;stroke-width:0.8;" x="468.653409" xlink:href="#mb2c1a92dd0" y="582.9575"/>
      </g>
     </g>
     <g id="text_6">
      <!-- 250 -->
      <g transform="translate(459.109659 597.555938)scale(0.1 -0.1)">
       <use xlink:href="#DejaVuSans-50"/>
       <use x="63.623047" xlink:href="#DejaVuSans-53"/>
       <use x="127.246094" xlink:href="#DejaVuSans-48"/>
      </g>
     </g>
    </g>
    <g id="xtick_7">
     <g id="line2d_7">
      <g>
       <use style="stroke:#000000;stroke-width:0.8;" x="553.198864" xlink:href="#mb2c1a92dd0" y="582.9575"/>
      </g>
     </g>
     <g id="text_7">
      <!-- 300 -->
      <g transform="translate(543.655114 597.555938)scale(0.1 -0.1)">
       <defs>
        <path d="M 40.578125 39.3125 
Q 47.65625 37.796875 51.625 33 
Q 55.609375 28.21875 55.609375 21.1875 
Q 55.609375 10.40625 48.1875 4.484375 
Q 40.765625 -1.421875 27.09375 -1.421875 
Q 22.515625 -1.421875 17.65625 -0.515625 
Q 12.796875 0.390625 7.625 2.203125 
L 7.625 11.71875 
Q 11.71875 9.328125 16.59375 8.109375 
Q 21.484375 6.890625 26.8125 6.890625 
Q 36.078125 6.890625 40.9375 10.546875 
Q 45.796875 14.203125 45.796875 21.1875 
Q 45.796875 27.640625 41.28125 31.265625 
Q 36.765625 34.90625 28.71875 34.90625 
L 20.21875 34.90625 
L 20.21875 43.015625 
L 29.109375 43.015625 
Q 36.375 43.015625 40.234375 45.921875 
Q 44.09375 48.828125 44.09375 54.296875 
Q 44.09375 59.90625 40.109375 62.90625 
Q 36.140625 65.921875 28.71875 65.921875 
Q 24.65625 65.921875 20.015625 65.03125 
Q 15.375 64.15625 9.8125 62.3125 
L 9.8125 71.09375 
Q 15.4375 72.65625 20.34375 73.4375 
Q 25.25 74.21875 29.59375 74.21875 
Q 40.828125 74.21875 47.359375 69.109375 
Q 53.90625 64.015625 53.90625 55.328125 
Q 53.90625 49.265625 50.4375 45.09375 
Q 46.96875 40.921875 40.578125 39.3125 
z
" id="DejaVuSans-51"/>
       </defs>
       <use xlink:href="#DejaVuSans-51"/>
       <use x="63.623047" xlink:href="#DejaVuSans-48"/>
       <use x="127.246094" xlink:href="#DejaVuSans-48"/>
      </g>
     </g>
    </g>
    <g id="text_8">
     <!-- Epochs -->
     <g transform="translate(281.646875 611.234063)scale(0.1 -0.1)">
      <defs>
       <path d="M 9.8125 72.90625 
L 55.90625 72.90625 
L 55.90625 64.59375 
L 19.671875 64.59375 
L 19.671875 43.015625 
L 54.390625 43.015625 
L 54.390625 34.71875 
L 19.671875 34.71875 
L 19.671875 8.296875 
L 56.78125 8.296875 
L 56.78125 0 
L 9.8125 0 
z
" id="DejaVuSans-69"/>
       <path d="M 18.109375 8.203125 
L 18.109375 -20.796875 
L 9.078125 -20.796875 
L 9.078125 54.6875 
L 18.109375 54.6875 
L 18.109375 46.390625 
Q 20.953125 51.265625 25.265625 53.625 
Q 29.59375 56 35.59375 56 
Q 45.5625 56 51.78125 48.09375 
Q 58.015625 40.1875 58.015625 27.296875 
Q 58.015625 14.40625 51.78125 6.484375 
Q 45.5625 -1.421875 35.59375 -1.421875 
Q 29.59375 -1.421875 25.265625 0.953125 
Q 20.953125 3.328125 18.109375 8.203125 
z
M 48.6875 27.296875 
Q 48.6875 37.203125 44.609375 42.84375 
Q 40.53125 48.484375 33.40625 48.484375 
Q 26.265625 48.484375 22.1875 42.84375 
Q 18.109375 37.203125 18.109375 27.296875 
Q 18.109375 17.390625 22.1875 11.75 
Q 26.265625 6.109375 33.40625 6.109375 
Q 40.53125 6.109375 44.609375 11.75 
Q 48.6875 17.390625 48.6875 27.296875 
z
" id="DejaVuSans-112"/>
       <path d="M 30.609375 48.390625 
Q 23.390625 48.390625 19.1875 42.75 
Q 14.984375 37.109375 14.984375 27.296875 
Q 14.984375 17.484375 19.15625 11.84375 
Q 23.34375 6.203125 30.609375 6.203125 
Q 37.796875 6.203125 41.984375 11.859375 
Q 46.1875 17.53125 46.1875 27.296875 
Q 46.1875 37.015625 41.984375 42.703125 
Q 37.796875 48.390625 30.609375 48.390625 
z
M 30.609375 56 
Q 42.328125 56 49.015625 48.375 
Q 55.71875 40.765625 55.71875 27.296875 
Q 55.71875 13.875 49.015625 6.21875 
Q 42.328125 -1.421875 30.609375 -1.421875 
Q 18.84375 -1.421875 12.171875 6.21875 
Q 5.515625 13.875 5.515625 27.296875 
Q 5.515625 40.765625 12.171875 48.375 
Q 18.84375 56 30.609375 56 
z
" id="DejaVuSans-111"/>
       <path d="M 48.78125 52.59375 
L 48.78125 44.1875 
Q 44.96875 46.296875 41.140625 47.34375 
Q 37.3125 48.390625 33.40625 48.390625 
Q 24.65625 48.390625 19.8125 42.84375 
Q 14.984375 37.3125 14.984375 27.296875 
Q 14.984375 17.28125 19.8125 11.734375 
Q 24.65625 6.203125 33.40625 6.203125 
Q 37.3125 6.203125 41.140625 7.25 
Q 44.96875 8.296875 48.78125 10.40625 
L 48.78125 2.09375 
Q 45.015625 0.34375 40.984375 -0.53125 
Q 36.96875 -1.421875 32.421875 -1.421875 
Q 20.0625 -1.421875 12.78125 6.34375 
Q 5.515625 14.109375 5.515625 27.296875 
Q 5.515625 40.671875 12.859375 48.328125 
Q 20.21875 56 33.015625 56 
Q 37.15625 56 41.109375 55.140625 
Q 45.0625 54.296875 48.78125 52.59375 
z
" id="DejaVuSans-99"/>
       <path d="M 54.890625 33.015625 
L 54.890625 0 
L 45.90625 0 
L 45.90625 32.71875 
Q 45.90625 40.484375 42.875 44.328125 
Q 39.84375 48.1875 33.796875 48.1875 
Q 26.515625 48.1875 22.3125 43.546875 
Q 18.109375 38.921875 18.109375 30.90625 
L 18.109375 0 
L 9.078125 0 
L 9.078125 75.984375 
L 18.109375 75.984375 
L 18.109375 46.1875 
Q 21.34375 51.125 25.703125 53.5625 
Q 30.078125 56 35.796875 56 
Q 45.21875 56 50.046875 50.171875 
Q 54.890625 44.34375 54.890625 33.015625 
z
" id="DejaVuSans-104"/>
       <path d="M 44.28125 53.078125 
L 44.28125 44.578125 
Q 40.484375 46.53125 36.375 47.5 
Q 32.28125 48.484375 27.875 48.484375 
Q 21.1875 48.484375 17.84375 46.4375 
Q 14.5 44.390625 14.5 40.28125 
Q 14.5 37.15625 16.890625 35.375 
Q 19.28125 33.59375 26.515625 31.984375 
L 29.59375 31.296875 
Q 39.15625 29.25 43.1875 25.515625 
Q 47.21875 21.78125 47.21875 15.09375 
Q 47.21875 7.46875 41.1875 3.015625 
Q 35.15625 -1.421875 24.609375 -1.421875 
Q 20.21875 -1.421875 15.453125 -0.5625 
Q 10.6875 0.296875 5.421875 2 
L 5.421875 11.28125 
Q 10.40625 8.6875 15.234375 7.390625 
Q 20.0625 6.109375 24.8125 6.109375 
Q 31.15625 6.109375 34.5625 8.28125 
Q 37.984375 10.453125 37.984375 14.40625 
Q 37.984375 18.0625 35.515625 20.015625 
Q 33.0625 21.96875 24.703125 23.78125 
L 21.578125 24.515625 
Q 13.234375 26.265625 9.515625 29.90625 
Q 5.8125 33.546875 5.8125 39.890625 
Q 5.8125 47.609375 11.28125 51.796875 
Q 16.75 56 26.8125 56 
Q 31.78125 56 36.171875 55.265625 
Q 40.578125 54.546875 44.28125 53.078125 
z
" id="DejaVuSans-115"/>
      </defs>
      <use xlink:href="#DejaVuSans-69"/>
      <use x="63.183594" xlink:href="#DejaVuSans-112"/>
      <use x="126.660156" xlink:href="#DejaVuSans-111"/>
      <use x="187.841797" xlink:href="#DejaVuSans-99"/>
      <use x="242.822266" xlink:href="#DejaVuSans-104"/>
      <use x="306.201172" xlink:href="#DejaVuSans-115"/>
     </g>
    </g>
   </g>
   <g id="matplotlib.axis_2">
    <g id="ytick_1">
     <g id="line2d_8">
      <defs>
       <path d="M 0 0 
L -3.5 0 
" id="mc4acf1ebb3" style="stroke:#000000;stroke-width:0.8;"/>
      </defs>
      <g>
       <use style="stroke:#000000;stroke-width:0.8;" x="20.5625" xlink:href="#mc4acf1ebb3" y="533.042532"/>
      </g>
     </g>
     <g id="text_9">
      <!-- 0 -->
      <g transform="translate(7.2 536.841751)scale(0.1 -0.1)">
       <use xlink:href="#DejaVuSans-48"/>
      </g>
     </g>
    </g>
    <g id="ytick_2">
     <g id="line2d_9">
      <g>
       <use style="stroke:#000000;stroke-width:0.8;" x="20.5625" xlink:href="#mc4acf1ebb3" y="471.353223"/>
      </g>
     </g>
     <g id="text_10">
      <!-- 1 -->
      <g transform="translate(7.2 475.152441)scale(0.1 -0.1)">
       <use xlink:href="#DejaVuSans-49"/>
      </g>
     </g>
    </g>
    <g id="ytick_3">
     <g id="line2d_10">
      <g>
       <use style="stroke:#000000;stroke-width:0.8;" x="20.5625" xlink:href="#mc4acf1ebb3" y="409.663913"/>
      </g>
     </g>
     <g id="text_11">
      <!-- 2 -->
      <g transform="translate(7.2 413.463132)scale(0.1 -0.1)">
       <use xlink:href="#DejaVuSans-50"/>
      </g>
     </g>
    </g>
    <g id="ytick_4">
     <g id="line2d_11">
      <g>
       <use style="stroke:#000000;stroke-width:0.8;" x="20.5625" xlink:href="#mc4acf1ebb3" y="347.974604"/>
      </g>
     </g>
     <g id="text_12">
      <!-- 3 -->
      <g transform="translate(7.2 351.773822)scale(0.1 -0.1)">
       <use xlink:href="#DejaVuSans-51"/>
      </g>
     </g>
    </g>
    <g id="ytick_5">
     <g id="line2d_12">
      <g>
       <use style="stroke:#000000;stroke-width:0.8;" x="20.5625" xlink:href="#mc4acf1ebb3" y="286.285294"/>
      </g>
     </g>
     <g id="text_13">
      <!-- 4 -->
      <g transform="translate(7.2 290.084513)scale(0.1 -0.1)">
       <defs>
        <path d="M 37.796875 64.3125 
L 12.890625 25.390625 
L 37.796875 25.390625 
z
M 35.203125 72.90625 
L 47.609375 72.90625 
L 47.609375 25.390625 
L 58.015625 25.390625 
L 58.015625 17.1875 
L 47.609375 17.1875 
L 47.609375 0 
L 37.796875 0 
L 37.796875 17.1875 
L 4.890625 17.1875 
L 4.890625 26.703125 
z
" id="DejaVuSans-52"/>
       </defs>
       <use xlink:href="#DejaVuSans-52"/>
      </g>
     </g>
    </g>
    <g id="ytick_6">
     <g id="line2d_13">
      <g>
       <use style="stroke:#000000;stroke-width:0.8;" x="20.5625" xlink:href="#mc4acf1ebb3" y="224.595985"/>
      </g>
     </g>
     <g id="text_14">
      <!-- 5 -->
      <g transform="translate(7.2 228.395203)scale(0.1 -0.1)">
       <use xlink:href="#DejaVuSans-53"/>
      </g>
     </g>
    </g>
    <g id="ytick_7">
     <g id="line2d_14">
      <g>
       <use style="stroke:#000000;stroke-width:0.8;" x="20.5625" xlink:href="#mc4acf1ebb3" y="162.906675"/>
      </g>
     </g>
     <g id="text_15">
      <!-- 6 -->
      <g transform="translate(7.2 166.705894)scale(0.1 -0.1)">
       <defs>
        <path d="M 33.015625 40.375 
Q 26.375 40.375 22.484375 35.828125 
Q 18.609375 31.296875 18.609375 23.390625 
Q 18.609375 15.53125 22.484375 10.953125 
Q 26.375 6.390625 33.015625 6.390625 
Q 39.65625 6.390625 43.53125 10.953125 
Q 47.40625 15.53125 47.40625 23.390625 
Q 47.40625 31.296875 43.53125 35.828125 
Q 39.65625 40.375 33.015625 40.375 
z
M 52.59375 71.296875 
L 52.59375 62.3125 
Q 48.875 64.0625 45.09375 64.984375 
Q 41.3125 65.921875 37.59375 65.921875 
Q 27.828125 65.921875 22.671875 59.328125 
Q 17.53125 52.734375 16.796875 39.40625 
Q 19.671875 43.65625 24.015625 45.921875 
Q 28.375 48.1875 33.59375 48.1875 
Q 44.578125 48.1875 50.953125 41.515625 
Q 57.328125 34.859375 57.328125 23.390625 
Q 57.328125 12.15625 50.6875 5.359375 
Q 44.046875 -1.421875 33.015625 -1.421875 
Q 20.359375 -1.421875 13.671875 8.265625 
Q 6.984375 17.96875 6.984375 36.375 
Q 6.984375 53.65625 15.1875 63.9375 
Q 23.390625 74.21875 37.203125 74.21875 
Q 40.921875 74.21875 44.703125 73.484375 
Q 48.484375 72.75 52.59375 71.296875 
z
" id="DejaVuSans-54"/>
       </defs>
       <use xlink:href="#DejaVuSans-54"/>
      </g>
     </g>
    </g>
    <g id="ytick_8">
     <g id="line2d_15">
      <g>
       <use style="stroke:#000000;stroke-width:0.8;" x="20.5625" xlink:href="#mc4acf1ebb3" y="101.217366"/>
      </g>
     </g>
     <g id="text_16">
      <!-- 7 -->
      <g transform="translate(7.2 105.016585)scale(0.1 -0.1)">
       <defs>
        <path d="M 8.203125 72.90625 
L 55.078125 72.90625 
L 55.078125 68.703125 
L 28.609375 0 
L 18.3125 0 
L 43.21875 64.59375 
L 8.203125 64.59375 
z
" id="DejaVuSans-55"/>
       </defs>
       <use xlink:href="#DejaVuSans-55"/>
      </g>
     </g>
    </g>
    <g id="ytick_9">
     <g id="line2d_16">
      <g>
       <use style="stroke:#000000;stroke-width:0.8;" x="20.5625" xlink:href="#mc4acf1ebb3" y="39.528056"/>
      </g>
     </g>
     <g id="text_17">
      <!-- 8 -->
      <g transform="translate(7.2 43.327275)scale(0.1 -0.1)">
       <defs>
        <path d="M 31.78125 34.625 
Q 24.75 34.625 20.71875 30.859375 
Q 16.703125 27.09375 16.703125 20.515625 
Q 16.703125 13.921875 20.71875 10.15625 
Q 24.75 6.390625 31.78125 6.390625 
Q 38.8125 6.390625 42.859375 10.171875 
Q 46.921875 13.96875 46.921875 20.515625 
Q 46.921875 27.09375 42.890625 30.859375 
Q 38.875 34.625 31.78125 34.625 
z
M 21.921875 38.8125 
Q 15.578125 40.375 12.03125 44.71875 
Q 8.5 49.078125 8.5 55.328125 
Q 8.5 64.0625 14.71875 69.140625 
Q 20.953125 74.21875 31.78125 74.21875 
Q 42.671875 74.21875 48.875 69.140625 
Q 55.078125 64.0625 55.078125 55.328125 
Q 55.078125 49.078125 51.53125 44.71875 
Q 48 40.375 41.703125 38.8125 
Q 48.828125 37.15625 52.796875 32.3125 
Q 56.78125 27.484375 56.78125 20.515625 
Q 56.78125 9.90625 50.3125 4.234375 
Q 43.84375 -1.421875 31.78125 -1.421875 
Q 19.734375 -1.421875 13.25 4.234375 
Q 6.78125 9.90625 6.78125 20.515625 
Q 6.78125 27.484375 10.78125 32.3125 
Q 14.796875 37.15625 21.921875 38.8125 
z
M 18.3125 54.390625 
Q 18.3125 48.734375 21.84375 45.5625 
Q 25.390625 42.390625 31.78125 42.390625 
Q 38.140625 42.390625 41.71875 45.5625 
Q 45.3125 48.734375 45.3125 54.390625 
Q 45.3125 60.0625 41.71875 63.234375 
Q 38.140625 66.40625 31.78125 66.40625 
Q 25.390625 66.40625 21.84375 63.234375 
Q 18.3125 60.0625 18.3125 54.390625 
z
" id="DejaVuSans-56"/>
       </defs>
       <use xlink:href="#DejaVuSans-56"/>
      </g>
     </g>
    </g>
   </g>
   <g id="line2d_17">
    <path clip-path="url(#p54822009e5)" d="M 45.926136 533.198564 
L 49.307955 533.532382 
L 52.689773 534.175276 
L 56.071591 535.196277 
L 59.453409 536.439717 
L 62.835227 537.983089 
L 66.217045 539.718813 
L 67.907955 540.412985 
L 69.598864 540.837977 
L 71.289773 540.880602 
L 72.980682 540.552296 
L 74.671591 540.416429 
L 76.3625 540.124281 
L 78.053409 539.42937 
L 79.744318 539.068625 
L 81.435227 540.236252 
L 83.126136 541.566349 
L 84.817045 541.710774 
L 86.507955 541.732819 
L 88.198864 540.528629 
L 89.889773 539.675753 
L 91.580682 541.46358 
L 93.271591 541.718743 
L 94.9625 541.042295 
L 96.653409 541.184909 
L 98.344318 541.179454 
L 100.035227 540.345429 
L 101.726136 538.645909 
L 103.417045 535.638499 
L 105.107955 533.123742 
L 106.798864 531.953527 
L 108.489773 530.292335 
L 110.180682 528.260018 
L 111.871591 525.580417 
L 113.5625 524.871979 
L 115.253409 523.649488 
L 116.944318 519.896119 
L 118.635227 512.301022 
L 120.326136 510.937789 
L 122.017045 513.359961 
L 125.398864 497.677878 
L 127.089773 497.504447 
L 128.780682 497.088905 
L 130.471591 490.147643 
L 132.1625 487.117508 
L 133.853409 487.695712 
L 135.544318 477.100046 
L 137.235227 473.040952 
L 138.926136 474.977181 
L 140.617045 475.382593 
L 142.307955 471.209725 
L 143.998864 468.926364 
L 145.689773 463.427942 
L 147.380682 454.807824 
L 149.071591 440.133988 
L 150.7625 423.579463 
L 152.453409 410.901633 
L 154.144318 404.926741 
L 155.835227 402.292163 
L 157.526136 397.609322 
L 159.217045 387.16292 
L 162.598864 355.367357 
L 164.289773 344.334992 
L 165.980682 339.676346 
L 167.671591 334.391732 
L 169.3625 328.128912 
L 171.053409 320.991546 
L 174.435227 304.497853 
L 176.126136 297.695827 
L 177.817045 292.97982 
L 179.507955 290.451771 
L 181.198864 289.606215 
L 184.580682 289.619776 
L 186.271591 289.122223 
L 187.9625 284.001867 
L 191.344318 269.374353 
L 193.035227 262.012325 
L 194.726136 255.340155 
L 196.417045 249.666356 
L 198.107955 245.063349 
L 199.798864 242.129569 
L 201.489773 242.357659 
L 203.180682 242.735563 
L 204.871591 242.921441 
L 206.5625 242.623401 
L 208.253409 241.69701 
L 209.944318 240.230135 
L 211.635227 238.368912 
L 216.707955 232.091531 
L 218.398864 230.28158 
L 220.089773 228.756579 
L 221.780682 227.544797 
L 223.471591 226.610376 
L 225.1625 225.897455 
L 228.544318 224.883965 
L 231.926136 223.99608 
L 235.307955 222.874545 
L 238.689773 221.476003 
L 245.453409 218.556901 
L 248.835227 217.363857 
L 255.598864 215.335317 
L 260.671591 213.751955 
L 270.817045 210.329873 
L 275.889773 208.949274 
L 284.344318 206.900908 
L 287.726136 205.815672 
L 292.798864 203.889293 
L 299.5625 201.331064 
L 304.635227 199.690165 
L 309.707955 198.031705 
L 314.780682 196.047936 
L 328.307955 190.410289 
L 333.380682 188.687496 
L 346.907955 184.474219 
L 355.3625 181.658954 
L 358.744318 180.732799 
L 363.817045 179.634033 
L 379.035227 176.772262 
L 385.798864 175.063413 
L 395.944318 172.496329 
L 409.471591 169.23724 
L 422.998864 165.632604 
L 431.453409 163.723168 
L 444.980682 160.945321 
L 451.744318 159.707535 
L 475.417045 155.716347 
L 485.5625 153.778172 
L 494.017045 152.422812 
L 504.1625 150.825272 
L 510.926136 149.546098 
L 549.817045 141.75913 
L 553.198864 141.131045 
L 553.198864 141.131045 
" style="fill:none;stroke:#1f77b4;stroke-linecap:square;stroke-width:1.5;"/>
   </g>
   <g id="line2d_18">
    <path clip-path="url(#p54822009e5)" d="M 45.926136 533.198564 
L 49.307955 533.523917 
L 52.689773 534.106433 
L 66.217045 537.281922 
L 67.907955 537.520669 
L 69.598864 537.588762 
L 72.980682 537.417251 
L 78.053409 537.015022 
L 81.435227 536.904654 
L 83.126136 536.605369 
L 84.817045 536.974333 
L 86.507955 537.62042 
L 88.198864 537.694526 
L 89.889773 537.085696 
L 94.9625 536.247733 
L 96.653409 536.564359 
L 100.035227 537.447238 
L 101.726136 537.17449 
L 103.417045 536.280008 
L 105.107955 536.177285 
L 106.798864 534.862798 
L 108.489773 535.592609 
L 110.180682 535.583054 
L 111.871591 535.081191 
L 113.5625 533.936122 
L 115.253409 533.395057 
L 116.944318 537.325043 
L 118.635227 536.7153 
L 120.326136 534.385791 
L 122.017045 533.105631 
L 125.398864 536.706619 
L 127.089773 534.038121 
L 128.780682 533.068328 
L 130.471591 536.23176 
L 132.1625 536.163786 
L 133.853409 533.410577 
L 135.544318 531.712032 
L 137.235227 535.172423 
L 138.926136 537.715138 
L 140.617045 533.562488 
L 142.307955 532.059327 
L 143.998864 535.152471 
L 145.689773 535.419194 
L 147.380682 531.844441 
L 149.071591 532.278334 
L 150.7625 533.587719 
L 152.453409 532.514798 
L 155.835227 531.914619 
L 157.526136 530.699152 
L 159.217045 532.757874 
L 160.907955 530.393554 
L 162.598864 533.393291 
L 164.289773 529.569832 
L 165.980682 527.092113 
L 167.671591 533.977022 
L 169.3625 528.297636 
L 171.053409 524.086229 
L 172.744318 533.843179 
L 174.435227 533.748576 
L 176.126136 524.948809 
L 177.817045 527.314504 
L 179.507955 527.930104 
L 181.198864 524.161622 
L 182.889773 527.103723 
L 184.580682 525.040641 
L 186.271591 522.775923 
L 187.9625 529.325203 
L 189.653409 524.130216 
L 191.344318 520.412219 
L 193.035227 529.396429 
L 194.726136 521.081226 
L 196.417045 518.165573 
L 198.107955 531.415182 
L 199.798864 524.253925 
L 201.489773 522.220078 
L 203.180682 517.806005 
L 204.871591 529.32543 
L 206.5625 523.074295 
L 208.253409 518.377493 
L 209.944318 519.403068 
L 211.635227 522.375549 
L 213.326136 512.299472 
L 215.017045 516.822313 
L 216.707955 519.942259 
L 218.398864 512.140233 
L 220.089773 512.48537 
L 221.780682 518.558665 
L 223.471591 512.50463 
L 225.1625 510.807304 
L 226.853409 509.834213 
L 228.544318 510.622314 
L 230.235227 514.476914 
L 231.926136 502.977547 
L 233.617045 513.370604 
L 235.307955 504.803383 
L 236.998864 505.13965 
L 238.689773 501.168168 
L 240.380682 502.359394 
L 242.071591 505.955481 
L 243.7625 498.76828 
L 245.453409 505.329742 
L 247.144318 499.902287 
L 248.835227 510.509742 
L 250.526136 494.169821 
L 252.217045 492.203871 
L 253.907955 495.88016 
L 255.598864 497.044421 
L 257.289773 503.158199 
L 258.980682 495.106882 
L 260.671591 492.396268 
L 262.3625 488.405422 
L 264.053409 489.056716 
L 265.744318 493.477371 
L 267.435227 492.900087 
L 269.126136 495.583116 
L 270.817045 490.721622 
L 272.507955 489.444353 
L 274.198864 482.874069 
L 275.889773 480.384918 
L 277.580682 478.925893 
L 279.271591 482.213744 
L 280.9625 480.069243 
L 282.653409 480.722394 
L 284.344318 481.521779 
L 286.035227 479.753789 
L 287.726136 478.341299 
L 289.417045 478.51647 
L 291.107955 477.317245 
L 292.798864 475.616867 
L 294.489773 468.909487 
L 296.180682 469.890627 
L 299.5625 465.41516 
L 301.253409 464.634605 
L 302.944318 460.70091 
L 304.635227 465.45465 
L 306.326136 462.317335 
L 308.017045 467.144313 
L 309.707955 468.857288 
L 311.398864 473.506022 
L 313.089773 469.001198 
L 314.780682 466.346146 
L 316.471591 455.010748 
L 318.1625 455.017889 
L 319.853409 459.466125 
L 321.544318 452.473294 
L 323.235227 456.552855 
L 324.926136 451.725259 
L 326.617045 454.510269 
L 328.307955 445.148705 
L 329.998864 444.558742 
L 331.689773 451.331323 
L 333.380682 447.36941 
L 335.071591 447.113192 
L 336.7625 443.939313 
L 338.453409 446.715844 
L 340.144318 440.087195 
L 341.835227 436.438898 
L 343.526136 436.481889 
L 345.217045 433.950039 
L 346.907955 436.809441 
L 348.598864 432.605136 
L 350.289773 434.720746 
L 351.980682 432.831674 
L 353.671591 428.190309 
L 355.3625 430.472354 
L 357.053409 426.456941 
L 358.744318 431.264439 
L 360.435227 424.682495 
L 362.126136 426.984579 
L 363.817045 426.989911 
L 365.507955 424.490123 
L 367.198864 426.235176 
L 368.889773 420.826427 
L 370.580682 425.62577 
L 372.271591 422.555736 
L 373.9625 421.499217 
L 375.653409 422.887589 
L 377.344318 418.792225 
L 379.035227 421.714651 
L 380.726136 419.712681 
L 382.417045 417.930689 
L 384.107955 419.792831 
L 385.798864 416.945857 
L 387.489773 417.529488 
L 389.180682 416.868832 
L 390.871591 413.827199 
L 392.5625 416.301262 
L 394.253409 413.746298 
L 395.944318 412.781079 
L 397.635227 413.339574 
L 399.326136 410.906582 
L 401.017045 411.82289 
L 404.398864 408.636259 
L 406.089773 410.006541 
L 407.780682 408.261458 
L 409.471591 407.979199 
L 411.1625 408.494122 
L 412.853409 406.49919 
L 414.544318 406.483776 
L 416.235227 406.020772 
L 417.926136 403.46869 
L 419.617045 404.135399 
L 421.307955 403.900175 
L 422.998864 401.939895 
L 424.689773 402.595322 
L 426.380682 400.916491 
L 428.071591 399.790515 
L 429.7625 400.763015 
L 431.453409 398.608502 
L 433.144318 397.983741 
L 434.835227 398.186415 
L 436.526136 397.114578 
L 438.217045 397.032067 
L 439.907955 395.330719 
L 441.598864 394.41405 
L 443.289773 394.222068 
L 444.980682 393.917718 
L 446.671591 392.876254 
L 448.3625 392.145081 
L 450.053409 391.264241 
L 451.744318 390.777572 
L 453.435227 390.566499 
L 455.126136 389.094755 
L 456.817045 388.411398 
L 458.507955 387.917581 
L 461.889773 387.067127 
L 463.580682 386.052431 
L 465.271591 385.281532 
L 470.344318 384.083517 
L 472.035227 382.792209 
L 475.417045 382.487065 
L 477.107955 381.73889 
L 478.798864 381.154605 
L 480.489773 380.224478 
L 482.180682 379.548887 
L 483.871591 379.911568 
L 485.5625 378.775605 
L 488.944318 377.846406 
L 490.635227 376.285988 
L 492.326136 376.768833 
L 495.707955 374.975561 
L 497.398864 375.53774 
L 499.089773 374.261523 
L 500.780682 373.355606 
L 502.471591 373.653308 
L 504.1625 372.398314 
L 505.853409 371.70597 
L 507.544318 372.218834 
L 510.926136 370.215944 
L 512.617045 371.002904 
L 515.998864 368.392726 
L 517.689773 369.192938 
L 519.380682 368.826682 
L 521.071591 367.216861 
L 522.7625 367.388575 
L 524.453409 367.805338 
L 526.144318 366.684451 
L 527.835227 366.064719 
L 529.526136 366.162306 
L 531.217045 365.087043 
L 532.907955 363.845742 
L 534.598864 364.334205 
L 536.289773 364.441543 
L 537.980682 363.171695 
L 539.671591 362.673053 
L 541.3625 363.413419 
L 543.053409 362.749226 
L 544.744318 361.795155 
L 546.435227 362.098902 
L 548.126136 362.601706 
L 551.507955 361.540444 
L 553.198864 361.423281 
L 553.198864 361.423281 
" style="fill:none;stroke:#ff7f0e;stroke-linecap:square;stroke-width:1.5;"/>
   </g>
   <g id="line2d_19">
    <path clip-path="url(#p54822009e5)" d="M 45.926136 533.198564 
L 49.307955 533.566916 
L 50.998864 533.892254 
L 52.689773 534.372985 
L 56.071591 535.732724 
L 59.453409 537.490395 
L 61.144318 538.544683 
L 64.526136 540.992464 
L 66.217045 542.000967 
L 67.907955 542.509034 
L 69.598864 542.185036 
L 71.289773 541.641247 
L 74.671591 540.877885 
L 76.3625 541.921613 
L 78.053409 544.043524 
L 79.744318 545.01952 
L 83.126136 541.980895 
L 86.507955 545.285334 
L 88.198864 545.874238 
L 89.889773 545.310915 
L 93.271591 542.797052 
L 94.9625 544.281964 
L 96.653409 541.95135 
L 98.344318 541.610234 
L 100.035227 539.561995 
L 101.726136 536.609075 
L 103.417045 532.440305 
L 105.107955 527.010734 
L 106.798864 509.908401 
L 108.489773 500.662496 
L 110.180682 493.031196 
L 111.871591 482.555191 
L 113.5625 463.688043 
L 115.253409 440.637063 
L 116.944318 446.460589 
L 118.635227 437.649974 
L 120.326136 425.362602 
L 122.017045 417.493887 
L 123.707955 399.220835 
L 125.398864 394.439524 
L 127.089773 393.312563 
L 128.780682 382.387184 
L 130.471591 366.283882 
L 132.1625 338.859029 
L 133.853409 318.240585 
L 135.544318 293.802079 
L 137.235227 272.104076 
L 138.926136 257.162579 
L 140.617045 247.833108 
L 142.307955 242.350481 
L 143.998864 239.895678 
L 147.380682 234.552012 
L 149.071591 232.257848 
L 150.7625 229.643964 
L 152.453409 227.392894 
L 154.144318 226.075156 
L 155.835227 223.636325 
L 157.526136 220.065017 
L 159.217045 215.435654 
L 160.907955 209.885342 
L 162.598864 203.590635 
L 165.980682 189.5437 
L 167.671591 182.171494 
L 169.3625 174.12355 
L 172.744318 154.190787 
L 176.126136 135.844916 
L 177.817045 127.490371 
L 179.507955 119.900694 
L 181.198864 115.115369 
L 182.889773 110.869146 
L 184.580682 107.154936 
L 186.271591 103.953737 
L 187.9625 101.239281 
L 189.653409 98.980798 
L 191.344318 97.14396 
L 193.035227 95.690204 
L 194.726136 94.580966 
L 196.417045 93.775856 
L 198.107955 93.236107 
L 199.798864 92.924947 
L 201.489773 92.805725 
L 203.180682 92.844848 
L 206.5625 93.277112 
L 209.944318 94.003005 
L 218.398864 96.016601 
L 221.780682 96.612859 
L 225.1625 97.015766 
L 228.544318 97.220147 
L 231.926136 97.235473 
L 233.617045 97.042123 
L 240.380682 94.895008 
L 255.598864 89.908126 
L 262.3625 87.959391 
L 269.126136 86.267161 
L 275.889773 84.802286 
L 284.344318 83.202304 
L 297.871591 80.921407 
L 311.398864 78.858892 
L 323.235227 77.305475 
L 333.380682 76.172439 
L 346.907955 74.900737 
L 370.580682 72.955444 
L 389.180682 71.567667 
L 409.471591 70.273315 
L 429.7625 69.186256 
L 455.126136 68.098903 
L 477.107955 67.338623 
L 532.907955 65.706196 
L 553.198864 64.066591 
L 553.198864 64.066591 
" style="fill:none;stroke:#2ca02c;stroke-linecap:square;stroke-width:1.5;"/>
   </g>
   <g id="line2d_20">
    <path clip-path="url(#p54822009e5)" d="M 45.926136 533.198564 
L 49.307955 533.525662 
L 52.689773 534.173868 
L 56.071591 535.297352 
L 59.453409 536.785143 
L 62.835227 538.922052 
L 64.526136 540.299277 
L 67.907955 543.483791 
L 69.598864 544.291071 
L 71.289773 544.085603 
L 72.980682 542.541482 
L 74.671591 539.685818 
L 76.3625 538.274055 
L 78.053409 539.562208 
L 79.744318 542.780792 
L 81.435227 545.645036 
L 83.126136 546.227998 
L 84.817045 543.862992 
L 86.507955 542.373538 
L 88.198864 543.605209 
L 89.889773 545.28362 
L 93.271591 548.246294 
L 94.9625 547.776234 
L 96.653409 543.990614 
L 98.344318 541.616263 
L 100.035227 538.806273 
L 101.726136 538.860875 
L 103.417045 538.494408 
L 105.107955 533.190184 
L 106.798864 524.796394 
L 108.489773 527.232295 
L 110.180682 511.361255 
L 111.871591 520.48721 
L 113.5625 500.951565 
L 115.253409 498.468394 
L 118.635227 480.375586 
L 120.326136 461.199588 
L 122.017045 451.675553 
L 123.707955 444.385623 
L 125.398864 430.270076 
L 127.089773 440.159594 
L 128.780682 418.546184 
L 130.471591 389.186812 
L 132.1625 355.1479 
L 133.853409 327.66026 
L 135.544318 337.229293 
L 137.235227 347.75981 
L 138.926136 338.541309 
L 140.617045 310.985262 
L 143.998864 237.314122 
L 145.689773 238.292578 
L 147.380682 239.010028 
L 149.071591 238.352763 
L 150.7625 233.755786 
L 152.453409 224.355334 
L 154.144318 211.429581 
L 155.835227 195.372609 
L 157.526136 176.914517 
L 159.217045 161.562287 
L 160.907955 159.682679 
L 162.598864 156.88677 
L 164.289773 153.136438 
L 169.3625 139.733473 
L 177.817045 114.307789 
L 179.507955 109.968847 
L 181.198864 106.09035 
L 182.889773 102.700508 
L 184.580682 99.80591 
L 186.271591 97.388199 
L 187.9625 95.415314 
L 189.653409 93.838747 
L 191.344318 92.60455 
L 193.035227 91.650392 
L 194.726136 90.916998 
L 198.107955 89.868062 
L 199.798864 89.459977 
L 204.871591 91.313375 
L 208.253409 92.252709 
L 211.635227 92.801489 
L 215.017045 92.969776 
L 218.398864 92.859261 
L 221.780682 90.534181 
L 225.1625 88.191864 
L 228.544318 86.084431 
L 231.926136 84.329369 
L 235.307955 82.987452 
L 238.689773 82.066356 
L 242.071591 81.526283 
L 245.453409 81.291339 
L 250.526136 81.30287 
L 258.980682 81.497867 
L 260.671591 81.483189 
L 264.053409 81.700483 
L 265.744318 81.686481 
L 269.126136 81.319431 
L 272.507955 80.671608 
L 280.9625 79.900415 
L 286.035227 79.669619 
L 291.107955 79.684915 
L 296.180682 79.914976 
L 314.780682 81.059425 
L 319.853409 81.290869 
L 328.307955 82.519065 
L 345.217045 84.858676 
L 358.744318 86.752904 
L 368.889773 87.89197 
L 392.5625 90.177015 
L 407.780682 91.42995 
L 429.7625 93.1841 
L 441.598864 94.156143 
L 465.271591 95.701588 
L 482.180682 96.739435 
L 497.398864 97.425675 
L 517.689773 98.060996 
L 541.3625 98.605835 
L 553.198864 98.610512 
L 553.198864 98.610512 
" style="fill:none;stroke:#d62728;stroke-linecap:square;stroke-width:1.5;"/>
   </g>
   <g id="line2d_21">
    <path clip-path="url(#p54822009e5)" d="M 45.926136 533.198564 
L 49.307955 533.370165 
L 52.689773 533.679072 
L 56.071591 534.204625 
L 57.7625 534.600555 
L 59.453409 535.349032 
L 61.144318 536.309257 
L 62.835227 537.482211 
L 64.526136 538.885748 
L 66.217045 540.511209 
L 67.907955 542.306163 
L 69.598864 543.718665 
L 71.289773 544.434535 
L 72.980682 544.336281 
L 74.671591 543.012538 
L 78.053409 538.123241 
L 79.744318 537.655303 
L 81.435227 539.893568 
L 83.126136 543.454635 
L 84.817045 546.134432 
L 86.507955 546.161674 
L 88.198864 543.477133 
L 89.889773 544.924397 
L 91.580682 544.926471 
L 93.271591 546.473344 
L 94.9625 549.188781 
L 96.653409 547.470124 
L 98.344318 542.238732 
L 100.035227 541.576855 
L 101.726136 538.312768 
L 103.417045 539.401056 
L 105.107955 537.128333 
L 106.798864 549.658547 
L 108.489773 536.761471 
L 110.180682 535.579506 
L 111.871591 533.947696 
L 113.5625 539.822737 
L 115.253409 519.84166 
L 116.944318 512.962753 
L 118.635227 516.492794 
L 122.017045 489.94134 
L 123.707955 483.528466 
L 125.398864 482.499128 
L 127.089773 462.174264 
L 128.780682 432.175849 
L 130.471591 421.808406 
L 132.1625 413.034981 
L 133.853409 405.551517 
L 135.544318 394.721283 
L 138.926136 382.609626 
L 140.617045 370.15623 
L 142.307955 356.182791 
L 143.998864 340.292488 
L 145.689773 329.615054 
L 147.380682 309.532757 
L 150.7625 280.293217 
L 152.453409 271.048139 
L 154.144318 263.642429 
L 155.835227 254.325782 
L 160.907955 218.230268 
L 162.598864 210.348758 
L 164.289773 207.465161 
L 169.3625 199.666603 
L 171.053409 196.762562 
L 174.435227 190.286213 
L 176.126136 186.808976 
L 179.507955 179.080105 
L 182.889773 171.622034 
L 186.271591 165.073587 
L 187.9625 162.176782 
L 189.653409 159.527599 
L 191.344318 157.109977 
L 193.035227 154.902648 
L 196.417045 151.013327 
L 199.798864 147.651459 
L 203.180682 144.641756 
L 206.5625 141.880911 
L 209.944318 139.351333 
L 213.326136 137.099557 
L 216.707955 135.210065 
L 220.089773 133.771694 
L 221.780682 133.239857 
L 223.471591 132.837449 
L 225.1625 132.562941 
L 226.853409 132.410421 
L 230.235227 132.429982 
L 233.617045 132.787766 
L 238.689773 133.656237 
L 243.7625 134.534003 
L 247.144318 134.972357 
L 252.217045 135.346231 
L 267.435227 136.006997 
L 272.507955 136.64626 
L 277.580682 137.513142 
L 286.035227 139.212461 
L 291.107955 140.34535 
L 292.798864 140.895278 
L 309.707955 147.951735 
L 314.780682 149.636052 
L 319.853409 151.076335 
L 328.307955 153.213419 
L 346.907955 157.621164 
L 351.980682 158.633919 
L 357.053409 159.459472 
L 365.507955 160.558121 
L 385.798864 163.018985 
L 394.253409 163.720992 
L 395.944318 164.105397 
L 411.1625 169.571785 
L 421.307955 173.13724 
L 439.907955 179.892244 
L 446.671591 182.187997 
L 450.053409 183.091266 
L 456.817045 184.575879 
L 465.271591 186.477255 
L 480.489773 189.996379 
L 487.253409 191.360859 
L 495.707955 192.778316 
L 504.1625 194.232689 
L 517.689773 196.620984 
L 532.907955 198.818929 
L 539.671591 199.651719 
L 546.435227 200.346754 
L 553.198864 200.061833 
L 553.198864 200.061833 
" style="fill:none;stroke:#9467bd;stroke-linecap:square;stroke-width:1.5;"/>
   </g>
   <g id="line2d_22">
    <path clip-path="url(#p54822009e5)" d="M 45.926136 533.198564 
L 50.998864 533.422551 
L 56.071591 533.855934 
L 57.7625 534.068968 
L 59.453409 534.556125 
L 61.144318 535.220596 
L 62.835227 536.065269 
L 64.526136 537.106904 
L 66.217045 538.323271 
L 69.598864 541.15625 
L 71.289773 542.565713 
L 72.980682 543.56709 
L 74.671591 543.955331 
L 76.3625 543.583852 
L 78.053409 542.382841 
L 79.744318 540.23847 
L 81.435227 538.408529 
L 83.126136 538.216628 
L 84.817045 539.862791 
L 88.198864 543.702383 
L 89.889773 543.563533 
L 91.580682 542.557862 
L 96.653409 547.336962 
L 98.344318 550.144549 
L 100.035227 551.322931 
L 101.726136 550.204759 
L 103.417045 546.856406 
L 105.107955 544.927718 
L 106.798864 546.640039 
L 108.489773 546.344588 
L 110.180682 541.375708 
L 111.871591 544.673808 
L 113.5625 531.730165 
L 115.253409 558.248409 
L 116.944318 538.109202 
L 118.635227 532.286167 
L 120.326136 545.062947 
L 122.017045 529.639795 
L 125.398864 528.121331 
L 127.089773 540.737952 
L 128.780682 526.021588 
L 132.1625 523.228291 
L 133.853409 529.079092 
L 135.544318 533.980544 
L 137.235227 516.124062 
L 138.926136 512.953153 
L 140.617045 509.227998 
L 142.307955 504.873294 
L 143.998864 499.742287 
L 145.689773 493.68402 
L 147.380682 486.648279 
L 149.071591 478.708856 
L 150.7625 469.25132 
L 152.453409 458.258373 
L 154.144318 445.583183 
L 155.835227 462.751181 
L 157.526136 415.92427 
L 159.217045 452.569513 
L 160.907955 426.584135 
L 162.598864 363.045177 
L 164.289773 352.046082 
L 165.980682 347.879473 
L 167.671591 319.123616 
L 169.3625 284.957143 
L 171.053409 274.432069 
L 172.744318 301.540628 
L 174.435227 338.057141 
L 176.126136 350.495357 
L 177.817045 336.303506 
L 179.507955 303.307677 
L 182.889773 220.553083 
L 184.580682 236.159289 
L 186.271591 249.748014 
L 187.9625 251.162912 
L 189.653409 240.505584 
L 191.344318 220.382648 
L 193.035227 194.25834 
L 194.726136 165.334858 
L 196.417045 180.396665 
L 198.107955 209.150801 
L 199.798864 233.667804 
L 201.489773 251.663274 
L 203.180682 261.091171 
L 204.871591 264.565848 
L 206.5625 259.497131 
L 208.253409 247.289828 
L 209.944318 230.345118 
L 215.017045 172.772219 
L 216.707955 158.495194 
L 218.398864 152.751121 
L 220.089773 149.149103 
L 221.780682 147.797214 
L 225.1625 151.545634 
L 226.853409 156.153494 
L 228.544318 162.070738 
L 231.926136 175.916999 
L 233.617045 182.858294 
L 235.307955 189.198565 
L 236.998864 194.553115 
L 238.689773 198.62908 
L 240.380682 201.251141 
L 242.071591 202.368675 
L 243.7625 202.062193 
L 245.453409 200.528132 
L 247.144318 198.05812 
L 250.526136 191.733674 
L 252.217045 188.59919 
L 253.907955 185.921268 
L 255.598864 183.951148 
L 257.289773 182.863647 
L 258.980682 182.743896 
L 260.671591 183.589128 
L 262.3625 185.305802 
L 264.053409 187.726777 
L 267.435227 194.154679 
L 269.126136 197.390118 
L 270.817045 200.278215 
L 272.507955 202.60356 
L 274.198864 204.224663 
L 275.889773 205.08828 
L 277.580682 205.530222 
L 279.271591 205.486922 
L 280.9625 205.04748 
L 286.035227 203.167019 
L 287.726136 202.904219 
L 289.417045 203.007909 
L 291.107955 203.504506 
L 292.798864 204.364652 
L 294.489773 205.50716 
L 299.5625 209.363389 
L 301.253409 210.348228 
L 302.944318 211.016496 
L 304.635227 211.330656 
L 306.326136 211.303623 
L 309.707955 210.638856 
L 313.089773 209.897461 
L 314.780682 209.662783 
L 316.471591 210.959606 
L 318.1625 212.630685 
L 321.544318 216.472236 
L 324.926136 220.472308 
L 326.617045 222.302997 
L 328.307955 223.926923 
L 329.998864 225.309846 
L 331.689773 226.456061 
L 333.380682 227.401777 
L 341.835227 231.523454 
L 345.217045 233.784702 
L 350.289773 237.475379 
L 353.671591 239.534952 
L 355.3625 240.358917 
L 358.744318 240.184364 
L 363.817045 239.832581 
L 367.198864 239.902561 
L 375.653409 240.38245 
L 380.726136 240.20066 
L 385.798864 240.051317 
L 389.180682 240.215692 
L 409.471591 242.225053 
L 416.235227 243.022367 
L 431.453409 244.223912 
L 436.526136 244.45912 
L 438.217045 244.496449 
L 451.744318 242.163927 
L 470.344318 239.048181 
L 487.253409 236.561843 
L 495.707955 235.501346 
L 505.853409 234.240293 
L 515.998864 232.943323 
L 527.835227 231.823848 
L 536.289773 231.433795 
L 551.507955 230.800209 
L 553.198864 230.753438 
L 553.198864 230.753438 
" style="fill:none;stroke:#8c564b;stroke-linecap:square;stroke-width:1.5;"/>
   </g>
   <g id="patch_4">
    <path d="M 20.5625 582.9575 
L 20.5625 39.3575 
" style="fill:none;stroke:#000000;stroke-linecap:square;stroke-linejoin:miter;stroke-width:0.8;"/>
   </g>
   <g id="patch_5">
    <path d="M 578.5625 582.9575 
L 578.5625 39.3575 
" style="fill:none;stroke:#000000;stroke-linecap:square;stroke-linejoin:miter;stroke-width:0.8;"/>
   </g>
   <g id="patch_6">
    <path d="M 20.5625 582.9575 
L 578.5625 582.9575 
" style="fill:none;stroke:#000000;stroke-linecap:square;stroke-linejoin:miter;stroke-width:0.8;"/>
   </g>
   <g id="patch_7">
    <path d="M 20.5625 39.3575 
L 578.5625 39.3575 
" style="fill:none;stroke:#000000;stroke-linecap:square;stroke-linejoin:miter;stroke-width:0.8;"/>
   </g>
   <g id="text_18">
    <!-- Class separation -->
    <g transform="translate(177.817045 66.5375)scale(0.1 -0.1)">
     <defs>
      <path d="M 64.40625 67.28125 
L 64.40625 56.890625 
Q 59.421875 61.53125 53.78125 63.8125 
Q 48.140625 66.109375 41.796875 66.109375 
Q 29.296875 66.109375 22.65625 58.46875 
Q 16.015625 50.828125 16.015625 36.375 
Q 16.015625 21.96875 22.65625 14.328125 
Q 29.296875 6.6875 41.796875 6.6875 
Q 48.140625 6.6875 53.78125 8.984375 
Q 59.421875 11.28125 64.40625 15.921875 
L 64.40625 5.609375 
Q 59.234375 2.09375 53.4375 0.328125 
Q 47.65625 -1.421875 41.21875 -1.421875 
Q 24.65625 -1.421875 15.125 8.703125 
Q 5.609375 18.84375 5.609375 36.375 
Q 5.609375 53.953125 15.125 64.078125 
Q 24.65625 74.21875 41.21875 74.21875 
Q 47.75 74.21875 53.53125 72.484375 
Q 59.328125 70.75 64.40625 67.28125 
z
" id="DejaVuSans-67"/>
      <path d="M 9.421875 75.984375 
L 18.40625 75.984375 
L 18.40625 0 
L 9.421875 0 
z
" id="DejaVuSans-108"/>
      <path d="M 34.28125 27.484375 
Q 23.390625 27.484375 19.1875 25 
Q 14.984375 22.515625 14.984375 16.5 
Q 14.984375 11.71875 18.140625 8.90625 
Q 21.296875 6.109375 26.703125 6.109375 
Q 34.1875 6.109375 38.703125 11.40625 
Q 43.21875 16.703125 43.21875 25.484375 
L 43.21875 27.484375 
z
M 52.203125 31.203125 
L 52.203125 0 
L 43.21875 0 
L 43.21875 8.296875 
Q 40.140625 3.328125 35.546875 0.953125 
Q 30.953125 -1.421875 24.3125 -1.421875 
Q 15.921875 -1.421875 10.953125 3.296875 
Q 6 8.015625 6 15.921875 
Q 6 25.140625 12.171875 29.828125 
Q 18.359375 34.515625 30.609375 34.515625 
L 43.21875 34.515625 
L 43.21875 35.40625 
Q 43.21875 41.609375 39.140625 45 
Q 35.0625 48.390625 27.6875 48.390625 
Q 23 48.390625 18.546875 47.265625 
Q 14.109375 46.140625 10.015625 43.890625 
L 10.015625 52.203125 
Q 14.9375 54.109375 19.578125 55.046875 
Q 24.21875 56 28.609375 56 
Q 40.484375 56 46.34375 49.84375 
Q 52.203125 43.703125 52.203125 31.203125 
z
" id="DejaVuSans-97"/>
      <path id="DejaVuSans-32"/>
      <path d="M 56.203125 29.59375 
L 56.203125 25.203125 
L 14.890625 25.203125 
Q 15.484375 15.921875 20.484375 11.0625 
Q 25.484375 6.203125 34.421875 6.203125 
Q 39.59375 6.203125 44.453125 7.46875 
Q 49.3125 8.734375 54.109375 11.28125 
L 54.109375 2.78125 
Q 49.265625 0.734375 44.1875 -0.34375 
Q 39.109375 -1.421875 33.890625 -1.421875 
Q 20.796875 -1.421875 13.15625 6.1875 
Q 5.515625 13.8125 5.515625 26.8125 
Q 5.515625 40.234375 12.765625 48.109375 
Q 20.015625 56 32.328125 56 
Q 43.359375 56 49.78125 48.890625 
Q 56.203125 41.796875 56.203125 29.59375 
z
M 47.21875 32.234375 
Q 47.125 39.59375 43.09375 43.984375 
Q 39.0625 48.390625 32.421875 48.390625 
Q 24.90625 48.390625 20.390625 44.140625 
Q 15.875 39.890625 15.1875 32.171875 
z
" id="DejaVuSans-101"/>
      <path d="M 41.109375 46.296875 
Q 39.59375 47.171875 37.8125 47.578125 
Q 36.03125 48 33.890625 48 
Q 26.265625 48 22.1875 43.046875 
Q 18.109375 38.09375 18.109375 28.8125 
L 18.109375 0 
L 9.078125 0 
L 9.078125 54.6875 
L 18.109375 54.6875 
L 18.109375 46.1875 
Q 20.953125 51.171875 25.484375 53.578125 
Q 30.03125 56 36.53125 56 
Q 37.453125 56 38.578125 55.875 
Q 39.703125 55.765625 41.0625 55.515625 
z
" id="DejaVuSans-114"/>
      <path d="M 18.3125 70.21875 
L 18.3125 54.6875 
L 36.8125 54.6875 
L 36.8125 47.703125 
L 18.3125 47.703125 
L 18.3125 18.015625 
Q 18.3125 11.328125 20.140625 9.421875 
Q 21.96875 7.515625 27.59375 7.515625 
L 36.8125 7.515625 
L 36.8125 0 
L 27.59375 0 
Q 17.1875 0 13.234375 3.875 
Q 9.28125 7.765625 9.28125 18.015625 
L 9.28125 47.703125 
L 2.6875 47.703125 
L 2.6875 54.6875 
L 9.28125 54.6875 
L 9.28125 70.21875 
z
" id="DejaVuSans-116"/>
      <path d="M 9.421875 54.6875 
L 18.40625 54.6875 
L 18.40625 0 
L 9.421875 0 
z
M 9.421875 75.984375 
L 18.40625 75.984375 
L 18.40625 64.59375 
L 9.421875 64.59375 
z
" id="DejaVuSans-105"/>
      <path d="M 54.890625 33.015625 
L 54.890625 0 
L 45.90625 0 
L 45.90625 32.71875 
Q 45.90625 40.484375 42.875 44.328125 
Q 39.84375 48.1875 33.796875 48.1875 
Q 26.515625 48.1875 22.3125 43.546875 
Q 18.109375 38.921875 18.109375 30.90625 
L 18.109375 0 
L 9.078125 0 
L 9.078125 54.6875 
L 18.109375 54.6875 
L 18.109375 46.1875 
Q 21.34375 51.125 25.703125 53.5625 
Q 30.078125 56 35.796875 56 
Q 45.21875 56 50.046875 50.171875 
Q 54.890625 44.34375 54.890625 33.015625 
z
" id="DejaVuSans-110"/>
     </defs>
     <use xlink:href="#DejaVuSans-67"/>
     <use x="69.824219" xlink:href="#DejaVuSans-108"/>
     <use x="97.607422" xlink:href="#DejaVuSans-97"/>
     <use x="158.886719" xlink:href="#DejaVuSans-115"/>
     <use x="210.986328" xlink:href="#DejaVuSans-115"/>
     <use x="263.085938" xlink:href="#DejaVuSans-32"/>
     <use x="294.873047" xlink:href="#DejaVuSans-115"/>
     <use x="346.972656" xlink:href="#DejaVuSans-101"/>
     <use x="408.496094" xlink:href="#DejaVuSans-112"/>
     <use x="471.972656" xlink:href="#DejaVuSans-97"/>
     <use x="533.251953" xlink:href="#DejaVuSans-114"/>
     <use x="574.365234" xlink:href="#DejaVuSans-97"/>
     <use x="635.644531" xlink:href="#DejaVuSans-116"/>
     <use x="674.853516" xlink:href="#DejaVuSans-105"/>
     <use x="702.636719" xlink:href="#DejaVuSans-111"/>
     <use x="763.818359" xlink:href="#DejaVuSans-110"/>
    </g>
   </g>
   <g id="text_19">
    <!-- Margin evolution -->
    <g transform="translate(232.52625 19.3575)scale(0.16 -0.16)">
     <defs>
      <path d="M 9.8125 72.90625 
L 24.515625 72.90625 
L 43.109375 23.296875 
L 61.8125 72.90625 
L 76.515625 72.90625 
L 76.515625 0 
L 66.890625 0 
L 66.890625 64.015625 
L 48.09375 14.015625 
L 38.1875 14.015625 
L 19.390625 64.015625 
L 19.390625 0 
L 9.8125 0 
z
" id="DejaVuSans-77"/>
      <path d="M 45.40625 27.984375 
Q 45.40625 37.75 41.375 43.109375 
Q 37.359375 48.484375 30.078125 48.484375 
Q 22.859375 48.484375 18.828125 43.109375 
Q 14.796875 37.75 14.796875 27.984375 
Q 14.796875 18.265625 18.828125 12.890625 
Q 22.859375 7.515625 30.078125 7.515625 
Q 37.359375 7.515625 41.375 12.890625 
Q 45.40625 18.265625 45.40625 27.984375 
z
M 54.390625 6.78125 
Q 54.390625 -7.171875 48.1875 -13.984375 
Q 42 -20.796875 29.203125 -20.796875 
Q 24.46875 -20.796875 20.265625 -20.09375 
Q 16.0625 -19.390625 12.109375 -17.921875 
L 12.109375 -9.1875 
Q 16.0625 -11.328125 19.921875 -12.34375 
Q 23.78125 -13.375 27.78125 -13.375 
Q 36.625 -13.375 41.015625 -8.765625 
Q 45.40625 -4.15625 45.40625 5.171875 
L 45.40625 9.625 
Q 42.625 4.78125 38.28125 2.390625 
Q 33.9375 0 27.875 0 
Q 17.828125 0 11.671875 7.65625 
Q 5.515625 15.328125 5.515625 27.984375 
Q 5.515625 40.671875 11.671875 48.328125 
Q 17.828125 56 27.875 56 
Q 33.9375 56 38.28125 53.609375 
Q 42.625 51.21875 45.40625 46.390625 
L 45.40625 54.6875 
L 54.390625 54.6875 
z
" id="DejaVuSans-103"/>
      <path d="M 2.984375 54.6875 
L 12.5 54.6875 
L 29.59375 8.796875 
L 46.6875 54.6875 
L 56.203125 54.6875 
L 35.6875 0 
L 23.484375 0 
z
" id="DejaVuSans-118"/>
      <path d="M 8.5 21.578125 
L 8.5 54.6875 
L 17.484375 54.6875 
L 17.484375 21.921875 
Q 17.484375 14.15625 20.5 10.265625 
Q 23.53125 6.390625 29.59375 6.390625 
Q 36.859375 6.390625 41.078125 11.03125 
Q 45.3125 15.671875 45.3125 23.6875 
L 45.3125 54.6875 
L 54.296875 54.6875 
L 54.296875 0 
L 45.3125 0 
L 45.3125 8.40625 
Q 42.046875 3.421875 37.71875 1 
Q 33.40625 -1.421875 27.6875 -1.421875 
Q 18.265625 -1.421875 13.375 4.4375 
Q 8.5 10.296875 8.5 21.578125 
z
M 31.109375 56 
z
" id="DejaVuSans-117"/>
     </defs>
     <use xlink:href="#DejaVuSans-77"/>
     <use x="86.279297" xlink:href="#DejaVuSans-97"/>
     <use x="147.558594" xlink:href="#DejaVuSans-114"/>
     <use x="186.921875" xlink:href="#DejaVuSans-103"/>
     <use x="250.398438" xlink:href="#DejaVuSans-105"/>
     <use x="278.181641" xlink:href="#DejaVuSans-110"/>
     <use x="341.560547" xlink:href="#DejaVuSans-32"/>
     <use x="373.347656" xlink:href="#DejaVuSans-101"/>
     <use x="434.871094" xlink:href="#DejaVuSans-118"/>
     <use x="494.050781" xlink:href="#DejaVuSans-111"/>
     <use x="555.232422" xlink:href="#DejaVuSans-108"/>
     <use x="583.015625" xlink:href="#DejaVuSans-117"/>
     <use x="646.394531" xlink:href="#DejaVuSans-116"/>
     <use x="685.603516" xlink:href="#DejaVuSans-105"/>
     <use x="713.386719" xlink:href="#DejaVuSans-111"/>
     <use x="774.568359" xlink:href="#DejaVuSans-110"/>
    </g>
   </g>
   <g id="legend_1">
    <g id="line2d_23">
     <path d="M 30.155469 628.671938 
L 50.155469 628.671938 
" style="fill:none;stroke:#1f77b4;stroke-linecap:square;stroke-width:1.5;"/>
    </g>
    <g id="line2d_24"/>
    <g id="text_20">
     <!-- Baseline -->
     <g transform="translate(58.155469 632.171938)scale(0.1 -0.1)">
      <defs>
       <path d="M 19.671875 34.8125 
L 19.671875 8.109375 
L 35.5 8.109375 
Q 43.453125 8.109375 47.28125 11.40625 
Q 51.125 14.703125 51.125 21.484375 
Q 51.125 28.328125 47.28125 31.5625 
Q 43.453125 34.8125 35.5 34.8125 
z
M 19.671875 64.796875 
L 19.671875 42.828125 
L 34.28125 42.828125 
Q 41.5 42.828125 45.03125 45.53125 
Q 48.578125 48.25 48.578125 53.8125 
Q 48.578125 59.328125 45.03125 62.0625 
Q 41.5 64.796875 34.28125 64.796875 
z
M 9.8125 72.90625 
L 35.015625 72.90625 
Q 46.296875 72.90625 52.390625 68.21875 
Q 58.5 63.53125 58.5 54.890625 
Q 58.5 48.1875 55.375 44.234375 
Q 52.25 40.28125 46.1875 39.3125 
Q 53.46875 37.75 57.5 32.78125 
Q 61.53125 27.828125 61.53125 20.40625 
Q 61.53125 10.640625 54.890625 5.3125 
Q 48.25 0 35.984375 0 
L 9.8125 0 
z
" id="DejaVuSans-66"/>
      </defs>
      <use xlink:href="#DejaVuSans-66"/>
      <use x="68.603516" xlink:href="#DejaVuSans-97"/>
      <use x="129.882812" xlink:href="#DejaVuSans-115"/>
      <use x="181.982422" xlink:href="#DejaVuSans-101"/>
      <use x="243.505859" xlink:href="#DejaVuSans-108"/>
      <use x="271.289062" xlink:href="#DejaVuSans-105"/>
      <use x="299.072266" xlink:href="#DejaVuSans-110"/>
      <use x="362.451172" xlink:href="#DejaVuSans-101"/>
     </g>
    </g>
    <g id="line2d_25">
     <path d="M 120.553906 628.671938 
L 140.553906 628.671938 
" style="fill:none;stroke:#ff7f0e;stroke-linecap:square;stroke-width:1.5;"/>
    </g>
    <g id="line2d_26"/>
    <g id="text_21">
     <!-- Forced normaliz. -->
     <g transform="translate(148.553906 632.171938)scale(0.1 -0.1)">
      <defs>
       <path d="M 9.8125 72.90625 
L 51.703125 72.90625 
L 51.703125 64.59375 
L 19.671875 64.59375 
L 19.671875 43.109375 
L 48.578125 43.109375 
L 48.578125 34.8125 
L 19.671875 34.8125 
L 19.671875 0 
L 9.8125 0 
z
" id="DejaVuSans-70"/>
       <path d="M 45.40625 46.390625 
L 45.40625 75.984375 
L 54.390625 75.984375 
L 54.390625 0 
L 45.40625 0 
L 45.40625 8.203125 
Q 42.578125 3.328125 38.25 0.953125 
Q 33.9375 -1.421875 27.875 -1.421875 
Q 17.96875 -1.421875 11.734375 6.484375 
Q 5.515625 14.40625 5.515625 27.296875 
Q 5.515625 40.1875 11.734375 48.09375 
Q 17.96875 56 27.875 56 
Q 33.9375 56 38.25 53.625 
Q 42.578125 51.265625 45.40625 46.390625 
z
M 14.796875 27.296875 
Q 14.796875 17.390625 18.875 11.75 
Q 22.953125 6.109375 30.078125 6.109375 
Q 37.203125 6.109375 41.296875 11.75 
Q 45.40625 17.390625 45.40625 27.296875 
Q 45.40625 37.203125 41.296875 42.84375 
Q 37.203125 48.484375 30.078125 48.484375 
Q 22.953125 48.484375 18.875 42.84375 
Q 14.796875 37.203125 14.796875 27.296875 
z
" id="DejaVuSans-100"/>
       <path d="M 52 44.1875 
Q 55.375 50.25 60.0625 53.125 
Q 64.75 56 71.09375 56 
Q 79.640625 56 84.28125 50.015625 
Q 88.921875 44.046875 88.921875 33.015625 
L 88.921875 0 
L 79.890625 0 
L 79.890625 32.71875 
Q 79.890625 40.578125 77.09375 44.375 
Q 74.3125 48.1875 68.609375 48.1875 
Q 61.625 48.1875 57.5625 43.546875 
Q 53.515625 38.921875 53.515625 30.90625 
L 53.515625 0 
L 44.484375 0 
L 44.484375 32.71875 
Q 44.484375 40.625 41.703125 44.40625 
Q 38.921875 48.1875 33.109375 48.1875 
Q 26.21875 48.1875 22.15625 43.53125 
Q 18.109375 38.875 18.109375 30.90625 
L 18.109375 0 
L 9.078125 0 
L 9.078125 54.6875 
L 18.109375 54.6875 
L 18.109375 46.1875 
Q 21.1875 51.21875 25.484375 53.609375 
Q 29.78125 56 35.6875 56 
Q 41.65625 56 45.828125 52.96875 
Q 50 49.953125 52 44.1875 
z
" id="DejaVuSans-109"/>
       <path d="M 5.515625 54.6875 
L 48.1875 54.6875 
L 48.1875 46.484375 
L 14.40625 7.171875 
L 48.1875 7.171875 
L 48.1875 0 
L 4.296875 0 
L 4.296875 8.203125 
L 38.09375 47.515625 
L 5.515625 47.515625 
z
" id="DejaVuSans-122"/>
       <path d="M 10.6875 12.40625 
L 21 12.40625 
L 21 0 
L 10.6875 0 
z
" id="DejaVuSans-46"/>
      </defs>
      <use xlink:href="#DejaVuSans-70"/>
      <use x="53.894531" xlink:href="#DejaVuSans-111"/>
      <use x="115.076172" xlink:href="#DejaVuSans-114"/>
      <use x="153.939453" xlink:href="#DejaVuSans-99"/>
      <use x="208.919922" xlink:href="#DejaVuSans-101"/>
      <use x="270.443359" xlink:href="#DejaVuSans-100"/>
      <use x="333.919922" xlink:href="#DejaVuSans-32"/>
      <use x="365.707031" xlink:href="#DejaVuSans-110"/>
      <use x="429.085938" xlink:href="#DejaVuSans-111"/>
      <use x="490.267578" xlink:href="#DejaVuSans-114"/>
      <use x="529.630859" xlink:href="#DejaVuSans-109"/>
      <use x="627.042969" xlink:href="#DejaVuSans-97"/>
      <use x="688.322266" xlink:href="#DejaVuSans-108"/>
      <use x="716.105469" xlink:href="#DejaVuSans-105"/>
      <use x="743.888672" xlink:href="#DejaVuSans-122"/>
      <use x="796.378906" xlink:href="#DejaVuSans-46"/>
     </g>
    </g>
    <g id="line2d_27">
     <path d="M 251.369531 628.671938 
L 271.369531 628.671938 
" style="fill:none;stroke:#2ca02c;stroke-linecap:square;stroke-width:1.5;"/>
    </g>
    <g id="line2d_28"/>
    <g id="text_22">
     <!-- $\alpha=0.05$ -->
     <g transform="translate(279.369531 632.171938)scale(0.1 -0.1)">
      <defs>
       <path d="M 40.921875 25.4375 
L 40.96875 36.71875 
Q 41.015625 48.25 32.328125 48.296875 
Q 25.828125 48.34375 21.78125 42.921875 
Q 16.703125 36.234375 14.984375 27.296875 
Q 12.890625 16.546875 15.53125 11.421875 
Q 18.265625 6.203125 24.171875 6.203125 
Q 30.71875 6.203125 36.234375 16.609375 
z
M 33.84375 55.90625 
Q 49.078125 56.15625 48.875 40.375 
Q 48.875 40.375 56.5 54.6875 
L 64.5 54.6875 
L 48.734375 25.046875 
L 48.578125 14.359375 
Q 48.578125 11.96875 49.90625 9.96875 
Q 51.421875 7.625 52.984375 7.625 
L 57.328125 7.625 
L 55.859375 0 
L 50.4375 0 
Q 45.84375 0 42.53125 4.109375 
Q 40.96875 6.15625 40.921875 10.453125 
Q 37.75 5.21875 32.28125 0.78125 
Q 29.6875 -1.265625 22.703125 -1.21875 
Q 11.28125 -1.125 7.125 6.203125 
Q 2.875 13.8125 5.515625 27.296875 
Q 8.34375 41.796875 15.765625 48.390625 
Q 24.125 55.765625 33.84375 55.90625 
z
" id="DejaVuSans-Oblique-945"/>
       <path d="M 10.59375 45.40625 
L 73.1875 45.40625 
L 73.1875 37.203125 
L 10.59375 37.203125 
z
M 10.59375 25.484375 
L 73.1875 25.484375 
L 73.1875 17.1875 
L 10.59375 17.1875 
z
" id="DejaVuSans-61"/>
      </defs>
      <use transform="translate(0 0.78125)" xlink:href="#DejaVuSans-Oblique-945"/>
      <use transform="translate(85.400391 0.78125)" xlink:href="#DejaVuSans-61"/>
      <use transform="translate(188.671875 0.78125)" xlink:href="#DejaVuSans-48"/>
      <use transform="translate(252.294922 0.78125)" xlink:href="#DejaVuSans-46"/>
      <use transform="translate(284.082031 0.78125)" xlink:href="#DejaVuSans-48"/>
      <use transform="translate(347.705078 0.78125)" xlink:href="#DejaVuSans-53"/>
     </g>
    </g>
    <g id="line2d_29">
     <path d="M 340.569531 628.671938 
L 360.569531 628.671938 
" style="fill:none;stroke:#d62728;stroke-linecap:square;stroke-width:1.5;"/>
    </g>
    <g id="line2d_30"/>
    <g id="text_23">
     <!-- $\alpha=0.5$ -->
     <g transform="translate(368.569531 632.171938)scale(0.1 -0.1)">
      <use transform="translate(0 0.78125)" xlink:href="#DejaVuSans-Oblique-945"/>
      <use transform="translate(85.400391 0.78125)" xlink:href="#DejaVuSans-61"/>
      <use transform="translate(188.671875 0.78125)" xlink:href="#DejaVuSans-48"/>
      <use transform="translate(252.294922 0.78125)" xlink:href="#DejaVuSans-46"/>
      <use transform="translate(284.082031 0.78125)" xlink:href="#DejaVuSans-53"/>
     </g>
    </g>
    <g id="line2d_31">
     <path d="M 423.369531 628.671938 
L 443.369531 628.671938 
" style="fill:none;stroke:#9467bd;stroke-linecap:square;stroke-width:1.5;"/>
    </g>
    <g id="line2d_32"/>
    <g id="text_24">
     <!-- $\alpha=1.5$ -->
     <g transform="translate(451.369531 632.171938)scale(0.1 -0.1)">
      <use transform="translate(0 0.09375)" xlink:href="#DejaVuSans-Oblique-945"/>
      <use transform="translate(85.400391 0.09375)" xlink:href="#DejaVuSans-61"/>
      <use transform="translate(188.671875 0.09375)" xlink:href="#DejaVuSans-49"/>
      <use transform="translate(252.294922 0.09375)" xlink:href="#DejaVuSans-46"/>
      <use transform="translate(284.082031 0.09375)" xlink:href="#DejaVuSans-53"/>
     </g>
    </g>
    <g id="line2d_33">
     <path d="M 506.169531 628.671938 
L 526.169531 628.671938 
" style="fill:none;stroke:#8c564b;stroke-linecap:square;stroke-width:1.5;"/>
    </g>
    <g id="line2d_34"/>
    <g id="text_25">
     <!-- $\alpha=2.5$ -->
     <g transform="translate(534.169531 632.171938)scale(0.1 -0.1)">
      <use transform="translate(0 0.78125)" xlink:href="#DejaVuSans-Oblique-945"/>
      <use transform="translate(85.400391 0.78125)" xlink:href="#DejaVuSans-61"/>
      <use transform="translate(188.671875 0.78125)" xlink:href="#DejaVuSans-50"/>
      <use transform="translate(252.294922 0.78125)" xlink:href="#DejaVuSans-46"/>
      <use transform="translate(284.082031 0.78125)" xlink:href="#DejaVuSans-53"/>
     </g>
    </g>
   </g>
  </g>
 </g>
 <defs>
  <clipPath id="p54822009e5">
   <rect height="543.6" width="558" x="20.5625" y="39.3575"/>
  </clipPath>
 </defs>
</svg>
