<?xml version="1.0" encoding="utf-8" standalone="no"?>
<!DOCTYPE svg PUBLIC "-//W3C//DTD SVG 1.1//EN"
  "http://www.w3.org/Graphics/SVG/1.1/DTD/svg11.dtd">
<!-- Created with matplotlib (https://matplotlib.org/) -->
<svg height="720pt" version="1.1" viewBox="0 0 720 720" width="720pt" xmlns="http://www.w3.org/2000/svg" xmlns:xlink="http://www.w3.org/1999/xlink">
 <metadata>
  <rdf:RDF xmlns:cc="http://creativecommons.org/ns#" xmlns:dc="http://purl.org/dc/elements/1.1/" xmlns:rdf="http://www.w3.org/1999/02/22-rdf-syntax-ns#">
   <cc:Work>
    <dc:type rdf:resource="http://purl.org/dc/dcmitype/StillImage"/>
    <dc:date>2021-01-10T12:14:20.279602</dc:date>
    <dc:format>image/svg+xml</dc:format>
    <dc:creator>
     <cc:Agent>
      <dc:title>Matplotlib v3.3.2, https://matplotlib.org/</dc:title>
     </cc:Agent>
    </dc:creator>
   </cc:Work>
  </rdf:RDF>
 </metadata>
 <defs>
  <style type="text/css">*{stroke-linecap:butt;stroke-linejoin:round;}</style>
 </defs>
 <g id="figure_1">
  <g id="patch_1">
   <path d="M 0 720 
L 720 720 
L 720 0 
L 0 0 
z
" style="fill:none;"/>
  </g>
  <g id="axes_1">
   <g id="patch_2">
    <path d="M 90 630 
L 648 630 
L 648 86.4 
L 90 86.4 
z
" style="fill:#ffffff;"/>
   </g>
   <g id="patch_3">
    <path clip-path="url(#p381e69c8d0)" d="M 172.854545 630 
L 245.563636 630 
L 245.563636 86.4 
L 172.854545 86.4 
z
" style="fill:#1f77b4;opacity:0.2;"/>
   </g>
   <g id="matplotlib.axis_1">
    <g id="xtick_1">
     <g id="line2d_1">
      <defs>
       <path d="M 0 0 
L 0 3.5 
" id="m865cd521c6" style="stroke:#000000;stroke-width:0.8;"/>
      </defs>
      <g>
       <use style="stroke:#000000;stroke-width:0.8;" x="115.363636" xlink:href="#m865cd521c6" y="630"/>
      </g>
     </g>
     <g id="text_1">
      <!-- 0 -->
      <g transform="translate(112.182386 644.598438)scale(0.1 -0.1)">
       <defs>
        <path d="M 31.78125 66.40625 
Q 24.171875 66.40625 20.328125 58.90625 
Q 16.5 51.421875 16.5 36.375 
Q 16.5 21.390625 20.328125 13.890625 
Q 24.171875 6.390625 31.78125 6.390625 
Q 39.453125 6.390625 43.28125 13.890625 
Q 47.125 21.390625 47.125 36.375 
Q 47.125 51.421875 43.28125 58.90625 
Q 39.453125 66.40625 31.78125 66.40625 
z
M 31.78125 74.21875 
Q 44.046875 74.21875 50.515625 64.515625 
Q 56.984375 54.828125 56.984375 36.375 
Q 56.984375 17.96875 50.515625 8.265625 
Q 44.046875 -1.421875 31.78125 -1.421875 
Q 19.53125 -1.421875 13.0625 8.265625 
Q 6.59375 17.96875 6.59375 36.375 
Q 6.59375 54.828125 13.0625 64.515625 
Q 19.53125 74.21875 31.78125 74.21875 
z
" id="DejaVuSans-48"/>
       </defs>
       <use xlink:href="#DejaVuSans-48"/>
      </g>
     </g>
    </g>
    <g id="xtick_2">
     <g id="line2d_2">
      <g>
       <use style="stroke:#000000;stroke-width:0.8;" x="199.909091" xlink:href="#m865cd521c6" y="630"/>
      </g>
     </g>
     <g id="text_2">
      <!-- 50 -->
      <g transform="translate(193.546591 644.598438)scale(0.1 -0.1)">
       <defs>
        <path d="M 10.796875 72.90625 
L 49.515625 72.90625 
L 49.515625 64.59375 
L 19.828125 64.59375 
L 19.828125 46.734375 
Q 21.96875 47.46875 24.109375 47.828125 
Q 26.265625 48.1875 28.421875 48.1875 
Q 40.625 48.1875 47.75 41.5 
Q 54.890625 34.8125 54.890625 23.390625 
Q 54.890625 11.625 47.5625 5.09375 
Q 40.234375 -1.421875 26.90625 -1.421875 
Q 22.3125 -1.421875 17.546875 -0.640625 
Q 12.796875 0.140625 7.71875 1.703125 
L 7.71875 11.625 
Q 12.109375 9.234375 16.796875 8.0625 
Q 21.484375 6.890625 26.703125 6.890625 
Q 35.15625 6.890625 40.078125 11.328125 
Q 45.015625 15.765625 45.015625 23.390625 
Q 45.015625 31 40.078125 35.4375 
Q 35.15625 39.890625 26.703125 39.890625 
Q 22.75 39.890625 18.8125 39.015625 
Q 14.890625 38.140625 10.796875 36.28125 
z
" id="DejaVuSans-53"/>
       </defs>
       <use xlink:href="#DejaVuSans-53"/>
       <use x="63.623047" xlink:href="#DejaVuSans-48"/>
      </g>
     </g>
    </g>
    <g id="xtick_3">
     <g id="line2d_3">
      <g>
       <use style="stroke:#000000;stroke-width:0.8;" x="284.454545" xlink:href="#m865cd521c6" y="630"/>
      </g>
     </g>
     <g id="text_3">
      <!-- 100 -->
      <g transform="translate(274.910795 644.598438)scale(0.1 -0.1)">
       <defs>
        <path d="M 12.40625 8.296875 
L 28.515625 8.296875 
L 28.515625 63.921875 
L 10.984375 60.40625 
L 10.984375 69.390625 
L 28.421875 72.90625 
L 38.28125 72.90625 
L 38.28125 8.296875 
L 54.390625 8.296875 
L 54.390625 0 
L 12.40625 0 
z
" id="DejaVuSans-49"/>
       </defs>
       <use xlink:href="#DejaVuSans-49"/>
       <use x="63.623047" xlink:href="#DejaVuSans-48"/>
       <use x="127.246094" xlink:href="#DejaVuSans-48"/>
      </g>
     </g>
    </g>
    <g id="xtick_4">
     <g id="line2d_4">
      <g>
       <use style="stroke:#000000;stroke-width:0.8;" x="369" xlink:href="#m865cd521c6" y="630"/>
      </g>
     </g>
     <g id="text_4">
      <!-- 150 -->
      <g transform="translate(359.45625 644.598438)scale(0.1 -0.1)">
       <use xlink:href="#DejaVuSans-49"/>
       <use x="63.623047" xlink:href="#DejaVuSans-53"/>
       <use x="127.246094" xlink:href="#DejaVuSans-48"/>
      </g>
     </g>
    </g>
    <g id="xtick_5">
     <g id="line2d_5">
      <g>
       <use style="stroke:#000000;stroke-width:0.8;" x="453.545455" xlink:href="#m865cd521c6" y="630"/>
      </g>
     </g>
     <g id="text_5">
      <!-- 200 -->
      <g transform="translate(444.001705 644.598438)scale(0.1 -0.1)">
       <defs>
        <path d="M 19.1875 8.296875 
L 53.609375 8.296875 
L 53.609375 0 
L 7.328125 0 
L 7.328125 8.296875 
Q 12.9375 14.109375 22.625 23.890625 
Q 32.328125 33.6875 34.8125 36.53125 
Q 39.546875 41.84375 41.421875 45.53125 
Q 43.3125 49.21875 43.3125 52.78125 
Q 43.3125 58.59375 39.234375 62.25 
Q 35.15625 65.921875 28.609375 65.921875 
Q 23.96875 65.921875 18.8125 64.3125 
Q 13.671875 62.703125 7.8125 59.421875 
L 7.8125 69.390625 
Q 13.765625 71.78125 18.9375 73 
Q 24.125 74.21875 28.421875 74.21875 
Q 39.75 74.21875 46.484375 68.546875 
Q 53.21875 62.890625 53.21875 53.421875 
Q 53.21875 48.921875 51.53125 44.890625 
Q 49.859375 40.875 45.40625 35.40625 
Q 44.1875 33.984375 37.640625 27.21875 
Q 31.109375 20.453125 19.1875 8.296875 
z
" id="DejaVuSans-50"/>
       </defs>
       <use xlink:href="#DejaVuSans-50"/>
       <use x="63.623047" xlink:href="#DejaVuSans-48"/>
       <use x="127.246094" xlink:href="#DejaVuSans-48"/>
      </g>
     </g>
    </g>
    <g id="xtick_6">
     <g id="line2d_6">
      <g>
       <use style="stroke:#000000;stroke-width:0.8;" x="538.090909" xlink:href="#m865cd521c6" y="630"/>
      </g>
     </g>
     <g id="text_6">
      <!-- 250 -->
      <g transform="translate(528.547159 644.598438)scale(0.1 -0.1)">
       <use xlink:href="#DejaVuSans-50"/>
       <use x="63.623047" xlink:href="#DejaVuSans-53"/>
       <use x="127.246094" xlink:href="#DejaVuSans-48"/>
      </g>
     </g>
    </g>
    <g id="xtick_7">
     <g id="line2d_7">
      <g>
       <use style="stroke:#000000;stroke-width:0.8;" x="622.636364" xlink:href="#m865cd521c6" y="630"/>
      </g>
     </g>
     <g id="text_7">
      <!-- 300 -->
      <g transform="translate(613.092614 644.598438)scale(0.1 -0.1)">
       <defs>
        <path d="M 40.578125 39.3125 
Q 47.65625 37.796875 51.625 33 
Q 55.609375 28.21875 55.609375 21.1875 
Q 55.609375 10.40625 48.1875 4.484375 
Q 40.765625 -1.421875 27.09375 -1.421875 
Q 22.515625 -1.421875 17.65625 -0.515625 
Q 12.796875 0.390625 7.625 2.203125 
L 7.625 11.71875 
Q 11.71875 9.328125 16.59375 8.109375 
Q 21.484375 6.890625 26.8125 6.890625 
Q 36.078125 6.890625 40.9375 10.546875 
Q 45.796875 14.203125 45.796875 21.1875 
Q 45.796875 27.640625 41.28125 31.265625 
Q 36.765625 34.90625 28.71875 34.90625 
L 20.21875 34.90625 
L 20.21875 43.015625 
L 29.109375 43.015625 
Q 36.375 43.015625 40.234375 45.921875 
Q 44.09375 48.828125 44.09375 54.296875 
Q 44.09375 59.90625 40.109375 62.90625 
Q 36.140625 65.921875 28.71875 65.921875 
Q 24.65625 65.921875 20.015625 65.03125 
Q 15.375 64.15625 9.8125 62.3125 
L 9.8125 71.09375 
Q 15.4375 72.65625 20.34375 73.4375 
Q 25.25 74.21875 29.59375 74.21875 
Q 40.828125 74.21875 47.359375 69.109375 
Q 53.90625 64.015625 53.90625 55.328125 
Q 53.90625 49.265625 50.4375 45.09375 
Q 46.96875 40.921875 40.578125 39.3125 
z
" id="DejaVuSans-51"/>
       </defs>
       <use xlink:href="#DejaVuSans-51"/>
       <use x="63.623047" xlink:href="#DejaVuSans-48"/>
       <use x="127.246094" xlink:href="#DejaVuSans-48"/>
      </g>
     </g>
    </g>
    <g id="text_8">
     <!-- Epochs -->
     <g transform="translate(351.084375 658.276562)scale(0.1 -0.1)">
      <defs>
       <path d="M 9.8125 72.90625 
L 55.90625 72.90625 
L 55.90625 64.59375 
L 19.671875 64.59375 
L 19.671875 43.015625 
L 54.390625 43.015625 
L 54.390625 34.71875 
L 19.671875 34.71875 
L 19.671875 8.296875 
L 56.78125 8.296875 
L 56.78125 0 
L 9.8125 0 
z
" id="DejaVuSans-69"/>
       <path d="M 18.109375 8.203125 
L 18.109375 -20.796875 
L 9.078125 -20.796875 
L 9.078125 54.6875 
L 18.109375 54.6875 
L 18.109375 46.390625 
Q 20.953125 51.265625 25.265625 53.625 
Q 29.59375 56 35.59375 56 
Q 45.5625 56 51.78125 48.09375 
Q 58.015625 40.1875 58.015625 27.296875 
Q 58.015625 14.40625 51.78125 6.484375 
Q 45.5625 -1.421875 35.59375 -1.421875 
Q 29.59375 -1.421875 25.265625 0.953125 
Q 20.953125 3.328125 18.109375 8.203125 
z
M 48.6875 27.296875 
Q 48.6875 37.203125 44.609375 42.84375 
Q 40.53125 48.484375 33.40625 48.484375 
Q 26.265625 48.484375 22.1875 42.84375 
Q 18.109375 37.203125 18.109375 27.296875 
Q 18.109375 17.390625 22.1875 11.75 
Q 26.265625 6.109375 33.40625 6.109375 
Q 40.53125 6.109375 44.609375 11.75 
Q 48.6875 17.390625 48.6875 27.296875 
z
" id="DejaVuSans-112"/>
       <path d="M 30.609375 48.390625 
Q 23.390625 48.390625 19.1875 42.75 
Q 14.984375 37.109375 14.984375 27.296875 
Q 14.984375 17.484375 19.15625 11.84375 
Q 23.34375 6.203125 30.609375 6.203125 
Q 37.796875 6.203125 41.984375 11.859375 
Q 46.1875 17.53125 46.1875 27.296875 
Q 46.1875 37.015625 41.984375 42.703125 
Q 37.796875 48.390625 30.609375 48.390625 
z
M 30.609375 56 
Q 42.328125 56 49.015625 48.375 
Q 55.71875 40.765625 55.71875 27.296875 
Q 55.71875 13.875 49.015625 6.21875 
Q 42.328125 -1.421875 30.609375 -1.421875 
Q 18.84375 -1.421875 12.171875 6.21875 
Q 5.515625 13.875 5.515625 27.296875 
Q 5.515625 40.765625 12.171875 48.375 
Q 18.84375 56 30.609375 56 
z
" id="DejaVuSans-111"/>
       <path d="M 48.78125 52.59375 
L 48.78125 44.1875 
Q 44.96875 46.296875 41.140625 47.34375 
Q 37.3125 48.390625 33.40625 48.390625 
Q 24.65625 48.390625 19.8125 42.84375 
Q 14.984375 37.3125 14.984375 27.296875 
Q 14.984375 17.28125 19.8125 11.734375 
Q 24.65625 6.203125 33.40625 6.203125 
Q 37.3125 6.203125 41.140625 7.25 
Q 44.96875 8.296875 48.78125 10.40625 
L 48.78125 2.09375 
Q 45.015625 0.34375 40.984375 -0.53125 
Q 36.96875 -1.421875 32.421875 -1.421875 
Q 20.0625 -1.421875 12.78125 6.34375 
Q 5.515625 14.109375 5.515625 27.296875 
Q 5.515625 40.671875 12.859375 48.328125 
Q 20.21875 56 33.015625 56 
Q 37.15625 56 41.109375 55.140625 
Q 45.0625 54.296875 48.78125 52.59375 
z
" id="DejaVuSans-99"/>
       <path d="M 54.890625 33.015625 
L 54.890625 0 
L 45.90625 0 
L 45.90625 32.71875 
Q 45.90625 40.484375 42.875 44.328125 
Q 39.84375 48.1875 33.796875 48.1875 
Q 26.515625 48.1875 22.3125 43.546875 
Q 18.109375 38.921875 18.109375 30.90625 
L 18.109375 0 
L 9.078125 0 
L 9.078125 75.984375 
L 18.109375 75.984375 
L 18.109375 46.1875 
Q 21.34375 51.125 25.703125 53.5625 
Q 30.078125 56 35.796875 56 
Q 45.21875 56 50.046875 50.171875 
Q 54.890625 44.34375 54.890625 33.015625 
z
" id="DejaVuSans-104"/>
       <path d="M 44.28125 53.078125 
L 44.28125 44.578125 
Q 40.484375 46.53125 36.375 47.5 
Q 32.28125 48.484375 27.875 48.484375 
Q 21.1875 48.484375 17.84375 46.4375 
Q 14.5 44.390625 14.5 40.28125 
Q 14.5 37.15625 16.890625 35.375 
Q 19.28125 33.59375 26.515625 31.984375 
L 29.59375 31.296875 
Q 39.15625 29.25 43.1875 25.515625 
Q 47.21875 21.78125 47.21875 15.09375 
Q 47.21875 7.46875 41.1875 3.015625 
Q 35.15625 -1.421875 24.609375 -1.421875 
Q 20.21875 -1.421875 15.453125 -0.5625 
Q 10.6875 0.296875 5.421875 2 
L 5.421875 11.28125 
Q 10.40625 8.6875 15.234375 7.390625 
Q 20.0625 6.109375 24.8125 6.109375 
Q 31.15625 6.109375 34.5625 8.28125 
Q 37.984375 10.453125 37.984375 14.40625 
Q 37.984375 18.0625 35.515625 20.015625 
Q 33.0625 21.96875 24.703125 23.78125 
L 21.578125 24.515625 
Q 13.234375 26.265625 9.515625 29.90625 
Q 5.8125 33.546875 5.8125 39.890625 
Q 5.8125 47.609375 11.28125 51.796875 
Q 16.75 56 26.8125 56 
Q 31.78125 56 36.171875 55.265625 
Q 40.578125 54.546875 44.28125 53.078125 
z
" id="DejaVuSans-115"/>
      </defs>
      <use xlink:href="#DejaVuSans-69"/>
      <use x="63.183594" xlink:href="#DejaVuSans-112"/>
      <use x="126.660156" xlink:href="#DejaVuSans-111"/>
      <use x="187.841797" xlink:href="#DejaVuSans-99"/>
      <use x="242.822266" xlink:href="#DejaVuSans-104"/>
      <use x="306.201172" xlink:href="#DejaVuSans-115"/>
     </g>
    </g>
   </g>
   <g id="matplotlib.axis_2">
    <g id="ytick_1">
     <g id="line2d_8">
      <defs>
       <path d="M 0 0 
L -3.5 0 
" id="m1c23a550b9" style="stroke:#000000;stroke-width:0.8;"/>
      </defs>
      <g>
       <use style="stroke:#000000;stroke-width:0.8;" x="90" xlink:href="#m1c23a550b9" y="605.315962"/>
      </g>
     </g>
     <g id="text_9">
      <!-- 0 -->
      <g transform="translate(76.6375 609.115181)scale(0.1 -0.1)">
       <use xlink:href="#DejaVuSans-48"/>
      </g>
     </g>
    </g>
    <g id="ytick_2">
     <g id="line2d_9">
      <g>
       <use style="stroke:#000000;stroke-width:0.8;" x="90" xlink:href="#m1c23a550b9" y="544.28871"/>
      </g>
     </g>
     <g id="text_10">
      <!-- 100 -->
      <g transform="translate(63.9125 548.087929)scale(0.1 -0.1)">
       <use xlink:href="#DejaVuSans-49"/>
       <use x="63.623047" xlink:href="#DejaVuSans-48"/>
       <use x="127.246094" xlink:href="#DejaVuSans-48"/>
      </g>
     </g>
    </g>
    <g id="ytick_3">
     <g id="line2d_10">
      <g>
       <use style="stroke:#000000;stroke-width:0.8;" x="90" xlink:href="#m1c23a550b9" y="483.261459"/>
      </g>
     </g>
     <g id="text_11">
      <!-- 200 -->
      <g transform="translate(63.9125 487.060678)scale(0.1 -0.1)">
       <use xlink:href="#DejaVuSans-50"/>
       <use x="63.623047" xlink:href="#DejaVuSans-48"/>
       <use x="127.246094" xlink:href="#DejaVuSans-48"/>
      </g>
     </g>
    </g>
    <g id="ytick_4">
     <g id="line2d_11">
      <g>
       <use style="stroke:#000000;stroke-width:0.8;" x="90" xlink:href="#m1c23a550b9" y="422.234207"/>
      </g>
     </g>
     <g id="text_12">
      <!-- 300 -->
      <g transform="translate(63.9125 426.033426)scale(0.1 -0.1)">
       <use xlink:href="#DejaVuSans-51"/>
       <use x="63.623047" xlink:href="#DejaVuSans-48"/>
       <use x="127.246094" xlink:href="#DejaVuSans-48"/>
      </g>
     </g>
    </g>
    <g id="ytick_5">
     <g id="line2d_12">
      <g>
       <use style="stroke:#000000;stroke-width:0.8;" x="90" xlink:href="#m1c23a550b9" y="361.206955"/>
      </g>
     </g>
     <g id="text_13">
      <!-- 400 -->
      <g transform="translate(63.9125 365.006174)scale(0.1 -0.1)">
       <defs>
        <path d="M 37.796875 64.3125 
L 12.890625 25.390625 
L 37.796875 25.390625 
z
M 35.203125 72.90625 
L 47.609375 72.90625 
L 47.609375 25.390625 
L 58.015625 25.390625 
L 58.015625 17.1875 
L 47.609375 17.1875 
L 47.609375 0 
L 37.796875 0 
L 37.796875 17.1875 
L 4.890625 17.1875 
L 4.890625 26.703125 
z
" id="DejaVuSans-52"/>
       </defs>
       <use xlink:href="#DejaVuSans-52"/>
       <use x="63.623047" xlink:href="#DejaVuSans-48"/>
       <use x="127.246094" xlink:href="#DejaVuSans-48"/>
      </g>
     </g>
    </g>
    <g id="ytick_6">
     <g id="line2d_13">
      <g>
       <use style="stroke:#000000;stroke-width:0.8;" x="90" xlink:href="#m1c23a550b9" y="300.179704"/>
      </g>
     </g>
     <g id="text_14">
      <!-- 500 -->
      <g transform="translate(63.9125 303.978922)scale(0.1 -0.1)">
       <use xlink:href="#DejaVuSans-53"/>
       <use x="63.623047" xlink:href="#DejaVuSans-48"/>
       <use x="127.246094" xlink:href="#DejaVuSans-48"/>
      </g>
     </g>
    </g>
    <g id="ytick_7">
     <g id="line2d_14">
      <g>
       <use style="stroke:#000000;stroke-width:0.8;" x="90" xlink:href="#m1c23a550b9" y="239.152452"/>
      </g>
     </g>
     <g id="text_15">
      <!-- 600 -->
      <g transform="translate(63.9125 242.951671)scale(0.1 -0.1)">
       <defs>
        <path d="M 33.015625 40.375 
Q 26.375 40.375 22.484375 35.828125 
Q 18.609375 31.296875 18.609375 23.390625 
Q 18.609375 15.53125 22.484375 10.953125 
Q 26.375 6.390625 33.015625 6.390625 
Q 39.65625 6.390625 43.53125 10.953125 
Q 47.40625 15.53125 47.40625 23.390625 
Q 47.40625 31.296875 43.53125 35.828125 
Q 39.65625 40.375 33.015625 40.375 
z
M 52.59375 71.296875 
L 52.59375 62.3125 
Q 48.875 64.0625 45.09375 64.984375 
Q 41.3125 65.921875 37.59375 65.921875 
Q 27.828125 65.921875 22.671875 59.328125 
Q 17.53125 52.734375 16.796875 39.40625 
Q 19.671875 43.65625 24.015625 45.921875 
Q 28.375 48.1875 33.59375 48.1875 
Q 44.578125 48.1875 50.953125 41.515625 
Q 57.328125 34.859375 57.328125 23.390625 
Q 57.328125 12.15625 50.6875 5.359375 
Q 44.046875 -1.421875 33.015625 -1.421875 
Q 20.359375 -1.421875 13.671875 8.265625 
Q 6.984375 17.96875 6.984375 36.375 
Q 6.984375 53.65625 15.1875 63.9375 
Q 23.390625 74.21875 37.203125 74.21875 
Q 40.921875 74.21875 44.703125 73.484375 
Q 48.484375 72.75 52.59375 71.296875 
z
" id="DejaVuSans-54"/>
       </defs>
       <use xlink:href="#DejaVuSans-54"/>
       <use x="63.623047" xlink:href="#DejaVuSans-48"/>
       <use x="127.246094" xlink:href="#DejaVuSans-48"/>
      </g>
     </g>
    </g>
    <g id="ytick_8">
     <g id="line2d_15">
      <g>
       <use style="stroke:#000000;stroke-width:0.8;" x="90" xlink:href="#m1c23a550b9" y="178.1252"/>
      </g>
     </g>
     <g id="text_16">
      <!-- 700 -->
      <g transform="translate(63.9125 181.924419)scale(0.1 -0.1)">
       <defs>
        <path d="M 8.203125 72.90625 
L 55.078125 72.90625 
L 55.078125 68.703125 
L 28.609375 0 
L 18.3125 0 
L 43.21875 64.59375 
L 8.203125 64.59375 
z
" id="DejaVuSans-55"/>
       </defs>
       <use xlink:href="#DejaVuSans-55"/>
       <use x="63.623047" xlink:href="#DejaVuSans-48"/>
       <use x="127.246094" xlink:href="#DejaVuSans-48"/>
      </g>
     </g>
    </g>
    <g id="ytick_9">
     <g id="line2d_16">
      <g>
       <use style="stroke:#000000;stroke-width:0.8;" x="90" xlink:href="#m1c23a550b9" y="117.097949"/>
      </g>
     </g>
     <g id="text_17">
      <!-- 800 -->
      <g transform="translate(63.9125 120.897167)scale(0.1 -0.1)">
       <defs>
        <path d="M 31.78125 34.625 
Q 24.75 34.625 20.71875 30.859375 
Q 16.703125 27.09375 16.703125 20.515625 
Q 16.703125 13.921875 20.71875 10.15625 
Q 24.75 6.390625 31.78125 6.390625 
Q 38.8125 6.390625 42.859375 10.171875 
Q 46.921875 13.96875 46.921875 20.515625 
Q 46.921875 27.09375 42.890625 30.859375 
Q 38.875 34.625 31.78125 34.625 
z
M 21.921875 38.8125 
Q 15.578125 40.375 12.03125 44.71875 
Q 8.5 49.078125 8.5 55.328125 
Q 8.5 64.0625 14.71875 69.140625 
Q 20.953125 74.21875 31.78125 74.21875 
Q 42.671875 74.21875 48.875 69.140625 
Q 55.078125 64.0625 55.078125 55.328125 
Q 55.078125 49.078125 51.53125 44.71875 
Q 48 40.375 41.703125 38.8125 
Q 48.828125 37.15625 52.796875 32.3125 
Q 56.78125 27.484375 56.78125 20.515625 
Q 56.78125 9.90625 50.3125 4.234375 
Q 43.84375 -1.421875 31.78125 -1.421875 
Q 19.734375 -1.421875 13.25 4.234375 
Q 6.78125 9.90625 6.78125 20.515625 
Q 6.78125 27.484375 10.78125 32.3125 
Q 14.796875 37.15625 21.921875 38.8125 
z
M 18.3125 54.390625 
Q 18.3125 48.734375 21.84375 45.5625 
Q 25.390625 42.390625 31.78125 42.390625 
Q 38.140625 42.390625 41.71875 45.5625 
Q 45.3125 48.734375 45.3125 54.390625 
Q 45.3125 60.0625 41.71875 63.234375 
Q 38.140625 66.40625 31.78125 66.40625 
Q 25.390625 66.40625 21.84375 63.234375 
Q 18.3125 60.0625 18.3125 54.390625 
z
" id="DejaVuSans-56"/>
       </defs>
       <use xlink:href="#DejaVuSans-56"/>
       <use x="63.623047" xlink:href="#DejaVuSans-48"/>
       <use x="127.246094" xlink:href="#DejaVuSans-48"/>
      </g>
     </g>
    </g>
    <g id="text_18">
     <!-- Loss -->
     <g transform="translate(57.832812 369.167188)rotate(-90)scale(0.1 -0.1)">
      <defs>
       <path d="M 9.8125 72.90625 
L 19.671875 72.90625 
L 19.671875 8.296875 
L 55.171875 8.296875 
L 55.171875 0 
L 9.8125 0 
z
" id="DejaVuSans-76"/>
      </defs>
      <use xlink:href="#DejaVuSans-76"/>
      <use x="53.962891" xlink:href="#DejaVuSans-111"/>
      <use x="115.144531" xlink:href="#DejaVuSans-115"/>
      <use x="167.244141" xlink:href="#DejaVuSans-115"/>
     </g>
    </g>
   </g>
   <g id="line2d_17">
    <path clip-path="url(#p381e69c8d0)" d="M 115.363636 117.211816 
L 120.436364 117.676039 
L 123.818182 118.201609 
L 127.2 119.030007 
L 128.890909 119.598487 
L 130.581818 120.309106 
L 133.963636 122.093847 
L 135.654545 123.177766 
L 137.345455 124.4407 
L 139.036364 125.915388 
L 140.727273 127.659567 
L 142.418182 129.637924 
L 144.109091 131.973863 
L 145.8 134.712379 
L 149.181818 141.008757 
L 152.563636 149.225981 
L 154.254545 153.668 
L 155.945455 158.912418 
L 157.636364 164.641843 
L 159.327273 171.49508 
L 162.709091 187.091632 
L 164.4 196.328597 
L 167.781818 217.361544 
L 171.163636 240.943712 
L 172.854545 254.365871 
L 177.927273 298.592023 
L 179.618182 314.777542 
L 194.836364 469.906654 
L 196.527273 485.214282 
L 198.218182 499.469625 
L 201.6 524.697935 
L 203.290909 535.322707 
L 204.981818 545.031209 
L 206.672727 553.419434 
L 208.363636 560.870745 
L 210.054545 567.229578 
L 211.745455 572.964754 
L 213.436364 577.67844 
L 215.127273 581.867538 
L 216.818182 585.361652 
L 218.509091 588.332019 
L 220.2 590.813717 
L 221.890909 592.903061 
L 223.581818 594.718319 
L 225.272727 596.207928 
L 226.963636 597.433933 
L 228.654545 598.499118 
L 230.345455 599.390268 
L 233.727273 600.730419 
L 237.109091 601.712564 
L 240.490909 602.429939 
L 243.872727 602.965015 
L 248.945455 603.51762 
L 255.709091 603.983885 
L 264.163636 604.345271 
L 276 604.617091 
L 296.290909 604.806918 
L 343.636364 604.977153 
L 467.072727 605.15168 
L 622.636364 605.223537 
L 622.636364 605.223537 
" style="fill:none;stroke:#1f77b4;stroke-linecap:square;stroke-width:1.5;"/>
   </g>
   <g id="line2d_18">
    <path clip-path="url(#p381e69c8d0)" d="M 115.363636 483.311706 
L 122.127273 483.602176 
L 127.2 484.04757 
L 130.581818 484.528285 
L 135.654545 485.542969 
L 140.727273 486.825774 
L 144.109091 487.904804 
L 147.490909 489.33514 
L 149.181818 490.120143 
L 150.872727 491.311588 
L 154.254545 494.09483 
L 157.636364 497.182397 
L 159.327273 499.088903 
L 164.4 505.782578 
L 171.163636 517.126294 
L 172.854545 520.313473 
L 174.545455 524.082298 
L 177.927273 532.066014 
L 179.618182 535.815322 
L 181.309091 539.973595 
L 183 544.601064 
L 186.381818 553.06913 
L 188.072727 556.885238 
L 191.454545 565.526727 
L 194.836364 573.174006 
L 199.909091 583.289341 
L 201.6 585.998806 
L 203.290909 588.150724 
L 204.981818 590.491086 
L 206.672727 592.599865 
L 208.363636 594.320114 
L 211.745455 597.267046 
L 213.436364 598.445697 
L 215.127273 599.450902 
L 218.509091 601.090923 
L 220.2 601.756673 
L 223.581818 602.694606 
L 226.963636 603.308411 
L 232.036364 603.982616 
L 237.109091 604.384077 
L 245.563636 604.761949 
L 255.709091 604.969337 
L 274.309091 605.122881 
L 323.345455 605.208825 
L 534.709091 605.282454 
L 622.636364 605.290909 
L 622.636364 605.290909 
" style="fill:none;stroke:#1f77b4;stroke-dasharray:9.6,2.4,1.5,2.4;stroke-dashoffset:0;stroke-width:1.5;"/>
   </g>
   <g id="line2d_19">
    <path clip-path="url(#p381e69c8d0)" d="M 115.363636 117.211816 
L 120.436364 117.653876 
L 125.509091 118.364383 
L 128.890909 119.097351 
L 133.963636 120.581687 
L 137.345455 121.7442 
L 142.418182 123.889093 
L 145.8 125.584849 
L 149.181818 127.559034 
L 152.563636 129.766877 
L 157.636364 133.470863 
L 161.018182 136.30235 
L 166.090909 140.497527 
L 174.545455 148.255855 
L 177.927273 152.244491 
L 179.618182 153.932164 
L 181.309091 155.25868 
L 183 157.540571 
L 184.690909 158.670231 
L 186.381818 158.67105 
L 188.072727 160.533268 
L 189.763636 164.42532 
L 191.454545 165.372054 
L 193.145455 168.39928 
L 194.836364 168.761331 
L 196.527273 172.264848 
L 198.218182 173.149304 
L 199.909091 174.952446 
L 201.6 176.502525 
L 203.290909 181.488404 
L 204.981818 181.058971 
L 206.672727 184.340973 
L 208.363636 184.366675 
L 210.054545 190.1662 
L 211.745455 190.860542 
L 213.436364 195.60848 
L 215.127273 197.064098 
L 216.818182 200.752589 
L 218.509091 204.150396 
L 220.2 205.833003 
L 221.890909 209.643146 
L 223.581818 212.898628 
L 225.272727 215.636846 
L 226.963636 219.245664 
L 228.654545 221.174257 
L 230.345455 224.319262 
L 232.036364 224.861482 
L 233.727273 231.392299 
L 235.418182 233.883413 
L 237.109091 231.9559 
L 238.8 242.337833 
L 240.490909 234.93515 
L 242.181818 241.591829 
L 243.872727 245.091286 
L 247.254545 258.764832 
L 248.945455 261.279524 
L 254.018182 274.80147 
L 255.709091 277.521884 
L 257.4 275.693376 
L 259.090909 286.532529 
L 260.781818 289.326806 
L 262.472727 283.779226 
L 264.163636 298.061964 
L 265.854545 294.812144 
L 267.545455 290.903591 
L 269.236364 305.723633 
L 270.927273 294.652033 
L 272.618182 318.029151 
L 274.309091 309.107007 
L 276 325.690279 
L 277.690909 315.844774 
L 279.381818 329.917378 
L 281.072727 329.299879 
L 282.763636 340.419585 
L 284.454545 347.485918 
L 286.145455 348.704955 
L 287.836364 355.52707 
L 289.527273 360.52323 
L 291.218182 362.224852 
L 292.909091 368.448168 
L 294.6 372.064286 
L 296.290909 377.414991 
L 297.981818 380.862133 
L 299.672727 382.201574 
L 301.363636 387.31756 
L 303.054545 388.653723 
L 304.745455 398.129709 
L 306.436364 403.108008 
L 309.818182 412.091928 
L 311.509091 415.189292 
L 313.2 419.284271 
L 314.890909 418.382588 
L 316.581818 423.406646 
L 318.272727 419.629579 
L 319.963636 433.750791 
L 321.654545 439.506737 
L 323.345455 442.549011 
L 325.036364 445.16256 
L 326.727273 442.83219 
L 328.418182 452.458602 
L 330.109091 456.622518 
L 331.8 461.34427 
L 333.490909 464.378657 
L 335.181818 465.412142 
L 336.872727 468.764544 
L 338.563636 468.007402 
L 340.254545 474.782753 
L 341.945455 477.683224 
L 343.636364 483.315664 
L 347.018182 489.952461 
L 348.709091 492.6142 
L 350.4 494.832816 
L 352.090909 497.475121 
L 353.781818 497.975921 
L 355.472727 501.418612 
L 357.163636 503.186564 
L 358.854545 507.485393 
L 360.545455 509.156686 
L 362.236364 512.574654 
L 363.927273 514.440903 
L 365.618182 517.495199 
L 367.309091 519.44846 
L 369 521.89686 
L 370.690909 523.699109 
L 372.381818 525.74197 
L 374.072727 527.41663 
L 375.763636 528.880861 
L 377.454545 530.17776 
L 379.145455 528.784272 
L 380.836364 530.501735 
L 382.527273 530.245561 
L 384.218182 536.47377 
L 385.909091 539.234114 
L 387.6 541.492525 
L 389.290909 542.747664 
L 390.981818 542.809836 
L 392.672727 545.069677 
L 394.363636 546.261182 
L 396.054545 548.294103 
L 397.745455 549.576494 
L 399.436364 550.512077 
L 401.127273 551.683246 
L 402.818182 552.36104 
L 404.509091 553.913809 
L 406.2 554.754731 
L 407.890909 556.268586 
L 409.581818 557.289496 
L 411.272727 558.614503 
L 412.963636 559.652509 
L 414.654545 560.489115 
L 416.345455 561.560775 
L 418.036364 562.370567 
L 419.727273 563.476504 
L 424.8 566.029403 
L 426.490909 566.749253 
L 428.181818 567.608922 
L 441.709091 573.17358 
L 448.472727 575.576719 
L 456.927273 578.19789 
L 463.690909 580.04478 
L 472.145455 582.140888 
L 482.290909 584.331154 
L 489.054545 585.635844 
L 499.2 587.360631 
L 512.727273 589.33712 
L 526.254545 591.01383 
L 539.781818 592.445063 
L 556.690909 593.946035 
L 571.909091 595.080606 
L 593.890909 596.442021 
L 619.254545 597.700992 
L 622.636364 597.84912 
L 622.636364 597.84912 
" style="fill:none;stroke:#ff7f0e;stroke-linecap:square;stroke-width:1.5;"/>
   </g>
   <g id="line2d_20">
    <path clip-path="url(#p381e69c8d0)" d="M 115.363636 483.311706 
L 123.818182 483.674968 
L 128.890909 484.067051 
L 145.8 485.82733 
L 149.181818 486.37538 
L 154.254545 487.539801 
L 157.636364 488.435682 
L 162.709091 489.270375 
L 164.4 489.483024 
L 167.781818 490.316273 
L 169.472727 490.857189 
L 171.163636 491.265866 
L 172.854545 491.559604 
L 176.236364 492.477304 
L 177.927273 493.232918 
L 179.618182 493.666281 
L 181.309091 494.230478 
L 183 494.593628 
L 184.690909 494.549303 
L 186.381818 495.750479 
L 188.072727 496.303734 
L 189.763636 496.629142 
L 191.454545 496.416968 
L 193.145455 497.449848 
L 194.836364 497.785341 
L 196.527273 498.313193 
L 198.218182 498.506296 
L 199.909091 499.79102 
L 203.290909 500.951754 
L 204.981818 500.383181 
L 206.672727 502.297285 
L 208.363636 502.645359 
L 210.054545 503.440978 
L 211.745455 502.975228 
L 213.436364 504.906289 
L 215.127273 505.462105 
L 216.818182 505.634079 
L 218.509091 506.760871 
L 220.2 507.653195 
L 221.890909 508.0175 
L 223.581818 509.068939 
L 225.272727 509.871495 
L 226.963636 510.357527 
L 228.654545 511.301542 
L 230.345455 511.407662 
L 232.036364 512.795618 
L 233.727273 513.818656 
L 235.418182 513.818395 
L 237.109091 515.242631 
L 238.8 516.407658 
L 240.490909 513.541008 
L 242.181818 517.184206 
L 243.872727 518.045093 
L 245.563636 517.461099 
L 247.254545 520.145707 
L 248.945455 521.287342 
L 250.636364 521.519025 
L 252.327273 523.421136 
L 254.018182 524.070863 
L 255.709091 524.21181 
L 257.4 525.460226 
L 259.090909 526.854636 
L 260.781818 527.100007 
L 262.472727 527.976143 
L 264.163636 529.885856 
L 265.854545 527.998799 
L 267.545455 530.637811 
L 269.236364 532.672176 
L 270.927273 526.786993 
L 272.618182 534.302724 
L 274.309091 534.655543 
L 276 536.621552 
L 277.690909 531.983947 
L 279.381818 537.800561 
L 282.763636 538.724546 
L 284.454545 541.245366 
L 286.145455 542.693701 
L 287.836364 543.104333 
L 289.527273 544.386347 
L 291.218182 545.984979 
L 292.909091 546.417112 
L 294.6 547.88065 
L 296.290909 549.072723 
L 297.981818 549.576992 
L 299.672727 551.18922 
L 301.363636 550.713077 
L 303.054545 553.062118 
L 304.745455 553.617608 
L 306.436364 555.594866 
L 308.127273 556.331871 
L 309.818182 557.242656 
L 311.509091 558.552271 
L 313.2 558.70902 
L 314.890909 559.863124 
L 316.581818 559.140981 
L 318.272727 561.311678 
L 319.963636 562.263795 
L 321.654545 564.126781 
L 323.345455 565.064566 
L 325.036364 564.694833 
L 326.727273 566.185273 
L 328.418182 566.362685 
L 330.109091 568.755183 
L 331.8 569.477125 
L 333.490909 569.749302 
L 335.181818 571.092518 
L 336.872727 570.675575 
L 338.563636 572.223992 
L 340.254545 571.920562 
L 341.945455 574.353811 
L 343.636364 574.651456 
L 345.327273 575.7196 
L 347.018182 576.210237 
L 348.709091 576.845999 
L 350.4 577.874795 
L 352.090909 577.782562 
L 353.781818 579.282507 
L 355.472727 578.920831 
L 357.163636 580.410577 
L 358.854545 580.183438 
L 360.545455 581.64398 
L 362.236364 581.701137 
L 363.927273 582.773071 
L 365.618182 582.948985 
L 367.309091 583.944302 
L 370.690909 584.705474 
L 372.381818 585.373848 
L 374.072727 585.713611 
L 375.763636 586.399069 
L 377.454545 585.997828 
L 379.145455 586.88986 
L 380.836364 585.848484 
L 382.527273 587.415357 
L 384.218182 587.342452 
L 385.909091 588.896406 
L 387.6 589.182469 
L 389.290909 589.193566 
L 390.981818 589.886063 
L 392.672727 589.651704 
L 394.363636 590.630274 
L 396.054545 590.709837 
L 399.436364 591.569272 
L 401.127273 591.591761 
L 402.818182 592.197313 
L 404.509091 592.080067 
L 406.2 592.736325 
L 407.890909 592.753887 
L 409.581818 593.309399 
L 411.272727 593.443557 
L 414.654545 594.068551 
L 416.345455 594.098247 
L 418.036364 594.527482 
L 419.727273 594.626886 
L 423.109091 595.169924 
L 424.8 595.2615 
L 426.490909 595.581783 
L 428.181818 595.673258 
L 429.872727 595.95693 
L 433.254545 596.267983 
L 434.945455 596.473492 
L 436.636364 596.563389 
L 438.327273 596.824686 
L 440.018182 596.893337 
L 443.4 597.261705 
L 445.090909 597.36328 
L 446.781818 597.578466 
L 450.163636 597.827377 
L 460.309091 598.607923 
L 463.690909 598.819552 
L 482.290909 599.891162 
L 514.418182 601.214872 
L 538.090909 601.904402 
L 575.290909 602.681106 
L 605.727273 603.125463 
L 622.636364 603.334395 
L 622.636364 603.334395 
" style="fill:none;stroke:#ff7f0e;stroke-dasharray:9.6,2.4,1.5,2.4;stroke-dashoffset:0;stroke-width:1.5;"/>
   </g>
   <g id="line2d_21">
    <path clip-path="url(#p381e69c8d0)" d="M 115.363636 117.089754 
L 118.745455 117.401334 
L 122.127273 117.922323 
L 125.509091 118.789384 
L 127.2 119.441672 
L 128.890909 120.266456 
L 130.581818 121.313872 
L 132.272727 122.53222 
L 133.963636 123.9583 
L 135.654545 125.648729 
L 137.345455 127.689254 
L 139.036364 130.254342 
L 140.727273 133.480771 
L 144.109091 141.125455 
L 145.8 146.081908 
L 149.181818 157.669003 
L 152.563636 172.199404 
L 154.254545 180.674831 
L 157.636364 200.408305 
L 161.018182 226.12475 
L 164.4 256.966197 
L 166.090909 275.454467 
L 167.781818 295.452699 
L 169.472727 319.198293 
L 171.163636 345.052408 
L 174.545455 401.880591 
L 179.618182 491.878839 
L 181.309091 516.551044 
L 183 539.269197 
L 184.690909 556.253254 
L 186.381818 570.212006 
L 188.072727 580.542612 
L 189.763636 587.81237 
L 191.454545 593.249985 
L 193.145455 596.969111 
L 194.836364 599.360325 
L 196.527273 600.947572 
L 198.218182 602.15675 
L 199.909091 603.021879 
L 201.6 603.580457 
L 204.981818 604.188823 
L 208.363636 604.503414 
L 213.436364 604.723026 
L 223.581818 604.83783 
L 262.472727 604.880088 
L 622.636364 604.887636 
L 622.636364 604.887636 
" style="fill:none;stroke:#2ca02c;stroke-linecap:square;stroke-width:1.5;"/>
   </g>
   <g id="line2d_22">
    <path clip-path="url(#p381e69c8d0)" d="M 115.363636 483.189654 
L 120.436364 483.413897 
L 123.818182 483.693192 
L 127.2 484.135224 
L 130.581818 484.802682 
L 133.963636 485.677304 
L 137.345455 486.861513 
L 139.036364 487.641926 
L 140.727273 488.588027 
L 144.109091 490.74552 
L 145.8 492.196006 
L 149.181818 495.855993 
L 152.563636 499.939081 
L 154.254545 502.276016 
L 157.636364 507.816733 
L 159.327273 511.150054 
L 161.018182 514.836422 
L 164.4 523.364854 
L 167.781818 534.259265 
L 169.472727 540.063079 
L 171.163636 546.748443 
L 174.545455 561.544083 
L 176.236364 567.488304 
L 179.618182 581.598716 
L 181.309091 586.754114 
L 183 591.212519 
L 184.690909 594.247509 
L 186.381818 597.004872 
L 188.072727 599.288148 
L 189.763636 600.877846 
L 191.454545 602.012581 
L 193.145455 602.82315 
L 194.836364 603.404649 
L 198.218182 604.112194 
L 201.6 604.5134 
L 206.672727 604.756683 
L 215.127273 604.860732 
L 252.327273 604.888753 
L 622.636364 604.89225 
L 622.636364 604.89225 
" style="fill:none;stroke:#2ca02c;stroke-dasharray:9.6,2.4,1.5,2.4;stroke-dashoffset:0;stroke-width:1.5;"/>
   </g>
   <g id="line2d_23">
    <path clip-path="url(#p381e69c8d0)" d="M 115.363636 115.991271 
L 120.436364 116.514532 
L 123.818182 117.070199 
L 125.509091 117.474303 
L 127.2 118.007398 
L 130.581818 119.474115 
L 132.272727 120.373805 
L 133.963636 121.428634 
L 135.654545 122.676035 
L 137.345455 124.21777 
L 139.036364 126.204359 
L 140.727273 128.786694 
L 142.418182 131.947044 
L 145.8 139.11391 
L 149.181818 149.303271 
L 150.872727 154.691615 
L 152.563636 161.931673 
L 154.254545 170.03421 
L 155.945455 179.04452 
L 157.636364 189.428577 
L 159.327273 200.712212 
L 161.018182 213.633868 
L 164.4 242.404843 
L 166.090909 257.890396 
L 169.472727 291.633579 
L 172.854545 327.583096 
L 181.309091 432.266139 
L 186.381818 497.767108 
L 191.454545 551.026725 
L 193.145455 563.469944 
L 194.836364 574.64122 
L 196.527273 582.661876 
L 198.218182 588.520077 
L 199.909091 592.626332 
L 201.6 595.483468 
L 203.290909 597.488782 
L 204.981818 598.704156 
L 206.672727 599.435702 
L 210.054545 600.460136 
L 211.745455 600.752811 
L 215.127273 601.045604 
L 221.890909 601.326339 
L 232.036364 601.414015 
L 347.018182 601.452777 
L 622.636364 601.615463 
L 622.636364 601.615463 
" style="fill:none;stroke:#d62728;stroke-linecap:square;stroke-width:1.5;"/>
   </g>
   <g id="line2d_24">
    <path clip-path="url(#p381e69c8d0)" d="M 115.363636 482.091161 
L 123.818182 482.607569 
L 128.890909 483.18348 
L 133.963636 484.003394 
L 137.345455 484.716313 
L 139.036364 485.217411 
L 140.727273 485.868238 
L 142.418182 486.664583 
L 145.8 488.586286 
L 147.490909 490.176192 
L 154.254545 497.463667 
L 155.945455 499.71116 
L 159.327273 505.968632 
L 161.018182 509.2932 
L 162.709091 513.694061 
L 164.4 518.447968 
L 166.090909 522.374455 
L 169.472727 531.999047 
L 172.854545 541.372987 
L 177.927273 556.605463 
L 179.618182 560.650674 
L 181.309091 566.020981 
L 183 570.165961 
L 186.381818 580.050518 
L 189.763636 587.84361 
L 191.454545 591.250261 
L 193.145455 593.864103 
L 194.836364 596.173681 
L 196.527273 597.82058 
L 198.218182 599.031691 
L 199.909091 599.90065 
L 201.6 600.502675 
L 203.290909 600.915944 
L 206.672727 601.25895 
L 211.745455 601.502568 
L 221.890909 601.53759 
L 291.218182 601.448212 
L 622.636364 601.655606 
L 622.636364 601.655606 
" style="fill:none;stroke:#d62728;stroke-dasharray:9.6,2.4,1.5,2.4;stroke-dashoffset:0;stroke-width:1.5;"/>
   </g>
   <g id="line2d_25">
    <path clip-path="url(#p381e69c8d0)" d="M 115.363636 113.672243 
L 125.509091 115.207013 
L 128.890909 115.972684 
L 132.272727 116.957263 
L 135.654545 118.315067 
L 137.345455 119.125362 
L 139.036364 120.13363 
L 140.727273 121.450722 
L 142.418182 123.216244 
L 144.109091 125.514711 
L 145.8 128.221193 
L 147.490909 131.155671 
L 149.181818 134.449705 
L 152.563636 143.790182 
L 154.254545 149.13882 
L 155.945455 155.605198 
L 157.636364 163.47799 
L 159.327273 172.279636 
L 161.018182 182.531276 
L 164.4 207.600685 
L 166.090909 221.440134 
L 169.472727 250.518852 
L 171.163636 263.650513 
L 172.854545 277.670615 
L 176.236364 303.432429 
L 177.927273 325.524265 
L 179.618182 338.848983 
L 181.309091 359.696509 
L 183 376.630547 
L 188.072727 441.030295 
L 193.145455 512.225276 
L 194.836364 533.678912 
L 196.527273 551.757486 
L 198.218182 565.190986 
L 199.909091 574.259054 
L 201.6 580.597052 
L 203.290909 584.886488 
L 204.981818 587.79136 
L 206.672727 589.800163 
L 208.363636 591.157694 
L 210.054545 592.073872 
L 211.745455 592.743745 
L 213.436364 593.232275 
L 216.818182 593.825226 
L 220.2 594.117723 
L 225.272727 594.302276 
L 233.727273 594.356908 
L 281.072727 594.365948 
L 418.036364 594.967522 
L 622.636364 595.75051 
L 622.636364 595.75051 
" style="fill:none;stroke:#9467bd;stroke-linecap:square;stroke-width:1.5;"/>
   </g>
   <g id="line2d_26">
    <path clip-path="url(#p381e69c8d0)" d="M 115.363636 479.772124 
L 123.818182 480.615495 
L 133.963636 481.413479 
L 139.036364 481.749662 
L 140.727273 481.985274 
L 142.418182 482.35999 
L 144.109091 482.896195 
L 147.490909 484.367056 
L 149.181818 485.278088 
L 152.563636 488.056246 
L 154.254545 489.605291 
L 155.945455 491.325184 
L 157.636364 493.326737 
L 159.327273 495.868052 
L 161.018182 498.15203 
L 162.709091 501.341629 
L 167.781818 512.998211 
L 169.472727 517.787718 
L 171.163636 521.514239 
L 174.545455 528.435579 
L 176.236364 533.6742 
L 177.927273 537.939478 
L 179.618182 539.876368 
L 181.309091 545.431686 
L 183 550.381742 
L 184.690909 553.991039 
L 186.381818 558.604143 
L 188.072727 564.059734 
L 194.836364 583.552292 
L 196.527273 587.083256 
L 198.218182 589.479375 
L 199.909091 591.102745 
L 201.6 592.296176 
L 203.290909 593.172782 
L 204.981818 593.776718 
L 206.672727 594.198312 
L 208.363636 594.480055 
L 211.745455 594.718972 
L 216.818182 594.766146 
L 264.163636 594.367811 
L 311.509091 594.544339 
L 588.818182 595.778936 
L 622.636364 595.902367 
L 622.636364 595.902367 
" style="fill:none;stroke:#9467bd;stroke-dasharray:9.6,2.4,1.5,2.4;stroke-dashoffset:0;stroke-width:1.5;"/>
   </g>
   <g id="line2d_27">
    <path clip-path="url(#p381e69c8d0)" d="M 115.363636 111.109091 
L 122.127273 112.497178 
L 132.272727 114.561913 
L 137.345455 115.8133 
L 140.727273 116.939086 
L 142.418182 117.711909 
L 144.109091 118.718166 
L 145.8 120.035667 
L 147.490909 121.745503 
L 149.181818 123.82998 
L 150.872727 126.259002 
L 152.563636 129.099838 
L 154.254545 132.923614 
L 155.945455 137.068394 
L 157.636364 142.027529 
L 159.327273 147.993516 
L 161.018182 155.302781 
L 162.709091 163.939158 
L 164.4 173.622094 
L 166.090909 184.230794 
L 167.781818 195.662601 
L 172.854545 234.897194 
L 174.545455 247.844552 
L 176.236364 263.767174 
L 179.618182 291.892006 
L 181.309091 301.003222 
L 183 310.983751 
L 184.690909 315.352951 
L 186.381818 330.587191 
L 188.072727 337.085975 
L 189.763636 339.304135 
L 191.454545 344.64497 
L 193.145455 350.764159 
L 194.836364 359.861667 
L 196.527273 365.035592 
L 198.218182 375.310959 
L 199.909091 381.130859 
L 201.6 385.638547 
L 203.290909 393.361974 
L 204.981818 403.856732 
L 206.672727 419.620752 
L 210.054545 444.77937 
L 213.436364 472.074259 
L 215.127273 488.437768 
L 216.818182 503.716129 
L 220.2 531.500188 
L 221.890909 544.111638 
L 223.581818 554.600194 
L 225.272727 561.391468 
L 226.963636 569.528369 
L 228.654545 574.110253 
L 230.345455 578.341923 
L 232.036364 581.482956 
L 233.727273 583.2676 
L 235.418182 584.51714 
L 237.109091 585.514462 
L 238.8 586.18831 
L 240.490909 586.565091 
L 242.181818 586.716885 
L 245.563636 586.802693 
L 250.636364 587.262738 
L 255.709091 587.270018 
L 262.472727 587.362193 
L 274.309091 587.450272 
L 426.490909 589.338364 
L 514.418182 590.124461 
L 622.636364 590.911125 
L 622.636364 590.911125 
" style="fill:none;stroke:#8c564b;stroke-linecap:square;stroke-width:1.5;"/>
   </g>
   <g id="line2d_28">
    <path clip-path="url(#p381e69c8d0)" d="M 115.363636 477.208981 
L 120.436364 478.113625 
L 125.509091 478.834338 
L 130.581818 479.330474 
L 133.963636 479.516872 
L 139.036364 479.502625 
L 142.418182 479.530393 
L 144.109091 479.652697 
L 147.490909 480.237958 
L 149.181818 480.728683 
L 152.563636 482.116555 
L 155.945455 484.365594 
L 159.327273 486.983994 
L 161.018182 488.794912 
L 166.090909 495.825664 
L 167.781818 499.394188 
L 169.472727 502.678873 
L 174.545455 513.750855 
L 176.236364 518.802029 
L 177.927273 522.647335 
L 179.618182 526.172865 
L 181.309091 529.249771 
L 183 530.506926 
L 184.690909 533.024314 
L 186.381818 535.856127 
L 188.072727 537.100306 
L 189.763636 538.071876 
L 191.454545 538.563071 
L 193.145455 540.009833 
L 194.836364 542.362561 
L 196.527273 543.337525 
L 198.218182 545.899383 
L 199.909091 547.048458 
L 201.6 547.738711 
L 203.290909 549.33319 
L 204.981818 551.818326 
L 206.672727 554.688607 
L 211.745455 562.509949 
L 213.436364 565.361578 
L 216.818182 571.79018 
L 218.509091 574.338472 
L 221.890909 579.838048 
L 223.581818 581.855011 
L 225.272727 582.836449 
L 226.963636 584.645188 
L 230.345455 586.2492 
L 232.036364 586.787784 
L 235.418182 587.249236 
L 238.8 587.465774 
L 243.872727 587.463402 
L 255.709091 587.451144 
L 272.618182 587.52525 
L 299.672727 587.834703 
L 434.945455 589.585993 
L 516.109091 590.354379 
L 622.636364 591.151361 
L 622.636364 591.151361 
" style="fill:none;stroke:#8c564b;stroke-dasharray:9.6,2.4,1.5,2.4;stroke-dashoffset:0;stroke-width:1.5;"/>
   </g>
   <g id="patch_4">
    <path d="M 90 630 
L 90 86.4 
" style="fill:none;stroke:#000000;stroke-linecap:square;stroke-linejoin:miter;stroke-width:0.8;"/>
   </g>
   <g id="patch_5">
    <path d="M 648 630 
L 648 86.4 
" style="fill:none;stroke:#000000;stroke-linecap:square;stroke-linejoin:miter;stroke-width:0.8;"/>
   </g>
   <g id="patch_6">
    <path d="M 90 630 
L 648 630 
" style="fill:none;stroke:#000000;stroke-linecap:square;stroke-linejoin:miter;stroke-width:0.8;"/>
   </g>
   <g id="patch_7">
    <path d="M 90 86.4 
L 648 86.4 
" style="fill:none;stroke:#000000;stroke-linecap:square;stroke-linejoin:miter;stroke-width:0.8;"/>
   </g>
   <g id="text_19">
    <!-- Class separation -->
    <g transform="translate(247.254545 575.64)scale(0.1 -0.1)">
     <defs>
      <path d="M 64.40625 67.28125 
L 64.40625 56.890625 
Q 59.421875 61.53125 53.78125 63.8125 
Q 48.140625 66.109375 41.796875 66.109375 
Q 29.296875 66.109375 22.65625 58.46875 
Q 16.015625 50.828125 16.015625 36.375 
Q 16.015625 21.96875 22.65625 14.328125 
Q 29.296875 6.6875 41.796875 6.6875 
Q 48.140625 6.6875 53.78125 8.984375 
Q 59.421875 11.28125 64.40625 15.921875 
L 64.40625 5.609375 
Q 59.234375 2.09375 53.4375 0.328125 
Q 47.65625 -1.421875 41.21875 -1.421875 
Q 24.65625 -1.421875 15.125 8.703125 
Q 5.609375 18.84375 5.609375 36.375 
Q 5.609375 53.953125 15.125 64.078125 
Q 24.65625 74.21875 41.21875 74.21875 
Q 47.75 74.21875 53.53125 72.484375 
Q 59.328125 70.75 64.40625 67.28125 
z
" id="DejaVuSans-67"/>
      <path d="M 9.421875 75.984375 
L 18.40625 75.984375 
L 18.40625 0 
L 9.421875 0 
z
" id="DejaVuSans-108"/>
      <path d="M 34.28125 27.484375 
Q 23.390625 27.484375 19.1875 25 
Q 14.984375 22.515625 14.984375 16.5 
Q 14.984375 11.71875 18.140625 8.90625 
Q 21.296875 6.109375 26.703125 6.109375 
Q 34.1875 6.109375 38.703125 11.40625 
Q 43.21875 16.703125 43.21875 25.484375 
L 43.21875 27.484375 
z
M 52.203125 31.203125 
L 52.203125 0 
L 43.21875 0 
L 43.21875 8.296875 
Q 40.140625 3.328125 35.546875 0.953125 
Q 30.953125 -1.421875 24.3125 -1.421875 
Q 15.921875 -1.421875 10.953125 3.296875 
Q 6 8.015625 6 15.921875 
Q 6 25.140625 12.171875 29.828125 
Q 18.359375 34.515625 30.609375 34.515625 
L 43.21875 34.515625 
L 43.21875 35.40625 
Q 43.21875 41.609375 39.140625 45 
Q 35.0625 48.390625 27.6875 48.390625 
Q 23 48.390625 18.546875 47.265625 
Q 14.109375 46.140625 10.015625 43.890625 
L 10.015625 52.203125 
Q 14.9375 54.109375 19.578125 55.046875 
Q 24.21875 56 28.609375 56 
Q 40.484375 56 46.34375 49.84375 
Q 52.203125 43.703125 52.203125 31.203125 
z
" id="DejaVuSans-97"/>
      <path id="DejaVuSans-32"/>
      <path d="M 56.203125 29.59375 
L 56.203125 25.203125 
L 14.890625 25.203125 
Q 15.484375 15.921875 20.484375 11.0625 
Q 25.484375 6.203125 34.421875 6.203125 
Q 39.59375 6.203125 44.453125 7.46875 
Q 49.3125 8.734375 54.109375 11.28125 
L 54.109375 2.78125 
Q 49.265625 0.734375 44.1875 -0.34375 
Q 39.109375 -1.421875 33.890625 -1.421875 
Q 20.796875 -1.421875 13.15625 6.1875 
Q 5.515625 13.8125 5.515625 26.8125 
Q 5.515625 40.234375 12.765625 48.109375 
Q 20.015625 56 32.328125 56 
Q 43.359375 56 49.78125 48.890625 
Q 56.203125 41.796875 56.203125 29.59375 
z
M 47.21875 32.234375 
Q 47.125 39.59375 43.09375 43.984375 
Q 39.0625 48.390625 32.421875 48.390625 
Q 24.90625 48.390625 20.390625 44.140625 
Q 15.875 39.890625 15.1875 32.171875 
z
" id="DejaVuSans-101"/>
      <path d="M 41.109375 46.296875 
Q 39.59375 47.171875 37.8125 47.578125 
Q 36.03125 48 33.890625 48 
Q 26.265625 48 22.1875 43.046875 
Q 18.109375 38.09375 18.109375 28.8125 
L 18.109375 0 
L 9.078125 0 
L 9.078125 54.6875 
L 18.109375 54.6875 
L 18.109375 46.1875 
Q 20.953125 51.171875 25.484375 53.578125 
Q 30.03125 56 36.53125 56 
Q 37.453125 56 38.578125 55.875 
Q 39.703125 55.765625 41.0625 55.515625 
z
" id="DejaVuSans-114"/>
      <path d="M 18.3125 70.21875 
L 18.3125 54.6875 
L 36.8125 54.6875 
L 36.8125 47.703125 
L 18.3125 47.703125 
L 18.3125 18.015625 
Q 18.3125 11.328125 20.140625 9.421875 
Q 21.96875 7.515625 27.59375 7.515625 
L 36.8125 7.515625 
L 36.8125 0 
L 27.59375 0 
Q 17.1875 0 13.234375 3.875 
Q 9.28125 7.765625 9.28125 18.015625 
L 9.28125 47.703125 
L 2.6875 47.703125 
L 2.6875 54.6875 
L 9.28125 54.6875 
L 9.28125 70.21875 
z
" id="DejaVuSans-116"/>
      <path d="M 9.421875 54.6875 
L 18.40625 54.6875 
L 18.40625 0 
L 9.421875 0 
z
M 9.421875 75.984375 
L 18.40625 75.984375 
L 18.40625 64.59375 
L 9.421875 64.59375 
z
" id="DejaVuSans-105"/>
      <path d="M 54.890625 33.015625 
L 54.890625 0 
L 45.90625 0 
L 45.90625 32.71875 
Q 45.90625 40.484375 42.875 44.328125 
Q 39.84375 48.1875 33.796875 48.1875 
Q 26.515625 48.1875 22.3125 43.546875 
Q 18.109375 38.921875 18.109375 30.90625 
L 18.109375 0 
L 9.078125 0 
L 9.078125 54.6875 
L 18.109375 54.6875 
L 18.109375 46.1875 
Q 21.34375 51.125 25.703125 53.5625 
Q 30.078125 56 35.796875 56 
Q 45.21875 56 50.046875 50.171875 
Q 54.890625 44.34375 54.890625 33.015625 
z
" id="DejaVuSans-110"/>
     </defs>
     <use xlink:href="#DejaVuSans-67"/>
     <use x="69.824219" xlink:href="#DejaVuSans-108"/>
     <use x="97.607422" xlink:href="#DejaVuSans-97"/>
     <use x="158.886719" xlink:href="#DejaVuSans-115"/>
     <use x="210.986328" xlink:href="#DejaVuSans-115"/>
     <use x="263.085938" xlink:href="#DejaVuSans-32"/>
     <use x="294.873047" xlink:href="#DejaVuSans-115"/>
     <use x="346.972656" xlink:href="#DejaVuSans-101"/>
     <use x="408.496094" xlink:href="#DejaVuSans-112"/>
     <use x="471.972656" xlink:href="#DejaVuSans-97"/>
     <use x="533.251953" xlink:href="#DejaVuSans-114"/>
     <use x="574.365234" xlink:href="#DejaVuSans-97"/>
     <use x="635.644531" xlink:href="#DejaVuSans-116"/>
     <use x="674.853516" xlink:href="#DejaVuSans-105"/>
     <use x="702.636719" xlink:href="#DejaVuSans-111"/>
     <use x="763.818359" xlink:href="#DejaVuSans-110"/>
    </g>
   </g>
   <g id="text_20">
    <!-- Training progress -->
    <g transform="translate(300.36875 66.4)scale(0.16 -0.16)">
     <defs>
      <path d="M -0.296875 72.90625 
L 61.375 72.90625 
L 61.375 64.59375 
L 35.5 64.59375 
L 35.5 0 
L 25.59375 0 
L 25.59375 64.59375 
L -0.296875 64.59375 
z
" id="DejaVuSans-84"/>
      <path d="M 45.40625 27.984375 
Q 45.40625 37.75 41.375 43.109375 
Q 37.359375 48.484375 30.078125 48.484375 
Q 22.859375 48.484375 18.828125 43.109375 
Q 14.796875 37.75 14.796875 27.984375 
Q 14.796875 18.265625 18.828125 12.890625 
Q 22.859375 7.515625 30.078125 7.515625 
Q 37.359375 7.515625 41.375 12.890625 
Q 45.40625 18.265625 45.40625 27.984375 
z
M 54.390625 6.78125 
Q 54.390625 -7.171875 48.1875 -13.984375 
Q 42 -20.796875 29.203125 -20.796875 
Q 24.46875 -20.796875 20.265625 -20.09375 
Q 16.0625 -19.390625 12.109375 -17.921875 
L 12.109375 -9.1875 
Q 16.0625 -11.328125 19.921875 -12.34375 
Q 23.78125 -13.375 27.78125 -13.375 
Q 36.625 -13.375 41.015625 -8.765625 
Q 45.40625 -4.15625 45.40625 5.171875 
L 45.40625 9.625 
Q 42.625 4.78125 38.28125 2.390625 
Q 33.9375 0 27.875 0 
Q 17.828125 0 11.671875 7.65625 
Q 5.515625 15.328125 5.515625 27.984375 
Q 5.515625 40.671875 11.671875 48.328125 
Q 17.828125 56 27.875 56 
Q 33.9375 56 38.28125 53.609375 
Q 42.625 51.21875 45.40625 46.390625 
L 45.40625 54.6875 
L 54.390625 54.6875 
z
" id="DejaVuSans-103"/>
     </defs>
     <use xlink:href="#DejaVuSans-84"/>
     <use x="46.333984" xlink:href="#DejaVuSans-114"/>
     <use x="87.447266" xlink:href="#DejaVuSans-97"/>
     <use x="148.726562" xlink:href="#DejaVuSans-105"/>
     <use x="176.509766" xlink:href="#DejaVuSans-110"/>
     <use x="239.888672" xlink:href="#DejaVuSans-105"/>
     <use x="267.671875" xlink:href="#DejaVuSans-110"/>
     <use x="331.050781" xlink:href="#DejaVuSans-103"/>
     <use x="394.527344" xlink:href="#DejaVuSans-32"/>
     <use x="426.314453" xlink:href="#DejaVuSans-112"/>
     <use x="489.791016" xlink:href="#DejaVuSans-114"/>
     <use x="528.654297" xlink:href="#DejaVuSans-111"/>
     <use x="589.835938" xlink:href="#DejaVuSans-103"/>
     <use x="653.3125" xlink:href="#DejaVuSans-114"/>
     <use x="692.175781" xlink:href="#DejaVuSans-101"/>
     <use x="753.699219" xlink:href="#DejaVuSans-115"/>
     <use x="805.798828" xlink:href="#DejaVuSans-115"/>
    </g>
   </g>
   <g id="legend_1">
    <g id="line2d_29">
     <path d="M 99 675.714438 
L 119 675.714438 
" style="fill:none;stroke:#1f77b4;stroke-linecap:square;stroke-width:1.5;"/>
    </g>
    <g id="line2d_30"/>
    <g id="text_21">
     <!-- Baseline -->
     <g transform="translate(127 679.214438)scale(0.1 -0.1)">
      <defs>
       <path d="M 19.671875 34.8125 
L 19.671875 8.109375 
L 35.5 8.109375 
Q 43.453125 8.109375 47.28125 11.40625 
Q 51.125 14.703125 51.125 21.484375 
Q 51.125 28.328125 47.28125 31.5625 
Q 43.453125 34.8125 35.5 34.8125 
z
M 19.671875 64.796875 
L 19.671875 42.828125 
L 34.28125 42.828125 
Q 41.5 42.828125 45.03125 45.53125 
Q 48.578125 48.25 48.578125 53.8125 
Q 48.578125 59.328125 45.03125 62.0625 
Q 41.5 64.796875 34.28125 64.796875 
z
M 9.8125 72.90625 
L 35.015625 72.90625 
Q 46.296875 72.90625 52.390625 68.21875 
Q 58.5 63.53125 58.5 54.890625 
Q 58.5 48.1875 55.375 44.234375 
Q 52.25 40.28125 46.1875 39.3125 
Q 53.46875 37.75 57.5 32.78125 
Q 61.53125 27.828125 61.53125 20.40625 
Q 61.53125 10.640625 54.890625 5.3125 
Q 48.25 0 35.984375 0 
L 9.8125 0 
z
" id="DejaVuSans-66"/>
      </defs>
      <use xlink:href="#DejaVuSans-66"/>
      <use x="68.603516" xlink:href="#DejaVuSans-97"/>
      <use x="129.882812" xlink:href="#DejaVuSans-115"/>
      <use x="181.982422" xlink:href="#DejaVuSans-101"/>
      <use x="243.505859" xlink:href="#DejaVuSans-108"/>
      <use x="271.289062" xlink:href="#DejaVuSans-105"/>
      <use x="299.072266" xlink:href="#DejaVuSans-110"/>
      <use x="362.451172" xlink:href="#DejaVuSans-101"/>
     </g>
    </g>
    <g id="line2d_31">
     <path d="M 99 690.392563 
L 119 690.392563 
" style="fill:none;stroke:#ff7f0e;stroke-linecap:square;stroke-width:1.5;"/>
    </g>
    <g id="line2d_32"/>
    <g id="text_22">
     <!-- Forced normaliz. -->
     <g transform="translate(127 693.892563)scale(0.1 -0.1)">
      <defs>
       <path d="M 9.8125 72.90625 
L 51.703125 72.90625 
L 51.703125 64.59375 
L 19.671875 64.59375 
L 19.671875 43.109375 
L 48.578125 43.109375 
L 48.578125 34.8125 
L 19.671875 34.8125 
L 19.671875 0 
L 9.8125 0 
z
" id="DejaVuSans-70"/>
       <path d="M 45.40625 46.390625 
L 45.40625 75.984375 
L 54.390625 75.984375 
L 54.390625 0 
L 45.40625 0 
L 45.40625 8.203125 
Q 42.578125 3.328125 38.25 0.953125 
Q 33.9375 -1.421875 27.875 -1.421875 
Q 17.96875 -1.421875 11.734375 6.484375 
Q 5.515625 14.40625 5.515625 27.296875 
Q 5.515625 40.1875 11.734375 48.09375 
Q 17.96875 56 27.875 56 
Q 33.9375 56 38.25 53.625 
Q 42.578125 51.265625 45.40625 46.390625 
z
M 14.796875 27.296875 
Q 14.796875 17.390625 18.875 11.75 
Q 22.953125 6.109375 30.078125 6.109375 
Q 37.203125 6.109375 41.296875 11.75 
Q 45.40625 17.390625 45.40625 27.296875 
Q 45.40625 37.203125 41.296875 42.84375 
Q 37.203125 48.484375 30.078125 48.484375 
Q 22.953125 48.484375 18.875 42.84375 
Q 14.796875 37.203125 14.796875 27.296875 
z
" id="DejaVuSans-100"/>
       <path d="M 52 44.1875 
Q 55.375 50.25 60.0625 53.125 
Q 64.75 56 71.09375 56 
Q 79.640625 56 84.28125 50.015625 
Q 88.921875 44.046875 88.921875 33.015625 
L 88.921875 0 
L 79.890625 0 
L 79.890625 32.71875 
Q 79.890625 40.578125 77.09375 44.375 
Q 74.3125 48.1875 68.609375 48.1875 
Q 61.625 48.1875 57.5625 43.546875 
Q 53.515625 38.921875 53.515625 30.90625 
L 53.515625 0 
L 44.484375 0 
L 44.484375 32.71875 
Q 44.484375 40.625 41.703125 44.40625 
Q 38.921875 48.1875 33.109375 48.1875 
Q 26.21875 48.1875 22.15625 43.53125 
Q 18.109375 38.875 18.109375 30.90625 
L 18.109375 0 
L 9.078125 0 
L 9.078125 54.6875 
L 18.109375 54.6875 
L 18.109375 46.1875 
Q 21.1875 51.21875 25.484375 53.609375 
Q 29.78125 56 35.6875 56 
Q 41.65625 56 45.828125 52.96875 
Q 50 49.953125 52 44.1875 
z
" id="DejaVuSans-109"/>
       <path d="M 5.515625 54.6875 
L 48.1875 54.6875 
L 48.1875 46.484375 
L 14.40625 7.171875 
L 48.1875 7.171875 
L 48.1875 0 
L 4.296875 0 
L 4.296875 8.203125 
L 38.09375 47.515625 
L 5.515625 47.515625 
z
" id="DejaVuSans-122"/>
       <path d="M 10.6875 12.40625 
L 21 12.40625 
L 21 0 
L 10.6875 0 
z
" id="DejaVuSans-46"/>
      </defs>
      <use xlink:href="#DejaVuSans-70"/>
      <use x="53.894531" xlink:href="#DejaVuSans-111"/>
      <use x="115.076172" xlink:href="#DejaVuSans-114"/>
      <use x="153.939453" xlink:href="#DejaVuSans-99"/>
      <use x="208.919922" xlink:href="#DejaVuSans-101"/>
      <use x="270.443359" xlink:href="#DejaVuSans-100"/>
      <use x="333.919922" xlink:href="#DejaVuSans-32"/>
      <use x="365.707031" xlink:href="#DejaVuSans-110"/>
      <use x="429.085938" xlink:href="#DejaVuSans-111"/>
      <use x="490.267578" xlink:href="#DejaVuSans-114"/>
      <use x="529.630859" xlink:href="#DejaVuSans-109"/>
      <use x="627.042969" xlink:href="#DejaVuSans-97"/>
      <use x="688.322266" xlink:href="#DejaVuSans-108"/>
      <use x="716.105469" xlink:href="#DejaVuSans-105"/>
      <use x="743.888672" xlink:href="#DejaVuSans-122"/>
      <use x="796.378906" xlink:href="#DejaVuSans-46"/>
     </g>
    </g>
    <g id="line2d_33">
     <path d="M 229.815625 675.714438 
L 249.815625 675.714438 
" style="fill:none;stroke:#2ca02c;stroke-linecap:square;stroke-width:1.5;"/>
    </g>
    <g id="line2d_34"/>
    <g id="text_23">
     <!-- $\alpha=0.05$ -->
     <g transform="translate(257.815625 679.214438)scale(0.1 -0.1)">
      <defs>
       <path d="M 40.921875 25.4375 
L 40.96875 36.71875 
Q 41.015625 48.25 32.328125 48.296875 
Q 25.828125 48.34375 21.78125 42.921875 
Q 16.703125 36.234375 14.984375 27.296875 
Q 12.890625 16.546875 15.53125 11.421875 
Q 18.265625 6.203125 24.171875 6.203125 
Q 30.71875 6.203125 36.234375 16.609375 
z
M 33.84375 55.90625 
Q 49.078125 56.15625 48.875 40.375 
Q 48.875 40.375 56.5 54.6875 
L 64.5 54.6875 
L 48.734375 25.046875 
L 48.578125 14.359375 
Q 48.578125 11.96875 49.90625 9.96875 
Q 51.421875 7.625 52.984375 7.625 
L 57.328125 7.625 
L 55.859375 0 
L 50.4375 0 
Q 45.84375 0 42.53125 4.109375 
Q 40.96875 6.15625 40.921875 10.453125 
Q 37.75 5.21875 32.28125 0.78125 
Q 29.6875 -1.265625 22.703125 -1.21875 
Q 11.28125 -1.125 7.125 6.203125 
Q 2.875 13.8125 5.515625 27.296875 
Q 8.34375 41.796875 15.765625 48.390625 
Q 24.125 55.765625 33.84375 55.90625 
z
" id="DejaVuSans-Oblique-945"/>
       <path d="M 10.59375 45.40625 
L 73.1875 45.40625 
L 73.1875 37.203125 
L 10.59375 37.203125 
z
M 10.59375 25.484375 
L 73.1875 25.484375 
L 73.1875 17.1875 
L 10.59375 17.1875 
z
" id="DejaVuSans-61"/>
      </defs>
      <use transform="translate(0 0.78125)" xlink:href="#DejaVuSans-Oblique-945"/>
      <use transform="translate(85.400391 0.78125)" xlink:href="#DejaVuSans-61"/>
      <use transform="translate(188.671875 0.78125)" xlink:href="#DejaVuSans-48"/>
      <use transform="translate(252.294922 0.78125)" xlink:href="#DejaVuSans-46"/>
      <use transform="translate(284.082031 0.78125)" xlink:href="#DejaVuSans-48"/>
      <use transform="translate(347.705078 0.78125)" xlink:href="#DejaVuSans-53"/>
     </g>
    </g>
    <g id="line2d_35">
     <path d="M 229.815625 690.392563 
L 249.815625 690.392563 
" style="fill:none;stroke:#d62728;stroke-linecap:square;stroke-width:1.5;"/>
    </g>
    <g id="line2d_36"/>
    <g id="text_24">
     <!-- $\alpha=0.5$ -->
     <g transform="translate(257.815625 693.892563)scale(0.1 -0.1)">
      <use transform="translate(0 0.78125)" xlink:href="#DejaVuSans-Oblique-945"/>
      <use transform="translate(85.400391 0.78125)" xlink:href="#DejaVuSans-61"/>
      <use transform="translate(188.671875 0.78125)" xlink:href="#DejaVuSans-48"/>
      <use transform="translate(252.294922 0.78125)" xlink:href="#DejaVuSans-46"/>
      <use transform="translate(284.082031 0.78125)" xlink:href="#DejaVuSans-53"/>
     </g>
    </g>
    <g id="line2d_37">
     <path d="M 319.015625 675.714438 
L 339.015625 675.714438 
" style="fill:none;stroke:#9467bd;stroke-linecap:square;stroke-width:1.5;"/>
    </g>
    <g id="line2d_38"/>
    <g id="text_25">
     <!-- $\alpha=1.5$ -->
     <g transform="translate(347.015625 679.214438)scale(0.1 -0.1)">
      <use transform="translate(0 0.09375)" xlink:href="#DejaVuSans-Oblique-945"/>
      <use transform="translate(85.400391 0.09375)" xlink:href="#DejaVuSans-61"/>
      <use transform="translate(188.671875 0.09375)" xlink:href="#DejaVuSans-49"/>
      <use transform="translate(252.294922 0.09375)" xlink:href="#DejaVuSans-46"/>
      <use transform="translate(284.082031 0.09375)" xlink:href="#DejaVuSans-53"/>
     </g>
    </g>
    <g id="line2d_39">
     <path d="M 319.015625 690.392563 
L 339.015625 690.392563 
" style="fill:none;stroke:#8c564b;stroke-linecap:square;stroke-width:1.5;"/>
    </g>
    <g id="line2d_40"/>
    <g id="text_26">
     <!-- $\alpha=2.5$ -->
     <g transform="translate(347.015625 693.892563)scale(0.1 -0.1)">
      <use transform="translate(0 0.78125)" xlink:href="#DejaVuSans-Oblique-945"/>
      <use transform="translate(85.400391 0.78125)" xlink:href="#DejaVuSans-61"/>
      <use transform="translate(188.671875 0.78125)" xlink:href="#DejaVuSans-50"/>
      <use transform="translate(252.294922 0.78125)" xlink:href="#DejaVuSans-46"/>
      <use transform="translate(284.082031 0.78125)" xlink:href="#DejaVuSans-53"/>
     </g>
    </g>
   </g>
   <g id="legend_2">
    <g id="line2d_41">
     <path d="M 561.765625 675.714438 
L 581.765625 675.714438 
" style="fill:none;stroke:#8c564b;stroke-linecap:square;stroke-width:1.5;"/>
    </g>
    <g id="line2d_42"/>
    <g id="text_27">
     <!-- train -->
     <g transform="translate(589.765625 679.214438)scale(0.1 -0.1)">
      <use xlink:href="#DejaVuSans-116"/>
      <use x="39.208984" xlink:href="#DejaVuSans-114"/>
      <use x="80.322266" xlink:href="#DejaVuSans-97"/>
      <use x="141.601562" xlink:href="#DejaVuSans-105"/>
      <use x="169.384766" xlink:href="#DejaVuSans-110"/>
     </g>
    </g>
    <g id="line2d_43">
     <path d="M 561.765625 690.392563 
L 581.765625 690.392563 
" style="fill:none;stroke:#8c564b;stroke-dasharray:9.6,2.4,1.5,2.4;stroke-dashoffset:0;stroke-width:1.5;"/>
    </g>
    <g id="line2d_44"/>
    <g id="text_28">
     <!-- validation -->
     <g transform="translate(589.765625 693.892563)scale(0.1 -0.1)">
      <defs>
       <path d="M 2.984375 54.6875 
L 12.5 54.6875 
L 29.59375 8.796875 
L 46.6875 54.6875 
L 56.203125 54.6875 
L 35.6875 0 
L 23.484375 0 
z
" id="DejaVuSans-118"/>
      </defs>
      <use xlink:href="#DejaVuSans-118"/>
      <use x="59.179688" xlink:href="#DejaVuSans-97"/>
      <use x="120.458984" xlink:href="#DejaVuSans-108"/>
      <use x="148.242188" xlink:href="#DejaVuSans-105"/>
      <use x="176.025391" xlink:href="#DejaVuSans-100"/>
      <use x="239.501953" xlink:href="#DejaVuSans-97"/>
      <use x="300.78125" xlink:href="#DejaVuSans-116"/>
      <use x="339.990234" xlink:href="#DejaVuSans-105"/>
      <use x="367.773438" xlink:href="#DejaVuSans-111"/>
      <use x="428.955078" xlink:href="#DejaVuSans-110"/>
     </g>
    </g>
   </g>
  </g>
 </g>
 <defs>
  <clipPath id="p381e69c8d0">
   <rect height="543.6" width="558" x="90" y="86.4"/>
  </clipPath>
 </defs>
</svg>
