<?xml version="1.0" encoding="utf-8" standalone="no"?>
<!DOCTYPE svg PUBLIC "-//W3C//DTD SVG 1.1//EN"
  "http://www.w3.org/Graphics/SVG/1.1/DTD/svg11.dtd">
<!-- Created with matplotlib (https://matplotlib.org/) -->
<svg height="660.12975pt" version="1.1" viewBox="0 0 592.125 660.12975" width="592.125pt" xmlns="http://www.w3.org/2000/svg" xmlns:xlink="http://www.w3.org/1999/xlink">
 <metadata>
  <rdf:RDF xmlns:cc="http://creativecommons.org/ns#" xmlns:dc="http://purl.org/dc/elements/1.1/" xmlns:rdf="http://www.w3.org/1999/02/22-rdf-syntax-ns#">
   <cc:Work>
    <dc:type rdf:resource="http://purl.org/dc/dcmitype/StillImage"/>
    <dc:date>2021-01-13T11:50:45.088721</dc:date>
    <dc:format>image/svg+xml</dc:format>
    <dc:creator>
     <cc:Agent>
      <dc:title>Matplotlib v3.3.2, https://matplotlib.org/</dc:title>
     </cc:Agent>
    </dc:creator>
   </cc:Work>
  </rdf:RDF>
 </metadata>
 <defs>
  <style type="text/css">*{stroke-linecap:butt;stroke-linejoin:round;}</style>
 </defs>
 <g id="figure_1">
  <g id="patch_1">
   <path d="M 0 660.12975 
L 592.125 660.12975 
L 592.125 0 
L 0 0 
z
" style="fill:none;"/>
  </g>
  <g id="axes_1">
   <g id="patch_2">
    <path d="M 26.925 582.9575 
L 584.925 582.9575 
L 584.925 39.3575 
L 26.925 39.3575 
z
" style="fill:#ffffff;"/>
   </g>
   <g id="patch_3">
    <path clip-path="url(#p01ed0a1751)" d="M 102.170455 582.9575 
L 389.625 582.9575 
L 389.625 39.3575 
L 102.170455 39.3575 
z
" style="fill:#1f77b4;opacity:0.2;"/>
   </g>
   <g id="matplotlib.axis_1">
    <g id="xtick_1">
     <g id="line2d_1">
      <defs>
       <path d="M 0 0 
L 0 3.5 
" id="mf964fc25a3" style="stroke:#000000;stroke-width:0.8;"/>
      </defs>
      <g>
       <use style="stroke:#000000;stroke-width:0.8;" x="52.288636" xlink:href="#mf964fc25a3" y="582.9575"/>
      </g>
     </g>
     <g id="text_1">
      <!-- 0 -->
      <g transform="translate(49.107386 597.555938)scale(0.1 -0.1)">
       <defs>
        <path d="M 31.78125 66.40625 
Q 24.171875 66.40625 20.328125 58.90625 
Q 16.5 51.421875 16.5 36.375 
Q 16.5 21.390625 20.328125 13.890625 
Q 24.171875 6.390625 31.78125 6.390625 
Q 39.453125 6.390625 43.28125 13.890625 
Q 47.125 21.390625 47.125 36.375 
Q 47.125 51.421875 43.28125 58.90625 
Q 39.453125 66.40625 31.78125 66.40625 
z
M 31.78125 74.21875 
Q 44.046875 74.21875 50.515625 64.515625 
Q 56.984375 54.828125 56.984375 36.375 
Q 56.984375 17.96875 50.515625 8.265625 
Q 44.046875 -1.421875 31.78125 -1.421875 
Q 19.53125 -1.421875 13.0625 8.265625 
Q 6.59375 17.96875 6.59375 36.375 
Q 6.59375 54.828125 13.0625 64.515625 
Q 19.53125 74.21875 31.78125 74.21875 
z
" id="DejaVuSans-48"/>
       </defs>
       <use xlink:href="#DejaVuSans-48"/>
      </g>
     </g>
    </g>
    <g id="xtick_2">
     <g id="line2d_2">
      <g>
       <use style="stroke:#000000;stroke-width:0.8;" x="136.834091" xlink:href="#mf964fc25a3" y="582.9575"/>
      </g>
     </g>
     <g id="text_2">
      <!-- 100 -->
      <g transform="translate(127.290341 597.555938)scale(0.1 -0.1)">
       <defs>
        <path d="M 12.40625 8.296875 
L 28.515625 8.296875 
L 28.515625 63.921875 
L 10.984375 60.40625 
L 10.984375 69.390625 
L 28.421875 72.90625 
L 38.28125 72.90625 
L 38.28125 8.296875 
L 54.390625 8.296875 
L 54.390625 0 
L 12.40625 0 
z
" id="DejaVuSans-49"/>
       </defs>
       <use xlink:href="#DejaVuSans-49"/>
       <use x="63.623047" xlink:href="#DejaVuSans-48"/>
       <use x="127.246094" xlink:href="#DejaVuSans-48"/>
      </g>
     </g>
    </g>
    <g id="xtick_3">
     <g id="line2d_3">
      <g>
       <use style="stroke:#000000;stroke-width:0.8;" x="221.379545" xlink:href="#mf964fc25a3" y="582.9575"/>
      </g>
     </g>
     <g id="text_3">
      <!-- 200 -->
      <g transform="translate(211.835795 597.555938)scale(0.1 -0.1)">
       <defs>
        <path d="M 19.1875 8.296875 
L 53.609375 8.296875 
L 53.609375 0 
L 7.328125 0 
L 7.328125 8.296875 
Q 12.9375 14.109375 22.625 23.890625 
Q 32.328125 33.6875 34.8125 36.53125 
Q 39.546875 41.84375 41.421875 45.53125 
Q 43.3125 49.21875 43.3125 52.78125 
Q 43.3125 58.59375 39.234375 62.25 
Q 35.15625 65.921875 28.609375 65.921875 
Q 23.96875 65.921875 18.8125 64.3125 
Q 13.671875 62.703125 7.8125 59.421875 
L 7.8125 69.390625 
Q 13.765625 71.78125 18.9375 73 
Q 24.125 74.21875 28.421875 74.21875 
Q 39.75 74.21875 46.484375 68.546875 
Q 53.21875 62.890625 53.21875 53.421875 
Q 53.21875 48.921875 51.53125 44.890625 
Q 49.859375 40.875 45.40625 35.40625 
Q 44.1875 33.984375 37.640625 27.21875 
Q 31.109375 20.453125 19.1875 8.296875 
z
" id="DejaVuSans-50"/>
       </defs>
       <use xlink:href="#DejaVuSans-50"/>
       <use x="63.623047" xlink:href="#DejaVuSans-48"/>
       <use x="127.246094" xlink:href="#DejaVuSans-48"/>
      </g>
     </g>
    </g>
    <g id="xtick_4">
     <g id="line2d_4">
      <g>
       <use style="stroke:#000000;stroke-width:0.8;" x="305.925" xlink:href="#mf964fc25a3" y="582.9575"/>
      </g>
     </g>
     <g id="text_4">
      <!-- 300 -->
      <g transform="translate(296.38125 597.555938)scale(0.1 -0.1)">
       <defs>
        <path d="M 40.578125 39.3125 
Q 47.65625 37.796875 51.625 33 
Q 55.609375 28.21875 55.609375 21.1875 
Q 55.609375 10.40625 48.1875 4.484375 
Q 40.765625 -1.421875 27.09375 -1.421875 
Q 22.515625 -1.421875 17.65625 -0.515625 
Q 12.796875 0.390625 7.625 2.203125 
L 7.625 11.71875 
Q 11.71875 9.328125 16.59375 8.109375 
Q 21.484375 6.890625 26.8125 6.890625 
Q 36.078125 6.890625 40.9375 10.546875 
Q 45.796875 14.203125 45.796875 21.1875 
Q 45.796875 27.640625 41.28125 31.265625 
Q 36.765625 34.90625 28.71875 34.90625 
L 20.21875 34.90625 
L 20.21875 43.015625 
L 29.109375 43.015625 
Q 36.375 43.015625 40.234375 45.921875 
Q 44.09375 48.828125 44.09375 54.296875 
Q 44.09375 59.90625 40.109375 62.90625 
Q 36.140625 65.921875 28.71875 65.921875 
Q 24.65625 65.921875 20.015625 65.03125 
Q 15.375 64.15625 9.8125 62.3125 
L 9.8125 71.09375 
Q 15.4375 72.65625 20.34375 73.4375 
Q 25.25 74.21875 29.59375 74.21875 
Q 40.828125 74.21875 47.359375 69.109375 
Q 53.90625 64.015625 53.90625 55.328125 
Q 53.90625 49.265625 50.4375 45.09375 
Q 46.96875 40.921875 40.578125 39.3125 
z
" id="DejaVuSans-51"/>
       </defs>
       <use xlink:href="#DejaVuSans-51"/>
       <use x="63.623047" xlink:href="#DejaVuSans-48"/>
       <use x="127.246094" xlink:href="#DejaVuSans-48"/>
      </g>
     </g>
    </g>
    <g id="xtick_5">
     <g id="line2d_5">
      <g>
       <use style="stroke:#000000;stroke-width:0.8;" x="390.470455" xlink:href="#mf964fc25a3" y="582.9575"/>
      </g>
     </g>
     <g id="text_5">
      <!-- 400 -->
      <g transform="translate(380.926705 597.555938)scale(0.1 -0.1)">
       <defs>
        <path d="M 37.796875 64.3125 
L 12.890625 25.390625 
L 37.796875 25.390625 
z
M 35.203125 72.90625 
L 47.609375 72.90625 
L 47.609375 25.390625 
L 58.015625 25.390625 
L 58.015625 17.1875 
L 47.609375 17.1875 
L 47.609375 0 
L 37.796875 0 
L 37.796875 17.1875 
L 4.890625 17.1875 
L 4.890625 26.703125 
z
" id="DejaVuSans-52"/>
       </defs>
       <use xlink:href="#DejaVuSans-52"/>
       <use x="63.623047" xlink:href="#DejaVuSans-48"/>
       <use x="127.246094" xlink:href="#DejaVuSans-48"/>
      </g>
     </g>
    </g>
    <g id="xtick_6">
     <g id="line2d_6">
      <g>
       <use style="stroke:#000000;stroke-width:0.8;" x="475.015909" xlink:href="#mf964fc25a3" y="582.9575"/>
      </g>
     </g>
     <g id="text_6">
      <!-- 500 -->
      <g transform="translate(465.472159 597.555938)scale(0.1 -0.1)">
       <defs>
        <path d="M 10.796875 72.90625 
L 49.515625 72.90625 
L 49.515625 64.59375 
L 19.828125 64.59375 
L 19.828125 46.734375 
Q 21.96875 47.46875 24.109375 47.828125 
Q 26.265625 48.1875 28.421875 48.1875 
Q 40.625 48.1875 47.75 41.5 
Q 54.890625 34.8125 54.890625 23.390625 
Q 54.890625 11.625 47.5625 5.09375 
Q 40.234375 -1.421875 26.90625 -1.421875 
Q 22.3125 -1.421875 17.546875 -0.640625 
Q 12.796875 0.140625 7.71875 1.703125 
L 7.71875 11.625 
Q 12.109375 9.234375 16.796875 8.0625 
Q 21.484375 6.890625 26.703125 6.890625 
Q 35.15625 6.890625 40.078125 11.328125 
Q 45.015625 15.765625 45.015625 23.390625 
Q 45.015625 31 40.078125 35.4375 
Q 35.15625 39.890625 26.703125 39.890625 
Q 22.75 39.890625 18.8125 39.015625 
Q 14.890625 38.140625 10.796875 36.28125 
z
" id="DejaVuSans-53"/>
       </defs>
       <use xlink:href="#DejaVuSans-53"/>
       <use x="63.623047" xlink:href="#DejaVuSans-48"/>
       <use x="127.246094" xlink:href="#DejaVuSans-48"/>
      </g>
     </g>
    </g>
    <g id="xtick_7">
     <g id="line2d_7">
      <g>
       <use style="stroke:#000000;stroke-width:0.8;" x="559.561364" xlink:href="#mf964fc25a3" y="582.9575"/>
      </g>
     </g>
     <g id="text_7">
      <!-- 600 -->
      <g transform="translate(550.017614 597.555938)scale(0.1 -0.1)">
       <defs>
        <path d="M 33.015625 40.375 
Q 26.375 40.375 22.484375 35.828125 
Q 18.609375 31.296875 18.609375 23.390625 
Q 18.609375 15.53125 22.484375 10.953125 
Q 26.375 6.390625 33.015625 6.390625 
Q 39.65625 6.390625 43.53125 10.953125 
Q 47.40625 15.53125 47.40625 23.390625 
Q 47.40625 31.296875 43.53125 35.828125 
Q 39.65625 40.375 33.015625 40.375 
z
M 52.59375 71.296875 
L 52.59375 62.3125 
Q 48.875 64.0625 45.09375 64.984375 
Q 41.3125 65.921875 37.59375 65.921875 
Q 27.828125 65.921875 22.671875 59.328125 
Q 17.53125 52.734375 16.796875 39.40625 
Q 19.671875 43.65625 24.015625 45.921875 
Q 28.375 48.1875 33.59375 48.1875 
Q 44.578125 48.1875 50.953125 41.515625 
Q 57.328125 34.859375 57.328125 23.390625 
Q 57.328125 12.15625 50.6875 5.359375 
Q 44.046875 -1.421875 33.015625 -1.421875 
Q 20.359375 -1.421875 13.671875 8.265625 
Q 6.984375 17.96875 6.984375 36.375 
Q 6.984375 53.65625 15.1875 63.9375 
Q 23.390625 74.21875 37.203125 74.21875 
Q 40.921875 74.21875 44.703125 73.484375 
Q 48.484375 72.75 52.59375 71.296875 
z
" id="DejaVuSans-54"/>
       </defs>
       <use xlink:href="#DejaVuSans-54"/>
       <use x="63.623047" xlink:href="#DejaVuSans-48"/>
       <use x="127.246094" xlink:href="#DejaVuSans-48"/>
      </g>
     </g>
    </g>
    <g id="text_8">
     <!-- Epochs -->
     <g transform="translate(288.009375 611.234063)scale(0.1 -0.1)">
      <defs>
       <path d="M 9.8125 72.90625 
L 55.90625 72.90625 
L 55.90625 64.59375 
L 19.671875 64.59375 
L 19.671875 43.015625 
L 54.390625 43.015625 
L 54.390625 34.71875 
L 19.671875 34.71875 
L 19.671875 8.296875 
L 56.78125 8.296875 
L 56.78125 0 
L 9.8125 0 
z
" id="DejaVuSans-69"/>
       <path d="M 18.109375 8.203125 
L 18.109375 -20.796875 
L 9.078125 -20.796875 
L 9.078125 54.6875 
L 18.109375 54.6875 
L 18.109375 46.390625 
Q 20.953125 51.265625 25.265625 53.625 
Q 29.59375 56 35.59375 56 
Q 45.5625 56 51.78125 48.09375 
Q 58.015625 40.1875 58.015625 27.296875 
Q 58.015625 14.40625 51.78125 6.484375 
Q 45.5625 -1.421875 35.59375 -1.421875 
Q 29.59375 -1.421875 25.265625 0.953125 
Q 20.953125 3.328125 18.109375 8.203125 
z
M 48.6875 27.296875 
Q 48.6875 37.203125 44.609375 42.84375 
Q 40.53125 48.484375 33.40625 48.484375 
Q 26.265625 48.484375 22.1875 42.84375 
Q 18.109375 37.203125 18.109375 27.296875 
Q 18.109375 17.390625 22.1875 11.75 
Q 26.265625 6.109375 33.40625 6.109375 
Q 40.53125 6.109375 44.609375 11.75 
Q 48.6875 17.390625 48.6875 27.296875 
z
" id="DejaVuSans-112"/>
       <path d="M 30.609375 48.390625 
Q 23.390625 48.390625 19.1875 42.75 
Q 14.984375 37.109375 14.984375 27.296875 
Q 14.984375 17.484375 19.15625 11.84375 
Q 23.34375 6.203125 30.609375 6.203125 
Q 37.796875 6.203125 41.984375 11.859375 
Q 46.1875 17.53125 46.1875 27.296875 
Q 46.1875 37.015625 41.984375 42.703125 
Q 37.796875 48.390625 30.609375 48.390625 
z
M 30.609375 56 
Q 42.328125 56 49.015625 48.375 
Q 55.71875 40.765625 55.71875 27.296875 
Q 55.71875 13.875 49.015625 6.21875 
Q 42.328125 -1.421875 30.609375 -1.421875 
Q 18.84375 -1.421875 12.171875 6.21875 
Q 5.515625 13.875 5.515625 27.296875 
Q 5.515625 40.765625 12.171875 48.375 
Q 18.84375 56 30.609375 56 
z
" id="DejaVuSans-111"/>
       <path d="M 48.78125 52.59375 
L 48.78125 44.1875 
Q 44.96875 46.296875 41.140625 47.34375 
Q 37.3125 48.390625 33.40625 48.390625 
Q 24.65625 48.390625 19.8125 42.84375 
Q 14.984375 37.3125 14.984375 27.296875 
Q 14.984375 17.28125 19.8125 11.734375 
Q 24.65625 6.203125 33.40625 6.203125 
Q 37.3125 6.203125 41.140625 7.25 
Q 44.96875 8.296875 48.78125 10.40625 
L 48.78125 2.09375 
Q 45.015625 0.34375 40.984375 -0.53125 
Q 36.96875 -1.421875 32.421875 -1.421875 
Q 20.0625 -1.421875 12.78125 6.34375 
Q 5.515625 14.109375 5.515625 27.296875 
Q 5.515625 40.671875 12.859375 48.328125 
Q 20.21875 56 33.015625 56 
Q 37.15625 56 41.109375 55.140625 
Q 45.0625 54.296875 48.78125 52.59375 
z
" id="DejaVuSans-99"/>
       <path d="M 54.890625 33.015625 
L 54.890625 0 
L 45.90625 0 
L 45.90625 32.71875 
Q 45.90625 40.484375 42.875 44.328125 
Q 39.84375 48.1875 33.796875 48.1875 
Q 26.515625 48.1875 22.3125 43.546875 
Q 18.109375 38.921875 18.109375 30.90625 
L 18.109375 0 
L 9.078125 0 
L 9.078125 75.984375 
L 18.109375 75.984375 
L 18.109375 46.1875 
Q 21.34375 51.125 25.703125 53.5625 
Q 30.078125 56 35.796875 56 
Q 45.21875 56 50.046875 50.171875 
Q 54.890625 44.34375 54.890625 33.015625 
z
" id="DejaVuSans-104"/>
       <path d="M 44.28125 53.078125 
L 44.28125 44.578125 
Q 40.484375 46.53125 36.375 47.5 
Q 32.28125 48.484375 27.875 48.484375 
Q 21.1875 48.484375 17.84375 46.4375 
Q 14.5 44.390625 14.5 40.28125 
Q 14.5 37.15625 16.890625 35.375 
Q 19.28125 33.59375 26.515625 31.984375 
L 29.59375 31.296875 
Q 39.15625 29.25 43.1875 25.515625 
Q 47.21875 21.78125 47.21875 15.09375 
Q 47.21875 7.46875 41.1875 3.015625 
Q 35.15625 -1.421875 24.609375 -1.421875 
Q 20.21875 -1.421875 15.453125 -0.5625 
Q 10.6875 0.296875 5.421875 2 
L 5.421875 11.28125 
Q 10.40625 8.6875 15.234375 7.390625 
Q 20.0625 6.109375 24.8125 6.109375 
Q 31.15625 6.109375 34.5625 8.28125 
Q 37.984375 10.453125 37.984375 14.40625 
Q 37.984375 18.0625 35.515625 20.015625 
Q 33.0625 21.96875 24.703125 23.78125 
L 21.578125 24.515625 
Q 13.234375 26.265625 9.515625 29.90625 
Q 5.8125 33.546875 5.8125 39.890625 
Q 5.8125 47.609375 11.28125 51.796875 
Q 16.75 56 26.8125 56 
Q 31.78125 56 36.171875 55.265625 
Q 40.578125 54.546875 44.28125 53.078125 
z
" id="DejaVuSans-115"/>
      </defs>
      <use xlink:href="#DejaVuSans-69"/>
      <use x="63.183594" xlink:href="#DejaVuSans-112"/>
      <use x="126.660156" xlink:href="#DejaVuSans-111"/>
      <use x="187.841797" xlink:href="#DejaVuSans-99"/>
      <use x="242.822266" xlink:href="#DejaVuSans-104"/>
      <use x="306.201172" xlink:href="#DejaVuSans-115"/>
     </g>
    </g>
   </g>
   <g id="matplotlib.axis_2">
    <g id="ytick_1">
     <g id="line2d_8">
      <defs>
       <path d="M 0 0 
L -3.5 0 
" id="m7f2774f33e" style="stroke:#000000;stroke-width:0.8;"/>
      </defs>
      <g>
       <use style="stroke:#000000;stroke-width:0.8;" x="26.925" xlink:href="#m7f2774f33e" y="558.248409"/>
      </g>
     </g>
     <g id="text_9">
      <!-- 0 -->
      <g transform="translate(13.5625 562.047628)scale(0.1 -0.1)">
       <use xlink:href="#DejaVuSans-48"/>
      </g>
     </g>
    </g>
    <g id="ytick_2">
     <g id="line2d_9">
      <g>
       <use style="stroke:#000000;stroke-width:0.8;" x="26.925" xlink:href="#m7f2774f33e" y="465.627955"/>
      </g>
     </g>
     <g id="text_10">
      <!-- 10 -->
      <g transform="translate(7.2 469.427173)scale(0.1 -0.1)">
       <use xlink:href="#DejaVuSans-49"/>
       <use x="63.623047" xlink:href="#DejaVuSans-48"/>
      </g>
     </g>
    </g>
    <g id="ytick_3">
     <g id="line2d_10">
      <g>
       <use style="stroke:#000000;stroke-width:0.8;" x="26.925" xlink:href="#m7f2774f33e" y="373.0075"/>
      </g>
     </g>
     <g id="text_11">
      <!-- 20 -->
      <g transform="translate(7.2 376.806719)scale(0.1 -0.1)">
       <use xlink:href="#DejaVuSans-50"/>
       <use x="63.623047" xlink:href="#DejaVuSans-48"/>
      </g>
     </g>
    </g>
    <g id="ytick_4">
     <g id="line2d_11">
      <g>
       <use style="stroke:#000000;stroke-width:0.8;" x="26.925" xlink:href="#m7f2774f33e" y="280.387045"/>
      </g>
     </g>
     <g id="text_12">
      <!-- 30 -->
      <g transform="translate(7.2 284.186264)scale(0.1 -0.1)">
       <use xlink:href="#DejaVuSans-51"/>
       <use x="63.623047" xlink:href="#DejaVuSans-48"/>
      </g>
     </g>
    </g>
    <g id="ytick_5">
     <g id="line2d_12">
      <g>
       <use style="stroke:#000000;stroke-width:0.8;" x="26.925" xlink:href="#m7f2774f33e" y="187.766591"/>
      </g>
     </g>
     <g id="text_13">
      <!-- 40 -->
      <g transform="translate(7.2 191.56581)scale(0.1 -0.1)">
       <use xlink:href="#DejaVuSans-52"/>
       <use x="63.623047" xlink:href="#DejaVuSans-48"/>
      </g>
     </g>
    </g>
    <g id="ytick_6">
     <g id="line2d_13">
      <g>
       <use style="stroke:#000000;stroke-width:0.8;" x="26.925" xlink:href="#m7f2774f33e" y="95.146136"/>
      </g>
     </g>
     <g id="text_14">
      <!-- 50 -->
      <g transform="translate(7.2 98.945355)scale(0.1 -0.1)">
       <use xlink:href="#DejaVuSans-53"/>
       <use x="63.623047" xlink:href="#DejaVuSans-48"/>
      </g>
     </g>
    </g>
   </g>
   <g id="line2d_14">
    <path clip-path="url(#p01ed0a1751)" d="M 52.288636 425.191939 
L 53.134091 426.79031 
L 57.361364 436.890202 
L 59.052273 442.280508 
L 60.743182 448.271838 
L 62.434091 454.521409 
L 73.425 495.227053 
L 75.961364 502.859298 
L 80.188636 513.780333 
L 83.570455 521.675275 
L 86.952273 528.598962 
L 88.643182 531.699408 
L 91.179545 535.636466 
L 92.870455 537.816552 
L 97.097727 541.682069 
L 99.634091 543.304327 
L 101.325 544.052283 
L 103.015909 544.852967 
L 104.706818 545.289911 
L 105.552273 545.546922 
L 110.625 546.255219 
L 127.534091 548.764552 
L 131.761364 549.153371 
L 140.215909 549.633685 
L 154.588636 550.185417 
L 209.543182 551.773261 
L 216.306818 551.876645 
L 217.152273 551.743035 
L 217.997727 551.733879 
L 218.843182 551.574706 
L 219.688636 551.721345 
L 220.534091 551.660941 
L 221.379545 551.794406 
L 222.225 551.803674 
L 231.525 553.073483 
L 234.906818 553.379676 
L 239.979545 553.665244 
L 247.588636 553.905584 
L 260.270455 554.005172 
L 273.797727 554.120945 
L 301.697727 554.525278 
L 367.643182 555.457801 
L 369.334091 555.659268 
L 387.088636 556.300552 
L 390.470455 556.322196 
L 393.852273 556.358006 
L 399.770455 556.361021 
L 505.452273 557.393432 
L 507.143182 557.511865 
L 516.443182 557.628774 
L 519.825 557.70448 
L 527.434091 557.903945 
L 532.506818 557.943057 
L 535.888636 557.995054 
L 543.497727 558.062386 
L 559.561364 558.248409 
L 559.561364 558.248409 
" style="fill:none;stroke:#1f77b4;stroke-linecap:square;stroke-width:1.5;"/>
   </g>
   <g id="line2d_15">
    <path clip-path="url(#p01ed0a1751)" d="M 52.288636 206.487353 
L 57.361364 216.769079 
L 59.052273 222.392811 
L 59.897727 225.571391 
L 62.434091 234.136963 
L 64.125 240.186317 
L 68.352273 250.893068 
L 70.888636 258.144685 
L 73.425 263.735872 
L 75.961364 270.839479 
L 76.806818 273.245569 
L 84.415909 299.696671 
L 90.334091 318.140976 
L 94.561364 330.425691 
L 96.252273 333.847402 
L 97.943182 336.517235 
L 99.634091 337.845046 
L 100.479545 338.278271 
L 101.325 338.099458 
L 103.015909 336.870816 
L 103.861364 336.245259 
L 104.706818 335.844241 
L 105.552273 334.921729 
L 107.243182 333.857638 
L 108.088636 333.254581 
L 108.934091 332.879986 
L 111.470455 331.096098 
L 113.161364 329.488553 
L 114.006818 328.383946 
L 114.852273 327.624122 
L 116.543182 325.612376 
L 117.388636 324.268172 
L 119.079545 322.017033 
L 120.770455 320.59856 
L 122.461364 320.167043 
L 123.306818 319.913495 
L 126.688636 319.657752 
L 132.606818 320.380683 
L 134.297727 320.664618 
L 136.834091 320.902852 
L 139.370455 321.447522 
L 141.061364 321.394536 
L 142.752273 321.25583 
L 145.288636 321.193034 
L 149.515909 320.420579 
L 151.206818 320.419538 
L 160.506818 321.107495 
L 163.888636 321.030984 
L 166.425 321.035475 
L 174.879545 321.404122 
L 182.488636 321.368618 
L 187.561364 321.494107 
L 201.934091 321.467272 
L 235.752273 321.518621 
L 313.534091 321.559679 
L 356.652273 321.396946 
L 435.279545 321.071141 
L 554.488636 320.810632 
L 559.561364 320.805202 
L 559.561364 320.805202 
" style="fill:none;stroke:#ff7f0e;stroke-linecap:square;stroke-width:1.5;"/>
   </g>
   <g id="line2d_16">
    <path clip-path="url(#p01ed0a1751)" d="M 52.288636 206.487353 
L 53.134091 208.56552 
L 53.979545 208.724174 
L 54.825 207.378006 
L 55.670455 209.830942 
L 56.515909 214.929704 
L 57.361364 218.794183 
L 58.206818 219.251065 
L 59.052273 217.065152 
L 59.897727 215.566192 
L 60.743182 216.082885 
L 61.588636 218.18026 
L 64.125 228.308457 
L 64.970455 230.58537 
L 65.815909 231.574315 
L 67.506818 233.071657 
L 68.352273 234.537399 
L 70.043182 240.542632 
L 70.888636 244.209148 
L 71.734091 249.070272 
L 72.579545 252.85999 
L 73.425 256.13659 
L 74.270455 260.615597 
L 75.115909 262.213002 
L 75.961364 261.210999 
L 76.806818 258.112922 
L 77.652273 258.319872 
L 78.497727 254.924595 
L 79.343182 246.469465 
L 80.188636 240.032445 
L 81.034091 229.615888 
L 82.725 200.599491 
L 83.570455 184.897609 
L 85.261364 159.310183 
L 86.952273 143.259962 
L 89.488636 128.068366 
L 90.334091 123.498892 
L 92.025 116.04818 
L 93.715909 107.534118 
L 96.252273 93.24089 
L 97.097727 87.762937 
L 97.943182 83.535186 
L 98.788636 81.267631 
L 99.634091 77.776644 
L 100.479545 75.607398 
L 101.325 76.315857 
L 102.170455 76.248154 
L 103.015909 75.942045 
L 103.861364 76.339541 
L 104.706818 76.394091 
L 105.552273 75.937457 
L 106.397727 75.660816 
L 107.243182 75.802962 
L 108.088636 75.683963 
L 108.934091 74.771314 
L 110.625 72.246066 
L 111.470455 70.757118 
L 113.161364 67.322245 
L 114.006818 66.150861 
L 115.697727 64.392327 
L 116.543182 64.066591 
L 117.388636 64.314982 
L 118.234091 64.758728 
L 119.079545 65.372899 
L 121.615909 68.070842 
L 122.461364 68.483314 
L 124.152273 69.484267 
L 128.379545 70.171447 
L 129.225 69.955535 
L 130.070455 69.482274 
L 131.761364 68.998301 
L 132.606818 68.231672 
L 133.452273 67.290971 
L 134.297727 67.083907 
L 135.143182 67.805517 
L 136.834091 69.977746 
L 137.679545 70.764854 
L 138.525 71.34577 
L 143.597727 76.012538 
L 146.134091 77.80598 
L 147.825 78.904883 
L 150.361364 80.382666 
L 156.279545 85.046332 
L 157.970455 86.228962 
L 161.352273 88.342231 
L 164.734091 90.851281 
L 167.270455 92.763042 
L 168.961364 93.676757 
L 171.497727 94.985498 
L 176.570455 98.3248 
L 177.415909 98.88737 
L 179.952273 99.980283 
L 180.797727 100.272901 
L 183.334091 100.560868 
L 185.025 100.491342 
L 185.870455 100.833079 
L 186.715909 101.329449 
L 187.561364 101.682526 
L 189.252273 102.784181 
L 191.788636 104.019177 
L 194.325 104.765774 
L 196.861364 105.474998 
L 198.552273 106.170711 
L 200.243182 107.108659 
L 205.315909 110.451321 
L 208.697727 112.303703 
L 212.079545 113.828527 
L 215.461364 115.486856 
L 224.761364 119.749272 
L 234.061364 123.489192 
L 238.288636 125.090052 
L 241.670455 126.415845 
L 248.434091 129.004998 
L 278.870455 139.494313 
L 305.079545 147.142465 
L 308.461364 148.092299 
L 315.225 149.916394 
L 316.070455 150.234849 
L 319.452273 151.031834 
L 320.297727 151.368423 
L 321.143182 151.504154 
L 322.834091 151.989635 
L 325.370455 152.602506 
L 326.215909 152.920151 
L 327.906818 153.349435 
L 334.670455 155.057527 
L 349.888636 158.90775 
L 355.806818 160.297541 
L 356.652273 160.630024 
L 357.497727 160.607899 
L 358.343182 161.141315 
L 359.188636 160.864648 
L 360.034091 161.591592 
L 360.879545 161.407451 
L 361.725 161.650702 
L 362.570455 162.116611 
L 363.415909 161.967698 
L 365.106818 162.661024 
L 365.952273 162.564982 
L 366.797727 162.965582 
L 367.643182 163.193647 
L 368.488636 163.152621 
L 369.334091 163.552494 
L 370.179545 163.734619 
L 371.025 163.74453 
L 371.870455 164.11236 
L 372.715909 164.281339 
L 373.561364 164.322141 
L 374.406818 164.689169 
L 378.634091 165.493907 
L 379.479545 165.810437 
L 381.170455 166.062761 
L 382.015909 166.349289 
L 386.243182 167.166872 
L 387.088636 167.449737 
L 388.779545 167.730609 
L 389.625 167.977892 
L 391.315909 168.297153 
L 394.697727 169.036891 
L 395.543182 169.150311 
L 397.234091 169.522493 
L 405.688636 171.296772 
L 409.070455 171.961255 
L 413.297727 172.852565 
L 416.679545 173.48606 
L 418.370455 173.854258 
L 425.979545 175.321007 
L 428.515909 175.831199 
L 456.415909 180.799949 
L 457.261364 180.836153 
L 458.106818 181.090983 
L 458.952273 181.14232 
L 460.643182 181.470086 
L 473.325 183.597074 
L 474.170455 183.680942 
L 475.015909 183.886282 
L 475.861364 183.966508 
L 478.397727 184.450539 
L 479.243182 184.533591 
L 480.088636 184.731685 
L 480.934091 184.794696 
L 481.779545 185.004166 
L 482.625 185.066382 
L 484.315909 185.370794 
L 492.770455 186.80681 
L 493.615909 186.815525 
L 494.461364 187.102068 
L 495.306818 187.060743 
L 496.152273 187.348125 
L 496.997727 187.385742 
L 500.379545 187.992482 
L 501.225 188.050395 
L 502.915909 188.32239 
L 512.215909 189.838134 
L 514.752273 190.152651 
L 519.825 190.953297 
L 523.206818 191.447369 
L 525.743182 191.856367 
L 529.970455 192.465945 
L 536.734091 193.472837 
L 537.579545 193.525993 
L 538.425 193.72303 
L 540.961364 194.011212 
L 546.034091 194.80509 
L 546.879545 194.806765 
L 547.725 195.050872 
L 549.415909 195.206977 
L 550.261364 195.492018 
L 551.106818 195.39642 
L 551.952273 195.683023 
L 552.797727 195.817034 
L 553.643182 195.813373 
L 554.488636 196.096096 
L 555.334091 196.06432 
L 557.025 196.438003 
L 557.870455 196.430149 
L 559.561364 196.741221 
L 559.561364 196.741221 
" style="fill:none;stroke:#2ca02c;stroke-linecap:square;stroke-width:1.5;"/>
   </g>
   <g id="line2d_17">
    <path clip-path="url(#p01ed0a1751)" d="M 52.288636 206.487353 
L 53.134091 206.93938 
L 53.979545 208.652101 
L 54.825 210.067595 
L 55.670455 209.13694 
L 56.515909 210.83366 
L 57.361364 213.212406 
L 58.206818 214.285077 
L 59.052273 213.399059 
L 59.897727 211.619868 
L 60.743182 210.125481 
L 61.588636 209.102363 
L 62.434091 209.088027 
L 63.279545 210.7508 
L 64.970455 216.495621 
L 65.815909 218.44089 
L 66.661364 218.817308 
L 67.506818 217.778216 
L 68.352273 216.32713 
L 69.197727 215.339129 
L 70.043182 215.42534 
L 70.888636 216.798929 
L 73.425 224.031114 
L 74.270455 225.01887 
L 75.115909 224.76489 
L 76.806818 222.892291 
L 77.652273 222.510471 
L 78.497727 222.799651 
L 79.343182 224.043972 
L 80.188636 225.696737 
L 81.034091 227.837528 
L 81.879545 229.030778 
L 82.725 228.997047 
L 83.570455 228.716492 
L 84.415909 227.653914 
L 85.261364 227.510239 
L 86.106818 227.559541 
L 86.952273 228.666191 
L 87.797727 232.509471 
L 88.643182 235.280462 
L 89.488636 237.625076 
L 90.334091 239.576444 
L 91.179545 240.769864 
L 92.025 242.371443 
L 92.870455 240.4037 
L 93.715909 235.213134 
L 94.561364 226.77712 
L 95.406818 216.177087 
L 96.252273 211.00588 
L 97.097727 207.09733 
L 97.943182 202.293715 
L 98.788636 199.547515 
L 99.634091 194.962533 
L 100.479545 188.271924 
L 103.015909 175.863385 
L 103.861364 175.000504 
L 104.706818 175.013075 
L 105.552273 173.87026 
L 106.397727 171.846683 
L 107.243182 173.073515 
L 108.088636 174.658717 
L 108.934091 175.083996 
L 109.779545 174.629568 
L 110.625 173.951031 
L 111.470455 173.495141 
L 112.315909 172.641177 
L 113.161364 171.208181 
L 114.852273 167.610343 
L 115.697727 166.23276 
L 116.543182 165.227213 
L 117.388636 164.444888 
L 118.234091 163.905171 
L 119.925 162.334707 
L 120.770455 162.296045 
L 121.615909 162.836302 
L 122.461364 162.991532 
L 123.306818 162.802384 
L 125.843182 160.319262 
L 127.534091 162.905097 
L 129.225 164.457665 
L 130.070455 164.43518 
L 130.915909 164.544761 
L 132.606818 166.887595 
L 133.452273 167.737668 
L 137.679545 171.049011 
L 141.906818 175.65482 
L 143.597727 177.971847 
L 145.288636 180.123302 
L 147.825 184.334084 
L 152.052273 190.227778 
L 152.897727 190.937133 
L 156.279545 192.410504 
L 160.506818 194.147873 
L 162.197727 194.914653 
L 163.043182 195.500101 
L 166.425 198.616545 
L 173.188636 204.838054 
L 174.879545 205.996548 
L 176.570455 207.054201 
L 178.261364 207.807743 
L 179.106818 208.39744 
L 179.952273 208.784318 
L 180.797727 209.344967 
L 181.643182 209.684195 
L 182.488636 210.361509 
L 184.179545 211.199579 
L 186.715909 212.907725 
L 187.561364 213.139893 
L 188.406818 213.7538 
L 189.252273 214.169052 
L 190.943182 214.730763 
L 191.788636 214.677959 
L 192.634091 215.309898 
L 193.479545 215.361139 
L 196.861364 216.627935 
L 197.706818 216.582505 
L 198.552273 217.208978 
L 199.397727 217.455919 
L 200.243182 217.822618 
L 201.934091 218.171434 
L 202.779545 218.635658 
L 203.625 218.717468 
L 207.006818 220.13737 
L 207.852273 220.194212 
L 208.697727 220.593916 
L 209.543182 220.773409 
L 210.388636 221.205747 
L 211.234091 221.293575 
L 212.079545 221.950709 
L 212.925 221.987568 
L 213.770455 222.326615 
L 214.615909 222.325136 
L 215.461364 222.770389 
L 216.306818 223.050666 
L 217.152273 223.002406 
L 217.997727 223.594397 
L 218.843182 223.702354 
L 219.688636 224.114152 
L 220.534091 224.133573 
L 222.225 224.813904 
L 223.070455 224.722554 
L 223.915909 225.124223 
L 224.761364 225.258481 
L 226.452273 225.838186 
L 227.297727 225.835037 
L 228.143182 226.273956 
L 229.834091 226.537396 
L 230.679545 226.840344 
L 231.525 226.990026 
L 232.370455 227.347573 
L 234.061364 227.651046 
L 234.906818 227.953413 
L 235.752273 228.066125 
L 239.134091 228.981905 
L 239.979545 229.077122 
L 240.825 229.359343 
L 241.670455 229.454006 
L 242.515909 229.720438 
L 243.361364 229.860804 
L 245.052273 230.265182 
L 249.279545 231.098478 
L 250.125 231.489904 
L 250.970455 231.3573 
L 251.815909 231.917733 
L 252.661364 231.412308 
L 253.506818 232.966143 
L 254.352273 231.072224 
L 255.197727 233.374996 
L 256.043182 233.537062 
L 256.888636 230.484213 
L 257.734091 229.105786 
L 258.579545 229.613287 
L 259.425 228.817017 
L 260.270455 224.693897 
L 261.115909 223.046102 
L 261.961364 223.772816 
L 262.806818 222.933257 
L 263.652273 218.952623 
L 264.497727 217.18453 
L 265.343182 218.074379 
L 266.188636 218.325555 
L 267.034091 217.122946 
L 267.879545 215.233176 
L 268.725 213.020998 
L 269.570455 211.402351 
L 271.261364 209.483145 
L 272.106818 208.687364 
L 272.952273 208.093878 
L 273.797727 207.684922 
L 274.643182 207.627054 
L 275.488636 208.475434 
L 276.334091 209.766891 
L 277.179545 210.79171 
L 278.025 211.459571 
L 278.870455 211.769572 
L 279.715909 211.67407 
L 281.406818 211.099748 
L 282.252273 210.982549 
L 283.097727 211.165042 
L 283.943182 211.502125 
L 288.170455 214.092991 
L 293.243182 216.46772 
L 295.779545 218.29537 
L 298.315909 220.057297 
L 300.852273 221.428862 
L 303.388636 222.844266 
L 308.461364 225.887481 
L 321.143182 232.144844 
L 334.670455 237.956112 
L 338.897727 239.451269 
L 343.970455 241.027491 
L 350.734091 242.800504 
L 358.343182 244.572762 
L 367.643182 246.480197 
L 372.715909 247.37193 
L 378.634091 248.18757 
L 382.861364 248.612266 
L 388.779545 248.906292 
L 394.697727 248.967814 
L 402.306818 248.817982 
L 406.534091 248.956996 
L 423.443182 250.121425 
L 441.197727 250.954243 
L 457.261364 251.930974 
L 464.025 252.333929 
L 480.088636 253.05974 
L 480.934091 253.223936 
L 481.779545 253.131862 
L 482.625 253.254617 
L 486.006818 253.293835 
L 487.697727 253.402895 
L 488.543182 253.375615 
L 489.388636 253.503931 
L 490.234091 253.428586 
L 491.079545 253.541864 
L 492.770455 253.54796 
L 493.615909 253.636045 
L 494.461364 253.582683 
L 495.306818 253.690548 
L 496.997727 253.706517 
L 499.534091 253.823798 
L 502.915909 253.88097 
L 503.761364 253.971871 
L 505.452273 254.012472 
L 508.834091 254.056504 
L 509.679545 254.161317 
L 511.370455 254.203947 
L 540.115909 254.867279 
L 540.961364 255.037916 
L 541.806818 254.837202 
L 542.652273 255.127761 
L 543.497727 254.838161 
L 544.343182 255.135607 
L 545.188636 254.958976 
L 546.879545 255.140104 
L 547.725 254.948647 
L 548.570455 255.228162 
L 549.415909 255.048356 
L 551.106818 255.23902 
L 551.952273 255.084111 
L 552.797727 255.289078 
L 553.643182 255.179912 
L 557.870455 255.249787 
L 559.561364 255.340966 
L 559.561364 255.340966 
" style="fill:none;stroke:#d62728;stroke-linecap:square;stroke-width:1.5;"/>
   </g>
   <g id="line2d_18">
    <path clip-path="url(#p01ed0a1751)" d="M 52.288636 206.487353 
L 53.134091 201.338795 
L 53.979545 214.851979 
L 54.825 215.437833 
L 55.670455 209.074801 
L 56.515909 205.348429 
L 57.361364 205.642981 
L 59.052273 211.735679 
L 59.897727 213.594522 
L 60.743182 213.866732 
L 61.588636 212.692469 
L 62.434091 210.806517 
L 63.279545 209.909394 
L 64.125 210.685532 
L 66.661364 216.49894 
L 67.506818 216.883481 
L 68.352273 216.29647 
L 69.197727 215.304394 
L 70.043182 214.581647 
L 70.888636 214.602294 
L 71.734091 215.406665 
L 73.425 217.789536 
L 74.270455 218.484123 
L 75.115909 218.558245 
L 77.652273 217.450093 
L 78.497727 217.665375 
L 81.879545 219.758949 
L 82.725 219.874264 
L 85.261364 219.912347 
L 86.952273 220.246279 
L 88.643182 220.76079 
L 91.179545 221.722054 
L 92.870455 222.016845 
L 94.561364 222.249582 
L 96.252273 222.709848 
L 97.097727 223.154665 
L 97.943182 223.242484 
L 98.788636 222.867909 
L 99.634091 222.08925 
L 100.479545 221.47325 
L 102.170455 219.700329 
L 103.015909 219.024975 
L 103.861364 218.023607 
L 105.552273 215.15763 
L 106.397727 214.214695 
L 107.243182 215.954381 
L 108.088636 216.91636 
L 108.934091 217.1914 
L 109.779545 222.117616 
L 110.625 226.061356 
L 111.470455 231.343173 
L 112.315909 233.648651 
L 113.161364 233.167235 
L 114.006818 239.956451 
L 114.852273 243.681394 
L 115.697727 244.837659 
L 116.543182 244.044428 
L 117.388636 244.311779 
L 118.234091 241.057049 
L 119.079545 234.829802 
L 119.925 227.695346 
L 121.615909 219.392388 
L 122.461364 216.143993 
L 123.306818 217.054948 
L 124.152273 217.371128 
L 124.997727 216.311751 
L 125.843182 220.002148 
L 126.688636 222.600009 
L 127.534091 223.257608 
L 128.379545 223.496207 
L 129.225 225.031563 
L 130.070455 225.881311 
L 130.915909 224.883827 
L 131.761364 220.777381 
L 132.606818 217.496209 
L 133.452273 217.489378 
L 134.297727 216.194507 
L 135.988636 211.970199 
L 136.834091 211.727116 
L 139.370455 216.681609 
L 140.215909 217.994568 
L 141.061364 219.992194 
L 142.752273 225.157574 
L 143.597727 226.970086 
L 144.443182 228.173458 
L 145.288636 229.161847 
L 147.825 232.548067 
L 149.515909 234.202384 
L 150.361364 235.354001 
L 152.897727 239.247861 
L 153.743182 239.705455 
L 154.588636 239.611524 
L 155.434091 240.167935 
L 156.279545 240.444968 
L 157.970455 239.568865 
L 158.815909 239.893624 
L 159.661364 240.389688 
L 160.506818 240.596057 
L 161.352273 240.513783 
L 162.197727 240.294471 
L 163.043182 240.389297 
L 164.734091 240.980866 
L 165.579545 241.058396 
L 166.425 241.003159 
L 167.270455 241.164299 
L 171.497727 243.601704 
L 174.034091 244.281521 
L 174.879545 244.917259 
L 175.725 245.292393 
L 177.415909 245.390827 
L 178.261364 245.173881 
L 179.106818 245.28578 
L 179.952273 245.600032 
L 181.643182 245.681341 
L 182.488636 245.644789 
L 183.334091 245.443367 
L 184.179545 245.716472 
L 185.025 245.802712 
L 185.870455 245.635178 
L 186.715909 245.779657 
L 190.097727 245.425275 
L 190.943182 245.61077 
L 192.634091 245.402983 
L 194.325 244.966867 
L 195.170455 245.239193 
L 196.015909 244.993966 
L 196.861364 244.964734 
L 198.552273 244.471511 
L 199.397727 244.797205 
L 201.934091 244.600879 
L 202.779545 244.363687 
L 203.625 244.587396 
L 204.470455 244.657048 
L 205.315909 244.544684 
L 206.161364 244.564605 
L 207.006818 244.436123 
L 207.852273 244.44278 
L 208.697727 244.626243 
L 209.543182 244.563588 
L 210.388636 244.624035 
L 212.079545 244.383481 
L 212.925 244.545031 
L 213.770455 244.456402 
L 214.615909 244.61145 
L 216.306818 244.456129 
L 218.843182 244.547235 
L 219.688636 244.343209 
L 220.534091 244.447354 
L 221.379545 244.266624 
L 222.225 244.406828 
L 227.297727 244.063489 
L 228.143182 244.119769 
L 228.988636 243.860383 
L 229.834091 244.116708 
L 230.679545 243.837849 
L 231.525 244.177322 
L 232.370455 244.129734 
L 233.215909 243.936057 
L 234.061364 244.141096 
L 240.825 243.725767 
L 242.515909 243.717517 
L 243.361364 243.605397 
L 245.052273 243.635517 
L 245.897727 243.4933 
L 247.588636 243.417327 
L 248.434091 243.297198 
L 250.125 243.251454 
L 250.970455 243.11418 
L 252.661364 243.091424 
L 261.115909 242.759592 
L 262.806818 242.656925 
L 266.188636 242.493519 
L 268.725 242.432696 
L 271.261364 242.25808 
L 272.106818 242.288055 
L 272.952273 242.200097 
L 273.797727 242.227826 
L 274.643182 242.142445 
L 275.488636 242.186383 
L 278.025 242.026337 
L 280.561364 241.902134 
L 281.406818 241.787247 
L 282.252273 241.806473 
L 283.097727 241.656748 
L 283.943182 241.783415 
L 284.788636 241.615365 
L 285.634091 241.934865 
L 286.479545 241.844475 
L 288.170455 242.190049 
L 289.861364 241.973024 
L 290.706818 242.037987 
L 299.161364 241.370822 
L 300.852273 241.096044 
L 302.543182 241.024556 
L 304.234091 240.879837 
L 312.688636 240.512357 
L 316.915909 240.33336 
L 321.143182 240.075533 
L 324.525 240.008941 
L 328.752273 239.763418 
L 333.825 239.501811 
L 337.206818 239.32019 
L 339.743182 239.151567 
L 342.279545 239.100234 
L 349.043182 238.720324 
L 349.888636 238.798894 
L 354.115909 238.446067 
L 355.806818 238.323563 
L 360.034091 238.18841 
L 362.570455 238.012587 
L 363.415909 238.216559 
L 364.261364 238.059115 
L 365.106818 238.936643 
L 365.952273 237.982269 
L 366.797727 240.2665 
L 368.488636 244.191943 
L 369.334091 245.215645 
L 370.179545 244.017771 
L 371.025 240.626599 
L 371.870455 235.225245 
L 372.715909 227.671666 
L 374.406818 210.645936 
L 375.252273 204.661206 
L 376.097727 201.419554 
L 377.788636 196.257425 
L 378.634091 194.944574 
L 379.479545 196.212245 
L 380.325 198.286776 
L 381.170455 202.068172 
L 382.015909 208.16101 
L 382.861364 213.045923 
L 383.706818 216.691741 
L 384.552273 218.627429 
L 385.397727 219.831137 
L 386.243182 219.810072 
L 387.088636 219.10138 
L 387.934091 217.938693 
L 389.625 215.125778 
L 390.470455 214.232537 
L 391.315909 214.027576 
L 392.161364 215.68164 
L 393.006818 218.593243 
L 393.852273 222.481048 
L 395.543182 228.339168 
L 396.388636 230.934147 
L 397.234091 232.879193 
L 398.079545 233.589287 
L 398.925 233.853048 
L 400.615909 233.318406 
L 401.461364 233.555437 
L 402.306818 234.290728 
L 403.997727 236.332645 
L 405.688636 238.62432 
L 406.534091 239.449698 
L 407.379545 239.852512 
L 408.225 239.994031 
L 410.761364 239.952258 
L 411.606818 240.166641 
L 412.452273 240.633512 
L 414.988636 242.577621 
L 415.834091 242.840195 
L 417.525 242.961334 
L 420.061364 242.836146 
L 421.752273 243.14268 
L 427.670455 244.74387 
L 429.361364 244.725707 
L 431.897727 244.454427 
L 433.588636 244.546433 
L 436.125 244.72136 
L 438.661364 244.81729 
L 443.734091 245.183992 
L 449.652273 245.307073 
L 453.034091 245.065956 
L 458.952273 244.591312 
L 464.870455 244.430398 
L 473.325 244.377448 
L 483.470455 244.306478 
L 494.461364 244.18932 
L 516.443182 243.726305 
L 559.561364 243.337403 
L 559.561364 243.337403 
" style="fill:none;stroke:#9467bd;stroke-linecap:square;stroke-width:1.5;"/>
   </g>
   <g id="line2d_19">
    <path clip-path="url(#p01ed0a1751)" d="M 52.288636 206.487353 
L 53.134091 198.257429 
L 53.979545 211.697243 
L 54.825 216.396322 
L 56.515909 207.603152 
L 57.361364 205.334256 
L 58.206818 205.654816 
L 59.052273 207.458683 
L 60.743182 211.802047 
L 61.588636 212.717007 
L 62.434091 212.548558 
L 63.279545 212.181882 
L 64.125 212.288026 
L 64.970455 212.843614 
L 66.661364 214.19878 
L 67.506818 214.551226 
L 69.197727 215.099377 
L 70.043182 215.652601 
L 72.579545 217.746177 
L 73.425 217.999991 
L 74.270455 217.861633 
L 75.961364 217.152588 
L 76.806818 217.144779 
L 77.652273 217.603613 
L 79.343182 219.247904 
L 80.188636 219.829996 
L 81.034091 219.972994 
L 81.879545 219.714589 
L 82.725 219.291702 
L 83.570455 219.004474 
L 84.415909 219.07129 
L 85.261364 219.494442 
L 86.952273 220.620049 
L 87.797727 220.892841 
L 88.643182 220.87491 
L 90.334091 220.484543 
L 91.179545 220.477541 
L 92.025 220.688314 
L 94.561364 221.648942 
L 96.252273 221.73284 
L 97.943182 221.749971 
L 99.634091 222.165352 
L 101.325 222.727383 
L 103.015909 223.015547 
L 104.706818 223.062083 
L 106.397727 222.871045 
L 107.243182 222.924006 
L 108.088636 222.862147 
L 108.934091 222.392432 
L 110.625 220.48224 
L 111.470455 220.405142 
L 112.315909 219.965149 
L 113.161364 219.309505 
L 114.006818 218.902979 
L 114.852273 219.431391 
L 116.543182 221.183598 
L 117.388636 222.679168 
L 118.234091 227.133674 
L 119.079545 228.311888 
L 119.925 228.208883 
L 120.770455 232.125861 
L 121.615909 233.349568 
L 122.461364 234.316285 
L 123.306818 239.854655 
L 124.152273 242.870899 
L 124.997727 243.880083 
L 125.843182 248.743741 
L 126.688636 250.461242 
L 127.534091 250.121027 
L 128.379545 253.831802 
L 129.225 255.178503 
L 130.070455 254.90441 
L 130.915909 256.460616 
L 131.761364 256.498661 
L 132.606818 255.239059 
L 133.452273 253.745716 
L 134.297727 252.946732 
L 135.143182 250.600445 
L 135.988636 247.388785 
L 136.834091 244.772218 
L 138.525 241.107385 
L 140.215909 237.910712 
L 141.061364 238.002452 
L 141.906818 239.056468 
L 142.752273 240.689707 
L 144.443182 245.035186 
L 146.134091 248.550849 
L 146.979545 250.122907 
L 148.670455 251.477708 
L 150.361364 253.18722 
L 151.206818 253.764028 
L 152.052273 254.001488 
L 152.897727 254.412646 
L 153.743182 255.275539 
L 154.588636 255.873233 
L 155.434091 255.869555 
L 156.279545 255.266617 
L 158.815909 252.418677 
L 159.661364 251.19863 
L 161.352273 247.993491 
L 162.197727 246.94717 
L 163.043182 246.605309 
L 165.579545 247.104112 
L 166.425 247.073493 
L 167.270455 246.788967 
L 168.115909 246.732687 
L 169.806818 247.256027 
L 170.652273 247.194271 
L 171.497727 246.85222 
L 173.188636 245.534049 
L 174.879545 244.287506 
L 175.725 243.924782 
L 177.415909 243.621212 
L 178.261364 243.681885 
L 181.643182 244.771272 
L 183.334091 244.714618 
L 185.025 244.444503 
L 186.715909 244.107984 
L 188.406818 244.005973 
L 190.943182 244.237893 
L 193.479545 244.417823 
L 198.552273 244.484093 
L 203.625 244.208308 
L 209.543182 244.608906 
L 214.615909 244.432786 
L 220.534091 244.54279 
L 223.915909 244.547487 
L 231.525 244.49793 
L 239.979545 244.240649 
L 244.206818 244.185041 
L 250.125 244.091602 
L 256.043182 243.940575 
L 278.870455 243.327255 
L 284.788636 243.141852 
L 297.470455 242.818354 
L 302.543182 242.737471 
L 337.206818 242.150692 
L 376.097727 241.527617 
L 382.015909 241.505616 
L 393.852273 241.31719 
L 401.461364 241.305774 
L 412.452273 241.181875 
L 417.525 241.173528 
L 421.752273 241.102433 
L 448.806818 241.046701 
L 452.188636 240.969411 
L 454.725 241.068239 
L 456.415909 241.050592 
L 458.106818 240.91681 
L 460.643182 240.892842 
L 464.870455 240.904833 
L 474.170455 240.745031 
L 475.861364 240.761109 
L 480.088636 240.676501 
L 501.225 240.533485 
L 502.915909 240.453035 
L 505.452273 240.544513 
L 508.834091 240.356832 
L 510.525 240.449444 
L 512.215909 240.36658 
L 514.752273 240.219684 
L 518.134091 240.480407 
L 521.515909 240.119411 
L 523.206818 240.304965 
L 524.897727 240.450006 
L 528.279545 239.899783 
L 529.970455 240.058105 
L 531.661364 240.380853 
L 532.506818 240.552783 
L 535.043182 240.598 
L 538.425 240.059277 
L 541.806818 240.029006 
L 548.570455 240.148884 
L 551.106818 239.993283 
L 555.334091 239.979419 
L 557.870455 240.018765 
L 559.561364 240.028775 
L 559.561364 240.028775 
" style="fill:none;stroke:#8c564b;stroke-linecap:square;stroke-width:1.5;"/>
   </g>
   <g id="line2d_20">
    <path clip-path="url(#p01ed0a1751)" d="M 52.288636 206.487353 
L 53.134091 196.502506 
L 53.979545 210.018714 
L 54.825 216.861933 
L 55.670455 213.858018 
L 56.515909 208.964226 
L 57.361364 205.532504 
L 58.206818 204.521809 
L 59.052273 205.599095 
L 59.897727 207.962455 
L 60.743182 210.685397 
L 61.588636 212.645429 
L 62.434091 213.470158 
L 63.279545 213.536589 
L 64.970455 213.156496 
L 66.661364 212.819776 
L 67.506818 212.87677 
L 68.352273 213.332819 
L 69.197727 214.286112 
L 70.888636 216.854059 
L 71.734091 217.734588 
L 72.579545 217.99004 
L 73.425 217.673508 
L 75.115909 216.451841 
L 75.961364 216.29462 
L 76.806818 216.714808 
L 79.343182 219.33349 
L 80.188636 219.54465 
L 81.034091 219.318788 
L 81.879545 218.926243 
L 82.725 218.66537 
L 83.570455 218.718956 
L 86.952273 220.034932 
L 89.488636 220.076757 
L 92.025 220.661809 
L 95.406818 220.651467 
L 97.943182 221.591697 
L 98.788636 221.590677 
L 100.479545 221.2411 
L 101.325 221.241858 
L 103.015909 221.847309 
L 103.861364 222.148834 
L 104.706818 222.283009 
L 107.243182 222.232473 
L 111.470455 223.232785 
L 112.315909 223.111532 
L 113.161364 222.83964 
L 114.006818 222.787571 
L 114.852273 222.531766 
L 115.697727 222.147556 
L 116.543182 221.603543 
L 118.234091 220.042575 
L 119.079545 219.340445 
L 119.925 219.322386 
L 120.770455 219.163574 
L 121.615909 218.767826 
L 122.461364 219.206299 
L 123.306818 219.517249 
L 124.152273 223.598209 
L 124.997727 226.202958 
L 125.843182 225.950859 
L 126.688636 226.835128 
L 127.534091 226.454805 
L 128.379545 225.366089 
L 129.225 234.169034 
L 130.070455 240.744248 
L 130.915909 244.547943 
L 131.761364 245.316785 
L 132.606818 245.226064 
L 133.452273 242.353227 
L 135.143182 233.143193 
L 135.988636 232.857002 
L 136.834091 234.250009 
L 137.679545 236.666577 
L 138.525 240.594438 
L 139.370455 245.793896 
L 140.215909 249.562515 
L 141.061364 252.120446 
L 141.906818 255.055394 
L 142.752273 256.790045 
L 143.597727 256.095297 
L 144.443182 254.740927 
L 145.288636 252.098422 
L 147.825 241.17899 
L 148.670455 239.358194 
L 149.515909 239.054363 
L 150.361364 240.026006 
L 151.206818 241.822065 
L 152.897727 247.113771 
L 153.743182 248.961615 
L 154.588636 249.897429 
L 155.434091 250.067536 
L 157.125 249.411574 
L 157.970455 249.166146 
L 158.815909 248.643938 
L 159.661364 247.621755 
L 161.352273 244.755689 
L 163.043182 242.034356 
L 163.888636 240.918792 
L 164.734091 240.087206 
L 165.579545 239.804092 
L 166.425 240.193485 
L 168.115909 241.730288 
L 168.961364 242.149684 
L 169.806818 242.256203 
L 172.343182 242.129796 
L 173.188636 241.837675 
L 174.879545 240.701782 
L 175.725 240.312172 
L 176.570455 240.228778 
L 182.488636 240.703393 
L 184.179545 240.436059 
L 185.870455 240.115661 
L 188.406818 239.76069 
L 190.097727 239.49663 
L 194.325 239.562804 
L 196.861364 239.036437 
L 198.552273 238.64994 
L 200.243182 238.547967 
L 206.161364 238.562295 
L 208.697727 238.267702 
L 212.079545 237.74018 
L 214.615909 237.697145 
L 220.534091 237.731815 
L 225.606818 237.509519 
L 231.525 237.599598 
L 250.125 237.869424 
L 274.643182 238.048245 
L 320.297727 237.806359 
L 414.988636 237.972831 
L 559.561364 238.780757 
L 559.561364 238.780757 
" style="fill:none;stroke:#e377c2;stroke-linecap:square;stroke-width:1.5;"/>
   </g>
   <g id="line2d_21">
    <path clip-path="url(#p01ed0a1751)" d="M 52.288636 206.487353 
L 53.134091 194.891278 
L 53.979545 208.453988 
L 54.825 217.974007 
L 55.670455 216.641449 
L 57.361364 206.658368 
L 58.206818 204.061597 
L 59.052273 204.140509 
L 59.897727 206.471193 
L 60.743182 209.763705 
L 61.588636 212.567056 
L 62.434091 214.108151 
L 63.279545 214.527067 
L 64.125 214.45664 
L 67.506818 213.234344 
L 68.352273 213.268833 
L 69.197727 213.794701 
L 70.043182 214.79268 
L 71.734091 217.352607 
L 72.579545 218.274149 
L 73.425 218.595037 
L 74.270455 218.295392 
L 75.961364 216.918685 
L 76.806818 216.600069 
L 77.652273 216.888859 
L 78.497727 217.680817 
L 79.343182 218.637308 
L 80.188636 219.375392 
L 81.034091 219.690626 
L 81.879545 219.610615 
L 83.570455 219.135474 
L 84.415909 219.140338 
L 86.952273 219.770462 
L 89.488636 219.879094 
L 90.334091 220.150609 
L 92.025 220.877201 
L 92.870455 220.977233 
L 93.715909 220.799236 
L 95.406818 220.244401 
L 96.252273 220.306789 
L 97.097727 220.697761 
L 98.788636 221.717694 
L 99.634091 221.889559 
L 100.479545 221.74815 
L 102.170455 221.24521 
L 103.015909 221.289364 
L 103.861364 221.5946 
L 105.552273 222.380371 
L 106.397727 222.538022 
L 108.088636 222.400048 
L 109.779545 222.329213 
L 111.470455 222.709261 
L 113.161364 223.252447 
L 114.006818 223.457042 
L 115.697727 223.524293 
L 118.234091 223.551875 
L 119.925 222.99851 
L 120.770455 222.643005 
L 121.615909 222.007375 
L 122.461364 221.749119 
L 123.306818 221.174309 
L 124.152273 220.313639 
L 125.843182 220.21715 
L 127.534091 219.666719 
L 128.379545 218.56706 
L 129.225 220.747367 
L 130.070455 222.23148 
L 130.915909 227.997114 
L 131.761364 230.576301 
L 132.606818 229.85263 
L 133.452273 233.851469 
L 134.297727 234.939442 
L 135.143182 233.626381 
L 135.988636 235.964048 
L 136.834091 236.614261 
L 137.679545 235.461214 
L 138.525 233.60907 
L 139.370455 234.589652 
L 140.215909 236.19192 
L 141.061364 237.432891 
L 141.906818 238.926868 
L 142.752273 242.626238 
L 143.597727 245.774775 
L 144.443182 247.519169 
L 145.288636 249.693497 
L 146.134091 251.499323 
L 146.979545 251.818291 
L 147.825 251.227079 
L 148.670455 250.984117 
L 149.515909 250.412098 
L 151.206818 247.461404 
L 152.052273 247.559525 
L 152.897727 247.333248 
L 154.588636 244.738478 
L 155.434091 245.056098 
L 156.279545 245.509677 
L 157.970455 245.244827 
L 158.815909 245.63251 
L 160.506818 247.214133 
L 161.352273 247.246815 
L 162.197727 246.736922 
L 163.888636 245.406595 
L 164.734091 244.967984 
L 165.579545 244.846089 
L 166.425 245.059296 
L 167.270455 245.624285 
L 168.961364 247.246238 
L 169.806818 247.598894 
L 170.652273 247.396792 
L 171.497727 246.698305 
L 174.034091 243.770876 
L 174.879545 243.493447 
L 175.725 243.79054 
L 176.570455 244.481814 
L 178.261364 246.013491 
L 179.106818 246.363309 
L 179.952273 246.310459 
L 180.797727 245.92489 
L 182.488636 244.856133 
L 183.334091 244.538479 
L 184.179545 244.530449 
L 185.025 244.805093 
L 186.715909 245.650158 
L 187.561364 245.898045 
L 188.406818 245.898268 
L 189.252273 245.65378 
L 191.788636 244.547348 
L 192.634091 244.437887 
L 194.325 244.681386 
L 196.015909 244.941058 
L 197.706818 244.760978 
L 199.397727 244.426786 
L 201.088636 244.389466 
L 204.470455 244.752252 
L 206.161364 244.66253 
L 209.543182 244.384636 
L 212.079545 244.377557 
L 217.997727 244.562921 
L 221.379545 244.467687 
L 223.915909 244.453983 
L 227.297727 244.495413 
L 230.679545 244.409262 
L 234.061364 244.402612 
L 240.825 244.224624 
L 256.888636 244.03312 
L 266.188636 243.919835 
L 311.843182 243.222887 
L 371.870455 242.487765 
L 420.906818 242.194371 
L 559.561364 242.336917 
L 559.561364 242.336917 
" style="fill:none;stroke:#7f7f7f;stroke-linecap:square;stroke-width:1.5;"/>
   </g>
   <g id="line2d_22">
    <path clip-path="url(#p01ed0a1751)" d="M 52.288636 206.487353 
L 53.134091 193.202009 
L 54.825 218.665222 
L 55.670455 218.961379 
L 56.515909 214.0003 
L 57.361364 207.969767 
L 58.206818 203.756999 
L 59.052273 202.647245 
L 59.897727 204.816104 
L 61.588636 212.632716 
L 62.434091 215.003398 
L 63.279545 215.687249 
L 64.125 215.301248 
L 65.815909 213.735413 
L 66.661364 213.435831 
L 67.506818 213.543312 
L 68.352273 214.010886 
L 71.734091 216.672254 
L 73.425 217.860255 
L 74.270455 218.294862 
L 75.115909 218.492292 
L 75.961364 218.40686 
L 78.497727 217.551757 
L 79.343182 217.690871 
L 80.188636 218.169418 
L 81.879545 219.522947 
L 82.725 219.961134 
L 83.570455 220.082453 
L 84.415909 219.931512 
L 86.106818 219.414282 
L 86.952273 219.351393 
L 87.797727 219.480648 
L 91.179545 220.372008 
L 93.715909 220.638868 
L 95.406818 220.59127 
L 97.097727 220.365962 
L 97.943182 220.373406 
L 98.788636 220.545812 
L 101.325 221.359569 
L 102.170455 221.336922 
L 104.706818 220.718631 
L 105.552273 220.803057 
L 108.088636 221.721914 
L 108.934091 221.776427 
L 111.470455 221.390281 
L 112.315909 221.500815 
L 114.852273 222.257925 
L 115.697727 222.337331 
L 118.234091 222.300018 
L 122.461364 222.905764 
L 124.152273 223.136027 
L 126.688636 223.860208 
L 127.534091 223.869275 
L 130.070455 223.27551 
L 130.915909 222.633244 
L 131.761364 222.573281 
L 132.606818 222.195399 
L 133.452273 221.667841 
L 134.297727 221.704213 
L 135.143182 221.589762 
L 135.988636 220.990819 
L 136.834091 221.418371 
L 138.525 220.959275 
L 139.370455 222.445253 
L 140.215909 224.229787 
L 141.061364 230.168416 
L 141.906818 231.666035 
L 142.752273 229.025862 
L 143.597727 226.750444 
L 145.288636 222.985598 
L 146.134091 224.527774 
L 146.979545 229.098087 
L 148.670455 234.278075 
L 149.515909 235.045093 
L 150.361364 232.982643 
L 151.206818 233.210073 
L 152.052273 234.544299 
L 152.897727 238.415987 
L 153.743182 240.402902 
L 154.588636 240.243481 
L 155.434091 238.469642 
L 156.279545 235.777663 
L 157.125 233.626771 
L 157.970455 233.133223 
L 158.815909 235.647895 
L 160.506818 241.494304 
L 161.352273 245.010247 
L 162.197727 246.577931 
L 163.043182 245.841343 
L 163.888636 244.415151 
L 164.734091 243.699048 
L 165.579545 242.669201 
L 166.425 243.457263 
L 167.270455 246.06399 
L 168.115909 247.901555 
L 168.961364 248.241741 
L 169.806818 247.504405 
L 170.652273 245.811449 
L 172.343182 241.540113 
L 173.188636 240.535421 
L 174.034091 240.808947 
L 174.879545 242.133954 
L 175.725 243.852917 
L 176.570455 245.066848 
L 177.415909 245.423076 
L 178.261364 244.925396 
L 181.643182 241.589989 
L 182.488636 241.101272 
L 183.334091 240.859506 
L 184.179545 240.919146 
L 185.870455 241.449673 
L 186.715909 241.526953 
L 189.252273 241.34759 
L 190.097727 241.42984 
L 190.943182 241.388656 
L 191.788636 241.153759 
L 194.325 239.729512 
L 195.170455 239.591973 
L 196.015909 239.743848 
L 197.706818 240.274339 
L 198.552273 240.334998 
L 200.243182 239.995495 
L 201.934091 239.617031 
L 204.470455 239.388802 
L 207.852273 239.183719 
L 210.388636 238.995076 
L 212.925 239.127422 
L 214.615909 238.880268 
L 216.306818 238.551691 
L 217.997727 238.529713 
L 219.688636 238.587709 
L 225.606818 238.147847 
L 228.988636 237.891249 
L 232.370455 237.774496 
L 237.443182 237.464365 
L 267.034091 236.175864 
L 279.715909 235.851751 
L 318.606818 235.23169 
L 341.434091 235.07783 
L 382.861364 234.856748 
L 496.152273 233.781086 
L 559.561364 233.589235 
L 559.561364 233.589235 
" style="fill:none;stroke:#bcbd22;stroke-linecap:square;stroke-width:1.5;"/>
   </g>
   <g id="patch_4">
    <path d="M 26.925 582.9575 
L 26.925 39.3575 
" style="fill:none;stroke:#000000;stroke-linecap:square;stroke-linejoin:miter;stroke-width:0.8;"/>
   </g>
   <g id="patch_5">
    <path d="M 584.925 582.9575 
L 584.925 39.3575 
" style="fill:none;stroke:#000000;stroke-linecap:square;stroke-linejoin:miter;stroke-width:0.8;"/>
   </g>
   <g id="patch_6">
    <path d="M 26.925 582.9575 
L 584.925 582.9575 
" style="fill:none;stroke:#000000;stroke-linecap:square;stroke-linejoin:miter;stroke-width:0.8;"/>
   </g>
   <g id="patch_7">
    <path d="M 26.925 39.3575 
L 584.925 39.3575 
" style="fill:none;stroke:#000000;stroke-linecap:square;stroke-linejoin:miter;stroke-width:0.8;"/>
   </g>
   <g id="text_15">
    <!-- Class separation -->
    <g transform="translate(390.470455 577.5215)scale(0.1 -0.1)">
     <defs>
      <path d="M 64.40625 67.28125 
L 64.40625 56.890625 
Q 59.421875 61.53125 53.78125 63.8125 
Q 48.140625 66.109375 41.796875 66.109375 
Q 29.296875 66.109375 22.65625 58.46875 
Q 16.015625 50.828125 16.015625 36.375 
Q 16.015625 21.96875 22.65625 14.328125 
Q 29.296875 6.6875 41.796875 6.6875 
Q 48.140625 6.6875 53.78125 8.984375 
Q 59.421875 11.28125 64.40625 15.921875 
L 64.40625 5.609375 
Q 59.234375 2.09375 53.4375 0.328125 
Q 47.65625 -1.421875 41.21875 -1.421875 
Q 24.65625 -1.421875 15.125 8.703125 
Q 5.609375 18.84375 5.609375 36.375 
Q 5.609375 53.953125 15.125 64.078125 
Q 24.65625 74.21875 41.21875 74.21875 
Q 47.75 74.21875 53.53125 72.484375 
Q 59.328125 70.75 64.40625 67.28125 
z
" id="DejaVuSans-67"/>
      <path d="M 9.421875 75.984375 
L 18.40625 75.984375 
L 18.40625 0 
L 9.421875 0 
z
" id="DejaVuSans-108"/>
      <path d="M 34.28125 27.484375 
Q 23.390625 27.484375 19.1875 25 
Q 14.984375 22.515625 14.984375 16.5 
Q 14.984375 11.71875 18.140625 8.90625 
Q 21.296875 6.109375 26.703125 6.109375 
Q 34.1875 6.109375 38.703125 11.40625 
Q 43.21875 16.703125 43.21875 25.484375 
L 43.21875 27.484375 
z
M 52.203125 31.203125 
L 52.203125 0 
L 43.21875 0 
L 43.21875 8.296875 
Q 40.140625 3.328125 35.546875 0.953125 
Q 30.953125 -1.421875 24.3125 -1.421875 
Q 15.921875 -1.421875 10.953125 3.296875 
Q 6 8.015625 6 15.921875 
Q 6 25.140625 12.171875 29.828125 
Q 18.359375 34.515625 30.609375 34.515625 
L 43.21875 34.515625 
L 43.21875 35.40625 
Q 43.21875 41.609375 39.140625 45 
Q 35.0625 48.390625 27.6875 48.390625 
Q 23 48.390625 18.546875 47.265625 
Q 14.109375 46.140625 10.015625 43.890625 
L 10.015625 52.203125 
Q 14.9375 54.109375 19.578125 55.046875 
Q 24.21875 56 28.609375 56 
Q 40.484375 56 46.34375 49.84375 
Q 52.203125 43.703125 52.203125 31.203125 
z
" id="DejaVuSans-97"/>
      <path id="DejaVuSans-32"/>
      <path d="M 56.203125 29.59375 
L 56.203125 25.203125 
L 14.890625 25.203125 
Q 15.484375 15.921875 20.484375 11.0625 
Q 25.484375 6.203125 34.421875 6.203125 
Q 39.59375 6.203125 44.453125 7.46875 
Q 49.3125 8.734375 54.109375 11.28125 
L 54.109375 2.78125 
Q 49.265625 0.734375 44.1875 -0.34375 
Q 39.109375 -1.421875 33.890625 -1.421875 
Q 20.796875 -1.421875 13.15625 6.1875 
Q 5.515625 13.8125 5.515625 26.8125 
Q 5.515625 40.234375 12.765625 48.109375 
Q 20.015625 56 32.328125 56 
Q 43.359375 56 49.78125 48.890625 
Q 56.203125 41.796875 56.203125 29.59375 
z
M 47.21875 32.234375 
Q 47.125 39.59375 43.09375 43.984375 
Q 39.0625 48.390625 32.421875 48.390625 
Q 24.90625 48.390625 20.390625 44.140625 
Q 15.875 39.890625 15.1875 32.171875 
z
" id="DejaVuSans-101"/>
      <path d="M 41.109375 46.296875 
Q 39.59375 47.171875 37.8125 47.578125 
Q 36.03125 48 33.890625 48 
Q 26.265625 48 22.1875 43.046875 
Q 18.109375 38.09375 18.109375 28.8125 
L 18.109375 0 
L 9.078125 0 
L 9.078125 54.6875 
L 18.109375 54.6875 
L 18.109375 46.1875 
Q 20.953125 51.171875 25.484375 53.578125 
Q 30.03125 56 36.53125 56 
Q 37.453125 56 38.578125 55.875 
Q 39.703125 55.765625 41.0625 55.515625 
z
" id="DejaVuSans-114"/>
      <path d="M 18.3125 70.21875 
L 18.3125 54.6875 
L 36.8125 54.6875 
L 36.8125 47.703125 
L 18.3125 47.703125 
L 18.3125 18.015625 
Q 18.3125 11.328125 20.140625 9.421875 
Q 21.96875 7.515625 27.59375 7.515625 
L 36.8125 7.515625 
L 36.8125 0 
L 27.59375 0 
Q 17.1875 0 13.234375 3.875 
Q 9.28125 7.765625 9.28125 18.015625 
L 9.28125 47.703125 
L 2.6875 47.703125 
L 2.6875 54.6875 
L 9.28125 54.6875 
L 9.28125 70.21875 
z
" id="DejaVuSans-116"/>
      <path d="M 9.421875 54.6875 
L 18.40625 54.6875 
L 18.40625 0 
L 9.421875 0 
z
M 9.421875 75.984375 
L 18.40625 75.984375 
L 18.40625 64.59375 
L 9.421875 64.59375 
z
" id="DejaVuSans-105"/>
      <path d="M 54.890625 33.015625 
L 54.890625 0 
L 45.90625 0 
L 45.90625 32.71875 
Q 45.90625 40.484375 42.875 44.328125 
Q 39.84375 48.1875 33.796875 48.1875 
Q 26.515625 48.1875 22.3125 43.546875 
Q 18.109375 38.921875 18.109375 30.90625 
L 18.109375 0 
L 9.078125 0 
L 9.078125 54.6875 
L 18.109375 54.6875 
L 18.109375 46.1875 
Q 21.34375 51.125 25.703125 53.5625 
Q 30.078125 56 35.796875 56 
Q 45.21875 56 50.046875 50.171875 
Q 54.890625 44.34375 54.890625 33.015625 
z
" id="DejaVuSans-110"/>
     </defs>
     <use xlink:href="#DejaVuSans-67"/>
     <use x="69.824219" xlink:href="#DejaVuSans-108"/>
     <use x="97.607422" xlink:href="#DejaVuSans-97"/>
     <use x="158.886719" xlink:href="#DejaVuSans-115"/>
     <use x="210.986328" xlink:href="#DejaVuSans-115"/>
     <use x="263.085938" xlink:href="#DejaVuSans-32"/>
     <use x="294.873047" xlink:href="#DejaVuSans-115"/>
     <use x="346.972656" xlink:href="#DejaVuSans-101"/>
     <use x="408.496094" xlink:href="#DejaVuSans-112"/>
     <use x="471.972656" xlink:href="#DejaVuSans-97"/>
     <use x="533.251953" xlink:href="#DejaVuSans-114"/>
     <use x="574.365234" xlink:href="#DejaVuSans-97"/>
     <use x="635.644531" xlink:href="#DejaVuSans-116"/>
     <use x="674.853516" xlink:href="#DejaVuSans-105"/>
     <use x="702.636719" xlink:href="#DejaVuSans-111"/>
     <use x="763.818359" xlink:href="#DejaVuSans-110"/>
    </g>
   </g>
   <g id="text_16">
    <!-- Distance from final baseline solution -->
    <g transform="translate(159.74125 19.3575)scale(0.16 -0.16)">
     <defs>
      <path d="M 19.671875 64.796875 
L 19.671875 8.109375 
L 31.59375 8.109375 
Q 46.6875 8.109375 53.6875 14.9375 
Q 60.6875 21.78125 60.6875 36.53125 
Q 60.6875 51.171875 53.6875 57.984375 
Q 46.6875 64.796875 31.59375 64.796875 
z
M 9.8125 72.90625 
L 30.078125 72.90625 
Q 51.265625 72.90625 61.171875 64.09375 
Q 71.09375 55.28125 71.09375 36.53125 
Q 71.09375 17.671875 61.125 8.828125 
Q 51.171875 0 30.078125 0 
L 9.8125 0 
z
" id="DejaVuSans-68"/>
      <path d="M 37.109375 75.984375 
L 37.109375 68.5 
L 28.515625 68.5 
Q 23.6875 68.5 21.796875 66.546875 
Q 19.921875 64.59375 19.921875 59.515625 
L 19.921875 54.6875 
L 34.71875 54.6875 
L 34.71875 47.703125 
L 19.921875 47.703125 
L 19.921875 0 
L 10.890625 0 
L 10.890625 47.703125 
L 2.296875 47.703125 
L 2.296875 54.6875 
L 10.890625 54.6875 
L 10.890625 58.5 
Q 10.890625 67.625 15.140625 71.796875 
Q 19.390625 75.984375 28.609375 75.984375 
z
" id="DejaVuSans-102"/>
      <path d="M 52 44.1875 
Q 55.375 50.25 60.0625 53.125 
Q 64.75 56 71.09375 56 
Q 79.640625 56 84.28125 50.015625 
Q 88.921875 44.046875 88.921875 33.015625 
L 88.921875 0 
L 79.890625 0 
L 79.890625 32.71875 
Q 79.890625 40.578125 77.09375 44.375 
Q 74.3125 48.1875 68.609375 48.1875 
Q 61.625 48.1875 57.5625 43.546875 
Q 53.515625 38.921875 53.515625 30.90625 
L 53.515625 0 
L 44.484375 0 
L 44.484375 32.71875 
Q 44.484375 40.625 41.703125 44.40625 
Q 38.921875 48.1875 33.109375 48.1875 
Q 26.21875 48.1875 22.15625 43.53125 
Q 18.109375 38.875 18.109375 30.90625 
L 18.109375 0 
L 9.078125 0 
L 9.078125 54.6875 
L 18.109375 54.6875 
L 18.109375 46.1875 
Q 21.1875 51.21875 25.484375 53.609375 
Q 29.78125 56 35.6875 56 
Q 41.65625 56 45.828125 52.96875 
Q 50 49.953125 52 44.1875 
z
" id="DejaVuSans-109"/>
      <path d="M 48.6875 27.296875 
Q 48.6875 37.203125 44.609375 42.84375 
Q 40.53125 48.484375 33.40625 48.484375 
Q 26.265625 48.484375 22.1875 42.84375 
Q 18.109375 37.203125 18.109375 27.296875 
Q 18.109375 17.390625 22.1875 11.75 
Q 26.265625 6.109375 33.40625 6.109375 
Q 40.53125 6.109375 44.609375 11.75 
Q 48.6875 17.390625 48.6875 27.296875 
z
M 18.109375 46.390625 
Q 20.953125 51.265625 25.265625 53.625 
Q 29.59375 56 35.59375 56 
Q 45.5625 56 51.78125 48.09375 
Q 58.015625 40.1875 58.015625 27.296875 
Q 58.015625 14.40625 51.78125 6.484375 
Q 45.5625 -1.421875 35.59375 -1.421875 
Q 29.59375 -1.421875 25.265625 0.953125 
Q 20.953125 3.328125 18.109375 8.203125 
L 18.109375 0 
L 9.078125 0 
L 9.078125 75.984375 
L 18.109375 75.984375 
z
" id="DejaVuSans-98"/>
      <path d="M 8.5 21.578125 
L 8.5 54.6875 
L 17.484375 54.6875 
L 17.484375 21.921875 
Q 17.484375 14.15625 20.5 10.265625 
Q 23.53125 6.390625 29.59375 6.390625 
Q 36.859375 6.390625 41.078125 11.03125 
Q 45.3125 15.671875 45.3125 23.6875 
L 45.3125 54.6875 
L 54.296875 54.6875 
L 54.296875 0 
L 45.3125 0 
L 45.3125 8.40625 
Q 42.046875 3.421875 37.71875 1 
Q 33.40625 -1.421875 27.6875 -1.421875 
Q 18.265625 -1.421875 13.375 4.4375 
Q 8.5 10.296875 8.5 21.578125 
z
M 31.109375 56 
z
" id="DejaVuSans-117"/>
     </defs>
     <use xlink:href="#DejaVuSans-68"/>
     <use x="77.001953" xlink:href="#DejaVuSans-105"/>
     <use x="104.785156" xlink:href="#DejaVuSans-115"/>
     <use x="156.884766" xlink:href="#DejaVuSans-116"/>
     <use x="196.09375" xlink:href="#DejaVuSans-97"/>
     <use x="257.373047" xlink:href="#DejaVuSans-110"/>
     <use x="320.751953" xlink:href="#DejaVuSans-99"/>
     <use x="375.732422" xlink:href="#DejaVuSans-101"/>
     <use x="437.255859" xlink:href="#DejaVuSans-32"/>
     <use x="469.042969" xlink:href="#DejaVuSans-102"/>
     <use x="504.248047" xlink:href="#DejaVuSans-114"/>
     <use x="543.111328" xlink:href="#DejaVuSans-111"/>
     <use x="604.292969" xlink:href="#DejaVuSans-109"/>
     <use x="701.705078" xlink:href="#DejaVuSans-32"/>
     <use x="733.492188" xlink:href="#DejaVuSans-102"/>
     <use x="768.697266" xlink:href="#DejaVuSans-105"/>
     <use x="796.480469" xlink:href="#DejaVuSans-110"/>
     <use x="859.859375" xlink:href="#DejaVuSans-97"/>
     <use x="921.138672" xlink:href="#DejaVuSans-108"/>
     <use x="948.921875" xlink:href="#DejaVuSans-32"/>
     <use x="980.708984" xlink:href="#DejaVuSans-98"/>
     <use x="1044.185547" xlink:href="#DejaVuSans-97"/>
     <use x="1105.464844" xlink:href="#DejaVuSans-115"/>
     <use x="1157.564453" xlink:href="#DejaVuSans-101"/>
     <use x="1219.087891" xlink:href="#DejaVuSans-108"/>
     <use x="1246.871094" xlink:href="#DejaVuSans-105"/>
     <use x="1274.654297" xlink:href="#DejaVuSans-110"/>
     <use x="1338.033203" xlink:href="#DejaVuSans-101"/>
     <use x="1399.556641" xlink:href="#DejaVuSans-32"/>
     <use x="1431.34375" xlink:href="#DejaVuSans-115"/>
     <use x="1483.443359" xlink:href="#DejaVuSans-111"/>
     <use x="1544.625" xlink:href="#DejaVuSans-108"/>
     <use x="1572.408203" xlink:href="#DejaVuSans-117"/>
     <use x="1635.787109" xlink:href="#DejaVuSans-116"/>
     <use x="1674.996094" xlink:href="#DejaVuSans-105"/>
     <use x="1702.779297" xlink:href="#DejaVuSans-111"/>
     <use x="1763.960938" xlink:href="#DejaVuSans-110"/>
    </g>
   </g>
   <g id="legend_1">
    <g id="line2d_23">
     <path d="M 49.917187 628.671938 
L 69.917187 628.671938 
" style="fill:none;stroke:#1f77b4;stroke-linecap:square;stroke-width:1.5;"/>
    </g>
    <g id="line2d_24"/>
    <g id="text_17">
     <!-- Baseline -->
     <g transform="translate(77.917187 632.171938)scale(0.1 -0.1)">
      <defs>
       <path d="M 19.671875 34.8125 
L 19.671875 8.109375 
L 35.5 8.109375 
Q 43.453125 8.109375 47.28125 11.40625 
Q 51.125 14.703125 51.125 21.484375 
Q 51.125 28.328125 47.28125 31.5625 
Q 43.453125 34.8125 35.5 34.8125 
z
M 19.671875 64.796875 
L 19.671875 42.828125 
L 34.28125 42.828125 
Q 41.5 42.828125 45.03125 45.53125 
Q 48.578125 48.25 48.578125 53.8125 
Q 48.578125 59.328125 45.03125 62.0625 
Q 41.5 64.796875 34.28125 64.796875 
z
M 9.8125 72.90625 
L 35.015625 72.90625 
Q 46.296875 72.90625 52.390625 68.21875 
Q 58.5 63.53125 58.5 54.890625 
Q 58.5 48.1875 55.375 44.234375 
Q 52.25 40.28125 46.1875 39.3125 
Q 53.46875 37.75 57.5 32.78125 
Q 61.53125 27.828125 61.53125 20.40625 
Q 61.53125 10.640625 54.890625 5.3125 
Q 48.25 0 35.984375 0 
L 9.8125 0 
z
" id="DejaVuSans-66"/>
      </defs>
      <use xlink:href="#DejaVuSans-66"/>
      <use x="68.603516" xlink:href="#DejaVuSans-97"/>
      <use x="129.882812" xlink:href="#DejaVuSans-115"/>
      <use x="181.982422" xlink:href="#DejaVuSans-101"/>
      <use x="243.505859" xlink:href="#DejaVuSans-108"/>
      <use x="271.289062" xlink:href="#DejaVuSans-105"/>
      <use x="299.072266" xlink:href="#DejaVuSans-110"/>
      <use x="362.451172" xlink:href="#DejaVuSans-101"/>
     </g>
    </g>
    <g id="line2d_25">
     <path d="M 49.917187 643.350063 
L 69.917187 643.350063 
" style="fill:none;stroke:#ff7f0e;stroke-linecap:square;stroke-width:1.5;"/>
    </g>
    <g id="line2d_26"/>
    <g id="text_18">
     <!-- Forced normaliz. -->
     <g transform="translate(77.917187 646.850063)scale(0.1 -0.1)">
      <defs>
       <path d="M 9.8125 72.90625 
L 51.703125 72.90625 
L 51.703125 64.59375 
L 19.671875 64.59375 
L 19.671875 43.109375 
L 48.578125 43.109375 
L 48.578125 34.8125 
L 19.671875 34.8125 
L 19.671875 0 
L 9.8125 0 
z
" id="DejaVuSans-70"/>
       <path d="M 45.40625 46.390625 
L 45.40625 75.984375 
L 54.390625 75.984375 
L 54.390625 0 
L 45.40625 0 
L 45.40625 8.203125 
Q 42.578125 3.328125 38.25 0.953125 
Q 33.9375 -1.421875 27.875 -1.421875 
Q 17.96875 -1.421875 11.734375 6.484375 
Q 5.515625 14.40625 5.515625 27.296875 
Q 5.515625 40.1875 11.734375 48.09375 
Q 17.96875 56 27.875 56 
Q 33.9375 56 38.25 53.625 
Q 42.578125 51.265625 45.40625 46.390625 
z
M 14.796875 27.296875 
Q 14.796875 17.390625 18.875 11.75 
Q 22.953125 6.109375 30.078125 6.109375 
Q 37.203125 6.109375 41.296875 11.75 
Q 45.40625 17.390625 45.40625 27.296875 
Q 45.40625 37.203125 41.296875 42.84375 
Q 37.203125 48.484375 30.078125 48.484375 
Q 22.953125 48.484375 18.875 42.84375 
Q 14.796875 37.203125 14.796875 27.296875 
z
" id="DejaVuSans-100"/>
       <path d="M 5.515625 54.6875 
L 48.1875 54.6875 
L 48.1875 46.484375 
L 14.40625 7.171875 
L 48.1875 7.171875 
L 48.1875 0 
L 4.296875 0 
L 4.296875 8.203125 
L 38.09375 47.515625 
L 5.515625 47.515625 
z
" id="DejaVuSans-122"/>
       <path d="M 10.6875 12.40625 
L 21 12.40625 
L 21 0 
L 10.6875 0 
z
" id="DejaVuSans-46"/>
      </defs>
      <use xlink:href="#DejaVuSans-70"/>
      <use x="53.894531" xlink:href="#DejaVuSans-111"/>
      <use x="115.076172" xlink:href="#DejaVuSans-114"/>
      <use x="153.939453" xlink:href="#DejaVuSans-99"/>
      <use x="208.919922" xlink:href="#DejaVuSans-101"/>
      <use x="270.443359" xlink:href="#DejaVuSans-100"/>
      <use x="333.919922" xlink:href="#DejaVuSans-32"/>
      <use x="365.707031" xlink:href="#DejaVuSans-110"/>
      <use x="429.085938" xlink:href="#DejaVuSans-111"/>
      <use x="490.267578" xlink:href="#DejaVuSans-114"/>
      <use x="529.630859" xlink:href="#DejaVuSans-109"/>
      <use x="627.042969" xlink:href="#DejaVuSans-97"/>
      <use x="688.322266" xlink:href="#DejaVuSans-108"/>
      <use x="716.105469" xlink:href="#DejaVuSans-105"/>
      <use x="743.888672" xlink:href="#DejaVuSans-122"/>
      <use x="796.378906" xlink:href="#DejaVuSans-46"/>
     </g>
    </g>
    <g id="line2d_27">
     <path d="M 180.732813 628.671938 
L 200.732813 628.671938 
" style="fill:none;stroke:#2ca02c;stroke-linecap:square;stroke-width:1.5;"/>
    </g>
    <g id="line2d_28"/>
    <g id="text_19">
     <!-- $\lambda=0.005$ -->
     <g transform="translate(208.732813 632.171938)scale(0.1 -0.1)">
      <defs>
       <path d="M 36.71875 67.4375 
L 48.828125 0 
L 39.3125 0 
L 31.84375 40.4375 
L 5.125 0 
L -4.390625 0 
L 29.734375 52.4375 
L 28.03125 62.109375 
Q 26.953125 68.265625 21.734375 68.265625 
L 17.046875 68.265625 
L 18.5 75.984375 
L 24.21875 75.875 
Q 35.203125 75.734375 36.71875 67.4375 
z
" id="DejaVuSans-Oblique-955"/>
       <path d="M 10.59375 45.40625 
L 73.1875 45.40625 
L 73.1875 37.203125 
L 10.59375 37.203125 
z
M 10.59375 25.484375 
L 73.1875 25.484375 
L 73.1875 17.1875 
L 10.59375 17.1875 
z
" id="DejaVuSans-61"/>
      </defs>
      <use transform="translate(0 0.015625)" xlink:href="#DejaVuSans-Oblique-955"/>
      <use transform="translate(78.662109 0.015625)" xlink:href="#DejaVuSans-61"/>
      <use transform="translate(181.933594 0.015625)" xlink:href="#DejaVuSans-48"/>
      <use transform="translate(245.556641 0.015625)" xlink:href="#DejaVuSans-46"/>
      <use transform="translate(277.34375 0.015625)" xlink:href="#DejaVuSans-48"/>
      <use transform="translate(340.966797 0.015625)" xlink:href="#DejaVuSans-48"/>
      <use transform="translate(404.589844 0.015625)" xlink:href="#DejaVuSans-53"/>
     </g>
    </g>
    <g id="line2d_29">
     <path d="M 180.732813 643.350063 
L 200.732813 643.350063 
" style="fill:none;stroke:#d62728;stroke-linecap:square;stroke-width:1.5;"/>
    </g>
    <g id="line2d_30"/>
    <g id="text_20">
     <!-- $\lambda=0.05$ -->
     <g transform="translate(208.732813 646.850063)scale(0.1 -0.1)">
      <use transform="translate(0 0.015625)" xlink:href="#DejaVuSans-Oblique-955"/>
      <use transform="translate(78.662109 0.015625)" xlink:href="#DejaVuSans-61"/>
      <use transform="translate(181.933594 0.015625)" xlink:href="#DejaVuSans-48"/>
      <use transform="translate(245.556641 0.015625)" xlink:href="#DejaVuSans-46"/>
      <use transform="translate(277.34375 0.015625)" xlink:href="#DejaVuSans-48"/>
      <use transform="translate(340.966797 0.015625)" xlink:href="#DejaVuSans-53"/>
     </g>
    </g>
    <g id="line2d_31">
     <path d="M 275.632812 628.671938 
L 295.632812 628.671938 
" style="fill:none;stroke:#9467bd;stroke-linecap:square;stroke-width:1.5;"/>
    </g>
    <g id="line2d_32"/>
    <g id="text_21">
     <!-- $\lambda=0.5$ -->
     <g transform="translate(303.632812 632.171938)scale(0.1 -0.1)">
      <use transform="translate(0 0.015625)" xlink:href="#DejaVuSans-Oblique-955"/>
      <use transform="translate(78.662109 0.015625)" xlink:href="#DejaVuSans-61"/>
      <use transform="translate(181.933594 0.015625)" xlink:href="#DejaVuSans-48"/>
      <use transform="translate(245.556641 0.015625)" xlink:href="#DejaVuSans-46"/>
      <use transform="translate(277.34375 0.015625)" xlink:href="#DejaVuSans-53"/>
     </g>
    </g>
    <g id="line2d_33">
     <path d="M 275.632812 643.350063 
L 295.632812 643.350063 
" style="fill:none;stroke:#8c564b;stroke-linecap:square;stroke-width:1.5;"/>
    </g>
    <g id="line2d_34"/>
    <g id="text_22">
     <!-- $\lambda=1.5$ -->
     <g transform="translate(303.632812 646.850063)scale(0.1 -0.1)">
      <use transform="translate(0 0.015625)" xlink:href="#DejaVuSans-Oblique-955"/>
      <use transform="translate(78.662109 0.015625)" xlink:href="#DejaVuSans-61"/>
      <use transform="translate(181.933594 0.015625)" xlink:href="#DejaVuSans-49"/>
      <use transform="translate(245.556641 0.015625)" xlink:href="#DejaVuSans-46"/>
      <use transform="translate(277.34375 0.015625)" xlink:href="#DejaVuSans-53"/>
     </g>
    </g>
    <g id="line2d_35">
     <path d="M 357.732813 628.671938 
L 377.732813 628.671938 
" style="fill:none;stroke:#e377c2;stroke-linecap:square;stroke-width:1.5;"/>
    </g>
    <g id="line2d_36"/>
    <g id="text_23">
     <!-- $\lambda=3$ -->
     <g transform="translate(385.732813 632.171938)scale(0.1 -0.1)">
      <use transform="translate(0 0.015625)" xlink:href="#DejaVuSans-Oblique-955"/>
      <use transform="translate(78.662109 0.015625)" xlink:href="#DejaVuSans-61"/>
      <use transform="translate(181.933594 0.015625)" xlink:href="#DejaVuSans-51"/>
     </g>
    </g>
    <g id="line2d_37">
     <path d="M 430.332812 628.671938 
L 450.332812 628.671938 
" style="fill:none;stroke:#7f7f7f;stroke-linecap:square;stroke-width:1.5;"/>
    </g>
    <g id="line2d_38"/>
    <g id="text_24">
     <!-- $\lambda=5$ -->
     <g transform="translate(458.332812 632.171938)scale(0.1 -0.1)">
      <use transform="translate(0 0.015625)" xlink:href="#DejaVuSans-Oblique-955"/>
      <use transform="translate(78.662109 0.015625)" xlink:href="#DejaVuSans-61"/>
      <use transform="translate(181.933594 0.015625)" xlink:href="#DejaVuSans-53"/>
     </g>
    </g>
    <g id="line2d_39">
     <path d="M 502.932813 628.671938 
L 522.932812 628.671938 
" style="fill:none;stroke:#bcbd22;stroke-linecap:square;stroke-width:1.5;"/>
    </g>
    <g id="line2d_40"/>
    <g id="text_25">
     <!-- $\lambda=10$ -->
     <g transform="translate(530.932812 632.171938)scale(0.1 -0.1)">
      <use transform="translate(0 0.015625)" xlink:href="#DejaVuSans-Oblique-955"/>
      <use transform="translate(78.662109 0.015625)" xlink:href="#DejaVuSans-61"/>
      <use transform="translate(181.933594 0.015625)" xlink:href="#DejaVuSans-49"/>
      <use transform="translate(245.556641 0.015625)" xlink:href="#DejaVuSans-48"/>
     </g>
    </g>
   </g>
  </g>
 </g>
 <defs>
  <clipPath id="p01ed0a1751">
   <rect height="543.6" width="558" x="26.925" y="39.3575"/>
  </clipPath>
 </defs>
</svg>
