<?xml version="1.0" encoding="utf-8" standalone="no"?>
<!DOCTYPE svg PUBLIC "-//W3C//DTD SVG 1.1//EN"
  "http://www.w3.org/Graphics/SVG/1.1/DTD/svg11.dtd">
<!-- Created with matplotlib (https://matplotlib.org/) -->
<svg height="660.12975pt" version="1.1" viewBox="0 0 604.85 660.12975" width="604.85pt" xmlns="http://www.w3.org/2000/svg" xmlns:xlink="http://www.w3.org/1999/xlink">
 <metadata>
  <rdf:RDF xmlns:cc="http://creativecommons.org/ns#" xmlns:dc="http://purl.org/dc/elements/1.1/" xmlns:rdf="http://www.w3.org/1999/02/22-rdf-syntax-ns#">
   <cc:Work>
    <dc:type rdf:resource="http://purl.org/dc/dcmitype/StillImage"/>
    <dc:date>2021-01-13T11:50:44.440381</dc:date>
    <dc:format>image/svg+xml</dc:format>
    <dc:creator>
     <cc:Agent>
      <dc:title>Matplotlib v3.3.2, https://matplotlib.org/</dc:title>
     </cc:Agent>
    </dc:creator>
   </cc:Work>
  </rdf:RDF>
 </metadata>
 <defs>
  <style type="text/css">*{stroke-linecap:butt;stroke-linejoin:round;}</style>
 </defs>
 <g id="figure_1">
  <g id="patch_1">
   <path d="M 0 660.12975 
L 604.85 660.12975 
L 604.85 0 
L 0 0 
z
" style="fill:none;"/>
  </g>
  <g id="axes_1">
   <g id="patch_2">
    <path d="M 39.65 582.9575 
L 597.65 582.9575 
L 597.65 39.3575 
L 39.65 39.3575 
z
" style="fill:#ffffff;"/>
   </g>
   <g id="patch_3">
    <path clip-path="url(#p6aa83b4e8d)" d="M 114.895455 582.9575 
L 402.35 582.9575 
L 402.35 39.3575 
L 114.895455 39.3575 
z
" style="fill:#1f77b4;opacity:0.2;"/>
   </g>
   <g id="matplotlib.axis_1">
    <g id="xtick_1">
     <g id="line2d_1">
      <defs>
       <path d="M 0 0 
L 0 3.5 
" id="m0c95519930" style="stroke:#000000;stroke-width:0.8;"/>
      </defs>
      <g>
       <use style="stroke:#000000;stroke-width:0.8;" x="65.013636" xlink:href="#m0c95519930" y="582.9575"/>
      </g>
     </g>
     <g id="text_1">
      <!-- 0 -->
      <g transform="translate(61.832386 597.555938)scale(0.1 -0.1)">
       <defs>
        <path d="M 31.78125 66.40625 
Q 24.171875 66.40625 20.328125 58.90625 
Q 16.5 51.421875 16.5 36.375 
Q 16.5 21.390625 20.328125 13.890625 
Q 24.171875 6.390625 31.78125 6.390625 
Q 39.453125 6.390625 43.28125 13.890625 
Q 47.125 21.390625 47.125 36.375 
Q 47.125 51.421875 43.28125 58.90625 
Q 39.453125 66.40625 31.78125 66.40625 
z
M 31.78125 74.21875 
Q 44.046875 74.21875 50.515625 64.515625 
Q 56.984375 54.828125 56.984375 36.375 
Q 56.984375 17.96875 50.515625 8.265625 
Q 44.046875 -1.421875 31.78125 -1.421875 
Q 19.53125 -1.421875 13.0625 8.265625 
Q 6.59375 17.96875 6.59375 36.375 
Q 6.59375 54.828125 13.0625 64.515625 
Q 19.53125 74.21875 31.78125 74.21875 
z
" id="DejaVuSans-48"/>
       </defs>
       <use xlink:href="#DejaVuSans-48"/>
      </g>
     </g>
    </g>
    <g id="xtick_2">
     <g id="line2d_2">
      <g>
       <use style="stroke:#000000;stroke-width:0.8;" x="149.559091" xlink:href="#m0c95519930" y="582.9575"/>
      </g>
     </g>
     <g id="text_2">
      <!-- 100 -->
      <g transform="translate(140.015341 597.555938)scale(0.1 -0.1)">
       <defs>
        <path d="M 12.40625 8.296875 
L 28.515625 8.296875 
L 28.515625 63.921875 
L 10.984375 60.40625 
L 10.984375 69.390625 
L 28.421875 72.90625 
L 38.28125 72.90625 
L 38.28125 8.296875 
L 54.390625 8.296875 
L 54.390625 0 
L 12.40625 0 
z
" id="DejaVuSans-49"/>
       </defs>
       <use xlink:href="#DejaVuSans-49"/>
       <use x="63.623047" xlink:href="#DejaVuSans-48"/>
       <use x="127.246094" xlink:href="#DejaVuSans-48"/>
      </g>
     </g>
    </g>
    <g id="xtick_3">
     <g id="line2d_3">
      <g>
       <use style="stroke:#000000;stroke-width:0.8;" x="234.104545" xlink:href="#m0c95519930" y="582.9575"/>
      </g>
     </g>
     <g id="text_3">
      <!-- 200 -->
      <g transform="translate(224.560795 597.555938)scale(0.1 -0.1)">
       <defs>
        <path d="M 19.1875 8.296875 
L 53.609375 8.296875 
L 53.609375 0 
L 7.328125 0 
L 7.328125 8.296875 
Q 12.9375 14.109375 22.625 23.890625 
Q 32.328125 33.6875 34.8125 36.53125 
Q 39.546875 41.84375 41.421875 45.53125 
Q 43.3125 49.21875 43.3125 52.78125 
Q 43.3125 58.59375 39.234375 62.25 
Q 35.15625 65.921875 28.609375 65.921875 
Q 23.96875 65.921875 18.8125 64.3125 
Q 13.671875 62.703125 7.8125 59.421875 
L 7.8125 69.390625 
Q 13.765625 71.78125 18.9375 73 
Q 24.125 74.21875 28.421875 74.21875 
Q 39.75 74.21875 46.484375 68.546875 
Q 53.21875 62.890625 53.21875 53.421875 
Q 53.21875 48.921875 51.53125 44.890625 
Q 49.859375 40.875 45.40625 35.40625 
Q 44.1875 33.984375 37.640625 27.21875 
Q 31.109375 20.453125 19.1875 8.296875 
z
" id="DejaVuSans-50"/>
       </defs>
       <use xlink:href="#DejaVuSans-50"/>
       <use x="63.623047" xlink:href="#DejaVuSans-48"/>
       <use x="127.246094" xlink:href="#DejaVuSans-48"/>
      </g>
     </g>
    </g>
    <g id="xtick_4">
     <g id="line2d_4">
      <g>
       <use style="stroke:#000000;stroke-width:0.8;" x="318.65" xlink:href="#m0c95519930" y="582.9575"/>
      </g>
     </g>
     <g id="text_4">
      <!-- 300 -->
      <g transform="translate(309.10625 597.555938)scale(0.1 -0.1)">
       <defs>
        <path d="M 40.578125 39.3125 
Q 47.65625 37.796875 51.625 33 
Q 55.609375 28.21875 55.609375 21.1875 
Q 55.609375 10.40625 48.1875 4.484375 
Q 40.765625 -1.421875 27.09375 -1.421875 
Q 22.515625 -1.421875 17.65625 -0.515625 
Q 12.796875 0.390625 7.625 2.203125 
L 7.625 11.71875 
Q 11.71875 9.328125 16.59375 8.109375 
Q 21.484375 6.890625 26.8125 6.890625 
Q 36.078125 6.890625 40.9375 10.546875 
Q 45.796875 14.203125 45.796875 21.1875 
Q 45.796875 27.640625 41.28125 31.265625 
Q 36.765625 34.90625 28.71875 34.90625 
L 20.21875 34.90625 
L 20.21875 43.015625 
L 29.109375 43.015625 
Q 36.375 43.015625 40.234375 45.921875 
Q 44.09375 48.828125 44.09375 54.296875 
Q 44.09375 59.90625 40.109375 62.90625 
Q 36.140625 65.921875 28.71875 65.921875 
Q 24.65625 65.921875 20.015625 65.03125 
Q 15.375 64.15625 9.8125 62.3125 
L 9.8125 71.09375 
Q 15.4375 72.65625 20.34375 73.4375 
Q 25.25 74.21875 29.59375 74.21875 
Q 40.828125 74.21875 47.359375 69.109375 
Q 53.90625 64.015625 53.90625 55.328125 
Q 53.90625 49.265625 50.4375 45.09375 
Q 46.96875 40.921875 40.578125 39.3125 
z
" id="DejaVuSans-51"/>
       </defs>
       <use xlink:href="#DejaVuSans-51"/>
       <use x="63.623047" xlink:href="#DejaVuSans-48"/>
       <use x="127.246094" xlink:href="#DejaVuSans-48"/>
      </g>
     </g>
    </g>
    <g id="xtick_5">
     <g id="line2d_5">
      <g>
       <use style="stroke:#000000;stroke-width:0.8;" x="403.195455" xlink:href="#m0c95519930" y="582.9575"/>
      </g>
     </g>
     <g id="text_5">
      <!-- 400 -->
      <g transform="translate(393.651705 597.555938)scale(0.1 -0.1)">
       <defs>
        <path d="M 37.796875 64.3125 
L 12.890625 25.390625 
L 37.796875 25.390625 
z
M 35.203125 72.90625 
L 47.609375 72.90625 
L 47.609375 25.390625 
L 58.015625 25.390625 
L 58.015625 17.1875 
L 47.609375 17.1875 
L 47.609375 0 
L 37.796875 0 
L 37.796875 17.1875 
L 4.890625 17.1875 
L 4.890625 26.703125 
z
" id="DejaVuSans-52"/>
       </defs>
       <use xlink:href="#DejaVuSans-52"/>
       <use x="63.623047" xlink:href="#DejaVuSans-48"/>
       <use x="127.246094" xlink:href="#DejaVuSans-48"/>
      </g>
     </g>
    </g>
    <g id="xtick_6">
     <g id="line2d_6">
      <g>
       <use style="stroke:#000000;stroke-width:0.8;" x="487.740909" xlink:href="#m0c95519930" y="582.9575"/>
      </g>
     </g>
     <g id="text_6">
      <!-- 500 -->
      <g transform="translate(478.197159 597.555938)scale(0.1 -0.1)">
       <defs>
        <path d="M 10.796875 72.90625 
L 49.515625 72.90625 
L 49.515625 64.59375 
L 19.828125 64.59375 
L 19.828125 46.734375 
Q 21.96875 47.46875 24.109375 47.828125 
Q 26.265625 48.1875 28.421875 48.1875 
Q 40.625 48.1875 47.75 41.5 
Q 54.890625 34.8125 54.890625 23.390625 
Q 54.890625 11.625 47.5625 5.09375 
Q 40.234375 -1.421875 26.90625 -1.421875 
Q 22.3125 -1.421875 17.546875 -0.640625 
Q 12.796875 0.140625 7.71875 1.703125 
L 7.71875 11.625 
Q 12.109375 9.234375 16.796875 8.0625 
Q 21.484375 6.890625 26.703125 6.890625 
Q 35.15625 6.890625 40.078125 11.328125 
Q 45.015625 15.765625 45.015625 23.390625 
Q 45.015625 31 40.078125 35.4375 
Q 35.15625 39.890625 26.703125 39.890625 
Q 22.75 39.890625 18.8125 39.015625 
Q 14.890625 38.140625 10.796875 36.28125 
z
" id="DejaVuSans-53"/>
       </defs>
       <use xlink:href="#DejaVuSans-53"/>
       <use x="63.623047" xlink:href="#DejaVuSans-48"/>
       <use x="127.246094" xlink:href="#DejaVuSans-48"/>
      </g>
     </g>
    </g>
    <g id="xtick_7">
     <g id="line2d_7">
      <g>
       <use style="stroke:#000000;stroke-width:0.8;" x="572.286364" xlink:href="#m0c95519930" y="582.9575"/>
      </g>
     </g>
     <g id="text_7">
      <!-- 600 -->
      <g transform="translate(562.742614 597.555938)scale(0.1 -0.1)">
       <defs>
        <path d="M 33.015625 40.375 
Q 26.375 40.375 22.484375 35.828125 
Q 18.609375 31.296875 18.609375 23.390625 
Q 18.609375 15.53125 22.484375 10.953125 
Q 26.375 6.390625 33.015625 6.390625 
Q 39.65625 6.390625 43.53125 10.953125 
Q 47.40625 15.53125 47.40625 23.390625 
Q 47.40625 31.296875 43.53125 35.828125 
Q 39.65625 40.375 33.015625 40.375 
z
M 52.59375 71.296875 
L 52.59375 62.3125 
Q 48.875 64.0625 45.09375 64.984375 
Q 41.3125 65.921875 37.59375 65.921875 
Q 27.828125 65.921875 22.671875 59.328125 
Q 17.53125 52.734375 16.796875 39.40625 
Q 19.671875 43.65625 24.015625 45.921875 
Q 28.375 48.1875 33.59375 48.1875 
Q 44.578125 48.1875 50.953125 41.515625 
Q 57.328125 34.859375 57.328125 23.390625 
Q 57.328125 12.15625 50.6875 5.359375 
Q 44.046875 -1.421875 33.015625 -1.421875 
Q 20.359375 -1.421875 13.671875 8.265625 
Q 6.984375 17.96875 6.984375 36.375 
Q 6.984375 53.65625 15.1875 63.9375 
Q 23.390625 74.21875 37.203125 74.21875 
Q 40.921875 74.21875 44.703125 73.484375 
Q 48.484375 72.75 52.59375 71.296875 
z
" id="DejaVuSans-54"/>
       </defs>
       <use xlink:href="#DejaVuSans-54"/>
       <use x="63.623047" xlink:href="#DejaVuSans-48"/>
       <use x="127.246094" xlink:href="#DejaVuSans-48"/>
      </g>
     </g>
    </g>
    <g id="text_8">
     <!-- Epochs -->
     <g transform="translate(300.734375 611.234063)scale(0.1 -0.1)">
      <defs>
       <path d="M 9.8125 72.90625 
L 55.90625 72.90625 
L 55.90625 64.59375 
L 19.671875 64.59375 
L 19.671875 43.015625 
L 54.390625 43.015625 
L 54.390625 34.71875 
L 19.671875 34.71875 
L 19.671875 8.296875 
L 56.78125 8.296875 
L 56.78125 0 
L 9.8125 0 
z
" id="DejaVuSans-69"/>
       <path d="M 18.109375 8.203125 
L 18.109375 -20.796875 
L 9.078125 -20.796875 
L 9.078125 54.6875 
L 18.109375 54.6875 
L 18.109375 46.390625 
Q 20.953125 51.265625 25.265625 53.625 
Q 29.59375 56 35.59375 56 
Q 45.5625 56 51.78125 48.09375 
Q 58.015625 40.1875 58.015625 27.296875 
Q 58.015625 14.40625 51.78125 6.484375 
Q 45.5625 -1.421875 35.59375 -1.421875 
Q 29.59375 -1.421875 25.265625 0.953125 
Q 20.953125 3.328125 18.109375 8.203125 
z
M 48.6875 27.296875 
Q 48.6875 37.203125 44.609375 42.84375 
Q 40.53125 48.484375 33.40625 48.484375 
Q 26.265625 48.484375 22.1875 42.84375 
Q 18.109375 37.203125 18.109375 27.296875 
Q 18.109375 17.390625 22.1875 11.75 
Q 26.265625 6.109375 33.40625 6.109375 
Q 40.53125 6.109375 44.609375 11.75 
Q 48.6875 17.390625 48.6875 27.296875 
z
" id="DejaVuSans-112"/>
       <path d="M 30.609375 48.390625 
Q 23.390625 48.390625 19.1875 42.75 
Q 14.984375 37.109375 14.984375 27.296875 
Q 14.984375 17.484375 19.15625 11.84375 
Q 23.34375 6.203125 30.609375 6.203125 
Q 37.796875 6.203125 41.984375 11.859375 
Q 46.1875 17.53125 46.1875 27.296875 
Q 46.1875 37.015625 41.984375 42.703125 
Q 37.796875 48.390625 30.609375 48.390625 
z
M 30.609375 56 
Q 42.328125 56 49.015625 48.375 
Q 55.71875 40.765625 55.71875 27.296875 
Q 55.71875 13.875 49.015625 6.21875 
Q 42.328125 -1.421875 30.609375 -1.421875 
Q 18.84375 -1.421875 12.171875 6.21875 
Q 5.515625 13.875 5.515625 27.296875 
Q 5.515625 40.765625 12.171875 48.375 
Q 18.84375 56 30.609375 56 
z
" id="DejaVuSans-111"/>
       <path d="M 48.78125 52.59375 
L 48.78125 44.1875 
Q 44.96875 46.296875 41.140625 47.34375 
Q 37.3125 48.390625 33.40625 48.390625 
Q 24.65625 48.390625 19.8125 42.84375 
Q 14.984375 37.3125 14.984375 27.296875 
Q 14.984375 17.28125 19.8125 11.734375 
Q 24.65625 6.203125 33.40625 6.203125 
Q 37.3125 6.203125 41.140625 7.25 
Q 44.96875 8.296875 48.78125 10.40625 
L 48.78125 2.09375 
Q 45.015625 0.34375 40.984375 -0.53125 
Q 36.96875 -1.421875 32.421875 -1.421875 
Q 20.0625 -1.421875 12.78125 6.34375 
Q 5.515625 14.109375 5.515625 27.296875 
Q 5.515625 40.671875 12.859375 48.328125 
Q 20.21875 56 33.015625 56 
Q 37.15625 56 41.109375 55.140625 
Q 45.0625 54.296875 48.78125 52.59375 
z
" id="DejaVuSans-99"/>
       <path d="M 54.890625 33.015625 
L 54.890625 0 
L 45.90625 0 
L 45.90625 32.71875 
Q 45.90625 40.484375 42.875 44.328125 
Q 39.84375 48.1875 33.796875 48.1875 
Q 26.515625 48.1875 22.3125 43.546875 
Q 18.109375 38.921875 18.109375 30.90625 
L 18.109375 0 
L 9.078125 0 
L 9.078125 75.984375 
L 18.109375 75.984375 
L 18.109375 46.1875 
Q 21.34375 51.125 25.703125 53.5625 
Q 30.078125 56 35.796875 56 
Q 45.21875 56 50.046875 50.171875 
Q 54.890625 44.34375 54.890625 33.015625 
z
" id="DejaVuSans-104"/>
       <path d="M 44.28125 53.078125 
L 44.28125 44.578125 
Q 40.484375 46.53125 36.375 47.5 
Q 32.28125 48.484375 27.875 48.484375 
Q 21.1875 48.484375 17.84375 46.4375 
Q 14.5 44.390625 14.5 40.28125 
Q 14.5 37.15625 16.890625 35.375 
Q 19.28125 33.59375 26.515625 31.984375 
L 29.59375 31.296875 
Q 39.15625 29.25 43.1875 25.515625 
Q 47.21875 21.78125 47.21875 15.09375 
Q 47.21875 7.46875 41.1875 3.015625 
Q 35.15625 -1.421875 24.609375 -1.421875 
Q 20.21875 -1.421875 15.453125 -0.5625 
Q 10.6875 0.296875 5.421875 2 
L 5.421875 11.28125 
Q 10.40625 8.6875 15.234375 7.390625 
Q 20.0625 6.109375 24.8125 6.109375 
Q 31.15625 6.109375 34.5625 8.28125 
Q 37.984375 10.453125 37.984375 14.40625 
Q 37.984375 18.0625 35.515625 20.015625 
Q 33.0625 21.96875 24.703125 23.78125 
L 21.578125 24.515625 
Q 13.234375 26.265625 9.515625 29.90625 
Q 5.8125 33.546875 5.8125 39.890625 
Q 5.8125 47.609375 11.28125 51.796875 
Q 16.75 56 26.8125 56 
Q 31.78125 56 36.171875 55.265625 
Q 40.578125 54.546875 44.28125 53.078125 
z
" id="DejaVuSans-115"/>
      </defs>
      <use xlink:href="#DejaVuSans-69"/>
      <use x="63.183594" xlink:href="#DejaVuSans-112"/>
      <use x="126.660156" xlink:href="#DejaVuSans-111"/>
      <use x="187.841797" xlink:href="#DejaVuSans-99"/>
      <use x="242.822266" xlink:href="#DejaVuSans-104"/>
      <use x="306.201172" xlink:href="#DejaVuSans-115"/>
     </g>
    </g>
   </g>
   <g id="matplotlib.axis_2">
    <g id="ytick_1">
     <g id="line2d_8">
      <defs>
       <path d="M 0 0 
L -3.5 0 
" id="m02baabd488" style="stroke:#000000;stroke-width:0.8;"/>
      </defs>
      <g>
       <use style="stroke:#000000;stroke-width:0.8;" x="39.65" xlink:href="#m02baabd488" y="558.710509"/>
      </g>
     </g>
     <g id="text_9">
      <!-- 0 -->
      <g transform="translate(26.2875 562.509728)scale(0.1 -0.1)">
       <use xlink:href="#DejaVuSans-48"/>
      </g>
     </g>
    </g>
    <g id="ytick_2">
     <g id="line2d_9">
      <g>
       <use style="stroke:#000000;stroke-width:0.8;" x="39.65" xlink:href="#m02baabd488" y="459.886306"/>
      </g>
     </g>
     <g id="text_10">
      <!-- 200 -->
      <g transform="translate(13.5625 463.685525)scale(0.1 -0.1)">
       <use xlink:href="#DejaVuSans-50"/>
       <use x="63.623047" xlink:href="#DejaVuSans-48"/>
       <use x="127.246094" xlink:href="#DejaVuSans-48"/>
      </g>
     </g>
    </g>
    <g id="ytick_3">
     <g id="line2d_10">
      <g>
       <use style="stroke:#000000;stroke-width:0.8;" x="39.65" xlink:href="#m02baabd488" y="361.062103"/>
      </g>
     </g>
     <g id="text_11">
      <!-- 400 -->
      <g transform="translate(13.5625 364.861322)scale(0.1 -0.1)">
       <use xlink:href="#DejaVuSans-52"/>
       <use x="63.623047" xlink:href="#DejaVuSans-48"/>
       <use x="127.246094" xlink:href="#DejaVuSans-48"/>
      </g>
     </g>
    </g>
    <g id="ytick_4">
     <g id="line2d_11">
      <g>
       <use style="stroke:#000000;stroke-width:0.8;" x="39.65" xlink:href="#m02baabd488" y="262.2379"/>
      </g>
     </g>
     <g id="text_12">
      <!-- 600 -->
      <g transform="translate(13.5625 266.037119)scale(0.1 -0.1)">
       <use xlink:href="#DejaVuSans-54"/>
       <use x="63.623047" xlink:href="#DejaVuSans-48"/>
       <use x="127.246094" xlink:href="#DejaVuSans-48"/>
      </g>
     </g>
    </g>
    <g id="ytick_5">
     <g id="line2d_12">
      <g>
       <use style="stroke:#000000;stroke-width:0.8;" x="39.65" xlink:href="#m02baabd488" y="163.413697"/>
      </g>
     </g>
     <g id="text_13">
      <!-- 800 -->
      <g transform="translate(13.5625 167.212916)scale(0.1 -0.1)">
       <defs>
        <path d="M 31.78125 34.625 
Q 24.75 34.625 20.71875 30.859375 
Q 16.703125 27.09375 16.703125 20.515625 
Q 16.703125 13.921875 20.71875 10.15625 
Q 24.75 6.390625 31.78125 6.390625 
Q 38.8125 6.390625 42.859375 10.171875 
Q 46.921875 13.96875 46.921875 20.515625 
Q 46.921875 27.09375 42.890625 30.859375 
Q 38.875 34.625 31.78125 34.625 
z
M 21.921875 38.8125 
Q 15.578125 40.375 12.03125 44.71875 
Q 8.5 49.078125 8.5 55.328125 
Q 8.5 64.0625 14.71875 69.140625 
Q 20.953125 74.21875 31.78125 74.21875 
Q 42.671875 74.21875 48.875 69.140625 
Q 55.078125 64.0625 55.078125 55.328125 
Q 55.078125 49.078125 51.53125 44.71875 
Q 48 40.375 41.703125 38.8125 
Q 48.828125 37.15625 52.796875 32.3125 
Q 56.78125 27.484375 56.78125 20.515625 
Q 56.78125 9.90625 50.3125 4.234375 
Q 43.84375 -1.421875 31.78125 -1.421875 
Q 19.734375 -1.421875 13.25 4.234375 
Q 6.78125 9.90625 6.78125 20.515625 
Q 6.78125 27.484375 10.78125 32.3125 
Q 14.796875 37.15625 21.921875 38.8125 
z
M 18.3125 54.390625 
Q 18.3125 48.734375 21.84375 45.5625 
Q 25.390625 42.390625 31.78125 42.390625 
Q 38.140625 42.390625 41.71875 45.5625 
Q 45.3125 48.734375 45.3125 54.390625 
Q 45.3125 60.0625 41.71875 63.234375 
Q 38.140625 66.40625 31.78125 66.40625 
Q 25.390625 66.40625 21.84375 63.234375 
Q 18.3125 60.0625 18.3125 54.390625 
z
" id="DejaVuSans-56"/>
       </defs>
       <use xlink:href="#DejaVuSans-56"/>
       <use x="63.623047" xlink:href="#DejaVuSans-48"/>
       <use x="127.246094" xlink:href="#DejaVuSans-48"/>
      </g>
     </g>
    </g>
    <g id="ytick_6">
     <g id="line2d_13">
      <g>
       <use style="stroke:#000000;stroke-width:0.8;" x="39.65" xlink:href="#m02baabd488" y="64.589494"/>
      </g>
     </g>
     <g id="text_14">
      <!-- 1000 -->
      <g transform="translate(7.2 68.388713)scale(0.1 -0.1)">
       <use xlink:href="#DejaVuSans-49"/>
       <use x="63.623047" xlink:href="#DejaVuSans-48"/>
       <use x="127.246094" xlink:href="#DejaVuSans-48"/>
       <use x="190.869141" xlink:href="#DejaVuSans-48"/>
      </g>
     </g>
    </g>
   </g>
   <g id="line2d_14">
    <path clip-path="url(#p6aa83b4e8d)" d="M 65.013636 558.216388 
L 70.086364 558.155789 
L 75.159091 557.86573 
L 78.540909 557.42723 
L 81.077273 556.937056 
L 83.613636 556.146002 
L 85.304545 555.34762 
L 87.840909 553.76793 
L 90.377273 551.56954 
L 91.222727 550.576955 
L 93.759091 546.825445 
L 95.45 543.141273 
L 96.295455 540.842366 
L 97.986364 535.353017 
L 98.831818 532.042603 
L 99.677273 528.227891 
L 100.522727 523.815421 
L 103.059091 507.920129 
L 109.822727 455.891169 
L 114.05 420.887017 
L 116.586364 402.404189 
L 118.277273 393.373736 
L 119.122727 389.641752 
L 119.968182 386.986029 
L 120.813636 385.571827 
L 121.659091 384.538794 
L 122.504545 383.858713 
L 123.35 384.135672 
L 125.040909 385.077877 
L 127.577273 387.542336 
L 130.113636 388.933554 
L 130.959091 388.878352 
L 132.65 388.440618 
L 133.495455 387.84205 
L 135.186364 386.128794 
L 136.031818 385.108276 
L 141.104545 377.8867 
L 142.795455 375.854958 
L 144.486364 374.476434 
L 145.331818 373.911695 
L 146.177273 373.552405 
L 147.868182 373.205971 
L 148.713636 373.165976 
L 155.477273 373.794261 
L 158.013636 373.53744 
L 162.240909 372.497728 
L 164.777273 371.893942 
L 166.468182 371.599192 
L 169.004545 371.439745 
L 171.540909 371.568833 
L 181.686364 372.575919 
L 193.522727 373.10078 
L 200.286364 373.464808 
L 219.731818 374.032382 
L 234.104545 374.406376 
L 234.95 374.672154 
L 235.795455 374.715784 
L 236.640909 375.502693 
L 237.486364 376.040089 
L 238.331818 377.337872 
L 239.177273 378.317429 
L 240.022727 379.09468 
L 240.868182 380.06958 
L 243.404545 381.863772 
L 244.25 382.080126 
L 245.095455 382.449213 
L 245.940909 382.669274 
L 246.786364 382.663944 
L 247.631818 382.870694 
L 248.477273 382.934338 
L 249.322727 382.832848 
L 251.013636 382.989705 
L 251.859091 382.888532 
L 253.55 383.030206 
L 254.395455 382.955565 
L 256.086364 383.055913 
L 256.931818 382.966058 
L 258.622727 382.963594 
L 264.540909 382.040329 
L 266.231818 381.638471 
L 271.304545 380.394756 
L 275.531818 379.786444 
L 278.913636 379.568989 
L 289.904545 379.380645 
L 296.668182 379.618822 
L 309.35 380.266802 
L 324.568182 380.820471 
L 373.604545 382.238714 
L 376.986364 382.619645 
L 377.831818 383.078699 
L 378.677273 383.376461 
L 379.522727 384.331148 
L 380.368182 385.083351 
L 381.213636 386.24205 
L 382.059091 387.10593 
L 383.75 388.438925 
L 386.286364 389.549604 
L 387.131818 389.566164 
L 387.977273 389.784761 
L 390.513636 389.860146 
L 391.359091 389.758476 
L 395.586364 389.802825 
L 401.504545 389.505879 
L 404.040909 389.061163 
L 408.268182 388.100087 
L 410.804545 387.67722 
L 412.495455 387.490837 
L 416.722727 387.352287 
L 424.331818 387.333834 
L 429.404545 387.390008 
L 446.313636 387.958176 
L 472.522727 388.587438 
L 511.413636 389.461498 
L 514.795455 390.015145 
L 515.640909 390.476406 
L 516.486364 390.771225 
L 517.331818 391.486742 
L 518.177273 391.980344 
L 519.022727 392.67357 
L 519.868182 393.12721 
L 521.559091 393.725955 
L 522.404545 393.781529 
L 523.25 393.999919 
L 525.786364 394.077168 
L 526.631818 393.980703 
L 528.322727 394.046413 
L 534.240909 394.209541 
L 539.313636 393.611921 
L 546.077273 392.720358 
L 549.459091 392.629166 
L 554.531818 392.634924 
L 559.604545 392.603376 
L 572.286364 392.980106 
L 572.286364 392.980106 
" style="fill:none;stroke:#1f77b4;stroke-linecap:square;stroke-width:2;"/>
   </g>
   <g id="line2d_15">
    <path clip-path="url(#p6aa83b4e8d)" d="M 65.013636 558.216388 
L 67.55 558.218627 
L 76.85 557.840637 
L 82.768182 557.374178 
L 86.995455 556.854335 
L 90.377273 556.269699 
L 93.759091 555.472352 
L 96.295455 554.689855 
L 98.831818 553.706921 
L 101.368182 552.475597 
L 103.904545 550.938626 
L 105.595455 549.71953 
L 107.286364 548.312389 
L 108.977273 546.693359 
L 110.668182 544.838091 
L 112.359091 542.711614 
L 114.05 540.284629 
L 115.740909 537.499585 
L 117.431818 534.338577 
L 119.968182 528.877746 
L 122.504545 522.615916 
L 124.195455 517.794574 
L 125.886364 512.370693 
L 127.577273 506.286094 
L 130.113636 495.957874 
L 132.65 484.394708 
L 133.495455 480.344376 
L 135.186364 474.313356 
L 136.031818 471.504404 
L 139.413636 465.78123 
L 140.259091 465.163885 
L 141.95 463.354814 
L 143.640909 460.69481 
L 144.486364 459.283823 
L 145.331818 457.626126 
L 147.022727 453.54304 
L 148.713636 448.584772 
L 152.940909 434.955709 
L 154.631818 430.604614 
L 156.322727 427.228325 
L 158.013636 424.68877 
L 161.395455 420.02214 
L 163.086364 417.66803 
L 165.622727 414.649937 
L 169.85 409.829195 
L 170.695455 409.144716 
L 171.540909 408.633518 
L 172.386364 408.288265 
L 174.077273 407.992888 
L 175.768182 408.018549 
L 178.304545 408.159896 
L 179.995455 408.030989 
L 181.686364 407.585584 
L 185.913636 406.045118 
L 187.604545 405.829885 
L 192.677273 405.669444 
L 194.368182 405.263196 
L 198.595455 404.100796 
L 201.131818 403.788831 
L 207.05 403.331902 
L 211.277273 402.804298 
L 214.659091 402.649838 
L 218.886364 402.42157 
L 225.65 401.971298 
L 245.095455 401.039591 
L 270.459091 400.418445 
L 293.286364 400.203507 
L 319.495455 400.172765 
L 350.777273 400.361083 
L 429.404545 401.182955 
L 558.759091 402.802811 
L 572.286364 402.934742 
L 572.286364 402.934742 
" style="fill:none;stroke:#ff7f0e;stroke-linecap:square;stroke-width:3;"/>
   </g>
   <g id="line2d_16">
    <path clip-path="url(#p6aa83b4e8d)" d="M 65.013636 558.216388 
L 67.55 558.218835 
L 75.159091 557.87067 
L 82.768182 557.296982 
L 87.840909 556.69751 
L 92.068182 555.949319 
L 95.45 555.102929 
L 98.831818 554.195177 
L 102.213636 553.638982 
L 103.904545 553.494183 
L 105.595455 553.260353 
L 107.286364 553.114519 
L 112.359091 552.306671 
L 114.05 552.275501 
L 121.659091 552.814311 
L 124.195455 552.619378 
L 129.268182 552.193825 
L 131.804545 552.191744 
L 137.722727 552.252382 
L 153.786364 551.987199 
L 172.386364 551.783236 
L 265.386364 550.247971 
L 333.022727 548.850438 
L 407.422727 547.090118 
L 526.631818 543.912354 
L 572.286364 542.596835 
L 572.286364 542.596835 
" style="fill:none;stroke:#2ca02c;stroke-linecap:square;stroke-width:2;"/>
   </g>
   <g id="line2d_17">
    <path clip-path="url(#p6aa83b4e8d)" d="M 65.013636 558.216388 
L 67.55 558.221128 
L 74.313636 557.91058 
L 80.231818 557.429732 
L 85.304545 556.78342 
L 89.531818 556.011442 
L 93.759091 555.000054 
L 97.140909 553.967545 
L 100.522727 552.709097 
L 103.059091 551.546064 
L 105.595455 550.089473 
L 108.131818 548.279834 
L 108.977273 547.569035 
L 110.668182 546.477832 
L 112.359091 545.084651 
L 114.895455 542.587733 
L 115.740909 542.100701 
L 117.431818 541.42786 
L 119.968182 541.707421 
L 121.659091 541.743283 
L 122.504545 541.808054 
L 123.35 541.723975 
L 124.195455 541.511657 
L 126.731818 540.475363 
L 128.422727 539.571621 
L 130.959091 537.999137 
L 132.65 537.37711 
L 135.186364 536.838198 
L 139.413636 536.142353 
L 141.95 535.533915 
L 146.177273 534.414276 
L 148.713636 533.973889 
L 152.940909 533.325594 
L 156.322727 532.868012 
L 162.240909 532.223921 
L 171.540909 530.661265 
L 178.304545 529.43621 
L 185.913636 528.135785 
L 219.731818 522.318484 
L 245.940909 518.210838 
L 267.922727 514.973287 
L 269.613636 514.449244 
L 270.459091 513.950113 
L 271.304545 513.312534 
L 272.15 512.495543 
L 274.686364 511.075491 
L 275.531818 510.493173 
L 277.222727 510.33768 
L 278.068182 510.750607 
L 278.913636 510.544366 
L 279.759091 510.607448 
L 280.604545 510.322303 
L 281.45 509.420643 
L 282.295455 508.191309 
L 284.831818 503.668067 
L 285.677273 502.895014 
L 286.522727 502.741207 
L 287.368182 503.066431 
L 289.904545 505.107541 
L 290.75 505.328721 
L 291.595455 505.188022 
L 292.440909 504.757912 
L 294.977273 502.887752 
L 295.822727 502.505039 
L 296.668182 502.341944 
L 297.513636 502.370198 
L 300.895455 503.068954 
L 301.740909 503.030639 
L 303.431818 502.607464 
L 305.968182 501.772978 
L 307.659091 501.588576 
L 310.195455 501.558825 
L 311.886364 501.344564 
L 315.268182 500.787179 
L 321.186364 500.396025 
L 324.568182 499.937691 
L 332.177273 499.365969 
L 336.404545 498.9511 
L 349.086364 497.964675 
L 408.268182 493.392836 
L 424.331818 492.603929 
L 456.459091 490.975113 
L 473.368182 489.933787 
L 513.104545 487.423859 
L 556.222727 484.981912 
L 563.831818 484.592441 
L 572.286364 484.144522 
L 572.286364 484.144522 
" style="fill:none;stroke:#d62728;stroke-linecap:square;stroke-width:2;"/>
   </g>
   <g id="line2d_18">
    <path clip-path="url(#p6aa83b4e8d)" d="M 65.013636 558.216388 
L 67.55 558.222436 
L 74.313636 557.932878 
L 80.231818 557.51174 
L 85.304545 556.914373 
L 89.531818 556.161247 
L 92.913636 555.320263 
L 95.45 554.504777 
L 97.986364 553.488561 
L 100.522727 552.224501 
L 103.059091 550.654492 
L 104.75 549.402507 
L 106.440909 547.958078 
L 108.131818 546.299273 
L 109.822727 544.409881 
L 113.204545 540.193317 
L 114.895455 537.939501 
L 116.586364 535.3762 
L 118.277273 532.496393 
L 119.968182 529.191315 
L 121.659091 525.549604 
L 123.35 521.28589 
L 125.040909 516.342317 
L 125.886364 513.670592 
L 126.731818 513.434971 
L 127.577273 512.736274 
L 128.422727 511.774031 
L 129.268182 510.333066 
L 130.113636 509.646312 
L 130.959091 508.372256 
L 131.804545 506.712559 
L 134.340909 500.693123 
L 135.186364 498.220414 
L 136.031818 496.757205 
L 137.722727 494.786516 
L 138.568182 495.351279 
L 140.259091 495.849993 
L 141.104545 495.638846 
L 141.95 495.605035 
L 142.795455 495.122528 
L 143.640909 494.203381 
L 144.486364 492.864882 
L 147.022727 487.841252 
L 148.713636 483.937915 
L 149.559091 482.302543 
L 152.095455 478.786443 
L 152.940909 477.670208 
L 153.786364 476.758491 
L 155.477273 475.231966 
L 156.322727 474.242107 
L 162.240909 466.017912 
L 163.086364 465.214005 
L 164.777273 464.160206 
L 166.468182 463.079018 
L 168.159091 461.57693 
L 171.540909 458.147523 
L 173.231818 456.88005 
L 178.304545 453.697116 
L 179.995455 452.863902 
L 190.986364 448.621115 
L 193.522727 447.897412 
L 196.904545 447.031288 
L 204.513636 445.716279 
L 208.740909 445.214208 
L 213.813636 444.738645 
L 219.731818 444.350669 
L 233.259091 443.864263 
L 295.822727 443.029751 
L 316.113636 442.936294 
L 323.722727 442.884532 
L 338.095455 442.861925 
L 367.686364 442.650295 
L 378.677273 442.522269 
L 379.522727 442.885951 
L 382.059091 456.32114 
L 382.904545 458.937761 
L 383.75 460.729005 
L 384.595455 461.895225 
L 385.440909 462.163414 
L 386.286364 461.408629 
L 388.822727 456.702651 
L 389.668182 454.186076 
L 391.359091 446.961329 
L 392.204545 444.413614 
L 393.05 443.086502 
L 393.895455 443.636573 
L 396.431818 451.476477 
L 397.277273 453.034635 
L 398.122727 453.659209 
L 398.968182 453.21847 
L 399.813636 451.811595 
L 400.659091 449.690096 
L 402.35 444.715111 
L 403.195455 442.694588 
L 404.040909 441.583037 
L 404.886364 441.573549 
L 405.731818 442.405141 
L 407.422727 444.608295 
L 408.268182 445.20557 
L 409.113636 445.259315 
L 409.959091 444.797198 
L 410.804545 443.928744 
L 413.340909 440.71453 
L 414.186364 440.153145 
L 415.031818 440.044576 
L 415.877273 440.309786 
L 417.568182 441.24017 
L 418.413636 441.550364 
L 419.259091 441.614448 
L 420.104545 441.415833 
L 420.95 440.998861 
L 423.486364 439.447833 
L 424.331818 439.191807 
L 425.177273 439.148817 
L 426.868182 439.474282 
L 428.559091 439.752013 
L 429.404545 439.716181 
L 431.095455 439.303865 
L 433.631818 438.546111 
L 435.322727 438.407804 
L 440.395455 438.666275 
L 445.468182 438.398921 
L 451.386364 438.483611 
L 458.995455 438.388388 
L 467.45 438.441135 
L 476.75 438.477936 
L 509.722727 438.385824 
L 572.286364 438.118485 
L 572.286364 438.118485 
" style="fill:none;stroke:#9467bd;stroke-linecap:square;stroke-width:2;"/>
   </g>
   <g id="line2d_19">
    <path clip-path="url(#p6aa83b4e8d)" d="M 65.013636 558.216388 
L 67.55 558.224851 
L 75.159091 557.947559 
L 81.077273 557.505414 
L 86.15 556.884892 
L 90.377273 556.110249 
L 93.759091 555.249311 
L 96.295455 554.413848 
L 98.831818 553.369675 
L 101.368182 552.066858 
L 103.904545 550.444054 
L 105.595455 549.14815 
L 107.286364 547.651211 
L 108.977273 545.923925 
L 110.668182 543.934182 
L 112.359091 541.644671 
L 114.05 539.012275 
L 115.740909 535.992487 
L 117.431818 532.553452 
L 119.968182 526.703613 
L 123.35 518.242441 
L 125.040909 513.205805 
L 126.731818 507.458874 
L 128.422727 500.860041 
L 130.113636 493.315158 
L 134.340909 472.731623 
L 135.186364 467.915028 
L 136.031818 464.461678 
L 136.877273 460.146522 
L 137.722727 455.121854 
L 138.568182 451.632422 
L 139.413636 447.106915 
L 140.259091 441.755987 
L 141.104545 439.546657 
L 141.95 437.012273 
L 142.795455 433.715527 
L 143.640909 432.876294 
L 146.177273 428.69159 
L 147.022727 428.01027 
L 147.868182 426.621083 
L 148.713636 424.759435 
L 150.404545 420.142055 
L 152.095455 414.619856 
L 153.786364 408.894728 
L 155.477273 403.983071 
L 158.859091 394.677024 
L 161.395455 387.277944 
L 163.086364 383.250133 
L 164.777273 379.975295 
L 166.468182 377.371687 
L 168.159091 375.315178 
L 169.85 373.582582 
L 173.231818 370.558827 
L 174.077273 369.973301 
L 177.459091 368.458569 
L 179.995455 366.377684 
L 180.840909 365.992477 
L 181.686364 365.842382 
L 184.222727 365.783359 
L 185.913636 365.385031 
L 187.604545 364.932952 
L 190.140909 364.666844 
L 199.440909 363.679379 
L 204.513636 363.389043 
L 215.504545 363.085696 
L 223.113636 362.900018 
L 229.877273 362.547844 
L 275.531818 359.650788 
L 359.231818 355.443575 
L 376.986364 354.730144 
L 450.540909 351.955011 
L 467.45 351.39279 
L 469.986364 351.258713 
L 473.368182 351.182003 
L 475.904545 351.065502 
L 479.286364 350.962109 
L 480.131818 350.88706 
L 480.977273 350.924807 
L 481.822727 350.828526 
L 483.513636 350.810378 
L 487.740909 350.656062 
L 495.35 350.440529 
L 497.040909 350.372649 
L 511.413636 349.948673 
L 513.95 349.904898 
L 521.559091 349.624286 
L 522.404545 349.660023 
L 523.25 349.541761 
L 524.940909 349.533374 
L 528.322727 349.43345 
L 535.931818 349.169978 
L 536.777273 349.032164 
L 537.622727 349.122673 
L 539.313636 348.95932 
L 540.159091 349.008868 
L 541.004545 348.883651 
L 550.304545 348.666841 
L 554.531818 348.561244 
L 572.286364 348.211786 
L 572.286364 348.211786 
" style="fill:none;stroke:#8c564b;stroke-linecap:square;stroke-width:2;"/>
   </g>
   <g id="line2d_20">
    <path clip-path="url(#p6aa83b4e8d)" d="M 65.013636 558.216388 
L 67.55 558.225811 
L 75.159091 557.954461 
L 81.077273 557.517725 
L 86.15 556.905515 
L 90.377273 556.141686 
L 93.759091 555.294228 
L 96.295455 554.472676 
L 98.831818 553.446552 
L 101.368182 552.167531 
L 103.904545 550.574674 
L 105.595455 549.302249 
L 107.286364 547.831871 
L 108.977273 546.133768 
L 110.668182 544.174681 
L 112.359091 541.916569 
L 114.05 539.316467 
L 115.740909 536.326382 
L 117.431818 532.892297 
L 119.122727 528.952869 
L 120.813636 524.440631 
L 122.504545 519.283607 
L 124.195455 513.418165 
L 126.731818 503.4426 
L 130.959091 484.902277 
L 132.65 475.935688 
L 134.340909 465.674907 
L 137.722727 442.216419 
L 139.413636 428.208906 
L 141.104545 412.653285 
L 141.95 413.23907 
L 142.795455 412.91933 
L 143.640909 412.392782 
L 144.486364 410.537609 
L 145.331818 409.284512 
L 146.177273 406.435149 
L 147.022727 403.166265 
L 147.868182 398.540317 
L 148.713636 394.921687 
L 150.404545 385.046811 
L 152.095455 374.432205 
L 153.786364 364.39841 
L 154.631818 360.89546 
L 156.322727 355.505791 
L 157.168182 352.931718 
L 158.013636 349.857064 
L 159.704545 342.164988 
L 163.086364 324.766237 
L 164.777273 317.526514 
L 168.159091 306.088674 
L 169.004545 303.589158 
L 169.85 301.670005 
L 170.695455 300.381826 
L 172.386364 298.807691 
L 174.077273 297.159061 
L 175.768182 295.584774 
L 176.613636 295.116576 
L 177.459091 294.944497 
L 179.995455 295.066523 
L 180.840909 294.841096 
L 182.531818 294.117933 
L 183.377273 293.952498 
L 184.222727 294.061418 
L 186.759091 294.934984 
L 190.140909 295.314374 
L 193.522727 296.322903 
L 195.213636 296.373823 
L 196.904545 296.389901 
L 198.595455 296.783555 
L 200.286364 297.277181 
L 204.513636 297.962367 
L 207.05 298.616754 
L 209.586364 298.871133 
L 212.122727 299.184249 
L 213.813636 299.422234 
L 218.040909 299.760399 
L 220.577273 300.063242 
L 227.340909 300.50134 
L 229.877273 300.625916 
L 233.259091 300.864176 
L 249.322727 301.637877 
L 258.622727 301.889194 
L 271.304545 302.085083 
L 289.059091 302.246853 
L 325.413636 302.334274 
L 368.531818 302.304845 
L 400.659091 302.162036 
L 473.368182 301.5852 
L 572.286364 300.135244 
L 572.286364 300.135244 
" style="fill:none;stroke:#e377c2;stroke-linecap:square;stroke-width:2;"/>
   </g>
   <g id="line2d_21">
    <path clip-path="url(#p6aa83b4e8d)" d="M 65.013636 558.216388 
L 67.55 558.228657 
L 75.159091 557.966223 
L 81.077273 557.539325 
L 86.15 556.948242 
L 90.377273 556.212791 
L 93.759091 555.403345 
L 96.295455 554.618551 
L 98.831818 553.641186 
L 101.368182 552.422338 
L 103.904545 550.898443 
L 105.595455 549.677866 
L 107.286364 548.264869 
L 108.977273 546.630346 
L 110.668182 544.741734 
L 112.359091 542.562474 
L 114.05 540.050851 
L 115.740909 537.159913 
L 117.431818 533.836885 
L 119.122727 530.021532 
L 120.813636 525.646551 
L 122.504545 520.639444 
L 124.195455 514.917522 
L 125.886364 508.388302 
L 127.577273 500.958053 
L 129.268182 492.539422 
L 131.804545 478.420079 
L 134.340909 463.067443 
L 136.031818 451.83388 
L 137.722727 438.831016 
L 139.413636 424.115329 
L 141.104545 407.655643 
L 144.486364 370.636839 
L 145.331818 360.380185 
L 147.022727 353.10797 
L 147.868182 347.70115 
L 148.713636 349.376143 
L 149.559091 348.005886 
L 150.404545 346.388726 
L 151.25 342.429828 
L 152.095455 339.689294 
L 153.786364 330.063515 
L 154.631818 323.642019 
L 155.477273 318.647382 
L 159.704545 286.710421 
L 160.55 281.703039 
L 162.240909 273.396472 
L 163.086364 270.189025 
L 163.931818 266.305099 
L 166.468182 253.368108 
L 168.159091 244.118124 
L 170.695455 227.453361 
L 171.540909 223.559204 
L 172.386364 221.421106 
L 173.231818 219.827058 
L 174.077273 217.663432 
L 174.922727 214.669966 
L 177.459091 204.337517 
L 178.304545 201.346368 
L 179.15 199.141501 
L 179.995455 198.114962 
L 180.840909 198.282708 
L 182.531818 199.945976 
L 183.377273 200.145218 
L 184.222727 199.447337 
L 185.068182 197.904658 
L 186.759091 193.973795 
L 187.604545 192.7897 
L 188.45 192.619053 
L 189.295455 193.34775 
L 190.986364 195.647961 
L 191.831818 196.254127 
L 192.677273 196.185063 
L 193.522727 195.530637 
L 195.213636 193.737239 
L 196.059091 193.339918 
L 196.904545 193.547283 
L 197.75 194.259241 
L 199.440909 195.994313 
L 200.286364 196.422379 
L 201.131818 196.373843 
L 201.977273 195.92733 
L 203.668182 194.755531 
L 204.513636 194.523197 
L 205.359091 194.6919 
L 206.204545 195.19123 
L 207.895455 196.408243 
L 208.740909 196.758682 
L 209.586364 196.83589 
L 211.277273 196.468318 
L 212.122727 196.292072 
L 212.968182 196.263555 
L 214.659091 196.652968 
L 216.35 197.123884 
L 218.040909 197.211372 
L 219.731818 197.145052 
L 221.422727 197.322823 
L 223.959091 197.804029 
L 225.65 197.856627 
L 228.186364 197.842304 
L 233.259091 198.287031 
L 235.795455 198.3588 
L 240.022727 198.770884 
L 243.404545 198.83039 
L 247.631818 199.098762 
L 251.013636 199.216034 
L 255.240909 199.420068 
L 264.540909 199.803067 
L 273.840909 200.117061 
L 294.977273 200.541419 
L 318.65 200.602074 
L 333.022727 200.404449 
L 349.931818 199.702324 
L 365.995455 198.868572 
L 410.804545 196.295843 
L 435.322727 194.951095 
L 571.440909 186.454973 
L 572.286364 186.406742 
L 572.286364 186.406742 
" style="fill:none;stroke:#7f7f7f;stroke-linecap:square;stroke-width:2;"/>
   </g>
   <g id="line2d_22">
    <path clip-path="url(#p6aa83b4e8d)" d="M 65.013636 558.216388 
L 67.55 558.235138 
L 76.85 558.009785 
L 82.768182 557.6195 
L 87.840909 557.080021 
L 92.068182 556.406486 
L 95.45 555.661247 
L 98.831818 554.64868 
L 101.368182 553.664552 
L 103.904545 552.428668 
L 106.440909 550.878874 
L 108.131818 549.636836 
L 109.822727 548.195652 
L 111.513636 546.52375 
L 113.204545 544.587555 
L 114.895455 542.348839 
L 116.586364 539.761939 
L 118.277273 536.775269 
L 119.968182 533.332159 
L 121.659091 529.368966 
L 123.35 524.814932 
L 125.040909 519.596829 
L 126.731818 513.627196 
L 128.422727 506.801046 
L 130.113636 499.007318 
L 131.804545 490.127505 
L 133.495455 480.025807 
L 135.186364 468.555692 
L 136.877273 455.575522 
L 138.568182 440.915666 
L 141.104545 415.870786 
L 143.640909 389.076776 
L 146.177273 359.026131 
L 147.868182 335.257357 
L 149.559091 308.272317 
L 151.25 278.677858 
L 152.095455 262.196606 
L 152.940909 248.178726 
L 153.786364 248.65075 
L 154.631818 246.356468 
L 155.477273 241.394828 
L 156.322727 238.895873 
L 157.168182 233.743663 
L 158.859091 219.125905 
L 159.704545 212.837973 
L 160.55 204.153555 
L 161.395455 193.007783 
L 162.240909 179.224572 
L 163.086364 163.253942 
L 163.931818 149.538762 
L 164.777273 146.952056 
L 165.622727 149.386805 
L 166.468182 151.040819 
L 167.313636 152.156001 
L 168.159091 150.958698 
L 169.004545 145.763245 
L 169.85 139.665005 
L 170.695455 131.998311 
L 171.540909 126.335987 
L 172.386364 122.119943 
L 173.231818 118.51753 
L 174.077273 116.136383 
L 174.922727 112.504674 
L 176.613636 101.490092 
L 178.304545 86.910325 
L 179.15 81.733094 
L 179.995455 80.592678 
L 180.840909 80.405571 
L 181.686364 79.414589 
L 182.531818 77.683046 
L 183.377273 75.595586 
L 185.068182 70.768528 
L 185.913636 68.939785 
L 186.759091 67.996016 
L 188.45 67.909836 
L 189.295455 67.287855 
L 190.986364 64.657641 
L 191.831818 64.066591 
L 192.677273 64.592477 
L 194.368182 66.938957 
L 195.213636 67.681794 
L 196.059091 67.824866 
L 196.904545 67.52523 
L 197.75 66.947529 
L 199.440909 65.229049 
L 200.286364 64.637663 
L 201.131818 64.688377 
L 201.977273 65.509937 
L 203.668182 68.21813 
L 204.513636 69.03191 
L 205.359091 69.119446 
L 207.05 68.135344 
L 207.895455 67.94926 
L 208.740909 68.267307 
L 211.277273 70.159091 
L 212.122727 70.439398 
L 216.35 71.153084 
L 218.040909 71.82824 
L 219.731818 72.672951 
L 220.577273 72.982616 
L 229.031818 74.886269 
L 231.568182 75.897024 
L 232.413636 76.070881 
L 234.95 76.229926 
L 236.640909 76.800974 
L 238.331818 77.44117 
L 240.022727 77.734112 
L 241.713636 77.989372 
L 248.477273 79.473583 
L 254.395455 80.599253 
L 270.459091 83.1003 
L 284.831818 84.686974 
L 296.668182 85.530888 
L 316.113636 86.495348 
L 338.940909 87.406172 
L 352.468182 87.775625 
L 367.686364 87.958489 
L 382.059091 87.902457 
L 394.740909 87.900982 
L 414.186364 87.910125 
L 439.55 87.773265 
L 448.85 87.685941 
L 472.522727 87.35274 
L 486.895455 86.886688 
L 510.568182 86.104322 
L 541.85 85.445281 
L 572.286364 84.858113 
L 572.286364 84.858113 
" style="fill:none;stroke:#bcbd22;stroke-linecap:square;stroke-width:2;"/>
   </g>
   <g id="patch_4">
    <path d="M 39.65 582.9575 
L 39.65 39.3575 
" style="fill:none;stroke:#000000;stroke-linecap:square;stroke-linejoin:miter;stroke-width:0.8;"/>
   </g>
   <g id="patch_5">
    <path d="M 597.65 582.9575 
L 597.65 39.3575 
" style="fill:none;stroke:#000000;stroke-linecap:square;stroke-linejoin:miter;stroke-width:0.8;"/>
   </g>
   <g id="patch_6">
    <path d="M 39.65 582.9575 
L 597.65 582.9575 
" style="fill:none;stroke:#000000;stroke-linecap:square;stroke-linejoin:miter;stroke-width:0.8;"/>
   </g>
   <g id="patch_7">
    <path d="M 39.65 39.3575 
L 597.65 39.3575 
" style="fill:none;stroke:#000000;stroke-linecap:square;stroke-linejoin:miter;stroke-width:0.8;"/>
   </g>
   <g id="text_15">
    <!-- Class separation -->
    <g transform="translate(403.195455 93.7175)scale(0.1 -0.1)">
     <defs>
      <path d="M 64.40625 67.28125 
L 64.40625 56.890625 
Q 59.421875 61.53125 53.78125 63.8125 
Q 48.140625 66.109375 41.796875 66.109375 
Q 29.296875 66.109375 22.65625 58.46875 
Q 16.015625 50.828125 16.015625 36.375 
Q 16.015625 21.96875 22.65625 14.328125 
Q 29.296875 6.6875 41.796875 6.6875 
Q 48.140625 6.6875 53.78125 8.984375 
Q 59.421875 11.28125 64.40625 15.921875 
L 64.40625 5.609375 
Q 59.234375 2.09375 53.4375 0.328125 
Q 47.65625 -1.421875 41.21875 -1.421875 
Q 24.65625 -1.421875 15.125 8.703125 
Q 5.609375 18.84375 5.609375 36.375 
Q 5.609375 53.953125 15.125 64.078125 
Q 24.65625 74.21875 41.21875 74.21875 
Q 47.75 74.21875 53.53125 72.484375 
Q 59.328125 70.75 64.40625 67.28125 
z
" id="DejaVuSans-67"/>
      <path d="M 9.421875 75.984375 
L 18.40625 75.984375 
L 18.40625 0 
L 9.421875 0 
z
" id="DejaVuSans-108"/>
      <path d="M 34.28125 27.484375 
Q 23.390625 27.484375 19.1875 25 
Q 14.984375 22.515625 14.984375 16.5 
Q 14.984375 11.71875 18.140625 8.90625 
Q 21.296875 6.109375 26.703125 6.109375 
Q 34.1875 6.109375 38.703125 11.40625 
Q 43.21875 16.703125 43.21875 25.484375 
L 43.21875 27.484375 
z
M 52.203125 31.203125 
L 52.203125 0 
L 43.21875 0 
L 43.21875 8.296875 
Q 40.140625 3.328125 35.546875 0.953125 
Q 30.953125 -1.421875 24.3125 -1.421875 
Q 15.921875 -1.421875 10.953125 3.296875 
Q 6 8.015625 6 15.921875 
Q 6 25.140625 12.171875 29.828125 
Q 18.359375 34.515625 30.609375 34.515625 
L 43.21875 34.515625 
L 43.21875 35.40625 
Q 43.21875 41.609375 39.140625 45 
Q 35.0625 48.390625 27.6875 48.390625 
Q 23 48.390625 18.546875 47.265625 
Q 14.109375 46.140625 10.015625 43.890625 
L 10.015625 52.203125 
Q 14.9375 54.109375 19.578125 55.046875 
Q 24.21875 56 28.609375 56 
Q 40.484375 56 46.34375 49.84375 
Q 52.203125 43.703125 52.203125 31.203125 
z
" id="DejaVuSans-97"/>
      <path id="DejaVuSans-32"/>
      <path d="M 56.203125 29.59375 
L 56.203125 25.203125 
L 14.890625 25.203125 
Q 15.484375 15.921875 20.484375 11.0625 
Q 25.484375 6.203125 34.421875 6.203125 
Q 39.59375 6.203125 44.453125 7.46875 
Q 49.3125 8.734375 54.109375 11.28125 
L 54.109375 2.78125 
Q 49.265625 0.734375 44.1875 -0.34375 
Q 39.109375 -1.421875 33.890625 -1.421875 
Q 20.796875 -1.421875 13.15625 6.1875 
Q 5.515625 13.8125 5.515625 26.8125 
Q 5.515625 40.234375 12.765625 48.109375 
Q 20.015625 56 32.328125 56 
Q 43.359375 56 49.78125 48.890625 
Q 56.203125 41.796875 56.203125 29.59375 
z
M 47.21875 32.234375 
Q 47.125 39.59375 43.09375 43.984375 
Q 39.0625 48.390625 32.421875 48.390625 
Q 24.90625 48.390625 20.390625 44.140625 
Q 15.875 39.890625 15.1875 32.171875 
z
" id="DejaVuSans-101"/>
      <path d="M 41.109375 46.296875 
Q 39.59375 47.171875 37.8125 47.578125 
Q 36.03125 48 33.890625 48 
Q 26.265625 48 22.1875 43.046875 
Q 18.109375 38.09375 18.109375 28.8125 
L 18.109375 0 
L 9.078125 0 
L 9.078125 54.6875 
L 18.109375 54.6875 
L 18.109375 46.1875 
Q 20.953125 51.171875 25.484375 53.578125 
Q 30.03125 56 36.53125 56 
Q 37.453125 56 38.578125 55.875 
Q 39.703125 55.765625 41.0625 55.515625 
z
" id="DejaVuSans-114"/>
      <path d="M 18.3125 70.21875 
L 18.3125 54.6875 
L 36.8125 54.6875 
L 36.8125 47.703125 
L 18.3125 47.703125 
L 18.3125 18.015625 
Q 18.3125 11.328125 20.140625 9.421875 
Q 21.96875 7.515625 27.59375 7.515625 
L 36.8125 7.515625 
L 36.8125 0 
L 27.59375 0 
Q 17.1875 0 13.234375 3.875 
Q 9.28125 7.765625 9.28125 18.015625 
L 9.28125 47.703125 
L 2.6875 47.703125 
L 2.6875 54.6875 
L 9.28125 54.6875 
L 9.28125 70.21875 
z
" id="DejaVuSans-116"/>
      <path d="M 9.421875 54.6875 
L 18.40625 54.6875 
L 18.40625 0 
L 9.421875 0 
z
M 9.421875 75.984375 
L 18.40625 75.984375 
L 18.40625 64.59375 
L 9.421875 64.59375 
z
" id="DejaVuSans-105"/>
      <path d="M 54.890625 33.015625 
L 54.890625 0 
L 45.90625 0 
L 45.90625 32.71875 
Q 45.90625 40.484375 42.875 44.328125 
Q 39.84375 48.1875 33.796875 48.1875 
Q 26.515625 48.1875 22.3125 43.546875 
Q 18.109375 38.921875 18.109375 30.90625 
L 18.109375 0 
L 9.078125 0 
L 9.078125 54.6875 
L 18.109375 54.6875 
L 18.109375 46.1875 
Q 21.34375 51.125 25.703125 53.5625 
Q 30.078125 56 35.796875 56 
Q 45.21875 56 50.046875 50.171875 
Q 54.890625 44.34375 54.890625 33.015625 
z
" id="DejaVuSans-110"/>
     </defs>
     <use xlink:href="#DejaVuSans-67"/>
     <use x="69.824219" xlink:href="#DejaVuSans-108"/>
     <use x="97.607422" xlink:href="#DejaVuSans-97"/>
     <use x="158.886719" xlink:href="#DejaVuSans-115"/>
     <use x="210.986328" xlink:href="#DejaVuSans-115"/>
     <use x="263.085938" xlink:href="#DejaVuSans-32"/>
     <use x="294.873047" xlink:href="#DejaVuSans-115"/>
     <use x="346.972656" xlink:href="#DejaVuSans-101"/>
     <use x="408.496094" xlink:href="#DejaVuSans-112"/>
     <use x="471.972656" xlink:href="#DejaVuSans-97"/>
     <use x="533.251953" xlink:href="#DejaVuSans-114"/>
     <use x="574.365234" xlink:href="#DejaVuSans-97"/>
     <use x="635.644531" xlink:href="#DejaVuSans-116"/>
     <use x="674.853516" xlink:href="#DejaVuSans-105"/>
     <use x="702.636719" xlink:href="#DejaVuSans-111"/>
     <use x="763.818359" xlink:href="#DejaVuSans-110"/>
    </g>
   </g>
   <g id="text_16">
    <!-- Scalar magnitude -->
    <g transform="translate(248.04 19.3575)scale(0.16 -0.16)">
     <defs>
      <path d="M 53.515625 70.515625 
L 53.515625 60.890625 
Q 47.90625 63.578125 42.921875 64.890625 
Q 37.9375 66.21875 33.296875 66.21875 
Q 25.25 66.21875 20.875 63.09375 
Q 16.5 59.96875 16.5 54.203125 
Q 16.5 49.359375 19.40625 46.890625 
Q 22.3125 44.4375 30.421875 42.921875 
L 36.375 41.703125 
Q 47.40625 39.59375 52.65625 34.296875 
Q 57.90625 29 57.90625 20.125 
Q 57.90625 9.515625 50.796875 4.046875 
Q 43.703125 -1.421875 29.984375 -1.421875 
Q 24.8125 -1.421875 18.96875 -0.25 
Q 13.140625 0.921875 6.890625 3.21875 
L 6.890625 13.375 
Q 12.890625 10.015625 18.65625 8.296875 
Q 24.421875 6.59375 29.984375 6.59375 
Q 38.421875 6.59375 43.015625 9.90625 
Q 47.609375 13.234375 47.609375 19.390625 
Q 47.609375 24.75 44.3125 27.78125 
Q 41.015625 30.8125 33.5 32.328125 
L 27.484375 33.5 
Q 16.453125 35.6875 11.515625 40.375 
Q 6.59375 45.0625 6.59375 53.421875 
Q 6.59375 63.09375 13.40625 68.65625 
Q 20.21875 74.21875 32.171875 74.21875 
Q 37.3125 74.21875 42.625 73.28125 
Q 47.953125 72.359375 53.515625 70.515625 
z
" id="DejaVuSans-83"/>
      <path d="M 52 44.1875 
Q 55.375 50.25 60.0625 53.125 
Q 64.75 56 71.09375 56 
Q 79.640625 56 84.28125 50.015625 
Q 88.921875 44.046875 88.921875 33.015625 
L 88.921875 0 
L 79.890625 0 
L 79.890625 32.71875 
Q 79.890625 40.578125 77.09375 44.375 
Q 74.3125 48.1875 68.609375 48.1875 
Q 61.625 48.1875 57.5625 43.546875 
Q 53.515625 38.921875 53.515625 30.90625 
L 53.515625 0 
L 44.484375 0 
L 44.484375 32.71875 
Q 44.484375 40.625 41.703125 44.40625 
Q 38.921875 48.1875 33.109375 48.1875 
Q 26.21875 48.1875 22.15625 43.53125 
Q 18.109375 38.875 18.109375 30.90625 
L 18.109375 0 
L 9.078125 0 
L 9.078125 54.6875 
L 18.109375 54.6875 
L 18.109375 46.1875 
Q 21.1875 51.21875 25.484375 53.609375 
Q 29.78125 56 35.6875 56 
Q 41.65625 56 45.828125 52.96875 
Q 50 49.953125 52 44.1875 
z
" id="DejaVuSans-109"/>
      <path d="M 45.40625 27.984375 
Q 45.40625 37.75 41.375 43.109375 
Q 37.359375 48.484375 30.078125 48.484375 
Q 22.859375 48.484375 18.828125 43.109375 
Q 14.796875 37.75 14.796875 27.984375 
Q 14.796875 18.265625 18.828125 12.890625 
Q 22.859375 7.515625 30.078125 7.515625 
Q 37.359375 7.515625 41.375 12.890625 
Q 45.40625 18.265625 45.40625 27.984375 
z
M 54.390625 6.78125 
Q 54.390625 -7.171875 48.1875 -13.984375 
Q 42 -20.796875 29.203125 -20.796875 
Q 24.46875 -20.796875 20.265625 -20.09375 
Q 16.0625 -19.390625 12.109375 -17.921875 
L 12.109375 -9.1875 
Q 16.0625 -11.328125 19.921875 -12.34375 
Q 23.78125 -13.375 27.78125 -13.375 
Q 36.625 -13.375 41.015625 -8.765625 
Q 45.40625 -4.15625 45.40625 5.171875 
L 45.40625 9.625 
Q 42.625 4.78125 38.28125 2.390625 
Q 33.9375 0 27.875 0 
Q 17.828125 0 11.671875 7.65625 
Q 5.515625 15.328125 5.515625 27.984375 
Q 5.515625 40.671875 11.671875 48.328125 
Q 17.828125 56 27.875 56 
Q 33.9375 56 38.28125 53.609375 
Q 42.625 51.21875 45.40625 46.390625 
L 45.40625 54.6875 
L 54.390625 54.6875 
z
" id="DejaVuSans-103"/>
      <path d="M 8.5 21.578125 
L 8.5 54.6875 
L 17.484375 54.6875 
L 17.484375 21.921875 
Q 17.484375 14.15625 20.5 10.265625 
Q 23.53125 6.390625 29.59375 6.390625 
Q 36.859375 6.390625 41.078125 11.03125 
Q 45.3125 15.671875 45.3125 23.6875 
L 45.3125 54.6875 
L 54.296875 54.6875 
L 54.296875 0 
L 45.3125 0 
L 45.3125 8.40625 
Q 42.046875 3.421875 37.71875 1 
Q 33.40625 -1.421875 27.6875 -1.421875 
Q 18.265625 -1.421875 13.375 4.4375 
Q 8.5 10.296875 8.5 21.578125 
z
M 31.109375 56 
z
" id="DejaVuSans-117"/>
      <path d="M 45.40625 46.390625 
L 45.40625 75.984375 
L 54.390625 75.984375 
L 54.390625 0 
L 45.40625 0 
L 45.40625 8.203125 
Q 42.578125 3.328125 38.25 0.953125 
Q 33.9375 -1.421875 27.875 -1.421875 
Q 17.96875 -1.421875 11.734375 6.484375 
Q 5.515625 14.40625 5.515625 27.296875 
Q 5.515625 40.1875 11.734375 48.09375 
Q 17.96875 56 27.875 56 
Q 33.9375 56 38.25 53.625 
Q 42.578125 51.265625 45.40625 46.390625 
z
M 14.796875 27.296875 
Q 14.796875 17.390625 18.875 11.75 
Q 22.953125 6.109375 30.078125 6.109375 
Q 37.203125 6.109375 41.296875 11.75 
Q 45.40625 17.390625 45.40625 27.296875 
Q 45.40625 37.203125 41.296875 42.84375 
Q 37.203125 48.484375 30.078125 48.484375 
Q 22.953125 48.484375 18.875 42.84375 
Q 14.796875 37.203125 14.796875 27.296875 
z
" id="DejaVuSans-100"/>
     </defs>
     <use xlink:href="#DejaVuSans-83"/>
     <use x="63.476562" xlink:href="#DejaVuSans-99"/>
     <use x="118.457031" xlink:href="#DejaVuSans-97"/>
     <use x="179.736328" xlink:href="#DejaVuSans-108"/>
     <use x="207.519531" xlink:href="#DejaVuSans-97"/>
     <use x="268.798828" xlink:href="#DejaVuSans-114"/>
     <use x="309.912109" xlink:href="#DejaVuSans-32"/>
     <use x="341.699219" xlink:href="#DejaVuSans-109"/>
     <use x="439.111328" xlink:href="#DejaVuSans-97"/>
     <use x="500.390625" xlink:href="#DejaVuSans-103"/>
     <use x="563.867188" xlink:href="#DejaVuSans-110"/>
     <use x="627.246094" xlink:href="#DejaVuSans-105"/>
     <use x="655.029297" xlink:href="#DejaVuSans-116"/>
     <use x="694.238281" xlink:href="#DejaVuSans-117"/>
     <use x="757.617188" xlink:href="#DejaVuSans-100"/>
     <use x="821.09375" xlink:href="#DejaVuSans-101"/>
    </g>
   </g>
   <g id="legend_1">
    <g id="line2d_23">
     <path d="M 62.642188 628.671938 
L 82.642188 628.671938 
" style="fill:none;stroke:#1f77b4;stroke-linecap:square;stroke-width:2;"/>
    </g>
    <g id="line2d_24"/>
    <g id="text_17">
     <!-- Baseline -->
     <g transform="translate(90.642188 632.171938)scale(0.1 -0.1)">
      <defs>
       <path d="M 19.671875 34.8125 
L 19.671875 8.109375 
L 35.5 8.109375 
Q 43.453125 8.109375 47.28125 11.40625 
Q 51.125 14.703125 51.125 21.484375 
Q 51.125 28.328125 47.28125 31.5625 
Q 43.453125 34.8125 35.5 34.8125 
z
M 19.671875 64.796875 
L 19.671875 42.828125 
L 34.28125 42.828125 
Q 41.5 42.828125 45.03125 45.53125 
Q 48.578125 48.25 48.578125 53.8125 
Q 48.578125 59.328125 45.03125 62.0625 
Q 41.5 64.796875 34.28125 64.796875 
z
M 9.8125 72.90625 
L 35.015625 72.90625 
Q 46.296875 72.90625 52.390625 68.21875 
Q 58.5 63.53125 58.5 54.890625 
Q 58.5 48.1875 55.375 44.234375 
Q 52.25 40.28125 46.1875 39.3125 
Q 53.46875 37.75 57.5 32.78125 
Q 61.53125 27.828125 61.53125 20.40625 
Q 61.53125 10.640625 54.890625 5.3125 
Q 48.25 0 35.984375 0 
L 9.8125 0 
z
" id="DejaVuSans-66"/>
      </defs>
      <use xlink:href="#DejaVuSans-66"/>
      <use x="68.603516" xlink:href="#DejaVuSans-97"/>
      <use x="129.882812" xlink:href="#DejaVuSans-115"/>
      <use x="181.982422" xlink:href="#DejaVuSans-101"/>
      <use x="243.505859" xlink:href="#DejaVuSans-108"/>
      <use x="271.289062" xlink:href="#DejaVuSans-105"/>
      <use x="299.072266" xlink:href="#DejaVuSans-110"/>
      <use x="362.451172" xlink:href="#DejaVuSans-101"/>
     </g>
    </g>
    <g id="line2d_25">
     <path d="M 62.642188 643.350063 
L 82.642188 643.350063 
" style="fill:none;stroke:#ff7f0e;stroke-linecap:square;stroke-width:3;"/>
    </g>
    <g id="line2d_26"/>
    <g id="text_18">
     <!-- Forced normaliz. -->
     <g transform="translate(90.642188 646.850063)scale(0.1 -0.1)">
      <defs>
       <path d="M 9.8125 72.90625 
L 51.703125 72.90625 
L 51.703125 64.59375 
L 19.671875 64.59375 
L 19.671875 43.109375 
L 48.578125 43.109375 
L 48.578125 34.8125 
L 19.671875 34.8125 
L 19.671875 0 
L 9.8125 0 
z
" id="DejaVuSans-70"/>
       <path d="M 5.515625 54.6875 
L 48.1875 54.6875 
L 48.1875 46.484375 
L 14.40625 7.171875 
L 48.1875 7.171875 
L 48.1875 0 
L 4.296875 0 
L 4.296875 8.203125 
L 38.09375 47.515625 
L 5.515625 47.515625 
z
" id="DejaVuSans-122"/>
       <path d="M 10.6875 12.40625 
L 21 12.40625 
L 21 0 
L 10.6875 0 
z
" id="DejaVuSans-46"/>
      </defs>
      <use xlink:href="#DejaVuSans-70"/>
      <use x="53.894531" xlink:href="#DejaVuSans-111"/>
      <use x="115.076172" xlink:href="#DejaVuSans-114"/>
      <use x="153.939453" xlink:href="#DejaVuSans-99"/>
      <use x="208.919922" xlink:href="#DejaVuSans-101"/>
      <use x="270.443359" xlink:href="#DejaVuSans-100"/>
      <use x="333.919922" xlink:href="#DejaVuSans-32"/>
      <use x="365.707031" xlink:href="#DejaVuSans-110"/>
      <use x="429.085938" xlink:href="#DejaVuSans-111"/>
      <use x="490.267578" xlink:href="#DejaVuSans-114"/>
      <use x="529.630859" xlink:href="#DejaVuSans-109"/>
      <use x="627.042969" xlink:href="#DejaVuSans-97"/>
      <use x="688.322266" xlink:href="#DejaVuSans-108"/>
      <use x="716.105469" xlink:href="#DejaVuSans-105"/>
      <use x="743.888672" xlink:href="#DejaVuSans-122"/>
      <use x="796.378906" xlink:href="#DejaVuSans-46"/>
     </g>
    </g>
    <g id="line2d_27">
     <path d="M 193.457813 628.671938 
L 213.457813 628.671938 
" style="fill:none;stroke:#2ca02c;stroke-linecap:square;stroke-width:2;"/>
    </g>
    <g id="line2d_28"/>
    <g id="text_19">
     <!-- $\lambda=0.005$ -->
     <g transform="translate(221.457813 632.171938)scale(0.1 -0.1)">
      <defs>
       <path d="M 36.71875 67.4375 
L 48.828125 0 
L 39.3125 0 
L 31.84375 40.4375 
L 5.125 0 
L -4.390625 0 
L 29.734375 52.4375 
L 28.03125 62.109375 
Q 26.953125 68.265625 21.734375 68.265625 
L 17.046875 68.265625 
L 18.5 75.984375 
L 24.21875 75.875 
Q 35.203125 75.734375 36.71875 67.4375 
z
" id="DejaVuSans-Oblique-955"/>
       <path d="M 10.59375 45.40625 
L 73.1875 45.40625 
L 73.1875 37.203125 
L 10.59375 37.203125 
z
M 10.59375 25.484375 
L 73.1875 25.484375 
L 73.1875 17.1875 
L 10.59375 17.1875 
z
" id="DejaVuSans-61"/>
      </defs>
      <use transform="translate(0 0.015625)" xlink:href="#DejaVuSans-Oblique-955"/>
      <use transform="translate(78.662109 0.015625)" xlink:href="#DejaVuSans-61"/>
      <use transform="translate(181.933594 0.015625)" xlink:href="#DejaVuSans-48"/>
      <use transform="translate(245.556641 0.015625)" xlink:href="#DejaVuSans-46"/>
      <use transform="translate(277.34375 0.015625)" xlink:href="#DejaVuSans-48"/>
      <use transform="translate(340.966797 0.015625)" xlink:href="#DejaVuSans-48"/>
      <use transform="translate(404.589844 0.015625)" xlink:href="#DejaVuSans-53"/>
     </g>
    </g>
    <g id="line2d_29">
     <path d="M 193.457813 643.350063 
L 213.457813 643.350063 
" style="fill:none;stroke:#d62728;stroke-linecap:square;stroke-width:2;"/>
    </g>
    <g id="line2d_30"/>
    <g id="text_20">
     <!-- $\lambda=0.05$ -->
     <g transform="translate(221.457813 646.850063)scale(0.1 -0.1)">
      <use transform="translate(0 0.015625)" xlink:href="#DejaVuSans-Oblique-955"/>
      <use transform="translate(78.662109 0.015625)" xlink:href="#DejaVuSans-61"/>
      <use transform="translate(181.933594 0.015625)" xlink:href="#DejaVuSans-48"/>
      <use transform="translate(245.556641 0.015625)" xlink:href="#DejaVuSans-46"/>
      <use transform="translate(277.34375 0.015625)" xlink:href="#DejaVuSans-48"/>
      <use transform="translate(340.966797 0.015625)" xlink:href="#DejaVuSans-53"/>
     </g>
    </g>
    <g id="line2d_31">
     <path d="M 288.357813 628.671938 
L 308.357813 628.671938 
" style="fill:none;stroke:#9467bd;stroke-linecap:square;stroke-width:2;"/>
    </g>
    <g id="line2d_32"/>
    <g id="text_21">
     <!-- $\lambda=0.5$ -->
     <g transform="translate(316.357813 632.171938)scale(0.1 -0.1)">
      <use transform="translate(0 0.015625)" xlink:href="#DejaVuSans-Oblique-955"/>
      <use transform="translate(78.662109 0.015625)" xlink:href="#DejaVuSans-61"/>
      <use transform="translate(181.933594 0.015625)" xlink:href="#DejaVuSans-48"/>
      <use transform="translate(245.556641 0.015625)" xlink:href="#DejaVuSans-46"/>
      <use transform="translate(277.34375 0.015625)" xlink:href="#DejaVuSans-53"/>
     </g>
    </g>
    <g id="line2d_33">
     <path d="M 288.357813 643.350063 
L 308.357813 643.350063 
" style="fill:none;stroke:#8c564b;stroke-linecap:square;stroke-width:2;"/>
    </g>
    <g id="line2d_34"/>
    <g id="text_22">
     <!-- $\lambda=1.5$ -->
     <g transform="translate(316.357813 646.850063)scale(0.1 -0.1)">
      <use transform="translate(0 0.015625)" xlink:href="#DejaVuSans-Oblique-955"/>
      <use transform="translate(78.662109 0.015625)" xlink:href="#DejaVuSans-61"/>
      <use transform="translate(181.933594 0.015625)" xlink:href="#DejaVuSans-49"/>
      <use transform="translate(245.556641 0.015625)" xlink:href="#DejaVuSans-46"/>
      <use transform="translate(277.34375 0.015625)" xlink:href="#DejaVuSans-53"/>
     </g>
    </g>
    <g id="line2d_35">
     <path d="M 370.457813 628.671938 
L 390.457813 628.671938 
" style="fill:none;stroke:#e377c2;stroke-linecap:square;stroke-width:2;"/>
    </g>
    <g id="line2d_36"/>
    <g id="text_23">
     <!-- $\lambda=3$ -->
     <g transform="translate(398.457813 632.171938)scale(0.1 -0.1)">
      <use transform="translate(0 0.015625)" xlink:href="#DejaVuSans-Oblique-955"/>
      <use transform="translate(78.662109 0.015625)" xlink:href="#DejaVuSans-61"/>
      <use transform="translate(181.933594 0.015625)" xlink:href="#DejaVuSans-51"/>
     </g>
    </g>
    <g id="line2d_37">
     <path d="M 443.057812 628.671938 
L 463.057812 628.671938 
" style="fill:none;stroke:#7f7f7f;stroke-linecap:square;stroke-width:2;"/>
    </g>
    <g id="line2d_38"/>
    <g id="text_24">
     <!-- $\lambda=5$ -->
     <g transform="translate(471.057812 632.171938)scale(0.1 -0.1)">
      <use transform="translate(0 0.015625)" xlink:href="#DejaVuSans-Oblique-955"/>
      <use transform="translate(78.662109 0.015625)" xlink:href="#DejaVuSans-61"/>
      <use transform="translate(181.933594 0.015625)" xlink:href="#DejaVuSans-53"/>
     </g>
    </g>
    <g id="line2d_39">
     <path d="M 515.657812 628.671938 
L 535.657812 628.671938 
" style="fill:none;stroke:#bcbd22;stroke-linecap:square;stroke-width:2;"/>
    </g>
    <g id="line2d_40"/>
    <g id="text_25">
     <!-- $\lambda=10$ -->
     <g transform="translate(543.657812 632.171938)scale(0.1 -0.1)">
      <use transform="translate(0 0.015625)" xlink:href="#DejaVuSans-Oblique-955"/>
      <use transform="translate(78.662109 0.015625)" xlink:href="#DejaVuSans-61"/>
      <use transform="translate(181.933594 0.015625)" xlink:href="#DejaVuSans-49"/>
      <use transform="translate(245.556641 0.015625)" xlink:href="#DejaVuSans-48"/>
     </g>
    </g>
   </g>
  </g>
 </g>
 <defs>
  <clipPath id="p6aa83b4e8d">
   <rect height="543.6" width="558" x="39.65" y="39.3575"/>
  </clipPath>
 </defs>
</svg>
