<?xml version="1.0" encoding="utf-8" standalone="no"?>
<!DOCTYPE svg PUBLIC "-//W3C//DTD SVG 1.1//EN"
  "http://www.w3.org/Graphics/SVG/1.1/DTD/svg11.dtd">
<!-- Created with matplotlib (https://matplotlib.org/) -->
<svg height="660.12975pt" version="1.1" viewBox="0 0 592.125 660.12975" width="592.125pt" xmlns="http://www.w3.org/2000/svg" xmlns:xlink="http://www.w3.org/1999/xlink">
 <metadata>
  <rdf:RDF xmlns:cc="http://creativecommons.org/ns#" xmlns:dc="http://purl.org/dc/elements/1.1/" xmlns:rdf="http://www.w3.org/1999/02/22-rdf-syntax-ns#">
   <cc:Work>
    <dc:type rdf:resource="http://purl.org/dc/dcmitype/StillImage"/>
    <dc:date>2021-01-11T23:04:18.100679</dc:date>
    <dc:format>image/svg+xml</dc:format>
    <dc:creator>
     <cc:Agent>
      <dc:title>Matplotlib v3.3.2, https://matplotlib.org/</dc:title>
     </cc:Agent>
    </dc:creator>
   </cc:Work>
  </rdf:RDF>
 </metadata>
 <defs>
  <style type="text/css">*{stroke-linecap:butt;stroke-linejoin:round;}</style>
 </defs>
 <g id="figure_1">
  <g id="patch_1">
   <path d="M 0 660.12975 
L 592.125 660.12975 
L 592.125 0 
L 0 0 
z
" style="fill:none;"/>
  </g>
  <g id="axes_1">
   <g id="patch_2">
    <path d="M 26.925 582.9575 
L 584.925 582.9575 
L 584.925 39.3575 
L 26.925 39.3575 
z
" style="fill:#ffffff;"/>
   </g>
   <g id="patch_3">
    <path clip-path="url(#p7d1d1f508d)" d="M 87.797727 582.9575 
L 260.270455 582.9575 
L 260.270455 39.3575 
L 87.797727 39.3575 
z
" style="fill:#1f77b4;opacity:0.2;"/>
   </g>
   <g id="matplotlib.axis_1">
    <g id="xtick_1">
     <g id="line2d_1">
      <defs>
       <path d="M 0 0 
L 0 3.5 
" id="m29afd9e462" style="stroke:#000000;stroke-width:0.8;"/>
      </defs>
      <g>
       <use style="stroke:#000000;stroke-width:0.8;" x="52.288636" xlink:href="#m29afd9e462" y="582.9575"/>
      </g>
     </g>
     <g id="text_1">
      <!-- 0 -->
      <g transform="translate(49.107386 597.555938)scale(0.1 -0.1)">
       <defs>
        <path d="M 31.78125 66.40625 
Q 24.171875 66.40625 20.328125 58.90625 
Q 16.5 51.421875 16.5 36.375 
Q 16.5 21.390625 20.328125 13.890625 
Q 24.171875 6.390625 31.78125 6.390625 
Q 39.453125 6.390625 43.28125 13.890625 
Q 47.125 21.390625 47.125 36.375 
Q 47.125 51.421875 43.28125 58.90625 
Q 39.453125 66.40625 31.78125 66.40625 
z
M 31.78125 74.21875 
Q 44.046875 74.21875 50.515625 64.515625 
Q 56.984375 54.828125 56.984375 36.375 
Q 56.984375 17.96875 50.515625 8.265625 
Q 44.046875 -1.421875 31.78125 -1.421875 
Q 19.53125 -1.421875 13.0625 8.265625 
Q 6.59375 17.96875 6.59375 36.375 
Q 6.59375 54.828125 13.0625 64.515625 
Q 19.53125 74.21875 31.78125 74.21875 
z
" id="DejaVuSans-48"/>
       </defs>
       <use xlink:href="#DejaVuSans-48"/>
      </g>
     </g>
    </g>
    <g id="xtick_2">
     <g id="line2d_2">
      <g>
       <use style="stroke:#000000;stroke-width:0.8;" x="136.834091" xlink:href="#m29afd9e462" y="582.9575"/>
      </g>
     </g>
     <g id="text_2">
      <!-- 100 -->
      <g transform="translate(127.290341 597.555938)scale(0.1 -0.1)">
       <defs>
        <path d="M 12.40625 8.296875 
L 28.515625 8.296875 
L 28.515625 63.921875 
L 10.984375 60.40625 
L 10.984375 69.390625 
L 28.421875 72.90625 
L 38.28125 72.90625 
L 38.28125 8.296875 
L 54.390625 8.296875 
L 54.390625 0 
L 12.40625 0 
z
" id="DejaVuSans-49"/>
       </defs>
       <use xlink:href="#DejaVuSans-49"/>
       <use x="63.623047" xlink:href="#DejaVuSans-48"/>
       <use x="127.246094" xlink:href="#DejaVuSans-48"/>
      </g>
     </g>
    </g>
    <g id="xtick_3">
     <g id="line2d_3">
      <g>
       <use style="stroke:#000000;stroke-width:0.8;" x="221.379545" xlink:href="#m29afd9e462" y="582.9575"/>
      </g>
     </g>
     <g id="text_3">
      <!-- 200 -->
      <g transform="translate(211.835795 597.555938)scale(0.1 -0.1)">
       <defs>
        <path d="M 19.1875 8.296875 
L 53.609375 8.296875 
L 53.609375 0 
L 7.328125 0 
L 7.328125 8.296875 
Q 12.9375 14.109375 22.625 23.890625 
Q 32.328125 33.6875 34.8125 36.53125 
Q 39.546875 41.84375 41.421875 45.53125 
Q 43.3125 49.21875 43.3125 52.78125 
Q 43.3125 58.59375 39.234375 62.25 
Q 35.15625 65.921875 28.609375 65.921875 
Q 23.96875 65.921875 18.8125 64.3125 
Q 13.671875 62.703125 7.8125 59.421875 
L 7.8125 69.390625 
Q 13.765625 71.78125 18.9375 73 
Q 24.125 74.21875 28.421875 74.21875 
Q 39.75 74.21875 46.484375 68.546875 
Q 53.21875 62.890625 53.21875 53.421875 
Q 53.21875 48.921875 51.53125 44.890625 
Q 49.859375 40.875 45.40625 35.40625 
Q 44.1875 33.984375 37.640625 27.21875 
Q 31.109375 20.453125 19.1875 8.296875 
z
" id="DejaVuSans-50"/>
       </defs>
       <use xlink:href="#DejaVuSans-50"/>
       <use x="63.623047" xlink:href="#DejaVuSans-48"/>
       <use x="127.246094" xlink:href="#DejaVuSans-48"/>
      </g>
     </g>
    </g>
    <g id="xtick_4">
     <g id="line2d_4">
      <g>
       <use style="stroke:#000000;stroke-width:0.8;" x="305.925" xlink:href="#m29afd9e462" y="582.9575"/>
      </g>
     </g>
     <g id="text_4">
      <!-- 300 -->
      <g transform="translate(296.38125 597.555938)scale(0.1 -0.1)">
       <defs>
        <path d="M 40.578125 39.3125 
Q 47.65625 37.796875 51.625 33 
Q 55.609375 28.21875 55.609375 21.1875 
Q 55.609375 10.40625 48.1875 4.484375 
Q 40.765625 -1.421875 27.09375 -1.421875 
Q 22.515625 -1.421875 17.65625 -0.515625 
Q 12.796875 0.390625 7.625 2.203125 
L 7.625 11.71875 
Q 11.71875 9.328125 16.59375 8.109375 
Q 21.484375 6.890625 26.8125 6.890625 
Q 36.078125 6.890625 40.9375 10.546875 
Q 45.796875 14.203125 45.796875 21.1875 
Q 45.796875 27.640625 41.28125 31.265625 
Q 36.765625 34.90625 28.71875 34.90625 
L 20.21875 34.90625 
L 20.21875 43.015625 
L 29.109375 43.015625 
Q 36.375 43.015625 40.234375 45.921875 
Q 44.09375 48.828125 44.09375 54.296875 
Q 44.09375 59.90625 40.109375 62.90625 
Q 36.140625 65.921875 28.71875 65.921875 
Q 24.65625 65.921875 20.015625 65.03125 
Q 15.375 64.15625 9.8125 62.3125 
L 9.8125 71.09375 
Q 15.4375 72.65625 20.34375 73.4375 
Q 25.25 74.21875 29.59375 74.21875 
Q 40.828125 74.21875 47.359375 69.109375 
Q 53.90625 64.015625 53.90625 55.328125 
Q 53.90625 49.265625 50.4375 45.09375 
Q 46.96875 40.921875 40.578125 39.3125 
z
" id="DejaVuSans-51"/>
       </defs>
       <use xlink:href="#DejaVuSans-51"/>
       <use x="63.623047" xlink:href="#DejaVuSans-48"/>
       <use x="127.246094" xlink:href="#DejaVuSans-48"/>
      </g>
     </g>
    </g>
    <g id="xtick_5">
     <g id="line2d_5">
      <g>
       <use style="stroke:#000000;stroke-width:0.8;" x="390.470455" xlink:href="#m29afd9e462" y="582.9575"/>
      </g>
     </g>
     <g id="text_5">
      <!-- 400 -->
      <g transform="translate(380.926705 597.555938)scale(0.1 -0.1)">
       <defs>
        <path d="M 37.796875 64.3125 
L 12.890625 25.390625 
L 37.796875 25.390625 
z
M 35.203125 72.90625 
L 47.609375 72.90625 
L 47.609375 25.390625 
L 58.015625 25.390625 
L 58.015625 17.1875 
L 47.609375 17.1875 
L 47.609375 0 
L 37.796875 0 
L 37.796875 17.1875 
L 4.890625 17.1875 
L 4.890625 26.703125 
z
" id="DejaVuSans-52"/>
       </defs>
       <use xlink:href="#DejaVuSans-52"/>
       <use x="63.623047" xlink:href="#DejaVuSans-48"/>
       <use x="127.246094" xlink:href="#DejaVuSans-48"/>
      </g>
     </g>
    </g>
    <g id="xtick_6">
     <g id="line2d_6">
      <g>
       <use style="stroke:#000000;stroke-width:0.8;" x="475.015909" xlink:href="#m29afd9e462" y="582.9575"/>
      </g>
     </g>
     <g id="text_6">
      <!-- 500 -->
      <g transform="translate(465.472159 597.555938)scale(0.1 -0.1)">
       <defs>
        <path d="M 10.796875 72.90625 
L 49.515625 72.90625 
L 49.515625 64.59375 
L 19.828125 64.59375 
L 19.828125 46.734375 
Q 21.96875 47.46875 24.109375 47.828125 
Q 26.265625 48.1875 28.421875 48.1875 
Q 40.625 48.1875 47.75 41.5 
Q 54.890625 34.8125 54.890625 23.390625 
Q 54.890625 11.625 47.5625 5.09375 
Q 40.234375 -1.421875 26.90625 -1.421875 
Q 22.3125 -1.421875 17.546875 -0.640625 
Q 12.796875 0.140625 7.71875 1.703125 
L 7.71875 11.625 
Q 12.109375 9.234375 16.796875 8.0625 
Q 21.484375 6.890625 26.703125 6.890625 
Q 35.15625 6.890625 40.078125 11.328125 
Q 45.015625 15.765625 45.015625 23.390625 
Q 45.015625 31 40.078125 35.4375 
Q 35.15625 39.890625 26.703125 39.890625 
Q 22.75 39.890625 18.8125 39.015625 
Q 14.890625 38.140625 10.796875 36.28125 
z
" id="DejaVuSans-53"/>
       </defs>
       <use xlink:href="#DejaVuSans-53"/>
       <use x="63.623047" xlink:href="#DejaVuSans-48"/>
       <use x="127.246094" xlink:href="#DejaVuSans-48"/>
      </g>
     </g>
    </g>
    <g id="xtick_7">
     <g id="line2d_7">
      <g>
       <use style="stroke:#000000;stroke-width:0.8;" x="559.561364" xlink:href="#m29afd9e462" y="582.9575"/>
      </g>
     </g>
     <g id="text_7">
      <!-- 600 -->
      <g transform="translate(550.017614 597.555938)scale(0.1 -0.1)">
       <defs>
        <path d="M 33.015625 40.375 
Q 26.375 40.375 22.484375 35.828125 
Q 18.609375 31.296875 18.609375 23.390625 
Q 18.609375 15.53125 22.484375 10.953125 
Q 26.375 6.390625 33.015625 6.390625 
Q 39.65625 6.390625 43.53125 10.953125 
Q 47.40625 15.53125 47.40625 23.390625 
Q 47.40625 31.296875 43.53125 35.828125 
Q 39.65625 40.375 33.015625 40.375 
z
M 52.59375 71.296875 
L 52.59375 62.3125 
Q 48.875 64.0625 45.09375 64.984375 
Q 41.3125 65.921875 37.59375 65.921875 
Q 27.828125 65.921875 22.671875 59.328125 
Q 17.53125 52.734375 16.796875 39.40625 
Q 19.671875 43.65625 24.015625 45.921875 
Q 28.375 48.1875 33.59375 48.1875 
Q 44.578125 48.1875 50.953125 41.515625 
Q 57.328125 34.859375 57.328125 23.390625 
Q 57.328125 12.15625 50.6875 5.359375 
Q 44.046875 -1.421875 33.015625 -1.421875 
Q 20.359375 -1.421875 13.671875 8.265625 
Q 6.984375 17.96875 6.984375 36.375 
Q 6.984375 53.65625 15.1875 63.9375 
Q 23.390625 74.21875 37.203125 74.21875 
Q 40.921875 74.21875 44.703125 73.484375 
Q 48.484375 72.75 52.59375 71.296875 
z
" id="DejaVuSans-54"/>
       </defs>
       <use xlink:href="#DejaVuSans-54"/>
       <use x="63.623047" xlink:href="#DejaVuSans-48"/>
       <use x="127.246094" xlink:href="#DejaVuSans-48"/>
      </g>
     </g>
    </g>
    <g id="text_8">
     <!-- Epochs -->
     <g transform="translate(288.009375 611.234063)scale(0.1 -0.1)">
      <defs>
       <path d="M 9.8125 72.90625 
L 55.90625 72.90625 
L 55.90625 64.59375 
L 19.671875 64.59375 
L 19.671875 43.015625 
L 54.390625 43.015625 
L 54.390625 34.71875 
L 19.671875 34.71875 
L 19.671875 8.296875 
L 56.78125 8.296875 
L 56.78125 0 
L 9.8125 0 
z
" id="DejaVuSans-69"/>
       <path d="M 18.109375 8.203125 
L 18.109375 -20.796875 
L 9.078125 -20.796875 
L 9.078125 54.6875 
L 18.109375 54.6875 
L 18.109375 46.390625 
Q 20.953125 51.265625 25.265625 53.625 
Q 29.59375 56 35.59375 56 
Q 45.5625 56 51.78125 48.09375 
Q 58.015625 40.1875 58.015625 27.296875 
Q 58.015625 14.40625 51.78125 6.484375 
Q 45.5625 -1.421875 35.59375 -1.421875 
Q 29.59375 -1.421875 25.265625 0.953125 
Q 20.953125 3.328125 18.109375 8.203125 
z
M 48.6875 27.296875 
Q 48.6875 37.203125 44.609375 42.84375 
Q 40.53125 48.484375 33.40625 48.484375 
Q 26.265625 48.484375 22.1875 42.84375 
Q 18.109375 37.203125 18.109375 27.296875 
Q 18.109375 17.390625 22.1875 11.75 
Q 26.265625 6.109375 33.40625 6.109375 
Q 40.53125 6.109375 44.609375 11.75 
Q 48.6875 17.390625 48.6875 27.296875 
z
" id="DejaVuSans-112"/>
       <path d="M 30.609375 48.390625 
Q 23.390625 48.390625 19.1875 42.75 
Q 14.984375 37.109375 14.984375 27.296875 
Q 14.984375 17.484375 19.15625 11.84375 
Q 23.34375 6.203125 30.609375 6.203125 
Q 37.796875 6.203125 41.984375 11.859375 
Q 46.1875 17.53125 46.1875 27.296875 
Q 46.1875 37.015625 41.984375 42.703125 
Q 37.796875 48.390625 30.609375 48.390625 
z
M 30.609375 56 
Q 42.328125 56 49.015625 48.375 
Q 55.71875 40.765625 55.71875 27.296875 
Q 55.71875 13.875 49.015625 6.21875 
Q 42.328125 -1.421875 30.609375 -1.421875 
Q 18.84375 -1.421875 12.171875 6.21875 
Q 5.515625 13.875 5.515625 27.296875 
Q 5.515625 40.765625 12.171875 48.375 
Q 18.84375 56 30.609375 56 
z
" id="DejaVuSans-111"/>
       <path d="M 48.78125 52.59375 
L 48.78125 44.1875 
Q 44.96875 46.296875 41.140625 47.34375 
Q 37.3125 48.390625 33.40625 48.390625 
Q 24.65625 48.390625 19.8125 42.84375 
Q 14.984375 37.3125 14.984375 27.296875 
Q 14.984375 17.28125 19.8125 11.734375 
Q 24.65625 6.203125 33.40625 6.203125 
Q 37.3125 6.203125 41.140625 7.25 
Q 44.96875 8.296875 48.78125 10.40625 
L 48.78125 2.09375 
Q 45.015625 0.34375 40.984375 -0.53125 
Q 36.96875 -1.421875 32.421875 -1.421875 
Q 20.0625 -1.421875 12.78125 6.34375 
Q 5.515625 14.109375 5.515625 27.296875 
Q 5.515625 40.671875 12.859375 48.328125 
Q 20.21875 56 33.015625 56 
Q 37.15625 56 41.109375 55.140625 
Q 45.0625 54.296875 48.78125 52.59375 
z
" id="DejaVuSans-99"/>
       <path d="M 54.890625 33.015625 
L 54.890625 0 
L 45.90625 0 
L 45.90625 32.71875 
Q 45.90625 40.484375 42.875 44.328125 
Q 39.84375 48.1875 33.796875 48.1875 
Q 26.515625 48.1875 22.3125 43.546875 
Q 18.109375 38.921875 18.109375 30.90625 
L 18.109375 0 
L 9.078125 0 
L 9.078125 75.984375 
L 18.109375 75.984375 
L 18.109375 46.1875 
Q 21.34375 51.125 25.703125 53.5625 
Q 30.078125 56 35.796875 56 
Q 45.21875 56 50.046875 50.171875 
Q 54.890625 44.34375 54.890625 33.015625 
z
" id="DejaVuSans-104"/>
       <path d="M 44.28125 53.078125 
L 44.28125 44.578125 
Q 40.484375 46.53125 36.375 47.5 
Q 32.28125 48.484375 27.875 48.484375 
Q 21.1875 48.484375 17.84375 46.4375 
Q 14.5 44.390625 14.5 40.28125 
Q 14.5 37.15625 16.890625 35.375 
Q 19.28125 33.59375 26.515625 31.984375 
L 29.59375 31.296875 
Q 39.15625 29.25 43.1875 25.515625 
Q 47.21875 21.78125 47.21875 15.09375 
Q 47.21875 7.46875 41.1875 3.015625 
Q 35.15625 -1.421875 24.609375 -1.421875 
Q 20.21875 -1.421875 15.453125 -0.5625 
Q 10.6875 0.296875 5.421875 2 
L 5.421875 11.28125 
Q 10.40625 8.6875 15.234375 7.390625 
Q 20.0625 6.109375 24.8125 6.109375 
Q 31.15625 6.109375 34.5625 8.28125 
Q 37.984375 10.453125 37.984375 14.40625 
Q 37.984375 18.0625 35.515625 20.015625 
Q 33.0625 21.96875 24.703125 23.78125 
L 21.578125 24.515625 
Q 13.234375 26.265625 9.515625 29.90625 
Q 5.8125 33.546875 5.8125 39.890625 
Q 5.8125 47.609375 11.28125 51.796875 
Q 16.75 56 26.8125 56 
Q 31.78125 56 36.171875 55.265625 
Q 40.578125 54.546875 44.28125 53.078125 
z
" id="DejaVuSans-115"/>
      </defs>
      <use xlink:href="#DejaVuSans-69"/>
      <use x="63.183594" xlink:href="#DejaVuSans-112"/>
      <use x="126.660156" xlink:href="#DejaVuSans-111"/>
      <use x="187.841797" xlink:href="#DejaVuSans-99"/>
      <use x="242.822266" xlink:href="#DejaVuSans-104"/>
      <use x="306.201172" xlink:href="#DejaVuSans-115"/>
     </g>
    </g>
   </g>
   <g id="matplotlib.axis_2">
    <g id="ytick_1">
     <g id="line2d_8">
      <defs>
       <path d="M 0 0 
L -3.5 0 
" id="m3c8bb91c45" style="stroke:#000000;stroke-width:0.8;"/>
      </defs>
      <g>
       <use style="stroke:#000000;stroke-width:0.8;" x="26.925" xlink:href="#m3c8bb91c45" y="558.248409"/>
      </g>
     </g>
     <g id="text_9">
      <!-- 0 -->
      <g transform="translate(13.5625 562.047628)scale(0.1 -0.1)">
       <use xlink:href="#DejaVuSans-48"/>
      </g>
     </g>
    </g>
    <g id="ytick_2">
     <g id="line2d_9">
      <g>
       <use style="stroke:#000000;stroke-width:0.8;" x="26.925" xlink:href="#m3c8bb91c45" y="439.171747"/>
      </g>
     </g>
     <g id="text_10">
      <!-- 20 -->
      <g transform="translate(7.2 442.970966)scale(0.1 -0.1)">
       <use xlink:href="#DejaVuSans-50"/>
       <use x="63.623047" xlink:href="#DejaVuSans-48"/>
      </g>
     </g>
    </g>
    <g id="ytick_3">
     <g id="line2d_10">
      <g>
       <use style="stroke:#000000;stroke-width:0.8;" x="26.925" xlink:href="#m3c8bb91c45" y="320.095086"/>
      </g>
     </g>
     <g id="text_11">
      <!-- 40 -->
      <g transform="translate(7.2 323.894305)scale(0.1 -0.1)">
       <use xlink:href="#DejaVuSans-52"/>
       <use x="63.623047" xlink:href="#DejaVuSans-48"/>
      </g>
     </g>
    </g>
    <g id="ytick_4">
     <g id="line2d_11">
      <g>
       <use style="stroke:#000000;stroke-width:0.8;" x="26.925" xlink:href="#m3c8bb91c45" y="201.018424"/>
      </g>
     </g>
     <g id="text_12">
      <!-- 60 -->
      <g transform="translate(7.2 204.817643)scale(0.1 -0.1)">
       <use xlink:href="#DejaVuSans-54"/>
       <use x="63.623047" xlink:href="#DejaVuSans-48"/>
      </g>
     </g>
    </g>
    <g id="ytick_5">
     <g id="line2d_12">
      <g>
       <use style="stroke:#000000;stroke-width:0.8;" x="26.925" xlink:href="#m3c8bb91c45" y="81.941763"/>
      </g>
     </g>
     <g id="text_13">
      <!-- 80 -->
      <g transform="translate(7.2 85.740981)scale(0.1 -0.1)">
       <defs>
        <path d="M 31.78125 34.625 
Q 24.75 34.625 20.71875 30.859375 
Q 16.703125 27.09375 16.703125 20.515625 
Q 16.703125 13.921875 20.71875 10.15625 
Q 24.75 6.390625 31.78125 6.390625 
Q 38.8125 6.390625 42.859375 10.171875 
Q 46.921875 13.96875 46.921875 20.515625 
Q 46.921875 27.09375 42.890625 30.859375 
Q 38.875 34.625 31.78125 34.625 
z
M 21.921875 38.8125 
Q 15.578125 40.375 12.03125 44.71875 
Q 8.5 49.078125 8.5 55.328125 
Q 8.5 64.0625 14.71875 69.140625 
Q 20.953125 74.21875 31.78125 74.21875 
Q 42.671875 74.21875 48.875 69.140625 
Q 55.078125 64.0625 55.078125 55.328125 
Q 55.078125 49.078125 51.53125 44.71875 
Q 48 40.375 41.703125 38.8125 
Q 48.828125 37.15625 52.796875 32.3125 
Q 56.78125 27.484375 56.78125 20.515625 
Q 56.78125 9.90625 50.3125 4.234375 
Q 43.84375 -1.421875 31.78125 -1.421875 
Q 19.734375 -1.421875 13.25 4.234375 
Q 6.78125 9.90625 6.78125 20.515625 
Q 6.78125 27.484375 10.78125 32.3125 
Q 14.796875 37.15625 21.921875 38.8125 
z
M 18.3125 54.390625 
Q 18.3125 48.734375 21.84375 45.5625 
Q 25.390625 42.390625 31.78125 42.390625 
Q 38.140625 42.390625 41.71875 45.5625 
Q 45.3125 48.734375 45.3125 54.390625 
Q 45.3125 60.0625 41.71875 63.234375 
Q 38.140625 66.40625 31.78125 66.40625 
Q 25.390625 66.40625 21.84375 63.234375 
Q 18.3125 60.0625 18.3125 54.390625 
z
" id="DejaVuSans-56"/>
       </defs>
       <use xlink:href="#DejaVuSans-56"/>
       <use x="63.623047" xlink:href="#DejaVuSans-48"/>
      </g>
     </g>
    </g>
   </g>
   <g id="line2d_13">
    <path clip-path="url(#p7d1d1f508d)" d="M 52.288636 459.047101 
L 53.134091 459.218027 
L 53.979545 460.03277 
L 54.825 461.260159 
L 55.670455 462.917318 
L 57.361364 466.996428 
L 59.052273 471.827772 
L 64.125 486.894019 
L 66.661364 493.561853 
L 70.043182 501.380454 
L 73.425 508.445384 
L 81.034091 525.149873 
L 84.415909 531.716331 
L 86.106818 534.503604 
L 91.179545 541.882246 
L 93.715909 545.318704 
L 96.252273 548.349459 
L 97.943182 550.032127 
L 99.634091 551.430949 
L 101.325 552.568976 
L 103.015909 553.462777 
L 105.552273 554.496234 
L 108.088636 555.266894 
L 110.625 555.830263 
L 114.006818 556.347119 
L 118.234091 556.750822 
L 124.152273 557.04747 
L 133.452273 557.249923 
L 152.052273 557.373224 
L 282.252273 557.68642 
L 559.561364 558.248409 
L 559.561364 558.248409 
" style="fill:none;stroke:#1f77b4;stroke-linecap:square;stroke-width:1.5;"/>
   </g>
   <g id="line2d_14">
    <path clip-path="url(#p7d1d1f508d)" d="M 52.288636 320.368468 
L 53.134091 320.802987 
L 53.979545 321.563628 
L 54.825 322.973273 
L 55.670455 325.059051 
L 57.361364 330.508738 
L 59.897727 339.040523 
L 62.434091 346.432774 
L 65.815909 354.715838 
L 67.506818 357.348665 
L 68.352273 358.627574 
L 69.197727 360.288786 
L 71.734091 364.180327 
L 73.425 366.315451 
L 75.115909 369.126262 
L 77.652273 372.156502 
L 80.188636 376.04225 
L 81.879545 378.321958 
L 86.106818 384.76213 
L 88.643182 387.947449 
L 89.488636 388.834144 
L 90.334091 389.432406 
L 92.870455 390.022827 
L 93.715909 390.150482 
L 95.406818 389.953547 
L 96.252273 390.055163 
L 99.634091 389.888236 
L 101.325 389.94888 
L 102.170455 389.902371 
L 103.015909 389.617966 
L 104.706818 388.369641 
L 106.397727 387.331187 
L 109.779545 384.641089 
L 111.470455 383.60437 
L 113.161364 382.920037 
L 116.543182 382.168445 
L 118.234091 381.937228 
L 120.770455 382.086221 
L 122.461364 382.115476 
L 124.997727 382.836972 
L 126.688636 383.19514 
L 129.225 384.338644 
L 130.915909 384.995258 
L 132.606818 386.001856 
L 133.452273 386.340352 
L 135.143182 386.870554 
L 137.679545 388.229332 
L 140.215909 389.362773 
L 141.906818 390.105277 
L 146.979545 391.816665 
L 152.052273 392.833377 
L 157.125 393.35488 
L 159.661364 393.483226 
L 191.788636 394.065335 
L 236.597727 394.387659 
L 338.052273 394.434599 
L 559.561364 394.099177 
L 559.561364 394.099177 
" style="fill:none;stroke:#ff7f0e;stroke-linecap:square;stroke-width:1.5;"/>
   </g>
   <g id="line2d_15">
    <path clip-path="url(#p7d1d1f508d)" d="M 52.288636 320.368468 
L 53.134091 321.915188 
L 53.979545 312.854754 
L 54.825 321.042525 
L 55.670455 327.783654 
L 56.515909 328.559399 
L 57.361364 325.791358 
L 58.206818 322.041921 
L 59.052273 320.748597 
L 59.897727 322.599556 
L 62.434091 334.159385 
L 63.279545 335.921032 
L 64.125 336.225797 
L 65.815909 335.827236 
L 66.661364 336.417272 
L 67.506818 338.162558 
L 70.888636 349.935169 
L 71.734091 351.891221 
L 72.579545 352.834477 
L 73.425 352.91897 
L 74.270455 352.635558 
L 75.115909 351.855195 
L 75.961364 350.755445 
L 76.806818 348.953251 
L 77.652273 346.566326 
L 78.497727 343.104696 
L 80.188636 331.956793 
L 81.034091 324.613828 
L 81.879545 315.223018 
L 84.415909 281.077157 
L 86.106818 255.974789 
L 86.952273 241.24284 
L 88.643182 216.828028 
L 90.334091 190.942797 
L 92.025 163.456984 
L 94.561364 128.601028 
L 96.252273 108.699534 
L 97.943182 92.497482 
L 98.788636 85.745163 
L 99.634091 79.965397 
L 100.479545 75.184873 
L 101.325 71.354588 
L 102.170455 68.475166 
L 103.015909 66.485166 
L 103.861364 65.200096 
L 104.706818 64.44678 
L 105.552273 64.066591 
L 106.397727 64.109969 
L 107.243182 64.507541 
L 108.088636 65.1746 
L 108.934091 66.212708 
L 109.779545 67.591057 
L 111.470455 71.128552 
L 113.161364 75.073704 
L 116.543182 84.051093 
L 119.079545 91.253564 
L 121.615909 98.958393 
L 125.843182 112.506742 
L 130.070455 126.138941 
L 134.297727 139.351901 
L 138.525 151.800598 
L 144.443182 168.563526 
L 148.670455 179.768785 
L 152.052273 188.007614 
L 155.434091 195.533979 
L 158.815909 202.377025 
L 161.352273 207.074231 
L 164.734091 212.806262 
L 167.270455 216.718304 
L 169.806818 220.237731 
L 172.343182 223.306198 
L 174.879545 225.995721 
L 177.415909 228.352892 
L 179.952273 230.394031 
L 183.334091 232.759664 
L 186.715909 234.813379 
L 190.943182 237.13025 
L 197.706818 240.519461 
L 212.079545 247.399279 
L 219.688636 250.861801 
L 225.606818 253.319623 
L 234.061364 256.616824 
L 246.743182 261.282365 
L 258.579545 265.455862 
L 272.106818 269.970333 
L 278.870455 271.992731 
L 291.552273 275.519531 
L 305.925 279.269613 
L 324.525 283.847314 
L 342.279545 287.976609 
L 360.879545 292.126744 
L 375.252273 295.124737 
L 407.379545 301.547423 
L 424.288636 304.654848 
L 447.115909 308.648111 
L 468.252273 312.110066 
L 491.925 315.708943 
L 516.443182 319.184575 
L 546.879545 323.194651 
L 559.561364 324.790598 
L 559.561364 324.790598 
" style="fill:none;stroke:#2ca02c;stroke-linecap:square;stroke-width:1.5;"/>
   </g>
   <g id="line2d_16">
    <path clip-path="url(#p7d1d1f508d)" d="M 52.288636 320.368468 
L 53.134091 321.543946 
L 53.979545 310.48406 
L 54.825 318.888869 
L 55.670455 326.06144 
L 56.515909 327.428535 
L 57.361364 324.755691 
L 58.206818 320.111542 
L 59.052273 316.187232 
L 59.897727 315.357106 
L 60.743182 317.427129 
L 62.434091 324.877107 
L 63.279545 327.488518 
L 64.125 328.298827 
L 64.970455 327.453495 
L 66.661364 323.657097 
L 67.506818 322.60418 
L 68.352273 322.888653 
L 69.197727 324.382193 
L 70.888636 328.560424 
L 71.734091 329.982773 
L 72.579545 330.409546 
L 73.425 330.021843 
L 75.115909 328.468897 
L 75.961364 328.240663 
L 76.806818 328.613107 
L 77.652273 329.526998 
L 79.343182 331.743411 
L 80.188636 332.400282 
L 81.034091 332.661891 
L 83.570455 332.678483 
L 84.415909 333.065359 
L 85.261364 334.064049 
L 86.106818 335.391581 
L 88.643182 340.470566 
L 89.488636 342.314848 
L 90.334091 344.676937 
L 91.179545 346.05536 
L 93.715909 348.974132 
L 94.561364 348.496231 
L 95.406818 346.085495 
L 96.252273 343.073578 
L 97.097727 337.944598 
L 97.943182 332.022262 
L 99.634091 322.508905 
L 102.170455 300.366821 
L 103.861364 281.641039 
L 105.552273 264.275257 
L 108.088636 240.620957 
L 108.934091 234.267029 
L 109.779545 229.879619 
L 110.625 226.627861 
L 111.470455 224.048419 
L 112.315909 222.867934 
L 113.161364 222.533152 
L 114.006818 223.001187 
L 114.852273 224.236473 
L 115.697727 226.324398 
L 117.388636 232.121434 
L 119.925 241.491221 
L 123.306818 255.085368 
L 125.843182 265.79208 
L 131.761364 291.664445 
L 133.452273 298.636782 
L 135.143182 304.848603 
L 136.834091 310.14025 
L 138.525 314.387684 
L 139.370455 316.075191 
L 141.061364 318.660762 
L 142.752273 320.755326 
L 144.443182 322.305874 
L 146.134091 323.363743 
L 146.979545 323.659703 
L 148.670455 323.830002 
L 152.052273 323.867546 
L 154.588636 324.171043 
L 156.279545 324.554988 
L 158.815909 325.495826 
L 160.506818 326.189339 
L 162.197727 327.28216 
L 164.734091 329.041857 
L 167.270455 330.480689 
L 170.652273 332.180283 
L 174.034091 333.749517 
L 177.415909 334.814777 
L 179.952273 335.540512 
L 189.252273 337.736719 
L 196.861364 339.73331 
L 207.852273 342.884284 
L 214.615909 344.598041 
L 222.225 346.334388 
L 235.752273 349.342494 
L 246.743182 351.590111 
L 258.579545 353.713925 
L 271.261364 355.769325 
L 283.097727 357.46965 
L 297.470455 359.293812 
L 313.534091 361.12709 
L 331.288636 362.933441 
L 349.888636 364.605347 
L 370.179545 366.197361 
L 392.161364 367.695136 
L 418.370455 369.239928 
L 445.425 370.592873 
L 475.015909 371.834149 
L 507.988636 372.975285 
L 544.343182 373.99377 
L 559.561364 374.357806 
L 559.561364 374.357806 
" style="fill:none;stroke:#d62728;stroke-linecap:square;stroke-width:1.5;"/>
   </g>
   <g id="line2d_17">
    <path clip-path="url(#p7d1d1f508d)" d="M 52.288636 320.368468 
L 53.134091 319.729914 
L 53.979545 328.081755 
L 55.670455 313.815641 
L 56.515909 314.635757 
L 58.206818 323.595543 
L 59.052273 326.220315 
L 59.897727 326.118002 
L 60.743182 323.912043 
L 61.588636 320.700555 
L 62.434091 317.947566 
L 63.279545 317.133322 
L 64.125 318.4292 
L 65.815909 323.741893 
L 66.661364 325.549899 
L 67.506818 325.905275 
L 68.352273 324.887162 
L 70.043182 321.260941 
L 70.888636 320.253672 
L 71.734091 320.500044 
L 72.579545 321.873929 
L 74.270455 325.539918 
L 75.115909 326.466668 
L 75.961364 326.322317 
L 76.806818 325.292039 
L 77.652273 323.91328 
L 78.497727 322.841966 
L 79.343182 322.575628 
L 80.188636 323.2435 
L 81.879545 325.975761 
L 82.725 326.920214 
L 83.570455 327.059444 
L 84.415909 326.43192 
L 86.106818 324.543462 
L 86.952273 324.257159 
L 87.797727 324.697281 
L 89.488636 326.683737 
L 90.334091 327.340839 
L 91.179545 327.391074 
L 92.025 326.911902 
L 92.870455 326.231419 
L 93.715909 325.753382 
L 94.561364 325.743051 
L 95.406818 326.205267 
L 97.097727 327.538687 
L 97.943182 327.83819 
L 98.788636 327.760981 
L 100.479545 327.181917 
L 101.325 327.13602 
L 102.170455 327.372611 
L 104.706818 328.665971 
L 106.397727 329.001922 
L 107.243182 329.144806 
L 108.088636 329.405088 
L 109.779545 330.328482 
L 111.470455 331.548347 
L 112.315909 332.000897 
L 116.543182 333.644013 
L 117.388636 334.207203 
L 118.234091 335.018491 
L 119.079545 336.470125 
L 119.925 337.685431 
L 120.770455 338.448017 
L 121.615909 338.506516 
L 123.306818 339.234859 
L 124.152273 339.853658 
L 124.997727 340.891378 
L 125.843182 342.445577 
L 127.534091 353.252552 
L 129.225 360.663272 
L 130.070455 362.485751 
L 130.915909 362.783727 
L 131.761364 360.890649 
L 132.606818 356.421687 
L 133.452273 353.948924 
L 134.297727 351.844526 
L 137.679545 339.076777 
L 139.370455 335.036836 
L 140.215909 333.316708 
L 141.061364 333.599692 
L 141.906818 334.070561 
L 142.752273 334.082697 
L 143.597727 337.215692 
L 144.443182 339.314582 
L 145.288636 340.920962 
L 146.134091 343.862011 
L 146.979545 345.863556 
L 147.825 347.467522 
L 148.670455 347.796217 
L 150.361364 347.250148 
L 152.052273 346.815755 
L 152.897727 346.211923 
L 153.743182 344.774911 
L 154.588636 342.494383 
L 155.434091 339.119536 
L 156.279545 334.447563 
L 159.661364 313.229488 
L 160.506818 309.070721 
L 161.352273 305.623571 
L 162.197727 302.905937 
L 163.043182 301.143464 
L 163.888636 300.176916 
L 164.734091 299.757602 
L 165.579545 299.908943 
L 166.425 300.656272 
L 168.115909 303.336047 
L 169.806818 306.300647 
L 170.652273 307.526297 
L 171.497727 308.360483 
L 172.343182 308.744557 
L 173.188636 308.858422 
L 174.034091 308.755315 
L 175.725 307.955781 
L 177.415909 306.921493 
L 180.797727 305.115291 
L 183.334091 303.422037 
L 184.179545 302.503097 
L 185.025 301.233264 
L 186.715909 297.878132 
L 189.252273 294.50096 
L 190.943182 292.007395 
L 191.788636 291.714458 
L 193.479545 290.477043 
L 194.325 289.613585 
L 195.170455 288.468947 
L 196.015909 287.776763 
L 196.861364 286.769356 
L 197.706818 284.905677 
L 198.552273 284.443249 
L 199.397727 284.35476 
L 200.243182 283.772534 
L 201.088636 282.80487 
L 202.779545 283.283874 
L 203.625 283.008149 
L 204.470455 282.466894 
L 205.315909 282.263532 
L 206.161364 282.443823 
L 207.006818 282.40603 
L 207.852273 281.958151 
L 208.697727 281.77144 
L 209.543182 282.355482 
L 210.388636 283.185477 
L 211.234091 283.717792 
L 212.079545 284.069662 
L 212.925 284.620335 
L 215.461364 287.391078 
L 217.152273 288.29555 
L 219.688636 290.077397 
L 221.379545 290.404688 
L 222.225 290.774299 
L 223.915909 291.720216 
L 225.606818 291.860617 
L 226.452273 292.243543 
L 228.143182 293.252766 
L 229.834091 293.725929 
L 231.525 294.703938 
L 232.370455 294.976603 
L 234.061364 295.164246 
L 234.906818 295.420284 
L 235.752273 295.494978 
L 236.597727 295.311546 
L 237.443182 295.308206 
L 238.288636 295.483873 
L 239.134091 295.53886 
L 240.825 295.343119 
L 241.670455 295.36124 
L 243.361364 295.102001 
L 246.743182 295.347543 
L 250.970455 295.821578 
L 251.815909 296.063626 
L 261.115909 297.087758 
L 262.806818 297.254978 
L 265.343182 297.607944 
L 269.570455 298.249373 
L 276.334091 299.028438 
L 285.634091 300.036316 
L 287.325 299.961528 
L 288.170455 299.792911 
L 291.552273 298.705909 
L 292.397727 298.641561 
L 293.243182 298.790846 
L 294.934091 299.398797 
L 298.315909 301.170867 
L 300.006818 301.78056 
L 301.697727 302.081759 
L 303.388636 302.118 
L 306.770455 301.690903 
L 310.997727 301.536303 
L 318.606818 302.114168 
L 322.834091 302.255995 
L 326.215909 302.497631 
L 329.597727 302.784226 
L 342.279545 303.334428 
L 343.970455 303.223952 
L 345.661364 303.138132 
L 349.888636 303.34934 
L 357.497727 304.082204 
L 363.415909 304.292199 
L 370.179545 304.707119 
L 385.397727 305.424684 
L 391.315909 305.734772 
L 437.815909 307.938264 
L 469.943182 309.312742 
L 473.325 309.431054 
L 479.243182 309.687851 
L 481.779545 309.73818 
L 486.852273 309.994619 
L 490.234091 310.076785 
L 492.770455 310.210801 
L 496.152273 310.311427 
L 498.688636 310.433536 
L 513.061364 310.969882 
L 522.361364 311.29558 
L 528.279545 311.512795 
L 535.888636 311.782824 
L 551.106818 312.337158 
L 559.561364 312.639245 
L 559.561364 312.639245 
" style="fill:none;stroke:#9467bd;stroke-linecap:square;stroke-width:1.5;"/>
   </g>
   <g id="line2d_18">
    <path clip-path="url(#p7d1d1f508d)" d="M 52.288636 320.368468 
L 53.134091 318.21473 
L 53.979545 326.508198 
L 55.670455 315.273711 
L 56.515909 315.875588 
L 58.206818 323.918398 
L 59.052273 325.787257 
L 59.897727 324.832194 
L 61.588636 319.142506 
L 62.434091 317.414983 
L 63.279545 318.183294 
L 64.125 320.79941 
L 64.970455 323.924511 
L 65.815909 326.146493 
L 66.661364 326.590335 
L 67.506818 325.263816 
L 69.197727 320.865734 
L 70.043182 319.839013 
L 70.888636 320.428066 
L 71.734091 322.317557 
L 72.579545 324.593717 
L 73.425 326.311515 
L 74.270455 326.831423 
L 75.115909 326.093037 
L 76.806818 323.025401 
L 77.652273 322.221624 
L 78.497727 322.507962 
L 79.343182 323.688653 
L 80.188636 325.184028 
L 81.034091 326.338795 
L 81.879545 326.712301 
L 82.725 326.259264 
L 84.415909 324.417049 
L 85.261364 324.012066 
L 86.106818 324.264555 
L 88.643182 326.317334 
L 89.488636 326.349351 
L 90.334091 325.980451 
L 91.179545 325.483092 
L 92.025 325.155499 
L 92.870455 325.160133 
L 95.406818 326.12849 
L 96.252273 326.175708 
L 98.788636 325.746214 
L 100.479545 325.983654 
L 102.170455 326.193877 
L 104.706818 326.020672 
L 106.397727 326.2416 
L 108.088636 326.401321 
L 110.625 326.218887 
L 112.315909 326.449814 
L 114.006818 326.698325 
L 117.388636 326.705765 
L 124.997727 328.224654 
L 130.070455 330.146356 
L 131.761364 331.170676 
L 133.452273 332.319676 
L 134.297727 332.787239 
L 135.143182 333.106698 
L 136.834091 333.512694 
L 137.679545 334.423654 
L 138.525 335.149806 
L 139.370455 335.211139 
L 140.215909 336.221096 
L 141.061364 337.873986 
L 141.906818 338.965551 
L 142.752273 339.866851 
L 143.597727 341.821787 
L 145.288636 344.945542 
L 146.134091 349.656776 
L 146.979545 355.892439 
L 148.670455 361.647718 
L 149.515909 361.710633 
L 150.361364 360.773467 
L 151.206818 359.662643 
L 152.052273 358.043875 
L 152.897727 357.627333 
L 153.743182 358.183222 
L 154.588636 358.005665 
L 155.434091 358.517365 
L 156.279545 359.517411 
L 157.125 359.117179 
L 157.970455 357.192753 
L 159.661364 354.549256 
L 160.506818 354.909182 
L 162.197727 357.015319 
L 163.043182 357.799078 
L 163.888636 359.335131 
L 164.734091 360.181353 
L 165.579545 361.617546 
L 166.425 362.100091 
L 167.270455 361.552195 
L 168.115909 359.354322 
L 168.961364 355.477779 
L 169.806818 349.443362 
L 170.652273 341.699284 
L 172.343182 321.742207 
L 173.188636 311.860805 
L 174.034091 304.394785 
L 174.879545 300.668721 
L 175.725 300.593141 
L 176.570455 303.323718 
L 179.106818 315.95766 
L 179.952273 318.70302 
L 180.797727 319.937971 
L 181.643182 319.773965 
L 182.488636 318.078694 
L 185.025 310.824785 
L 185.870455 309.22436 
L 186.715909 308.617982 
L 187.561364 308.825839 
L 190.097727 310.772752 
L 190.943182 311.010449 
L 191.788636 310.91955 
L 192.634091 310.3699 
L 193.479545 309.264155 
L 195.170455 305.767498 
L 196.015909 304.469005 
L 196.861364 303.716493 
L 197.706818 303.543861 
L 200.243182 306.755107 
L 201.088636 308.674773 
L 201.934091 310.092631 
L 203.625 310.326112 
L 204.470455 310.966905 
L 205.315909 309.981835 
L 206.161364 308.443406 
L 207.006818 308.592901 
L 207.852273 306.926187 
L 208.697727 308.087164 
L 209.543182 308.242105 
L 210.388636 308.599343 
L 211.234091 311.477464 
L 212.079545 312.984808 
L 212.925 314.773957 
L 213.770455 317.629374 
L 214.615909 319.869393 
L 215.461364 321.072424 
L 216.306818 322.704162 
L 217.997727 327.009705 
L 220.534091 331.524466 
L 222.225 334.954011 
L 223.915909 337.155601 
L 225.606818 339.392158 
L 229.834091 345.994837 
L 231.525 349.067175 
L 232.370455 350.388135 
L 235.752273 354.67414 
L 236.597727 355.569114 
L 237.443182 356.170154 
L 239.979545 357.431464 
L 241.670455 358.119549 
L 243.361364 358.368307 
L 247.588636 358.716629 
L 250.125 358.683452 
L 259.425 359.476752 
L 268.725 360.625869 
L 284.788636 361.953064 
L 291.552273 362.207743 
L 300.852273 362.527948 
L 308.461364 362.79181 
L 334.670455 363.457397 
L 348.197727 363.734926 
L 361.725 364.103321 
L 403.152273 364.662792 
L 458.106818 365.189486 
L 521.515909 365.603293 
L 559.561364 365.788679 
L 559.561364 365.788679 
" style="fill:none;stroke:#8c564b;stroke-linecap:square;stroke-width:1.5;"/>
   </g>
   <g id="line2d_19">
    <path clip-path="url(#p7d1d1f508d)" d="M 52.288636 320.368468 
L 53.134091 317.344799 
L 53.979545 325.616886 
L 54.825 321.384019 
L 55.670455 316.05343 
L 56.515909 316.248968 
L 58.206818 323.715624 
L 59.052273 325.424234 
L 59.897727 324.404874 
L 61.588636 319.172298 
L 62.434091 318.088962 
L 63.279545 319.385554 
L 64.970455 325.180397 
L 65.815909 326.883757 
L 66.661364 326.663027 
L 67.506818 324.832927 
L 68.352273 322.377318 
L 69.197727 320.531938 
L 70.043182 320.213275 
L 70.888636 321.531127 
L 72.579545 325.925572 
L 73.425 327.013283 
L 74.270455 326.726194 
L 75.115909 325.388539 
L 75.961364 323.74318 
L 76.806818 322.627573 
L 77.652273 322.567379 
L 78.497727 323.494507 
L 79.343182 324.8683 
L 80.188636 325.978988 
L 81.034091 326.385853 
L 81.879545 326.034852 
L 83.570455 324.56067 
L 84.415909 324.288298 
L 85.261364 324.520514 
L 86.952273 325.523498 
L 87.797727 325.749632 
L 88.643182 325.677724 
L 90.334091 325.279886 
L 91.179545 325.285604 
L 93.715909 325.668169 
L 96.252273 325.42428 
L 97.943182 325.710629 
L 98.788636 325.89094 
L 99.634091 325.944807 
L 103.015909 325.582041 
L 106.397727 326.057732 
L 108.934091 325.839937 
L 110.625 325.973857 
L 113.161364 326.197216 
L 117.388636 326.292566 
L 124.152273 327.086853 
L 129.225 328.44995 
L 135.143182 330.745298 
L 135.988636 331.33406 
L 138.525 332.71593 
L 139.370455 333.266741 
L 141.061364 334.073538 
L 141.906818 334.704644 
L 143.597727 336.47396 
L 144.443182 336.945406 
L 145.288636 337.107034 
L 146.134091 337.860594 
L 146.979545 341.497873 
L 147.825 344.536414 
L 150.361364 348.732711 
L 151.206818 349.430458 
L 152.052273 350.933788 
L 152.897727 356.696232 
L 153.743182 363.388685 
L 154.588636 367.454603 
L 155.434091 368.191464 
L 156.279545 366.715749 
L 157.125 362.658879 
L 158.815909 352.864321 
L 159.661364 350.77915 
L 160.506818 351.802158 
L 161.352273 354.208638 
L 163.888636 365.912812 
L 164.734091 368.311479 
L 165.579545 370.171324 
L 166.425 370.339869 
L 167.270455 370.235968 
L 168.115909 369.031884 
L 168.961364 368.794574 
L 169.806818 368.344686 
L 170.652273 369.435528 
L 171.497727 368.738982 
L 172.343182 365.383021 
L 173.188636 359.640794 
L 174.034091 351.642131 
L 174.879545 341.232191 
L 176.570455 317.192275 
L 177.415909 308.213232 
L 178.261364 303.58569 
L 179.106818 303.245486 
L 179.952273 305.866036 
L 182.488636 317.714068 
L 183.334091 320.025383 
L 184.179545 320.841582 
L 185.025 320.250601 
L 185.870455 318.774102 
L 187.561364 315.044917 
L 188.406818 313.807027 
L 189.252273 313.30933 
L 190.097727 313.536486 
L 190.943182 314.266449 
L 192.634091 316.259957 
L 193.479545 317.024594 
L 194.325 317.374057 
L 195.170455 317.236312 
L 196.015909 316.77366 
L 198.552273 314.495438 
L 199.397727 314.201809 
L 200.243182 314.326873 
L 201.088636 314.816884 
L 203.625 317.078566 
L 204.470455 317.393575 
L 206.161364 317.225196 
L 207.006818 316.605134 
L 207.852273 315.375941 
L 208.697727 314.392198 
L 209.543182 313.725339 
L 210.388636 313.392623 
L 211.234091 313.281645 
L 212.079545 313.450817 
L 212.925 314.100093 
L 214.615909 315.980734 
L 215.461364 316.519353 
L 217.152273 316.98679 
L 217.997727 317.091506 
L 218.843182 317.069766 
L 220.534091 316.785431 
L 225.606818 316.550943 
L 226.452273 316.587214 
L 228.143182 316.322668 
L 228.988636 316.128769 
L 229.834091 315.603034 
L 230.679545 314.803751 
L 231.525 314.236951 
L 232.370455 313.990288 
L 234.906818 313.946936 
L 237.443182 314.802145 
L 239.134091 314.238623 
L 239.979545 313.964546 
L 240.825 314.046852 
L 241.670455 314.358425 
L 242.515909 314.927795 
L 244.206818 317.062583 
L 247.588636 319.86687 
L 248.434091 320.23073 
L 249.279545 320.372959 
L 250.125 320.628605 
L 251.815909 321.735646 
L 256.043182 326.7138 
L 256.888636 327.855376 
L 259.425 329.843603 
L 262.806818 329.559619 
L 263.652273 329.450859 
L 266.188636 330.068821 
L 267.034091 329.94177 
L 269.570455 330.790906 
L 271.261364 331.179327 
L 272.106818 331.236296 
L 274.643182 331.127044 
L 276.334091 331.181881 
L 277.179545 331.486982 
L 278.870455 332.2468 
L 281.406818 332.844909 
L 283.097727 332.873249 
L 284.788636 332.840516 
L 287.325 333.027567 
L 289.861364 333.498675 
L 293.243182 333.785943 
L 300.852273 333.856055 
L 303.388636 333.778515 
L 307.615909 333.289069 
L 310.997727 332.74904 
L 311.843182 332.56068 
L 312.688636 332.525177 
L 313.534091 332.310103 
L 314.379545 332.34676 
L 318.606818 331.744071 
L 319.452273 331.734534 
L 321.143182 331.468759 
L 321.988636 331.427827 
L 323.679545 331.083718 
L 326.215909 330.856747 
L 327.906818 330.856074 
L 328.752273 331.08709 
L 329.597727 331.09057 
L 331.288636 331.280895 
L 332.134091 331.215571 
L 332.979545 331.30916 
L 341.434091 330.84525 
L 343.970455 330.821584 
L 384.552273 330.713562 
L 442.043182 330.203941 
L 472.479545 329.938353 
L 559.561364 329.461869 
L 559.561364 329.461869 
" style="fill:none;stroke:#e377c2;stroke-linecap:square;stroke-width:1.5;"/>
   </g>
   <g id="line2d_20">
    <path clip-path="url(#p7d1d1f508d)" d="M 52.288636 320.368468 
L 53.134091 316.478964 
L 53.979545 324.781618 
L 54.825 322.405823 
L 55.670455 317.755586 
L 56.515909 316.901547 
L 57.361364 319.522196 
L 58.206818 322.984018 
L 59.052273 324.888997 
L 59.897727 324.366478 
L 61.588636 319.979199 
L 62.434091 318.99564 
L 63.279545 320.147126 
L 64.970455 325.48031 
L 65.815909 327.005527 
L 66.661364 326.668637 
L 67.506818 324.762258 
L 68.352273 322.357249 
L 69.197727 320.691062 
L 70.043182 320.576519 
L 70.888636 322.039773 
L 72.579545 326.263717 
L 73.425 327.053802 
L 74.270455 326.457695 
L 75.961364 323.426628 
L 76.806818 322.603568 
L 77.652273 322.850132 
L 78.497727 323.91273 
L 79.343182 325.160198 
L 80.188636 325.952087 
L 81.034091 326.001155 
L 81.879545 325.471837 
L 82.725 324.793894 
L 83.570455 324.387988 
L 84.415909 324.440757 
L 86.106818 325.215752 
L 86.952273 325.39766 
L 90.334091 325.170765 
L 92.025 325.591461 
L 92.870455 325.569464 
L 95.406818 325.048326 
L 96.252273 325.201895 
L 97.943182 325.744758 
L 98.788636 325.804501 
L 102.170455 325.329934 
L 104.706818 325.731702 
L 112.315909 325.764459 
L 114.006818 325.912839 
L 118.234091 325.895645 
L 119.925 326.111364 
L 124.152273 326.206636 
L 126.688636 326.468521 
L 129.225 326.742508 
L 132.606818 327.383728 
L 136.834091 328.609168 
L 141.906818 330.365791 
L 143.597727 331.389644 
L 147.825 333.948261 
L 149.515909 335.871714 
L 150.361364 336.601451 
L 151.206818 336.704594 
L 152.052273 336.921824 
L 152.897727 337.935319 
L 153.743182 341.230044 
L 154.588636 347.405481 
L 155.434091 348.936728 
L 156.279545 347.043753 
L 157.125 343.843672 
L 157.970455 342.072305 
L 158.815909 345.568028 
L 159.661364 352.0175 
L 160.506818 356.723761 
L 161.352273 358.434403 
L 162.197727 358.565274 
L 163.043182 357.646106 
L 163.888636 357.25783 
L 164.734091 357.967427 
L 165.579545 359.873121 
L 168.115909 373.866882 
L 168.961364 375.92486 
L 169.806818 376.127952 
L 170.652273 373.385567 
L 171.497727 367.392128 
L 172.343182 357.970841 
L 174.879545 322.666215 
L 175.725 315.553934 
L 176.570455 313.003611 
L 177.415909 314.386545 
L 179.952273 325.706909 
L 180.797727 327.591951 
L 181.643182 327.742786 
L 182.488636 326.877538 
L 183.334091 325.204963 
L 184.179545 322.804694 
L 185.025 322.409066 
L 185.870455 322.471121 
L 186.715909 323.602122 
L 188.406818 329.776214 
L 189.252273 332.493392 
L 190.097727 336.092462 
L 190.943182 339.088981 
L 191.788636 340.889915 
L 193.479545 343.082738 
L 194.325 343.73614 
L 195.170455 343.907363 
L 196.861364 343.441576 
L 198.552273 343.994562 
L 200.243182 343.96189 
L 201.934091 344.468169 
L 203.625 344.624598 
L 205.315909 344.507404 
L 207.852273 344.163354 
L 209.543182 344.200961 
L 210.388636 344.3811 
L 212.079545 345.06985 
L 214.615909 346.210233 
L 216.306818 346.706773 
L 217.997727 346.894635 
L 221.379545 346.981913 
L 223.915909 347.363524 
L 229.834091 348.560009 
L 232.370455 348.620508 
L 236.597727 348.720539 
L 242.515909 349.059064 
L 245.897727 349.012889 
L 250.970455 349.041894 
L 258.579545 349.044691 
L 275.488636 348.862847 
L 291.552273 348.409156 
L 320.297727 347.644702 
L 355.806818 347.059175 
L 386.243182 346.785098 
L 410.761364 346.624303 
L 455.570455 346.434996 
L 512.215909 346.214212 
L 559.561364 346.050087 
L 559.561364 346.050087 
" style="fill:none;stroke:#7f7f7f;stroke-linecap:square;stroke-width:1.5;"/>
   </g>
   <g id="line2d_21">
    <path clip-path="url(#p7d1d1f508d)" d="M 52.288636 320.368468 
L 53.134091 315.171844 
L 53.979545 323.511217 
L 54.825 323.61242 
L 55.670455 319.933085 
L 56.515909 317.606086 
L 57.361364 318.424802 
L 58.206818 321.019211 
L 59.052273 323.243298 
L 59.897727 323.816398 
L 60.743182 322.80973 
L 61.588636 321.16143 
L 62.434091 320.111897 
L 63.279545 320.48594 
L 64.125 322.19425 
L 64.970455 324.352477 
L 65.815909 325.89349 
L 66.661364 326.061166 
L 67.506818 324.86394 
L 68.352273 322.981258 
L 69.197727 321.410722 
L 70.043182 320.930969 
L 70.888636 321.818917 
L 72.579545 325.459273 
L 73.425 326.484543 
L 74.270455 326.321445 
L 75.115909 325.217807 
L 75.961364 323.822974 
L 76.806818 322.836231 
L 77.652273 322.728997 
L 78.497727 323.472322 
L 79.343182 324.611888 
L 80.188636 325.543837 
L 81.034091 325.874879 
L 81.879545 325.598755 
L 83.570455 324.470392 
L 84.415909 324.277212 
L 85.261364 324.458667 
L 86.952273 325.132464 
L 87.797727 325.242171 
L 90.334091 325.077568 
L 92.870455 325.297655 
L 95.406818 325.012097 
L 97.097727 325.259375 
L 98.788636 325.53777 
L 100.479545 325.342601 
L 102.170455 325.158039 
L 103.861364 325.339777 
L 105.552273 325.521182 
L 108.088636 325.41387 
L 109.779545 325.336224 
L 111.470455 325.442089 
L 113.161364 325.605821 
L 114.852273 325.533526 
L 116.543182 325.412013 
L 120.770455 325.645819 
L 122.461364 325.566898 
L 133.452273 326.156482 
L 140.215909 327.141326 
L 143.597727 327.998573 
L 149.515909 329.981162 
L 151.206818 330.788844 
L 152.897727 331.38621 
L 154.588636 332.118236 
L 155.434091 332.602751 
L 157.125 334.409945 
L 157.970455 335.55671 
L 158.815909 335.998489 
L 160.506818 337.932546 
L 161.352273 338.575714 
L 162.197727 339.734857 
L 163.888636 343.826831 
L 164.734091 344.874368 
L 165.579545 344.975889 
L 166.425 347.284033 
L 167.270455 351.220307 
L 168.115909 351.574621 
L 168.961364 350.026671 
L 169.806818 346.565125 
L 170.652273 343.597238 
L 171.497727 342.584007 
L 172.343182 344.261748 
L 173.188636 347.570511 
L 174.034091 350.342971 
L 174.879545 352.398272 
L 175.725 353.212444 
L 177.415909 354.399803 
L 178.261364 355.30956 
L 179.106818 357.25234 
L 181.643182 365.241465 
L 182.488636 366.512507 
L 183.334091 366.881229 
L 184.179545 366.724929 
L 185.870455 365.887983 
L 186.715909 365.664398 
L 188.406818 365.443642 
L 189.252273 365.29286 
L 190.097727 364.923607 
L 190.943182 364.2955 
L 192.634091 362.811175 
L 193.479545 362.302538 
L 197.706818 360.669807 
L 199.397727 359.639393 
L 200.243182 359.353763 
L 201.088636 359.306255 
L 202.779545 359.639635 
L 204.470455 359.909038 
L 206.161364 359.79374 
L 210.388636 359.150499 
L 212.079545 359.076702 
L 214.615909 359.268817 
L 216.306818 359.401959 
L 217.997727 359.350612 
L 220.534091 359.179279 
L 223.915909 359.309739 
L 232.370455 359.374956 
L 234.906818 359.401331 
L 239.134091 359.547829 
L 242.515909 359.538106 
L 250.125 359.739366 
L 260.270455 359.933682 
L 270.415909 360.120308 
L 321.143182 360.973583 
L 373.561364 361.647318 
L 448.806818 362.39279 
L 559.561364 363.177557 
L 559.561364 363.177557 
" style="fill:none;stroke:#bcbd22;stroke-linecap:square;stroke-width:1.5;"/>
   </g>
   <g id="patch_4">
    <path d="M 26.925 582.9575 
L 26.925 39.3575 
" style="fill:none;stroke:#000000;stroke-linecap:square;stroke-linejoin:miter;stroke-width:0.8;"/>
   </g>
   <g id="patch_5">
    <path d="M 584.925 582.9575 
L 584.925 39.3575 
" style="fill:none;stroke:#000000;stroke-linecap:square;stroke-linejoin:miter;stroke-width:0.8;"/>
   </g>
   <g id="patch_6">
    <path d="M 26.925 582.9575 
L 584.925 582.9575 
" style="fill:none;stroke:#000000;stroke-linecap:square;stroke-linejoin:miter;stroke-width:0.8;"/>
   </g>
   <g id="patch_7">
    <path d="M 26.925 39.3575 
L 584.925 39.3575 
" style="fill:none;stroke:#000000;stroke-linecap:square;stroke-linejoin:miter;stroke-width:0.8;"/>
   </g>
   <g id="text_14">
    <!-- Class separation -->
    <g transform="translate(261.115909 577.5215)scale(0.1 -0.1)">
     <defs>
      <path d="M 64.40625 67.28125 
L 64.40625 56.890625 
Q 59.421875 61.53125 53.78125 63.8125 
Q 48.140625 66.109375 41.796875 66.109375 
Q 29.296875 66.109375 22.65625 58.46875 
Q 16.015625 50.828125 16.015625 36.375 
Q 16.015625 21.96875 22.65625 14.328125 
Q 29.296875 6.6875 41.796875 6.6875 
Q 48.140625 6.6875 53.78125 8.984375 
Q 59.421875 11.28125 64.40625 15.921875 
L 64.40625 5.609375 
Q 59.234375 2.09375 53.4375 0.328125 
Q 47.65625 -1.421875 41.21875 -1.421875 
Q 24.65625 -1.421875 15.125 8.703125 
Q 5.609375 18.84375 5.609375 36.375 
Q 5.609375 53.953125 15.125 64.078125 
Q 24.65625 74.21875 41.21875 74.21875 
Q 47.75 74.21875 53.53125 72.484375 
Q 59.328125 70.75 64.40625 67.28125 
z
" id="DejaVuSans-67"/>
      <path d="M 9.421875 75.984375 
L 18.40625 75.984375 
L 18.40625 0 
L 9.421875 0 
z
" id="DejaVuSans-108"/>
      <path d="M 34.28125 27.484375 
Q 23.390625 27.484375 19.1875 25 
Q 14.984375 22.515625 14.984375 16.5 
Q 14.984375 11.71875 18.140625 8.90625 
Q 21.296875 6.109375 26.703125 6.109375 
Q 34.1875 6.109375 38.703125 11.40625 
Q 43.21875 16.703125 43.21875 25.484375 
L 43.21875 27.484375 
z
M 52.203125 31.203125 
L 52.203125 0 
L 43.21875 0 
L 43.21875 8.296875 
Q 40.140625 3.328125 35.546875 0.953125 
Q 30.953125 -1.421875 24.3125 -1.421875 
Q 15.921875 -1.421875 10.953125 3.296875 
Q 6 8.015625 6 15.921875 
Q 6 25.140625 12.171875 29.828125 
Q 18.359375 34.515625 30.609375 34.515625 
L 43.21875 34.515625 
L 43.21875 35.40625 
Q 43.21875 41.609375 39.140625 45 
Q 35.0625 48.390625 27.6875 48.390625 
Q 23 48.390625 18.546875 47.265625 
Q 14.109375 46.140625 10.015625 43.890625 
L 10.015625 52.203125 
Q 14.9375 54.109375 19.578125 55.046875 
Q 24.21875 56 28.609375 56 
Q 40.484375 56 46.34375 49.84375 
Q 52.203125 43.703125 52.203125 31.203125 
z
" id="DejaVuSans-97"/>
      <path id="DejaVuSans-32"/>
      <path d="M 56.203125 29.59375 
L 56.203125 25.203125 
L 14.890625 25.203125 
Q 15.484375 15.921875 20.484375 11.0625 
Q 25.484375 6.203125 34.421875 6.203125 
Q 39.59375 6.203125 44.453125 7.46875 
Q 49.3125 8.734375 54.109375 11.28125 
L 54.109375 2.78125 
Q 49.265625 0.734375 44.1875 -0.34375 
Q 39.109375 -1.421875 33.890625 -1.421875 
Q 20.796875 -1.421875 13.15625 6.1875 
Q 5.515625 13.8125 5.515625 26.8125 
Q 5.515625 40.234375 12.765625 48.109375 
Q 20.015625 56 32.328125 56 
Q 43.359375 56 49.78125 48.890625 
Q 56.203125 41.796875 56.203125 29.59375 
z
M 47.21875 32.234375 
Q 47.125 39.59375 43.09375 43.984375 
Q 39.0625 48.390625 32.421875 48.390625 
Q 24.90625 48.390625 20.390625 44.140625 
Q 15.875 39.890625 15.1875 32.171875 
z
" id="DejaVuSans-101"/>
      <path d="M 41.109375 46.296875 
Q 39.59375 47.171875 37.8125 47.578125 
Q 36.03125 48 33.890625 48 
Q 26.265625 48 22.1875 43.046875 
Q 18.109375 38.09375 18.109375 28.8125 
L 18.109375 0 
L 9.078125 0 
L 9.078125 54.6875 
L 18.109375 54.6875 
L 18.109375 46.1875 
Q 20.953125 51.171875 25.484375 53.578125 
Q 30.03125 56 36.53125 56 
Q 37.453125 56 38.578125 55.875 
Q 39.703125 55.765625 41.0625 55.515625 
z
" id="DejaVuSans-114"/>
      <path d="M 18.3125 70.21875 
L 18.3125 54.6875 
L 36.8125 54.6875 
L 36.8125 47.703125 
L 18.3125 47.703125 
L 18.3125 18.015625 
Q 18.3125 11.328125 20.140625 9.421875 
Q 21.96875 7.515625 27.59375 7.515625 
L 36.8125 7.515625 
L 36.8125 0 
L 27.59375 0 
Q 17.1875 0 13.234375 3.875 
Q 9.28125 7.765625 9.28125 18.015625 
L 9.28125 47.703125 
L 2.6875 47.703125 
L 2.6875 54.6875 
L 9.28125 54.6875 
L 9.28125 70.21875 
z
" id="DejaVuSans-116"/>
      <path d="M 9.421875 54.6875 
L 18.40625 54.6875 
L 18.40625 0 
L 9.421875 0 
z
M 9.421875 75.984375 
L 18.40625 75.984375 
L 18.40625 64.59375 
L 9.421875 64.59375 
z
" id="DejaVuSans-105"/>
      <path d="M 54.890625 33.015625 
L 54.890625 0 
L 45.90625 0 
L 45.90625 32.71875 
Q 45.90625 40.484375 42.875 44.328125 
Q 39.84375 48.1875 33.796875 48.1875 
Q 26.515625 48.1875 22.3125 43.546875 
Q 18.109375 38.921875 18.109375 30.90625 
L 18.109375 0 
L 9.078125 0 
L 9.078125 54.6875 
L 18.109375 54.6875 
L 18.109375 46.1875 
Q 21.34375 51.125 25.703125 53.5625 
Q 30.078125 56 35.796875 56 
Q 45.21875 56 50.046875 50.171875 
Q 54.890625 44.34375 54.890625 33.015625 
z
" id="DejaVuSans-110"/>
     </defs>
     <use xlink:href="#DejaVuSans-67"/>
     <use x="69.824219" xlink:href="#DejaVuSans-108"/>
     <use x="97.607422" xlink:href="#DejaVuSans-97"/>
     <use x="158.886719" xlink:href="#DejaVuSans-115"/>
     <use x="210.986328" xlink:href="#DejaVuSans-115"/>
     <use x="263.085938" xlink:href="#DejaVuSans-32"/>
     <use x="294.873047" xlink:href="#DejaVuSans-115"/>
     <use x="346.972656" xlink:href="#DejaVuSans-101"/>
     <use x="408.496094" xlink:href="#DejaVuSans-112"/>
     <use x="471.972656" xlink:href="#DejaVuSans-97"/>
     <use x="533.251953" xlink:href="#DejaVuSans-114"/>
     <use x="574.365234" xlink:href="#DejaVuSans-97"/>
     <use x="635.644531" xlink:href="#DejaVuSans-116"/>
     <use x="674.853516" xlink:href="#DejaVuSans-105"/>
     <use x="702.636719" xlink:href="#DejaVuSans-111"/>
     <use x="763.818359" xlink:href="#DejaVuSans-110"/>
    </g>
   </g>
   <g id="text_15">
    <!-- Distance from final baseline solution -->
    <g transform="translate(159.74125 19.3575)scale(0.16 -0.16)">
     <defs>
      <path d="M 19.671875 64.796875 
L 19.671875 8.109375 
L 31.59375 8.109375 
Q 46.6875 8.109375 53.6875 14.9375 
Q 60.6875 21.78125 60.6875 36.53125 
Q 60.6875 51.171875 53.6875 57.984375 
Q 46.6875 64.796875 31.59375 64.796875 
z
M 9.8125 72.90625 
L 30.078125 72.90625 
Q 51.265625 72.90625 61.171875 64.09375 
Q 71.09375 55.28125 71.09375 36.53125 
Q 71.09375 17.671875 61.125 8.828125 
Q 51.171875 0 30.078125 0 
L 9.8125 0 
z
" id="DejaVuSans-68"/>
      <path d="M 37.109375 75.984375 
L 37.109375 68.5 
L 28.515625 68.5 
Q 23.6875 68.5 21.796875 66.546875 
Q 19.921875 64.59375 19.921875 59.515625 
L 19.921875 54.6875 
L 34.71875 54.6875 
L 34.71875 47.703125 
L 19.921875 47.703125 
L 19.921875 0 
L 10.890625 0 
L 10.890625 47.703125 
L 2.296875 47.703125 
L 2.296875 54.6875 
L 10.890625 54.6875 
L 10.890625 58.5 
Q 10.890625 67.625 15.140625 71.796875 
Q 19.390625 75.984375 28.609375 75.984375 
z
" id="DejaVuSans-102"/>
      <path d="M 52 44.1875 
Q 55.375 50.25 60.0625 53.125 
Q 64.75 56 71.09375 56 
Q 79.640625 56 84.28125 50.015625 
Q 88.921875 44.046875 88.921875 33.015625 
L 88.921875 0 
L 79.890625 0 
L 79.890625 32.71875 
Q 79.890625 40.578125 77.09375 44.375 
Q 74.3125 48.1875 68.609375 48.1875 
Q 61.625 48.1875 57.5625 43.546875 
Q 53.515625 38.921875 53.515625 30.90625 
L 53.515625 0 
L 44.484375 0 
L 44.484375 32.71875 
Q 44.484375 40.625 41.703125 44.40625 
Q 38.921875 48.1875 33.109375 48.1875 
Q 26.21875 48.1875 22.15625 43.53125 
Q 18.109375 38.875 18.109375 30.90625 
L 18.109375 0 
L 9.078125 0 
L 9.078125 54.6875 
L 18.109375 54.6875 
L 18.109375 46.1875 
Q 21.1875 51.21875 25.484375 53.609375 
Q 29.78125 56 35.6875 56 
Q 41.65625 56 45.828125 52.96875 
Q 50 49.953125 52 44.1875 
z
" id="DejaVuSans-109"/>
      <path d="M 48.6875 27.296875 
Q 48.6875 37.203125 44.609375 42.84375 
Q 40.53125 48.484375 33.40625 48.484375 
Q 26.265625 48.484375 22.1875 42.84375 
Q 18.109375 37.203125 18.109375 27.296875 
Q 18.109375 17.390625 22.1875 11.75 
Q 26.265625 6.109375 33.40625 6.109375 
Q 40.53125 6.109375 44.609375 11.75 
Q 48.6875 17.390625 48.6875 27.296875 
z
M 18.109375 46.390625 
Q 20.953125 51.265625 25.265625 53.625 
Q 29.59375 56 35.59375 56 
Q 45.5625 56 51.78125 48.09375 
Q 58.015625 40.1875 58.015625 27.296875 
Q 58.015625 14.40625 51.78125 6.484375 
Q 45.5625 -1.421875 35.59375 -1.421875 
Q 29.59375 -1.421875 25.265625 0.953125 
Q 20.953125 3.328125 18.109375 8.203125 
L 18.109375 0 
L 9.078125 0 
L 9.078125 75.984375 
L 18.109375 75.984375 
z
" id="DejaVuSans-98"/>
      <path d="M 8.5 21.578125 
L 8.5 54.6875 
L 17.484375 54.6875 
L 17.484375 21.921875 
Q 17.484375 14.15625 20.5 10.265625 
Q 23.53125 6.390625 29.59375 6.390625 
Q 36.859375 6.390625 41.078125 11.03125 
Q 45.3125 15.671875 45.3125 23.6875 
L 45.3125 54.6875 
L 54.296875 54.6875 
L 54.296875 0 
L 45.3125 0 
L 45.3125 8.40625 
Q 42.046875 3.421875 37.71875 1 
Q 33.40625 -1.421875 27.6875 -1.421875 
Q 18.265625 -1.421875 13.375 4.4375 
Q 8.5 10.296875 8.5 21.578125 
z
M 31.109375 56 
z
" id="DejaVuSans-117"/>
     </defs>
     <use xlink:href="#DejaVuSans-68"/>
     <use x="77.001953" xlink:href="#DejaVuSans-105"/>
     <use x="104.785156" xlink:href="#DejaVuSans-115"/>
     <use x="156.884766" xlink:href="#DejaVuSans-116"/>
     <use x="196.09375" xlink:href="#DejaVuSans-97"/>
     <use x="257.373047" xlink:href="#DejaVuSans-110"/>
     <use x="320.751953" xlink:href="#DejaVuSans-99"/>
     <use x="375.732422" xlink:href="#DejaVuSans-101"/>
     <use x="437.255859" xlink:href="#DejaVuSans-32"/>
     <use x="469.042969" xlink:href="#DejaVuSans-102"/>
     <use x="504.248047" xlink:href="#DejaVuSans-114"/>
     <use x="543.111328" xlink:href="#DejaVuSans-111"/>
     <use x="604.292969" xlink:href="#DejaVuSans-109"/>
     <use x="701.705078" xlink:href="#DejaVuSans-32"/>
     <use x="733.492188" xlink:href="#DejaVuSans-102"/>
     <use x="768.697266" xlink:href="#DejaVuSans-105"/>
     <use x="796.480469" xlink:href="#DejaVuSans-110"/>
     <use x="859.859375" xlink:href="#DejaVuSans-97"/>
     <use x="921.138672" xlink:href="#DejaVuSans-108"/>
     <use x="948.921875" xlink:href="#DejaVuSans-32"/>
     <use x="980.708984" xlink:href="#DejaVuSans-98"/>
     <use x="1044.185547" xlink:href="#DejaVuSans-97"/>
     <use x="1105.464844" xlink:href="#DejaVuSans-115"/>
     <use x="1157.564453" xlink:href="#DejaVuSans-101"/>
     <use x="1219.087891" xlink:href="#DejaVuSans-108"/>
     <use x="1246.871094" xlink:href="#DejaVuSans-105"/>
     <use x="1274.654297" xlink:href="#DejaVuSans-110"/>
     <use x="1338.033203" xlink:href="#DejaVuSans-101"/>
     <use x="1399.556641" xlink:href="#DejaVuSans-32"/>
     <use x="1431.34375" xlink:href="#DejaVuSans-115"/>
     <use x="1483.443359" xlink:href="#DejaVuSans-111"/>
     <use x="1544.625" xlink:href="#DejaVuSans-108"/>
     <use x="1572.408203" xlink:href="#DejaVuSans-117"/>
     <use x="1635.787109" xlink:href="#DejaVuSans-116"/>
     <use x="1674.996094" xlink:href="#DejaVuSans-105"/>
     <use x="1702.779297" xlink:href="#DejaVuSans-111"/>
     <use x="1763.960938" xlink:href="#DejaVuSans-110"/>
    </g>
   </g>
   <g id="legend_1">
    <g id="line2d_22">
     <path d="M 49.917187 628.671938 
L 69.917187 628.671938 
" style="fill:none;stroke:#1f77b4;stroke-linecap:square;stroke-width:1.5;"/>
    </g>
    <g id="line2d_23"/>
    <g id="text_16">
     <!-- Baseline -->
     <g transform="translate(77.917187 632.171938)scale(0.1 -0.1)">
      <defs>
       <path d="M 19.671875 34.8125 
L 19.671875 8.109375 
L 35.5 8.109375 
Q 43.453125 8.109375 47.28125 11.40625 
Q 51.125 14.703125 51.125 21.484375 
Q 51.125 28.328125 47.28125 31.5625 
Q 43.453125 34.8125 35.5 34.8125 
z
M 19.671875 64.796875 
L 19.671875 42.828125 
L 34.28125 42.828125 
Q 41.5 42.828125 45.03125 45.53125 
Q 48.578125 48.25 48.578125 53.8125 
Q 48.578125 59.328125 45.03125 62.0625 
Q 41.5 64.796875 34.28125 64.796875 
z
M 9.8125 72.90625 
L 35.015625 72.90625 
Q 46.296875 72.90625 52.390625 68.21875 
Q 58.5 63.53125 58.5 54.890625 
Q 58.5 48.1875 55.375 44.234375 
Q 52.25 40.28125 46.1875 39.3125 
Q 53.46875 37.75 57.5 32.78125 
Q 61.53125 27.828125 61.53125 20.40625 
Q 61.53125 10.640625 54.890625 5.3125 
Q 48.25 0 35.984375 0 
L 9.8125 0 
z
" id="DejaVuSans-66"/>
      </defs>
      <use xlink:href="#DejaVuSans-66"/>
      <use x="68.603516" xlink:href="#DejaVuSans-97"/>
      <use x="129.882812" xlink:href="#DejaVuSans-115"/>
      <use x="181.982422" xlink:href="#DejaVuSans-101"/>
      <use x="243.505859" xlink:href="#DejaVuSans-108"/>
      <use x="271.289062" xlink:href="#DejaVuSans-105"/>
      <use x="299.072266" xlink:href="#DejaVuSans-110"/>
      <use x="362.451172" xlink:href="#DejaVuSans-101"/>
     </g>
    </g>
    <g id="line2d_24">
     <path d="M 49.917187 643.350063 
L 69.917187 643.350063 
" style="fill:none;stroke:#ff7f0e;stroke-linecap:square;stroke-width:1.5;"/>
    </g>
    <g id="line2d_25"/>
    <g id="text_17">
     <!-- Forced normaliz. -->
     <g transform="translate(77.917187 646.850063)scale(0.1 -0.1)">
      <defs>
       <path d="M 9.8125 72.90625 
L 51.703125 72.90625 
L 51.703125 64.59375 
L 19.671875 64.59375 
L 19.671875 43.109375 
L 48.578125 43.109375 
L 48.578125 34.8125 
L 19.671875 34.8125 
L 19.671875 0 
L 9.8125 0 
z
" id="DejaVuSans-70"/>
       <path d="M 45.40625 46.390625 
L 45.40625 75.984375 
L 54.390625 75.984375 
L 54.390625 0 
L 45.40625 0 
L 45.40625 8.203125 
Q 42.578125 3.328125 38.25 0.953125 
Q 33.9375 -1.421875 27.875 -1.421875 
Q 17.96875 -1.421875 11.734375 6.484375 
Q 5.515625 14.40625 5.515625 27.296875 
Q 5.515625 40.1875 11.734375 48.09375 
Q 17.96875 56 27.875 56 
Q 33.9375 56 38.25 53.625 
Q 42.578125 51.265625 45.40625 46.390625 
z
M 14.796875 27.296875 
Q 14.796875 17.390625 18.875 11.75 
Q 22.953125 6.109375 30.078125 6.109375 
Q 37.203125 6.109375 41.296875 11.75 
Q 45.40625 17.390625 45.40625 27.296875 
Q 45.40625 37.203125 41.296875 42.84375 
Q 37.203125 48.484375 30.078125 48.484375 
Q 22.953125 48.484375 18.875 42.84375 
Q 14.796875 37.203125 14.796875 27.296875 
z
" id="DejaVuSans-100"/>
       <path d="M 5.515625 54.6875 
L 48.1875 54.6875 
L 48.1875 46.484375 
L 14.40625 7.171875 
L 48.1875 7.171875 
L 48.1875 0 
L 4.296875 0 
L 4.296875 8.203125 
L 38.09375 47.515625 
L 5.515625 47.515625 
z
" id="DejaVuSans-122"/>
       <path d="M 10.6875 12.40625 
L 21 12.40625 
L 21 0 
L 10.6875 0 
z
" id="DejaVuSans-46"/>
      </defs>
      <use xlink:href="#DejaVuSans-70"/>
      <use x="53.894531" xlink:href="#DejaVuSans-111"/>
      <use x="115.076172" xlink:href="#DejaVuSans-114"/>
      <use x="153.939453" xlink:href="#DejaVuSans-99"/>
      <use x="208.919922" xlink:href="#DejaVuSans-101"/>
      <use x="270.443359" xlink:href="#DejaVuSans-100"/>
      <use x="333.919922" xlink:href="#DejaVuSans-32"/>
      <use x="365.707031" xlink:href="#DejaVuSans-110"/>
      <use x="429.085938" xlink:href="#DejaVuSans-111"/>
      <use x="490.267578" xlink:href="#DejaVuSans-114"/>
      <use x="529.630859" xlink:href="#DejaVuSans-109"/>
      <use x="627.042969" xlink:href="#DejaVuSans-97"/>
      <use x="688.322266" xlink:href="#DejaVuSans-108"/>
      <use x="716.105469" xlink:href="#DejaVuSans-105"/>
      <use x="743.888672" xlink:href="#DejaVuSans-122"/>
      <use x="796.378906" xlink:href="#DejaVuSans-46"/>
     </g>
    </g>
    <g id="line2d_26">
     <path d="M 180.732813 628.671938 
L 200.732813 628.671938 
" style="fill:none;stroke:#2ca02c;stroke-linecap:square;stroke-width:1.5;"/>
    </g>
    <g id="line2d_27"/>
    <g id="text_18">
     <!-- $\lambda=0.005$ -->
     <g transform="translate(208.732813 632.171938)scale(0.1 -0.1)">
      <defs>
       <path d="M 36.71875 67.4375 
L 48.828125 0 
L 39.3125 0 
L 31.84375 40.4375 
L 5.125 0 
L -4.390625 0 
L 29.734375 52.4375 
L 28.03125 62.109375 
Q 26.953125 68.265625 21.734375 68.265625 
L 17.046875 68.265625 
L 18.5 75.984375 
L 24.21875 75.875 
Q 35.203125 75.734375 36.71875 67.4375 
z
" id="DejaVuSans-Oblique-955"/>
       <path d="M 10.59375 45.40625 
L 73.1875 45.40625 
L 73.1875 37.203125 
L 10.59375 37.203125 
z
M 10.59375 25.484375 
L 73.1875 25.484375 
L 73.1875 17.1875 
L 10.59375 17.1875 
z
" id="DejaVuSans-61"/>
      </defs>
      <use transform="translate(0 0.015625)" xlink:href="#DejaVuSans-Oblique-955"/>
      <use transform="translate(78.662109 0.015625)" xlink:href="#DejaVuSans-61"/>
      <use transform="translate(181.933594 0.015625)" xlink:href="#DejaVuSans-48"/>
      <use transform="translate(245.556641 0.015625)" xlink:href="#DejaVuSans-46"/>
      <use transform="translate(277.34375 0.015625)" xlink:href="#DejaVuSans-48"/>
      <use transform="translate(340.966797 0.015625)" xlink:href="#DejaVuSans-48"/>
      <use transform="translate(404.589844 0.015625)" xlink:href="#DejaVuSans-53"/>
     </g>
    </g>
    <g id="line2d_28">
     <path d="M 180.732813 643.350063 
L 200.732813 643.350063 
" style="fill:none;stroke:#d62728;stroke-linecap:square;stroke-width:1.5;"/>
    </g>
    <g id="line2d_29"/>
    <g id="text_19">
     <!-- $\lambda=0.05$ -->
     <g transform="translate(208.732813 646.850063)scale(0.1 -0.1)">
      <use transform="translate(0 0.015625)" xlink:href="#DejaVuSans-Oblique-955"/>
      <use transform="translate(78.662109 0.015625)" xlink:href="#DejaVuSans-61"/>
      <use transform="translate(181.933594 0.015625)" xlink:href="#DejaVuSans-48"/>
      <use transform="translate(245.556641 0.015625)" xlink:href="#DejaVuSans-46"/>
      <use transform="translate(277.34375 0.015625)" xlink:href="#DejaVuSans-48"/>
      <use transform="translate(340.966797 0.015625)" xlink:href="#DejaVuSans-53"/>
     </g>
    </g>
    <g id="line2d_30">
     <path d="M 275.632812 628.671938 
L 295.632812 628.671938 
" style="fill:none;stroke:#9467bd;stroke-linecap:square;stroke-width:1.5;"/>
    </g>
    <g id="line2d_31"/>
    <g id="text_20">
     <!-- $\lambda=0.5$ -->
     <g transform="translate(303.632812 632.171938)scale(0.1 -0.1)">
      <use transform="translate(0 0.015625)" xlink:href="#DejaVuSans-Oblique-955"/>
      <use transform="translate(78.662109 0.015625)" xlink:href="#DejaVuSans-61"/>
      <use transform="translate(181.933594 0.015625)" xlink:href="#DejaVuSans-48"/>
      <use transform="translate(245.556641 0.015625)" xlink:href="#DejaVuSans-46"/>
      <use transform="translate(277.34375 0.015625)" xlink:href="#DejaVuSans-53"/>
     </g>
    </g>
    <g id="line2d_32">
     <path d="M 275.632812 643.350063 
L 295.632812 643.350063 
" style="fill:none;stroke:#8c564b;stroke-linecap:square;stroke-width:1.5;"/>
    </g>
    <g id="line2d_33"/>
    <g id="text_21">
     <!-- $\lambda=1.5$ -->
     <g transform="translate(303.632812 646.850063)scale(0.1 -0.1)">
      <use transform="translate(0 0.015625)" xlink:href="#DejaVuSans-Oblique-955"/>
      <use transform="translate(78.662109 0.015625)" xlink:href="#DejaVuSans-61"/>
      <use transform="translate(181.933594 0.015625)" xlink:href="#DejaVuSans-49"/>
      <use transform="translate(245.556641 0.015625)" xlink:href="#DejaVuSans-46"/>
      <use transform="translate(277.34375 0.015625)" xlink:href="#DejaVuSans-53"/>
     </g>
    </g>
    <g id="line2d_34">
     <path d="M 357.732813 628.671938 
L 377.732813 628.671938 
" style="fill:none;stroke:#e377c2;stroke-linecap:square;stroke-width:1.5;"/>
    </g>
    <g id="line2d_35"/>
    <g id="text_22">
     <!-- $\lambda=3$ -->
     <g transform="translate(385.732813 632.171938)scale(0.1 -0.1)">
      <use transform="translate(0 0.015625)" xlink:href="#DejaVuSans-Oblique-955"/>
      <use transform="translate(78.662109 0.015625)" xlink:href="#DejaVuSans-61"/>
      <use transform="translate(181.933594 0.015625)" xlink:href="#DejaVuSans-51"/>
     </g>
    </g>
    <g id="line2d_36">
     <path d="M 430.332812 628.671938 
L 450.332812 628.671938 
" style="fill:none;stroke:#7f7f7f;stroke-linecap:square;stroke-width:1.5;"/>
    </g>
    <g id="line2d_37"/>
    <g id="text_23">
     <!-- $\lambda=5$ -->
     <g transform="translate(458.332812 632.171938)scale(0.1 -0.1)">
      <use transform="translate(0 0.015625)" xlink:href="#DejaVuSans-Oblique-955"/>
      <use transform="translate(78.662109 0.015625)" xlink:href="#DejaVuSans-61"/>
      <use transform="translate(181.933594 0.015625)" xlink:href="#DejaVuSans-53"/>
     </g>
    </g>
    <g id="line2d_38">
     <path d="M 502.932813 628.671938 
L 522.932812 628.671938 
" style="fill:none;stroke:#bcbd22;stroke-linecap:square;stroke-width:1.5;"/>
    </g>
    <g id="line2d_39"/>
    <g id="text_24">
     <!-- $\lambda=10$ -->
     <g transform="translate(530.932812 632.171938)scale(0.1 -0.1)">
      <use transform="translate(0 0.015625)" xlink:href="#DejaVuSans-Oblique-955"/>
      <use transform="translate(78.662109 0.015625)" xlink:href="#DejaVuSans-61"/>
      <use transform="translate(181.933594 0.015625)" xlink:href="#DejaVuSans-49"/>
      <use transform="translate(245.556641 0.015625)" xlink:href="#DejaVuSans-48"/>
     </g>
    </g>
   </g>
  </g>
 </g>
 <defs>
  <clipPath id="p7d1d1f508d">
   <rect height="543.6" width="558" x="26.925" y="39.3575"/>
  </clipPath>
 </defs>
</svg>
