<?xml version="1.0" encoding="utf-8" standalone="no"?>
<!DOCTYPE svg PUBLIC "-//W3C//DTD SVG 1.1//EN"
  "http://www.w3.org/Graphics/SVG/1.1/DTD/svg11.dtd">
<!-- Created with matplotlib (https://matplotlib.org/) -->
<svg height="720pt" version="1.1" viewBox="0 0 720 720" width="720pt" xmlns="http://www.w3.org/2000/svg" xmlns:xlink="http://www.w3.org/1999/xlink">
 <metadata>
  <rdf:RDF xmlns:cc="http://creativecommons.org/ns#" xmlns:dc="http://purl.org/dc/elements/1.1/" xmlns:rdf="http://www.w3.org/1999/02/22-rdf-syntax-ns#">
   <cc:Work>
    <dc:type rdf:resource="http://purl.org/dc/dcmitype/StillImage"/>
    <dc:date>2021-01-11T23:04:11.855712</dc:date>
    <dc:format>image/svg+xml</dc:format>
    <dc:creator>
     <cc:Agent>
      <dc:title>Matplotlib v3.3.2, https://matplotlib.org/</dc:title>
     </cc:Agent>
    </dc:creator>
   </cc:Work>
  </rdf:RDF>
 </metadata>
 <defs>
  <style type="text/css">*{stroke-linecap:butt;stroke-linejoin:round;}</style>
 </defs>
 <g id="figure_1">
  <g id="patch_1">
   <path d="M 0 720 
L 720 720 
L 720 0 
L 0 0 
z
" style="fill:none;"/>
  </g>
  <g id="axes_1">
   <g id="patch_2">
    <path d="M 90 630 
L 648 630 
L 648 86.4 
L 90 86.4 
z
" style="fill:#ffffff;"/>
   </g>
   <g id="patch_3">
    <path clip-path="url(#p13105de78e)" d="M 150.872727 630 
L 323.345455 630 
L 323.345455 86.4 
L 150.872727 86.4 
z
" style="fill:#1f77b4;opacity:0.2;"/>
   </g>
   <g id="matplotlib.axis_1">
    <g id="xtick_1">
     <g id="line2d_1">
      <defs>
       <path d="M 0 0 
L 0 3.5 
" id="m8c05280bf4" style="stroke:#000000;stroke-width:0.8;"/>
      </defs>
      <g>
       <use style="stroke:#000000;stroke-width:0.8;" x="115.363636" xlink:href="#m8c05280bf4" y="630"/>
      </g>
     </g>
     <g id="text_1">
      <!-- 0 -->
      <g transform="translate(112.182386 644.598438)scale(0.1 -0.1)">
       <defs>
        <path d="M 31.78125 66.40625 
Q 24.171875 66.40625 20.328125 58.90625 
Q 16.5 51.421875 16.5 36.375 
Q 16.5 21.390625 20.328125 13.890625 
Q 24.171875 6.390625 31.78125 6.390625 
Q 39.453125 6.390625 43.28125 13.890625 
Q 47.125 21.390625 47.125 36.375 
Q 47.125 51.421875 43.28125 58.90625 
Q 39.453125 66.40625 31.78125 66.40625 
z
M 31.78125 74.21875 
Q 44.046875 74.21875 50.515625 64.515625 
Q 56.984375 54.828125 56.984375 36.375 
Q 56.984375 17.96875 50.515625 8.265625 
Q 44.046875 -1.421875 31.78125 -1.421875 
Q 19.53125 -1.421875 13.0625 8.265625 
Q 6.59375 17.96875 6.59375 36.375 
Q 6.59375 54.828125 13.0625 64.515625 
Q 19.53125 74.21875 31.78125 74.21875 
z
" id="DejaVuSans-48"/>
       </defs>
       <use xlink:href="#DejaVuSans-48"/>
      </g>
     </g>
    </g>
    <g id="xtick_2">
     <g id="line2d_2">
      <g>
       <use style="stroke:#000000;stroke-width:0.8;" x="199.909091" xlink:href="#m8c05280bf4" y="630"/>
      </g>
     </g>
     <g id="text_2">
      <!-- 100 -->
      <g transform="translate(190.365341 644.598438)scale(0.1 -0.1)">
       <defs>
        <path d="M 12.40625 8.296875 
L 28.515625 8.296875 
L 28.515625 63.921875 
L 10.984375 60.40625 
L 10.984375 69.390625 
L 28.421875 72.90625 
L 38.28125 72.90625 
L 38.28125 8.296875 
L 54.390625 8.296875 
L 54.390625 0 
L 12.40625 0 
z
" id="DejaVuSans-49"/>
       </defs>
       <use xlink:href="#DejaVuSans-49"/>
       <use x="63.623047" xlink:href="#DejaVuSans-48"/>
       <use x="127.246094" xlink:href="#DejaVuSans-48"/>
      </g>
     </g>
    </g>
    <g id="xtick_3">
     <g id="line2d_3">
      <g>
       <use style="stroke:#000000;stroke-width:0.8;" x="284.454545" xlink:href="#m8c05280bf4" y="630"/>
      </g>
     </g>
     <g id="text_3">
      <!-- 200 -->
      <g transform="translate(274.910795 644.598438)scale(0.1 -0.1)">
       <defs>
        <path d="M 19.1875 8.296875 
L 53.609375 8.296875 
L 53.609375 0 
L 7.328125 0 
L 7.328125 8.296875 
Q 12.9375 14.109375 22.625 23.890625 
Q 32.328125 33.6875 34.8125 36.53125 
Q 39.546875 41.84375 41.421875 45.53125 
Q 43.3125 49.21875 43.3125 52.78125 
Q 43.3125 58.59375 39.234375 62.25 
Q 35.15625 65.921875 28.609375 65.921875 
Q 23.96875 65.921875 18.8125 64.3125 
Q 13.671875 62.703125 7.8125 59.421875 
L 7.8125 69.390625 
Q 13.765625 71.78125 18.9375 73 
Q 24.125 74.21875 28.421875 74.21875 
Q 39.75 74.21875 46.484375 68.546875 
Q 53.21875 62.890625 53.21875 53.421875 
Q 53.21875 48.921875 51.53125 44.890625 
Q 49.859375 40.875 45.40625 35.40625 
Q 44.1875 33.984375 37.640625 27.21875 
Q 31.109375 20.453125 19.1875 8.296875 
z
" id="DejaVuSans-50"/>
       </defs>
       <use xlink:href="#DejaVuSans-50"/>
       <use x="63.623047" xlink:href="#DejaVuSans-48"/>
       <use x="127.246094" xlink:href="#DejaVuSans-48"/>
      </g>
     </g>
    </g>
    <g id="xtick_4">
     <g id="line2d_4">
      <g>
       <use style="stroke:#000000;stroke-width:0.8;" x="369" xlink:href="#m8c05280bf4" y="630"/>
      </g>
     </g>
     <g id="text_4">
      <!-- 300 -->
      <g transform="translate(359.45625 644.598438)scale(0.1 -0.1)">
       <defs>
        <path d="M 40.578125 39.3125 
Q 47.65625 37.796875 51.625 33 
Q 55.609375 28.21875 55.609375 21.1875 
Q 55.609375 10.40625 48.1875 4.484375 
Q 40.765625 -1.421875 27.09375 -1.421875 
Q 22.515625 -1.421875 17.65625 -0.515625 
Q 12.796875 0.390625 7.625 2.203125 
L 7.625 11.71875 
Q 11.71875 9.328125 16.59375 8.109375 
Q 21.484375 6.890625 26.8125 6.890625 
Q 36.078125 6.890625 40.9375 10.546875 
Q 45.796875 14.203125 45.796875 21.1875 
Q 45.796875 27.640625 41.28125 31.265625 
Q 36.765625 34.90625 28.71875 34.90625 
L 20.21875 34.90625 
L 20.21875 43.015625 
L 29.109375 43.015625 
Q 36.375 43.015625 40.234375 45.921875 
Q 44.09375 48.828125 44.09375 54.296875 
Q 44.09375 59.90625 40.109375 62.90625 
Q 36.140625 65.921875 28.71875 65.921875 
Q 24.65625 65.921875 20.015625 65.03125 
Q 15.375 64.15625 9.8125 62.3125 
L 9.8125 71.09375 
Q 15.4375 72.65625 20.34375 73.4375 
Q 25.25 74.21875 29.59375 74.21875 
Q 40.828125 74.21875 47.359375 69.109375 
Q 53.90625 64.015625 53.90625 55.328125 
Q 53.90625 49.265625 50.4375 45.09375 
Q 46.96875 40.921875 40.578125 39.3125 
z
" id="DejaVuSans-51"/>
       </defs>
       <use xlink:href="#DejaVuSans-51"/>
       <use x="63.623047" xlink:href="#DejaVuSans-48"/>
       <use x="127.246094" xlink:href="#DejaVuSans-48"/>
      </g>
     </g>
    </g>
    <g id="xtick_5">
     <g id="line2d_5">
      <g>
       <use style="stroke:#000000;stroke-width:0.8;" x="453.545455" xlink:href="#m8c05280bf4" y="630"/>
      </g>
     </g>
     <g id="text_5">
      <!-- 400 -->
      <g transform="translate(444.001705 644.598438)scale(0.1 -0.1)">
       <defs>
        <path d="M 37.796875 64.3125 
L 12.890625 25.390625 
L 37.796875 25.390625 
z
M 35.203125 72.90625 
L 47.609375 72.90625 
L 47.609375 25.390625 
L 58.015625 25.390625 
L 58.015625 17.1875 
L 47.609375 17.1875 
L 47.609375 0 
L 37.796875 0 
L 37.796875 17.1875 
L 4.890625 17.1875 
L 4.890625 26.703125 
z
" id="DejaVuSans-52"/>
       </defs>
       <use xlink:href="#DejaVuSans-52"/>
       <use x="63.623047" xlink:href="#DejaVuSans-48"/>
       <use x="127.246094" xlink:href="#DejaVuSans-48"/>
      </g>
     </g>
    </g>
    <g id="xtick_6">
     <g id="line2d_6">
      <g>
       <use style="stroke:#000000;stroke-width:0.8;" x="538.090909" xlink:href="#m8c05280bf4" y="630"/>
      </g>
     </g>
     <g id="text_6">
      <!-- 500 -->
      <g transform="translate(528.547159 644.598438)scale(0.1 -0.1)">
       <defs>
        <path d="M 10.796875 72.90625 
L 49.515625 72.90625 
L 49.515625 64.59375 
L 19.828125 64.59375 
L 19.828125 46.734375 
Q 21.96875 47.46875 24.109375 47.828125 
Q 26.265625 48.1875 28.421875 48.1875 
Q 40.625 48.1875 47.75 41.5 
Q 54.890625 34.8125 54.890625 23.390625 
Q 54.890625 11.625 47.5625 5.09375 
Q 40.234375 -1.421875 26.90625 -1.421875 
Q 22.3125 -1.421875 17.546875 -0.640625 
Q 12.796875 0.140625 7.71875 1.703125 
L 7.71875 11.625 
Q 12.109375 9.234375 16.796875 8.0625 
Q 21.484375 6.890625 26.703125 6.890625 
Q 35.15625 6.890625 40.078125 11.328125 
Q 45.015625 15.765625 45.015625 23.390625 
Q 45.015625 31 40.078125 35.4375 
Q 35.15625 39.890625 26.703125 39.890625 
Q 22.75 39.890625 18.8125 39.015625 
Q 14.890625 38.140625 10.796875 36.28125 
z
" id="DejaVuSans-53"/>
       </defs>
       <use xlink:href="#DejaVuSans-53"/>
       <use x="63.623047" xlink:href="#DejaVuSans-48"/>
       <use x="127.246094" xlink:href="#DejaVuSans-48"/>
      </g>
     </g>
    </g>
    <g id="xtick_7">
     <g id="line2d_7">
      <g>
       <use style="stroke:#000000;stroke-width:0.8;" x="622.636364" xlink:href="#m8c05280bf4" y="630"/>
      </g>
     </g>
     <g id="text_7">
      <!-- 600 -->
      <g transform="translate(613.092614 644.598438)scale(0.1 -0.1)">
       <defs>
        <path d="M 33.015625 40.375 
Q 26.375 40.375 22.484375 35.828125 
Q 18.609375 31.296875 18.609375 23.390625 
Q 18.609375 15.53125 22.484375 10.953125 
Q 26.375 6.390625 33.015625 6.390625 
Q 39.65625 6.390625 43.53125 10.953125 
Q 47.40625 15.53125 47.40625 23.390625 
Q 47.40625 31.296875 43.53125 35.828125 
Q 39.65625 40.375 33.015625 40.375 
z
M 52.59375 71.296875 
L 52.59375 62.3125 
Q 48.875 64.0625 45.09375 64.984375 
Q 41.3125 65.921875 37.59375 65.921875 
Q 27.828125 65.921875 22.671875 59.328125 
Q 17.53125 52.734375 16.796875 39.40625 
Q 19.671875 43.65625 24.015625 45.921875 
Q 28.375 48.1875 33.59375 48.1875 
Q 44.578125 48.1875 50.953125 41.515625 
Q 57.328125 34.859375 57.328125 23.390625 
Q 57.328125 12.15625 50.6875 5.359375 
Q 44.046875 -1.421875 33.015625 -1.421875 
Q 20.359375 -1.421875 13.671875 8.265625 
Q 6.984375 17.96875 6.984375 36.375 
Q 6.984375 53.65625 15.1875 63.9375 
Q 23.390625 74.21875 37.203125 74.21875 
Q 40.921875 74.21875 44.703125 73.484375 
Q 48.484375 72.75 52.59375 71.296875 
z
" id="DejaVuSans-54"/>
       </defs>
       <use xlink:href="#DejaVuSans-54"/>
       <use x="63.623047" xlink:href="#DejaVuSans-48"/>
       <use x="127.246094" xlink:href="#DejaVuSans-48"/>
      </g>
     </g>
    </g>
    <g id="text_8">
     <!-- Epochs -->
     <g transform="translate(351.084375 658.276562)scale(0.1 -0.1)">
      <defs>
       <path d="M 9.8125 72.90625 
L 55.90625 72.90625 
L 55.90625 64.59375 
L 19.671875 64.59375 
L 19.671875 43.015625 
L 54.390625 43.015625 
L 54.390625 34.71875 
L 19.671875 34.71875 
L 19.671875 8.296875 
L 56.78125 8.296875 
L 56.78125 0 
L 9.8125 0 
z
" id="DejaVuSans-69"/>
       <path d="M 18.109375 8.203125 
L 18.109375 -20.796875 
L 9.078125 -20.796875 
L 9.078125 54.6875 
L 18.109375 54.6875 
L 18.109375 46.390625 
Q 20.953125 51.265625 25.265625 53.625 
Q 29.59375 56 35.59375 56 
Q 45.5625 56 51.78125 48.09375 
Q 58.015625 40.1875 58.015625 27.296875 
Q 58.015625 14.40625 51.78125 6.484375 
Q 45.5625 -1.421875 35.59375 -1.421875 
Q 29.59375 -1.421875 25.265625 0.953125 
Q 20.953125 3.328125 18.109375 8.203125 
z
M 48.6875 27.296875 
Q 48.6875 37.203125 44.609375 42.84375 
Q 40.53125 48.484375 33.40625 48.484375 
Q 26.265625 48.484375 22.1875 42.84375 
Q 18.109375 37.203125 18.109375 27.296875 
Q 18.109375 17.390625 22.1875 11.75 
Q 26.265625 6.109375 33.40625 6.109375 
Q 40.53125 6.109375 44.609375 11.75 
Q 48.6875 17.390625 48.6875 27.296875 
z
" id="DejaVuSans-112"/>
       <path d="M 30.609375 48.390625 
Q 23.390625 48.390625 19.1875 42.75 
Q 14.984375 37.109375 14.984375 27.296875 
Q 14.984375 17.484375 19.15625 11.84375 
Q 23.34375 6.203125 30.609375 6.203125 
Q 37.796875 6.203125 41.984375 11.859375 
Q 46.1875 17.53125 46.1875 27.296875 
Q 46.1875 37.015625 41.984375 42.703125 
Q 37.796875 48.390625 30.609375 48.390625 
z
M 30.609375 56 
Q 42.328125 56 49.015625 48.375 
Q 55.71875 40.765625 55.71875 27.296875 
Q 55.71875 13.875 49.015625 6.21875 
Q 42.328125 -1.421875 30.609375 -1.421875 
Q 18.84375 -1.421875 12.171875 6.21875 
Q 5.515625 13.875 5.515625 27.296875 
Q 5.515625 40.765625 12.171875 48.375 
Q 18.84375 56 30.609375 56 
z
" id="DejaVuSans-111"/>
       <path d="M 48.78125 52.59375 
L 48.78125 44.1875 
Q 44.96875 46.296875 41.140625 47.34375 
Q 37.3125 48.390625 33.40625 48.390625 
Q 24.65625 48.390625 19.8125 42.84375 
Q 14.984375 37.3125 14.984375 27.296875 
Q 14.984375 17.28125 19.8125 11.734375 
Q 24.65625 6.203125 33.40625 6.203125 
Q 37.3125 6.203125 41.140625 7.25 
Q 44.96875 8.296875 48.78125 10.40625 
L 48.78125 2.09375 
Q 45.015625 0.34375 40.984375 -0.53125 
Q 36.96875 -1.421875 32.421875 -1.421875 
Q 20.0625 -1.421875 12.78125 6.34375 
Q 5.515625 14.109375 5.515625 27.296875 
Q 5.515625 40.671875 12.859375 48.328125 
Q 20.21875 56 33.015625 56 
Q 37.15625 56 41.109375 55.140625 
Q 45.0625 54.296875 48.78125 52.59375 
z
" id="DejaVuSans-99"/>
       <path d="M 54.890625 33.015625 
L 54.890625 0 
L 45.90625 0 
L 45.90625 32.71875 
Q 45.90625 40.484375 42.875 44.328125 
Q 39.84375 48.1875 33.796875 48.1875 
Q 26.515625 48.1875 22.3125 43.546875 
Q 18.109375 38.921875 18.109375 30.90625 
L 18.109375 0 
L 9.078125 0 
L 9.078125 75.984375 
L 18.109375 75.984375 
L 18.109375 46.1875 
Q 21.34375 51.125 25.703125 53.5625 
Q 30.078125 56 35.796875 56 
Q 45.21875 56 50.046875 50.171875 
Q 54.890625 44.34375 54.890625 33.015625 
z
" id="DejaVuSans-104"/>
       <path d="M 44.28125 53.078125 
L 44.28125 44.578125 
Q 40.484375 46.53125 36.375 47.5 
Q 32.28125 48.484375 27.875 48.484375 
Q 21.1875 48.484375 17.84375 46.4375 
Q 14.5 44.390625 14.5 40.28125 
Q 14.5 37.15625 16.890625 35.375 
Q 19.28125 33.59375 26.515625 31.984375 
L 29.59375 31.296875 
Q 39.15625 29.25 43.1875 25.515625 
Q 47.21875 21.78125 47.21875 15.09375 
Q 47.21875 7.46875 41.1875 3.015625 
Q 35.15625 -1.421875 24.609375 -1.421875 
Q 20.21875 -1.421875 15.453125 -0.5625 
Q 10.6875 0.296875 5.421875 2 
L 5.421875 11.28125 
Q 10.40625 8.6875 15.234375 7.390625 
Q 20.0625 6.109375 24.8125 6.109375 
Q 31.15625 6.109375 34.5625 8.28125 
Q 37.984375 10.453125 37.984375 14.40625 
Q 37.984375 18.0625 35.515625 20.015625 
Q 33.0625 21.96875 24.703125 23.78125 
L 21.578125 24.515625 
Q 13.234375 26.265625 9.515625 29.90625 
Q 5.8125 33.546875 5.8125 39.890625 
Q 5.8125 47.609375 11.28125 51.796875 
Q 16.75 56 26.8125 56 
Q 31.78125 56 36.171875 55.265625 
Q 40.578125 54.546875 44.28125 53.078125 
z
" id="DejaVuSans-115"/>
      </defs>
      <use xlink:href="#DejaVuSans-69"/>
      <use x="63.183594" xlink:href="#DejaVuSans-112"/>
      <use x="126.660156" xlink:href="#DejaVuSans-111"/>
      <use x="187.841797" xlink:href="#DejaVuSans-99"/>
      <use x="242.822266" xlink:href="#DejaVuSans-104"/>
      <use x="306.201172" xlink:href="#DejaVuSans-115"/>
     </g>
    </g>
   </g>
   <g id="matplotlib.axis_2">
    <g id="ytick_1">
     <g id="line2d_8">
      <defs>
       <path d="M 0 0 
L -3.5 0 
" id="mdef3e3a4d1" style="stroke:#000000;stroke-width:0.8;"/>
      </defs>
      <g>
       <use style="stroke:#000000;stroke-width:0.8;" x="90" xlink:href="#mdef3e3a4d1" y="605.29103"/>
      </g>
     </g>
     <g id="text_9">
      <!-- 0 -->
      <g transform="translate(76.6375 609.090249)scale(0.1 -0.1)">
       <use xlink:href="#DejaVuSans-48"/>
      </g>
     </g>
    </g>
    <g id="ytick_2">
     <g id="line2d_9">
      <g>
       <use style="stroke:#000000;stroke-width:0.8;" x="90" xlink:href="#mdef3e3a4d1" y="500.793467"/>
      </g>
     </g>
     <g id="text_10">
      <!-- 5 -->
      <g transform="translate(76.6375 504.592686)scale(0.1 -0.1)">
       <use xlink:href="#DejaVuSans-53"/>
      </g>
     </g>
    </g>
    <g id="ytick_3">
     <g id="line2d_10">
      <g>
       <use style="stroke:#000000;stroke-width:0.8;" x="90" xlink:href="#mdef3e3a4d1" y="396.295904"/>
      </g>
     </g>
     <g id="text_11">
      <!-- 10 -->
      <g transform="translate(70.275 400.095123)scale(0.1 -0.1)">
       <use xlink:href="#DejaVuSans-49"/>
       <use x="63.623047" xlink:href="#DejaVuSans-48"/>
      </g>
     </g>
    </g>
    <g id="ytick_4">
     <g id="line2d_11">
      <g>
       <use style="stroke:#000000;stroke-width:0.8;" x="90" xlink:href="#mdef3e3a4d1" y="291.798342"/>
      </g>
     </g>
     <g id="text_12">
      <!-- 15 -->
      <g transform="translate(70.275 295.597561)scale(0.1 -0.1)">
       <use xlink:href="#DejaVuSans-49"/>
       <use x="63.623047" xlink:href="#DejaVuSans-53"/>
      </g>
     </g>
    </g>
    <g id="ytick_5">
     <g id="line2d_12">
      <g>
       <use style="stroke:#000000;stroke-width:0.8;" x="90" xlink:href="#mdef3e3a4d1" y="187.300779"/>
      </g>
     </g>
     <g id="text_13">
      <!-- 20 -->
      <g transform="translate(70.275 191.099998)scale(0.1 -0.1)">
       <use xlink:href="#DejaVuSans-50"/>
       <use x="63.623047" xlink:href="#DejaVuSans-48"/>
      </g>
     </g>
    </g>
    <g id="text_14">
     <!-- Loss -->
     <g transform="translate(64.195312 369.167188)rotate(-90)scale(0.1 -0.1)">
      <defs>
       <path d="M 9.8125 72.90625 
L 19.671875 72.90625 
L 19.671875 8.296875 
L 55.171875 8.296875 
L 55.171875 0 
L 9.8125 0 
z
" id="DejaVuSans-76"/>
      </defs>
      <use xlink:href="#DejaVuSans-76"/>
      <use x="53.962891" xlink:href="#DejaVuSans-111"/>
      <use x="115.144531" xlink:href="#DejaVuSans-115"/>
      <use x="167.244141" xlink:href="#DejaVuSans-115"/>
     </g>
    </g>
   </g>
   <g id="line2d_13">
    <path clip-path="url(#p13105de78e)" d="M 115.363636 584.391293 
L 130.581818 584.504279 
L 135.654545 584.774534 
L 138.190909 585.156478 
L 139.881818 585.60677 
L 141.572727 586.418479 
L 143.263636 587.459324 
L 144.954545 589.049977 
L 146.645455 591.10584 
L 148.336364 593.279653 
L 151.718182 597.823069 
L 152.563636 599.066097 
L 153.409091 599.963421 
L 155.1 602.019886 
L 156.790909 603.489626 
L 158.481818 604.372428 
L 160.172727 604.867553 
L 162.709091 605.156871 
L 166.936364 605.263929 
L 183.845455 605.290209 
L 622.636364 605.290909 
L 622.636364 605.290909 
" style="fill:none;stroke:#1f77b4;stroke-linecap:square;stroke-width:1.5;"/>
   </g>
   <g id="line2d_14">
    <path clip-path="url(#p13105de78e)" d="M 115.363636 584.39158 
L 133.118182 584.284302 
L 135.654545 584.308596 
L 138.190909 584.55727 
L 139.881818 584.936076 
L 140.727273 585.271656 
L 143.263636 586.735328 
L 144.954545 588.263729 
L 145.8 589.139547 
L 146.645455 590.213253 
L 147.490909 591.52718 
L 148.336364 592.221565 
L 149.181818 593.69053 
L 151.718182 597.29726 
L 152.563636 598.512604 
L 153.409091 599.33624 
L 154.254545 600.670148 
L 155.1 601.743531 
L 157.636364 603.839632 
L 158.481818 604.285467 
L 160.172727 604.826993 
L 162.709091 605.142668 
L 166.936364 605.259423 
L 181.309091 605.289397 
L 614.181818 605.290832 
L 622.636364 605.290836 
L 622.636364 605.290836 
" style="fill:none;stroke:#1f77b4;stroke-dasharray:9.6,2.4,1.5,2.4;stroke-dashoffset:0;stroke-width:1.5;"/>
   </g>
   <g id="line2d_15">
    <path clip-path="url(#p13105de78e)" d="M 115.363636 584.391293 
L 133.963636 584.504379 
L 140.727273 584.740857 
L 144.954545 585.126221 
L 149.181818 585.733294 
L 153.409091 586.527324 
L 159.327273 587.862091 
L 160.172727 588.306897 
L 161.018182 588.487982 
L 161.863636 588.515572 
L 162.709091 589.032937 
L 164.4 589.343537 
L 165.245455 589.785514 
L 166.936364 589.962086 
L 167.781818 590.493603 
L 168.627273 590.776804 
L 169.472727 590.837518 
L 170.318182 591.043663 
L 171.163636 591.42197 
L 172.009091 591.622786 
L 172.854545 591.648059 
L 173.7 592.26978 
L 174.545455 591.837413 
L 175.390909 591.996392 
L 176.236364 592.314764 
L 177.927273 593.200436 
L 178.772727 592.682516 
L 179.618182 592.922358 
L 180.463636 594.253743 
L 181.309091 592.017185 
L 182.154545 593.868072 
L 183 592.224201 
L 183.845455 594.046345 
L 184.690909 595.196896 
L 185.536364 593.123617 
L 186.381818 595.30643 
L 187.227273 593.46427 
L 188.918182 597.033127 
L 189.763636 594.361086 
L 190.609091 597.927284 
L 191.454545 596.721563 
L 192.3 597.42221 
L 193.145455 599.367513 
L 193.990909 598.05901 
L 194.836364 600.380592 
L 195.681818 599.831478 
L 196.527273 600.825416 
L 197.372727 601.624129 
L 198.218182 601.273108 
L 199.063636 602.446688 
L 199.909091 602.222732 
L 200.754545 603.009332 
L 202.445455 603.204829 
L 203.290909 603.771625 
L 204.136364 603.707495 
L 205.827273 604.199662 
L 206.672727 604.145651 
L 208.363636 604.525688 
L 210.054545 604.647022 
L 211.745455 604.732627 
L 216.818182 604.998553 
L 225.272727 605.134215 
L 237.109091 605.201576 
L 289.527273 605.258806 
L 609.109091 605.287575 
L 622.636364 605.28776 
L 622.636364 605.28776 
" style="fill:none;stroke:#ff7f0e;stroke-linecap:square;stroke-width:1.5;"/>
   </g>
   <g id="line2d_16">
    <path clip-path="url(#p13105de78e)" d="M 115.363636 584.39158 
L 136.5 584.300571 
L 139.881818 584.287391 
L 143.263636 584.500754 
L 147.490909 584.959457 
L 153.409091 585.830845 
L 158.481818 587.001957 
L 159.327273 586.82093 
L 160.172727 587.443455 
L 161.018182 587.734527 
L 161.863636 587.450832 
L 162.709091 588.095629 
L 163.554545 588.271086 
L 164.4 588.201566 
L 165.245455 588.781267 
L 166.090909 588.935795 
L 166.936364 588.614591 
L 167.781818 589.421011 
L 168.627273 589.702749 
L 169.472727 589.523081 
L 170.318182 589.940611 
L 172.009091 590.282631 
L 172.854545 590.540801 
L 173.7 591.003232 
L 174.545455 590.233585 
L 175.390909 590.900854 
L 176.236364 591.181866 
L 177.081818 591.189324 
L 177.927273 591.716981 
L 178.772727 591.572398 
L 179.618182 591.816671 
L 180.463636 592.979478 
L 181.309091 589.921864 
L 182.154545 592.723884 
L 183 591.358279 
L 183.845455 592.973707 
L 184.690909 593.721875 
L 185.536364 591.196447 
L 186.381818 594.382895 
L 187.227273 592.936692 
L 188.918182 595.943775 
L 189.763636 592.337114 
L 190.609091 597.081961 
L 191.454545 596.328692 
L 192.3 597.083599 
L 193.145455 598.752936 
L 193.990909 596.880024 
L 194.836364 599.801974 
L 195.681818 599.563588 
L 196.527273 600.549701 
L 197.372727 601.156466 
L 198.218182 600.727506 
L 199.063636 602.256803 
L 199.909091 602.181726 
L 200.754545 602.873887 
L 202.445455 602.881621 
L 203.290909 603.674075 
L 204.136364 603.736521 
L 204.981818 604.014412 
L 205.827273 604.129419 
L 206.672727 604.013295 
L 208.363636 604.507618 
L 212.590909 604.749161 
L 214.281818 604.910108 
L 240.490909 605.204467 
L 278.536364 605.251126 
L 500.890909 605.284874 
L 622.636364 605.287515 
L 622.636364 605.287515 
" style="fill:none;stroke:#ff7f0e;stroke-dasharray:9.6,2.4,1.5,2.4;stroke-dashoffset:0;stroke-width:1.5;"/>
   </g>
   <g id="line2d_17">
    <path clip-path="url(#p13105de78e)" d="M 115.363636 584.391293 
L 133.963636 584.482875 
L 139.036364 584.712041 
L 140.727273 584.938554 
L 142.418182 585.376789 
L 143.263636 585.761802 
L 144.954545 587.006168 
L 145.8 587.740323 
L 146.645455 588.828423 
L 147.490909 589.700516 
L 149.181818 592.697145 
L 150.027273 593.701045 
L 151.718182 596.700623 
L 152.563636 598.72256 
L 153.409091 599.85801 
L 154.254545 601.472368 
L 155.1 602.511237 
L 155.945455 603.352076 
L 156.790909 603.871711 
L 157.636364 603.937243 
L 158.481818 604.366151 
L 162.709091 604.390874 
L 166.090909 604.311611 
L 173.7 604.282387 
L 190.609091 604.498922 
L 220.2 604.829861 
L 255.709091 604.957251 
L 380.836364 605.120644 
L 622.636364 605.226075 
L 622.636364 605.226075 
" style="fill:none;stroke:#2ca02c;stroke-linecap:square;stroke-width:1.5;"/>
   </g>
   <g id="line2d_18">
    <path clip-path="url(#p13105de78e)" d="M 115.363636 584.39158 
L 134.809091 584.303665 
L 139.036364 584.2203 
L 141.572727 584.554699 
L 142.418182 584.753619 
L 143.263636 585.123513 
L 145.8 586.828872 
L 146.645455 588.130368 
L 147.490909 588.559906 
L 149.181818 591.911183 
L 150.027273 592.413894 
L 150.872727 594.841318 
L 151.718182 596.022992 
L 152.563636 598.243367 
L 153.409091 599.877821 
L 154.254545 601.240955 
L 155.1 602.251487 
L 155.945455 603.489851 
L 156.790909 603.984619 
L 157.636364 604.019368 
L 158.481818 604.406732 
L 161.018182 604.463427 
L 167.781818 604.29074 
L 177.081818 604.309946 
L 244.718182 604.92967 
L 355.472727 605.096013 
L 598.963636 605.219204 
L 622.636364 605.224995 
L 622.636364 605.224995 
" style="fill:none;stroke:#2ca02c;stroke-dasharray:9.6,2.4,1.5,2.4;stroke-dashoffset:0;stroke-width:1.5;"/>
   </g>
   <g id="line2d_19">
    <path clip-path="url(#p13105de78e)" d="M 115.363636 584.391293 
L 151.718182 584.482856 
L 155.1 584.700961 
L 156.790909 585.061442 
L 157.636364 585.383718 
L 158.481818 585.870046 
L 159.327273 586.510181 
L 161.018182 588.038456 
L 161.863636 588.156619 
L 162.709091 590.367747 
L 163.554545 591.343243 
L 164.4 591.431486 
L 165.245455 594.299371 
L 166.090909 595.764087 
L 166.936364 596.199337 
L 167.781818 597.833667 
L 168.627273 599.921634 
L 170.318182 601.217228 
L 171.163636 601.887202 
L 172.009091 601.847589 
L 172.854545 602.180838 
L 173.7 601.813669 
L 174.545455 602.088335 
L 175.390909 601.794446 
L 176.236364 602.086431 
L 177.081818 601.916598 
L 177.927273 601.928403 
L 178.772727 602.097963 
L 182.154545 602.365234 
L 196.527273 603.998144 
L 202.445455 604.24326 
L 222.736364 604.682709 
L 249.790909 604.919347 
L 300.518182 605.103331 
L 407.045455 605.231466 
L 622.636364 605.281818 
L 622.636364 605.281818 
" style="fill:none;stroke:#d62728;stroke-linecap:square;stroke-width:1.5;"/>
   </g>
   <g id="line2d_20">
    <path clip-path="url(#p13105de78e)" d="M 115.363636 584.39158 
L 155.945455 584.476857 
L 157.636364 585.066771 
L 158.481818 585.36339 
L 159.327273 585.957275 
L 160.172727 586.853624 
L 161.018182 587.04487 
L 161.863636 587.92725 
L 162.709091 589.372034 
L 163.554545 590.24735 
L 164.4 591.404634 
L 165.245455 593.318183 
L 166.936364 596.230285 
L 167.781818 597.107442 
L 168.627273 599.716334 
L 170.318182 600.93378 
L 171.163636 601.971655 
L 172.854545 602.147833 
L 173.7 601.681642 
L 174.545455 602.100538 
L 175.390909 601.800696 
L 176.236364 602.084752 
L 177.081818 601.884795 
L 177.927273 601.879565 
L 178.772727 602.09594 
L 182.154545 602.361445 
L 195.681818 603.930226 
L 199.909091 604.138076 
L 237.954545 604.819812 
L 278.536364 605.03263 
L 356.318182 605.186471 
L 533.863636 605.271128 
L 622.636364 605.28095 
L 622.636364 605.28095 
" style="fill:none;stroke:#d62728;stroke-dasharray:9.6,2.4,1.5,2.4;stroke-dashoffset:0;stroke-width:1.5;"/>
   </g>
   <g id="line2d_21">
    <path clip-path="url(#p13105de78e)" d="M 115.363636 584.391293 
L 116.209091 584.384629 
L 117.054545 584.235933 
L 117.9 584.384006 
L 119.590909 584.295431 
L 121.281818 584.388697 
L 123.818182 584.358426 
L 127.2 584.363394 
L 133.963636 584.384639 
L 175.390909 584.400819 
L 183 584.482688 
L 186.381818 584.918311 
L 188.918182 585.66487 
L 189.763636 585.854022 
L 190.609091 587.218482 
L 191.454545 586.680789 
L 192.3 588.350524 
L 193.145455 588.892328 
L 193.990909 589.216564 
L 194.836364 592.263855 
L 195.681818 591.015701 
L 196.527273 591.557123 
L 197.372727 596.081618 
L 198.218182 595.500248 
L 199.063636 596.196539 
L 199.909091 599.404323 
L 200.754545 598.265394 
L 201.6 599.801605 
L 202.445455 600.748234 
L 203.290909 599.755424 
L 204.136364 601.898988 
L 204.981818 598.410297 
L 205.827273 594.33321 
L 206.672727 600.660242 
L 207.518182 579.09471 
L 208.363636 504.751998 
L 209.209091 600.845156 
L 210.054545 111.109091 
L 210.9 566.718857 
L 211.745455 593.842814 
L 212.590909 589.623479 
L 213.436364 583.093495 
L 214.281818 581.053952 
L 215.127273 581.18658 
L 216.818182 582.269695 
L 219.354545 584.234219 
L 220.2 584.572322 
L 221.045455 584.698943 
L 221.890909 584.692773 
L 223.581818 584.460693 
L 225.272727 584.567452 
L 227.809091 584.744473 
L 239.645455 585.502766 
L 243.027273 586.114131 
L 244.718182 586.635378 
L 246.409091 587.422589 
L 247.254545 587.967287 
L 249.790909 590.030267 
L 251.481818 591.704616 
L 252.327273 592.254847 
L 253.172727 592.671811 
L 254.018182 592.638087 
L 256.554545 594.101307 
L 258.245455 594.296209 
L 259.090909 595.585245 
L 259.936364 594.851506 
L 260.781818 595.211719 
L 261.627273 596.443529 
L 262.472727 596.294196 
L 263.318182 597.509387 
L 264.163636 597.12737 
L 265.009091 597.85097 
L 265.854545 597.768288 
L 266.7 598.209015 
L 267.545455 598.285385 
L 269.236364 598.783551 
L 270.081818 598.734305 
L 270.927273 599.159866 
L 271.772727 599.084402 
L 272.618182 599.413732 
L 274.309091 599.543353 
L 275.154545 599.740843 
L 276 599.710741 
L 276.845455 599.902625 
L 278.536364 599.988148 
L 279.381818 600.136562 
L 280.227273 600.133653 
L 281.918182 600.318198 
L 284.454545 600.508515 
L 290.372727 600.929812 
L 301.363636 601.451007 
L 313.2 601.82616 
L 330.109091 602.190432 
L 352.936364 602.705407 
L 356.318182 602.799187 
L 372.381818 603.058193 
L 401.127273 603.287765 
L 483.136364 603.700344 
L 622.636364 604.111587 
L 622.636364 604.111587 
" style="fill:none;stroke:#9467bd;stroke-linecap:square;stroke-width:1.5;"/>
   </g>
   <g id="line2d_22">
    <path clip-path="url(#p13105de78e)" d="M 115.363636 584.39158 
L 116.209091 584.384654 
L 117.054545 584.235948 
L 117.9 584.384023 
L 119.590909 584.295441 
L 121.281818 584.388712 
L 123.818182 584.358446 
L 127.2 584.363419 
L 133.963636 584.384659 
L 175.390909 584.398444 
L 182.154545 584.476786 
L 183.845455 584.600576 
L 184.690909 584.48142 
L 186.381818 584.828388 
L 187.227273 585.162172 
L 188.072727 585.369777 
L 188.918182 586.089938 
L 189.763636 584.87655 
L 190.609091 586.827874 
L 191.454545 587.358738 
L 192.3 587.411758 
L 193.145455 587.781341 
L 194.836364 592.065758 
L 195.681818 589.549182 
L 197.372727 595.271654 
L 198.218182 594.276542 
L 199.909091 599.252751 
L 200.754545 597.650927 
L 201.6 599.945118 
L 202.445455 601.087722 
L 203.290909 599.042527 
L 204.136364 601.910981 
L 204.981818 598.432385 
L 205.827273 593.195449 
L 206.672727 601.174772 
L 207.518182 584.562894 
L 208.363636 494.223464 
L 209.209091 600.915975 
L 210.054545 224.010021 
L 210.9 572.317547 
L 211.745455 592.694935 
L 212.590909 587.369499 
L 213.436364 579.114763 
L 214.281818 577.09768 
L 215.127273 577.505336 
L 216.818182 579.300573 
L 220.2 583.241118 
L 221.045455 583.666655 
L 221.890909 583.917984 
L 229.5 584.56452 
L 232.881818 584.638024 
L 238.8 585.141761 
L 240.490909 585.433621 
L 243.872727 586.240616 
L 245.563636 587.084038 
L 247.254545 588.183935 
L 248.945455 590.037055 
L 249.790909 590.543566 
L 250.636364 591.727476 
L 251.481818 592.612981 
L 253.172727 593.893088 
L 254.018182 593.782761 
L 254.863636 594.526649 
L 257.4 595.507096 
L 258.245455 595.196515 
L 259.090909 596.522565 
L 259.936364 595.921504 
L 260.781818 595.622129 
L 261.627273 596.882093 
L 262.472727 596.900037 
L 263.318182 597.899613 
L 264.163636 597.258817 
L 265.009091 598.03402 
L 265.854545 598.03777 
L 266.7 598.429475 
L 267.545455 598.380748 
L 268.390909 598.567799 
L 269.236364 598.945907 
L 270.081818 598.91805 
L 270.927273 599.301375 
L 271.772727 599.184235 
L 272.618182 599.557965 
L 287.836364 600.809978 
L 289.527273 600.867303 
L 292.063636 601.024232 
L 294.6 601.151629 
L 305.590909 601.609827 
L 352.936364 602.699168 
L 355.472727 602.777599 
L 370.690909 603.035341 
L 424.8 603.446348 
L 475.527273 603.66658 
L 514.418182 603.801033 
L 622.636364 604.102091 
L 622.636364 604.102091 
" style="fill:none;stroke:#9467bd;stroke-dasharray:9.6,2.4,1.5,2.4;stroke-dashoffset:0;stroke-width:1.5;"/>
   </g>
   <g id="line2d_23">
    <path clip-path="url(#p13105de78e)" d="M 115.363636 584.391293 
L 116.209091 584.355387 
L 117.054545 583.996085 
L 117.9 584.363683 
L 119.590909 584.159345 
L 121.281818 584.37831 
L 122.972727 584.265935 
L 125.509091 584.351134 
L 128.045455 584.366785 
L 188.072727 584.39415 
L 199.909091 584.471129 
L 203.290909 584.686911 
L 204.981818 585.078997 
L 205.827273 585.199152 
L 207.518182 586.35165 
L 208.363636 586.091634 
L 209.209091 585.602622 
L 210.054545 588.537605 
L 210.9 587.11945 
L 211.745455 589.585257 
L 212.590909 589.294096 
L 213.436364 590.715947 
L 214.281818 593.409674 
L 215.127273 592.222987 
L 215.972727 594.674547 
L 216.818182 598.060924 
L 217.663636 596.77504 
L 218.509091 597.143077 
L 219.354545 599.842302 
L 220.2 599.940029 
L 221.045455 600.161464 
L 221.890909 601.874108 
L 222.736364 599.817544 
L 223.581818 600.125588 
L 224.427273 602.986062 
L 225.272727 592.036105 
L 226.118182 567.86165 
L 226.963636 595.415938 
L 227.809091 558.702766 
L 228.654545 582.478641 
L 229.5 583.186925 
L 230.345455 580.817758 
L 231.190909 580.930547 
L 232.881818 582.719129 
L 233.727273 583.346717 
L 234.572727 583.827775 
L 235.418182 584.065565 
L 237.109091 583.833909 
L 237.954545 583.748605 
L 239.645455 583.887509 
L 242.181818 584.257718 
L 245.563636 584.905457 
L 248.1 585.020058 
L 252.327273 585.218132 
L 254.863636 585.505544 
L 256.554545 585.974888 
L 259.090909 586.873557 
L 261.627273 587.650536 
L 262.472727 588.223908 
L 263.318182 588.560969 
L 264.163636 589.189185 
L 265.009091 589.627522 
L 266.7 591.343352 
L 267.545455 592.058619 
L 268.390909 593.668819 
L 269.236364 594.67545 
L 270.081818 595.470222 
L 270.927273 596.05377 
L 272.618182 598.845659 
L 273.463636 598.394808 
L 274.309091 598.975049 
L 275.154545 600.513365 
L 276 600.225637 
L 276.845455 601.142174 
L 277.690909 601.363889 
L 278.536364 601.932752 
L 279.381818 601.887627 
L 280.227273 602.461808 
L 281.072727 602.451483 
L 281.918182 602.901256 
L 282.763636 602.91864 
L 286.990909 603.674379 
L 290.372727 603.963811 
L 292.063636 604.119098 
L 301.363636 604.580087 
L 312.354545 604.809406 
L 326.727273 604.969492 
L 363.081818 605.137462 
L 446.781818 605.239732 
L 622.636364 605.276144 
L 622.636364 605.276144 
" style="fill:none;stroke:#8c564b;stroke-linecap:square;stroke-width:1.5;"/>
   </g>
   <g id="line2d_24">
    <path clip-path="url(#p13105de78e)" d="M 115.363636 584.39158 
L 116.209091 584.355412 
L 117.054545 583.996105 
L 117.9 584.363703 
L 119.590909 584.159365 
L 121.281818 584.378325 
L 122.972727 584.265952 
L 125.509091 584.351149 
L 128.045455 584.366805 
L 188.918182 584.393537 
L 199.909091 584.451171 
L 201.6 584.603655 
L 202.445455 584.595441 
L 203.290909 584.801545 
L 204.981818 584.863506 
L 205.827273 585.44171 
L 206.672727 585.501702 
L 207.518182 585.808218 
L 208.363636 586.815387 
L 209.209091 584.283131 
L 210.054545 588.408268 
L 210.9 588.021386 
L 211.745455 588.520858 
L 212.590909 587.702117 
L 213.436364 591.460454 
L 214.281818 593.325374 
L 215.127273 590.528177 
L 215.972727 595.181108 
L 216.818182 597.787863 
L 217.663636 595.465308 
L 218.509091 597.914815 
L 219.354545 598.940088 
L 220.2 599.143888 
L 221.045455 600.74847 
L 221.890909 601.725426 
L 222.736364 599.109095 
L 224.427273 603.007152 
L 225.272727 588.615482 
L 226.118182 566.034395 
L 226.963636 592.434498 
L 227.809091 554.762601 
L 228.654545 582.371564 
L 229.5 584.919207 
L 230.345455 583.07804 
L 231.190909 583.075397 
L 232.036364 583.707751 
L 232.881818 584.185477 
L 234.572727 584.709854 
L 235.418182 584.697732 
L 237.954545 583.804231 
L 239.645455 583.758384 
L 241.336364 583.954057 
L 246.409091 585.068769 
L 248.945455 585.077615 
L 250.636364 585.134009 
L 252.327273 585.235781 
L 254.018182 585.342121 
L 255.709091 585.71353 
L 258.245455 586.651253 
L 260.781818 587.007766 
L 261.627273 587.554456 
L 262.472727 587.928254 
L 263.318182 588.088802 
L 264.163636 589.069987 
L 265.009091 589.800633 
L 266.7 590.782512 
L 267.545455 592.140854 
L 268.390909 593.263266 
L 269.236364 593.808691 
L 270.081818 595.679834 
L 270.927273 595.126905 
L 271.772727 597.711594 
L 272.618182 598.697338 
L 273.463636 597.498877 
L 274.309091 599.28083 
L 275.154545 600.294981 
L 276 599.671696 
L 276.845455 601.177282 
L 277.690909 601.533399 
L 278.536364 601.688374 
L 279.381818 601.495084 
L 280.227273 602.449386 
L 281.918182 602.911133 
L 282.763636 602.768813 
L 283.609091 602.956652 
L 284.454545 603.34264 
L 286.990909 603.591796 
L 287.836364 603.61288 
L 289.527273 603.972035 
L 294.6 604.298838 
L 301.363636 604.566541 
L 303.054545 604.591278 
L 305.590909 604.691874 
L 308.972727 604.760558 
L 315.736364 604.872914 
L 323.345455 604.941347 
L 334.336364 605.027861 
L 356.318182 605.125042 
L 434.945455 605.232598 
L 622.636364 605.275388 
L 622.636364 605.275388 
" style="fill:none;stroke:#8c564b;stroke-dasharray:9.6,2.4,1.5,2.4;stroke-dashoffset:0;stroke-width:1.5;"/>
   </g>
   <g id="line2d_25">
    <path clip-path="url(#p13105de78e)" d="M 115.363636 584.391293 
L 116.209091 584.292837 
L 117.054545 583.674079 
L 117.9 584.32188 
L 119.590909 583.973176 
L 120.436364 584.244031 
L 121.281818 584.366506 
L 122.972727 584.171745 
L 124.663636 584.350676 
L 127.2 584.315245 
L 131.427273 584.364478 
L 136.5 584.352861 
L 155.945455 584.389811 
L 201.6 584.464196 
L 205.827273 584.724032 
L 207.518182 585.143817 
L 208.363636 585.323318 
L 209.209091 585.026253 
L 210.054545 585.956845 
L 210.9 586.60825 
L 211.745455 586.729224 
L 212.590909 587.534632 
L 213.436364 589.564518 
L 214.281818 590.116823 
L 215.127273 582.902478 
L 215.972727 587.3021 
L 216.818182 589.644344 
L 217.663636 591.075415 
L 218.509091 588.757503 
L 219.354545 592.864278 
L 220.2 592.024851 
L 221.045455 594.025275 
L 221.890909 595.07487 
L 222.736364 594.494187 
L 223.581818 598.342215 
L 224.427273 594.55936 
L 225.272727 599.232976 
L 226.118182 596.227348 
L 226.963636 600.960691 
L 227.809091 596.50296 
L 228.654545 601.819211 
L 229.5 591.590322 
L 230.345455 601.674218 
L 231.190909 522.538671 
L 232.036364 590.71068 
L 232.881818 499.698301 
L 233.727273 546.483247 
L 234.572727 571.936682 
L 235.418182 578.969332 
L 236.263636 581.060888 
L 237.109091 582.209874 
L 237.954545 583.022656 
L 238.8 583.468428 
L 239.645455 583.300449 
L 240.490909 582.730946 
L 241.336364 582.310901 
L 242.181818 582.308758 
L 244.718182 583.101183 
L 247.254545 583.653974 
L 249.790909 584.226937 
L 253.172727 584.405006 
L 254.863636 584.365828 
L 257.4 584.198487 
L 269.236364 584.639416 
L 274.309091 584.754458 
L 284.454545 585.001461 
L 290.372727 585.276977 
L 292.909091 585.646445 
L 294.6 585.952974 
L 296.290909 586.360262 
L 297.136364 586.539424 
L 298.827273 587.110729 
L 299.672727 587.358291 
L 300.518182 587.459954 
L 301.363636 587.689016 
L 302.209091 588.296325 
L 303.054545 588.394199 
L 303.9 588.646327 
L 304.745455 589.280072 
L 305.590909 589.253115 
L 306.436364 589.629464 
L 307.281818 590.395359 
L 308.127273 590.147983 
L 308.972727 591.289643 
L 309.818182 591.387086 
L 310.663636 592.250991 
L 311.509091 592.907202 
L 312.354545 593.217154 
L 313.2 594.230149 
L 314.045455 594.334693 
L 314.890909 594.872498 
L 315.736364 595.936251 
L 316.581818 595.510721 
L 318.272727 597.055596 
L 319.118182 597.006023 
L 319.963636 598.172531 
L 320.809091 597.906422 
L 321.654545 598.931409 
L 322.5 598.83123 
L 323.345455 599.410168 
L 324.190909 599.579207 
L 325.881818 600.287975 
L 326.727273 600.412992 
L 327.572727 600.739152 
L 328.418182 600.769542 
L 329.263636 601.182351 
L 330.109091 601.169708 
L 330.954545 601.454994 
L 331.8 601.47016 
L 332.645455 601.741066 
L 333.490909 601.776103 
L 334.336364 601.96271 
L 336.027273 602.190578 
L 337.718182 602.427817 
L 339.409091 602.674609 
L 341.945455 602.956266 
L 350.4 603.563605 
L 361.390909 603.98657 
L 375.763636 604.349918 
L 378.3 604.428033 
L 382.527273 604.500268 
L 390.981818 604.685713 
L 419.727273 604.955129 
L 468.763636 605.098624 
L 594.736364 605.214678 
L 622.636364 605.225669 
L 622.636364 605.225669 
" style="fill:none;stroke:#e377c2;stroke-linecap:square;stroke-width:1.5;"/>
   </g>
   <g id="line2d_26">
    <path clip-path="url(#p13105de78e)" d="M 115.363636 584.39158 
L 116.209091 584.292862 
L 117.054545 583.674099 
L 117.9 584.3219 
L 119.590909 583.973201 
L 120.436364 584.244053 
L 121.281818 584.366521 
L 122.972727 584.17176 
L 124.663636 584.350691 
L 127.2 584.315255 
L 131.427273 584.36449 
L 136.5 584.352876 
L 155.945455 584.389838 
L 201.6 584.452338 
L 205.827273 584.623215 
L 206.672727 584.912462 
L 207.518182 585.057576 
L 208.363636 585.080513 
L 209.209091 585.521063 
L 210.054545 585.383811 
L 210.9 586.017815 
L 211.745455 587.344043 
L 212.590909 586.640816 
L 213.436364 589.31424 
L 214.281818 590.260906 
L 215.127273 579.353436 
L 215.972727 588.948603 
L 216.818182 590.703433 
L 217.663636 589.774628 
L 218.509091 586.476029 
L 219.354545 591.789759 
L 220.2 592.461705 
L 221.045455 594.643332 
L 221.890909 594.433608 
L 222.736364 593.268854 
L 223.581818 598.083128 
L 224.427273 594.488911 
L 225.272727 598.465456 
L 226.118182 594.712526 
L 226.963636 601.237839 
L 227.809091 596.876954 
L 228.654545 601.173657 
L 229.5 589.435005 
L 230.345455 602.163721 
L 231.190909 536.114606 
L 232.036364 588.063365 
L 232.881818 482.674415 
L 233.727273 537.870596 
L 234.572727 569.611825 
L 235.418182 578.56343 
L 236.263636 581.059393 
L 237.109091 582.38508 
L 237.954545 583.259577 
L 238.8 583.726112 
L 239.645455 583.549155 
L 240.490909 582.957045 
L 241.336364 582.508981 
L 242.181818 582.47809 
L 244.718182 583.194213 
L 247.254545 583.662086 
L 249.790909 584.220113 
L 253.172727 584.39729 
L 254.863636 584.354206 
L 257.4 584.182091 
L 278.536364 584.959098 
L 281.072727 585.046328 
L 290.372727 585.429155 
L 292.063636 585.63662 
L 297.981818 587.113117 
L 300.518182 587.724179 
L 301.363636 587.628846 
L 302.209091 588.340916 
L 303.054545 588.599716 
L 303.9 588.600027 
L 304.745455 589.33689 
L 305.590909 589.587451 
L 306.436364 589.650731 
L 307.281818 590.52454 
L 308.127273 590.609008 
L 308.972727 591.510883 
L 309.818182 591.550301 
L 310.663636 592.689892 
L 311.509091 593.343868 
L 312.354545 593.441916 
L 313.2 594.570133 
L 314.045455 594.95236 
L 314.890909 594.83714 
L 315.736364 595.975855 
L 317.427273 596.152931 
L 319.118182 597.751323 
L 319.963636 598.419061 
L 320.809091 597.797797 
L 321.654545 599.188435 
L 322.5 599.307139 
L 323.345455 599.308311 
L 324.190909 599.430614 
L 325.036364 600.205636 
L 325.881818 600.52285 
L 326.727273 600.283345 
L 328.418182 601.063529 
L 329.263636 601.289124 
L 330.109091 601.041831 
L 330.954545 601.505832 
L 331.8 601.67324 
L 332.645455 601.715807 
L 333.490909 601.637697 
L 334.336364 601.944884 
L 336.027273 602.148399 
L 336.872727 602.186113 
L 338.563636 602.563432 
L 339.409091 602.528439 
L 341.945455 602.936213 
L 343.636364 603.026764 
L 345.327273 603.17683 
L 356.318182 603.790618 
L 358.854545 603.889149 
L 369.845455 604.197222 
L 386.754545 604.601598 
L 390.136364 604.682537 
L 392.672727 604.698997 
L 396.054545 604.775663 
L 538.936364 605.181971 
L 622.636364 605.226252 
L 622.636364 605.226252 
" style="fill:none;stroke:#e377c2;stroke-dasharray:9.6,2.4,1.5,2.4;stroke-dashoffset:0;stroke-width:1.5;"/>
   </g>
   <g id="line2d_27">
    <path clip-path="url(#p13105de78e)" d="M 115.363636 584.391293 
L 116.209091 584.148554 
L 117.054545 583.333709 
L 117.9 584.209168 
L 118.745455 584.061315 
L 119.590909 583.757714 
L 121.281818 584.359804 
L 122.972727 584.045664 
L 124.663636 584.329364 
L 127.2 584.268287 
L 130.581818 584.339641 
L 144.109091 584.376599 
L 206.672727 584.449519 
L 210.054545 584.603945 
L 211.745455 584.700868 
L 213.436364 585.112701 
L 215.127273 585.801208 
L 216.818182 584.455619 
L 217.663636 587.00498 
L 218.509091 586.346053 
L 219.354545 587.251481 
L 220.2 588.75915 
L 221.045455 587.409769 
L 221.890909 587.845826 
L 222.736364 591.708487 
L 223.581818 591.677549 
L 224.427273 591.834142 
L 225.272727 594.676344 
L 226.118182 595.906821 
L 226.963636 598.432832 
L 227.809091 597.996045 
L 228.654545 593.970835 
L 229.5 575.40499 
L 230.345455 579.220912 
L 231.190909 597.596623 
L 232.036364 570.162106 
L 232.881818 579.083172 
L 233.727273 585.941273 
L 234.572727 587.347178 
L 236.263636 588.23827 
L 237.109091 588.231794 
L 237.954545 587.674217 
L 238.8 587.352701 
L 239.645455 587.643806 
L 243.027273 591.294554 
L 243.872727 592.488025 
L 245.563636 595.667734 
L 246.409091 596.639614 
L 247.254545 596.968359 
L 248.945455 598.209607 
L 249.790909 598.05132 
L 251.481818 600.033937 
L 252.327273 600.254891 
L 253.172727 601.313152 
L 254.018182 601.242171 
L 254.863636 602.004065 
L 255.709091 602.018339 
L 256.554545 602.712192 
L 257.4 602.775764 
L 258.245455 603.050594 
L 259.936364 603.199497 
L 260.781818 603.384868 
L 261.627273 603.43842 
L 262.472727 603.71816 
L 264.163636 604.011618 
L 266.7 604.277522 
L 270.927273 604.582362 
L 274.309091 604.745397 
L 299.672727 605.128329 
L 336.027273 605.214381 
L 478.063636 605.274582 
L 622.636364 605.283905 
L 622.636364 605.283905 
" style="fill:none;stroke:#7f7f7f;stroke-linecap:square;stroke-width:1.5;"/>
   </g>
   <g id="line2d_28">
    <path clip-path="url(#p13105de78e)" d="M 115.363636 584.39158 
L 116.209091 584.148577 
L 117.054545 583.333727 
L 117.9 584.209193 
L 118.745455 584.061335 
L 119.590909 583.757736 
L 121.281818 584.359822 
L 122.972727 584.045681 
L 124.663636 584.329379 
L 127.2 584.268299 
L 130.581818 584.339656 
L 144.109091 584.376616 
L 207.518182 584.441448 
L 210.9 584.591715 
L 211.745455 584.77724 
L 212.590909 584.787163 
L 214.281818 585.267552 
L 215.127273 585.749087 
L 215.972727 584.357831 
L 216.818182 585.189268 
L 217.663636 586.707649 
L 218.509091 585.624976 
L 219.354545 587.099749 
L 220.2 588.855868 
L 221.045455 586.003243 
L 221.890909 588.630886 
L 222.736364 590.870827 
L 223.581818 590.479148 
L 224.427273 591.944804 
L 225.272727 593.654807 
L 226.963636 598.347779 
L 227.809091 596.544089 
L 228.654545 596.755369 
L 229.5 568.150607 
L 230.345455 580.245126 
L 231.190909 597.718971 
L 232.036364 562.718081 
L 232.881818 575.462118 
L 233.727273 584.599274 
L 234.572727 587.093219 
L 236.263636 588.189929 
L 237.109091 588.298404 
L 237.954545 587.807802 
L 238.8 587.589188 
L 239.645455 587.922701 
L 243.027273 591.299488 
L 243.872727 592.337721 
L 245.563636 595.675903 
L 246.409091 596.546776 
L 247.254545 597.703643 
L 248.1 597.557949 
L 249.790909 599.043204 
L 250.636364 598.606056 
L 251.481818 599.792436 
L 252.327273 600.767925 
L 253.172727 601.329082 
L 254.018182 600.946137 
L 254.863636 602.015714 
L 256.554545 602.784326 
L 257.4 602.709009 
L 258.245455 603.049035 
L 259.936364 603.387727 
L 261.627273 603.412454 
L 262.472727 603.814464 
L 264.163636 604.156549 
L 265.854545 604.137905 
L 267.545455 604.400439 
L 272.618182 604.729955 
L 290.372727 605.079099 
L 408.736364 605.261775 
L 622.636364 605.28416 
L 622.636364 605.28416 
" style="fill:none;stroke:#7f7f7f;stroke-dasharray:9.6,2.4,1.5,2.4;stroke-dashoffset:0;stroke-width:1.5;"/>
   </g>
   <g id="line2d_29">
    <path clip-path="url(#p13105de78e)" d="M 115.363636 584.391293 
L 116.209091 583.667751 
L 117.054545 582.579174 
L 117.9 583.788657 
L 118.745455 583.844475 
L 119.590909 583.300571 
L 120.436364 583.707791 
L 121.281818 584.265992 
L 122.127273 584.09103 
L 122.972727 583.754138 
L 123.818182 583.911202 
L 124.663636 584.233714 
L 125.509091 584.254465 
L 126.354545 584.107815 
L 127.2 584.091683 
L 128.890909 584.244584 
L 215.972727 584.536347 
L 220.2 584.865061 
L 221.045455 585.250744 
L 221.890909 585.048493 
L 223.581818 586.185897 
L 225.272727 586.187594 
L 226.118182 587.264664 
L 226.963636 587.442268 
L 227.809091 588.883234 
L 228.654545 586.038539 
L 229.5 581.453749 
L 230.345455 591.712892 
L 231.190909 587.087983 
L 232.036364 590.490301 
L 232.881818 590.823277 
L 233.727273 591.44118 
L 234.572727 591.625035 
L 235.418182 592.388473 
L 236.263636 594.950505 
L 237.109091 594.045537 
L 237.954545 596.407646 
L 238.8 597.663328 
L 239.645455 599.411584 
L 240.490909 599.156155 
L 241.336364 601.253082 
L 242.181818 602.535901 
L 243.027273 602.502961 
L 243.872727 603.615492 
L 244.718182 604.36971 
L 245.563636 604.666862 
L 246.409091 604.60578 
L 247.254545 604.845749 
L 252.327273 605.186048 
L 285.3 605.286334 
L 511.881818 605.290158 
L 622.636364 605.290415 
L 622.636364 605.290415 
" style="fill:none;stroke:#bcbd22;stroke-linecap:square;stroke-width:1.5;"/>
   </g>
   <g id="line2d_30">
    <path clip-path="url(#p13105de78e)" d="M 115.363636 584.39158 
L 116.209091 583.667776 
L 117.054545 582.579194 
L 117.9 583.788682 
L 118.745455 583.844502 
L 119.590909 583.300596 
L 120.436364 583.707816 
L 121.281818 584.266012 
L 122.127273 584.091045 
L 122.972727 583.754153 
L 123.818182 583.911212 
L 124.663636 584.233729 
L 125.509091 584.25448 
L 126.354545 584.107827 
L 127.2 584.091695 
L 128.890909 584.244596 
L 215.972727 584.516005 
L 219.354545 584.939732 
L 220.2 584.715695 
L 221.045455 585.204499 
L 221.890909 585.429121 
L 222.736364 585.112178 
L 223.581818 585.803752 
L 224.427273 586.77576 
L 225.272727 585.437968 
L 226.118182 588.049948 
L 226.963636 586.423516 
L 227.809091 588.128524 
L 228.654545 587.800201 
L 229.5 578.258643 
L 230.345455 591.270756 
L 231.190909 588.283954 
L 232.036364 590.687187 
L 232.881818 589.869555 
L 233.727273 590.452304 
L 234.572727 592.062854 
L 235.418182 592.801054 
L 236.263636 594.519365 
L 237.109091 593.400619 
L 237.954545 596.653168 
L 238.8 598.101648 
L 239.645455 598.77717 
L 240.490909 597.931793 
L 241.336364 601.594109 
L 242.181818 602.678141 
L 243.027273 602.261995 
L 243.872727 603.462124 
L 244.718182 604.365062 
L 245.563636 604.692816 
L 246.409091 604.557313 
L 247.254545 604.797101 
L 248.1 604.828216 
L 249.790909 605.132818 
L 251.481818 605.200768 
L 257.4 605.246125 
L 283.609091 605.285665 
L 622.636364 605.29027 
L 622.636364 605.29027 
" style="fill:none;stroke:#bcbd22;stroke-dasharray:9.6,2.4,1.5,2.4;stroke-dashoffset:0;stroke-width:1.5;"/>
   </g>
   <g id="patch_4">
    <path d="M 90 630 
L 90 86.4 
" style="fill:none;stroke:#000000;stroke-linecap:square;stroke-linejoin:miter;stroke-width:0.8;"/>
   </g>
   <g id="patch_5">
    <path d="M 648 630 
L 648 86.4 
" style="fill:none;stroke:#000000;stroke-linecap:square;stroke-linejoin:miter;stroke-width:0.8;"/>
   </g>
   <g id="patch_6">
    <path d="M 90 630 
L 648 630 
" style="fill:none;stroke:#000000;stroke-linecap:square;stroke-linejoin:miter;stroke-width:0.8;"/>
   </g>
   <g id="patch_7">
    <path d="M 90 86.4 
L 648 86.4 
" style="fill:none;stroke:#000000;stroke-linecap:square;stroke-linejoin:miter;stroke-width:0.8;"/>
   </g>
   <g id="text_15">
    <!-- Class separation -->
    <g transform="translate(324.190909 575.64)scale(0.1 -0.1)">
     <defs>
      <path d="M 64.40625 67.28125 
L 64.40625 56.890625 
Q 59.421875 61.53125 53.78125 63.8125 
Q 48.140625 66.109375 41.796875 66.109375 
Q 29.296875 66.109375 22.65625 58.46875 
Q 16.015625 50.828125 16.015625 36.375 
Q 16.015625 21.96875 22.65625 14.328125 
Q 29.296875 6.6875 41.796875 6.6875 
Q 48.140625 6.6875 53.78125 8.984375 
Q 59.421875 11.28125 64.40625 15.921875 
L 64.40625 5.609375 
Q 59.234375 2.09375 53.4375 0.328125 
Q 47.65625 -1.421875 41.21875 -1.421875 
Q 24.65625 -1.421875 15.125 8.703125 
Q 5.609375 18.84375 5.609375 36.375 
Q 5.609375 53.953125 15.125 64.078125 
Q 24.65625 74.21875 41.21875 74.21875 
Q 47.75 74.21875 53.53125 72.484375 
Q 59.328125 70.75 64.40625 67.28125 
z
" id="DejaVuSans-67"/>
      <path d="M 9.421875 75.984375 
L 18.40625 75.984375 
L 18.40625 0 
L 9.421875 0 
z
" id="DejaVuSans-108"/>
      <path d="M 34.28125 27.484375 
Q 23.390625 27.484375 19.1875 25 
Q 14.984375 22.515625 14.984375 16.5 
Q 14.984375 11.71875 18.140625 8.90625 
Q 21.296875 6.109375 26.703125 6.109375 
Q 34.1875 6.109375 38.703125 11.40625 
Q 43.21875 16.703125 43.21875 25.484375 
L 43.21875 27.484375 
z
M 52.203125 31.203125 
L 52.203125 0 
L 43.21875 0 
L 43.21875 8.296875 
Q 40.140625 3.328125 35.546875 0.953125 
Q 30.953125 -1.421875 24.3125 -1.421875 
Q 15.921875 -1.421875 10.953125 3.296875 
Q 6 8.015625 6 15.921875 
Q 6 25.140625 12.171875 29.828125 
Q 18.359375 34.515625 30.609375 34.515625 
L 43.21875 34.515625 
L 43.21875 35.40625 
Q 43.21875 41.609375 39.140625 45 
Q 35.0625 48.390625 27.6875 48.390625 
Q 23 48.390625 18.546875 47.265625 
Q 14.109375 46.140625 10.015625 43.890625 
L 10.015625 52.203125 
Q 14.9375 54.109375 19.578125 55.046875 
Q 24.21875 56 28.609375 56 
Q 40.484375 56 46.34375 49.84375 
Q 52.203125 43.703125 52.203125 31.203125 
z
" id="DejaVuSans-97"/>
      <path id="DejaVuSans-32"/>
      <path d="M 56.203125 29.59375 
L 56.203125 25.203125 
L 14.890625 25.203125 
Q 15.484375 15.921875 20.484375 11.0625 
Q 25.484375 6.203125 34.421875 6.203125 
Q 39.59375 6.203125 44.453125 7.46875 
Q 49.3125 8.734375 54.109375 11.28125 
L 54.109375 2.78125 
Q 49.265625 0.734375 44.1875 -0.34375 
Q 39.109375 -1.421875 33.890625 -1.421875 
Q 20.796875 -1.421875 13.15625 6.1875 
Q 5.515625 13.8125 5.515625 26.8125 
Q 5.515625 40.234375 12.765625 48.109375 
Q 20.015625 56 32.328125 56 
Q 43.359375 56 49.78125 48.890625 
Q 56.203125 41.796875 56.203125 29.59375 
z
M 47.21875 32.234375 
Q 47.125 39.59375 43.09375 43.984375 
Q 39.0625 48.390625 32.421875 48.390625 
Q 24.90625 48.390625 20.390625 44.140625 
Q 15.875 39.890625 15.1875 32.171875 
z
" id="DejaVuSans-101"/>
      <path d="M 41.109375 46.296875 
Q 39.59375 47.171875 37.8125 47.578125 
Q 36.03125 48 33.890625 48 
Q 26.265625 48 22.1875 43.046875 
Q 18.109375 38.09375 18.109375 28.8125 
L 18.109375 0 
L 9.078125 0 
L 9.078125 54.6875 
L 18.109375 54.6875 
L 18.109375 46.1875 
Q 20.953125 51.171875 25.484375 53.578125 
Q 30.03125 56 36.53125 56 
Q 37.453125 56 38.578125 55.875 
Q 39.703125 55.765625 41.0625 55.515625 
z
" id="DejaVuSans-114"/>
      <path d="M 18.3125 70.21875 
L 18.3125 54.6875 
L 36.8125 54.6875 
L 36.8125 47.703125 
L 18.3125 47.703125 
L 18.3125 18.015625 
Q 18.3125 11.328125 20.140625 9.421875 
Q 21.96875 7.515625 27.59375 7.515625 
L 36.8125 7.515625 
L 36.8125 0 
L 27.59375 0 
Q 17.1875 0 13.234375 3.875 
Q 9.28125 7.765625 9.28125 18.015625 
L 9.28125 47.703125 
L 2.6875 47.703125 
L 2.6875 54.6875 
L 9.28125 54.6875 
L 9.28125 70.21875 
z
" id="DejaVuSans-116"/>
      <path d="M 9.421875 54.6875 
L 18.40625 54.6875 
L 18.40625 0 
L 9.421875 0 
z
M 9.421875 75.984375 
L 18.40625 75.984375 
L 18.40625 64.59375 
L 9.421875 64.59375 
z
" id="DejaVuSans-105"/>
      <path d="M 54.890625 33.015625 
L 54.890625 0 
L 45.90625 0 
L 45.90625 32.71875 
Q 45.90625 40.484375 42.875 44.328125 
Q 39.84375 48.1875 33.796875 48.1875 
Q 26.515625 48.1875 22.3125 43.546875 
Q 18.109375 38.921875 18.109375 30.90625 
L 18.109375 0 
L 9.078125 0 
L 9.078125 54.6875 
L 18.109375 54.6875 
L 18.109375 46.1875 
Q 21.34375 51.125 25.703125 53.5625 
Q 30.078125 56 35.796875 56 
Q 45.21875 56 50.046875 50.171875 
Q 54.890625 44.34375 54.890625 33.015625 
z
" id="DejaVuSans-110"/>
     </defs>
     <use xlink:href="#DejaVuSans-67"/>
     <use x="69.824219" xlink:href="#DejaVuSans-108"/>
     <use x="97.607422" xlink:href="#DejaVuSans-97"/>
     <use x="158.886719" xlink:href="#DejaVuSans-115"/>
     <use x="210.986328" xlink:href="#DejaVuSans-115"/>
     <use x="263.085938" xlink:href="#DejaVuSans-32"/>
     <use x="294.873047" xlink:href="#DejaVuSans-115"/>
     <use x="346.972656" xlink:href="#DejaVuSans-101"/>
     <use x="408.496094" xlink:href="#DejaVuSans-112"/>
     <use x="471.972656" xlink:href="#DejaVuSans-97"/>
     <use x="533.251953" xlink:href="#DejaVuSans-114"/>
     <use x="574.365234" xlink:href="#DejaVuSans-97"/>
     <use x="635.644531" xlink:href="#DejaVuSans-116"/>
     <use x="674.853516" xlink:href="#DejaVuSans-105"/>
     <use x="702.636719" xlink:href="#DejaVuSans-111"/>
     <use x="763.818359" xlink:href="#DejaVuSans-110"/>
    </g>
   </g>
   <g id="text_16">
    <!-- Training progress -->
    <g transform="translate(300.36875 66.4)scale(0.16 -0.16)">
     <defs>
      <path d="M -0.296875 72.90625 
L 61.375 72.90625 
L 61.375 64.59375 
L 35.5 64.59375 
L 35.5 0 
L 25.59375 0 
L 25.59375 64.59375 
L -0.296875 64.59375 
z
" id="DejaVuSans-84"/>
      <path d="M 45.40625 27.984375 
Q 45.40625 37.75 41.375 43.109375 
Q 37.359375 48.484375 30.078125 48.484375 
Q 22.859375 48.484375 18.828125 43.109375 
Q 14.796875 37.75 14.796875 27.984375 
Q 14.796875 18.265625 18.828125 12.890625 
Q 22.859375 7.515625 30.078125 7.515625 
Q 37.359375 7.515625 41.375 12.890625 
Q 45.40625 18.265625 45.40625 27.984375 
z
M 54.390625 6.78125 
Q 54.390625 -7.171875 48.1875 -13.984375 
Q 42 -20.796875 29.203125 -20.796875 
Q 24.46875 -20.796875 20.265625 -20.09375 
Q 16.0625 -19.390625 12.109375 -17.921875 
L 12.109375 -9.1875 
Q 16.0625 -11.328125 19.921875 -12.34375 
Q 23.78125 -13.375 27.78125 -13.375 
Q 36.625 -13.375 41.015625 -8.765625 
Q 45.40625 -4.15625 45.40625 5.171875 
L 45.40625 9.625 
Q 42.625 4.78125 38.28125 2.390625 
Q 33.9375 0 27.875 0 
Q 17.828125 0 11.671875 7.65625 
Q 5.515625 15.328125 5.515625 27.984375 
Q 5.515625 40.671875 11.671875 48.328125 
Q 17.828125 56 27.875 56 
Q 33.9375 56 38.28125 53.609375 
Q 42.625 51.21875 45.40625 46.390625 
L 45.40625 54.6875 
L 54.390625 54.6875 
z
" id="DejaVuSans-103"/>
     </defs>
     <use xlink:href="#DejaVuSans-84"/>
     <use x="46.333984" xlink:href="#DejaVuSans-114"/>
     <use x="87.447266" xlink:href="#DejaVuSans-97"/>
     <use x="148.726562" xlink:href="#DejaVuSans-105"/>
     <use x="176.509766" xlink:href="#DejaVuSans-110"/>
     <use x="239.888672" xlink:href="#DejaVuSans-105"/>
     <use x="267.671875" xlink:href="#DejaVuSans-110"/>
     <use x="331.050781" xlink:href="#DejaVuSans-103"/>
     <use x="394.527344" xlink:href="#DejaVuSans-32"/>
     <use x="426.314453" xlink:href="#DejaVuSans-112"/>
     <use x="489.791016" xlink:href="#DejaVuSans-114"/>
     <use x="528.654297" xlink:href="#DejaVuSans-111"/>
     <use x="589.835938" xlink:href="#DejaVuSans-103"/>
     <use x="653.3125" xlink:href="#DejaVuSans-114"/>
     <use x="692.175781" xlink:href="#DejaVuSans-101"/>
     <use x="753.699219" xlink:href="#DejaVuSans-115"/>
     <use x="805.798828" xlink:href="#DejaVuSans-115"/>
    </g>
   </g>
   <g id="legend_1">
    <g id="line2d_31">
     <path d="M 99 675.714438 
L 119 675.714438 
" style="fill:none;stroke:#1f77b4;stroke-linecap:square;stroke-width:1.5;"/>
    </g>
    <g id="line2d_32"/>
    <g id="text_17">
     <!-- Baseline -->
     <g transform="translate(127 679.214438)scale(0.1 -0.1)">
      <defs>
       <path d="M 19.671875 34.8125 
L 19.671875 8.109375 
L 35.5 8.109375 
Q 43.453125 8.109375 47.28125 11.40625 
Q 51.125 14.703125 51.125 21.484375 
Q 51.125 28.328125 47.28125 31.5625 
Q 43.453125 34.8125 35.5 34.8125 
z
M 19.671875 64.796875 
L 19.671875 42.828125 
L 34.28125 42.828125 
Q 41.5 42.828125 45.03125 45.53125 
Q 48.578125 48.25 48.578125 53.8125 
Q 48.578125 59.328125 45.03125 62.0625 
Q 41.5 64.796875 34.28125 64.796875 
z
M 9.8125 72.90625 
L 35.015625 72.90625 
Q 46.296875 72.90625 52.390625 68.21875 
Q 58.5 63.53125 58.5 54.890625 
Q 58.5 48.1875 55.375 44.234375 
Q 52.25 40.28125 46.1875 39.3125 
Q 53.46875 37.75 57.5 32.78125 
Q 61.53125 27.828125 61.53125 20.40625 
Q 61.53125 10.640625 54.890625 5.3125 
Q 48.25 0 35.984375 0 
L 9.8125 0 
z
" id="DejaVuSans-66"/>
      </defs>
      <use xlink:href="#DejaVuSans-66"/>
      <use x="68.603516" xlink:href="#DejaVuSans-97"/>
      <use x="129.882812" xlink:href="#DejaVuSans-115"/>
      <use x="181.982422" xlink:href="#DejaVuSans-101"/>
      <use x="243.505859" xlink:href="#DejaVuSans-108"/>
      <use x="271.289062" xlink:href="#DejaVuSans-105"/>
      <use x="299.072266" xlink:href="#DejaVuSans-110"/>
      <use x="362.451172" xlink:href="#DejaVuSans-101"/>
     </g>
    </g>
    <g id="line2d_33">
     <path d="M 99 690.392563 
L 119 690.392563 
" style="fill:none;stroke:#ff7f0e;stroke-linecap:square;stroke-width:1.5;"/>
    </g>
    <g id="line2d_34"/>
    <g id="text_18">
     <!-- Forced normaliz. -->
     <g transform="translate(127 693.892563)scale(0.1 -0.1)">
      <defs>
       <path d="M 9.8125 72.90625 
L 51.703125 72.90625 
L 51.703125 64.59375 
L 19.671875 64.59375 
L 19.671875 43.109375 
L 48.578125 43.109375 
L 48.578125 34.8125 
L 19.671875 34.8125 
L 19.671875 0 
L 9.8125 0 
z
" id="DejaVuSans-70"/>
       <path d="M 45.40625 46.390625 
L 45.40625 75.984375 
L 54.390625 75.984375 
L 54.390625 0 
L 45.40625 0 
L 45.40625 8.203125 
Q 42.578125 3.328125 38.25 0.953125 
Q 33.9375 -1.421875 27.875 -1.421875 
Q 17.96875 -1.421875 11.734375 6.484375 
Q 5.515625 14.40625 5.515625 27.296875 
Q 5.515625 40.1875 11.734375 48.09375 
Q 17.96875 56 27.875 56 
Q 33.9375 56 38.25 53.625 
Q 42.578125 51.265625 45.40625 46.390625 
z
M 14.796875 27.296875 
Q 14.796875 17.390625 18.875 11.75 
Q 22.953125 6.109375 30.078125 6.109375 
Q 37.203125 6.109375 41.296875 11.75 
Q 45.40625 17.390625 45.40625 27.296875 
Q 45.40625 37.203125 41.296875 42.84375 
Q 37.203125 48.484375 30.078125 48.484375 
Q 22.953125 48.484375 18.875 42.84375 
Q 14.796875 37.203125 14.796875 27.296875 
z
" id="DejaVuSans-100"/>
       <path d="M 52 44.1875 
Q 55.375 50.25 60.0625 53.125 
Q 64.75 56 71.09375 56 
Q 79.640625 56 84.28125 50.015625 
Q 88.921875 44.046875 88.921875 33.015625 
L 88.921875 0 
L 79.890625 0 
L 79.890625 32.71875 
Q 79.890625 40.578125 77.09375 44.375 
Q 74.3125 48.1875 68.609375 48.1875 
Q 61.625 48.1875 57.5625 43.546875 
Q 53.515625 38.921875 53.515625 30.90625 
L 53.515625 0 
L 44.484375 0 
L 44.484375 32.71875 
Q 44.484375 40.625 41.703125 44.40625 
Q 38.921875 48.1875 33.109375 48.1875 
Q 26.21875 48.1875 22.15625 43.53125 
Q 18.109375 38.875 18.109375 30.90625 
L 18.109375 0 
L 9.078125 0 
L 9.078125 54.6875 
L 18.109375 54.6875 
L 18.109375 46.1875 
Q 21.1875 51.21875 25.484375 53.609375 
Q 29.78125 56 35.6875 56 
Q 41.65625 56 45.828125 52.96875 
Q 50 49.953125 52 44.1875 
z
" id="DejaVuSans-109"/>
       <path d="M 5.515625 54.6875 
L 48.1875 54.6875 
L 48.1875 46.484375 
L 14.40625 7.171875 
L 48.1875 7.171875 
L 48.1875 0 
L 4.296875 0 
L 4.296875 8.203125 
L 38.09375 47.515625 
L 5.515625 47.515625 
z
" id="DejaVuSans-122"/>
       <path d="M 10.6875 12.40625 
L 21 12.40625 
L 21 0 
L 10.6875 0 
z
" id="DejaVuSans-46"/>
      </defs>
      <use xlink:href="#DejaVuSans-70"/>
      <use x="53.894531" xlink:href="#DejaVuSans-111"/>
      <use x="115.076172" xlink:href="#DejaVuSans-114"/>
      <use x="153.939453" xlink:href="#DejaVuSans-99"/>
      <use x="208.919922" xlink:href="#DejaVuSans-101"/>
      <use x="270.443359" xlink:href="#DejaVuSans-100"/>
      <use x="333.919922" xlink:href="#DejaVuSans-32"/>
      <use x="365.707031" xlink:href="#DejaVuSans-110"/>
      <use x="429.085938" xlink:href="#DejaVuSans-111"/>
      <use x="490.267578" xlink:href="#DejaVuSans-114"/>
      <use x="529.630859" xlink:href="#DejaVuSans-109"/>
      <use x="627.042969" xlink:href="#DejaVuSans-97"/>
      <use x="688.322266" xlink:href="#DejaVuSans-108"/>
      <use x="716.105469" xlink:href="#DejaVuSans-105"/>
      <use x="743.888672" xlink:href="#DejaVuSans-122"/>
      <use x="796.378906" xlink:href="#DejaVuSans-46"/>
     </g>
    </g>
    <g id="line2d_35">
     <path d="M 99 705.070687 
L 119 705.070687 
" style="fill:none;stroke:#2ca02c;stroke-linecap:square;stroke-width:1.5;"/>
    </g>
    <g id="line2d_36"/>
    <g id="text_19">
     <!-- $\lambda=0.005$ -->
     <g transform="translate(127 708.570687)scale(0.1 -0.1)">
      <defs>
       <path d="M 36.71875 67.4375 
L 48.828125 0 
L 39.3125 0 
L 31.84375 40.4375 
L 5.125 0 
L -4.390625 0 
L 29.734375 52.4375 
L 28.03125 62.109375 
Q 26.953125 68.265625 21.734375 68.265625 
L 17.046875 68.265625 
L 18.5 75.984375 
L 24.21875 75.875 
Q 35.203125 75.734375 36.71875 67.4375 
z
" id="DejaVuSans-Oblique-955"/>
       <path d="M 10.59375 45.40625 
L 73.1875 45.40625 
L 73.1875 37.203125 
L 10.59375 37.203125 
z
M 10.59375 25.484375 
L 73.1875 25.484375 
L 73.1875 17.1875 
L 10.59375 17.1875 
z
" id="DejaVuSans-61"/>
      </defs>
      <use transform="translate(0 0.015625)" xlink:href="#DejaVuSans-Oblique-955"/>
      <use transform="translate(78.662109 0.015625)" xlink:href="#DejaVuSans-61"/>
      <use transform="translate(181.933594 0.015625)" xlink:href="#DejaVuSans-48"/>
      <use transform="translate(245.556641 0.015625)" xlink:href="#DejaVuSans-46"/>
      <use transform="translate(277.34375 0.015625)" xlink:href="#DejaVuSans-48"/>
      <use transform="translate(340.966797 0.015625)" xlink:href="#DejaVuSans-48"/>
      <use transform="translate(404.589844 0.015625)" xlink:href="#DejaVuSans-53"/>
     </g>
    </g>
    <g id="line2d_37">
     <path d="M 229.815625 675.714438 
L 249.815625 675.714438 
" style="fill:none;stroke:#d62728;stroke-linecap:square;stroke-width:1.5;"/>
    </g>
    <g id="line2d_38"/>
    <g id="text_20">
     <!-- $\lambda=0.05$ -->
     <g transform="translate(257.815625 679.214438)scale(0.1 -0.1)">
      <use transform="translate(0 0.015625)" xlink:href="#DejaVuSans-Oblique-955"/>
      <use transform="translate(78.662109 0.015625)" xlink:href="#DejaVuSans-61"/>
      <use transform="translate(181.933594 0.015625)" xlink:href="#DejaVuSans-48"/>
      <use transform="translate(245.556641 0.015625)" xlink:href="#DejaVuSans-46"/>
      <use transform="translate(277.34375 0.015625)" xlink:href="#DejaVuSans-48"/>
      <use transform="translate(340.966797 0.015625)" xlink:href="#DejaVuSans-53"/>
     </g>
    </g>
    <g id="line2d_39">
     <path d="M 229.815625 690.392563 
L 249.815625 690.392563 
" style="fill:none;stroke:#9467bd;stroke-linecap:square;stroke-width:1.5;"/>
    </g>
    <g id="line2d_40"/>
    <g id="text_21">
     <!-- $\lambda=0.5$ -->
     <g transform="translate(257.815625 693.892563)scale(0.1 -0.1)">
      <use transform="translate(0 0.015625)" xlink:href="#DejaVuSans-Oblique-955"/>
      <use transform="translate(78.662109 0.015625)" xlink:href="#DejaVuSans-61"/>
      <use transform="translate(181.933594 0.015625)" xlink:href="#DejaVuSans-48"/>
      <use transform="translate(245.556641 0.015625)" xlink:href="#DejaVuSans-46"/>
      <use transform="translate(277.34375 0.015625)" xlink:href="#DejaVuSans-53"/>
     </g>
    </g>
    <g id="line2d_41">
     <path d="M 229.815625 705.070687 
L 249.815625 705.070687 
" style="fill:none;stroke:#8c564b;stroke-linecap:square;stroke-width:1.5;"/>
    </g>
    <g id="line2d_42"/>
    <g id="text_22">
     <!-- $\lambda=1.5$ -->
     <g transform="translate(257.815625 708.570687)scale(0.1 -0.1)">
      <use transform="translate(0 0.015625)" xlink:href="#DejaVuSans-Oblique-955"/>
      <use transform="translate(78.662109 0.015625)" xlink:href="#DejaVuSans-61"/>
      <use transform="translate(181.933594 0.015625)" xlink:href="#DejaVuSans-49"/>
      <use transform="translate(245.556641 0.015625)" xlink:href="#DejaVuSans-46"/>
      <use transform="translate(277.34375 0.015625)" xlink:href="#DejaVuSans-53"/>
     </g>
    </g>
    <g id="line2d_43">
     <path d="M 318.315625 675.714438 
L 338.315625 675.714438 
" style="fill:none;stroke:#e377c2;stroke-linecap:square;stroke-width:1.5;"/>
    </g>
    <g id="line2d_44"/>
    <g id="text_23">
     <!-- $\lambda=3$ -->
     <g transform="translate(346.315625 679.214438)scale(0.1 -0.1)">
      <use transform="translate(0 0.015625)" xlink:href="#DejaVuSans-Oblique-955"/>
      <use transform="translate(78.662109 0.015625)" xlink:href="#DejaVuSans-61"/>
      <use transform="translate(181.933594 0.015625)" xlink:href="#DejaVuSans-51"/>
     </g>
    </g>
    <g id="line2d_45">
     <path d="M 318.315625 690.392563 
L 338.315625 690.392563 
" style="fill:none;stroke:#7f7f7f;stroke-linecap:square;stroke-width:1.5;"/>
    </g>
    <g id="line2d_46"/>
    <g id="text_24">
     <!-- $\lambda=5$ -->
     <g transform="translate(346.315625 693.892563)scale(0.1 -0.1)">
      <use transform="translate(0 0.015625)" xlink:href="#DejaVuSans-Oblique-955"/>
      <use transform="translate(78.662109 0.015625)" xlink:href="#DejaVuSans-61"/>
      <use transform="translate(181.933594 0.015625)" xlink:href="#DejaVuSans-53"/>
     </g>
    </g>
    <g id="line2d_47">
     <path d="M 318.315625 705.070687 
L 338.315625 705.070687 
" style="fill:none;stroke:#bcbd22;stroke-linecap:square;stroke-width:1.5;"/>
    </g>
    <g id="line2d_48"/>
    <g id="text_25">
     <!-- $\lambda=10$ -->
     <g transform="translate(346.315625 708.570687)scale(0.1 -0.1)">
      <use transform="translate(0 0.015625)" xlink:href="#DejaVuSans-Oblique-955"/>
      <use transform="translate(78.662109 0.015625)" xlink:href="#DejaVuSans-61"/>
      <use transform="translate(181.933594 0.015625)" xlink:href="#DejaVuSans-49"/>
      <use transform="translate(245.556641 0.015625)" xlink:href="#DejaVuSans-48"/>
     </g>
    </g>
   </g>
   <g id="legend_2">
    <g id="line2d_49">
     <path d="M 561.765625 675.714438 
L 581.765625 675.714438 
" style="fill:none;stroke:#bcbd22;stroke-linecap:square;stroke-width:1.5;"/>
    </g>
    <g id="line2d_50"/>
    <g id="text_26">
     <!-- train -->
     <g transform="translate(589.765625 679.214438)scale(0.1 -0.1)">
      <use xlink:href="#DejaVuSans-116"/>
      <use x="39.208984" xlink:href="#DejaVuSans-114"/>
      <use x="80.322266" xlink:href="#DejaVuSans-97"/>
      <use x="141.601562" xlink:href="#DejaVuSans-105"/>
      <use x="169.384766" xlink:href="#DejaVuSans-110"/>
     </g>
    </g>
    <g id="line2d_51">
     <path d="M 561.765625 690.392563 
L 581.765625 690.392563 
" style="fill:none;stroke:#bcbd22;stroke-dasharray:9.6,2.4,1.5,2.4;stroke-dashoffset:0;stroke-width:1.5;"/>
    </g>
    <g id="line2d_52"/>
    <g id="text_27">
     <!-- validation -->
     <g transform="translate(589.765625 693.892563)scale(0.1 -0.1)">
      <defs>
       <path d="M 2.984375 54.6875 
L 12.5 54.6875 
L 29.59375 8.796875 
L 46.6875 54.6875 
L 56.203125 54.6875 
L 35.6875 0 
L 23.484375 0 
z
" id="DejaVuSans-118"/>
      </defs>
      <use xlink:href="#DejaVuSans-118"/>
      <use x="59.179688" xlink:href="#DejaVuSans-97"/>
      <use x="120.458984" xlink:href="#DejaVuSans-108"/>
      <use x="148.242188" xlink:href="#DejaVuSans-105"/>
      <use x="176.025391" xlink:href="#DejaVuSans-100"/>
      <use x="239.501953" xlink:href="#DejaVuSans-97"/>
      <use x="300.78125" xlink:href="#DejaVuSans-116"/>
      <use x="339.990234" xlink:href="#DejaVuSans-105"/>
      <use x="367.773438" xlink:href="#DejaVuSans-111"/>
      <use x="428.955078" xlink:href="#DejaVuSans-110"/>
     </g>
    </g>
   </g>
  </g>
 </g>
 <defs>
  <clipPath id="p13105de78e">
   <rect height="543.6" width="558" x="90" y="86.4"/>
  </clipPath>
 </defs>
</svg>
