<?xml version="1.0" encoding="UTF-8" standalone="no"?>
<svg
   xmlns:ns1="http://www.iki.fi/pav/software/textext/"
   xmlns:dc="http://purl.org/dc/elements/1.1/"
   xmlns:cc="http://creativecommons.org/ns#"
   xmlns:rdf="http://www.w3.org/1999/02/22-rdf-syntax-ns#"
   xmlns:svg="http://www.w3.org/2000/svg"
   xmlns="http://www.w3.org/2000/svg"
   xmlns:sodipodi="http://sodipodi.sourceforge.net/DTD/sodipodi-0.dtd"
   xmlns:inkscape="http://www.inkscape.org/namespaces/inkscape"
   viewBox="0 0 218 137.1281"
   version="1.1"
   id="svg235"
   sodipodi:docname="gen_vs_disc.svg"
   inkscape:version="0.92.4 (unknown)"
   width="218"
   height="137.1281">
  <metadata
     id="metadata239">
    <rdf:RDF>
      <cc:Work
         rdf:about="">
        <dc:format>image/svg+xml</dc:format>
        <dc:type
           rdf:resource="http://purl.org/dc/dcmitype/StillImage" />
      </cc:Work>
    </rdf:RDF>
  </metadata>
  <sodipodi:namedview
     pagecolor="#ffffff"
     bordercolor="#666666"
     borderopacity="1"
     objecttolerance="10"
     gridtolerance="10"
     guidetolerance="10"
     inkscape:pageopacity="0"
     inkscape:pageshadow="2"
     inkscape:window-width="1920"
     inkscape:window-height="961"
     id="namedview237"
     showgrid="false"
     inkscape:zoom="2.3463089"
     inkscape:cx="82.539185"
     inkscape:cy="98.395809"
     inkscape:window-x="0"
     inkscape:window-y="27"
     inkscape:window-maximized="1"
     inkscape:current-layer="svg235" />
  <defs
     id="defs11">
    <marker
       inkscape:isstock="true"
       style="overflow:visible"
       id="marker2947"
       refX="0"
       refY="0"
       orient="auto"
       inkscape:stockid="Arrow2Mstart">
      <path
         transform="scale(0.6)"
         d="M 8.7185878,4.0337352 -2.2072895,0.01601326 8.7185884,-4.0017078 c -1.7454984,2.3720609 -1.7354408,5.6174519 -6e-7,8.035443 z"
         style="fill:#000000;fill-opacity:1;fill-rule:evenodd;stroke:#000000;stroke-width:0.625;stroke-linejoin:round;stroke-opacity:1"
         id="path2945"
         inkscape:connector-curvature="0" />
    </marker>
    <marker
       inkscape:stockid="Arrow2Mstart"
       orient="auto"
       refY="0"
       refX="0"
       id="marker2863"
       style="overflow:visible"
       inkscape:isstock="true"
       inkscape:collect="always">
      <path
         id="path2861"
         style="fill:#000000;fill-opacity:1;fill-rule:evenodd;stroke:#000000;stroke-width:0.625;stroke-linejoin:round;stroke-opacity:1"
         d="M 8.7185878,4.0337352 -2.2072895,0.01601326 8.7185884,-4.0017078 c -1.7454984,2.3720609 -1.7354408,5.6174519 -6e-7,8.035443 z"
         transform="scale(0.6)"
         inkscape:connector-curvature="0" />
    </marker>
    <marker
       inkscape:stockid="TriangleInS"
       orient="auto"
       refY="0"
       refX="0"
       id="TriangleInS"
       style="overflow:visible"
       inkscape:isstock="true">
      <path
         id="path1824"
         d="M 5.77,0 -2.88,5 V -5 Z"
         style="fill:#000000;fill-opacity:1;fill-rule:evenodd;stroke:#000000;stroke-width:1.00000003pt;stroke-opacity:1"
         transform="scale(-0.2)"
         inkscape:connector-curvature="0" />
    </marker>
    <marker
       inkscape:stockid="Arrow1Lend"
       orient="auto"
       refY="0"
       refX="0"
       id="Arrow1Lend"
       style="overflow:visible"
       inkscape:isstock="true">
      <path
         id="path1688"
         d="M 0,0 5,-5 -12.5,0 5,5 Z"
         style="fill:#000000;fill-opacity:1;fill-rule:evenodd;stroke:#000000;stroke-width:1.00000003pt;stroke-opacity:1"
         transform="matrix(-0.8,0,0,-0.8,-10,0)"
         inkscape:connector-curvature="0" />
    </marker>
    <marker
       inkscape:stockid="Arrow2Mstart"
       orient="auto"
       refY="0"
       refX="0"
       id="marker2409"
       style="overflow:visible"
       inkscape:isstock="true">
      <path
         id="path2407"
         style="fill:#000000;fill-opacity:1;fill-rule:evenodd;stroke:#000000;stroke-width:0.625;stroke-linejoin:round;stroke-opacity:1"
         d="M 8.7185878,4.0337352 -2.2072895,0.01601326 8.7185884,-4.0017078 c -1.7454984,2.3720609 -1.7354408,5.6174519 -6e-7,8.035443 z"
         transform="scale(0.6)"
         inkscape:connector-curvature="0" />
    </marker>
    <marker
       inkscape:isstock="true"
       style="overflow:visible"
       id="marker2143"
       refX="0"
       refY="0"
       orient="auto"
       inkscape:stockid="Arrow2Mstart"
       inkscape:collect="always">
      <path
         transform="scale(0.6)"
         d="M 8.7185878,4.0337352 -2.2072895,0.01601326 8.7185884,-4.0017078 c -1.7454984,2.3720609 -1.7354408,5.6174519 -6e-7,8.035443 z"
         style="fill:#000000;fill-opacity:1;fill-rule:evenodd;stroke:#000000;stroke-width:0.625;stroke-linejoin:round;stroke-opacity:1"
         id="path2141"
         inkscape:connector-curvature="0" />
    </marker>
    <marker
       inkscape:stockid="Arrow2Mstart"
       orient="auto"
       refY="0"
       refX="0"
       id="Arrow2Mstart"
       style="overflow:visible"
       inkscape:isstock="true"
       inkscape:collect="always">
      <path
         id="path1709"
         style="fill:#000000;fill-opacity:1;fill-rule:evenodd;stroke:#000000;stroke-width:0.625;stroke-linejoin:round;stroke-opacity:1"
         d="M 8.7185878,4.0337352 -2.2072895,0.01601326 8.7185884,-4.0017078 c -1.7454984,2.3720609 -1.7354408,5.6174519 -6e-7,8.035443 z"
         transform="scale(0.6)"
         inkscape:connector-curvature="0" />
    </marker>
    <marker
       inkscape:stockid="Arrow2Lstart"
       orient="auto"
       refY="0"
       refX="0"
       id="Arrow2Lstart"
       style="overflow:visible"
       inkscape:isstock="true">
      <path
         id="path1703"
         style="fill:#000000;fill-opacity:1;fill-rule:evenodd;stroke:#000000;stroke-width:0.625;stroke-linejoin:round;stroke-opacity:1"
         d="M 8.7185878,4.0337352 -2.2072895,0.01601326 8.7185884,-4.0017078 c -1.7454984,2.3720609 -1.7354408,5.6174519 -6e-7,8.035443 z"
         transform="matrix(1.1,0,0,1.1,1.1,0)"
         inkscape:connector-curvature="0" />
    </marker>
    <marker
       inkscape:stockid="Arrow1Lstart"
       orient="auto"
       refY="0"
       refX="0"
       id="Arrow1Lstart"
       style="overflow:visible"
       inkscape:isstock="true">
      <path
         id="path1685"
         d="M 0,0 5,-5 -12.5,0 5,5 Z"
         style="fill:#000000;fill-opacity:1;fill-rule:evenodd;stroke:#000000;stroke-width:1.00000003pt;stroke-opacity:1"
         transform="matrix(0.8,0,0,0.8,10,0)"
         inkscape:connector-curvature="0" />
    </marker>
    <marker
       id="b"
       overflow="visible"
       orient="auto"
       style="overflow:visible">
      <path
         d="M 2.3,0 -1.2,2 V -2 Z"
         id="path2"
         inkscape:connector-curvature="0" />
    </marker>
    <marker
       id="c"
       overflow="visible"
       orient="auto"
       style="overflow:visible">
      <path
         d="M -2.3,0 1.2,-2 V 2 Z"
         id="path5"
         inkscape:connector-curvature="0" />
    </marker>
    <clipPath
       id="a">
      <path
         d="m 9,1.5 h 99 v 99 H 9 Z"
         id="path8"
         inkscape:connector-curvature="0" />
    </clipPath>
  </defs>
  <path
     style="fill:none;stroke:#000000;stroke-width:1.20000005"
     inkscape:connector-curvature="0"
     id="path15"
     d="m 155.9,16.46007 49.44,97" />
  <path
     style="fill:none;stroke:#000000;stroke-width:0.60000002"
     d="M 0.30000001,16.49007 H 97 v 97 H 0.30000001 Z"
     id="path27"
     inkscape:connector-curvature="0" />
  <path
     style="fill:none;stroke:#000000;stroke-width:0.60000002"
     d="m 121,16.49007 h 96.7 v 97 H 121 Z"
     id="path29"
     inkscape:connector-curvature="0" />
  <circle
     style="fill:#ffffff;stroke:#000000;stroke-width:0.2"
     id="circle129"
     r="1"
     cy="51.79007"
     cx="132.2" />
  <circle
     style="fill:#ffffff;stroke:#000000;stroke-width:0.2"
     id="circle131"
     r="1"
     cy="50.190067"
     cx="144.5" />
  <circle
     style="fill:#ffffff;stroke:#000000;stroke-width:0.2"
     id="circle133"
     r="1"
     cy="41.690067"
     cx="139.89999" />
  <circle
     style="fill:#ffffff;stroke:#000000;stroke-width:0.2"
     id="circle135"
     r="1"
     cy="41.890068"
     cx="148.39999" />
  <circle
     style="fill:#ffffff;stroke:#000000;stroke-width:0.2"
     id="circle137"
     r="1"
     cy="36.99007"
     cx="135.3" />
  <circle
     style="fill:#ffffff;stroke:#000000;stroke-width:0.2"
     id="circle139"
     r="1"
     cy="27.89007"
     cx="130.8" />
  <circle
     style="fill:#ffffff;stroke:#000000;stroke-width:0.2"
     id="circle141"
     r="1"
     cy="26.590069"
     cx="141.3" />
  <circle
     style="fill:#ffffff;stroke:#000000;stroke-width:0.2"
     id="circle143"
     r="1"
     cy="27.89007"
     cx="144.5" />
  <circle
     style="fill:#ffffff;stroke:#000000;stroke-width:0.2"
     id="circle145"
     r="1"
     cy="25.190069"
     cx="145.89999" />
  <circle
     style="fill:#ffffff;stroke:#000000;stroke-width:0.2"
     id="circle147"
     r="1"
     cy="23.49007"
     cx="147.39999" />
  <circle
     style="fill:#ffffff;stroke:#000000;stroke-width:0.2"
     id="circle149"
     r="1"
     cy="21.99007"
     cx="141.39999" />
  <circle
     style="fill:#ffffff;stroke:#000000;stroke-width:0.2"
     id="circle151"
     r="1"
     cy="29.49007"
     cx="150.39999" />
  <circle
     style="fill:#ffffff;stroke:#000000;stroke-width:0.2"
     id="circle153"
     r="1"
     cy="38.890068"
     cx="155.89999" />
  <circle
     style="fill:#ffffff;stroke:#000000;stroke-width:0.2"
     id="circle155"
     r="1"
     cy="34.99007"
     cx="158.2" />
  <circle
     style="fill:#ffffff;stroke:#000000;stroke-width:0.2"
     id="circle157"
     r="1"
     cy="44.890068"
     cx="157.39999" />
  <circle
     style="fill:#ffffff;stroke:#000000;stroke-width:0.2"
     id="circle159"
     r="1"
     cy="57.29007"
     cx="161.60001" />
  <circle
     style="fill:#ffffff;stroke:#000000;stroke-width:0.2"
     id="circle161"
     r="1"
     cy="57.29007"
     cx="164.2" />
  <circle
     style="fill:#ffffff;stroke:#000000;stroke-width:0.2"
     id="circle163"
     r="1"
     cy="60.490067"
     cx="165.7" />
  <circle
     style="fill:#ffffff;stroke:#000000;stroke-width:0.2"
     id="circle165"
     r="1"
     cy="60.79007"
     cx="151.89999" />
  <circle
     style="fill:#ffffff;stroke:#000000;stroke-width:0.2"
     id="circle167"
     r="1"
     cy="62.29007"
     cx="144.3" />
  <circle
     style="fill:#ffffff;stroke:#000000;stroke-width:0.2"
     id="circle169"
     r="1"
     cy="57.890068"
     cx="140.10001" />
  <circle
     style="fill:#ffffff;stroke:#000000;stroke-width:0.2"
     id="circle171"
     r="1"
     cy="69.890068"
     cx="136.7" />
  <circle
     style="fill:#ffffff;stroke:#000000;stroke-width:0.2"
     id="circle173"
     r="1"
     cy="79.590065"
     cx="126.8" />
  <circle
     style="fill:#ffffff;stroke:#000000;stroke-width:0.2"
     id="circle175"
     r="1"
     cy="77.990067"
     cx="148" />
  <circle
     style="fill:#ffffff;stroke:#000000;stroke-width:0.2"
     id="circle177"
     r="1"
     cy="76.390068"
     cx="158.5" />
  <circle
     style="fill:#ffffff;stroke:#000000;stroke-width:0.2"
     id="circle179"
     r="1"
     cy="71.090073"
     cx="171.89999" />
  <circle
     style="fill:#ffffff;stroke:#000000;stroke-width:0.2"
     id="circle181"
     r="1"
     cy="83.79007"
     cx="179" />
  <circle
     style="fill:#ffffff;stroke:#000000;stroke-width:0.2"
     id="circle183"
     r="1"
     cy="86.890068"
     cx="180.39999" />
  <circle
     style="fill:#ffffff;stroke:#000000;stroke-width:0.2"
     id="circle185"
     r="1"
     cy="84.690071"
     cx="183.5" />
  <circle
     style="fill:#ffffff;stroke:#000000;stroke-width:0.2"
     id="circle187"
     r="1"
     cy="87.090065"
     cx="173" />
  <circle
     style="fill:#ffffff;stroke:#000000;stroke-width:0.2"
     id="circle189"
     r="1"
     cy="91.590065"
     cx="182" />
  <circle
     style="fill:#ffffff;stroke:#000000;stroke-width:0.2"
     id="circle191"
     r="1"
     cy="99.090065"
     cx="183.39999" />
  <circle
     style="fill:#ffffff;stroke:#000000;stroke-width:0.2"
     id="circle193"
     r="1"
     cy="97.490067"
     cx="176" />
  <circle
     style="fill:#ffffff;stroke:#000000;stroke-width:0.2"
     id="circle195"
     r="1"
     cy="106.59007"
     cx="187.89999" />
  <circle
     style="fill:#ffffff;stroke:#000000;stroke-width:0.2"
     id="circle197"
     r="1"
     cy="102.09007"
     cx="158.5" />
  <circle
     style="fill:#ffffff;stroke:#000000;stroke-width:0.2"
     id="circle199"
     r="1"
     cy="93.090065"
     cx="164.5" />
  <circle
     style="fill:#ffffff;stroke:#000000;stroke-width:0.2"
     id="circle201"
     r="1"
     cy="94.390068"
     cx="154.2" />
  <circle
     style="fill:#ffffff;stroke:#000000;stroke-width:0.2"
     id="circle203"
     r="1"
     cy="91.590065"
     cx="137.3" />
  <circle
     style="fill:#ffffff;stroke:#000000;stroke-width:0.2"
     id="circle205"
     r="1"
     cy="64.890068"
     cx="164.2" />
  <circle
     style="stroke:#000000;stroke-width:0.2"
     id="circle221"
     r="1"
     cy="40.090069"
     cx="194" />
  <circle
     style="stroke:#000000;stroke-width:0.2"
     id="circle223"
     r="1"
     cy="30.89007"
     cx="198.5" />
  <circle
     style="stroke:#000000;stroke-width:0.2"
     id="circle225"
     r="1"
     cy="32.49007"
     cx="182" />
  <circle
     style="stroke:#000000;stroke-width:0.2"
     id="circle227"
     r="1"
     cy="50.390068"
     cx="180.2" />
  <circle
     style="stroke:#000000;stroke-width:0.2"
     id="circle229"
     r="1"
     cy="87.190071"
     cx="205.60001" />
  <circle
     style="stroke:#000000;stroke-width:0.2"
     id="circle231"
     r="1"
     cy="50.690067"
     cx="195.5" />
  <circle
     cx="139.89999"
     cy="41.690067"
     r="1"
     id="circle1211"
     style="fill:#ffffff;stroke:#000000;stroke-width:0.2" />
  <circle
     cx="183.5"
     cy="84.690071"
     r="1"
     id="circle1263"
     style="fill:#ffffff;stroke:#000000;stroke-width:0.2" />
  <circle
     cx="205.60001"
     cy="87.190071"
     r="1"
     id="circle1293"
     style="stroke:#000000;stroke-width:0.2" />
  <circle
     style="stroke:#000000;stroke-width:0.2"
     id="circle1297"
     r="1"
     cy="44.059933"
     cx="200.24658" />
  <circle
     cx="204.84247"
     cy="53.77911"
     r="1"
     id="circle1299"
     style="stroke:#000000;stroke-width:0.2" />
  <circle
     style="stroke:#000000;stroke-width:0.2"
     id="circle1301"
     r="1"
     cy="45.49144"
     cx="190.97946" />
  <circle
     cx="190.97946"
     cy="53.628426"
     r="1"
     id="circle1303"
     style="stroke:#000000;stroke-width:0.2" />
  <circle
     style="stroke:#000000;stroke-width:0.2"
     id="circle1307"
     r="1"
     cy="28.014957"
     cx="189.88472" />
  <circle
     cx="186.47511"
     cy="37.817589"
     id="circle1309"
     style="stroke:#000000;stroke-width:0.2"
     r="0" />
  <circle
     style="stroke:#000000;stroke-width:0.2"
     id="circle1311"
     r="1"
     cy="34.834179"
     cx="190.31093" />
  <circle
     cx="200.96596"
     cy="62.111065"
     r="1"
     id="circle1313"
     style="stroke:#000000;stroke-width:0.2" />
  <circle
     style="stroke:#000000;stroke-width:0.2"
     id="circle1315"
     r="1"
     cy="57.422852"
     cx="197.98254" />
  <circle
     cx="197.98254"
     cy="57.422852"
     r="1"
     id="circle1317"
     style="stroke:#000000;stroke-width:0.2" />
  <circle
     style="stroke:#000000;stroke-width:0.2"
     id="circle1319"
     r="1"
     cy="62.324165"
     cx="206.93277" />
  <circle
     cx="11.499997"
     cy="51.79007"
     r="1"
     id="circle1553"
     style="fill:#ffffff;stroke:#000000;stroke-width:0.2" />
  <circle
     cx="23.799999"
     cy="50.190067"
     r="1"
     id="circle1555"
     style="fill:#ffffff;stroke:#000000;stroke-width:0.2" />
  <circle
     cx="19.199993"
     cy="41.690067"
     r="1"
     id="circle1557"
     style="fill:#ffffff;stroke:#000000;stroke-width:0.2" />
  <circle
     cx="27.699993"
     cy="41.890068"
     r="1"
     id="circle1559"
     style="fill:#ffffff;stroke:#000000;stroke-width:0.2" />
  <circle
     cx="14.600003"
     cy="36.99007"
     r="1"
     id="circle1561"
     style="fill:#ffffff;stroke:#000000;stroke-width:0.2" />
  <circle
     cx="10.100003"
     cy="27.89007"
     r="1"
     id="circle1563"
     style="fill:#ffffff;stroke:#000000;stroke-width:0.2" />
  <circle
     cx="20.600002"
     cy="26.590069"
     r="1"
     id="circle1565"
     style="fill:#ffffff;stroke:#000000;stroke-width:0.2" />
  <circle
     cx="23.799999"
     cy="27.89007"
     r="1"
     id="circle1567"
     style="fill:#ffffff;stroke:#000000;stroke-width:0.2" />
  <circle
     cx="25.199993"
     cy="25.190069"
     r="1"
     id="circle1569"
     style="fill:#ffffff;stroke:#000000;stroke-width:0.2" />
  <circle
     cx="26.699993"
     cy="23.49007"
     r="1"
     id="circle1571"
     style="fill:#ffffff;stroke:#000000;stroke-width:0.2" />
  <circle
     cx="20.699993"
     cy="21.99007"
     r="1"
     id="circle1573"
     style="fill:#ffffff;stroke:#000000;stroke-width:0.2" />
  <circle
     cx="29.699993"
     cy="29.49007"
     r="1"
     id="circle1575"
     style="fill:#ffffff;stroke:#000000;stroke-width:0.2" />
  <circle
     cx="35.199993"
     cy="38.890068"
     r="1"
     id="circle1577"
     style="fill:#ffffff;stroke:#000000;stroke-width:0.2" />
  <circle
     cx="37.499996"
     cy="34.99007"
     r="1"
     id="circle1579"
     style="fill:#ffffff;stroke:#000000;stroke-width:0.2" />
  <circle
     cx="36.699993"
     cy="44.890068"
     r="1"
     id="circle1581"
     style="fill:#ffffff;stroke:#000000;stroke-width:0.2" />
  <circle
     cx="40.900005"
     cy="57.29007"
     r="1"
     id="circle1583"
     style="fill:#ffffff;stroke:#000000;stroke-width:0.2" />
  <circle
     cx="43.499996"
     cy="57.29007"
     r="1"
     id="circle1585"
     style="fill:#ffffff;stroke:#000000;stroke-width:0.2" />
  <circle
     cx="44.999996"
     cy="60.490067"
     r="1"
     id="circle1587"
     style="fill:#ffffff;stroke:#000000;stroke-width:0.2" />
  <circle
     cx="31.199993"
     cy="60.79007"
     r="1"
     id="circle1589"
     style="fill:#ffffff;stroke:#000000;stroke-width:0.2" />
  <circle
     cx="23.600002"
     cy="62.29007"
     r="1"
     id="circle1591"
     style="fill:#ffffff;stroke:#000000;stroke-width:0.2" />
  <circle
     cx="19.400005"
     cy="57.890068"
     r="1"
     id="circle1593"
     style="fill:#ffffff;stroke:#000000;stroke-width:0.2" />
  <circle
     cx="15.999996"
     cy="69.890068"
     r="1"
     id="circle1595"
     style="fill:#ffffff;stroke:#000000;stroke-width:0.2" />
  <circle
     cx="6.1000032"
     cy="79.590065"
     r="1"
     id="circle1597"
     style="fill:#ffffff;stroke:#000000;stroke-width:0.2" />
  <circle
     cx="27.299999"
     cy="77.990067"
     r="1"
     id="circle1599"
     style="fill:#ffffff;stroke:#000000;stroke-width:0.2" />
  <circle
     cx="37.799999"
     cy="76.390068"
     r="1"
     id="circle1601"
     style="fill:#ffffff;stroke:#000000;stroke-width:0.2" />
  <circle
     cx="51.199993"
     cy="71.090073"
     r="1"
     id="circle1603"
     style="fill:#ffffff;stroke:#000000;stroke-width:0.2" />
  <circle
     cx="58.299999"
     cy="83.79007"
     r="1"
     id="circle1605"
     style="fill:#ffffff;stroke:#000000;stroke-width:0.2" />
  <circle
     cx="59.699993"
     cy="86.890068"
     r="1"
     id="circle1607"
     style="fill:#ffffff;stroke:#000000;stroke-width:0.2" />
  <circle
     cx="62.799999"
     cy="84.690071"
     r="1"
     id="circle1609"
     style="fill:#ffffff;stroke:#000000;stroke-width:0.2" />
  <circle
     cx="52.299999"
     cy="87.090065"
     r="1"
     id="circle1611"
     style="fill:#ffffff;stroke:#000000;stroke-width:0.2" />
  <circle
     cx="61.299999"
     cy="91.590065"
     r="1"
     id="circle1613"
     style="fill:#ffffff;stroke:#000000;stroke-width:0.2" />
  <circle
     cx="62.699993"
     cy="99.090065"
     r="1"
     id="circle1615"
     style="fill:#ffffff;stroke:#000000;stroke-width:0.2" />
  <circle
     cx="55.299999"
     cy="97.490067"
     r="1"
     id="circle1617"
     style="fill:#ffffff;stroke:#000000;stroke-width:0.2" />
  <circle
     cx="67.199997"
     cy="106.59007"
     r="1"
     id="circle1619"
     style="fill:#ffffff;stroke:#000000;stroke-width:0.2" />
  <circle
     cx="37.799999"
     cy="102.09007"
     r="1"
     id="circle1621"
     style="fill:#ffffff;stroke:#000000;stroke-width:0.2" />
  <circle
     cx="43.799999"
     cy="93.090065"
     r="1"
     id="circle1623"
     style="fill:#ffffff;stroke:#000000;stroke-width:0.2" />
  <circle
     cx="33.499996"
     cy="94.390068"
     r="1"
     id="circle1625"
     style="fill:#ffffff;stroke:#000000;stroke-width:0.2" />
  <circle
     cx="16.600002"
     cy="91.590065"
     r="1"
     id="circle1627"
     style="fill:#ffffff;stroke:#000000;stroke-width:0.2" />
  <circle
     cx="43.499996"
     cy="64.890068"
     r="1"
     id="circle1629"
     style="fill:#ffffff;stroke:#000000;stroke-width:0.2" />
  <circle
     cx="73.300003"
     cy="40.090069"
     r="1"
     id="circle1631"
     style="stroke:#000000;stroke-width:0.2" />
  <circle
     cx="77.800003"
     cy="30.89007"
     r="1"
     id="circle1633"
     style="stroke:#000000;stroke-width:0.2" />
  <circle
     cx="61.299999"
     cy="32.49007"
     r="1"
     id="circle1635"
     style="stroke:#000000;stroke-width:0.2" />
  <circle
     cx="59.499996"
     cy="50.390068"
     r="1"
     id="circle1637"
     style="stroke:#000000;stroke-width:0.2" />
  <circle
     cx="84.900009"
     cy="87.190071"
     r="1"
     id="circle1639"
     style="stroke:#000000;stroke-width:0.2" />
  <circle
     cx="74.800003"
     cy="50.690067"
     r="1"
     id="circle1641"
     style="stroke:#000000;stroke-width:0.2" />
  <circle
     style="fill:#ffffff;stroke:#000000;stroke-width:0.2"
     id="circle1643"
     r="1"
     cy="41.690067"
     cx="19.199993" />
  <circle
     style="fill:#ffffff;stroke:#000000;stroke-width:0.2"
     id="circle1645"
     r="1"
     cy="84.690071"
     cx="62.799999" />
  <circle
     style="stroke:#000000;stroke-width:0.2"
     id="circle1647"
     r="1"
     cy="87.190071"
     cx="84.900009" />
  <circle
     cx="79.546585"
     cy="44.059933"
     r="1"
     id="circle1649"
     style="stroke:#000000;stroke-width:0.2" />
  <circle
     style="stroke:#000000;stroke-width:0.2"
     id="circle1651"
     r="1"
     cy="53.77911"
     cx="84.142471" />
  <circle
     cx="70.279465"
     cy="45.49144"
     r="1"
     id="circle1653"
     style="stroke:#000000;stroke-width:0.2" />
  <circle
     style="stroke:#000000;stroke-width:0.2"
     id="circle1655"
     r="1"
     cy="53.628426"
     cx="70.279465" />
  <circle
     cx="69.184723"
     cy="28.014957"
     r="1"
     id="circle1657"
     style="stroke:#000000;stroke-width:0.2" />
  <circle
     r="0"
     style="stroke:#000000;stroke-width:0.2"
     id="ellipse1659"
     cy="37.817589"
     cx="65.775116" />
  <circle
     cx="69.610931"
     cy="34.834179"
     r="1"
     id="circle1661"
     style="stroke:#000000;stroke-width:0.2" />
  <circle
     style="stroke:#000000;stroke-width:0.2"
     id="circle1663"
     r="1"
     cy="62.111065"
     cx="80.265961" />
  <circle
     cx="77.282547"
     cy="57.422852"
     r="1"
     id="circle1665"
     style="stroke:#000000;stroke-width:0.2" />
  <circle
     style="stroke:#000000;stroke-width:0.2"
     id="circle1667"
     r="1"
     cy="57.422852"
     cx="77.282547" />
  <circle
     cx="86.232773"
     cy="62.324165"
     r="1"
     id="circle1669"
     style="stroke:#000000;stroke-width:0.2" />
  <path
     style="fill:none;stroke:#000000;stroke-width:0.5;stroke-linecap:butt;stroke-linejoin:miter;stroke-miterlimit:4;stroke-dasharray:1.5, 1.5;stroke-dashoffset:0;stroke-opacity:1"
     d="m 73.798337,73.974741 c 0,0 -3.622712,-14.490846 -9.589531,-16.834954 -5.966819,-2.344107 -18.96596,-6.39302 -15.98255,-20.244564 2.983409,-13.851544 9.802631,-18.326658 19.818362,-17.687356 10.015732,0.639302 19.818363,5.966819 21.096967,14.277746 1.278604,8.310926 -1.917906,19.17906 0.426201,22.801772 2.344108,3.622711 5.114417,38.358121 -1.065503,42.407034 -6.179919,4.048911 -16.408752,-7.671624 -14.703946,-24.719678 z"
     id="path1671"
     inkscape:connector-curvature="0" />
  <path
     sodipodi:type="star"
     style="opacity:1;fill:none;fill-opacity:1;stroke:#ff0000;stroke-width:0.5;stroke-linecap:butt;stroke-linejoin:miter;stroke-miterlimit:4;stroke-dasharray:none;stroke-dashoffset:0;stroke-opacity:1"
     id="path1673"
     sodipodi:sides="4"
     sodipodi:cx="65.773972"
     sodipodi:cy="55.397259"
     sodipodi:r1="3.601496"
     sodipodi:r2="0.036014959"
     sodipodi:arg1="1.0471976"
     sodipodi:arg2="1.8325957"
     inkscape:flatsided="false"
     inkscape:rounded="-1.56125e-16"
     inkscape:randomized="-2.48065e-16"
     d="m 67.574719,58.516246 -1.810069,-3.084199 -3.109666,1.76596 3.0842,-1.81007 -1.76596,-3.109665 1.810069,3.084199 3.109666,-1.76596 -3.0842,1.810069 z"
     transform="rotate(-14.559522,123.5549,66.756374)" />
  <path
     transform="rotate(-14.559522,183.9049,-405.6731)"
     d="m 67.574719,58.516246 -1.810069,-3.084199 -3.109666,1.76596 3.0842,-1.81007 -1.76596,-3.109665 1.810069,3.084199 3.109666,-1.76596 -3.0842,1.810069 z"
     inkscape:randomized="-2.48065e-16"
     inkscape:rounded="-1.56125e-16"
     inkscape:flatsided="false"
     sodipodi:arg2="1.8325957"
     sodipodi:arg1="1.0471976"
     sodipodi:r2="0.036014959"
     sodipodi:r1="3.601496"
     sodipodi:cy="55.397259"
     sodipodi:cx="65.773972"
     sodipodi:sides="4"
     id="path1677"
     style="opacity:1;fill:none;fill-opacity:1;stroke:#ff0000;stroke-width:0.5;stroke-linecap:butt;stroke-linejoin:miter;stroke-miterlimit:4;stroke-dasharray:none;stroke-dashoffset:0;stroke-opacity:1"
     sodipodi:type="star" />
  <path
     style="fill:none;stroke:#000000;stroke-width:0.60000002;stroke-linecap:butt;stroke-linejoin:miter;stroke-miterlimit:4;stroke-dasharray:none;stroke-opacity:1;marker-start:url(#marker2143)"
     d="m 61.383562,70.438015 c 0,0 -28.479452,17.780822 -13.863014,54.246575"
     id="path1683"
     inkscape:connector-curvature="0" />
  <path
     inkscape:connector-curvature="0"
     id="path2137"
     d="m 182.08357,70.438015 c 0,0 -28.47946,17.780822 -13.86302,54.246575"
     style="fill:none;stroke:#000000;stroke-width:0.60000002;stroke-linecap:butt;stroke-linejoin:miter;stroke-miterlimit:4;stroke-dasharray:none;stroke-opacity:1;marker-start:url(#Arrow2Mstart)" />
  <path
     style="fill:none;stroke:#000000;stroke-width:0.60000002;stroke-linecap:butt;stroke-linejoin:miter;stroke-miterlimit:4;stroke-dasharray:none;stroke-opacity:1;marker-start:url(#marker2863)"
     d="m 86.584377,99.759922 c 0,0 9.243618,24.703458 -39.063829,24.924668"
     id="path2823"
     inkscape:connector-curvature="0" />
  <path
     inkscape:connector-curvature="0"
     id="path2943"
     d="m 198.24328,101.56814 c 0,0 -9.44131,21.38839 -30.02273,23.11645"
     style="fill:none;stroke:#000000;stroke-width:0.60000002;stroke-linecap:butt;stroke-linejoin:miter;stroke-miterlimit:4;stroke-dasharray:none;stroke-opacity:1;marker-start:url(#marker2947)"
     sodipodi:nodetypes="cc" />
  <g
     id="g3893"
     ns1:jacobian_sqrt="1.877599"
     ns1:alignment="middle center"
     ns1:scale="1.40819895"
     ns1:preamble="/home/artur/.config/inkscape/extensions/textext/default_packages.tex"
     ns1:text="$P(y|x)$"
     ns1:pdfconverter="pdf2svg"
     ns1:texconverter="pdflatex"
     ns1:version="0.11.0"
     transform="matrix(1.109236,0,0,1.109236,-132.19055,-15.131187)">
    <g
       id="surface1">
      <g
         id="g3870"
         style="fill:#000000;fill-opacity:1">
        <path
           id="path3868"
           transform="translate(148.712,134.765)"
           d="M 3.015625,-3.15625 H 4.71875 c 1.40625,0 2.796875,-1.03125 2.796875,-2.140625 0,-0.78125 -0.65625,-1.515625 -1.96875,-1.515625 h -3.21875 c -0.1875,0 -0.296875,0 -0.296875,0.1875 0,0.125 0.078125,0.125 0.28125,0.125 0.125,0 0.3125,0.015625 0.421875,0.015625 0.171875,0.03125 0.21875,0.046875 0.21875,0.171875 0,0.03125 0,0.0625 -0.03125,0.1875 l -1.34375,5.34375 c -0.09375,0.390625 -0.109375,0.46875 -0.90625,0.46875 -0.15625,0 -0.265625,0 -0.265625,0.1875 C 0.40625,0 0.515625,0 0.546875,0 0.828125,0 1.53125,-0.03125 1.8125,-0.03125 c 0.21875,0 0.4375,0.015625 0.640625,0.015625 0.21875,0 0.4375,0.015625 0.640625,0.015625 0.078125,0 0.203125,0 0.203125,-0.203125 0,-0.109375 -0.09375,-0.109375 -0.28125,-0.109375 -0.359375,0 -0.640625,0 -0.640625,-0.171875 0,-0.0625 0.015625,-0.109375 0.03125,-0.171875 z M 3.734375,-6.125 C 3.828125,-6.46875 3.84375,-6.5 4.28125,-6.5 h 0.953125 c 0.828125,0 1.359375,0.265625 1.359375,0.953125 0,0.390625 -0.203125,1.25 -0.59375,1.609375 -0.5,0.453125 -1.09375,0.53125 -1.53125,0.53125 H 3.0625 Z m 0,0"
           style="stroke:none;stroke-width:0"
           inkscape:connector-curvature="0" />
      </g>
      <g
         id="g3874"
         style="fill:#000000;fill-opacity:1">
        <path
           id="path3872"
           transform="translate(156.492,134.765)"
           d="m 3.296875,2.390625 c 0,-0.03125 0,-0.046875 -0.171875,-0.21875 C 1.890625,0.921875 1.5625,-0.96875 1.5625,-2.5 c 0,-1.734375 0.375,-3.46875 1.609375,-4.703125 0.125,-0.125 0.125,-0.140625 0.125,-0.171875 0,-0.078125 -0.03125,-0.109375 -0.09375,-0.109375 -0.109375,0 -1,0.6875 -1.59375,1.953125 -0.5,1.09375 -0.625,2.203125 -0.625,3.03125 0,0.78125 0.109375,1.984375 0.65625,3.125 C 2.25,1.84375 3.09375,2.5 3.203125,2.5 c 0.0625,0 0.09375,-0.03125 0.09375,-0.109375 z m 0,0"
           style="stroke:none;stroke-width:0"
           inkscape:connector-curvature="0" />
      </g>
      <g
         id="g3878"
         style="fill:#000000;fill-opacity:1">
        <path
           id="path3876"
           transform="translate(160.367,134.765)"
           d="m 4.84375,-3.796875 c 0.046875,-0.140625 0.046875,-0.15625 0.046875,-0.234375 0,-0.171875 -0.140625,-0.265625 -0.296875,-0.265625 -0.09375,0 -0.25,0.0625 -0.34375,0.203125 -0.015625,0.0625 -0.109375,0.359375 -0.140625,0.546875 -0.078125,0.25 -0.140625,0.53125 -0.203125,0.796875 l -0.453125,1.796875 c -0.03125,0.140625 -0.46875,0.84375 -1.125,0.84375 -0.5,0 -0.609375,-0.4375 -0.609375,-0.8125 C 1.71875,-1.375 1.890625,-2 2.21875,-2.875 2.375,-3.28125 2.421875,-3.390625 2.421875,-3.59375 c 0,-0.4375 -0.3125,-0.8125 -0.8125,-0.8125 -0.953125,0 -1.3125,1.453125 -1.3125,1.53125 0,0.109375 0.09375,0.109375 0.109375,0.109375 0.109375,0 0.109375,-0.03125 0.15625,-0.1875 0.28125,-0.9375 0.671875,-1.234375 1.015625,-1.234375 0.078125,0 0.25,0 0.25,0.3125 0,0.25 -0.109375,0.515625 -0.171875,0.703125 -0.40625,1.0625 -0.578125,1.625 -0.578125,2.09375 0,0.890625 0.625,1.1875 1.21875,1.1875 0.390625,0 0.71875,-0.171875 1,-0.453125 -0.125,0.515625 -0.25,1.015625 -0.640625,1.546875 -0.265625,0.328125 -0.640625,0.625 -1.09375,0.625 -0.140625,0 -0.59375,-0.03125 -0.765625,-0.421875 0.15625,0 0.296875,0 0.421875,-0.125 C 1.328125,1.203125 1.421875,1.0625 1.421875,0.875 1.421875,0.5625 1.15625,0.53125 1.0625,0.53125 0.828125,0.53125 0.5,0.6875 0.5,1.171875 c 0,0.5 0.4375,0.875 1.0625,0.875 1.015625,0 2.046875,-0.90625 2.328125,-2.03125 z m 0,0"
           style="stroke:none;stroke-width:0"
           inkscape:connector-curvature="0" />
      </g>
      <g
         id="g3882"
         style="fill:#000000;fill-opacity:1">
        <path
           id="path3880"
           transform="translate(165.608,134.765)"
           d="m 1.578125,-7.125 c 0,-0.171875 0,-0.359375 -0.1875,-0.359375 -0.203125,0 -0.203125,0.1875 -0.203125,0.359375 v 9.265625 c 0,0.171875 0,0.359375 0.203125,0.359375 0.1875,0 0.1875,-0.1875 0.1875,-0.359375 z m 0,0"
           style="stroke:none;stroke-width:0"
           inkscape:connector-curvature="0" />
      </g>
      <g
         id="g3886"
         style="fill:#000000;fill-opacity:1">
        <path
           id="path3884"
           transform="translate(168.376,134.765)"
           d="M 3.328125,-3.015625 C 3.390625,-3.265625 3.625,-4.1875 4.3125,-4.1875 c 0.046875,0 0.296875,0 0.5,0.125 C 4.53125,-4 4.34375,-3.765625 4.34375,-3.515625 c 0,0.15625 0.109375,0.34375 0.375,0.34375 0.21875,0 0.53125,-0.171875 0.53125,-0.578125 0,-0.515625 -0.578125,-0.65625 -0.921875,-0.65625 -0.578125,0 -0.921875,0.53125 -1.046875,0.75 -0.25,-0.65625 -0.78125,-0.75 -1.078125,-0.75 -1.03125,0 -1.609375,1.28125 -1.609375,1.53125 0,0.109375 0.109375,0.109375 0.125,0.109375 0.078125,0 0.109375,-0.03125 0.125,-0.109375 0.34375,-1.0625 1,-1.3125 1.34375,-1.3125 0.1875,0 0.53125,0.09375 0.53125,0.671875 0,0.3125 -0.171875,0.96875 -0.53125,2.375 -0.15625,0.609375 -0.515625,1.03125 -0.953125,1.03125 -0.0625,0 -0.28125,0 -0.5,-0.125 0.25,-0.0625 0.46875,-0.265625 0.46875,-0.546875 0,-0.265625 -0.21875,-0.34375 -0.359375,-0.34375 -0.3125,0 -0.546875,0.25 -0.546875,0.578125 0,0.453125 0.484375,0.65625 0.921875,0.65625 0.671875,0 1.03125,-0.703125 1.046875,-0.75 0.125,0.359375 0.484375,0.75 1.078125,0.75 1.03125,0 1.59375,-1.28125 1.59375,-1.53125 0,-0.109375 -0.078125,-0.109375 -0.109375,-0.109375 -0.09375,0 -0.109375,0.046875 -0.140625,0.109375 -0.328125,1.078125 -1,1.3125 -1.3125,1.3125 -0.390625,0 -0.546875,-0.3125 -0.546875,-0.65625 0,-0.21875 0.046875,-0.4375 0.15625,-0.875 z m 0,0"
           style="stroke:none;stroke-width:0"
           inkscape:connector-curvature="0" />
      </g>
      <g
         id="g3890"
         style="fill:#000000;fill-opacity:1">
        <path
           id="path3888"
           transform="translate(174.07,134.765)"
           d="m 2.875,-2.5 c 0,-0.765625 -0.109375,-1.96875 -0.65625,-3.109375 -0.59375,-1.21875 -1.453125,-1.875 -1.546875,-1.875 -0.0625,0 -0.109375,0.046875 -0.109375,0.109375 0,0.03125 0,0.046875 0.1875,0.234375 0.984375,0.984375 1.546875,2.5625 1.546875,4.640625 0,1.71875 -0.359375,3.46875 -1.59375,4.71875 C 0.5625,2.34375 0.5625,2.359375 0.5625,2.390625 0.5625,2.453125 0.609375,2.5 0.671875,2.5 0.765625,2.5 1.671875,1.8125 2.25,0.546875 2.765625,-0.546875 2.875,-1.65625 2.875,-2.5 Z m 0,0"
           style="stroke:none;stroke-width:0"
           inkscape:connector-curvature="0" />
      </g>
    </g>
  </g>
  <g
     transform="matrix(1.109236,0,0,1.109236,-11.490545,-15.131187)"
     ns1:version="0.11.0"
     ns1:texconverter="pdflatex"
     ns1:pdfconverter="pdf2svg"
     ns1:text="$P(y|x)$"
     ns1:preamble="/home/artur/.config/inkscape/extensions/textext/default_packages.tex"
     ns1:scale="1.40819895"
     ns1:alignment="middle center"
     ns1:jacobian_sqrt="1.877599"
     id="g3938">
    <g
       id="g3936">
      <g
         style="fill:#000000;fill-opacity:1"
         id="g3914">
        <path
           inkscape:connector-curvature="0"
           style="stroke:none;stroke-width:0"
           d="M 3.015625,-3.15625 H 4.71875 c 1.40625,0 2.796875,-1.03125 2.796875,-2.140625 0,-0.78125 -0.65625,-1.515625 -1.96875,-1.515625 h -3.21875 c -0.1875,0 -0.296875,0 -0.296875,0.1875 0,0.125 0.078125,0.125 0.28125,0.125 0.125,0 0.3125,0.015625 0.421875,0.015625 0.171875,0.03125 0.21875,0.046875 0.21875,0.171875 0,0.03125 0,0.0625 -0.03125,0.1875 l -1.34375,5.34375 c -0.09375,0.390625 -0.109375,0.46875 -0.90625,0.46875 -0.15625,0 -0.265625,0 -0.265625,0.1875 C 0.40625,0 0.515625,0 0.546875,0 0.828125,0 1.53125,-0.03125 1.8125,-0.03125 c 0.21875,0 0.4375,0.015625 0.640625,0.015625 0.21875,0 0.4375,0.015625 0.640625,0.015625 0.078125,0 0.203125,0 0.203125,-0.203125 0,-0.109375 -0.09375,-0.109375 -0.28125,-0.109375 -0.359375,0 -0.640625,0 -0.640625,-0.171875 0,-0.0625 0.015625,-0.109375 0.03125,-0.171875 z M 3.734375,-6.125 C 3.828125,-6.46875 3.84375,-6.5 4.28125,-6.5 h 0.953125 c 0.828125,0 1.359375,0.265625 1.359375,0.953125 0,0.390625 -0.203125,1.25 -0.59375,1.609375 -0.5,0.453125 -1.09375,0.53125 -1.53125,0.53125 H 3.0625 Z m 0,0"
           transform="translate(148.712,134.765)"
           id="path3912" />
      </g>
      <g
         style="fill:#000000;fill-opacity:1"
         id="g3918">
        <path
           inkscape:connector-curvature="0"
           style="stroke:none;stroke-width:0"
           d="m 3.296875,2.390625 c 0,-0.03125 0,-0.046875 -0.171875,-0.21875 C 1.890625,0.921875 1.5625,-0.96875 1.5625,-2.5 c 0,-1.734375 0.375,-3.46875 1.609375,-4.703125 0.125,-0.125 0.125,-0.140625 0.125,-0.171875 0,-0.078125 -0.03125,-0.109375 -0.09375,-0.109375 -0.109375,0 -1,0.6875 -1.59375,1.953125 -0.5,1.09375 -0.625,2.203125 -0.625,3.03125 0,0.78125 0.109375,1.984375 0.65625,3.125 C 2.25,1.84375 3.09375,2.5 3.203125,2.5 c 0.0625,0 0.09375,-0.03125 0.09375,-0.109375 z m 0,0"
           transform="translate(156.492,134.765)"
           id="path3916" />
      </g>
      <g
         style="fill:#000000;fill-opacity:1"
         id="g3922">
        <path
           inkscape:connector-curvature="0"
           style="stroke:none;stroke-width:0"
           d="m 4.84375,-3.796875 c 0.046875,-0.140625 0.046875,-0.15625 0.046875,-0.234375 0,-0.171875 -0.140625,-0.265625 -0.296875,-0.265625 -0.09375,0 -0.25,0.0625 -0.34375,0.203125 -0.015625,0.0625 -0.109375,0.359375 -0.140625,0.546875 -0.078125,0.25 -0.140625,0.53125 -0.203125,0.796875 l -0.453125,1.796875 c -0.03125,0.140625 -0.46875,0.84375 -1.125,0.84375 -0.5,0 -0.609375,-0.4375 -0.609375,-0.8125 C 1.71875,-1.375 1.890625,-2 2.21875,-2.875 2.375,-3.28125 2.421875,-3.390625 2.421875,-3.59375 c 0,-0.4375 -0.3125,-0.8125 -0.8125,-0.8125 -0.953125,0 -1.3125,1.453125 -1.3125,1.53125 0,0.109375 0.09375,0.109375 0.109375,0.109375 0.109375,0 0.109375,-0.03125 0.15625,-0.1875 0.28125,-0.9375 0.671875,-1.234375 1.015625,-1.234375 0.078125,0 0.25,0 0.25,0.3125 0,0.25 -0.109375,0.515625 -0.171875,0.703125 -0.40625,1.0625 -0.578125,1.625 -0.578125,2.09375 0,0.890625 0.625,1.1875 1.21875,1.1875 0.390625,0 0.71875,-0.171875 1,-0.453125 -0.125,0.515625 -0.25,1.015625 -0.640625,1.546875 -0.265625,0.328125 -0.640625,0.625 -1.09375,0.625 -0.140625,0 -0.59375,-0.03125 -0.765625,-0.421875 0.15625,0 0.296875,0 0.421875,-0.125 C 1.328125,1.203125 1.421875,1.0625 1.421875,0.875 1.421875,0.5625 1.15625,0.53125 1.0625,0.53125 0.828125,0.53125 0.5,0.6875 0.5,1.171875 c 0,0.5 0.4375,0.875 1.0625,0.875 1.015625,0 2.046875,-0.90625 2.328125,-2.03125 z m 0,0"
           transform="translate(160.367,134.765)"
           id="path3920" />
      </g>
      <g
         style="fill:#000000;fill-opacity:1"
         id="g3926">
        <path
           inkscape:connector-curvature="0"
           style="stroke:none;stroke-width:0"
           d="m 1.578125,-7.125 c 0,-0.171875 0,-0.359375 -0.1875,-0.359375 -0.203125,0 -0.203125,0.1875 -0.203125,0.359375 v 9.265625 c 0,0.171875 0,0.359375 0.203125,0.359375 0.1875,0 0.1875,-0.1875 0.1875,-0.359375 z m 0,0"
           transform="translate(165.608,134.765)"
           id="path3924" />
      </g>
      <g
         style="fill:#000000;fill-opacity:1"
         id="g3930">
        <path
           inkscape:connector-curvature="0"
           style="stroke:none;stroke-width:0"
           d="M 3.328125,-3.015625 C 3.390625,-3.265625 3.625,-4.1875 4.3125,-4.1875 c 0.046875,0 0.296875,0 0.5,0.125 C 4.53125,-4 4.34375,-3.765625 4.34375,-3.515625 c 0,0.15625 0.109375,0.34375 0.375,0.34375 0.21875,0 0.53125,-0.171875 0.53125,-0.578125 0,-0.515625 -0.578125,-0.65625 -0.921875,-0.65625 -0.578125,0 -0.921875,0.53125 -1.046875,0.75 -0.25,-0.65625 -0.78125,-0.75 -1.078125,-0.75 -1.03125,0 -1.609375,1.28125 -1.609375,1.53125 0,0.109375 0.109375,0.109375 0.125,0.109375 0.078125,0 0.109375,-0.03125 0.125,-0.109375 0.34375,-1.0625 1,-1.3125 1.34375,-1.3125 0.1875,0 0.53125,0.09375 0.53125,0.671875 0,0.3125 -0.171875,0.96875 -0.53125,2.375 -0.15625,0.609375 -0.515625,1.03125 -0.953125,1.03125 -0.0625,0 -0.28125,0 -0.5,-0.125 0.25,-0.0625 0.46875,-0.265625 0.46875,-0.546875 0,-0.265625 -0.21875,-0.34375 -0.359375,-0.34375 -0.3125,0 -0.546875,0.25 -0.546875,0.578125 0,0.453125 0.484375,0.65625 0.921875,0.65625 0.671875,0 1.03125,-0.703125 1.046875,-0.75 0.125,0.359375 0.484375,0.75 1.078125,0.75 1.03125,0 1.59375,-1.28125 1.59375,-1.53125 0,-0.109375 -0.078125,-0.109375 -0.109375,-0.109375 -0.09375,0 -0.109375,0.046875 -0.140625,0.109375 -0.328125,1.078125 -1,1.3125 -1.3125,1.3125 -0.390625,0 -0.546875,-0.3125 -0.546875,-0.65625 0,-0.21875 0.046875,-0.4375 0.15625,-0.875 z m 0,0"
           transform="translate(168.376,134.765)"
           id="path3928" />
      </g>
      <g
         style="fill:#000000;fill-opacity:1"
         id="g3934">
        <path
           inkscape:connector-curvature="0"
           style="stroke:none;stroke-width:0"
           d="m 2.875,-2.5 c 0,-0.765625 -0.109375,-1.96875 -0.65625,-3.109375 -0.59375,-1.21875 -1.453125,-1.875 -1.546875,-1.875 -0.0625,0 -0.109375,0.046875 -0.109375,0.109375 0,0.03125 0,0.046875 0.1875,0.234375 0.984375,0.984375 1.546875,2.5625 1.546875,4.640625 0,1.71875 -0.359375,3.46875 -1.59375,4.71875 C 0.5625,2.34375 0.5625,2.359375 0.5625,2.390625 0.5625,2.453125 0.609375,2.5 0.671875,2.5 0.765625,2.5 1.671875,1.8125 2.25,0.546875 2.765625,-0.546875 2.875,-1.65625 2.875,-2.5 Z m 0,0"
           transform="translate(174.07,134.765)"
           id="path3932" />
      </g>
    </g>
  </g>
  <text
     xml:space="preserve"
     style="font-style:normal;font-variant:normal;font-weight:normal;font-stretch:normal;font-size:13.56963253px;line-height:1.25;font-family:'CMU Classical Serif';-inkscape-font-specification:'CMU Classical Serif';letter-spacing:0px;word-spacing:0px;fill:#000000;fill-opacity:1;stroke:none;stroke-width:0.40708899"
     x="15.701342"
     y="9.5665913"
     id="text3942"><tspan
       sodipodi:role="line"
       id="tspan3940"
       x="15.701342"
       y="9.5665913"
       style="stroke-width:0.40708899">Generative</tspan></text>
  <text
     xml:space="preserve"
     style="font-style:normal;font-variant:normal;font-weight:normal;font-stretch:normal;font-size:13.56963253px;line-height:1.25;font-family:'CMU Classical Serif';-inkscape-font-specification:'CMU Classical Serif';letter-spacing:0px;word-spacing:0px;fill:#000000;fill-opacity:1;stroke:none;stroke-width:0.40708899"
     x="125.32343"
     y="9.2680588"
     id="text3946"><tspan
       sodipodi:role="line"
       id="tspan3944"
       x="125.32343"
       y="9.2680588"
       style="stroke-width:0.40708899">Discriminative</tspan></text>
</svg>
