<?xml version="1.0" encoding="UTF-8" standalone="no"?>
<!-- Created with Inkscape (http://www.inkscape.org/) -->

<svg
   xmlns:dc="http://purl.org/dc/elements/1.1/"
   xmlns:cc="http://creativecommons.org/ns#"
   xmlns:rdf="http://www.w3.org/1999/02/22-rdf-syntax-ns#"
   xmlns:svg="http://www.w3.org/2000/svg"
   xmlns="http://www.w3.org/2000/svg"
   xmlns:sodipodi="http://sodipodi.sourceforge.net/DTD/sodipodi-0.dtd"
   xmlns:inkscape="http://www.inkscape.org/namespaces/inkscape"
   width="86.321007mm"
   height="86.321007mm"
   viewBox="0 0 86.321007 86.321007"
   version="1.1"
   id="svg8"
   inkscape:version="0.92.4 (unknown)"
   inkscape:export-filename="/home/artur/Desktop/ML/site/favicon-512.png"
   inkscape:export-xdpi="150.65627"
   inkscape:export-ydpi="150.65627"
   sodipodi:docname="favicon.svg">
  <defs
     id="defs2" />
  <sodipodi:namedview
     id="base"
     pagecolor="#ffffff"
     bordercolor="#666666"
     borderopacity="1.0"
     inkscape:pageopacity="0.0"
     inkscape:pageshadow="2"
     inkscape:zoom="0.98994949"
     inkscape:cx="301.1768"
     inkscape:cy="169.09176"
     inkscape:document-units="mm"
     inkscape:current-layer="layer1"
     showgrid="false"
     inkscape:window-width="1920"
     inkscape:window-height="961"
     inkscape:window-x="0"
     inkscape:window-y="27"
     inkscape:window-maximized="1" />
  <metadata
     id="metadata5">
    <rdf:RDF>
      <cc:Work
         rdf:about="">
        <dc:format>image/svg+xml</dc:format>
        <dc:type
           rdf:resource="http://purl.org/dc/dcmitype/StillImage" />
        <dc:title></dc:title>
      </cc:Work>
    </rdf:RDF>
  </metadata>
  <g
     inkscape:label="Layer 1"
     inkscape:groupmode="layer"
     id="layer1"
     transform="translate(-13.403372,-48.542924)">
    <g
       id="g851"
       transform="translate(-35.512193,3.1725814)">
      <path
         inkscape:connector-curvature="0"
         id="path817"
         d="m 83.200799,58.555671 c 63.726711,0 11.668272,11.668272 11.668272,11.668272 0,0 -53.404784,17.053631 -2.468287,22.43899"
         style="fill:none;stroke:#ffff00;stroke-width:1.31391764;stroke-linecap:butt;stroke-linejoin:miter;stroke-miterlimit:4;stroke-dasharray:none;stroke-opacity:1" />
      <path
         inkscape:connector-curvature="0"
         id="path819"
         d="M 80.059342,107.47267 105.86417,48.906907"
         style="fill:#ff0000;stroke:#ff0000;stroke-width:1.31391764;stroke-linecap:butt;stroke-linejoin:miter;stroke-miterlimit:4;stroke-dasharray:none;stroke-opacity:1" />
      <path
         inkscape:connector-curvature="0"
         id="path821"
         d="M 117.30806,83.238558 C 96.66419,103.65803 93.522733,107.69705 92.400784,92.662933 91.278833,77.62881 79.161783,62.145908 74.449596,79.423929 69.737408,96.701949 41.239896,100.51658 70.859357,98.497061 100.47882,96.477558 140.6446,86.828794 117.75683,78.526369 94.869071,70.223943 92.400784,75.160525 92.400784,92.662933 c 0,17.502407 3.814628,24.234097 -9.424374,20.868247"
         style="fill:none;stroke:#ff00ff;stroke-width:1.31391764;stroke-linecap:butt;stroke-linejoin:miter;stroke-miterlimit:4;stroke-dasharray:none;stroke-opacity:1" />
      <path
         inkscape:connector-curvature="0"
         id="path823"
         d="M 126.73243,51.599585 C 101.37638,71.794672 123.1422,75.38491 96.66419,82.565385 70.186188,89.745859 71.981307,49.355688 65.69839,73.365402 59.415475,97.375119 40.342337,118.01898 64.576441,110.16534 88.810544,102.3117 96.215412,129.01409 77.591053,125.87263 58.966694,122.73117 52.010609,131.48237 69.513018,106.79949 87.015426,82.116607 58.069135,59.677619 72.878866,82.116607 87.688596,104.55559 113.26904,125.87263 95.991022,122.95555 78.713002,120.03849 56.722796,132.37992 82.97641,113.53118 109.23003,94.682436 124.26415,61.02396 103.84466,81.892217 83.425189,102.76046 73.103255,115.5507 70.634967,100.96535 68.166679,86.380014 46.625253,82.116607 76.469103,86.380014"
         style="fill:none;stroke:#00ff00;stroke-width:1.31391764;stroke-linecap:butt;stroke-linejoin:miter;stroke-miterlimit:4;stroke-dasharray:none;stroke-opacity:1" />
      <path
         inkscape:connector-curvature="0"
         id="path825"
         d="M 110.58455,102.12955 C 87.018957,95.848059 48.71391,74.003821 87.596597,88.959723 126.47928,103.91563 145.29141,102.29158 114.43229,104.53543 83.573187,106.7793 57.497314,96.873742 89.607041,104.55882 121.71677,112.24388 147.41851,86.688584 119.93194,103.62973 92.44538,120.57088 109.06822,146.0133 90.156842,119.7942 71.24547,93.575094 55.832465,112.28159 58.75503,88.50011 61.677594,64.718637 39.29387,47.045612 69.7368,68.069758 100.17973,89.093899 129.88551,102.6955 118.79478,84.93883 107.70403,67.18216 80.978566,65.284583 84.035999,55.497627 87.093436,45.710666 82.902724,40.944266 102.04488,53.776972"
         style="fill:none;stroke:#0000ff;stroke-width:1.22996128;stroke-linecap:butt;stroke-linejoin:miter;stroke-miterlimit:4;stroke-dasharray:none;stroke-opacity:1" />
    </g>
  </g>
</svg>
