<?xml version="1.0" encoding="UTF-8" standalone="no"?>
<!-- Created with Inkscape (http://www.inkscape.org/) -->

<svg
   xmlns:dc="http://purl.org/dc/elements/1.1/"
   xmlns:cc="http://creativecommons.org/ns#"
   xmlns:rdf="http://www.w3.org/1999/02/22-rdf-syntax-ns#"
   xmlns:svg="http://www.w3.org/2000/svg"
   xmlns="http://www.w3.org/2000/svg"
   xmlns:sodipodi="http://sodipodi.sourceforge.net/DTD/sodipodi-0.dtd"
   xmlns:inkscape="http://www.inkscape.org/namespaces/inkscape"
   width="47.75729mm"
   height="47.360416mm"
   viewBox="0 0 169.21874 167.8125"
   id="svg2"
   version="1.1"
   inkscape:version="0.92.4 (unknown)"
   sodipodi:docname="sapienza.svg"
   inkscape:export-filename="sapienza_logo_portrait.png"
   inkscape:export-xdpi="272.09"
   inkscape:export-ydpi="272.09">
  <defs
     id="defs4" />
  <sodipodi:namedview
     id="base"
     pagecolor="#ffffff"
     bordercolor="#666666"
     borderopacity="1.0"
     inkscape:pageopacity="0.0"
     inkscape:pageshadow="2"
     inkscape:zoom="0.9899495"
     inkscape:cx="-185.52915"
     inkscape:cy="174.15914"
     inkscape:document-units="px"
     inkscape:current-layer="layer3"
     showgrid="false"
     fit-margin-top="0"
     fit-margin-left="0"
     fit-margin-right="0"
     fit-margin-bottom="0"
     inkscape:window-width="1920"
     inkscape:window-height="961"
     inkscape:window-x="0"
     inkscape:window-y="27"
     inkscape:window-maximized="1" />
  <metadata
     id="metadata7">
    <rdf:RDF>
      <cc:Work
         rdf:about="">
        <dc:format>image/svg+xml</dc:format>
        <dc:type
           rdf:resource="http://purl.org/dc/dcmitype/StillImage" />
        <dc:title></dc:title>
      </cc:Work>
    </rdf:RDF>
  </metadata>
  <g
     inkscape:groupmode="layer"
     id="layer5"
     inkscape:label="BG"
     sodipodi:insensitive="true"
     transform="translate(-214.64831,20.727326)">
    <rect
       style="fill:#ffffff;fill-opacity:1;fill-rule:evenodd;stroke:none;stroke-width:1.99300003;stroke-linejoin:round;stroke-miterlimit:4;stroke-dasharray:none;stroke-opacity:1"
       id="rect4455"
       width="200"
       height="220"
       x="-7.6293945e-06"
       y="-1.5101161" />
  </g>
  <g
     inkscape:groupmode="layer"
     id="layer3"
     inkscape:label="logo"
     style="display:inline"
     transform="translate(-214.64832,132.94402)">
    <g
       id="g4431"
       transform="matrix(1.2167066,0,0,1.2946626,245.37809,-117.83173)">
      <path
         d="M 44.281017,-3.699317e-6 C 19.857803,-3.699317e-6 2.5000001e-6,23.836659 2.5000001e-6,53.134762 2.5000001e-6,82.438963 19.857803,106.27319 44.281018,106.27319 c 24.418952,0 44.285278,-23.834227 44.285278,-53.138428 C 88.566296,23.836659 68.69997,-3.699317e-6 44.281017,-3.699317e-6 Z"
         style="fill:#6f0a19;fill-opacity:1;fill-rule:evenodd;stroke:none"
         id="path4148"
         inkscape:connector-curvature="0" />
      <path
         d="m 78.59437,68.908687 c -0.153801,0.488288 -0.5371,1.25 -1.218262,1.799313 0,0 -0.549313,-0.500488 -0.549313,-0.500488 0.607913,-0.3955 1.083987,-1.097412 1.2085,-1.488037 0.290525,-0.915525 0.07075,-1.715088 -0.722662,-1.977537 -0.390625,-0.134275 -0.750725,0.152587 -1.096188,0.482187 -0.551763,0.506587 -1.003413,1.13525 -1.650388,1.513662 -0.500488,0.305175 -1.071775,0.502938 -1.865237,0.238038 -1.086425,-0.366213 -1.440425,-1.678462 -1.0498,-2.923575 0.134275,-0.41505 0.3662,-0.903325 0.699463,-1.531988 0.509024,0.140375 0.875236,0.26245 1.168211,0.360113 0.158688,0.05487 0.308838,0.122 0.235587,0.3601 -0.04887,0.152587 -0.140375,0.244137 -0.711662,0.1648 -0.24415,-0.04275 -0.588387,0.164787 -0.826425,0.903312 -0.2478,0.793463 -0.10375,1.538088 0.640875,1.788338 0.5249,0.177 1.30615,-0.772713 1.617425,-1.126713 0.354013,-0.393062 0.765388,-0.842287 1.263438,-1.088862 0.451662,-0.238037 1.013175,-0.305175 1.601562,-0.10375 1.296387,0.43335 1.669913,1.82495 1.254875,3.1311 z m -7.825312,1.457525 c -0.04887,0.1709 0.140375,0.219725 0.2716,0.280763 0,0 5.7129,2.746575 5.7129,2.746575 0,0 -0.42725,1.196287 -0.42725,1.196287 0,0 -5.81055,-2.7954 -5.81055,-2.7954 -0.369263,-0.175787 -0.292963,-0.1587 -0.509638,0.166013 -0.0915,0.146487 -0.17395,0.354 -0.357062,0.261225 -0.18005,-0.0855 -0.216675,-0.244138 -0.106875,-0.456538 0.146487,-0.263675 0.375375,-0.708012 0.482187,-0.935062 0.10075,-0.231938 0.250238,-0.622563 0.354,-0.9082 0.0855,-0.22705 0.231938,-0.3003 0.405888,-0.21485 0.137325,0.06838 0.09762,0.251475 -0.01525,0.659187 z m 2.5177,6.123039 c 0.717775,0.45655 0.998537,1.232912 0.537112,2.001962 -0.185551,0.31005 -0.423587,0.598138 -0.659187,0.834963 -0.06963,0.06837 -0.07325,0.07325 -0.136714,0.03175 0,0 -2.490849,-1.60645 -2.490849,-1.60645 0,0 0.201425,-0.334475 0.201425,-0.334475 0.802612,-1.318363 1.705924,-1.472163 2.548212,-0.927738 z m -3.39355,-1.252439 c 0.598136,0.385751 1.000975,0.922851 0.430287,1.867676 0,0 -0.222775,0.373538 -0.222775,0.373538 0,0 -2.053838,-1.330563 -2.053838,-1.330563 -0.158687,-0.105 -0.216662,-0.134275 -0.128162,-0.280762 0,0 0.09762,-0.1709 0.09762,-0.1709 0.43945,-0.720214 1.153562,-0.927739 1.876837,-0.458989 z m 3.955074,0.117125 c -1.000974,-0.646975 -1.906737,-0.251462 -2.596437,0.476076 0.05737,-0.744626 -0.23255,-1.367188 -0.903925,-1.794438 -0.756837,-0.488275 -1.89515,-0.105 -2.532962,0.95215 -0.216675,0.354012 -0.375363,0.720214 -0.5951,1.079101 -0.143425,0.239263 -0.402826,0.617675 -0.540164,0.776375 -0.10675,0.122 -0.225825,0.244138 -0.305175,0.378413 -0.10375,0.1709 -0.061,0.354012 0.0885,0.451662 0.131225,0.07813 0.195313,0.04887 0.402825,-0.26855 0.2533,-0.373538 0.314339,-0.317387 0.625613,-0.117125 0,0 0.238038,0.1538 0.238038,0.1538 0,0 5.2008,3.349613 5.2008,3.349613 0,0 0.445563,-0.859375 0.549325,-1.030276 0.222162,-0.3418 0.445549,-0.488275 0.673824,-0.874025 0.778813,-1.274412 0.78125,-2.832025 -0.305175,-3.532713 z m -11.706551,8.239751 c -0.134275,0.261225 -0.09763,0.622563 -0.04888,0.842288 0,0 1.443488,6.6333 1.443488,6.6333 0,0 -0.650026,0.567625 -0.650026,0.567625 -2.380375,-1.65405 -3.963625,-2.551275 -5.90455,-3.955075 -0.146475,-0.10375 -0.219725,-0.201425 -0.393675,-0.09163 -0.317375,0.201425 -0.415037,0.1709 -0.500487,0.03663 -0.09763,-0.152588 -0.058,-0.323488 0.137337,-0.42725 0.2777,-0.140375 0.717163,-0.419913 0.949088,-0.5542 0.292975,-0.166013 0.503537,-0.02438 0.735475,0.134287 0,0 4.754025,3.3313 4.754025,3.3313 0,0 -1.254263,-5.584725 -1.254263,-5.584725 -0.07325,-0.358887 -0.741587,0.3003 -0.930787,0.0075 -0.09763,-0.158687 -0.02437,-0.275875 0.1709,-0.402825 0.354,-0.231937 0.952137,-0.8545 1.272575,-1.240237 0.155637,-0.175788 0.35095,-0.12695 0.451662,0.02438 0.05188,0.09275 -0.061,0.336912 -0.231937,0.678712 z m -10.460813,6.2854 c -0.415037,0.201413 -0.4425,0.329588 -0.296012,0.885013 0.170887,0.665275 1.611325,6.115713 1.611325,6.115713 0,0 -1.30615,0.3418 -1.30615,0.3418 0,0 -1.425175,-5.572513 -1.425175,-5.572513 0,0 -1.443488,5.560313 -1.443488,5.560313 0,0 -0.595087,0.201413 -0.595087,0.201413 0,0 -3.283689,-4.870613 -3.283689,-4.870613 0,0 0.375975,5.560313 0.375975,5.560313 0,0 -1.147462,0.329587 -1.147462,0.329587 0,0 -0.415038,-6.353763 -0.415038,-6.353763 -0.04638,-0.646975 -0.140387,-0.79345 -0.5249,-0.823975 -0.317387,-0.0305 -0.457775,-0.116 -0.482187,-0.286863 -0.04025,-0.26855 0.19165,-0.311275 0.305175,-0.317387 0.311287,-0.0063 1.12915,0.0305 1.397712,0.01825 0.231938,-0.0125 0.354,0.02438 0.537113,0.286862 0,0 3.381338,5.151376 3.381338,5.151376 0,0 1.528325,-5.883788 1.528325,-5.883788 0.08237,-0.286875 0.2655,-0.42725 0.476075,-0.488288 0.277713,-0.06713 0.95215,-0.323487 1.242063,-0.402825 0.112875,-0.0305 0.393675,-0.04887 0.4303,0.201413 0.02437,0.1831 -0.09763,0.219725 -0.366213,0.3479 z m -9.786376,1.373288 c -0.1709,0.02438 -0.317386,0.109875 -0.443112,0.299075 0,0 -4.128425,5.847163 -4.128425,5.847163 0,0 -0.848388,-0.109875 -0.848388,-0.109875 -0.4303,-2.929687 -0.744625,-4.748537 -1.062012,-7.177726 -0.01837,-0.177012 -0.0062,-0.299075 -0.201413,-0.360112 -0.360112,-0.10375 -0.399775,-0.201413 -0.366212,-0.354 0.04275,-0.177013 0.198362,-0.26245 0.402837,-0.183113 0.286863,0.116 0.7843,0.25635 1.0376,0.3479 0.311275,0.109875 0.3601,0.366213 0.396725,0.646975 0,0 0.729363,5.871589 0.729363,5.871589 0,0 3.262337,-4.699714 3.262337,-4.699714 0.20385,-0.299075 -0.720212,-0.354 -0.634775,-0.708012 0.04512,-0.177 0.183113,-0.207512 0.402838,-0.140375 0.280762,0.09762 1.409912,0.189212 1.715087,0.189212 0.231938,0.0063 0.3357,0.0855 0.305175,0.292963 -0.022,0.146487 -0.164787,0.189212 -0.567625,0.238037 z M 33.54188,89.030701 c -0.158688,-0.05487 -0.210575,0.140375 -0.277713,0.27465 0,0 -2.801512,5.712901 -2.801512,5.712901 0,0 -1.144414,-0.482187 -1.144414,-0.482187 0,0 2.847301,-5.804439 2.847301,-5.804439 0.1892,-0.378413 0.164788,-0.305175 -0.137337,-0.531 -0.137325,-0.10375 -0.338738,-0.195312 -0.244138,-0.378425 0.0855,-0.1831 0.244138,-0.213625 0.448613,-0.09762 0.247187,0.158688 0.674437,0.415037 0.891112,0.5249 0.213625,0.116 0.592038,0.280762 0.869751,0.396725 0.207512,0.0915 0.277712,0.244138 0.192262,0.42725 -0.07025,0.140375 -0.25025,0.0915 -0.643925,-0.04275 z m -5.264276,0.579825 c -1.132213,1.501475 -2.563488,2.105725 -4.089363,0.878912 -0.402825,-0.323487 -0.69275,-0.585937 -0.891112,-0.8606 -0.122125,-0.164787 -0.10675,-0.1831 0.06413,-0.415037 0,0 3.414912,-4.521487 3.414912,-4.521487 0.152588,-0.207513 0.2472,-0.207513 0.4181,-0.061 0,0 0.747675,0.598138 0.747675,0.598138 1.913451,1.530762 1.330563,3.050538 0.3357,4.3811 z m 1.14745,0.714112 c 1.306163,-1.733387 0.842288,-3.942862 -0.927725,-5.358887 -0.4364,-0.346675 -0.729375,-0.5664 -0.985725,-0.756825 -0.210563,-0.151375 -0.424188,-0.305175 -0.625613,-0.46875 -0.213612,-0.1709 -0.482175,-0.41505 -0.6073,-0.56885 -0.109874,-0.11475 -0.216674,-0.25635 -0.338736,-0.354012 -0.137338,-0.109875 -0.311289,-0.11475 -0.4303,0.03662 -0.134275,0.178225 0.02437,0.292975 0.207525,0.458988 0.329587,0.292962 0.2716,0.346675 0.04575,0.65185 0,0 -3.927613,5.212413 -3.927613,5.212413 0.585938,0.402825 0.949088,0.640862 1.431275,1.129149 0.213613,0.219725 0.399775,0.427238 0.543213,0.537101 2.020262,1.623538 4.214475,1.336675 5.615225,-0.5188 z m -4.647825,-8.056637 c -0.112875,-0.11475 -0.292963,-0.134275 -0.503538,-0.07325 0,0 -6.625362,1.867675 -6.625362,1.867675 0,0 -0.588988,-0.627438 -0.588988,-0.627438 1.431275,-2.570812 2.3468,-4.255375 3.5675,-6.347662 0.09762,-0.158688 0.18005,-0.244138 0.07025,-0.422363 -0.219725,-0.310062 -0.195312,-0.407712 -0.07325,-0.505375 0.137325,-0.117125 0.308225,-0.08062 0.42725,0.109875 0.149525,0.280763 0.45165,0.708013 0.598138,0.944825 0.183112,0.288088 0.061,0.520025 -0.08238,0.764163 0,0 -3.05175,5.11475 -3.05175,5.11475 0,0 5.3955,-1.5625 5.3955,-1.5625 0.3418,-0.105 -0.341788,-0.744638 -0.06412,-0.964363 0.137337,-0.105 0.268562,-0.04387 0.402837,0.151375 0.158688,0.263663 0.329588,0.537101 0.476075,0.739738 0.149538,0.195312 0.292963,0.346687 0.491325,0.578613 0.15565,0.178225 0.146488,0.349124 0.0087,0.458987 -0.0855,0.06587 -0.1709,0.03663 -0.448612,-0.22705 z m -4.492188,-6.474613 c -0.06412,0.0125 -0.137325,0 -0.381462,0.02438 0,0 -0.146488,-0.512701 -0.146488,-0.512701 0,0 -0.95215,-1.997075 -0.95215,-1.997075 0,0 -5.89295,2.985839 -5.89295,2.985839 0,0 -0.656126,-1.074214 -0.656126,-1.074214 0,0 6.002814,-3.051762 6.002814,-3.051762 -0.2594,-0.585938 -0.759888,-1.611325 -0.759888,-1.611325 -0.289925,-0.593263 -0.366212,-0.378413 -0.78125,-0.25635 -0.192262,0.05375 -0.390625,0.07813 -0.460812,-0.061 -0.09762,-0.214838 -0.0125,-0.300288 0.1831,-0.402825 0.228887,-0.117125 0.52185,-0.25635 0.814825,-0.390625 0.344837,-0.1648 0.454712,0 0.564575,0.26855 0.134275,0.310062 0.253287,0.578612 0.43945,1.013187 0.561525,1.29395 1.196287,2.575688 1.803587,3.845213 0.112875,0.236812 0.283813,0.444337 0.42725,0.651862 0.03963,0.06838 0.0855,0.117125 0.109875,0.166013 0.02437,0.061 0.0885,0.261226 -0.10675,0.358888 -0.10075,0.05612 -0.112875,0.04887 -0.207525,0.04387 z M 9.7992031,69.134462 c -0.16785,-0.488287 -0.302125,-1.336675 -0.0855,-2.197274 0,0 0.7446249,0.061 0.7446249,0.061 -0.265499,0.6897 -0.231925,1.546637 -0.10675,1.934812 0.305187,0.915525 0.9491,1.4087 1.7334,1.135263 0.390625,-0.141613 0.50965,-0.585938 0.5951,-1.068125 0.146489,-0.748288 0.143427,-1.531975 0.436402,-2.233888 0.219725,-0.555412 0.564575,-1.068112 1.348875,-1.348875 1.083375,-0.384512 2.130124,0.445563 2.545161,1.684575 0.134289,0.415038 0.231938,0.95215 0.332651,1.65405 -0.488287,0.203863 -0.854501,0.3357 -1.147463,0.435788 -0.149538,0.05862 -0.317387,0.101375 -0.390624,-0.136713 -0.04888,-0.152587 -0.0275,-0.286862 0.473024,-0.573737 0.210562,-0.122 0.369262,-0.500488 0.125113,-1.2329 -0.2594,-0.793463 -0.805662,-1.29395 -1.550287,-1.0315 -0.51575,0.183112 -0.588988,1.428225 -0.634763,1.9043 -0.05188,0.537112 -0.122125,1.147462 -0.369262,1.65405 -0.225838,0.46875 -0.631713,0.8667 -1.226814,1.0791 -1.284787,0.458987 -2.392576,-0.419925 -2.8228754,-1.719963 z M 66.307383,80.798276 c 0.579837,0.5249 1.2146,1.342775 0.228887,2.490237 -0.09462,0.109875 -0.146487,0.163575 -0.216675,0.224613 0,0 -2.224737,-2.043463 -2.224737,-2.043463 -0.0855,-0.07325 -0.119001,-0.1416 0.0025,-0.280762 0,0 0.244136,-0.280762 0.244136,-0.280762 0.741575,-0.861813 1.324463,-0.6958 1.965326,-0.109875 z m 5.402225,1.811525 c -0.07937,-0.07325 -0.16845,-0.061 -0.231938,-0.04888 -0.231925,0.04888 -0.5133,0.07325 -0.742187,0.04387 -1.062013,-0.1416 -2.029413,-0.207512 -3.100576,-0.341787 0.204463,-0.646976 0.241087,-1.813976 -0.6012,-2.5879 -0.86365,-0.788575 -2.00195,-0.385738 -2.709963,0.439462 -0.305175,0.354 -0.582887,0.7495 -0.888062,1.110837 -0.17395,0.207513 -0.570676,0.62255 -0.732426,0.756838 -0.122,0.1025 -0.2655,0.200188 -0.366213,0.322262 -0.119,0.134276 -0.161737,0.288088 -0.0125,0.427251 0.158688,0.141599 0.277713,0.04387 0.463863,-0.1587 0.308226,-0.317376 0.366213,-0.268551 0.643926,-0.0125 0,0 4.718012,4.340812 4.718012,4.340812 0,0 0.714113,-1.0498 0.714113,-1.0498 0,0 -2.148438,-1.977537 -2.148438,-1.977537 0,0 0.0915,-0.109875 0.0915,-0.109875 0.134288,-0.1587 0.201425,-0.231938 0.286875,-0.390625 0,0 2.383413,0.25635 2.383413,0.25635 0.784312,0.09762 1.3794,0.292962 1.98975,-0.422375 0.15625,-0.175775 0.317387,-0.5249 0.2417,-0.598138 z m -25.50964,3.278812 c -0.04512,0.2124 0.186764,0.419913 0.394289,0.2124 0.640862,-0.651862 1.400137,-1.958012 1.900625,-4.089362 1.586912,-6.633301 0.415037,-15.123289 0.415037,-15.141601 -0.478512,-3.598625 2.795413,-5.649412 5.502325,-6.970212 0.955199,-0.463863 1.773075,-1.147463 2.26135,-1.739501 0.500487,-0.579838 0.930788,-1.489263 1.2207,-2.453613 0.842288,-2.840575 2.465213,-6.107175 6.160901,-6.290288 0.02438,0 8.718863,-0.6372 15.112913,-3.342287 2.043451,-0.8667 3.212888,-1.9165 3.759763,-2.648925 0.163575,-0.23925 -0.083,-0.4248 -0.290525,-0.341788 -5.996101,2.4121 -11.792001,3.5913 -18.106088,3.663325 0,0 -0.607288,0.02437 -0.607288,0.02437 -2.200326,0.0525 -4.162601,0.980225 -5.562751,2.43775 -2.212525,2.307125 -1.64795,6.3269 -3.091425,7.919913 -1.452637,1.593026 -5.11475,1.794438 -7.312012,4.296876 -1.326913,1.513675 -2.071539,3.656012 -1.735851,5.786137 0.0025,0.0025 0.0855,0.665288 0.0855,0.677488 1.055912,6.085212 1.247562,11.798101 -0.107376,17.999276 z m 3.671264,-2.229012 c -0.04575,0.1294 0.09763,0.21485 0.210562,0.1294 0.582888,-0.415037 1.144413,-1.472175 1.925663,-3.046875 0.891112,-1.806638 2.648925,-7.487801 2.740475,-12.071539 0.04275,-1.776125 -0.05188,-3.546137 -0.26245,-5.297849 0,0 -0.05488,0 -0.05488,0 -1.39465,0.128174 -2.444463,1.263425 -2.459713,2.6062 0.01525,0.1709 0.0275,0.354 0.03963,0.531012 0.473025,5.694575 -0.26855,11.517326 -2.139275,17.149651 z m 4.1626,-4.3457 c -0.134288,0.275875 0,0.349125 0.210562,0.109875 0.95215,-1.062012 1.974488,-2.1289 2.673338,-3.405762 2.124025,-3.869627 3.05115,-8.079839 3.05115,-12.205814 0,-0.891113 -0.04887,-1.782225 -0.122,-2.661125 -0.05187,-0.186775 -0.04887,-0.345462 -0.01525,-0.396737 0.03663,-0.05862 0.1648,-0.05488 0.369262,-0.05862 0.903325,-0.07563 1.803588,-0.191651 2.69775,-0.350338 4.150401,-0.732425 8.224489,-2.368176 11.734626,-5.102551 1.156,-0.89965 2.044675,-2.071525 2.948,-3.179925 0.201413,-0.25025 0.109875,-0.366212 -0.146487,-0.18555 -5.187988,3.640138 -11.017463,5.73365 -17.005014,6.071775 -0.659175,0.022 -1.519163,0.3418 -2.19665,0.876476 -0.421137,0.329588 -0.741575,0.744625 -0.839237,1.202388 -0.256338,0.6189 -0.354,1.30615 -0.280763,1.82495 0.732425,5.834962 -0.338737,11.816412 -3.079212,17.460938 z M 66.862808,54.461599 c 4.59045,-0.906975 10.004275,-3.521725 11.663212,-4.7058 1.447751,-1.030275 2.402339,-1.760262 2.722164,-2.395025 0.061,-0.125738 -0.04887,-0.251463 -0.1709,-0.1831 -5.327151,2.81005 -11.071164,4.47265 -16.881714,5.029288 -0.177,0.02075 -0.360113,0.03663 -0.540163,0.04888 -1.342776,0.261225 -2.297976,1.473387 -2.169801,2.8833 1.800538,-0.09763 3.594977,-0.323488 5.377202,-0.6775 z M 44.415292,53.244561 c 0.6958,0 1.257325,0.28565 1.257325,0.521238 0,0.2356 -0.561525,0.524912 -1.257325,0.524912 -0.6897,0 -1.251225,-0.289312 -1.251225,-0.524912 0,-0.235588 0.561526,-0.521238 1.251225,-0.521238 z m -3.3081,-2.0459 c -2.16675,0 -2.032475,-0.5371 -2.084962,-0.704337 0,0 0.571287,-1.109625 2.097162,-1.109625 1.516113,0 1.928713,1.33545 1.928713,1.33545 0,0 -0.3418,0.478512 -1.940913,0.478512 z m 3.3081,6.101075 c -1.340325,0 -2.42675,-1.116937 -2.42675,-1.434325 0,-0.317387 4.858389,-0.317387 4.858389,0 0,0.317388 -1.088864,1.434325 -2.431639,1.434325 z m 3.237314,-6.101075 c -1.595464,0 -1.931164,-0.478512 -1.931164,-0.478512 0,0 0.402839,-1.33545 1.928715,-1.33545 1.516112,0 2.086799,1.109625 2.086799,1.109625 -0.04888,0.167237 0.0855,0.704337 -2.08435,0.704337 z m 3.588862,0.751963 c -0.09763,-1.01075 -0.231937,-2.8418 -0.26855,-3.8086 -2.797862,0 -5.761726,-2.139888 -6.591801,-3.471675 -0.826425,1.331787 -3.796387,3.471675 -6.591186,3.471675 -0.03963,0.9668 -0.170901,2.79785 -0.271614,3.8086 -0.192262,1.8518 0.466926,3.774412 1.699225,5.1599 0.634763,0.714112 1.428225,1.409912 2.304688,1.812751 0.07563,0.0305 0.158687,0.061 0.246575,0.09763 0,0 0.4187,0.1831 0.4187,0.1831 0.238037,0.128175 0.372325,0.305175 0.60425,0.478512 0.649412,0.467538 1.5625,0.437013 1.586912,0.437013 0.0305,0 0.93995,0.0305 1.589363,-0.437013 0.229487,-0.173337 0.363763,-0.350337 0.607913,-0.478512 0,0 0.417475,-0.1831 0.417475,-0.1831 0.08913,-0.03663 0.168463,-0.06713 0.2478,-0.09763 0.87525,-0.402839 1.66565,-1.098639 2.303475,-1.812751 1.232913,-1.385488 1.892088,-3.3081 1.696775,-5.1599 z M 39.056406,38.92816 c -2.279663,1.3916 -2.948,1.428213 -2.948,1.428213 0,0 -0.01525,2.377938 3.389899,1.074225 1.196287,-0.458988 4.833987,-2.50855 4.221187,-3.361813 -1.03515,-1.434325 -2.817387,-0.273437 -4.663086,0.859375 z m 3.188474,3.103026 c -5.944212,3.415525 -8.028563,0.263675 -8.028563,0.263675 0,0 -2.26135,2.595213 1.47705,3.603513 3.948975,1.063225 6.622313,-1.348875 7.259525,-1.813963 1.181638,-0.8667 1.425775,-3.273926 -0.708012,-2.053225 z m 7.458501,-3.103026 c 2.282713,1.3916 3.0426,1.428213 3.0426,1.428213 0,0 -0.07937,2.377938 -3.4851,1.074225 -1.195688,-0.458988 -4.839489,-2.50855 -4.220589,-3.361813 1.02905,-1.434325 2.817389,-0.273437 4.663089,0.859375 z m -3.188474,3.103026 c 5.944212,3.415525 8.120112,0.263675 8.120112,0.263675 0,0 2.172849,2.595213 -1.565551,3.603513 -3.952025,1.063225 -6.6278,-1.348875 -7.262575,-1.813963 -1.177975,-0.8667 -1.425776,-3.273926 0.708014,-2.053225 z m 9.194337,4.411625 c -0.241087,0.328363 -1.3794,1.691888 -3.176887,1.890863 0.0275,0.738525 0.03963,1.700437 0.0885,2.474362 2.93275,-0.402825 4.187012,-2.604975 3.088387,-4.365225 z m -3.0365,6.505125 c -0.07937,0.860588 -0.299075,1.712638 -0.650025,2.52075 2.00195,-0.366212 3.283688,-1.540525 2.758788,-4.042975 -0.186163,0.399175 -1.025388,1.318363 -2.108763,1.318363 0,0 0,0.203862 0,0.203862 z M 36.13893,50.856874 c 0.05188,-0.7776 0.06412,-1.73585 0.0885,-2.478038 -1.794438,-0.196525 -2.9419,-1.5625 -3.176888,-1.892087 -1.098625,1.761475 0.152588,3.96485 3.088388,4.370125 z m -0.05488,1.936025 c -1.080326,0 -2.00805,-0.92285 -2.191164,-1.31835 -0.53405,2.502437 0.836188,3.67065 2.838138,4.036862 -0.34485,-0.80445 -0.564574,-1.6565 -0.646974,-2.518312 0,0 0,-0.2002 0,-0.2002 z M 44.28108,1.9481714 c -23.522951,0 -42.6574774,22.9626506 -42.6574774,51.1865276 0,28.225102 19.1345274,51.185311 42.6574774,51.185311 23.524778,0 42.65564,-22.960209 42.65564,-51.185311 0,-28.223877 -19.130863,-51.1865276 -42.65564,-51.1865276 z m 0,100.8581786 c -22.705076,0 -41.1743148,-22.283949 -41.1743148,-49.671651 0,-27.384039 18.4692398,-49.667965 41.1743148,-49.667965 22.706915,0 41.176154,22.283926 41.176154,49.667965 0,27.387702 -18.469239,49.671651 -41.176154,49.671651 z M 58.068306,45.456474 c -0.122,2.176512 2.43775,-1.555175 0.354012,-4.499514 -1.699837,-2.419425 -3.265387,-5.694575 -1.159675,-8.638912 0.01837,-0.01588 4.818125,-7.071538 6.591189,-13.647464 0.570688,-2.109375 0.460826,-3.656 0.219726,-4.523925 -0.07938,-0.280762 -0.378413,-0.2063 -0.43945,0 -1.773076,6.096188 -4.373164,11.269539 -8.16894,16.147464 0,0 -0.3418,0.47485 -0.34485,0.47485 -1.3031,1.719975 -1.766975,3.801275 -1.483162,5.776375 0.546262,3.804925 4.608162,5.698238 4.43115,8.911126 z m 1.177375,-11.060789 c -0.6189,1.188963 -0.252688,2.674563 0.891112,3.435063 1.055913,-1.4209 1.968388,-2.9358 2.7771,-4.5166 2.093502,-4.075938 3.341676,-9.855964 3.427127,-11.862801 0.08237,-1.743163 0.0885,-2.937013 -0.210576,-3.574213 -0.058,-0.128175 -0.219724,-0.120875 -0.244136,0.01462 -1.049801,5.832525 -3.247077,11.264651 -6.353765,16.055914 0,0 -0.286862,0.448 -0.286862,0.448 z m 2.478025,6.021725 c -0.765988,1.042488 -1.095574,3.483889 0.390625,4.066164 1.019288,0.401612 4.153452,0.05738 5.520638,-0.488275 0.253288,-0.09887 0.204464,-0.446775 0.0025,-0.528563 -1.21155,-0.505375 -3.082274,-0.979012 -3.90625,-1.171875 2.755738,-4.135751 4.52575,-9.102788 4.52575,-14.444588 0,-1.444088 -0.369262,-2.857664 -0.686637,-4.235839 -0.07025,-0.310062 -0.219738,-0.310062 -0.231938,-0.0012 -0.317387,6.239014 -2.227787,12.003176 -5.615238,16.804201 z M 31.659005,32.318048 c 2.111825,2.944337 0.540162,6.219487 -1.156613,8.638912 -2.078251,2.944339 0.476076,6.676026 0.354,4.499514 -0.17395,-3.212888 3.881838,-5.106201 4.431164,-8.911126 0.283811,-1.9751 -0.183113,-4.0564 -1.486213,-5.776375 0,0 -0.34485,-0.47485 -0.34485,-0.47485 -3.787225,-4.877925 -6.393427,-10.051276 -8.166501,-16.147464 -0.061,-0.2063 -0.357062,-0.280762 -0.43945,0 -0.234988,0.867925 -0.344851,2.41455 0.219725,4.523925 1.782225,6.575926 6.579589,13.631601 6.588738,13.647464 z m -5.6488,0.9961 c 0.808712,1.5808 1.721187,3.0957 2.737425,4.541012 1.184088,-0.784912 1.550301,-2.270512 0.936888,-3.459475 -0.10075,-0.148925 -0.195313,-0.300287 -0.292963,-0.448 -3.100588,-4.791262 -5.29785,-10.223388 -6.347663,-16.055913 -0.02438,-0.135488 -0.18615,-0.142813 -0.247187,-0.01463 -0.302125,0.6372 -0.289913,1.83105 -0.207525,3.574212 0.0855,2.006838 1.333625,7.786864 3.421025,11.862801 z m -0.817875,8.980713 c -0.820913,0.192863 -2.685538,0.6665 -3.90625,1.171875 -0.198363,0.08175 -0.244138,0.429688 0.0087,0.528563 1.367187,0.54565 4.504387,0.889887 5.520625,0.488275 1.486212,-0.582275 1.159675,-3.023676 0.387574,-4.066164 -3.38135,-4.801025 -5.29785,-10.565187 -5.612188,-16.804201 -0.0125,-0.308837 -0.158687,-0.308837 -0.231925,0.0012 -0.317387,1.378175 -0.68665,2.791751 -0.68665,4.235839 0,5.3418 1.770025,10.308837 4.51965,14.444588 z m 17.434701,25.594476 c 0,-0.0125 0.07937,-0.67505 0.08175,-0.677487 0.333249,-2.130125 -0.405276,-4.272463 -1.735839,-5.786138 -2.194225,-2.502437 -5.856324,-2.70385 -7.308962,-4.296876 -1.443488,-1.593012 -0.878912,-5.612787 -3.097538,-7.919912 -1.394651,-1.457525 -3.359988,-2.385263 -5.560301,-2.43775 0,0 -0.607299,-0.02437 -0.607299,-0.02437 -6.311038,-0.072 -12.106327,-1.25123 -18.1060891,-3.66333 -0.2075125,-0.083 -0.4577625,0.1025 -0.2868625,0.341787 0.5462625,0.732425 1.7089876,1.782225 3.7567127,2.648925 6.3934379,2.705088 15.0879009,3.342288 15.1123129,3.342288 3.698725,0.183112 5.319215,3.449712 6.164551,6.290287 0.289913,0.96435 0.720213,1.873775 1.2207,2.453613 0.488288,0.592038 1.306151,1.275638 2.26135,1.739501 2.706913,1.3208 5.977788,3.371587 5.501714,6.970212 0,0.01838 -1.174313,8.5083 0.406486,15.141601 0.509038,2.13135 1.265876,3.4375 1.910413,4.089363 0.207512,0.207512 0.43945,0 0.390625,-0.2124 -1.35255,-6.201175 -1.159675,-11.914064 -0.10375,-17.999276 z M 36.923292,66.50995 c 0.0125,-0.177013 0.02437,-0.360113 0.03663,-0.531013 -0.02137,-1.342775 -1.062013,-2.478025 -2.456675,-2.6062 0,0 -0.05487,0 -0.05487,0 -0.210575,1.751713 -0.305175,3.521725 -0.26245,5.29785 0.0885,4.583738 1.849362,10.264901 2.740474,12.071539 0.7782,1.5747 1.342776,2.631837 1.922613,3.046875 0.116,0.0855 0.256337,0 0.213612,-0.1294 C 37.188841,78.027276 36.450317,72.204525 36.923342,66.50995 Z m -5.102536,-4.656988 c 0.07325,-0.5188 -0.02437,-1.20605 -0.280763,-1.82495 -0.100751,-0.457762 -0.4242,-0.8728 -0.842287,-1.202387 -0.674438,-0.534676 -1.535039,-0.854501 -2.194214,-0.876476 -5.98755,-0.338125 -11.819462,-2.431638 -17.004401,-6.071775 -0.256337,-0.180663 -0.354,-0.06475 -0.149537,0.18555 0.903325,1.1084 1.794438,2.280275 2.951051,3.179925 3.506475,2.734375 7.583624,4.370126 11.734012,5.102551 0.891113,0.158687 1.794437,0.27465 2.6947,0.350337 0.201425,0.0038 0.3357,0 0.369263,0.05862 0.03663,0.05125 0.03963,0.209963 -0.0125,0.396738 -0.07625,0.8789 -0.122125,1.770012 -0.122125,2.661125 0,4.125975 0.927738,8.336187 3.051762,12.205813 0.69885,1.276863 1.721188,2.34375 2.673338,3.405763 0.216676,0.239262 0.344851,0.166012 0.210575,-0.109875 C 32.159142,73.669395 31.08798,67.687945 31.820405,61.852982 Z M 27.44758,55.139099 c 0.125125,-1.409913 -0.827025,-2.622075 -2.1698,-2.8833 -0.1831,-0.0125 -0.366213,-0.02812 -0.540163,-0.04888 -5.810537,-0.556638 -11.557,-2.219238 -16.8884265,-5.029288 -0.122,-0.06838 -0.2319375,0.05738 -0.1709,0.1831 0.3265375,0.634763 1.2786876,1.36475 2.7313255,2.395025 1.657113,1.184075 7.067876,3.798825 11.666876,4.7058 1.773063,0.354013 3.5675,0.579838 5.371088,0.6775 z M 43.396067,16.756522 c -1.370849,1.564937 -1.614987,5.679937 -1.773674,7.530525 -1.375738,-1.2317 -3.3899,-3.022463 -5.263675,-3.076175 -0.228887,-0.0087 -0.52185,0.04025 -0.253301,0.329587 0.915526,0.986325 3.060913,3.28125 4.076538,4.382326 0.476075,0.520025 1.000975,0.7019 1.489263,0.736088 0.272213,0.01462 0.43945,-0.0025 0.577388,-0.02437 0.094,-0.0025 0.360112,-0.100125 0.421149,-0.151375 0.170901,-0.1025 0.335687,-0.230713 0.494375,-0.3894 0.36255,-0.395513 0.622562,-0.8899 0.6189,-1.588139 -0.0025,-1.54785 0.0037,-5.828862 0.0037,-7.495112 0.0063,-0.424813 -0.238039,-0.42725 -0.390625,-0.253913 z m 1.7273,0.253912 c 0,1.66625 0.0125,5.947263 0,7.495113 0,0.698238 0.258789,1.192626 0.588375,1.551513 0.195313,0.195313 0.363775,0.323488 0.528563,0.426025 0.061,0.05125 0.325926,0.148925 0.421151,0.151375 0.134275,0.022 0.307612,0.039 0.531,0.02812 0.53345,-0.03787 1.05835,-0.219725 1.534425,-0.73975 1.013187,-1.101076 3.161625,-3.396001 4.07715,-4.382326 0.26855,-0.289312 -0.01525,-0.338137 -0.247188,-0.329587 -1.879887,0.05375 -3.89405,1.844475 -5.260625,3.076175 -0.1709,-1.850588 -0.451662,-5.965588 -1.818851,-7.530525 -0.158687,-0.173338 -0.354,-0.1709 -0.354,0.253912 z"
         style="fill:#ffffff;fill-opacity:1;fill-rule:evenodd;stroke:none"
         id="path4184"
         inkscape:connector-curvature="0" />
    </g>
  </g>
  <g
     inkscape:groupmode="layer"
     id="layer4"
     inkscape:label="text"
     style="display:inline"
     transform="translate(-214.64832,132.94402)" />
</svg>
